<?xml version="1.0" encoding="utf-8"?>
<!-- Generator: Adobe Illustrator 15.0.0, SVG Export Plug-In . SVG Version: 6.00 Build 0)  -->
<!DOCTYPE svg PUBLIC "-//W3C//DTD SVG 1.1//EN" "http://www.w3.org/Graphics/SVG/1.1/DTD/svg11.dtd">
<svg version="1.1" id="Layer_1" xmlns="http://www.w3.org/2000/svg" xmlns:xlink="http://www.w3.org/1999/xlink" x="0px" y="0px"
	 width="737.008px" height="425.197px" viewBox="0 0 737.008 425.197" enable-background="new 0 0 737.008 425.197"
	 xml:space="preserve">
<g>
	<polygon points="360.858,104.9 388.254,80.96 367.508,57.021 282.964,57.021 255.568,80.96 276.314,104.9 	"/>
	<polygon points="363.393,107.347 352.231,186.951 372.501,210.843 399.784,187.146 410.953,107.555 390.682,83.638 	"/>
	<polygon points="583.44,104.9 610.836,80.96 590.482,57.021 494.2,57.021 467.19,80.96 487.544,104.9 	"/>
	<polygon points="457.014,322.26 429.618,346.2 450.363,370.14 546.254,370.14 573.649,346.2 552.904,322.26 	"/>
	<polygon points="613.265,83.638 586.362,107.347 574.813,186.951 595.47,210.843 622.367,187.146 633.535,107.555 	"/>
	<polygon points="245.392,322.26 218.388,346.2 238.741,370.14 323.677,370.14 350.681,346.2 330.327,322.26 	"/>
	<polygon points="567.344,240.239 556.567,319.808 576.862,343.522 603.788,319.647 614.963,239.984 594.669,216.317 	"/>
	<polygon points="344.761,240.239 333.599,319.813 354.279,343.522 381.206,319.653 392.38,239.99 371.694,216.317 	"/>
	<polygon points="491.065,237.521 565.04,237.521 592.05,213.581 571.696,189.641 497.721,189.641 470.711,213.581 	"/>
	<polygon points="254.404,240.21 233.748,216.317 206.851,240.014 195.297,319.647 215.959,343.522 242.856,319.819 	"/>
	<polygon points="261.874,186.927 272.65,107.347 252.356,83.638 225.043,107.507 214.255,187.17 234.549,210.843 	"/>
	<polygon points="132.206,107.513 121.245,186.962 141.599,210.843 168.994,186.962 179.955,107.513 159.601,83.638 	"/>
	<polygon points="113.811,240.198 102.458,319.647 123.204,343.522 150.208,319.647 161.561,240.198 140.815,216.317 	"/>
</g>
</svg>
