<?xml version="1.0" encoding="utf-8"?>
<!-- Generator: Adobe Illustrator 15.0.0, SVG Export Plug-In . SVG Version: 6.00 Build 0)  -->
<!DOCTYPE svg PUBLIC "-//W3C//DTD SVG 1.1//EN" "http://www.w3.org/Graphics/SVG/1.1/DTD/svg11.dtd">
<svg version="1.1" id="Layer_1" xmlns="http://www.w3.org/2000/svg" xmlns:xlink="http://www.w3.org/1999/xlink" x="0px" y="0px"
	 width="383px" height="269px" viewBox="0 0 383 269" enable-background="new 0 0 383 269" xml:space="preserve">
<g>
	<polygon points="193.371,68.042 209.422,54.015 197.267,39.989 147.733,39.989 131.682,54.015 143.837,68.042 	"/>
	<polygon points="194.856,69.475 188.316,116.115 200.193,130.113 216.178,116.229 222.722,69.597 210.844,55.584 	"/>
	<polygon points="323.782,68.042 339.833,54.015 327.908,39.989 271.496,39.989 255.671,54.015 267.596,68.042 	"/>
	<polygon points="249.709,195.393 233.658,209.419 245.812,223.445 301.994,223.445 318.046,209.419 305.891,195.393 	"/>
	<polygon points="341.256,55.584 325.494,69.475 318.728,116.115 330.83,130.113 346.589,116.229 353.132,69.597 	"/>
	<polygon points="125.719,195.393 109.897,209.419 121.823,223.445 171.587,223.445 187.409,209.419 175.483,195.393 	"/>
	<polygon points="314.352,147.336 308.038,193.956 319.928,207.851 335.704,193.861 342.251,147.187 330.361,133.321 	"/>
	<polygon points="183.94,147.336 177.4,193.958 189.517,207.851 205.292,193.865 211.84,147.191 199.72,133.321 	"/>
	<polygon points="269.66,145.744 313.001,145.744 328.826,131.717 316.901,117.691 273.559,117.691 257.734,131.717 	"/>
	<polygon points="131,147.32 118.897,133.321 103.138,147.205 96.369,193.861 108.475,207.851 124.233,193.962 	"/>
	<polygon points="135.376,116.101 141.69,69.475 129.799,55.584 113.797,69.568 107.477,116.243 119.367,130.113 	"/>
	<polygon points="59.404,69.572 52.982,116.122 64.907,130.113 80.958,116.122 87.38,69.572 75.455,55.584 	"/>
	<polygon points="48.626,147.313 41.975,193.861 54.13,207.851 69.951,193.861 76.603,147.313 64.448,133.321 	"/>
</g>
</svg>
