<?xml version="1.0" encoding="UTF-8" standalone="no"?>
<!-- Created with Inkscape (http://www.inkscape.org/) -->
<svg
   xmlns:dc="http://purl.org/dc/elements/1.1/"
   xmlns:cc="http://creativecommons.org/ns#"
   xmlns:rdf="http://www.w3.org/1999/02/22-rdf-syntax-ns#"
   xmlns:svg="http://www.w3.org/2000/svg"
   xmlns="http://www.w3.org/2000/svg"
   xmlns:sodipodi="http://sodipodi.sourceforge.net/DTD/sodipodi-0.dtd"
   xmlns:inkscape="http://www.inkscape.org/namespaces/inkscape"
   width="990"
   height="630"
   id="svg2"
   sodipodi:version="0.32"
   inkscape:version="0.46"
   version="1.0"
   sodipodi:docname="651.svg"
   inkscape:output_extension="org.inkscape.output.svg.inkscape">
  <defs
     id="defs4">
    <inkscape:perspective
       sodipodi:type="inkscape:persp3d"
       inkscape:vp_x="0 : 526.18109 : 1"
       inkscape:vp_y="0 : 1000 : 0"
       inkscape:vp_z="744.09448 : 526.18109 : 1"
       inkscape:persp3d-origin="372.04724 : 350.78739 : 1"
       id="perspective10" />
  </defs>
  <sodipodi:namedview
     id="base"
     pagecolor="#ffffff"
     bordercolor="#666666"
     borderopacity="1.0"
     gridtolerance="10000"
     guidetolerance="10"
     objecttolerance="10"
     inkscape:pageopacity="0.0"
     inkscape:pageshadow="2"
     inkscape:zoom="0.35"
     inkscape:cx="375"
     inkscape:cy="-111.92121"
     inkscape:document-units="px"
     inkscape:current-layer="layer1"
     showgrid="false"
     units="in"
     inkscape:window-width="1280"
     inkscape:window-height="977"
     inkscape:window-x="-4"
     inkscape:window-y="-4" />
  <metadata
     id="metadata7">
    <rdf:RDF>
      <cc:Work
         rdf:about="">
        <dc:format>image/svg+xml</dc:format>
        <dc:type
           rdf:resource="http://purl.org/dc/dcmitype/StillImage" />
      </cc:Work>
    </rdf:RDF>
  </metadata>
  <g
     inkscape:label="Layer 1"
     inkscape:groupmode="layer"
     id="layer1">
    <path
       style="font-size:593px;font-style:normal;font-variant:normal;font-weight:normal;font-stretch:normal;text-align:start;line-height:100%;writing-mode:lr-tb;text-anchor:start;fill:#000000;fill-opacity:1;stroke:none;stroke-width:1px;stroke-linecap:butt;stroke-linejoin:miter;stroke-opacity:1;font-family:MouseLEDU;-inkscape-font-specification:MouseLEDU"
       d="M 130.1193,489.45104 L 85.220008,529.16506 L 50.711127,489.45104 L 69.584724,357.29614 L 114.50389,317.58212 L 149.01277,357.29614 L 130.1193,489.45104 z M 161.37001,268.76904 L 115.8151,308.46319 L 81.961829,268.76904 L 100.17982,136.61413 L 145.75459,96.900112 L 179.60786,136.61413 L 161.37001,268.76904 z M 331.32969,268.76904 L 285.75492,308.46319 L 251.90165,268.76904 L 270.13951,136.61413 L 315.71427,96.900112 L 349.56755,136.61413 L 331.32969,268.76904 z M 300.07899,489.45104 L 255.15983,529.16506 L 220.67082,489.45104 L 239.54441,357.29614 L 284.46357,317.58212 L 318.97245,357.29614 L 300.07899,489.45104 z M 479.11988,533.71459 L 434.20072,573.42861 L 292.92689,573.42861 L 259.07362,533.71459 L 303.99278,494.00057 L 445.26661,494.00057 L 479.11988,533.71459 z M 529.87992,489.45104 L 484.96077,529.16506 L 450.47175,489.45104 L 469.34535,357.29614 L 514.26451,317.58212 L 548.77339,357.29614 L 529.87992,489.45104 z M 561.13063,268.76904 L 515.57572,308.46319 L 481.72245,268.76904 L 499.94044,136.61413 L 545.51521,96.900112 L 579.36848,136.61413 L 561.13063,268.76904 z M 541.60142,92.330715 L 496.02665,132.04473 L 355.42829,132.04473 L 320.91941,92.330715 L 366.49418,52.636562 L 507.11241,52.636562 L 541.60142,92.330715 z M 945.39503,268.76904 L 900.47587,308.46319 L 865.96699,268.76904 L 884.86045,136.61413 L 929.75975,96.900112 L 963.61302,136.61413 L 945.39503,268.76904 z M 925.86583,92.330715 L 880.29106,132.04473 L 720.79924,132.04473 L 686.94596,92.330715 L 731.86512,52.636562 L 892.01255,52.636562 L 925.86583,92.330715 z M 894.61512,313.03259 L 849.69596,352.74661 L 726.65998,352.74661 L 692.80671,313.03259 L 737.72587,273.31857 L 860.76185,273.31857 L 894.61512,313.03259 z M 914.14433,489.45104 L 869.22517,529.16506 L 835.3719,489.45104 L 853.60975,357.29614 L 899.16465,317.58212 L 933.01792,357.29614 L 914.14433,489.45104 z M 864.02003,533.71459 L 818.44526,573.42861 L 658.95344,573.42861 L 624.44456,533.71459 L 670.01933,494.00057 L 829.51115,494.00057 L 864.02003,533.71459 z"
       id="text2383" />
  </g>
</svg>
