<?xml version="1.0" encoding="UTF-8" standalone="no"?>
<!-- Created with Inkscape (http://www.inkscape.org/) -->

<svg
   xmlns:dc="http://purl.org/dc/elements/1.1/"
   xmlns:cc="http://creativecommons.org/ns#"
   xmlns:rdf="http://www.w3.org/1999/02/22-rdf-syntax-ns#"
   xmlns:svg="http://www.w3.org/2000/svg"
   xmlns="http://www.w3.org/2000/svg"
   xmlns:sodipodi="http://sodipodi.sourceforge.net/DTD/sodipodi-0.dtd"
   xmlns:inkscape="http://www.inkscape.org/namespaces/inkscape"
   id="svg2"
   version="1.1"
   inkscape:version="0.48.4 r9939"
   width="197"
   height="241"
   sodipodi:docname="alienbest.png">
  <metadata
     id="metadata8">
    <rdf:RDF>
      <cc:Work
         rdf:about="">
        <dc:format>image/svg+xml</dc:format>
        <dc:type
           rdf:resource="http://purl.org/dc/dcmitype/StillImage" />
        <dc:title></dc:title>
      </cc:Work>
    </rdf:RDF>
  </metadata>
  <defs
     id="defs6" />
  <sodipodi:namedview
     pagecolor="#ffffff"
     bordercolor="#666666"
     borderopacity="1"
     objecttolerance="10"
     gridtolerance="10"
     guidetolerance="10"
     inkscape:pageopacity="0"
     inkscape:pageshadow="2"
     inkscape:window-width="1280"
     inkscape:window-height="977"
     id="namedview4"
     showgrid="false"
     inkscape:zoom="0.97925311"
     inkscape:cx="98.5"
     inkscape:cy="120.5"
     inkscape:window-x="-4"
     inkscape:window-y="-4"
     inkscape:window-maximized="1"
     inkscape:current-layer="svg2" />
  <path
     style="fill:#000000"
     d="m 61.000005,233 0,-7 7,0 7,0 0,7 0,7 -7,0 -7,0 0,-7 z m 15,0 0,-7 7,0 7,0 0,7 0,7 -7,0 -7,0 0,-7 z M 106,233 l 0,-7 7,0 7,0 0,7 0,7 -7,0 -7,0 0,-7 z m 15,0 0,-7 7,0 7,0 0,7 0,7 -7,0 -7,0 0,-7 z m -59.999995,-15 0,-7 7,0 7,0 0,7 0,7 -7,0 -7,0 0,-7 z m 30,0 0,-7 7,0 6.999995,0 0,7 0,7 -6.999995,0 -7,0 0,-7 z M 121,218 l 0,-7 7,0 7,0 0,7 0,7 -7,0 -7,0 0,-7 z M 1.0000046,203 l 0,-7 7,0 7.0000004,0 0,7 0,7 -7.0000004,0 -7,0 0,-7 z m 15.0000004,0 0,-7 7,0 7,0 0,7 0,7 -7,0 -7,0 0,-7 z m 15,0 0,-7 7,0 7,0 0,7 0,7 -7,0 -7,0 0,-7 z m 30,0 0,-7 7,0 7,0 0,7 0,7 -7,0 -7,0 0,-7 z M 121,203 l 0,-7 7,0 7,0 0,7 0,7 -7,0 -7,0 0,-7 z m 30,0 0,-7 7,0 7,0 0,7 0,7 -7,0 -7,0 0,-7 z m 15,0 0,-7 7,0 7,0 0,7 0,7 -7,0 -7,0 0,-7 z m 15,0 0,-7 7,0 7,0 0,7 0,7 -7,0 -7,0 0,-7 z m -149.999995,-15 0,-7 7,0 7,0 0,7 0,7 -7,0 -7,0 0,-7 z m 15,0 0,-7 7,0 7,0 0,7 0,7 -7,0 -7,0 0,-7 z m 30,0 0,-7 7,0 7,0 0,7 0,7 -7,0 -7,0 0,-7 z m 15,0 0,-7 7,0 6.999995,0 0,7 0,7 -6.999995,0 -7,0 0,-7 z M 106,188 l 0,-7 7,0 7,0 0,7 0,7 -7,0 -7,0 0,-7 z m 30,0 0,-7 7,0 7,0 0,7 0,7 -7,0 -7,0 0,-7 z m 15,0 0,-7 7,0 7,0 0,7 0,7 -7,0 -7,0 0,-7 z m -104.999995,-15 0,-7 7,0 7,0 0,7 0,7 -7,0 -7,0 0,-7 z m 15,0 0,-7 7,0 7,0 0,7 0,7 -7,0 -7,0 0,-7 z M 121,173 l 0,-7 7,0 7,0 0,7 0,7 -7,0 -7,0 0,-7 z m 15,0 0,-7 7,0 7,0 0,7 0,7 -7,0 -7,0 0,-7 z m -104.999995,-15 0,-7 7,0 7,0 0,7 0,7 -7,0 -7,0 0,-7 z m 45,0 0,-7 7,0 7,0 0,7 0,7 -7,0 -7,0 0,-7 z m 15,0 0,-7 7,0 6.999995,0 0,7 0,7 -6.999995,0 -7,0 0,-7 z M 106,158 l 0,-7 7,0 7,0 0,7 0,7 -7,0 -7,0 0,-7 z m 45,0 0,-7 7,0 7,0 0,7 0,7 -7,0 -7,0 0,-7 z m -134.999995,-15 0,-7 7,0 7,0 0,7 0,7 -7,0 -7,0 0,-7 z m 45,0 0,-7 7,0 7,0 0,7 0,7 -7,0 -7,0 0,-7 z m 15,0 0,-7 7,0 7,0 0,7 0,7 -7,0 -7,0 0,-7 z m 15,0 0,-7 7,0 6.999995,0 0,7 0,7 -6.999995,0 -7,0 0,-7 z M 106,143 l 0,-7 7,0 7,0 0,7 0,7 -7,0 -7,0 0,-7 z m 15,0 0,-7 7,0 7,0 0,7 0,7 -7,0 -7,0 0,-7 z m 45,0 0,-7 7,0 7,0 0,7 0,7 -7,0 -7,0 0,-7 z M 1.0000046,128 l 0,-7 7,0 7.0000004,0 0,7 0,7 -7.0000004,0 -7,0 0,-7 z m 45.0000004,0 0,-7 7,0 7,0 0,7 0,7 -7,0 -7,0 0,-7 z m 15,0 0,-7 7,0 7,0 0,7 0,7 -7,0 -7,0 0,-7 z m 15,0 0,-7 7,0 7,0 0,7 0,7 -7,0 -7,0 0,-7 z m 15,0 0,-7 7,0 6.999995,0 0,7 0,7 -6.999995,0 -7,0 0,-7 z M 106,128 l 0,-7 7,0 7,0 0,7 0,7 -7,0 -7,0 0,-7 z m 15,0 0,-7 7,0 7,0 0,7 0,7 -7,0 -7,0 0,-7 z m 15,0 0,-7 7,0 7,0 0,7 0,7 -7,0 -7,0 0,-7 z m 45,0 0,-7 7,0 7,0 0,7 0,7 -7,0 -7,0 0,-7 z M 1.0000046,113 l 0,-7 7,0 7.0000004,0 0,7 0,7 -7.0000004,0 -7,0 0,-7 z m 30.0000004,0 0,-7 7,0 7,0 0,7 0,7 -7,0 -7,0 0,-7 z M 151,113 l 0,-7 7,0 7,0 0,7 0,7 -7,0 -7,0 0,-7 z m 30,0 0,-7 7,0 7,0 0,7 0,7 -7,0 -7,0 0,-7 z M 1.0000046,98 l 0,-7.000001 7,0 7.0000004,0 0,7.000001 0,7 -7.0000004,0 -7,0 0,-7 z m 45.0000004,0 0,-7.000001 7,0 7,0 0,7.000001 0,7 -7,0 -7,0 0,-7 z m 15,0 0,-7.000001 7,0 7,0 0,7.000001 0,7 -7,0 -7,0 0,-7 z m 15,0 0,-7.000001 7,0 7,0 0,7.000001 0,7 -7,0 -7,0 0,-7 z M 106,98 l 0,-7.000001 7,0 7,0 0,7.000001 0,7 -7,0 -7,0 0,-7 z m 15,0 0,-7.000001 7,0 7,0 0,7.000001 0,7 -7,0 -7,0 0,-7 z m 15,0 0,-7.000001 7,0 7,0 0,7.000001 0,7 -7,0 -7,0 0,-7 z m 45,0 0,-7.000001 7,0 7,0 0,7.000001 0,7 -7,0 -7,0 0,-7 z M 1.0000046,82.999999 l 0,-7 7,0 7.0000004,0 0,7 0,7 -7.0000004,0 -7,0 0,-7 z m 30.0000004,0 0,-7 7,0 7,0 0,7 0,7 -7,0 -7,0 0,-7 z m 15,0 0,-7 7,0 7,0 0,7 0,7 -7,0 -7,0 0,-7 z m 15,0 0,-7 7,0 7,0 0,7 0,7 -7,0 -7,0 0,-7 z m 15,0 0,-7 7,0 7,0 0,7 0,7 -7,0 -7,0 0,-7 z m 29.999995,0 0,-7 7,0 7,0 0,7 0,7 -7,0 -7,0 0,-7 z m 15,0 0,-7 7,0 7,0 0,7 0,7 -7,0 -7,0 0,-7 z m 15,0 0,-7 7,0 7,0 0,7 0,7 -7,0 -7,0 0,-7 z m 15,0 0,-7 7,0 7,0 0,7 0,7 -7,0 -7,0 0,-7 z m 30,0 0,-7 7,0 7,0 0,7 0,7 -7,0 -7,0 0,-7 z m -179.9999954,-15 0,-7 7,0 7.0000004,0 0,7 0,7 -7.0000004,0 -7,0 0,-7 z m 30.0000004,0 0,-7 7,0 7,0 0,7 0,7 -7,0 -7,0 0,-7 z m 15,0 0,-7 7,0 7,0 0,7 0,7 -7,0 -7,0 0,-7 z m 15,0 0,-7 7,0 7,0 0,7 0,7 -7,0 -7,0 0,-7 z m 15,0 0,-7 7,0 7,0 0,7 0,7 -7,0 -7,0 0,-7 z m 29.999995,0 0,-7 7,0 7,0 0,7 0,7 -7,0 -7,0 0,-7 z m 15,0 0,-7 7,0 7,0 0,7 0,7 -7,0 -7,0 0,-7 z m 15,0 0,-7 7,0 7,0 0,7 0,7 -7,0 -7,0 0,-7 z m 15,0 0,-7 7,0 7,0 0,7 0,7 -7,0 -7,0 0,-7 z m 30,0 0,-7 7,0 7,0 0,7 0,7 -7,0 -7,0 0,-7 z m -179.9999954,-15 0,-6.999999 7,0 7.0000004,0 0,6.999999 0,7 -7.0000004,0 -7,0 0,-7 z m 30.0000004,0 0,-6.999999 7,0 7,0 0,6.999999 0,7 -7,0 -7,0 0,-7 z m 30,0 0,-6.999999 7,0 7,0 0,6.999999 0,7 -7,0 -7,0 0,-7 z m 15,0 0,-6.999999 7,0 7,0 0,6.999999 0,7 -7,0 -7,0 0,-7 z M 106,52.999999 106,46 l 7,0 7,0 0,6.999999 0,7 -7,0 -7,0 0,-7 z m 30,0 L 136,46 l 7,0 7,0 0,6.999999 0,7 -7,0 -7,0 0,-7 z m 15,0 L 151,46 l 7,0 7,0 0,6.999999 0,7 -7,0 -7,0 0,-7 z m 30,0 L 181,46 l 7,0 7,0 0,6.999999 0,7 -7,0 -7,0 0,-7 z M 1.0000046,38 l 0,-7 7,0 7.0000004,0 0,7 0,7 -7.0000004,0 -7,0 0,-7 z m 30.0000004,0 0,-7 7,0 7,0 0,7 0,7 -7,0 -7,0 0,-7 z m 15,0 0,-7 7,0 7,0 0,7 0,7 -7,0 -7,0 0,-7 z m 15,0 0,-7 7,0 7,0 0,7 0,7 -7,0 -7,0 0,-7 z M 121,38 l 0,-7 7,0 7,0 0,7 0,7 -7,0 -7,0 0,-7 z m 15,0 0,-7 7,0 7,0 0,7 0,7 -7,0 -7,0 0,-7 z m 15,0 0,-7 7,0 7,0 0,7 0,7 -7,0 -7,0 0,-7 z m 30,0 0,-7 7,0 7,0 0,7 0,7 -7,0 -7,0 0,-7 z M 16.000005,23 l 0,-7 7,0 7,0 0,7 0,7 -7,0 -7,0 0,-7 z M 166,23 l 0,-7 7,0 7,0 0,7 0,7 -7,0 -7,0 0,-7 z M 31.000005,8.0000003 l 0,-7 7,0 7,0 0,7 0,6.9999997 -7,0 -7,0 0,-6.9999997 z m 15,0 0,-7 7,0 7,0 0,7 0,6.9999997 -7,0 -7,0 0,-6.9999997 z m 15,0 0,-7 7,0 7,0 0,7 0,6.9999997 -7,0 -7,0 0,-6.9999997 z m 15,0 0,-7 7,0 7,0 0,7 0,6.9999997 -7,0 -7,0 0,-6.9999997 z m 15,0 0,-7 7,0 6.999995,0 0,7 L 105,15 l -6.999995,0 -7,0 0,-6.9999997 z m 14.999995,0 0,-7 7,0 7,0 0,7 L 120,15 l -7,0 -7,0 0,-6.9999997 z m 15,0 0,-7 7,0 7,0 0,7 L 135,15 l -7,0 -7,0 0,-6.9999997 z m 15,0 0,-7 7,0 7,0 0,7 L 150,15 l -7,0 -7,0 0,-6.9999997 z m 15,0 0,-7 7,0 7,0 0,7 L 165,15 l -7,0 -7,0 0,-6.9999997 z"
     id="path2987"
     inkscape:connector-curvature="0" />
</svg>
