<?xml version="1.0" encoding="UTF-8" standalone="no"?>
<!-- Created with Inkscape (http://www.inkscape.org/) -->

<svg
   xmlns:dc="http://purl.org/dc/elements/1.1/"
   xmlns:cc="http://creativecommons.org/ns#"
   xmlns:rdf="http://www.w3.org/1999/02/22-rdf-syntax-ns#"
   xmlns:svg="http://www.w3.org/2000/svg"
   xmlns="http://www.w3.org/2000/svg"
   xmlns:sodipodi="http://sodipodi.sourceforge.net/DTD/sodipodi-0.dtd"
   xmlns:inkscape="http://www.inkscape.org/namespaces/inkscape"
   width="744.09448819"
   height="1052.3622047"
   id="svg2"
   version="1.1"
   inkscape:version="0.48.1 "
   sodipodi:docname="alienshirt.eps">
  <defs
     id="defs4" />
  <sodipodi:namedview
     id="base"
     pagecolor="#ffffff"
     bordercolor="#666666"
     borderopacity="1.0"
     inkscape:pageopacity="0.0"
     inkscape:pageshadow="2"
     inkscape:zoom="0.35"
     inkscape:cx="375"
     inkscape:cy="520"
     inkscape:document-units="px"
     inkscape:current-layer="layer1"
     showgrid="false"
     inkscape:window-width="1280"
     inkscape:window-height="977"
     inkscape:window-x="-4"
     inkscape:window-y="-4"
     inkscape:window-maximized="1" />
  <metadata
     id="metadata7">
    <rdf:RDF>
      <cc:Work
         rdf:about="">
        <dc:format>image/svg+xml</dc:format>
        <dc:type
           rdf:resource="http://purl.org/dc/dcmitype/StillImage" />
        <dc:title></dc:title>
      </cc:Work>
    </rdf:RDF>
  </metadata>
  <g
     inkscape:label="Layer 1"
     inkscape:groupmode="layer"
     id="layer1">
    <path
       style="fill:#000000"
       d="m 256.49996,888.07645 0,-23 23,0 23,0 0,23 0,23 -23,0 -23,0 0,-23 z m 50,0 0,-23 23,0 23,0 0,23 0,23 -23,0 -23,0 0,-23 z m 98,0 0,-23 23,0 23,0 0,23 0,23 -23,0 -23,0 0,-23 z m 49,0 0,-23 23,0 23,0 0,23 0,23 -23,0 -23,0 0,-23 z m -197,-50 0,-23 23,0 23,0 0,23 0,23 -23,0 -23,0 0,-23 z m 99,0 0,-23 23,0 23,0 0,23 0,23 -23,0 -23,0 0,-23 z m 98,0 0,-23 23,0 23,0 0,23 0,23 -23,0 -23,0 0,-23 z m -393.999963,-49 0,-23 23,0 23.000003,0 0,23 0,23 -23.000003,0 -23,0 0,-23 z m 49.000003,0 0,-23 22.99996,0 23,0 0,23 0,23 -23,0 -22.99996,0 0,-23 z m 49.99996,0 0,-23 23,0 23,0 0,23 0,23 -23,0 -23,0 0,-23 z m 98,0 0,-23 23,0 23,0 0,23 0,23 -23,0 -23,0 0,-23 z m 197,0 0,-23 23,0 23,0 0,23 0,23 -23,0 -23,0 0,-23 z m 99,0 0,-23 23,0 23,0 0,23 0,23 -23,0 -23,0 0,-23 z m 49,0 0,-23 23,0 23,0 0,23 0,23 -23,0 -23,0 0,-23 z m 49,0 0,-23 23,0 23,0 0,23 0,23 -23,0 -23,0 0,-23 z m -492,-49 0,-23 23,0 23,0 0,23 0,23 -23,0 -23,0 0,-23 z m 49,0 0,-23 23,0 23,0 0,23 0,23 -23,0 -23,0 0,-23 z m 99,0 0,-23 23,0 23,0 0,23 0,23 -23,0 -23,0 0,-23 z m 49,0 0,-23 23,0 23,0 0,23 0,23 -23,0 -23,0 0,-23 z m 49,0 0,-23 23,0 23,0 0,23 0,23 -23,0 -23,0 0,-23 z m 99,0 0,-23 23,0 23,0 0,23 0,23 -23,0 -23,0 0,-23 z m 49,0 0,-23 23,0 23,0 0,23 0,23 -23,0 -23,0 0,-23 z m -345,-50 0,-23 23,0 23,0 0,23 0,23 -23,0 -23,0 0,-23 z m 49,0 0,-23 23,0 23,0 0,23 0,23 -23,0 -23,0 0,-23 z m 197,0 0,-23 23,0 23,0 0,23 0,23 -23,0 -23,0 0,-23 z m 50,0 0,-23 23,0 23,0 0,23 0,23 -23,0 -23,0 0,-23 z m -345,-49 0,-23 23,0 23,0 0,23 0,23 -23,0 -23,0 0,-23 z m 148,0 0,-23 23,0 23,0 0,23 0,23 -23,0 -23,0 0,-23 z m 49,0 0,-23 23,0 23,0 0,23 0,23 -23,0 -23,0 0,-23 z m 49,0 0,-23 23,0 23,0 0,23 0,23 -23,0 -23,0 0,-23 z m 148,0 0,-23 23,0 23,0 0,23 0,23 -23,0 -23,0 0,-23 z m -443.99996,-49 0,-23 22.99996,0 23,0 0,23 0,23 -23,0 -22.99996,0 0,-23 z m 147.99996,0 0,-23 23,0 23,0 0,23 0,23 -23,0 -23,0 0,-23 z m 50,0 0,-23 23,0 23,0 0,23 0,23 -23,0 -23,0 0,-23 z m 49,0 0,-23 23,0 23,0 0,23 0,23 -23,0 -23,0 0,-23 z m 49,0 0,-23 23,0 23,0 0,23 0,23 -23,0 -23,0 0,-23 z m 49,0 0,-23 23,0 23,0 0,23 0,23 -23,0 -23,0 0,-23 z m 148,0 0,-23 23,0 23,0 0,23 0,23 -23,0 -23,0 0,-23 z m -541.999963,-49 0,-23 23,0 23.000003,0 0,23 0,23 -23.000003,0 -23,0 0,-23 z m 147.999963,0 0,-23 23,0 23,0 0,23 0,23 -23,0 -23,0 0,-23 z m 49,0 0,-23 23,0 23,0 0,23 0,23 -23,0 -23,0 0,-23 z m 50,0 0,-23 23,0 23,0 0,23 0,23 -23,0 -23,0 0,-23 z m 49,0 0,-23 23,0 23,0 0,23 0,23 -23,0 -23,0 0,-23 z m 49,0 0,-23 23,0 23,0 0,23 0,23 -23,0 -23,0 0,-23 z m 49,0 0,-23 23,0 23,0 0,23 0,23 -23,0 -23,0 0,-23 z m 50,0 0,-23 23,0 23,0 0,23 0,23 -23,0 -23,0 0,-23 z m 147,0 0,-23 23,0 23,0 0,23 0,23 -23,0 -23,0 0,-23 z m -590.999963,-50 0,-23 23,0 23.000003,0 0,23 0,23 -23.000003,0 -23,0 0,-23 z m 98.999963,0 0,-23 23,0 23,0 0,23 0,23 -23,0 -23,0 0,-23 z m 394,0 0,-23 23,0 23,0 0,23 0,23 -23,0 -23,0 0,-23 z m 98,0 0,-23 23,0 23,0 0,23 0,23 -23,0 -23,0 0,-23 z m -590.999963,-49 0,-23 23,0 23.000003,0 0,23 0,23 -23.000003,0 -23,0 0,-23 z m 147.999963,0 0,-23 23,0 23,0 0,23 0,23 -23,0 -23,0 0,-23 z m 49,0 0,-23 23,0 23,0 0,23 0,23 -23,0 -23,0 0,-23 z m 50,0 0,-23 23,0 23,0 0,23 0,23 -23,0 -23,0 0,-23 z m 98,0 0,-23 23,0 23,0 0,23 0,23 -23,0 -23,0 0,-23 z m 49,0 0,-23 23,0 23,0 0,23 0,23 -23,0 -23,0 0,-23 z m 50,0 0,-23 23,0 23,0 0,23 0,23 -23,0 -23,0 0,-23 z m 147,0 0,-23 23,0 23,0 0,23 0,23 -23,0 -23,0 0,-23 z m -590.999963,-49 0,-23 23,0 23.000003,0 0,23 0,23 -23.000003,0 -23,0 0,-23 z m 98.999963,0 0,-23 23,0 23,0 0,23 0,23 -23,0 -23,0 0,-23 z m 49,0 0,-23 23,0 23,0 0,23 0,23 -23,0 -23,0 0,-23 z m 49,0 0,-23 23,0 23,0 0,23 0,23 -23,0 -23,0 0,-23 z m 50,0 0,-23 23,0 23,0 0,23 0,23 -23,0 -23,0 0,-23 z m 98,0 0,-23 23,0 23,0 0,23 0,23 -23,0 -23,0 0,-23 z m 49,0 0,-23 23,0 23,0 0,23 0,23 -23,0 -23,0 0,-23 z m 50,0 0,-23 23,0 23,0 0,23 0,23 -23,0 -23,0 0,-23 z m 49,0 0,-23 23,0 23,0 0,23 0,23 -23,0 -23,0 0,-23 z m 98,0 0,-23 23,0 23,0 0,23 0,23 -23,0 -23,0 0,-23 z m -590.999963,-50 0,-23 23,0 23.000003,0 0,23 0,23 -23.000003,0 -23,0 0,-23 z m 98.999963,0 0,-23 23,0 23,0 0,23 0,23 -23,0 -23,0 0,-23 z m 49,0 0,-23 23,0 23,0 0,23 0,23 -23,0 -23,0 0,-23 z m 49,0 0,-23 23,0 23,0 0,23 0,23 -23,0 -23,0 0,-23 z m 50,0 0,-23 23,0 23,0 0,23 0,23 -23,0 -23,0 0,-23 z m 98,0 0,-23 23,0 23,0 0,23 0,23 -23,0 -23,0 0,-23 z m 49,0 0,-23 23,0 23,0 0,23 0,23 -23,0 -23,0 0,-23 z m 50,0 0,-23 23,0 23,0 0,23 0,23 -23,0 -23,0 0,-23 z m 49,0 0,-23 23,0 23,0 0,23 0,23 -23,0 -23,0 0,-23 z m 98,0 0,-23 23,0 23,0 0,23 0,23 -23,0 -23,0 0,-23 z m -590.999963,-49 0,-23 23,0 23.000003,0 0,23 0,23 -23.000003,0 -23,0 0,-23 z m 98.999963,0 0,-23 23,0 23,0 0,23 0,23 -23,0 -23,0 0,-23 z m 98,0 0,-23 23,0 23,0 0,23 0,23 -23,0 -23,0 0,-23 z m 50,0 0,-23 23,0 23,0 0,23 0,23 -23,0 -23,0 0,-23 z m 98,0 0,-23 23,0 23,0 0,23 0,23 -23,0 -23,0 0,-23 z m 99,0 0,-23 23,0 23,0 0,23 0,23 -23,0 -23,0 0,-23 z m 49,0 0,-23 23,0 23,0 0,23 0,23 -23,0 -23,0 0,-23 z m 98,0 0,-23 23,0 23,0 0,23 0,23 -23,0 -23,0 0,-23 z m -590.999963,-49 0,-23 23,0 23.000003,0 0,23 0,23 -23.000003,0 -23,0 0,-23 z m 98.999963,0 0,-23 23,0 23,0 0,23 0,23 -23,0 -23,0 0,-23 z m 49,0 0,-23 23,0 23,0 0,23 0,23 -23,0 -23,0 0,-23 z m 49,0 0,-23 23,0 23,0 0,23 0,23 -23,0 -23,0 0,-23 z m 197,0 0,-23 23,0 23,0 0,23 0,23 -23,0 -23,0 0,-23 z m 50,0 0,-23 23,0 23,0 0,23 0,23 -23,0 -23,0 0,-23 z m 49,0 0,-23 23,0 23,0 0,23 0,23 -23,0 -23,0 0,-23 z m 98,0 0,-23 23,0 23,0 0,23 0,23 -23,0 -23,0 0,-23 z m -541.99996,-49 0,-23 22.99996,0 23,0 0,23 0,23 -23,0 -22.99996,0 0,-23 z m 492.99996,0 0,-23 23,0 23,0 0,23 0,23 -23,0 -23,0 0,-23 z m -443,-49.99999 0,-23 23,0 23,0 0,23 0,23 -23,0 -23,0 0,-23 z m 49,0 0,-23 23,0 23,0 0,23 0,23 -23,0 -23,0 0,-23 z m 49,0 0,-23 23,0 23,0 0,23 0,23 -23,0 -23,0 0,-23 z m 50,0 0,-23 23,0 23,0 0,23 0,23 -23,0 -23,0 0,-23 z m 49,0 0,-23 23,0 23,0 0,23 0,23 -23,0 -23,0 0,-23 z m 49,0 0,-23 23,0 23,0 0,23 0,23 -23,0 -23,0 0,-23 z m 49,0 0,-23 23,0 23,0 0,23 0,23 -23,0 -23,0 0,-23 z m 50,0 0,-23 23,0 23,0 0,23 0,23 -23,0 -23,0 0,-23 z m 49,0 0,-23 23,0 23,0 0,23 0,23 -23,0 -23,0 0,-23 z"
       id="path2996"
       inkscape:connector-curvature="0" />
  </g>
</svg>
