<?xml version="1.0" encoding="UTF-8" standalone="no"?>
<!-- Created with Inkscape (http://www.inkscape.org/) -->

<svg
   xmlns:dc="http://purl.org/dc/elements/1.1/"
   xmlns:cc="http://creativecommons.org/ns#"
   xmlns:rdf="http://www.w3.org/1999/02/22-rdf-syntax-ns#"
   xmlns:svg="http://www.w3.org/2000/svg"
   xmlns="http://www.w3.org/2000/svg"
   xmlns:sodipodi="http://sodipodi.sourceforge.net/DTD/sodipodi-0.dtd"
   xmlns:inkscape="http://www.inkscape.org/namespaces/inkscape"
   width="850"
   height="900"
   id="svg2"
   version="1.1"
   inkscape:version="0.48.1 "
   sodipodi:docname="New document 1">
  <defs
     id="defs4" />
  <sodipodi:namedview
     id="base"
     pagecolor="#ffffff"
     bordercolor="#666666"
     borderopacity="1.0"
     inkscape:pageopacity="0.0"
     inkscape:pageshadow="2"
     inkscape:zoom="0.35"
     inkscape:cx="375"
     inkscape:cy="520"
     inkscape:document-units="px"
     inkscape:current-layer="layer1"
     showgrid="false"
     inkscape:window-width="1280"
     inkscape:window-height="977"
     inkscape:window-x="-4"
     inkscape:window-y="-4"
     inkscape:window-maximized="1" />
  <metadata
     id="metadata7">
    <rdf:RDF>
      <cc:Work
         rdf:about="">
        <dc:format>image/svg+xml</dc:format>
        <dc:type
           rdf:resource="http://purl.org/dc/dcmitype/StillImage" />
        <dc:title></dc:title>
      </cc:Work>
    </rdf:RDF>
  </metadata>
  <g
     inkscape:label="Layer 1"
     inkscape:groupmode="layer"
     id="layer1"
     transform="translate(0,-152.36218)">
    <path
       style="fill:#000000"
       d="m 350.57139,862.21933 0,-25 25,0 25,0 0,25 0,25 -25,0 -25,0 0,-25 z m 56,0 0,-25 25,0 25,0 0,25 0,25 -25,0 -25,0 0,-25 z m 56,0 0,-25 25,0 25,0 0,25 0,25 -25,0 -25,0 0,-25 z m -168,-56.5 0,-24.5 25,0 25,0 0,24.5 0,24.5 -25,0 -25,0 0,-24.5 z m 56,0 0,-24.5 25,0 25,0 0,24.5 0,24.5 -25,0 -25,0 0,-24.5 z m 112,0 0,-24.5 25,0 25,0 0,24.5 0,24.5 -25,0 -25,0 0,-24.5 z m 56,0 0,-24.5 25,0 25,0 0,24.5 0,24.5 -25,0 -25,0 0,-24.5 z m -280,-56.5 0,-25 25,0 25,0 0,25 0,25 -25,0 -25,0 0,-25 z m 336,0 0,-25 25,0 25,0 0,25 0,25 -25,0 -25,0 0,-25 z m -392,-56 0,-25 24.5,0 24.5,0 0,25 0,25 -24.5,0 -24.5,0 0,-25 z m 224,0 0,-25 25,0 25,0 0,25 0,25 -25,0 -25,0 0,-25 z m 225,0 0,-25 24.5,0 24.5,0 0,25 0,25 -24.5,0 -24.5,0 0,-25 z m -505.99997,-56 0,-25 24.99997,0 25,0 0,25 0,25 -25,0 -24.99997,0 0,-25 z m 112.99997,0 0,-25 25,0 25,0 0,25 0,25 -25,0 -25,0 0,-25 z m 280,0 0,-25 25,0 25,0 0,25 0,25 -25,0 -25,0 0,-25 z m 169,0 0,-25 25,0 25,0 0,25 0,25 -25,0 -25,0 0,-25 z m -617.999974,-55.99999 0,-25 25,0 25.000004,0 0,25 0,24.99999 -25.000004,0 -25,0 0,-24.99999 z m 112.999974,0 0,-25 24.5,0 24.5,0 0,25 0,24.99999 -24.5,0 -24.5,0 0,-24.99999 z m 112,0 0,-25 25,0 25,0 0,25 0,24.99999 -25,0 -25,0 0,-24.99999 z m 56,0 0,-25 25,0 25,0 0,25 0,24.99999 -25,0 -25,0 0,-24.99999 z m 112,0 0,-25 25,0 25,0 0,25 0,24.99999 -25,0 -25,0 0,-24.99999 z m 112,0 0,-25 25,0 25,0 0,25 0,24.99999 -25,0 -25,0 0,-24.99999 z m 57,0 0,-25 24.5,0 24.5,0 0,25 0,24.99999 -24.5,0 -24.5,0 0,-24.99999 z m 112,0 0,-25 25,0 25,0 0,25 0,24.99999 -25,0 -25,0 0,-24.99999 z m -673.999974,-56 0,-25 25,0 25.000004,0 0,25 0,25 -25.000004,0 -25,0 0,-25 z m 168.999974,0 0,-25 25,0 25,0 0,25 0,25 -25,0 -25,0 0,-25 z m 56,0 0,-25 25,0 25,0 0,25 0,25 -25,0 -25,0 0,-25 z m 224,0 0,-25 25,0 25,0 0,25 0,25 -25,0 -25,0 0,-25 z m 56,0 0,-25 25,0 25,0 0,25 0,25 -25,0 -25,0 0,-25 z m 169,0 0,-25 25,0 25,0 0,25 0,25 -25,0 -25,0 0,-25 z m -673.999974,-56 0,-25 25,0 25.000004,0 0,25 0,25 -25.000004,0 -25,0 0,-25 z m 673.999974,0 0,-25 25,0 25,0 0,25 0,25 -25,0 -25,0 0,-25 z m -673.999974,-56 0,-25.00001 25,0 25.000004,0 0,25.00001 0,25 -25.000004,0 -25,0 0,-25 z m 673.999974,0 0,-25.00001 25,0 25,0 0,25.00001 0,25 -25,0 -25,0 0,-25 z m -617.99997,-56.00001 0,-25 24.99997,0 25,0 0,25 0,25 -25,0 -24.99997,0 0,-25 z m 561.99997,0 0,-25 25,0 25,0 0,25 0,25 -25,0 -25,0 0,-25 z m -505,-56 0,-25 24.5,0 24.5,0 0,25 0,25 -24.5,0 -24.5,0 0,-25 z m 56,0 0,-25 25,0 25,0 0,25 0,25 -25,0 -25,0 0,-25 z m 56,0 0,-25 25,0 25,0 0,25 0,25 -25,0 -25,0 0,-25 z m 56,0 0,-25 25,0 25,0 0,25 0,25 -25,0 -25,0 0,-25 z m 56,0 0,-25 25,0 25,0 0,25 0,25 -25,0 -25,0 0,-25 z m 56,0 0,-25 25,0 25,0 0,25 0,25 -25,0 -25,0 0,-25 z m 56,0 0,-25 25,0 25,0 0,25 0,25 -25,0 -25,0 0,-25 z m 56,0 0,-25 25,0 25,0 0,25 0,25 -25,0 -25,0 0,-25 z m 57,0 0,-25 24.5,0 24.5,0 0,25 0,25 -24.5,0 -24.5,0 0,-25 z"
       id="path2996"
       inkscape:connector-curvature="0" />
  </g>
</svg>
