<?xml version="1.0" encoding="UTF-8" standalone="no"?>
<!-- Created with Inkscape (http://www.inkscape.org/) -->

<svg
   xmlns:dc="http://purl.org/dc/elements/1.1/"
   xmlns:cc="http://creativecommons.org/ns#"
   xmlns:rdf="http://www.w3.org/1999/02/22-rdf-syntax-ns#"
   xmlns:svg="http://www.w3.org/2000/svg"
   xmlns="http://www.w3.org/2000/svg"
   xmlns:sodipodi="http://sodipodi.sourceforge.net/DTD/sodipodi-0.dtd"
   xmlns:inkscape="http://www.inkscape.org/namespaces/inkscape"
   id="svg2"
   version="1.1"
   inkscape:version="0.48.1 "
   width="792"
   height="688"
   sodipodi:docname="myneonbluemouse.esp">
  <metadata
     id="metadata8">
    <rdf:RDF>
      <cc:Work
         rdf:about="">
        <dc:format>image/svg+xml</dc:format>
        <dc:type
           rdf:resource="http://purl.org/dc/dcmitype/StillImage" />
        <dc:title></dc:title>
      </cc:Work>
    </rdf:RDF>
  </metadata>
  <defs
     id="defs6" />
  <sodipodi:namedview
     pagecolor="#ffffff"
     bordercolor="#666666"
     borderopacity="1"
     objecttolerance="10"
     gridtolerance="10"
     guidetolerance="10"
     inkscape:pageopacity="0"
     inkscape:pageshadow="2"
     inkscape:window-width="1280"
     inkscape:window-height="977"
     id="namedview4"
     showgrid="false"
     inkscape:zoom="0.74418605"
     inkscape:cx="492.44112"
     inkscape:cy="302.80088"
     inkscape:window-x="-4"
     inkscape:window-y="-4"
     inkscape:window-maximized="1"
     inkscape:current-layer="svg2" />
  <path
     style="fill:#000000"
     d="m 396.84375,676.34375 -162.5,0 0,-6.5 0,-6.5 -84,0 -84,0 0,-7 0,-7 -26,0 -26,0 0,-12.5 0,-12.5 13,0 13,0 0,-6.5 0,-6.5 45.5,0 45.5,0 0,-6.5 0,-6.5 110.5,0 110.5,0 0,-26 0,-26 -20,0 -20,0 0,6.5 0,6.5 -13,0 -13,0 0,6.5 0,6.5 -84,0 -84,0 0,-6.5 0,-6.5 -19.5,0 -19.5,0 0,-6.5 0,-6.5 -6.5,0 -6.5,0 0,-6.5 0,-6.5 -6.5,0 -6.5,0 0,-6.5 0,-6.5 -6.5,0 -6.5,0 0,-45 0,-45 6.5,0 6.5,0 0,-13.5 0,-13.5 6.5,0 6.5,0 0,-6.5 0,-6.5 6.5,0 6.5,0 0,-6.5 0,-6.5 13,0 13,0 0,-6 0,-6 13,0 13,0 0,-6.5 0,-6.5 19,0 19,0 0,6.5 0,6.5 -19,0 -19,0 0,6 0,6 -6.5,0 -6.5,0 0,6.5 0,6.5 -13.5,0 -13.5,0 0,6.5 0,6.5 -6,0 -6,0 0,6.5 0,6.5 -6.5,0 -6.5,0 0,13 0,13 -6.5,0 -6.5,0 0,32 0,32 6.5,0 6.5,0 0,7 0,7 6.5,0 6.5,0 0,6.5 0,6.5 6,0 6,0 0,6.5 0,6.5 32.5,0 32.5,0 0,6.5 0,6.5 45.5,0 45.5,0 0,-6.5 0,-6.5 19.5,0 19.5,0 0,-6.5 0,-6.5 13,0 13,0 0,-6.5 0,-6.5 6.5,0 6.5,0 0,-7 0,-7 -6.5,0 -6.5,0 0,-6 0,-6 -26,0 -26,0 0,-19.5 0,-19.5 -6.5,0 -6.5,0 0,-6.5 0,-6.5 -39,0 -39,0 0,-19.5 0,-19.5 20,0 20,0 0,-13 0,-13 6,0 6,0 0,-6 0,-6 13,0 13,0 0,6 0,6 6.5,0 6.5,0 0,6.5 0,6.5 7,0 7,0 0,6.5 0,6.5 6,0 6,0 0,-6.5 0,-6.5 6.5,0 6.5,0 0,-6.5 0,-6.5 13,0 13,0 0,-6 0,-6 7,0 7,0 0,-6.5 0,-6.5 12.5,0 12.5,0 0,-7 0,-7 20,0 20,0 0,-6.5 0,-6.5 -7,0 -7,0 0,-6.5 0,-6.5 -6.5,0 -6.5,0 0,-32.5 0,-32.5 -12.5,0 -12.5,0 0,-6.5 0,-6.5 -6.5,0 -6.5,0 0,-6 0,-6 -7,0 -7,0 0,-52 0,-52 7,0 7,0 0,-19.5 0,-19.5 6.5,0 6.5,0 0,-6.5 0,-6.5 6,0 6,0 0,-6.5 0,-6.5 6.5,0 6.5,0 0,-7 0,-7 39,0 39,0 0,7 0,7 13.5,0 13.5,0 0,6.5 0,6.5 6,0 6,0 0,12.5 0,12.5 6.5,0 6.5,0 0,20 0,20 6.5,0 6.5,0 0,-6.5 0,-6.5 6.5,0 6.5,0 0,-7 0,-7 7,0 7,0 0,-6.5 0,-6.5 6,0 6,0 0,13.5 0,13.5 6.5,0 6.5,0 0,-7 0,-7 6.5,0 6.5,0 0,-32.5 0,-32.5 6.5,0 6.5,0 0,-12.5 0,-12.5 26,0 26,0 0,6 0,6 6.5,0 6.5,0 0,6.5 0,6.5 6.5,0 6.5,0 0,7 0,7 6,0 6,0 0,13 0,13 7,0 7,0 0,26 0,26 -7,0 -7,0 0,13 0,13 -6,0 -6,0 0,6 0,6 6,0 6,0 0,26.5 0,26.5 26.5,0 26.5,0 0,6 0,6 6,0 6,0 0,13 0,13 -6,0 -6,0 0,26 0,26 -6.5,0 -6.5,0 0,13 0,13 -6.5,0 -6.5,0 0,7 0,7 -6.5,0 -6.5,0 0,6.5 0,6.5 -7,0 -7,0 0,6 0,6 -12.5,0 -12.5,0 0,6.5 0,6.5 -6.5,0 -6.5,0 0,6.5 0,6.5 19,0 19,0 0,-6.5 0,-6.5 13.5,0 13.5,0 0,-6.5 0,-6.5 6.5,0 6.5,0 0,-6 0,-6 26,0 26,0 0,19 0,19 -13.5,0 -13.5,0 0,6.5 0,6.5 -6,0 -6,0 0,7 0,7 6,0 6,0 0,19 0,19 -6,0 -6,0 0,6.5 0,6.5 -13,0 -13,0 0,-6.5 0,-6.5 -6.5,0 -6.5,0 0,-13 0,-13 -26,0 -26,0 0,13 0,13 -6.5,0 -6.5,0 0,13 0,13 -6.5,0 -6.5,0 0,6 0,6 6.5,0 6.5,0 0,33 0,33 -6.5,0 -6.5,0 0,6 0,6 64.5,0 64.5,0 0,7 0,7 7,0 7,0 0,13 0,13 6.5,0 6.5,0 0,6.5 0,6.5 -6.5,0 -6.5,0 0,6 0,6 -26,0 -26,0 0,7 0,7 -78,0 -78,0 0,6.5 0,6.5 -162.5,0 z m 45.5,-27 51,0 0,-5.5 0,-5.5 -6,0 -6,0 0,-7 0,-7 -52,0 -52,0 0,-6.58976 0,-6.58976 6.75,0.20068 c 3.7125,0.11037 9.5625,0.15076 13,0.0898 l 6.25,-0.11096 0,-5.89301 c 0,-4.45117 0.387,-6.04152 1.5818,-6.5 0.87,-0.33385 3.795,-0.60699 6.5,-0.60699 l 4.9182,0 0,-6.39301 c 0,-4.9071 0.3677,-6.53409 1.5818,-7 0.87,-0.33385 3.795,-0.60699 6.5,-0.60699 l 4.9182,0 0,7 0,7 65,0 65,0 0,-13.04772 0,-13.04771 6.25,0.29771 6.25,0.29772 0,19 0,19 -6.25,0.29772 -6.25,0.29771 0,6.36696 0,6.36696 6.75,0.33532 c 3.7125,0.18443 15.4125,0.20439 26,0.0444 l 19.25,-0.29096 0,-6.45904 0,-6.45903 -6.5477,0 -6.5477,0 0.2977,-6.25 0.2977,-6.25 6.25,-0.29772 6.25,-0.29771 0.077,-6.70229 c 0.042,-3.68625 0.011,-12.43978 -0.07,-19.45228 l -0.147,-12.75 6.0698,0 6.0699,0 0.115,-19.25 c 0.063,-10.5875 0.02,-22.175 -0.097,-25.75 -0.1166,-3.575 -0.3336,-6.62775 -0.4822,-6.7839 -0.1486,-0.15614 -5.6175,-0.38114 -12.153,-0.5 l -11.8828,-0.21614 0,-6 0,-6 6.2035,-0.29651 6.2035,-0.29651 0.2965,-6.20349 0.2965,-6.20349 5.75,-0.2999 5.75,-0.29991 0.1194,-6.20009 c 0.066,-3.41006 0.021,-8.84588 -0.1,-12.07961 -0.1505,-4.04328 0.2026,-6.14658 1.1306,-6.73468 0.7422,-0.47035 3.8986,-0.86208 7.0141,-0.8705 l 5.6647,-0.0153 0.3353,-6.75 c 0.1845,-3.7125 0.2041,-15.1875 0.043,-25.5 l -0.2918,-18.75 -7.0038,0 -7.0039,0 0.2957,-6.75 0.2957,-6.75 6.7034,-0.29463 6.7034,-0.29463 0.2966,-6.20537 0.2966,-6.20538 6.25,-0.29772 6.25,-0.29771 0,-6.04205 0,-6.04204 6.75,0.20068 c 3.7125,0.11037 9.5625,0.15076 13,0.0898 l 6.25,-0.11096 0,-5.41821 c 0,-2.98002 0.2731,-6.13002 0.607,-7 0.4487,-1.1694 2.0006,-1.58179 5.9523,-1.58179 l 5.3453,0 0.2977,-6.25 0.2977,-6.25 6.75,-0.29569 6.75,-0.29569 0,-6.45431 0,-6.45431 6.5,0 6.5,0 0,-6.5 0,-6.5 -6.5,0 -6.5,0 0,-7 0,-7 6.4501,0 6.4501,0 0.2999,-5.75 0.2999,-5.75 6.25,-0.29772 6.25,-0.29771 0,-5.95229 0,-5.95228 -6.4523,0 -6.4523,0 -0.2977,6.25 -0.2977,6.25 -6,0 -6,0 -0.2966,-6.20537 -0.2965,-6.20537 -6.7035,-0.29463 -6.7034,-0.29463 -0.2977,-6.25 -0.2977,-6.25 -18.3849,0 c -17.7008,0 -18.4093,-0.0769 -19.0405,-2.06542 -0.3605,-1.13599 -0.56,-4.39849 -0.4433,-7.25 0.1168,-2.85152 0.1564,-7.99708 0.088,-11.43458 l -0.1241,-6.25 -6.5,0 -6.5,0 -0.1241,6.25 c -0.068,3.4375 -0.029,8.58306 0.088,11.43458 0.1168,2.85151 -0.079,6.10169 -0.4346,7.22261 -0.6096,1.92069 -1.3488,2.02522 -12.8381,1.81543 l -12.1914,-0.22262 -0.2946,-6.70344 -0.2947,-6.70344 -6.2053,-0.29656 -6.2054,-0.29656 0,-6 0,-6 6.2015,-0.29646 6.2015,-0.29646 0.2985,-5.70354 0.2985,-5.70354 5.75,-0.2999 5.75,-0.29991 0,-6.45009 0,-6.4501 -5.9754,0 -5.9753,0 0.2253,-13.25 0.2254,-13.25 6.25,-0.29772 6.25,-0.29771 0,6.54771 0,6.54772 6.4523,0 6.4523,0 0.2977,-6.25 0.2977,-6.25 6,0 6,0 0.2711,19.75 0.2712,19.75 6.4788,0 6.4789,0 0,-7 0,-7 6.5,0 6.5,0 0,-6 0,-6 -6.5,0 -6.5,0 0,-6.95228 0,-6.95229 -6.25,-0.29771 -6.25,-0.29772 -0.1522,-6.5 c -0.084,-3.575 -0.1961,-9.0875 -0.25,-12.25 l -0.098,-5.75 -13.5,0 -13.5,0 0,-6.46708 0,-6.46707 -25.25,-0.28293 c -13.8875,-0.1556 -28.267,-0.13293 -31.9544,0.0504 l -6.7045,0.33331 -0.2955,6.16669 -0.2956,6.16668 -5.75,0.2999 -5.75,0.29991 -0.098,5.70009 c -0.054,3.13506 -0.1663,8.6251 -0.25,12.2001 l -0.1522,6.5 -6.5,0 -6.5,0 -0.272,-18.75 -0.2721,-18.75 -6.2279,-0.11502 c -3.4254,-0.0633 -9.153,-0.0196 -12.728,0.097 -3.575,0.11664 -6.6375,0.3434 -6.8055,0.50391 -0.1681,0.16052 -0.3056,5.74185 -0.3056,12.40296 l 0,12.11111 -6.9444,0 -6.9445,0 0,-19 0,-19 -6.0525,0 -6.0524,0 0.1082,-20.25 c 0.059,-11.1375 0.083,-22.8375 0.053,-26 l -0.056,-5.74996 -4.9182,0 c -2.705,0 -5.63,-0.27314 -6.5,-0.60699 -1.1948,-0.45847 -1.5818,-2.04883 -1.5818,-6.5 l 0,-5.89301 -13,0 -13,0 0,-6.46761 0,-6.4676 -25.75,-0.2824 c -14.1625,-0.15531 -28.767,-0.1324 -32.4544,0.0509 l -6.7045,0.33332 -0.2955,6.16668 -0.2956,6.16669 -6.25,0.29772 -6.25,0.29772 0,6.45228 0,6.45228 6.25,0.0941 c 3.4375,0.0518 9.4,0.16426 13.25,0.25 l 7,0.1559 0.2999,5.75 0.2999,5.75 6.2001,0.11091 c 3.4101,0.061 9.2376,0.0206 12.9501,-0.0898 l 6.75,-0.20067 0,6.58976 0,6.58976 6,0 6,0 0,6.5 0,6.5 6.4858,0 6.4859,0 -0.2359,13.25 -0.2358,13.25 -6,0 -6,0 -0.2977,-6.25 -0.2977,-6.25 -4.8705,0 c -2.6788,0 -5.5823,-0.27314 -6.4523,-0.60699 -1.1948,-0.45848 -1.5818,-2.04883 -1.5818,-6.5 l 0,-5.89301 -6.5,0 -6.5,0 0,-7 0,-7 -13,0 -13,0 0,-6.5 0,-6.5 -12.5,0 -12.5,0 0,13.5 0,13.5 -6.5,0 -6.5,0 0,45 0,45 6.4644,0 6.4644,0 -0.036,12.59516 c -0.02,6.92734 0.1664,12.79749 0.4137,13.04478 0.2473,0.24729 14.5093,0.44961 31.6934,0.44961 17.1841,0 31.4461,-0.20232 31.6934,-0.44961 0.2473,-0.24729 0.4335,-6.11744 0.4137,-13.04478 l -0.036,-12.59516 12.9644,0 12.9644,0 0,-6.5 0,-6.5 6.5,0 6.5,0 0.098,-6.25 c 0.054,-3.4375 0.1663,-9.175 0.25,-12.75 l 0.1522,-6.5 6.5,0 6.5,0 0.2798,12.75 0.2799,12.75 6.4701,0 6.4702,0 0,7 0,7 -20,0 -20,0 0,6.5 0,6.5 6.5,0 6.5,0 0,6 0,6 -6.5,0 -6.5,0 0,6.58976 0,6.58976 -6.75,-0.20068 c -3.7125,-0.11037 -9.3375,-0.15076 -12.5,-0.0898 l -5.75,0.11096 0,5.41821 c 0,2.98002 -0.2731,6.13002 -0.607,7 -0.4576,1.19241 -2.0439,1.58179 -6.4444,1.58179 l -5.8374,0 -0.3056,12.82445 c -0.1681,7.05345 -0.1674,18.52845 0,25.5 l 0.3067,12.67555 6.4429,0 6.4428,0 0,6.46922 0,6.46922 12.25,0.28078 12.25,0.28078 0.2362,13.29349 0.2361,13.2935 -26.2361,-0.0891 c -14.4299,-0.049 -29.0272,-0.0686 -32.4385,-0.0435 l -6.2023,0.0456 -0.2977,6.25 -0.2977,6.25 -6.5,0.15216 c -3.575,0.0837 -9.065,0.19618 -12.2001,0.25 l -5.7001,0.0978 -0.2999,5.75 -0.2999,5.75 -6.25,0.29772 -6.25,0.29771 0,6.54052 0,6.54052 -7.25,-0.1953 c -3.9875,-0.10742 -9.8375,-0.14713 -13,-0.0882 l -5.75,0.10708 0,5.41821 c 0,2.98002 -0.27314,6.13002 -0.60699,7 -0.46591,1.21414 -2.0929,1.58179 -7,1.58179 l -6.39301,0 0,6.5 0,6.5 -6.5,0 -6.5,0 0,6 0,6 13,0 13,0 0,-6.5 0,-6.5 20,0 20,0 0,-6.52569 0,-6.5257 25.75,0.2757 25.75,0.27569 0.3158,4.41979 c 0.1737,2.43088 0.045,5.49889 -0.2861,6.8178 -0.5995,2.38875 -0.6529,2.39746 -13.8158,2.25497 -7.2676,-0.0787 -16.0049,-0.10918 -19.4162,-0.0678 l -6.2023,0.0752 -0.2977,6.25 -0.2977,6.25 -12.25,0.28078 -12.25,0.28078 0,6.05746 0,6.05745 -7.25,-0.1953 c -3.9875,-0.10742 -9.8375,-0.14713 -13,-0.0882 l -5.75,0.10707 0,6.5 0,6.5 5.25,0.0153 c 2.8875,0.008 5.85726,0.40015 6.59947,0.8705 0.92802,0.5881 1.28111,2.6914 1.13059,6.73468 -0.12038,3.23373 -0.16514,8.67054 -0.0995,12.08179 l 0.11941,6.20229 6.25003,0.29771 6.25,0.29772 0.2804,12.20307 0.2804,12.20307 6.2196,0.29693 6.2196,0.29693 0.2957,6.75 0.2957,6.75 5.9543,0 5.9543,0 0,52 0,52 -12.5,0 -12.5,0 0,6.5 0,6.5 26,0 26,0 0,6 0,6 51,0 z m -6.4459,-65 -6.4458,0 -0.072,-39 -0.073,-39 6.6066,0 6.6066,0 -0.1953,7.25 c -0.1075,3.9875 -0.1472,12.9875 -0.088,20 l 0.107,12.75 19.5,0 19.5,0 0,-6.5 0,-6.5 32.5,0 32.5,0 0,-6.5 0,-6.5 12.9543,0 12.9543,0 0.2957,-6.75 0.2957,-6.75 13,0 13,0 0.2957,6.75 0.2957,6.75 -7.0457,0 -7.0457,0 0,6.5 0,6.5 -6.4523,0 -6.4523,0 -0.2977,6.25 -0.2977,6.25 -6.25,0.29772 -6.25,0.29771 0,12.95229 0,12.95228 -6,0 -6,0 0,-6.5 0,-6.5 -7,0 -7,0 0,-6.5 0,-6.5 -6.5,0 -6.5,0 0,6.5 0,6.5 -39,0 -39,0 0,12.5 0,12.5 -6.4459,0 z m 169.4459,-180 -7.0914,0 0.2957,-6.75 0.2957,-6.75 6.5,0 6.5,0 0.2957,6.75 0.2957,6.75 -7.0914,0 z m 12.8382,-14.20273 c -3.1139,0.1635 -5.8973,-0.0838 -6.1851,-0.5496 -0.2879,-0.46578 -0.5298,-6.11206 -0.5375,-12.54727 l -0.014,-11.7004 5.9492,0 5.9493,0 0,-6.46922 0,-6.46922 -12.25,-0.28078 -12.25,-0.28078 0,-6.5 0,-6.5 19,0 19,0 0,19 0,19 -6.2035,0.29651 -6.2035,0.29651 -0.2965,6.20349 -0.2965,6.20349 -5.6618,0.29727 z m -91.3382,-24.79727 -6.558,0 0.279,-13.25 0.279,-13.25 6,0 6,0 0.279,13.25 0.2791,13.25 -6.5581,0 z m 46.498,0 -26.0934,0 0.2977,-6.25 0.2977,-6.25 5.75,-0.2999 5.75,-0.29991 0,-6.95009 0,-6.9501 -5.75,-0.0941 c -3.1625,-0.0518 -8.9,-0.16426 -12.75,-0.25 l -7,-0.1559 0,-6 0,-6 6.2035,-0.29651 6.2035,-0.29651 0.2965,-6.20349 0.2965,-6.20349 19.25,-0.27159 19.25,-0.2716 0,6.47591 0,6.4759 6.75,0.29569 6.75,0.29569 0,6.5 0,6.5 -6.75,0.29569 -6.75,0.29569 0,5.90862 0,5.90862 6.75,0.29569 6.75,0.29569 0.2957,6.75 0.2957,6.75 -26.0934,0 z m 90.4516,-26 c -9.6684,0 -12.6318,-0.31121 -13.0378,-1.3692 -0.289,-0.75306 -0.3873,-3.79056 -0.2186,-6.75 l 0.3068,-5.3808 13,0 13,0 0.3158,4.41979 c 0.1737,2.43088 0.053,5.46838 -0.2691,6.75 -0.5734,2.28496 -0.8278,2.33021 -13.0971,2.33021 z m 26.1461,-14.10656 c -6.8224,-0.0195 -12.6724,-0.30343 -13,-0.63107 -0.3276,-0.32764 -0.5957,-3.2207 -0.5957,-6.42904 l 0,-5.83333 13,0 13,0 0,6.4644 0,6.46439 -12.4043,-0.0353 z m -97.1581,-51.1225 c -10.4843,0.14901 -19.3718,-0.0385 -19.75,-0.41667 -0.3782,-0.37818 -0.6876,-3.3126 -0.6876,-6.52094 l 0,-5.83333 -6.25,-0.11092 c -3.4375,-0.061 -9.2998,-0.02 -13.0273,0.091 l -6.7773,0.20194 0.2773,-39.34103 0.2773,-39.34099 5.75,-0.2999 5.75,-0.29991 0,-5.88271 c 0,-5.06656 0.2866,-5.97365 2.0654,-6.53824 1.136,-0.36055 4.3985,-0.56004 7.25,-0.44331 2.8515,0.11672 7.9746,0.15639 11.3847,0.0881 l 6.2001,-0.12403 0.2999,-5.75 0.2999,-5.75 6.75,-0.29569 6.75,-0.29569 0,6.04569 0,6.04569 6.5477,0 6.5477,0 -0.2977,6.25 -0.2977,6.25 -7,0.1559 c -3.85,0.0857 -12.7375,0.19824 -19.75,0.25 l -12.75,0.0941 0,7 0,7 -6.5,0 -6.5,0 0,19 0,19 6.5,0 6.5,0 0,6.5 0,6.5 6.5,0 6.5,0 0,6.5 0,6.5 6.25,0.0941 c 3.4375,0.0518 9.4,0.16426 13.25,0.25 l 7,0.1559 0,6.5 0,6.5 -19.0624,0.27094 z M 449.08165,169.14401 c -4.1562,0.21659 -5.9077,-0.0791 -6.2845,-1.06114 -0.2873,-0.74877 -0.3944,-6.50889 -0.2379,-12.80026 l 0.2845,-11.43886 6,0 6,0 0,12.5 0,12.5 -5.7621,0.30026 z m 72.0939,468.49899 c 0.7325,-0.16459 3.77,-0.29925 6.75,-0.29925 l 5.4182,0 0,-6.41467 0,-6.41468 -6.5,-0.33532 c -3.575,-0.18443 -9.425,-0.18443 -13,0 l -6.5,0.33532 0,6.36696 0,6.36696 6.25,0.34696 c 3.4375,0.19084 6.8493,0.21231 7.5818,0.0477 z m 143,-13 c 0.7325,-0.16459 15.4485,-0.29925 32.7023,-0.29925 l 31.3705,0 0.2977,-6.25 0.2977,-6.25 6.5,0 6.5,0 0.2977,6.25 0.2977,6.25 5.4523,0 5.4523,0 0,-6.4501 0,-6.45009 -5.75,-0.29991 -5.75,-0.2999 -0.2977,-6.25 -0.2977,-6.25 -6.4046,0 -6.4046,0 -0.2977,6.25 -0.2977,6.25 -6.25,0.29772 -6.25,0.29771 0,-6.54771 0,-6.54772 -45.5,0 -45.5,0 0,6.47012 0,6.47013 12.75,0.27987 12.75,0.27988 0.2965,6.20349 0.2965,6.20349 6.2035,0.34576 c 3.4119,0.19017 6.8028,0.2111 7.5353,0.0465 z m -383.8318,-143.29925 6,0 0,-13 0,-13 -6,0 -6,0 0,13 0,13 6,0 z m 448.0216,-13 12.9784,0 0,-13 0,-13 -6.5,0 -6.5,0 0,-5.95228 0,-5.95229 -6.25,-0.29771 -6.25,-0.29772 -0.2957,-6.75 -0.2957,-6.75 6.5457,0 6.5457,0 0,-6 0,-6 -13,0 -13,0 0,6.5534 0,6.5534 -19.75,-0.11019 c -10.8625,-0.0606 -22.5625,-0.0846 -26,-0.0534 l -6.25,0.0568 0,6 0,6 6.25,0.0386 c 3.4375,0.0212 17.95,0.13371 32.25,0.25 l 26,0.21144 0.2716,19.25 0.2716,19.25 12.9784,0 z m -454.5216,-27 12.5,0 0,-5.4501 0,-5.45009 -5.75,-0.29991 -5.75,-0.2999 -0.29656,-6.20537 -0.29656,-6.20537 -6.70344,-0.29463 -6.70344,-0.29463 -0.1559,-7 c -0.0857,-3.85 -0.19824,-9.79103 -0.25,-13.20228 l -0.0941,-6.20229 -6.25,-0.29771 -6.25,-0.29772 -0.29772,-6.25 -0.29771,-6.25 -12.95229,0 -12.95228,0 -0.063,6.25 c -0.0346,3.4375 -0.14712,12.325 -0.25,19.75 l -0.18705,13.5 -6,0.14811 c -3.3,0.0815 -11.7375,0.19396 -18.75,0.25 l -12.74995,0.10189 0,5.94441 0,5.9444 12.97224,0.3056 c 7.13473,0.16807 15.66427,0.15415 18.95453,-0.0309 l 5.98229,-0.33653 0.29547,-6.16347 0.29547,-6.16351 19.5,0 19.5,0 0.1559,7 c 0.0857,3.85 0.19824,9.3625 0.25,12.25 l 0.0941,5.25 12.5,0 z m 467,-38 12.5,0 0,-6.5 0,-6.5 6.5,0 6.5,0 0,-6.5 0,-6.5 -12,0 -12,0 0,6.5 0,6.5 -7,0 -7,0 0,6.5 0,6.5 12.5,0 z m -19,-156 6.5,0 0,-6.5 0,-6.5 -6.5,0 -6.5,0 0,6.5 0,6.5 6.5,0 z m -58.5888,-104 12.9112,0 0.3388,-6.25 c 0.1863,-3.4375 0.2143,-20.7625 0.062,-38.5 l -0.2767,-32.25 -6.4257,0 -6.4256,0 0.012,-12.60706 c 0.01,-6.93388 -0.1916,-12.8107 -0.4405,-13.05961 -0.2489,-0.2489 -6.1258,-0.44714 -13.0596,-0.44054 l -12.6071,0.012 0,-6.452401 0,-6.452399 -12.5,0 -12.5,0 0,5.893011 c 0,4.451169 -0.387,6.041529 -1.5818,6.499999 -0.87,0.33385 -3.7566,0.60699 -6.4147,0.60699 l -4.8328,0 -0.3354,6.75 c -0.1844,3.7125 -0.204,15.1875 -0.043,25.5 l 0.2918,18.75 6.4654,0 6.4653,0 -0.086,19.08771 c -0.047,10.49825 0.1353,19.30908 0.4058,19.57964 0.2706,0.27055 8.5824,0.45452 18.4707,0.40882 15.5382,-0.0718 18.0613,0.13208 18.587,1.50215 0.3346,0.87189 0.6083,3.79845 0.6083,6.50347 l 0,4.91821 12.9112,0 z"
     id="path2987"
     inkscape:connector-curvature="0" />
</svg>
