<?xml version="1.0" encoding="UTF-8" standalone="no"?>
<!-- Created with Inkscape (http://www.inkscape.org/) -->
<svg
   xmlns:dc="http://purl.org/dc/elements/1.1/"
   xmlns:cc="http://creativecommons.org/ns#"
   xmlns:rdf="http://www.w3.org/1999/02/22-rdf-syntax-ns#"
   xmlns:svg="http://www.w3.org/2000/svg"
   xmlns="http://www.w3.org/2000/svg"
   xmlns:sodipodi="http://sodipodi.sourceforge.net/DTD/sodipodi-0.dtd"
   xmlns:inkscape="http://www.inkscape.org/namespaces/inkscape"
   width="1035"
   height="765"
   id="svg2398"
   sodipodi:version="0.32"
   inkscape:version="0.46"
   version="1.0"
   sodipodi:docname="103.svg"
   inkscape:output_extension="org.inkscape.output.svg.inkscape">
  <defs
     id="defs2400">
    <inkscape:perspective
       sodipodi:type="inkscape:persp3d"
       inkscape:vp_x="0 : 382.5 : 1"
       inkscape:vp_y="0 : 1000 : 0"
       inkscape:vp_z="990 : 382.5 : 1"
       inkscape:persp3d-origin="495 : 255 : 1"
       id="perspective2407" />
  </defs>
  <sodipodi:namedview
     inkscape:document-units="in"
     pagecolor="#ffffff"
     bordercolor="#666666"
     borderopacity="1.0"
     inkscape:pageopacity="0.0"
     inkscape:pageshadow="2"
     inkscape:zoom="0.43"
     inkscape:cx="490"
     inkscape:cy="380"
     inkscape:current-layer="layer1"
     id="namedview2402"
     showgrid="false"
     units="in"
     inkscape:window-width="1280"
     inkscape:window-height="977"
     inkscape:window-x="-4"
     inkscape:window-y="-4" />
  <metadata
     id="metadata2404">
    <rdf:RDF>
      <cc:Work
         rdf:about="">
        <dc:format>image/svg+xml</dc:format>
        <dc:type
           rdf:resource="http://purl.org/dc/dcmitype/StillImage" />
      </cc:Work>
    </rdf:RDF>
  </metadata>
  <g
     inkscape:label="Layer 1"
     inkscape:groupmode="layer"
     id="layer1">
    <path
       style="font-size:593px;font-style:normal;font-variant:normal;font-weight:normal;font-stretch:normal;text-align:start;line-height:100%;writing-mode:lr-tb;text-anchor:start;fill:#000000;fill-opacity:1;stroke:none;stroke-width:1px;stroke-linecap:butt;stroke-linejoin:miter;stroke-opacity:1;font-family:MouseLEDU;-inkscape-font-specification:MouseLEDU"
       d="M 135.70096,502.45779 L 94.80191,538.63354 L 63.367554,502.45779 L 80.559631,382.07706 L 121.47678,345.90131 L 152.91113,382.07706 L 135.70096,502.45779 z M 164.16742,301.43716 L 122.67117,337.59482 L 91.834015,301.43716 L 108.42889,181.05643 L 149.94324,144.88068 L 180.7804,181.05643 L 164.16742,301.43716 z M 325.22064,301.43716 L 283.7063,337.59482 L 252.86914,301.43716 L 269.48212,181.05643 L 310.99646,144.88068 L 341.83362,181.05643 L 325.22064,301.43716 z M 296.75418,502.45779 L 255.83704,538.63354 L 224.42078,502.45779 L 241.61285,382.07706 L 282.53,345.90131 L 313.96436,382.07706 L 296.75418,502.45779 z M 459.84366,542.77774 L 418.92651,578.95349 L 290.23929,578.95349 L 259.40213,542.77774 L 300.31927,506.60199 L 429.0065,506.60199 L 459.84366,542.77774 z M 506.0813,502.45779 L 465.16415,538.63354 L 433.74789,502.45779 L 450.93997,382.07706 L 491.85712,345.90131 L 523.29147,382.07706 L 506.0813,502.45779 z M 534.54776,301.43716 L 493.05151,337.59482 L 462.21436,301.43716 L 478.80923,181.05643 L 520.32358,144.88068 L 551.16074,181.05643 L 534.54776,301.43716 z M 516.75848,140.71838 L 475.24414,176.89413 L 347.17221,176.89413 L 315.73785,140.71838 L 357.2522,104.56073 L 485.34222,104.56073 L 516.75848,140.71838 z M 890.8125,301.43716 L 849.89536,337.59482 L 818.461,301.43716 L 835.67117,181.05643 L 876.57022,144.88068 L 907.40738,181.05643 L 890.8125,301.43716 z M 873.02322,140.71838 L 831.50888,176.89413 L 686.22678,176.89413 L 655.38962,140.71838 L 696.30676,104.56073 L 842.18607,104.56073 L 873.02322,140.71838 z M 844.55676,341.75711 L 803.63962,377.93286 L 691.56537,377.93286 L 660.72821,341.75711 L 701.64536,305.58136 L 813.7196,305.58136 L 844.55676,341.75711 z M 862.34604,502.45779 L 821.42889,538.63354 L 790.59174,502.45779 L 807.20471,382.07706 L 848.70096,345.90131 L 879.53812,382.07706 L 862.34604,502.45779 z M 816.6875,542.77774 L 775.17316,578.95349 L 629.89105,578.95349 L 598.4567,542.77774 L 639.97104,506.60199 L 785.25314,506.60199 L 816.6875,542.77774 z"
       id="text2409" />
  </g>
</svg>
