<?xml version="1.0" encoding="UTF-8" standalone="no"?>
<!-- Created with Inkscape (http://www.inkscape.org/) -->
<svg
   xmlns:dc="http://purl.org/dc/elements/1.1/"
   xmlns:cc="http://creativecommons.org/ns#"
   xmlns:rdf="http://www.w3.org/1999/02/22-rdf-syntax-ns#"
   xmlns:svg="http://www.w3.org/2000/svg"
   xmlns="http://www.w3.org/2000/svg"
   xmlns:sodipodi="http://sodipodi.sourceforge.net/DTD/sodipodi-0.dtd"
   xmlns:inkscape="http://www.inkscape.org/namespaces/inkscape"
   width="612pt"
   height="792pt"
   id="svg2517"
   sodipodi:version="0.32"
   inkscape:version="0.46"
   sodipodi:docname="650down.svg"
   inkscape:output_extension="org.inkscape.output.svg.inkscape">
  <defs
     id="defs2519">
    <inkscape:perspective
       sodipodi:type="inkscape:persp3d"
       inkscape:vp_x="0 : 495 : 1"
       inkscape:vp_y="0 : 1000 : 0"
       inkscape:vp_z="765 : 495 : 1"
       inkscape:persp3d-origin="382.5 : 330 : 1"
       id="perspective2526" />
  </defs>
  <sodipodi:namedview
     inkscape:document-units="in"
     pagecolor="#ffffff"
     bordercolor="#666666"
     borderopacity="1.0"
     inkscape:pageopacity="0.0"
     inkscape:pageshadow="2"
     inkscape:zoom="0.36"
     inkscape:cx="340"
     inkscape:cy="696.20016"
     inkscape:current-layer="layer1"
     id="namedview2521"
     showgrid="false"
     inkscape:window-width="1280"
     inkscape:window-height="977"
     inkscape:window-x="-4"
     inkscape:window-y="-4" />
  <metadata
     id="metadata2523">
    <rdf:RDF>
      <cc:Work
         rdf:about="">
        <dc:format>image/svg+xml</dc:format>
        <dc:type
           rdf:resource="http://purl.org/dc/dcmitype/StillImage" />
      </cc:Work>
    </rdf:RDF>
  </metadata>
  <g
     inkscape:label="Layer 1"
     inkscape:groupmode="layer"
     id="layer1">
    <path
       style="font-size:593px;font-style:normal;font-variant:normal;font-weight:normal;font-stretch:normal;text-align:start;line-height:100%;writing-mode:lr-tb;text-anchor:start;fill:#000000;fill-opacity:1;stroke:none;stroke-width:1px;stroke-linecap:butt;stroke-linejoin:miter;stroke-opacity:1;font-family:MouseLEDU;-inkscape-font-specification:MouseLEDU"
       d="M 200.30112,132.56775 L 160.64811,87.737428 L 200.30112,53.281556 L 332.25303,72.126161 L 371.90604,116.97632 L 332.25303,151.43219 L 200.30112,132.56775 z M 420.64414,163.77044 L 381.01096,118.28552 L 420.64414,84.484254 L 552.59605,102.67425 L 592.24906,148.17901 L 552.59605,181.98028 L 420.64414,163.77044 z M 420.64414,332.21945 L 381.01096,286.71469 L 420.64414,252.91342 L 552.59605,271.12326 L 592.24906,316.62802 L 552.59605,350.42929 L 420.64414,332.21945 z M 200.30112,301.01675 L 160.64811,256.16659 L 200.30112,221.73056 L 332.25303,240.57516 L 371.90604,285.42532 L 332.25303,319.88119 L 200.30112,301.01675 z M 156.10557,479.78262 L 116.45255,434.93246 L 116.45255,293.87564 L 156.10557,260.07437 L 195.75858,304.92453 L 195.75858,445.98135 L 156.10557,479.78262 z M 200.30112,530.46469 L 160.64811,485.61453 L 200.30112,451.17849 L 332.25303,470.0231 L 371.90604,514.87326 L 332.25303,549.32913 L 200.30112,530.46469 z M 420.64414,561.66739 L 381.01096,516.18246 L 420.64414,482.38119 L 552.59605,500.57119 L 592.24906,546.07596 L 552.59605,579.87723 L 420.64414,561.66739 z M 596.81144,542.16818 L 557.15842,496.66342 L 557.15842,356.28103 L 596.81144,321.82516 L 636.44462,367.32992 L 636.44462,507.73214 L 596.81144,542.16818 z M 420.64414,944.09192 L 381.01096,899.24176 L 420.64414,864.78589 L 552.59605,883.65033 L 592.24906,928.48065 L 552.59605,962.28192 L 420.64414,944.09192 z M 596.81144,924.59271 L 557.15842,879.08795 L 557.15842,719.84112 L 596.81144,686.03985 L 636.44462,730.89001 L 636.44462,890.79144 L 596.81144,924.59271 z M 376.44859,893.39001 L 336.79557,848.53985 L 336.79557,725.69287 L 376.44859,691.8916 L 416.1016,736.74176 L 416.1016,859.58874 L 376.44859,893.39001 z M 200.30112,912.88922 L 160.64811,868.03906 L 200.30112,834.23779 L 332.25303,852.44763 L 371.90604,897.93255 L 332.25303,931.73382 L 200.30112,912.88922 z M 156.10557,862.84192 L 116.45255,817.33716 L 116.45255,658.09033 L 156.10557,623.63446 L 195.75858,669.13922 L 195.75858,828.38604 L 156.10557,862.84192 z"
       id="text2528" />
  </g>
</svg>
