<?xml version="1.0" encoding="UTF-8" standalone="no"?>
<!-- Created with Inkscape (http://www.inkscape.org/) -->

<svg
   xmlns:dc="http://purl.org/dc/elements/1.1/"
   xmlns:cc="http://creativecommons.org/ns#"
   xmlns:rdf="http://www.w3.org/1999/02/22-rdf-syntax-ns#"
   xmlns:svg="http://www.w3.org/2000/svg"
   xmlns="http://www.w3.org/2000/svg"
   xmlns:sodipodi="http://sodipodi.sourceforge.net/DTD/sodipodi-0.dtd"
   xmlns:inkscape="http://www.inkscape.org/namespaces/inkscape"
   width="1100"
   height="900"
   id="svg2998"
   version="1.1"
   inkscape:version="0.48.1 "
   sodipodi:docname="New document 3">
  <defs
     id="defs3000" />
  <sodipodi:namedview
     id="base"
     pagecolor="#ffffff"
     bordercolor="#666666"
     borderopacity="1.0"
     inkscape:pageopacity="0.0"
     inkscape:pageshadow="2"
     inkscape:zoom="0.6"
     inkscape:cx="584.6996"
     inkscape:cy="415.4944"
     inkscape:current-layer="layer1"
     inkscape:document-units="px"
     showgrid="false"
     inkscape:window-width="1280"
     inkscape:window-height="977"
     inkscape:window-x="-4"
     inkscape:window-y="-4"
     inkscape:window-maximized="1" />
  <metadata
     id="metadata3003">
    <rdf:RDF>
      <cc:Work
         rdf:about="">
        <dc:format>image/svg+xml</dc:format>
        <dc:type
           rdf:resource="http://purl.org/dc/dcmitype/StillImage" />
        <dc:title></dc:title>
      </cc:Work>
    </rdf:RDF>
  </metadata>
  <g
     id="layer1"
     inkscape:label="Layer 1"
     inkscape:groupmode="layer"
     transform="translate(0,-300)">
    <path
       style="fill:#000000"
       d="m 615.33334,1106.6923 c -9.075,0.1891 -18.975,-0.028 -22,-0.482 -3.025,-0.4542 -9.55,-1.3411 -14.5,-1.9708 -4.95,-0.6298 -11.7,-1.6305 -15,-2.2237 -3.3,-0.5933 -9.15,-1.749 -13,-2.5682 -3.85,-0.8192 -9.7,-1.907 -13,-2.4173 -3.3,-0.5103 -9.03583,-1.3358 -12.74628,-1.8344 -3.71046,-0.4986 -7.19144,-1.1817 -7.73553,-1.518 -0.54408,-0.3362 -3.35825,-1.0069 -6.25371,-1.4903 -2.89547,-0.4835 -9.31448,-1.6143 -14.26448,-2.5131 -4.95,-0.8988 -13.5,-2.2464 -19,-2.9948 -5.5,-0.7484 -20.575,-3.4431 -33.5,-5.9882 -12.925,-2.5451 -24.625,-5.0209 -26,-5.5017 -1.375,-0.4809 -6.1,-2.2399 -10.5,-3.9089 -4.4,-1.669 -12.275,-4.6697 -17.5,-6.6682 -5.225,-1.9984 -15.35,-6.1137 -22.5,-9.1451 -7.15,-3.0314 -17.61568,-7.7142 -23.25708,-10.4062 -5.64139,-2.6921 -10.48034,-4.8947 -10.75322,-4.8947 -0.27288,0 -8.48219,-3.9675 -18.24292,-8.8167 -9.76073,-4.8492 -22.69678,-11.4508 -28.74678,-14.6702 -6.05,-3.2194 -16.625,-9.3911 -23.5,-13.7148 -6.875,-4.3237 -16.06525,-10.6596 -20.42278,-14.0798 -4.35753,-3.4202 -8.40753,-6.6723 -9,-7.227 -0.59247,-0.5547 -4.42898,-3.9297 -8.52558,-7.5 -4.09661,-3.5703 -10.34538,-9.4165 -13.88617,-12.9915 -3.54079,-3.575 -11.58255,-12.575 -17.87057,-20.00001 -6.28802,-7.425 -13.97476,-17.325 -17.08164,-22 -3.10687,-4.675 -6.39376,-9.85 -7.30419,-11.5 -0.91043,-1.65 -2.972,-5.25 -4.58128,-8 -1.60928,-2.75 -3.54179,-6.575 -4.29447,-8.5 -0.75269,-1.925 -1.73941,-3.99167 -2.19273,-4.5926 -0.45332,-0.60093 -2.59094,-5.77593 -4.75026,-11.5 -2.15932,-5.72407 -6.86339,-16.78187 -10.45348,-24.57289 -3.5901,-7.79102 -9.02706,-19.42462 -12.08215,-25.85245 -3.05508,-6.42782 -5.5547,-11.88666 -5.5547,-12.13074 0,-0.24409 -1.61518,-3.91049 -3.58929,-8.14756 -1.97411,-4.23707 -4.18008,-9.05376 -4.90216,-10.70376 -0.72207,-1.65 -2.43522,-5.475 -3.80699,-8.5 -1.37176,-3.025 -3.62142,-8.2 -4.99923,-11.5 -1.37782,-3.3 -3.91458,-10.18066 -5.63726,-15.29036 -1.72268,-5.1097 -3.552643,-11.4097 -4.066573,-14 -0.51394,-2.5903 -1.18676,-5.83464 -1.49517,-7.20964 -0.30841,-1.375 -1.19777,-6.1 -1.97636,-10.5 -0.77859,-4.4 -1.70087,-10.475 -2.04952,-13.5 -0.34864,-3.025 -0.63285,-13.375 -0.63157,-23 0.001,-9.625 0.46491,-20.425 1.03029,-24 0.56537,-3.575 1.49743,-9.2 2.07124,-12.5 0.57381,-3.3 1.22862,-6.9 1.45514,-8 0.22653,-1.1 1.137,-5.15 2.02329,-9 0.88628,-3.85 2.787083,-10.375 4.224003,-14.5 1.43691,-4.125 4.12475,-11.17789 5.97296,-15.6731 1.84822,-4.4952 4.79283,-10.7952 6.54357,-14 1.75075,-3.20479 4.00066,-7.1769 4.99981,-8.8269 0.99914,-1.65 2.13244,-3.675 2.51843,-4.5 0.38599,-0.825 2.79132,-4.65 5.34519,-8.5 2.55387,-3.85 6.97487,-11.38575 9.82446,-16.74611 2.84958,-5.36037 7.11963,-12.78537 9.489,-16.5 2.36938,-3.71464 4.90487,-8.32889 5.63444,-10.25389 0.72957,-1.925 2.68971,-5.975 4.35586,-9 1.66615,-3.025 4.00484,-6.85 5.19709,-8.5 1.19226,-1.65 2.94028,-4.99579 3.8845,-7.43508 0.94422,-2.4393 3.53009,-7.02015 5.74637,-10.17968 2.21629,-3.15954 4.64983,-5.9826 5.40786,-6.27349 0.75804,-0.29089 4.76503,-5.07964 8.90443,-10.64167 4.13941,-5.56203 7.52619,-10.5353 7.52619,-11.05172 0,-0.51641 2.78514,-5.03312 6.1892,-10.03713 3.68965,-5.42382 11.46519,-14.40548 19.25322,-22.23971 7.18521,-7.22784 15.08757,-14.70956 17.5608,-16.62606 2.47323,-1.91649 4.94678,-4.01973 5.49678,-4.67385 0.55,-0.65412 2.4007,-2.01108 4.11268,-3.01546 1.71197,-1.00438 5.84978,-3.73865 9.19513,-6.07615 3.34535,-2.3375 6.30896,-4.25 6.5858,-4.25 0.27684,0 1.59933,-1.01572 2.93887,-2.25717 1.33953,-1.24144 4.17522,-2.86038 6.30152,-3.59765 2.1263,-0.73726 6.22158,-2.87154 9.10062,-4.74283 2.87903,-1.87129 5.57903,-3.41642 6,-3.43362 0.42096,-0.0172 3.01538,-1.13809 5.76538,-2.49086 2.75,-1.35277 6.15582,-2.4637 7.5685,-2.46873 1.41267,-0.005 4.78767,-0.65991 7.5,-1.45529 2.71232,-0.79538 8.3065,-2.33604 12.4315,-3.42369 4.125,-1.08764 11.325,-2.49274 16,-3.12242 4.675,-0.62969 10.075,-1.53678 12,-2.01575 1.925,-0.47898 10.475,-2.00795 19,-3.39772 14.76573,-2.40715 16.99223,-2.50726 47,-2.11341 17.325,0.22739 36.51154,0.71299 42.63675,1.07911 8.31595,0.49707 13.63498,0.24667 21,-0.98861 5.42479,-0.90985 12.33825,-2.08495 15.36325,-2.61134 3.025,-0.52638 13.33566,-1.64396 22.91257,-2.48351 9.57692,-0.83955 30.72692,-1.73549 47,-1.99098 16.27309,-0.25549 36.11243,-0.77655 44.08743,-1.15791 7.975,-0.38137 17.425,-0.69361 21,-0.69386 3.575,-2.6e-4 24.95,-0.36042 47.5,-0.80034 22.55,-0.43993 54.275,-1.00189 70.5,-1.24881 16.225,-0.24692 42.325,-0.76617 58,-1.15391 24.53357,-0.60685 30.0309,-0.46358 39.5,1.02939 6.05,0.95389 15.275,2.83567 20.5,4.18173 5.225,1.34605 12.73697,3.52653 16.69326,4.84551 3.9563,1.31897 11.1563,4.08945 16,6.15661 4.84371,2.06716 13.30674,6.07932 18.80674,8.91592 5.5,2.8366 14.2476,7.73807 19.43912,10.89215 5.19151,3.15409 10.96438,6.89807 12.82858,8.31997 1.8642,1.4219 6.2318,5.54239 9.7058,9.15664 3.474,3.61426 8.3065,9.04638 10.7389,12.07138 2.4324,3.025 8.8565,12.925 14.2759,22 5.4194,9.075 10.9016,17.77203 12.1826,19.32673 1.281,1.55469 2.3291,3.66564 2.3291,4.69098 0,1.02534 0.3934,2.10737 0.8741,2.4045 0.4808,0.29714 2.90576,4.7112 5.38876,9.80902 2.4831,5.09782 5.6492,11.74377 7.0358,14.76877 1.3865,3.025 3.2954,7.975 4.2419,11 0.9465,3.025 2.323,6.625 3.0589,8 0.7358,1.375 2.4254,5.2 3.7545,8.5 1.3292,3.3 2.7282,7.575 3.1089,9.5 0.3807,1.925 2.9098,10.25 5.6204,18.5 2.7105,8.25 5.3507,16.35 5.8672,18 0.5165,1.65 2.2779,9.075 3.9142,16.5 1.6363,7.425 3.6653,17.775 4.5089,23 0.8437,5.225 2.012,13.325 2.5964,18 0.5844,4.675 1.2732,10.75 1.5307,13.5 0.2574,2.75 0.4679,17.15 0.4675,32 -3e-4,14.85 -0.2264,29.475 -0.5023,32.5 -0.276,3.025 -1.1679,9.775 -1.9821,15 -0.8142,5.225 -2.3361,12.875 -3.3819,17 -1.0459,4.125 -2.8073,10.425 -3.9142,14 -1.1069,3.575 -3.4673,10.55 -5.2453,15.5 -1.7781,4.95 -3.8786,10.8 -4.6678,13 -0.7892,2.2 -4.5912,11.425 -8.4489,20.5 -3.8577,9.075 -11.719,26.05242 -17.4695,37.72759 -5.75056,11.67517 -13.87476,27.42517 -18.05376,35 -4.1791,7.57483 -11.8943,20.97241 -17.145,29.77241 -5.2506,8.8 -14.5963,23.53327 -20.7682,32.74059 -6.17181,9.20732 -12.17685,17.98232 -13.3445,19.50002 -1.16765,1.5177 -6.09932,7.9344 -10.95926,14.2594 -4.85994,6.325 -13.50483,16.2565 -19.21085,22.07 -5.70602,5.8136 -14.19959,13.7243 -18.87459,17.5794 -4.675,3.8551 -12.1993,9.7474 -16.72067,13.094 -4.52137,3.3466 -13.29637,9.2258 -19.5,13.0648 -6.20363,3.8391 -13.07933,7.9903 -15.27933,9.2248 -2.2,1.2346 -8.77865,4.8822 -14.61923,8.1059 -5.84058,3.2236 -10.88878,5.8611 -11.21823,5.8611 -0.32944,0 -4.32579,1.8297 -8.88077,4.0661 -4.55497,2.2363 -15.78562,7.1943 -24.95699,11.0177 -9.17137,3.8234 -19.29637,7.8196 -22.5,8.8805 -3.20363,1.0609 -10.99978,3.6791 -17.32478,5.8184 -6.325,2.1392 -15.325,5.0311 -20,6.4265 -4.675,1.3953 -11.425,3.3228 -15,4.2832 -3.575,0.9604 -8.525,2.3302 -11,3.0438 -2.475,0.7137 -6.975,1.8277 -10,2.4757 -3.025,0.6479 -7.75,1.7854 -10.5,2.5277 -2.75,0.7423 -8.375,2.0126 -12.5,2.8228 -4.125,0.8103 -11.1,2.0011 -15.5,2.6463 -4.4,0.6452 -15.425,1.3278 -24.5,1.5169 z m -0.5,-17.6691 c 1.65,0.075 10.17719,-0.3214 18.94932,-0.881 10.43237,-0.6655 19.59885,-1.8896 26.5,-3.539 5.80287,-1.3869 18.42568,-4.5117 28.05068,-6.9442 9.625,-2.4324 26.95,-7.5481 38.5,-11.3682 11.55,-3.82 23.25,-7.8233 26,-8.8961 2.75,-1.0727 9.05,-3.6232 14,-5.6676 4.95,-2.0444 18.9,-8.6021 31,-14.5726 12.1,-5.9706 27.85,-14.3839 35,-18.6962 7.15,-4.3124 17.95,-11.3921 24,-15.7327 6.05,-4.3405 14.6,-10.926 19,-14.6345 4.4,-3.7084 11.17339,-9.821 15.05198,-13.5835 3.87859,-3.7625 9.80323,-10.2159 13.16586,-14.3409 3.36264,-4.125 10.76425,-13.8864 16.44803,-21.692 5.68377,-7.80559 13.70913,-19.44408 17.83413,-25.86329 4.125,-6.41922 8.4113,-13.30783 9.5251,-15.30801 1.1138,-2.00019 2.7337,-4.76171 3.5997,-6.13671 0.8661,-1.375 4.072,-6.775 7.1241,-12 3.0522,-5.225 6.4213,-11.075 7.4869,-13 1.0656,-1.925 3.4315,-6.18979 5.2574,-9.47731 1.8259,-3.28752 7.5086,-14.21678 12.6281,-24.28725 5.1195,-10.07047 9.4365,-19.08069 9.5934,-20.02269 0.1569,-0.94201 0.7701,-2.16275 1.3625,-2.71275 0.5925,-0.55 4.9386,-10.225 9.65796,-21.5 4.7194,-11.275 9.7215,-23.65 11.1158,-27.5 1.3944,-3.85 3.8432,-11.05 5.442,-16 1.5987,-4.95 3.631,-11.7 4.5161,-15 0.8852,-3.3 2.0635,-8.925 2.6185,-12.5 0.555,-3.575 1.6314,-10.775 2.392,-16 0.9907,-6.80571 1.2946,-17.44106 1.0716,-37.5 -0.1713,-15.4 -0.4963,-29.575 -0.7221,-31.5 -0.2259,-1.925 -0.7163,-6.2 -1.0897,-9.5 -0.3734,-3.3 -1.1075,-8.925 -1.6314,-12.5 -0.5238,-3.575 -1.1789,-8.3 -1.4557,-10.5 -0.2768,-2.2 -0.6554,-4.675 -0.8414,-5.5 -0.186,-0.825 -0.6242,-2.625 -0.9739,-4 -0.3497,-1.375 -1.7874,-7.40312 -3.1949,-13.39582 -1.4075,-5.9927 -3.3872,-13.4177 -4.3993,-16.5 -1.0121,-3.0823 -3.0559,-9.65418 -4.5417,-14.60418 -1.4859,-4.95 -3.507,-10.8 -4.4912,-13 -0.9843,-2.2 -2.8064,-7.15 -4.0491,-11 -1.2427,-3.85 -3.2811,-9.475 -4.52976,-12.5 -1.2488,-3.025 -3.4019,-8.875 -4.7848,-13 -1.383,-4.125 -3.9653,-10.425 -5.7385,-14 -1.7732,-3.575 -5.8618,-10.40141 -9.0858,-15.1698 -3.2241,-4.76838 -5.8619,-8.96641 -5.8619,-9.32895 0,-0.36254 -3.8625,-7.03613 -8.5833,-14.8302 -4.7208,-7.79408 -10.6369,-16.80355 -13.1467,-20.02104 -2.5099,-3.2175 -6.4099,-7.17061 -8.6667,-8.78469 -2.25681,-1.61409 -4.7783,-3.4903 -5.6033,-4.16937 -0.825,-0.67906 -3.29364,-2.35095 -5.48587,-3.7153 -2.19223,-1.36436 -4.89223,-3.0255 -6,-3.69143 -1.10777,-0.66593 -2.68913,-1.5331 -3.51413,-1.92706 -0.825,-0.39395 -1.725,-1.03783 -2,-1.43084 -0.275,-0.39301 -7.475,-4.09641 -16,-8.22976 -8.525,-4.13336 -18.425,-8.65016 -22,-10.03734 -3.575,-1.38718 -10.325,-3.66181 -15,-5.05474 -4.675,-1.39292 -10.75,-3.02981 -13.5,-3.63753 -2.75,-0.60772 -11.75,-2.00038 -20,-3.0948 -12.86865,-1.70711 -17.91284,-1.88781 -35.5,-1.27174 -11.275,0.39495 -25,0.86089 -30.5,1.03541 -5.5,0.17452 -25.975,0.81477 -45.5,1.42277 -19.525,0.608 -57.1,1.17992 -83.5,1.27093 -27.51077,0.0948 -48.61595,0.56173 -49.44299,1.09377 -0.79365,0.51056 -14.74365,1.03626 -31,1.16823 -16.25636,0.13196 -36.08709,0.71827 -44.06831,1.30292 -7.98121,0.58465 -18.33121,1.72294 -23,2.52954 -4.66878,0.8066 -17.0387,1.76887 -27.4887,2.13838 -10.45,0.36951 -21.25,1.26854 -24,1.99785 -2.75,0.72931 -6.63021,1.80582 -8.62269,2.39225 -1.99247,0.58643 -5.36747,2.63674 -7.5,4.55623 -2.13252,1.91949 -5.22731,4.78109 -6.87731,6.35911 -1.65,1.57802 -5.79529,4.27498 -9.21176,5.99325 -3.41646,1.71827 -7.73756,4.64994 -9.60244,6.51482 -1.86488,1.86488 -4.35709,3.69742 -5.53825,4.0723 -1.18115,0.37488 -2.14755,1.09626 -2.14755,1.60306 0,0.5068 -3.4875,2.69605 -7.75,4.86501 -4.2625,2.16896 -8.96455,5.21148 -10.449,6.76116 -1.48445,1.54968 -3.5685,3.7176 -4.63123,4.8176 -1.06273,1.1 -3.12827,2.9 -4.5901,4 -1.46182,1.1 -3.20277,2.59475 -3.86876,3.32168 -0.666,0.72692 -1.98826,2.07692 -2.93836,3 -0.95009,0.92307 -3.95653,3.47832 -6.68098,5.67832 -2.72444,2.2 -5.27511,4.9 -5.66814,6 -0.39304,1.1 -2.68441,3.73482 -5.09193,5.85515 -2.40753,2.12034 -5.21763,5.72034 -6.24469,8 -1.02705,2.27967 -2.18009,6.90709 -2.56231,10.28316 -0.40744,3.59882 -0.30273,6.38072 0.2531,6.72424 0.52143,0.32226 1.51461,2.60946 2.20706,5.08267 0.82535,2.94786 2.91985,6.22896 6.08079,9.52576 2.65198,2.76596 5.64101,5.02902 6.64228,5.02902 1.00128,0 4.24506,0.88621 7.2084,1.96934 2.96334,1.08314 7.00699,3.11753 8.98588,4.52087 1.9789,1.40334 5.07269,4.22963 6.87511,6.28066 1.80241,2.05102 5.67928,6.66195 8.61527,10.24651 2.93599,3.58455 6.52379,8.85709 7.97288,11.71675 2.09456,4.13341 2.62743,6.59008 2.59911,11.98263 -0.0196,3.73078 -0.63237,9.27768 -1.36173,12.32644 -0.72936,3.04875 -2.22671,7.54875 -3.32745,10 -1.10074,2.45124 -3.63796,6.86452 -5.63827,9.80729 -2.00031,2.94277 -3.63693,6.44523 -3.63693,7.78324 0,1.33802 1.09709,4.59775 2.43797,7.24386 1.34088,2.64611 3.58006,5.55943 4.97595,6.47405 2.51468,1.64768 2.55584,1.62797 4.48174,-2.14712 1.06907,-2.09554 4.63543,-6.60392 7.92525,-10.01863 4.00144,-4.15334 7.91763,-7.07163 11.83029,-8.81577 5.40533,-2.40952 6.58444,-2.5637 15.55092,-2.03341 6.95041,0.41105 10.84981,1.1593 13.74873,2.63822 3.34104,1.70447 4.72613,3.41591 7.94373,9.81539 2.75012,5.46974 4.09736,9.65796 4.57751,14.23033 0.37422,3.56364 0.19455,12.00513 -0.39926,18.75885 -0.89353,10.16242 -1.59126,13.35197 -4.04701,18.5 -1.63204,3.42128 -3.52708,6.98642 -4.21121,7.92254 -0.68413,0.93612 -0.90366,2.04225 -0.48784,2.45806 0.41581,0.41582 3.4846,-0.74401 6.81951,-2.57739 5.49021,-3.01825 6.58173,-3.27251 11.54473,-2.68921 3.01469,0.35432 6.90499,1.37743 8.64512,2.27357 1.74013,0.89615 4.5382,2.67382 6.21793,3.95038 1.67973,1.27657 4.99915,5.7206 7.37647,9.87562 4.1559,7.26358 4.29654,7.78327 3.65083,13.4906 -0.48503,4.28706 -2.18688,8.96551 -6.12647,16.84188 -3.00019,5.99823 -5.45489,12.08373 -5.45489,13.52332 0,2.14269 0.92345,3.08539 5.09134,5.19742 4.49217,2.27635 5.43258,3.33256 7.99094,8.97491 2.1699,4.78561 3.06264,8.60747 3.54747,15.18687 0.35632,4.83556 1.27195,10.02943 2.03473,11.54193 1.24707,2.47277 1.91422,2.75 6.6178,2.75 2.87701,0 6.80295,-0.45811 8.72432,-1.01802 1.92137,-0.55992 9.3434,-1.89996 16.4934,-2.97789 7.15,-1.07792 14.46061,-2.08231 16.2458,-2.23197 l 3.2458,-0.27212 0.38252,-16 c 0.28303,-11.83838 0.005,-17.43056 -1.07074,-21.5 -0.7993,-3.025 -1.60804,-6.175 -1.79721,-7 -0.18916,-0.825 -1.04779,-3.15475 -1.90806,-5.17722 -0.90164,-2.11971 -2.52433,-3.97569 -3.83112,-4.3819 -1.24684,-0.38757 -4.69368,-2.30669 -7.65964,-4.2647 -2.96595,-1.95801 -7.29792,-5.49264 -9.6266,-7.85473 -2.32867,-2.36209 -5.34579,-6.66322 -6.70471,-9.55808 -1.35892,-2.89485 -2.78479,-6.54774 -3.1686,-8.11753 -0.3838,-1.56979 -1.38036,-3.89583 -2.21456,-5.16898 -0.8342,-1.27315 -3.4562,-3.22648 -5.82667,-4.34073 -2.37047,-1.11425 -4.56182,-2.68231 -4.86968,-3.48457 -0.30785,-0.80226 -0.31806,-2.38282 -0.0227,-3.51236 0.31597,-1.20829 1.92775,-2.51267 3.91538,-3.16865 1.85807,-0.61322 7.91902,-1.08837 13.46876,-1.05589 5.54975,0.0325 10.50705,0.31652 11.01623,0.63121 0.50918,0.31469 0.92017,0.20811 0.91331,-0.23685 -0.007,-0.44496 -1.80685,-2.74107 -4,-5.10248 -2.20351,-2.37258 -3.98751,-5.30302 -3.98751,-6.55 0,-1.24109 0.54,-2.79654 1.2,-3.45654 0.66,-0.66 3.70554,-1.2 6.76787,-1.2 4.37392,0 6.42177,0.57285 9.55,2.67144 2.19017,1.4693 6.38089,4.8443 9.31272,7.5 2.93182,2.65571 5.63182,4.82884 6,4.82918 0.36817,3.4e-4 0.51165,-2.27672 0.31884,-5.06013 -0.26779,-3.86575 0.0858,-5.54294 1.49744,-7.10278 1.47669,-1.63172 2.70122,-1.94587 6.09419,-1.56343 2.43822,0.27482 5.70381,1.5904 7.66959,3.08977 2.89759,2.2101 3.67461,3.71563 5.05891,9.80195 1.23905,5.44768 1.49576,9.93524 1.05899,18.51239 -0.31708,6.22689 -0.19416,11.32161 0.27315,11.32161 0.46732,0 1.90655,-1.125 3.1983,-2.5 1.29175,-1.375 3.02225,-2.5 3.84557,-2.5 0.82332,0 2.31988,0.74474 3.32569,1.65499 1.37766,1.24676 1.82874,3.10899 1.82874,7.54966 0,3.58112 -0.65889,7.15075 -1.67877,9.09501 -0.92332,1.76019 -1.70617,5.57528 -1.73966,8.47798 -0.0598,5.18431 0.05,5.3862 6.21203,11.4161 4.4291,4.33415 7.24098,8.22064 9.56637,13.22235 1.8114,3.89615 4.02345,9.78391 4.91568,13.08391 0.89223,3.3 2.19346,8.1375 2.89161,10.75 0.69815,2.6125 1.73363,4.74693 2.30106,4.74317 0.56742,-0.004 2.08831,-1.55851 3.37974,-3.455 1.29144,-1.89648 3.48256,-6.25689 4.86918,-9.6898 2.13582,-5.28776 2.52418,-7.85909 2.5412,-16.82535 0.0156,-8.23271 -0.37696,-11.35444 -1.76738,-14.05336 -0.98312,-1.90831 -2.84362,-4.85929 -4.13445,-6.55772 -1.29083,-1.69844 -2.76801,-5.29844 -3.28264,-8 -0.51462,-2.70157 -1.16304,-5.58694 -1.44093,-6.41194 -0.27789,-0.825 -0.76941,-6 -1.09226,-11.5 -0.32286,-5.5 -1.08933,-11.575 -1.70327,-13.5 -0.61393,-1.925 -2.62853,-5.79658 -4.47688,-8.60351 -1.84835,-2.80692 -3.36063,-5.99968 -3.36063,-7.09501 0,-1.09533 0.85538,-2.76561 1.90084,-3.71174 1.6067,-1.45404 2.52108,-1.55322 5.9091,-0.64092 2.20454,0.59362 6.74917,3.09705 10.09916,5.56318 3.78425,2.7858 6.0909,3.95029 6.0909,3.07492 0,-0.77493 -0.9542,-3.90242 -2.12044,-6.95 -1.30779,-3.41746 -1.87682,-6.5117 -1.48477,-8.07376 0.38483,-1.53328 1.56849,-2.76682 2.9996,-3.12601 1.51488,-0.38021 4.16101,0.31734 7.36734,1.94211 2.75188,1.39448 7.21812,4.72695 9.925,7.40549 2.70687,2.67853 5.68471,6.47824 6.61743,8.44379 0.93271,1.96554 1.69584,4.26665 1.69584,5.11357 0,0.84692 0.45,1.81797 1,2.15789 0.55286,0.34169 1.01973,-0.41442 1.04413,-1.69098 0.0243,-1.26996 0.58978,-4.33402 1.25667,-6.80902 0.66689,-2.475 1.57359,-5.0625 2.01488,-5.75 0.4413,-0.6875 1.87015,-1.25 3.17524,-1.25 1.46547,0 3.14624,1.08606 4.39517,2.84002 1.11225,1.56201 2.96734,5.36596 4.12243,8.45322 1.49115,3.98545 2.03806,7.5317 1.88599,12.2291 -0.1178,3.63874 -0.84263,8.7223 -1.61073,11.29678 -0.7681,2.57448 -2.94524,9.40588 -4.83808,15.18088 -2.81227,8.58019 -3.57903,12.78549 -4.19361,23 -0.41365,6.875 -0.52709,18.87625 -0.25209,26.66944 0.275,7.79319 0.74588,14.41407 1.0464,14.71306 0.30052,0.299 4.35052,1.27724 9,2.17387 4.64948,0.89662 10.34248,2.31536 12.65111,3.15274 2.80314,1.01675 6.53418,1.39048 11.23165,1.12505 3.86878,-0.21861 7.47416,-0.83748 8.01196,-1.37528 0.63709,-0.63709 0.29382,-3.76218 -0.98512,-8.96835 -1.07961,-4.39479 -2.63489,-10.46553 -3.45617,-13.49053 -0.82128,-3.025 -2.64943,-10.45 -4.06255,-16.5 -1.41312,-6.05 -3.27126,-14.6 -4.12921,-19 -0.85795,-4.4 -1.74856,-9.125 -1.97914,-10.5 -0.23057,-1.375 -0.39206,-11.275 -0.35885,-22 0.0332,-10.725 0.50117,-24.225 1.03992,-30 0.53876,-5.775 1.43026,-17.7 1.98113,-26.5 0.55086,-8.8 1.40095,-18.45707 1.8891,-21.46016 0.48814,-3.0031 0.96452,-14.2531 1.05862,-25 0.13326,-15.21837 0.59771,-21.41972 2.10005,-28.03984 1.06092,-4.675 2.55815,-10.525 3.32717,-13 0.76902,-2.475 2.81328,-7.27933 4.5428,-10.67629 1.72951,-3.39696 5.06729,-8.79696 7.41729,-12 2.34999,-3.20304 4.61131,-6.38102 5.02517,-7.06218 0.41385,-0.68116 -0.11384,-3.19688 -1.17265,-5.59049 -1.0588,-2.39361 -2.76966,-5.42704 -3.80189,-6.74095 -1.03223,-1.31391 -4.12679,-4.55462 -6.87679,-7.20158 -2.75,-2.64696 -6.575,-6.27815 -8.5,-8.0693 -1.925,-1.79116 -5.39369,-4.75742 -7.7082,-6.5917 -4.18168,-3.31404 -4.22991,-3.32476 -7.65113,-1.70129 -1.89361,0.89858 -4.73194,1.63378 -6.3074,1.63378 -1.57546,0 -4.39768,-0.82227 -6.27161,-1.82727 -1.87392,-1.00499 -4.2294,-3.36047 -5.23439,-5.23439 -1.005,-1.87393 -1.82727,-4.77118 -1.82727,-6.43834 0,-1.66716 0.82227,-4.56441 1.82727,-6.43834 1.00499,-1.87392 3.36047,-4.2294 5.23439,-5.23439 1.87393,-1.005 4.77118,-1.82727 6.43834,-1.82727 1.66716,0 4.56441,0.82227 6.43834,1.82727 1.87392,1.00499 4.2294,3.36047 5.23439,5.23439 1.005,1.87393 1.82727,4.59826 1.82727,6.05407 0,2.37959 0.88377,3.01986 8.75,6.33924 4.8125,2.03076 10.1,4.29129 11.75,5.02338 1.65,0.7321 4.575,2.03417 6.5,2.89349 1.925,0.85932 5.33494,2.60426 7.57764,3.87764 2.24269,1.27339 6.40624,3.98818 9.25231,6.03288 2.84607,2.0447 5.85763,3.71764 6.69235,3.71764 0.83471,0 5.44617,-1.96392 10.24768,-4.36426 4.80151,-2.40034 13.23002,-5.96231 18.73002,-7.91549 5.5,-1.95318 13.825,-4.25951 18.5,-5.12518 4.675,-0.86567 17.37443,-2.25805 28.22096,-3.09419 10.84653,-0.83613 20.29653,-1.40338 21,-1.26056 0.97633,0.19822 1.25363,-2.10703 1.17169,-9.74032 -0.059,-5.5 -0.63774,-12.475 -1.286,-15.5 -0.64826,-3.025 -1.6298,-7.1875 -2.1812,-9.25 -0.84788,-3.17151 -1.42322,-3.75 -3.7296,-3.75 -1.49988,0 -4.26026,-0.82227 -6.13419,-1.82727 -1.87392,-1.00499 -4.2294,-3.36047 -5.23439,-5.23439 -1.005,-1.87393 -1.82727,-4.77118 -1.82727,-6.43834 0,-1.66716 0.82227,-4.56441 1.82727,-6.43834 1.00499,-1.87392 3.36047,-4.2294 5.23439,-5.23439 1.87393,-1.005 4.77118,-1.82727 6.43834,-1.82727 1.66716,0 4.56441,0.82227 6.43834,1.82727 1.87392,1.00499 4.2294,3.36047 5.23439,5.23439 1.005,1.87393 1.82727,4.69615 1.82727,6.27161 0,1.57546 -0.72939,4.40155 -1.62087,6.2802 -1.6156,3.40462 -1.60691,3.43928 2.67044,10.65113 2.36022,3.97947 5.759,10.01548 7.55286,13.41335 1.79386,3.39787 4.50146,9.83965 6.0169,14.31507 1.71946,5.07795 3.49276,8.53178 4.71679,9.18687 1.0788,0.57735 6.957,2.31525 13.06267,3.862 6.10566,1.54674 14.18428,3.96264 17.95248,5.36867 3.76819,1.40602 11.72077,4.99203 17.67238,7.9689 5.95162,2.97687 14.34355,8.10496 18.64874,11.39575 4.30518,3.2908 10.68132,8.59666 14.16919,11.79082 3.48787,3.19416 9.15605,9.436 12.59592,13.87077 3.44,4.43476 7.8918,10.64861 9.8931,13.80856 2.0012,3.15995 5.6625,9.72238 8.136,14.58317 2.4736,4.86079 5.6695,11.95038 7.1021,15.75464 1.4326,3.80425 3.4436,9.39183 4.4689,12.41683 1.0252,3.025 2.8165,9.325 3.9805,14 1.164,4.675 2.3178,9.4 2.5639,10.5 0.2461,1.1 1.1235,6.13456 1.9497,11.18791 0.8263,5.05336 1.9109,15.17836 2.4104,22.5 0.4994,7.32165 0.7669,20.28709 0.5944,28.81209 -0.1726,8.525 -0.596,18.2 -0.9409,21.5 -0.345,3.3 -1.3152,10.05 -2.1561,15 -0.8408,4.95 -2.6769,13.275 -4.0802,18.5 -1.4032,5.225 -3.1831,10.97777 -3.9553,12.78393 -0.7722,1.80616 -1.404,3.76315 -1.404,4.34887 0,0.58572 -0.7083,2.70795 -1.5741,4.71607 -0.8657,2.00812 -2.1773,5.00113 -2.9145,6.65113 -0.7372,1.65 -2.674,5.71801 -4.304,9.04001 -1.63,3.32201 -4.7059,8.72201 -6.8355,12 -2.1295,3.278 -4.0969,6.48833 -4.3719,7.13408 -0.275,0.64575 -3.3478,4.78453 -6.8283,9.19729 -3.4806,4.41276 -9.56777,11.10029 -13.52702,14.86119 -3.95925,3.7609 -10.78649,9.55832 -15.17166,12.88315 -4.38516,3.32483 -11.12302,7.86388 -14.97302,10.08678 -3.85,2.22291 -11.275,5.73398 -16.5,7.80239 -5.225,2.06841 -10.85,4.70727 -12.5,5.86414 -1.65,1.15688 -4.11693,3.42368 -5.48207,5.03734 -1.36514,1.61367 -3.75698,4.94427 -5.31521,7.40134 -1.55823,2.45707 -6.00035,11.043 -9.87137,19.07985 -3.87103,8.03684 -8.93538,18.43744 -11.25411,23.11244 -2.31873,4.675 -5.70877,11.2 -7.53342,14.5 -1.82465,3.3 -5.80668,9.825 -8.84895,14.5 -3.04226,4.675 -7.56025,11.2 -10.03996,14.5 -2.47972,3.3 -7.6915,9.20177 -11.58174,13.11504 -3.89024,3.91327 -10.44817,9.5814 -14.57317,12.59584 -4.125,3.01443 -11.1,7.51633 -15.5,10.00423 -4.4,2.4878 -11.375,6.0864 -15.5,7.9967 -4.125,1.9104 -11.55,4.8712 -16.5,6.5796 -4.95,1.7084 -12.95818,4.2878 -17.79596,5.7319 -4.83778,1.4442 -17.43778,4.8071 -28,7.4731 -10.56222,2.666 -23.47904,5.9628 -28.70404,7.3262 -5.225,1.3633 -15.125,3.5927 -22,4.9541 -6.875,1.3615 -16.55,3.1822 -21.5,4.0461 -4.95,0.8639 -11.925,2.0274 -15.5,2.5855 -3.575,0.5582 -12.125,1.7288 -19,2.6013 -6.875,0.8726 -17,2.2084 -22.5,2.9685 -5.5,0.76 -17.2,1.9262 -26,2.5915 -8.8,0.6652 -20.5,1.2179 -26,1.2282 -5.5,0.01 -14.95,-0.7372 -21,-1.6611 -6.05,-0.9238 -17.75,-3.0065 -26,-4.6282 -11.18352,-2.1983 -20.21585,-3.2141 -35.5,-3.992 -11.275,-0.574 -22.3,-1.4767 -24.5,-2.0062 -2.2,-0.5294 -7.6,-0.9824 -12,-1.0066 -4.4,-0.024 -10.7,-0.4549 -14,-0.9573 -3.3,-0.5023 -9.825,-1.6188 -14.5,-2.4811 -4.675,-0.8623 -15.25,-2.261 -23.5,-3.1083 -8.25,-0.8473 -19.20283,-2.658 -24.33963,-4.0238 -5.13679,-1.3658 -12.08857,-3.6403 -15.4484,-5.0544 -3.35983,-1.4142 -8.382,-4.0599 -11.16038,-5.8795 -2.77837,-1.8196 -6.64656,-4.8138 -8.59596,-6.6538 -1.94941,-1.84 -4.87441,-5.1455 -6.5,-7.3455 -1.6256,-2.2 -3.54337,-5.0468 -4.26171,-6.3262 -0.71834,-1.2795 -2.26982,-5.3295 -3.44773,-9 -1.89284,-5.89846 -2.14772,-9.05546 -2.19392,-27.17381 -0.0288,-11.275 0.25532,-22.525 0.63126,-25 0.37595,-2.475 1.37572,-8.325 2.22173,-13 0.846,-4.675 2.02637,-10.3 2.62303,-12.5 0.59667,-2.2 2.92506,-9.4 5.17419,-16 3.9316,-11.53709 4.09219,-12.50148 4.16309,-25 0.0698,-12.29713 -0.0788,-13.31412 -2.74685,-18.80987 -1.55134,-3.19543 -4.68768,-7.62831 -6.96966,-9.85086 -2.28198,-2.22254 -7.52406,-6.61773 -11.64906,-9.76709 -4.125,-3.14935 -11.88816,-8.75261 -17.25147,-12.45167 -5.36331,-3.69907 -11.14797,-7.2124 -12.8548,-7.8074 -2.37676,-0.82855 -5.36592,-0.68439 -12.7673,0.6157 -6.9666,1.22372 -10.39886,1.41811 -12.29693,0.69647 -1.44813,-0.55058 -3.76093,-2.49151 -5.13956,-4.31317 -1.37863,-1.82166 -2.62128,-4.43711 -2.76146,-5.81211 -0.14017,-1.375 0.0979,-5.2 0.52909,-8.5 0.43117,-3.3 1.44623,-7.575 2.25568,-9.5 0.80946,-1.925 1.43402,-5.78568 1.38792,-8.57929 -0.0461,-2.79361 -1.22859,-8.19361 -2.62775,-12 -1.39916,-3.80639 -3.24196,-10.07071 -4.09512,-13.92071 -0.92774,-4.18661 -1.54566,-11.76777 -1.53745,-18.86268 0.008,-6.52447 0.55807,-14.17447 1.22336,-17 0.6653,-2.82552 2.27218,-7.25821 3.57085,-9.8504 1.29867,-2.5922 3.71734,-6.25763 5.37483,-8.1454 1.65748,-1.88777 5.14582,-4.44755 7.75186,-5.68839 2.60604,-1.24085 7.43825,-2.84711 10.73825,-3.56948 3.3,-0.72236 7.37831,-1.3292 9.06291,-1.34852 2.10458,-0.0241 3.98187,-1.01006 6,-3.15107 1.6154,-1.71377 5.19612,-4.80153 7.95717,-6.86169 2.76104,-2.06017 7.69681,-5.25641 10.96837,-7.10276 5.36467,-3.02763 6.73963,-3.36008 14.01356,-3.38831 7.11626,-0.0276 8.43869,0.26286 11.23885,2.4687 1.74547,1.375 4.20533,4.525 5.46636,7 1.64671,3.23197 2.25682,6.04982 2.16515,10 -0.0702,3.025 -1.1134,8.425 -2.31823,12 -1.20483,3.575 -5.30989,12.18616 -9.12237,19.13591 -3.81247,6.94976 -6.93177,13.49718 -6.93177,14.54984 0,1.05265 1.15894,3.69149 2.57543,5.86408 1.41648,2.17259 5.2975,5.90193 8.62448,8.28741 3.32699,2.38548 10.55729,6.59061 16.06735,9.34473 5.51006,2.75412 11.86654,5.67539 14.12552,6.4917 2.25897,0.81632 8.52207,2.81104 13.91799,4.43273 5.39592,1.62169 11.7872,3.21942 14.20285,3.55052 3.57509,0.49002 5.35107,0.10055 9.54762,-2.09376 2.83555,-1.48267 8.85624,-4.18768 13.37932,-6.01113 4.52308,-1.82346 11.42563,-4.04362 15.33901,-4.9337 3.91338,-0.89008 10.17641,-1.6117 13.91784,-1.6036 3.74142,0.008 9.35106,0.8105 12.46585,1.78311 3.1148,0.97261 6.96336,2.87848 8.55236,4.23527 1.58901,1.35679 3.8128,4.06954 4.94177,6.02834 1.12896,1.95879 2.6155,5.90763 3.30342,8.77519 0.7466,3.11219 1.01829,7.92437 0.67402,11.93855 -0.3172,3.69865 -0.836,8.50851 -1.15289,10.68859 -0.31689,2.18008 -0.76413,4.15174 -0.99387,4.38148 -0.22974,0.22974 0.0323,1.25854 0.5823,2.28622 0.83834,1.56646 2.16634,1.86167 8.21481,1.82615 3.96815,-0.0233 9.64699,-0.61017 12.61964,-1.30416 4.01371,-0.93702 6.11367,-2.11087 8.15886,-4.56068 2.17474,-2.605 2.9001,-4.75338 3.44847,-10.21373 0.55069,-5.48357 0.3674,-7.41394 -0.88552,-9.32614 -0.86897,-1.32622 -3.10854,-3.90567 -4.97682,-5.73211 -1.86828,-1.82645 -4.59238,-5.61912 -6.05356,-8.42817 -1.46118,-2.80905 -2.91841,-7.31718 -3.23829,-10.01806 -0.41747,-3.52484 0.0187,-6.85431 1.54562,-11.79782 1.16997,-3.78792 3.49553,-9.2787 5.16792,-12.20173 l 3.0407,-5.31459 -5.58461,2.46978 c -3.07154,1.35838 -6.99104,2.46978 -8.71,2.46978 -1.71897,0 -5.93968,-1.57384 -9.37937,-3.49742 -5.77464,-3.22937 -6.60771,-4.15167 -10.86931,-12.03344 -2.53844,-4.69482 -5.3226,-10.61919 -6.18702,-13.16529 -1.12735,-3.32053 -1.3749,-6.20884 -0.87561,-10.21656 0.38283,-3.07301 1.15171,-6.48729 1.70862,-7.58729 0.5569,-1.1 2.49109,-4.25 4.29819,-7 2.97067,-4.5207 3.3454,-5.93827 3.90913,-14.78803 l 0.62349,-9.78803 -2.58488,1.69368 c -1.42169,0.93153 -3.68193,3.8586 -5.02277,6.50461 -1.34083,2.646 -4.09199,6.46504 -6.11369,8.48674 -2.02171,2.0217 -6.61643,5.00915 -10.21051,6.63878 -5.79604,2.62806 -7.20903,2.88668 -12.50053,2.28801 -3.28122,-0.37122 -7.6624,-1.54047 -9.73597,-2.59832 -2.07356,-1.05786 -4.13174,-2.49534 -4.57373,-3.19441 -0.442,-0.69907 -3.21001,-3.06474 -6.15113,-5.25704 -4.37943,-3.2644 -6.14337,-5.56416 -9.74375,-12.70356 -2.41794,-4.79467 -5.06751,-10.64467 -5.88795,-13 -0.82043,-2.35534 -1.49824,-7.0593 -1.50625,-10.45325 -0.0113,-4.77663 0.74362,-7.96851 3.34119,-14.12759 1.84566,-4.37622 4.60747,-9.59787 6.13737,-11.60367 2.47638,-3.2467 2.72107,-4.2338 2.22969,-8.99481 -0.30358,-2.94135 -1.44918,-7.09282 -2.54579,-9.22551 -1.09662,-2.13268 -3.27256,-5.01168 -4.83543,-6.39777 -1.56287,-1.3861 -4.28586,-3.5236 -6.05109,-4.75 -1.76523,-1.22641 -4.10117,-2.22983 -5.19098,-2.22983 -1.08981,0 -2.25959,-0.45 -2.59951,-1 -0.33992,-0.55 -2.11138,-1 -3.93657,-1 -1.8252,0 -3.87874,-0.675 -4.56343,-1.5 -0.68469,-0.825 -1.76766,-1.5 -2.4066,-1.5 -0.63895,0 -3.42082,-2.3625 -6.18195,-5.25 -2.76113,-2.8875 -5.53368,-6.375 -6.16124,-7.75 -0.62755,-1.375 -2.04932,-4.57712 -3.15948,-7.11582 -1.71115,-3.91306 -2.86552,-5.01688 -7.58193,-7.25 -3.05991,-1.4488 -6.464,-2.63418 -7.56465,-2.63418 -1.10065,0 -4.67552,1.35 -7.94415,3 -3.26863,1.65 -6.64079,3 -7.49368,3 -0.85289,0 -5.15083,1.8101 -9.55096,4.02245 -4.40014,2.21234 -9.00265,4.93323 -10.22781,6.04641 -1.22515,1.11319 -2.90255,2.62463 -3.72755,3.35877 -0.825,0.73414 -5.325,3.25591 -10,5.60395 -4.675,2.34803 -9.85,4.61197 -11.5,5.03097 -1.65,0.419 -4.575,1.31372 -6.5,1.98828 -1.925,0.67455 -4.69443,1.83907 -6.15429,2.58782 -1.45986,0.74874 -3.3836,1.36135 -4.27497,1.36135 -0.89137,0 -4.64693,1.49968 -8.3457,3.33262 -3.69877,1.83293 -9.20004,4.24468 -12.22504,5.35942 -3.025,1.11475 -7.075,2.47924 -9,3.03221 -1.925,0.55297 -5.525,1.56458 -8,2.24804 -2.475,0.68345 -6.1875,1.93762 -8.25,2.78705 -2.0625,0.84942 -3.75,1.91451 -3.75,2.36685 0,0.45235 -1.41183,1.55253 -3.1374,2.44486 -1.72556,0.89233 -4.2372,2.80913 -5.58142,4.25956 -1.34421,1.45043 -5.69399,7.5944 -9.66618,13.65327 -3.97218,6.05886 -8.09025,12.36612 -9.15126,14.01612 -1.06102,1.65 -2.55217,4.125 -3.31367,5.5 -0.7615,1.375 -3.10282,5.875 -5.20292,10 -2.10011,4.125 -4.75976,9.975 -5.91034,13 -1.15058,3.025 -2.48196,6.4 -2.95861,7.5 -0.47666,1.1 -1.52042,4.025 -2.31947,6.5 -0.79905,2.475 -1.96403,6.08585 -2.58882,8.02411 -0.6248,1.93826 -1.6271,5.98826 -2.22732,9 -0.60023,3.01174 -1.29555,6.82589 -1.54517,8.47589 -0.24962,1.65 -0.66881,3.9889 -0.93152,5.19755 -0.26272,1.20865 -0.81253,5.48365 -1.22179,9.5 -0.40926,4.01635 -0.72967,13.82745 -0.71203,21.80245 0.0176,7.975 0.58101,18.87755 1.25193,24.22788 0.67092,5.35034 1.48398,11.42534 1.80681,13.5 0.32283,2.07467 1.62285,8.04712 2.88894,13.27212 1.26609,5.225 2.75192,10.625 3.30184,12 0.54992,1.375 1.78564,4.525 2.74606,7 0.96041,2.475 2.64096,6.525 3.73456,9 1.09359,2.475 3.05697,6.83367 4.36307,9.68592 1.30609,2.85226 2.37471,5.41359 2.37471,5.69185 0,0.27825 1.75761,4.24459 3.90579,8.81407 2.14819,4.56949 6.92402,14.83316 10.61295,22.80816 3.68893,7.975 8.89877,19.08415 11.57742,24.687 2.67865,5.60285 5.50905,11.90285 6.28979,14 0.78073,2.09715 2.98955,7.863 4.90849,12.813 1.91894,4.95 4.41947,11.025 5.55672,13.5 1.13725,2.475 3.47398,6.975 5.19273,10 1.71874,3.025 4.53302,7.75 6.25394,10.5 1.72092,2.75 4.94286,7.475 7.15987,10.5 2.21701,3.025 4.26105,5.725 4.5423,6 0.28126,0.275 1.84703,2.3 3.47948,4.5 1.63246,2.2 4.31235,5.575 5.95532,7.5 1.64297,1.925 9.07976,9.57542 16.52621,17.00091 7.44644,7.4255 15.11399,14.8692 17.03899,16.5414 1.925,1.6723 6.425,5.3201 10,8.1062 3.575,2.7861 10.1,7.5261 14.5,10.5334 4.4,3.0072 14.975,9.3157 23.5,14.0189 8.525,4.7032 20.01828,10.8571 25.54063,13.6752 5.52235,2.8182 10.36879,5.124 10.76987,5.124 0.40109,0 2.4078,1.0399 4.45937,2.311 2.05157,1.271 7.55513,3.9397 12.23013,5.9303 4.675,1.9907 13.34422,5.9007 19.26492,8.689 5.92071,2.7884 11.04834,5.0697 11.39472,5.0697 0.34639,0 6.97718,2.6767 14.73508,5.9483 7.75791,3.2716 20.18028,8.2518 27.60528,11.0671 7.425,2.8154 15.075,5.4811 17,5.9238 1.925,0.4427 4.76679,1.3125 6.3151,1.9329 1.5483,0.6203 3.99136,1.1279 5.429,1.1279 1.43765,0 3.99585,0.4242 5.6849,0.9426 1.68905,0.5184 8.246,1.8673 14.571,2.9976 6.325,1.1302 18.7,3.3688 27.5,4.9747 8.8,1.6058 20.725,3.6782 26.5,4.6052 5.775,0.927 15,2.3194 20.5,3.0942 5.5,0.7749 14.01995,1.8585 18.93323,2.4081 4.91327,0.5495 10.53827,1.4098 12.5,1.9118 1.96172,0.5019 7.61677,1.4297 12.56677,2.0617 4.95,0.6321 13.5,1.5036 19,1.9367 5.5,0.4332 11.35,0.8489 13,0.9239 z m 128,-364.49898 c 3.3,-0.24288 8.25,-1.13897 11,-1.99131 2.75,-0.85234 6.0125,-2.65852 7.25,-4.01373 1.36728,-1.49733 2.25,-3.74028 2.25,-5.71712 0,-1.78921 -0.57972,-4.04593 -1.28827,-5.01493 -0.87445,-1.19588 -3.52454,-2.04982 -8.25,-2.65841 -3.82895,-0.49313 -11.46173,-0.89172 -16.96173,-0.88576 -5.5,0.006 -11.96729,0.39083 -14.37176,0.85527 -2.40446,0.46444 -4.76007,1.45735 -5.23468,2.20645 -0.47462,0.74911 -0.86983,2.78998 -0.87825,4.53528 -0.009,1.95285 0.95753,4.32944 2.51421,6.17944 1.452,1.7256 4.54034,3.65445 7.25,4.52803 2.59626,0.83702 6.07048,1.72358 7.72048,1.97012 1.65,0.24655 5.7,0.24955 9,0.007 z m 11.23549,-47.54511 c 0.95785,-0.18446 1.89247,-1.11908 2.07693,-2.07693 0.18447,-0.95785 -0.40311,-2.02493 -1.30573,-2.3713 -0.90262,-0.34636 -2.12063,-0.15025 -2.70669,0.43581 -0.58606,0.58606 -0.78217,1.80407 -0.43581,2.70669 0.34637,0.90262 1.41345,1.4902 2.3713,1.30573 z m -15,-1 c 0.95785,-0.18446 1.89247,-1.11908 2.07693,-2.07693 0.18447,-0.95785 -0.40311,-2.02493 -1.30573,-2.3713 -0.90262,-0.34636 -2.12063,-0.15025 -2.70669,0.43581 -0.58606,0.58606 -0.78217,1.80407 -0.43581,2.70669 0.34637,0.90262 1.41345,1.4902 2.3713,1.30573 z m 48.85928,-15.85156 c 7.15292,0.0277 11.69812,-0.48981 15.59655,-1.77591 3.02597,-0.99827 7.48332,-2.98933 9.90522,-4.42458 2.4219,-1.43525 6.26754,-4.33098 8.54587,-6.43496 2.27832,-2.10397 6.64495,-7.33111 9.70362,-11.61585 3.05866,-4.28475 7.84187,-12.00856 10.62935,-17.16402 2.78748,-5.15547 7.51348,-15.14977 10.50223,-22.20956 l 5.43408,-12.83598 -6.0437,-0.3 c -3.36974,-0.16727 -10.42896,0.59438 -15.95524,1.72148 -5.45134,1.11181 -13.32622,3.20007 -17.49972,4.64057 -4.17351,1.4405 -10.36129,4.12833 -13.75062,5.97295 -3.38932,1.84463 -7.81478,4.2701 -9.83435,5.38993 -2.01956,1.11984 -6.40517,4.56657 -9.7458,7.6594 -3.34063,3.09283 -7.49785,7.8209 -9.23827,10.50683 -1.74042,2.68592 -3.92848,7.05319 -4.86236,9.70503 -1.02336,2.90592 -1.77673,8.4053 -1.89623,13.84176 -0.12351,5.61933 0.28516,10.08124 1.08393,11.83434 0.70521,1.54776 2.6431,3.40706 4.30643,4.13177 1.81846,0.7923 7.04909,1.33326 13.11901,1.3568 z m -62.87995,-3.06795 c 1.34026,0.0648 2.68533,-0.77207 3.40639,-2.11938 0.65536,-1.22457 1.58917,-3.81207 2.07514,-5.75 0.48596,-1.93794 1.18044,-4.87353 1.54329,-6.52353 0.36285,-1.65 0.65382,-6.6 0.64659,-11 -0.009,-5.34396 -0.73118,-10.32404 -2.1759,-15 -1.18952,-3.85 -3.86097,-9.925 -5.93655,-13.5 -2.07558,-3.575 -6.48255,-9.25043 -9.79326,-12.61207 -3.31072,-3.36165 -7.90529,-7.07415 -10.21016,-8.25 -2.30488,-1.17586 -4.95057,-2.13793 -5.87933,-2.13793 -1.54686,0 -1.63419,1.53229 -1.0401,18.25 0.3567,10.0375 0.83909,19.375 1.07197,20.75 0.23288,1.375 0.73158,5.2 1.10822,8.5 0.37664,3.3 1.31255,8.25 2.0798,11 0.76724,2.75 2.25535,6.41038 3.3069,8.13417 1.05154,1.72379 3.41272,4.26904 5.24704,5.6561 1.83433,1.38706 5.36014,2.96599 7.83514,3.50874 2.475,0.54274 5.49667,1.035 6.71482,1.0939 z"
       id="path3043"
       inkscape:connector-curvature="0" />
  </g>
</svg>
