<?xml version="1.0" encoding="UTF-8" standalone="no"?>
<!-- Created with Inkscape (http://www.inkscape.org/) -->

<svg
   xmlns:dc="http://purl.org/dc/elements/1.1/"
   xmlns:cc="http://creativecommons.org/ns#"
   xmlns:rdf="http://www.w3.org/1999/02/22-rdf-syntax-ns#"
   xmlns:svg="http://www.w3.org/2000/svg"
   xmlns="http://www.w3.org/2000/svg"
   xmlns:sodipodi="http://sodipodi.sourceforge.net/DTD/sodipodi-0.dtd"
   xmlns:inkscape="http://www.inkscape.org/namespaces/inkscape"
   width="449.97302"
   height="402.74994"
   id="svg2"
   version="1.1"
   inkscape:version="0.48.4 r9939"
   sodipodi:docname="!0wn-mod2-cord-13_11.9x9.8.svg">
  <defs
     id="defs4" />
  <sodipodi:namedview
     id="base"
     pagecolor="#ffffff"
     bordercolor="#666666"
     borderopacity="1.0"
     inkscape:pageopacity="0.0"
     inkscape:pageshadow="2"
     inkscape:zoom="1.4142136"
     inkscape:cx="285.4437"
     inkscape:cy="186.52123"
     inkscape:document-units="px"
     inkscape:current-layer="layer1"
     showgrid="false"
     inkscape:window-width="1280"
     inkscape:window-height="977"
     inkscape:window-x="-4"
     inkscape:window-y="-4"
     inkscape:window-maximized="1"
     units="in"
     showborder="true"
     inkscape:snap-center="true"
     inkscape:showpageshadow="true"
     width="744px"
     fit-margin-left="1"
     fit-margin-top="1"
     fit-margin-right="1"
     fit-margin-bottom="1" />
  <metadata
     id="metadata7">
    <rdf:RDF>
      <cc:Work
         rdf:about="">
        <dc:format>image/svg+xml</dc:format>
        <dc:type
           rdf:resource="http://purl.org/dc/dcmitype/StillImage" />
        <dc:title></dc:title>
      </cc:Work>
    </rdf:RDF>
  </metadata>
  <g
     inkscape:label="Layer 1"
     inkscape:groupmode="layer"
     id="layer1"
     transform="translate(-98.920519,-541.219)">
    <g
       id="1"
       transform="translate(0,62.36)" />
    <g
       id="1-1"
       transform="translate(0,62.36)" />
    <path
       style="fill:#000000"
       d="m 336.48526,853.95017 c -2.55976,0.0525 -5.47916,-0.009 -6.48755,-0.13618 -1.0084,-0.12738 -7.54531,-0.22491 -14.52648,-0.21669 -6.98117,0.008 -12.94689,-0.0643 -13.25717,-0.16119 -0.31027,-0.0968 -1.7065,-0.31223 -3.10274,-0.47861 -1.39623,-0.16641 -3.30019,-0.43909 -4.23101,-0.6059 -0.93082,-0.16683 -3.3425,-0.66954 -5.35928,-1.11712 -2.01678,-0.44761 -5.06311,-1.18568 -6.76962,-1.64024 -1.7065,-0.45451 -4.75283,-1.33692 -6.76961,-1.96087 -2.01679,-0.62394 -4.23807,-1.32041 -4.93619,-1.54772 -0.69811,-0.2273 -2.28474,-0.78875 -3.52584,-1.24768 -1.24109,-0.45888 -3.33544,-1.2377 -4.65411,-1.73069 -1.31866,-0.493 -3.22262,-1.22093 -4.23101,-1.61767 -1.00839,-0.39671 -3.48353,-1.42052 -5.50032,-2.27509 -2.01678,-0.85456 -4.44781,-1.9166 -5.40228,-2.36013 -0.95448,-0.44347 -1.90646,-0.97379 -2.11551,-1.17843 -0.20905,-0.20465 -1.83979,-1.2912 -3.62387,-2.41455 -1.78408,-1.12338 -4.24942,-2.83148 -5.47853,-3.79579 -1.22912,-0.96429 -2.37149,-1.88131 -2.53861,-2.03776 -0.16712,-0.15644 -1.24927,-1.10843 -2.40479,-2.11552 -1.15552,-1.00707 -2.91809,-2.65607 -3.91683,-3.66445 -0.99875,-1.0084 -3.26707,-3.54701 -5.04071,-5.64133 -1.77365,-2.0944 -3.94182,-4.88685 -4.81817,-6.2055 -0.87635,-1.3187 -1.80348,-2.7784 -2.06028,-3.24377 -0.25681,-0.46541 -0.8638,-1.5182 -1.3489,-2.33949 -0.48509,-0.8213 -0.88199,-1.60466 -0.88199,-1.74084 0,-0.13616 -0.57119,-1.09936 -1.26931,-2.14044 -0.69811,-1.04108 -1.2693,-1.92903 -1.2693,-1.97323 0,-0.0442 -0.54618,-1.01113 -1.21374,-2.14868 -0.66756,-1.13758 -1.38695,-2.51254 -1.59865,-3.05552 -0.21169,-0.54298 -0.48951,-1.12593 -0.61738,-1.29543 -0.12787,-0.16952 -0.73082,-1.62922 -1.3399,-3.24377 -0.60907,-1.61458 -1.93593,-4.73363 -2.94858,-6.93122 -1.01265,-2.19761 -2.54624,-5.47907 -3.40798,-7.29214 -0.86174,-1.81308 -1.5668,-3.35283 -1.5668,-3.42168 0,-0.0688 -0.45559,-1.10302 -1.01242,-2.29817 -0.55684,-1.19515 -1.17907,-2.55375 -1.38274,-3.01917 -0.20367,-0.46541 -0.6869,-1.54432 -1.07383,-2.39757 -0.38693,-0.85325 -1.02149,-2.31295 -1.41012,-3.24378 -0.38864,-0.93082 -1.10417,-2.87164 -1.59009,-4.31292 -0.48591,-1.44128 -1.00208,-3.21831 -1.14705,-3.94894 -0.14496,-0.73064 -0.33474,-1.64575 -0.42173,-2.0336 -0.087,-0.38784 -0.33786,-1.72061 -0.55747,-2.9617 -0.21961,-1.2411 -0.47976,-2.95466 -0.57811,-3.80792 -0.0983,-0.85325 -0.1785,-3.77265 -0.17814,-6.48755 2.5e-4,-2.71489 0.13114,-5.76122 0.29061,-6.76961 0.15947,-1.00839 0.42238,-2.59503 0.58423,-3.52584 0.16186,-0.93083 0.34656,-1.94627 0.41045,-2.25655 0.0639,-0.31027 0.32071,-1.45264 0.5707,-2.53862 0.25,-1.08596 0.78615,-2.92645 1.19146,-4.08998 0.4053,-1.16352 1.16345,-3.15291 1.68478,-4.42087 0.52132,-1.26794 1.35189,-3.04497 1.84572,-3.94894 0.49383,-0.90397 1.12846,-2.02437 1.41029,-2.48978 0.28182,-0.46541 0.60149,-1.0366 0.71036,-1.2693 0.10888,-0.23271 0.78734,-1.31162 1.50771,-2.39758 0.72036,-1.08596 1.96738,-3.21155 2.77115,-4.72353 0.80378,-1.51198 2.00932,-3.60634 2.67899,-4.65411 0.66967,-1.04778 1.44049,-2.47624 1.71295,-3.17436 0.27245,-0.69812 1.1833,-2.43855 2.0241,-3.86764 0.8408,-1.42909 1.66163,-2.9479 1.82406,-3.37513 0.16243,-0.42722 0.95445,-1.70951 1.76004,-2.84952 0.80559,-1.14001 1.81139,-2.52333 2.23512,-3.07405 0.42372,-0.55073 1.09477,-1.65324 1.4912,-2.45003 0.39644,-0.79679 1.12866,-1.97875 1.62717,-2.62658 0.4985,-0.64783 1.22369,-1.65958 1.61153,-2.24833 0.38784,-0.58876 2.2918,-2.66079 4.23101,-4.60451 1.93921,-1.94373 3.9701,-3.911 4.51308,-4.37171 0.54298,-0.46071 1.55842,-1.28019 2.25654,-1.82106 0.69812,-0.54089 1.39623,-1.13799 1.55137,-1.32689 0.15514,-0.18891 0.67716,-0.57527 1.16005,-0.85857 0.4829,-0.28331 1.65004,-1.05455 2.59365,-1.71389 0.94361,-0.65933 1.77955,-1.19878 1.85764,-1.19878 0.0781,0 0.45112,-0.28651 0.82896,-0.63668 0.37784,-0.35017 1.17769,-0.80682 1.77745,-1.01478 0.59976,-0.20796 1.75491,-0.80997 2.56699,-1.3378 0.81208,-0.52782 1.5478,-0.95969 1.63493,-0.95969 0.0871,0 1.07279,-0.42557 2.19036,-0.94571 1.11757,-0.52013 3.07781,-1.2917 4.35607,-1.71459 1.27827,-0.42288 2.39023,-0.87585 2.47103,-1.00657 0.0808,-0.13074 1.19275,-0.57495 2.47102,-0.98714 1.27826,-0.41219 2.76838,-0.94917 3.31136,-1.19329 0.54298,-0.24412 1.32414,-0.61497 1.73592,-0.82411 0.41178,-0.20915 0.93569,-0.38027 1.16425,-0.38027 0.22856,0 0.56751,-0.18309 0.75322,-0.40686 0.18571,-0.22377 1.5026,-0.79496 2.92643,-1.26931 1.42382,-0.47434 2.79729,-0.86244 3.05215,-0.86244 0.25486,0 1.33817,-0.37225 2.40735,-0.82723 1.06917,-0.45498 3.65281,-1.39746 5.7414,-2.0944 2.08859,-0.69694 5.25714,-1.64037 7.04121,-2.09652 1.78408,-0.45614 4.13229,-1.02935 5.21825,-1.27378 1.08596,-0.24444 3.18031,-0.64814 4.65411,-0.89711 1.4738,-0.24897 3.37776,-0.5736 4.23101,-0.72138 0.85326,-0.14778 3.77265,-0.46786 6.48755,-0.71128 3.1517,-0.28258 7.9443,-0.44085 13.25717,-0.43779 4.57654,0.003 9.59029,0.13787 11.14167,0.30055 1.55137,0.16268 4.15344,0.47686 5.78238,0.69817 1.62894,0.22131 5.81764,0.55373 9.30822,0.73873 3.97582,0.2107 10.13964,0.27626 16.50095,0.17549 5.58493,-0.0885 13.64501,-0.24728 17.91128,-0.35291 6.63073,-0.16416 8.20731,-0.12114 10.8596,0.29632 1.7065,0.2686 4.30857,0.79901 5.78238,1.17869 1.4738,0.37968 3.59269,0.99472 4.70863,1.36676 1.11595,0.37204 3.14683,1.1539 4.51308,1.73747 1.36625,0.58356 3.67494,1.67173 5.13044,2.41815 1.4555,0.74642 3.9941,2.18955 5.64135,3.20696 1.64725,1.01741 4.64508,2.91163 6.66187,4.20938 2.01678,1.29775 4.04767,2.62527 4.51308,2.95003 0.46541,0.32477 1.86164,1.26034 3.10274,2.07905 1.2411,0.81871 3.09997,2.36949 4.13085,3.44618 1.0309,1.07669 2.43568,2.65573 3.12178,3.50899 0.6861,0.85325 2.49813,3.64572 4.02676,6.20548 1.52864,2.55976 3.07499,5.01291 3.43632,5.45144 0.36133,0.43853 0.65696,1.03396 0.65696,1.32317 0,0.28922 0.11097,0.59442 0.24656,0.67823 0.13562,0.0838 0.81963,1.32888 1.52,2.76681 0.70041,1.43793 1.59346,3.31254 1.98457,4.16579 0.39112,0.85325 0.92953,2.24948 1.19651,3.10274 0.26697,0.85326 0.65524,1.8687 0.86281,2.25654 0.20755,0.38784 0.68413,1.46675 1.05902,2.39757 0.37493,0.93082 0.76954,2.13666 0.87692,2.67964 0.10738,0.54298 0.82079,2.89119 1.58531,5.21825 0.76457,2.32706 1.50928,4.6118 1.65497,5.07722 0.14569,0.46541 0.64252,2.55976 1.10407,4.65411 0.46154,2.09435 1.03386,5.01374 1.27181,6.48755 0.23798,1.4738 0.56755,3.75854 0.73236,5.07721 0.16484,1.31866 0.35913,3.03223 0.43176,3.80791 0.0726,0.77569 0.13195,4.83747 0.13187,9.02617 -8e-5,4.18871 -0.0639,8.31394 -0.14168,9.16719 -0.0778,0.85326 -0.32943,2.75721 -0.55909,4.23101 -0.22966,1.47381 -0.65894,3.63162 -0.95393,4.79515 -0.29501,1.16353 -0.79184,2.94056 -1.10406,3.94895 -0.31222,1.00839 -0.97801,2.9758 -1.47953,4.37204 -0.50154,1.39624 -1.09403,3.04633 -1.31663,3.66688 -0.22261,0.62054 -1.29503,3.22262 -2.38316,5.78238 -1.08814,2.55976 -3.30555,7.34853 -4.92758,10.6417 -1.62206,3.29319 -3.91363,7.73575 -5.09239,9.87236 -1.17879,2.13663 -3.35499,5.91563 -4.83604,8.39785 -1.48103,2.4822 -4.11715,6.63795 -5.85804,9.23503 -1.74086,2.59711 -3.4347,5.07224 -3.76405,5.50031 -0.32936,0.4281 -1.72041,2.23807 -3.09126,4.02214 -1.37082,1.78408 -3.80926,4.58543 -5.41874,6.22524 -1.60947,1.63978 -4.00524,3.87117 -5.3239,4.95857 -1.31867,1.08741 -3.44103,2.74943 -4.71637,3.69339 -1.27531,0.94392 -3.75046,2.60226 -5.50032,3.68515 -1.74983,1.0829 -3.68924,2.25377 -4.30979,2.60201 -0.62055,0.34823 -2.47616,1.3771 -4.1236,2.28641 -1.64744,0.90925 -3.07138,1.65324 -3.16432,1.65324 -0.0929,0 -1.22014,0.5161 -2.50495,1.14688 -1.28482,0.63082 -4.45261,2.02928 -7.03956,3.10774 -2.58695,1.07848 -5.44288,2.20569 -6.34652,2.50492 -0.90363,0.29923 -3.10268,1.03775 -4.88676,1.64117 -1.78408,0.60342 -4.32268,1.41913 -5.64135,1.81271 -1.31866,0.39359 -3.22262,0.93727 -4.23101,1.20816 -1.00839,0.27089 -2.40462,0.65724 -3.10274,0.85856 -0.69812,0.20127 -1.96742,0.51552 -2.82068,0.69829 -0.85325,0.18276 -2.18602,0.50364 -2.9617,0.713 -0.77569,0.20934 -2.36232,0.56765 -3.52585,0.79622 -1.16353,0.22854 -3.13094,0.56443 -4.37204,0.74641 -1.2411,0.18201 -4.35089,0.37382 -6.91065,0.42623 z m -3.19162,-4.42709 c 0.9595,0.0271 2.05612,-0.069 2.43693,-0.21375 0.3808,-0.1448 2.88529,-0.40027 5.56552,-0.56775 3.33025,-0.20808 5.81835,-0.53045 7.85853,-1.01809 1.64196,-0.39242 5.20666,-1.27491 7.92156,-1.96101 2.7149,-0.68609 7.60172,-2.12906 10.85959,-3.20661 3.25788,-1.0775 6.55807,-2.20668 7.33376,-2.50929 0.77568,-0.3026 2.55271,-1.02196 3.94894,-1.59864 1.39623,-0.5767 5.33108,-2.42637 8.74409,-4.11047 3.41302,-1.6841 7.85558,-4.05721 9.87236,-5.27361 2.01678,-1.21637 5.06311,-3.21331 6.76962,-4.43765 1.70651,-1.22432 4.11818,-3.08188 5.35928,-4.12789 1.2411,-1.04604 3.15165,-2.7702 4.24568,-3.83149 1.09402,-1.06129 2.76516,-2.88157 3.71364,-4.04508 0.94851,-1.16354 3.03626,-3.91689 4.63948,-6.11862 1.60318,-2.20171 3.86689,-5.48454 5.03041,-7.29519 1.16353,-1.81065 2.37256,-3.75373 2.68673,-4.31789 0.31416,-0.56419 0.77108,-1.34312 1.01536,-1.73096 0.24429,-0.38785 1.14857,-1.91101 2.00947,-3.38481 0.86093,-1.4738 1.81124,-3.1239 2.11181,-3.66688 0.30057,-0.54298 0.96792,-1.74594 1.48294,-2.67326 0.51503,-0.9273 2.11793,-4.01007 3.56198,-6.85063 1.44404,-2.84056 2.66172,-5.38205 2.70598,-5.64775 0.0442,-0.26571 0.21722,-0.61003 0.38432,-0.76517 0.16713,-0.15513 1.39302,-2.88414 2.72421,-6.06445 1.33119,-3.18031 2.74212,-6.67089 3.1354,-7.75685 0.39332,-1.08596 1.08404,-3.11685 1.53502,-4.51308 0.45094,-1.39624 1.02415,-3.30019 1.27384,-4.23101 0.24969,-0.93082 0.58205,-2.51745 0.73859,-3.52584 0.15655,-1.0084 0.46017,-3.03928 0.67471,-4.51308 0.27944,-1.9197 0.36516,-4.91957 0.30226,-10.57753 -0.0483,-4.34384 -0.13999,-8.34216 -0.20368,-8.88514 -0.0637,-0.54298 -0.20205,-1.74882 -0.30737,-2.67964 -0.10532,-0.93082 -0.31239,-2.51745 -0.46016,-3.52584 -0.14775,-1.00839 -0.33253,-2.34116 -0.41061,-2.96171 -0.0781,-0.62055 -0.18487,-1.31866 -0.23733,-1.55137 -0.0525,-0.23271 -0.17607,-0.74043 -0.27471,-1.12827 -0.0986,-0.38784 -0.50417,-2.08818 -0.90117,-3.77852 -0.39702,-1.69035 -0.95542,-3.7847 -1.2409,-4.65412 -0.28548,-0.86942 -0.86195,-2.72313 -1.28107,-4.11936 -0.41912,-1.39624 -0.98921,-3.04633 -1.26682,-3.66688 -0.27764,-0.62054 -0.7916,-2.01678 -1.14212,-3.10274 -0.35052,-1.08596 -0.92549,-2.67259 -1.27771,-3.52584 -0.35224,-0.85326 -0.95956,-2.50335 -1.34966,-3.66688 -0.39007,-1.16353 -1.11846,-2.94055 -1.61862,-3.94894 -0.50016,-1.00839 -1.65342,-2.93391 -2.56283,-4.27891 -0.90939,-1.34501 -1.65343,-2.52913 -1.65343,-2.6314 0,-0.10225 -1.08948,-1.98466 -2.42106,-4.18311 -1.33159,-2.19846 -3.00033,-4.73973 -3.70826,-5.64728 -0.70796,-0.90755 -1.80802,-2.0226 -2.4446,-2.47788 -0.63657,-0.45528 -1.3478,-0.9845 -1.58051,-1.17604 -0.2327,-0.19154 -0.92901,-0.66313 -1.54739,-1.04797 -0.61835,-0.38484 -1.37993,-0.85634 -1.6924,-1.04778 -0.31245,-0.19144 -0.79024,-0.42837 -1.06173,-0.52652 -0.27149,-0.0981 -0.49362,-0.27058 -0.49362,-0.38319 0,-0.11261 -0.47393,-0.44687 -1.05316,-0.74279 -0.57922,-0.29592 -2.26105,-1.35294 -3.73739,-2.34893 -1.47634,-0.996 -2.7477,-1.89122 -2.82527,-1.98937 -0.0776,-0.0981 -0.64695,-0.48908 -1.26533,-0.86874 -0.61835,-0.37965 -1.37993,-0.84396 -1.6924,-1.0318 -0.31245,-0.18784 -0.75851,-0.43243 -0.99121,-0.54356 -0.23271,-0.11111 -0.48657,-0.29274 -0.56414,-0.40359 -0.0776,-0.11086 -2.10845,-1.15546 -4.51308,-2.32134 -2.40462,-1.1659 -5.19709,-2.43993 -6.20548,-2.83122 -1.00839,-0.39127 -2.91235,-1.03425 -4.23101,-1.42884 -1.31867,-0.39459 -3.28609,-0.89829 -4.37205,-1.11932 -1.08596,-0.22103 -3.7515,-0.62143 -5.92342,-0.88977 -3.61353,-0.44646 -4.58382,-0.45491 -11.42372,-0.0995 -4.40369,0.22882 -13.15343,0.38247 -21.29609,0.37399 -13.30048,-0.0138 -14.0339,-0.0426 -19.46266,-0.76193 -3.10274,-0.41114 -8.25958,-0.88297 -11.45964,-1.04852 -3.20005,-0.16555 -7.83301,-0.22242 -10.29546,-0.12639 -3.84491,0.14995 -4.85559,0.29133 -7.15681,1.00114 -1.4738,0.45458 -3.2021,1.17166 -3.84067,1.59349 -0.63856,0.42182 -1.52707,1.01118 -1.97447,1.30969 -0.4474,0.29852 -1.51156,0.99163 -2.36482,1.54026 -0.85325,0.54862 -2.60759,2.015 -3.89852,3.2586 -1.29093,1.24361 -2.63572,2.45445 -2.98843,2.69076 -0.3527,0.23632 -1.30797,1.00085 -2.12282,1.69897 -0.81485,0.69811 -2.90573,2.66553 -4.6464,4.37204 -1.74066,1.70651 -3.57211,3.42007 -4.06989,3.80791 -0.49776,0.38784 -2.20277,2.01011 -3.7889,3.60504 -1.58613,1.59493 -3.32812,3.41382 -3.8711,4.04196 -0.54298,0.62816 -2.0218,2.17914 -3.28628,3.44665 -1.26446,1.2675 -3.18323,3.09096 -4.26391,4.05213 -1.08068,0.96117 -2.4132,2.423 -2.96114,3.24851 -0.54795,0.82552 -1.14318,2.04652 -1.32273,2.71335 -0.24186,0.8982 -0.2452,1.45868 -0.0129,2.16268 0.17248,0.52264 0.80706,1.39606 1.41016,1.94093 0.6031,0.54487 1.58724,1.1228 2.18698,1.28429 0.59973,0.16149 1.65411,0.676 2.34304,1.14336 0.68894,0.46736 1.66858,1.32577 2.17699,1.90758 0.5084,0.58181 1.60193,1.88509 2.43008,2.89617 0.82815,1.01109 1.84015,2.4983 2.24889,3.30492 0.59081,1.1659 0.74111,1.85885 0.73313,3.37991 -0.006,1.05234 -0.17837,2.61693 -0.3841,3.47689 -0.20573,0.85995 -0.62809,2.12925 -0.93857,2.82067 -0.31048,0.69142 -1.02615,1.93626 -1.59037,2.76632 -0.56422,0.83006 -1.02586,1.81799 -1.02586,2.1954 0,0.37741 0.30946,1.29687 0.68767,2.04325 0.37822,0.74639 1.00982,1.56814 1.40356,1.82612 0.7093,0.46476 0.72091,0.4592 1.26415,-0.60563 0.30154,-0.59108 1.3075,-1.86275 2.23545,-2.82593 1.12868,-1.17152 2.23331,-1.99467 3.33694,-2.48664 1.52467,-0.67965 1.85726,-0.72314 4.38641,-0.57356 1.96048,0.11595 3.06038,0.327 3.87807,0.74416 0.9424,0.48077 1.33309,0.96351 2.24067,2.7686 0.77571,1.54284 1.15573,2.7242 1.29116,4.01391 0.10556,1.00519 0.0549,3.38626 -0.11262,5.29126 -0.25203,2.86649 -0.44884,3.76616 -1.14153,5.21827 -0.46034,0.965 -0.99487,1.97063 -1.18784,2.23467 -0.19297,0.26405 -0.2549,0.57604 -0.13761,0.69335 0.11729,0.11729 0.9829,-0.20988 1.92357,-0.727 1.54861,-0.85136 1.85649,-0.92306 3.25639,-0.75853 0.85035,0.0999 1.94767,0.38851 2.43851,0.64128 0.49083,0.25278 1.28008,0.75419 1.75387,1.11428 0.4738,0.36008 1.4101,1.61359 2.08066,2.78558 1.17224,2.04883 1.21192,2.19542 1.02978,3.80526 -0.13681,1.20925 -0.61684,2.52888 -1.72807,4.75055 -0.84625,1.6919 -1.53864,3.40842 -1.53864,3.81448 0,0.60439 0.26048,0.8703 1.4361,1.46602 1.26709,0.6421 1.53236,0.94002 2.25399,2.53155 0.60618,1.33689 0.86699,2.44271 1.00761,4.27217 0.1561,2.03069 0.30228,2.58092 0.82447,3.10308 0.3491,0.34912 0.98999,0.7239 1.42421,0.83289 0.4342,0.10899 1.49231,0.044 2.35134,-0.14445 0.85903,-0.18842 3.08504,-0.58317 4.94668,-0.87723 1.86165,-0.29405 3.86019,-0.57296 4.44121,-0.61978 l 1.05639,-0.0851 0.10808,-4.51308 c 0.08,-3.33965 0.001,-4.91647 -0.30186,-6.06445 -0.22545,-0.85325 -0.45357,-1.74177 -0.50693,-1.97447 -0.0533,-0.23271 -0.29555,-0.88987 -0.5382,-1.46035 -0.25432,-0.5979 -0.71203,-1.12142 -1.08063,-1.23599 -0.3517,-0.1093 -1.32394,-0.65065 -2.16054,-1.20293 -0.8366,-0.55229 -2.05851,-1.54929 -2.71535,-2.21556 -0.65684,-0.66627 -1.51037,-1.87947 -1.89673,-2.69603 -0.38636,-0.81653 -0.7907,-1.88711 -0.89853,-2.37904 -0.10783,-0.49195 -0.49943,-1.2218 -0.87023,-1.62189 -0.44467,-0.47982 -0.97121,-0.72745 -1.54668,-0.72745 -0.55026,0 -1.12819,-0.25572 -1.56484,-0.69236 -0.38079,-0.38079 -0.69234,-1.0212 -0.69234,-1.42315 0,-0.40195 0.31155,-1.04237 0.69234,-1.42317 0.38079,-0.38079 0.9872,-0.69234 1.34758,-0.69234 0.36037,0 0.90706,0.17639 1.21487,0.392 0.36401,0.25496 1.43296,0.40426 3.05791,0.42711 1.37403,0.0192 2.61013,0.10427 2.74689,0.18878 0.13674,0.0845 0.24863,0.0462 0.24863,-0.0852 0,-0.13139 -0.82505,-1.08446 -1.83344,-2.11795 -1.30307,-1.33551 -1.83344,-2.09088 -1.83344,-2.61126 0,-0.40271 0.31156,-1.04376 0.69235,-1.42454 0.43643,-0.43643 1.01462,-0.69235 1.56419,-0.69235 0.54957,0 1.12777,0.25592 1.56419,0.69235 0.38079,0.38078 0.69563,0.85677 0.69963,1.05775 0.004,0.20097 0.49649,0.59071 1.09443,0.86608 0.59793,0.27538 1.94625,1.25908 2.99627,2.18602 1.05002,0.92694 1.99218,1.68536 2.09369,1.68536 0.10152,0 0.0934,-0.72986 -0.018,-1.6219 -0.11143,-0.89204 -0.21332,-1.91325 -0.22641,-2.26936 -0.0131,-0.35611 0.28775,-0.95903 0.66855,-1.33982 0.38079,-0.38079 1.02121,-0.69235 1.42315,-0.69235 0.40195,0 1.04237,0.31156 1.42316,0.69235 0.38079,0.38079 0.69235,0.96544 0.69235,1.29923 0,0.33378 0.30749,0.84874 0.68331,1.14436 0.49165,0.38674 0.81225,1.10445 1.14308,2.55902 0.34785,1.52934 0.42019,2.79901 0.29717,5.21495 -0.0894,1.7564 -0.0644,3.19266 0.0557,3.19167 0.12007,0 0.43192,-0.37721 0.693,-0.83607 0.26598,-0.46747 0.81547,-0.91982 1.24976,-1.02882 0.48557,-0.12188 1.04437,-0.0434 1.49606,0.21014 0.39654,0.22259 0.84057,0.74472 0.98672,1.16029 0.18041,0.51299 0.15962,0.96301 -0.0648,1.40162 -0.18176,0.35529 -0.44539,0.83642 -0.58585,1.06912 -0.14046,0.2327 -0.49045,0.99023 -0.77774,1.68344 -0.28729,0.69318 -0.51684,1.8749 -0.5101,2.62604 0.0116,1.29709 0.10071,1.45228 1.7723,3.08805 1.24005,1.21345 2.03452,2.31267 2.68903,3.72044 0.51094,1.09899 1.13489,2.75974 1.38656,3.69057 0.25166,0.93082 0.6187,2.29532 0.81562,3.03223 0.19693,0.7369 0.489,1.33894 0.64906,1.33787 0.16005,0 0.58905,-0.4396 0.95331,-0.97454 0.36428,-0.53494 0.98232,-1.76487 1.37344,-2.73318 0.60244,-1.49149 0.71199,-2.2168 0.71679,-4.74587 0.004,-2.32218 -0.10632,-3.20274 -0.49852,-3.96401 -0.27731,-0.53827 -0.80209,-1.37065 -1.16619,-1.84971 -0.3641,-0.47906 -0.78812,-1.53605 -0.94227,-2.34889 -0.15414,-0.81281 -0.33031,-1.56318 -0.39146,-1.66755 -0.0612,-0.10434 -0.19435,-1.55868 -0.29598,-3.23184 -0.10163,-1.67318 -0.31024,-3.38673 -0.46358,-3.80792 -0.15334,-0.42118 -0.49469,-1.17831 -0.75856,-1.6825 -0.26387,-0.5042 -0.58361,-0.91672 -0.71052,-0.91672 -0.12691,0 -0.5423,-0.31157 -0.92309,-0.69236 -0.38077,-0.38079 -0.69233,-1.02121 -0.69233,-1.42316 0,-0.40195 0.31156,-1.04237 0.69235,-1.42316 0.38079,-0.38079 1.02121,-0.69234 1.42315,-0.69234 0.42277,0 1.05236,0.32561 1.49368,0.77249 0.41957,0.42488 1.51125,1.32678 2.42596,2.00422 l 1.66309,1.23173 -0.18789,-0.93945 c -0.10334,-0.51672 -0.50268,-1.39371 -0.88741,-1.94888 -0.38473,-0.55517 -0.69952,-1.29394 -0.69952,-1.64172 0,-0.34776 0.31156,-0.94386 0.69235,-1.32465 0.38079,-0.3808 1.02121,-0.69235 1.42316,-0.69235 0.42629,0 1.00888,0.30425 1.39816,0.73017 0.36704,0.40159 0.77379,0.8479 0.90389,0.9918 0.13011,0.14389 0.93938,0.93122 1.79839,1.74961 0.85901,0.8184 1.77926,1.94616 2.04499,2.50618 0.26574,0.55998 0.48315,1.21359 0.48315,1.4525 0,0.23888 0.11058,0.50267 0.24571,0.58619 0.13514,0.0835 0.31531,-0.36708 0.40038,-1.00131 0.0851,-0.63426 0.0863,-1.57427 0.003,-2.08897 -0.12161,-0.74941 -0.007,-1.08035 0.57403,-1.66167 0.40625,-0.40626 1.04769,-0.72589 1.4567,-0.72589 0.40882,0 1.05033,0.3195 1.45601,0.72519 0.61871,0.61871 0.69915,0.88804 0.54785,1.83422 -0.11655,0.72894 -0.0267,1.46957 0.26221,2.161 0.27908,0.66793 0.41905,1.75389 0.38341,2.97457 -0.0309,1.05741 -0.23427,2.51934 -0.452,3.24877 -0.21771,0.72939 -0.83268,2.65896 -1.36659,4.2879 -0.79325,2.42017 -1.00953,3.60634 -1.18288,6.48755 -0.11668,1.93922 -0.14868,5.32436 -0.0711,7.52257 0.0776,2.19821 0.21039,4.06575 0.29516,4.15008 0.0848,0.0843 1.22714,0.36026 2.5386,0.61317 1.31147,0.2529 2.91728,0.65309 3.56847,0.88929 0.79068,0.28678 1.84308,0.3922 3.16808,0.31733 1.09126,-0.0617 2.10822,-0.23623 2.25991,-0.38793 0.17971,-0.1797 0.0829,-1.06116 -0.27787,-2.52966 -0.30452,-1.23963 -0.74321,-2.95198 -0.97487,-3.80523 -0.23165,-0.85326 -0.74731,-2.9476 -1.14591,-4.65411 -0.3986,-1.70651 -0.92271,-4.11819 -1.16472,-5.35928 -0.242,-1.2411 -0.49321,-2.57387 -0.55825,-2.96172 -0.065,-0.38784 -0.11058,-3.1803 -0.10122,-6.20547 0.009,-3.02518 0.14137,-6.8331 0.29333,-8.46204 0.15197,-1.62894 0.40343,-4.9926 0.55881,-7.47479 0.15538,-2.48219 0.39516,-5.20614 0.53285,-6.05321 0.1377,-0.84708 0.27207,-4.02034 0.29861,-7.05169 0.0376,-4.2926 0.16859,-6.0418 0.59236,-7.90912 0.29925,-1.31866 0.72157,-2.96876 0.93848,-3.66688 0.21691,-0.69811 0.79354,-2.05326 1.28138,-3.01143 0.48783,-0.95817 1.42931,-2.48134 2.09217,-3.38481 0.66286,-0.90348 1.3007,-1.79988 1.41744,-1.99201 0.11673,-0.19213 -0.0321,-0.90174 -0.33076,-1.5769 -0.29866,-0.67516 -0.78124,-1.53079 -1.0724,-1.9014 -0.29116,-0.37061 -1.16403,-1.28471 -1.93971,-2.03133 -0.77569,-0.74663 -1.8546,-1.77086 -2.39758,-2.27609 -0.54298,-0.50522 -1.52138,-1.34191 -2.17423,-1.8593 -1.17952,-0.93478 -1.19312,-0.9378 -2.15813,-0.47988 -0.53413,0.25346 -1.33473,0.46084 -1.77912,0.46084 -0.44438,0 -1.24044,-0.23194 -1.76901,-0.51542 -0.52858,-0.28347 -1.19298,-0.94788 -1.47645,-1.47645 -0.28349,-0.52857 -0.51542,-1.34579 -0.51542,-1.81605 0,-0.47025 0.23193,-1.28747 0.51542,-1.81604 0.28347,-0.52857 0.94787,-1.19298 1.47645,-1.47645 0.52857,-0.28348 1.34579,-0.51542 1.81604,-0.51542 0.47025,0 1.28747,0.23194 1.81605,0.51542 0.52857,0.28347 1.19298,0.94788 1.47645,1.47645 0.28348,0.52857 0.51541,1.29702 0.51541,1.70766 0,0.6712 0.24929,0.8518 2.46809,1.78809 1.35745,0.57281 2.84888,1.21043 3.31429,1.41693 0.46542,0.2065 1.29047,0.57377 1.83344,0.81616 0.54298,0.24239 1.50482,0.73457 2.13741,1.09376 0.63259,0.35917 1.80699,1.12493 2.60977,1.70167 0.80279,0.57675 1.65225,1.04863 1.8877,1.04863 0.23544,0 1.53618,-0.55396 2.89054,-1.23102 1.35435,-0.67706 3.73175,-1.68177 5.28313,-2.2327 1.55136,-0.55093 3.89958,-1.20147 5.21824,-1.44564 1.31867,-0.24418 4.90076,-0.63693 7.96023,-0.87278 3.05944,-0.23584 5.72498,-0.39584 5.92341,-0.35556 0.27538,0.0559 0.3536,-0.59432 0.3305,-2.74742 -0.0166,-1.55137 -0.17991,-3.5188 -0.36274,-4.37205 -0.18286,-0.85325 -0.45971,-2.02736 -0.61524,-2.60912 -0.23917,-0.89458 -0.40147,-1.05776 -1.052,-1.05776 -0.42308,0 -1.2017,-0.23193 -1.73026,-0.51541 -0.5286,-0.28347 -1.19298,-0.94788 -1.47645,-1.47645 -0.28348,-0.52858 -0.51543,-1.3458 -0.51543,-1.81605 0,-0.47025 0.23195,-1.28747 0.51543,-1.81604 0.28347,-0.52857 0.94785,-1.19297 1.47645,-1.47645 0.52856,-0.28348 1.34577,-0.51542 1.81603,-0.51542 0.47027,0 1.28747,0.23194 1.81604,0.51542 0.52859,0.28348 1.19297,0.94788 1.47645,1.47645 0.28348,0.52857 0.51543,1.32463 0.51543,1.76902 0,0.44438 -0.20575,1.24153 -0.45721,1.77143 -0.45571,0.96034 -0.45325,0.97012 0.75326,3.00434 0.66574,1.12248 1.62443,2.82504 2.1304,3.78347 0.506,0.95843 1.26973,2.77545 1.69717,4.03781 0.48502,1.43233 0.9852,2.40654 1.33046,2.59132 0.30429,0.16286 1.96234,0.65306 3.68456,1.08935 1.72222,0.43628 4.00093,1.11773 5.06382,1.51432 1.06288,0.39659 3.30602,1.40809 4.98481,2.24777 1.67875,0.83968 4.04583,2.28615 5.26018,3.21437 1.21436,0.92823 3.01285,2.42484 3.99668,3.32581 0.98381,0.90096 2.5826,2.66158 3.55289,3.91249 0.97031,1.2509 2.22602,3.00362 2.79052,3.89494 0.56447,0.89132 1.5972,2.74237 2.2949,4.11344 0.69772,1.37107 1.59918,3.37081 2.00327,4.44387 0.40409,1.07306 0.97132,2.64913 1.26053,3.50239 0.28918,0.85325 0.79444,2.63027 1.12277,3.94894 0.32832,1.31866 0.65377,2.65143 0.72319,2.96171 0.0694,0.31027 0.3169,1.73036 0.54995,3.15574 0.23305,1.42539 0.539,4.28132 0.67989,6.34652 0.14087,2.0652 0.21632,5.72232 0.16766,8.12696 -0.0487,2.40463 -0.1681,5.13363 -0.26539,6.06445 -0.0973,0.93083 -0.37098,2.83478 -0.60817,4.23101 -0.23716,1.39624 -0.75506,3.74445 -1.15089,5.21825 -0.3958,1.4738 -0.89785,3.09645 -1.11566,3.60593 -0.21781,0.50944 -0.39602,1.06144 -0.39602,1.22668 0,0.1652 -0.19979,0.76381 -0.444,1.33023 -0.24422,0.56642 -0.61415,1.41067 -0.82209,1.87609 -0.20794,0.46541 -0.75425,1.61286 -1.21402,2.54989 -0.45977,0.93702 -1.32738,2.46018 -1.92807,3.3848 -0.60066,0.92462 -1.1556,1.83014 -1.23317,2.01227 -0.0776,0.18216 -0.94431,1.34958 -1.92604,2.59426 -0.98176,1.24471 -2.69877,3.13103 -3.81553,4.19186 -1.11679,1.06083 -3.04252,2.69609 -4.27944,3.63393 -1.23689,0.93782 -3.13743,2.21815 -4.2234,2.84516 -1.08596,0.62701 -3.1803,1.61735 -4.65411,2.20078 -1.4738,0.58345 -3.06043,1.32777 -3.52584,1.6541 -0.46541,0.32632 -1.16125,0.96571 -1.54632,1.42085 -0.38505,0.45518 -1.0597,1.39463 -1.49925,2.0877 -0.43952,0.69304 -1.69249,3.11487 -2.78437,5.38179 -1.09191,2.26694 -2.52038,5.20059 -3.17444,6.51928 -0.65403,1.31864 -1.61024,3.15913 -2.12493,4.08998 -0.51466,0.93079 -1.63788,2.77128 -2.49599,4.08997 -0.85813,1.31864 -2.13251,3.15913 -2.83196,4.08998 -0.69943,0.9308 -2.16952,2.5955 -3.26681,3.69932 -1.09733,1.10381 -2.9471,2.7026 -4.11063,3.55286 -1.16353,0.85029 -3.13095,2.12014 -4.37204,2.82187 -1.2411,0.70174 -3.20852,1.71677 -4.37205,2.25561 -1.16353,0.53889 -3.25788,1.37403 -4.65411,1.8559 -1.39624,0.48189 -3.65508,1.20944 -5.01966,1.61679 -1.36458,0.40732 -4.91863,1.35591 -7.89789,2.10794 -2.97926,0.75197 -6.62267,1.6819 -8.09647,2.06644 -1.4738,0.38456 -4.26628,1.01342 -6.20549,1.3974 -1.93921,0.384 -4.66821,0.89758 -6.06445,1.14127 -1.39623,0.24367 -3.36365,0.57187 -4.37204,0.72929 -1.0084,0.15743 -3.42007,0.48762 -5.35928,0.73376 -1.93922,0.24609 -4.79515,0.62288 -6.34652,0.83728 -1.55137,0.2144 -4.85156,0.54335 -7.33376,0.73101 -2.48219,0.18763 -5.78237,0.34354 -7.33375,0.34642 -1.55137,0.003 -4.2169,-0.20795 -5.92341,-0.46853 -1.70651,-0.26059 -5.0067,-0.84805 -7.33376,-1.30547 -3.1545,-0.62008 -5.70223,-0.90658 -10.01339,-1.12605 -3.18031,-0.16186 -6.2901,-0.41652 -6.91065,-0.56584 -0.62055,-0.14936 -2.14371,-0.27712 -3.38481,-0.28395 -1.2411,-0.007 -3.01813,-0.12834 -3.94894,-0.27001 -0.93083,-0.14172 -2.77131,-0.45663 -4.08998,-0.69985 -1.31867,-0.24321 -4.30153,-0.63778 -6.62858,-0.87673 -2.32706,-0.23898 -5.4165,-0.74974 -6.86542,-1.13498 -1.44892,-0.38529 -3.4098,-1.02683 -4.35749,-1.42571 -0.9477,-0.39888 -2.36429,-1.14518 -3.14798,-1.65841 -0.78369,-0.51323 -1.87478,-1.3578 -2.42464,-1.87682 -0.54987,-0.519 -1.37491,-1.45137 -1.83344,-2.07194 -0.45853,-0.62054 -0.99947,-1.42354 -1.20209,-1.7844 -0.20262,-0.36089 -0.64024,-1.50325 -0.97249,-2.53863 -0.53391,-1.66373 -0.6058,-2.55422 -0.61884,-7.66483 -0.008,-3.18031 0.072,-6.35357 0.17806,-7.05168 0.10605,-0.69812 0.38805,-2.34822 0.62668,-3.66688 0.23863,-1.31867 0.57157,-2.9053 0.73987,-3.52585 0.1683,-0.62054 0.82507,-2.65143 1.45947,-4.51307 1.10898,-3.25422 1.15428,-3.52624 1.17427,-7.05169 0.0197,-3.46861 -0.0222,-3.75547 -0.77479,-5.30563 -0.43758,-0.90132 -1.32224,-2.1517 -1.96592,-2.77862 -0.64367,-0.62689 -2.12229,-1.86664 -3.28582,-2.75498 -1.16353,-0.88832 -3.35326,-2.46883 -4.86608,-3.51219 -1.51281,-1.0434 -3.14447,-2.03438 -3.62592,-2.20221 -0.6704,-0.23373 -1.51355,-0.19305 -3.60124,0.17366 -1.96505,0.34517 -2.93317,0.4 -3.46856,0.19643 -0.40847,-0.15527 -1.06083,-0.70277 -1.4497,-1.21658 -0.38887,-0.51384 -0.73938,-1.25156 -0.77892,-1.6394 -0.0395,-0.38784 0.0276,-1.46675 0.14924,-2.39758 0.12162,-0.93082 0.40793,-2.13666 0.63625,-2.67964 0.22833,-0.54297 0.40449,-1.63196 0.39149,-2.41994 -0.013,-0.78798 -0.34654,-2.31115 -0.7412,-3.38481 -0.39466,-1.07366 -0.91445,-2.84061 -1.1551,-3.92657 -0.26169,-1.18094 -0.43598,-3.31932 -0.43367,-5.32055 0.002,-1.84036 0.15742,-3.99817 0.34507,-4.79515 0.18766,-0.79698 0.64091,-2.0473 1.00722,-2.77848 0.36632,-0.73117 1.04854,-1.76509 1.51607,-2.29755 0.46752,-0.53249 1.45146,-1.25452 2.18655,-1.60451 0.73508,-0.35002 2.09808,-0.80308 3.0289,-1.00685 0.93083,-0.20376 2.08119,-0.37492 2.55636,-0.38036 0.59363,-0.007 1.12315,-0.28492 1.6924,-0.88882 0.45565,-0.4834 1.46566,-1.35436 2.24446,-1.93546 0.7788,-0.58111 2.17102,-1.48266 3.09382,-2.00346 1.5132,-0.85399 1.90103,-0.94777 3.95277,-0.95573 2.00726,-0.008 2.38028,0.0741 3.17011,0.69634 0.49234,0.38784 1.18619,1.27636 1.54188,1.97447 0.46449,0.91164 0.63658,1.70646 0.61072,2.82069 -0.0198,0.85325 -0.31405,2.37642 -0.65389,3.38481 -0.33985,1.00839 -1.49775,3.4373 -2.57313,5.39761 -1.07537,1.96029 -1.95522,3.8071 -1.95522,4.10403 0,0.29693 0.3269,1.04125 0.72644,1.65407 0.39954,0.61282 1.49425,1.66473 2.43269,2.33761 0.93843,0.67287 2.97786,1.85899 4.53207,2.63583 1.55421,0.77684 3.34717,1.60085 3.98435,1.8311 0.63718,0.23025 2.4038,0.79292 3.92581,1.25035 1.52202,0.4574 3.32479,0.90809 4.00617,1.00148 1.00841,0.13821 1.50936,0.0283 2.69307,-0.59059 0.79981,-0.41823 2.49806,-1.18122 3.77387,-1.69554 1.27581,-0.51435 3.22279,-1.14057 4.32663,-1.39164 1.10384,-0.25107 2.87043,-0.4546 3.92577,-0.45232 1.05533,0.003 2.63763,0.22862 3.51621,0.50296 0.87858,0.27433 1.96413,0.81193 2.41234,1.19463 0.44821,0.38271 1.07547,1.14788 1.39391,1.70039 0.31845,0.55251 0.73775,1.66634 0.93179,2.4752 0.21059,0.87785 0.28723,2.23522 0.19012,3.36746 -0.0895,1.04328 -0.23581,2.4 -0.32519,3.01491 -0.0894,0.61493 -0.21554,1.17109 -0.28034,1.23587 -0.0648,0.0648 0.009,0.35502 0.16425,0.64487 0.23572,0.44047 0.6164,0.52651 2.31713,0.52371 1.11929,-0.003 2.73318,-0.1869 3.58644,-0.41125 1.08829,-0.28613 1.77523,-0.6727 2.30134,-1.29503 0.58604,-0.69318 0.7928,-1.31347 0.94586,-2.83757 0.15533,-1.54674 0.10363,-2.09122 -0.24978,-2.63059 -0.24511,-0.37408 -0.87682,-1.10167 -1.4038,-1.61684 -0.52697,-0.51519 -1.29536,-1.58499 -1.70751,-2.37732 -0.41215,-0.79235 -0.82319,-2.06394 -0.91342,-2.82578 -0.11775,-0.99423 0.005,-1.93337 0.43598,-3.32777 0.33,-1.06845 0.98597,-2.61722 1.4577,-3.44171 l 0.85768,-1.49907 -1.57524,0.69665 c -0.86638,0.38316 -1.97194,0.69665 -2.45681,0.69665 -0.48486,0 -1.67539,-0.44395 -2.64561,-0.98653 -1.62884,-0.91088 -1.86382,-1.17103 -3.06588,-3.39423 -0.71601,-1.32425 -1.50133,-2.99533 -1.74515,-3.7135 -0.318,-0.93661 -0.38782,-1.7513 -0.24699,-2.88177 0.10799,-0.86679 0.32486,-1.82983 0.48195,-2.1401 0.15708,-0.31028 0.70265,-1.19881 1.21238,-1.97449 0.83793,-1.27514 0.94362,-1.67499 1.10263,-4.17123 l 0.17587,-2.76088 -0.72911,0.47773 c -0.40101,0.26276 -1.03855,1.08839 -1.41676,1.83475 -0.3782,0.74634 -1.15422,1.82357 -1.72447,2.39383 -0.57026,0.57025 -1.86628,1.41291 -2.88005,1.87258 -1.63488,0.74129 -2.03344,0.81424 -3.52599,0.64537 -0.92553,-0.10471 -2.16132,-0.43451 -2.7462,-0.7329 -0.58489,-0.29839 -1.16543,-0.70385 -1.29011,-0.90104 -0.12467,-0.19718 -0.90543,-0.86446 -1.73503,-1.48284 -1.23529,-0.92078 -1.73284,-1.56946 -2.74839,-3.58326 -0.68202,-1.35242 -1.42938,-3.00251 -1.6608,-3.66688 -0.23142,-0.66436 -0.42261,-1.99119 -0.42486,-2.94852 -0.003,-1.34733 0.20975,-2.24765 0.94243,-3.98493 0.52061,-1.23439 1.29962,-2.70724 1.73116,-3.27302 0.69851,-0.91579 0.76752,-1.19421 0.62892,-2.53714 -0.0856,-0.82966 -0.40877,-2.00065 -0.71808,-2.60222 -0.30932,-0.60155 -0.92308,-1.41968 -1.36392,-1.81805 -0.44083,-0.39837 -1.13959,-0.93355 -1.55278,-1.18928 -0.41319,-0.25574 -1.9853,-0.97102 -3.49356,-1.58951 -1.50827,-0.61849 -3.0107,-1.37332 -3.33873,-1.67741 -0.32802,-0.30407 -1.18331,-0.86266 -1.90064,-1.24128 -0.98659,-0.52075 -1.95583,-0.73624 -3.97962,-0.8848 -1.7576,-0.12901 -3.14866,-0.0816 -4.05504,0.13808 -0.75882,0.18395 -2.2815,0.76148 -3.38374,1.2834 -1.10223,0.52191 -2.11768,0.95054 -2.25654,0.95251 -0.13885,0.002 -0.95058,0.35933 -1.80384,0.79416 -0.85325,0.43481 -2.05909,1.12997 -2.67963,1.54478 -0.62055,0.41482 -1.38214,0.92868 -1.69241,1.14192 -0.31027,0.21324 -1.67885,1.11017 -3.04128,1.99318 -1.36243,0.88301 -3.00381,1.7913 -3.64751,2.01841 -0.64369,0.22711 -1.61153,0.74942 -2.15072,1.16069 -0.53921,0.41127 -1.94416,1.24821 -3.12212,1.85987 -1.17796,0.61167 -2.45907,1.31692 -2.84691,1.56724 -0.38785,0.25032 -1.27636,0.73969 -1.97447,1.08748 -0.69812,0.3478 -1.40452,0.63632 -1.56979,0.64118 -0.16526,0.005 -1.41903,0.59411 -2.78614,1.30947 -1.36712,0.71536 -3.00892,1.67194 -3.64847,2.12573 -0.63954,0.4538 -1.61242,1.12276 -2.16196,1.48658 -0.54955,0.36382 -1.37459,1.10951 -1.83344,1.65709 -0.45885,0.54758 -1.15159,1.46446 -1.53944,2.0375 -0.38784,0.57305 -1.09787,1.50458 -1.57784,2.07008 -0.47997,0.56548 -1.02101,1.46418 -1.20231,1.99708 -0.1813,0.53291 -0.49694,1.16756 -0.70141,1.41034 -0.20448,0.24278 -0.56427,1.0126 -0.79954,1.71072 -0.23527,0.69812 -0.57195,1.71662 -0.74819,2.26334 -0.17623,0.54672 -0.45895,1.68909 -0.62825,2.53862 -0.1693,0.8495 -0.36544,1.92536 -0.43584,2.39078 -0.0704,0.4654 -0.18865,1.12513 -0.26276,1.46604 -0.0741,0.34093 -0.22918,1.54677 -0.34462,2.67964 -0.11544,1.13289 -0.20582,3.90028 -0.20084,6.14977 0.005,2.24949 0.16388,5.32473 0.35313,6.83388 0.18924,1.50917 0.41858,3.22273 0.50964,3.80791 0.0911,0.5852 0.45775,2.26985 0.81487,3.74365 0.35713,1.47381 0.77623,2.99697 0.93134,3.38481 0.15512,0.38784 0.50368,1.27635 0.77458,1.97447 0.2709,0.69812 0.74493,1.84049 1.0534,2.53861 0.30846,0.69812 0.86227,1.92754 1.23068,2.73208 0.3684,0.80451 0.66983,1.527 0.66983,1.60547 0,0.0785 0.49576,1.19727 1.10169,2.48617 0.60594,1.28891 1.95304,4.18396 2.99357,6.43345 1.04052,2.24949 2.51005,5.383 3.26561,6.9634 0.75556,1.58037 1.55392,3.35739 1.77415,3.94894 0.22021,0.59153 0.8454,2.2357 1.38929,3.65368 0.54389,1.41798 1.29003,3.195 1.65809,3.94894 0.36806,0.75391 1.09769,2.13238 1.62141,3.0632 0.52371,0.93082 1.5352,2.56185 2.24776,3.62451 0.71257,1.06266 1.59409,2.45889 1.95893,3.10274 0.36485,0.64385 1.23355,2.23902 1.93045,3.54486 0.69689,1.30585 1.79389,3.08288 2.43778,3.94894 0.64388,0.86607 1.2356,1.63819 1.31493,1.71574 0.0793,0.0776 0.52099,0.64877 0.98145,1.26933 0.46046,0.62054 1.21637,1.5725 1.6798,2.11548 0.46343,0.54299 2.5611,2.70094 4.66151,4.79542 2.10039,2.0945 4.26316,4.19409 4.80614,4.66579 0.54298,0.47166 1.81228,1.50058 2.82068,2.28649 1.00839,0.78586 2.84888,2.12278 4.08997,2.97093 1.2411,0.84815 4.09733,2.55963 6.34717,3.80328 2.24985,1.24368 4.59806,2.42776 5.21825,2.63132 0.62019,0.20354 2.58732,0.99598 4.37139,1.76094 1.78408,0.76493 4.95734,2.02535 7.05168,2.8009 2.09436,0.77555 5.07722,1.83192 6.62859,2.34754 1.55137,0.51565 4.15345,1.34303 5.78239,1.83871 1.62893,0.49568 3.53289,1.07518 4.23101,1.28781 0.69811,0.21264 2.03088,0.58298 2.9617,0.82292 0.93082,0.23996 3.08864,0.74184 4.79515,1.11534 1.7065,0.37347 4.11818,0.87169 5.35928,1.10717 1.24109,0.23545 3.27198,0.55827 4.51308,0.71739 1.2411,0.15912 2.76426,0.35955 3.38481,0.44539 0.62054,0.0859 5.95162,0.28561 11.84683,0.44393 5.89521,0.15828 11.9244,0.38695 13.3982,0.50816 1.4738,0.1212 3.46469,0.24263 4.4242,0.26986 z m 39.15521,-103.36841 c 0.93083,-0.0685 2.32706,-0.32128 3.10274,-0.56168 0.77569,-0.24044 1.69594,-0.74988 2.04499,-1.13217 0.38567,-0.42234 0.63466,-1.05499 0.63466,-1.61261 0,-0.50467 -0.16352,-1.14121 -0.36339,-1.41453 -0.24664,-0.33733 -0.99415,-0.57819 -2.32706,-0.74985 -1.08001,-0.13909 -3.23297,-0.25152 -4.78434,-0.24985 -1.55137,0.003 -3.37558,0.11025 -4.0538,0.24125 -0.67823,0.13098 -1.34267,0.41105 -1.47654,0.62235 -0.13387,0.21133 -0.24535,0.78697 -0.24772,1.27926 -0.003,0.55085 0.27008,1.22121 0.70917,1.74303 0.40956,0.48674 1.28068,1.03079 2.04499,1.27721 0.73232,0.23609 1.71229,0.48617 2.1777,0.5557 0.46541,0.0696 1.60778,0.0704 2.5386,0.003 z m 12.71977,-18.16422 c 2.01761,0.008 3.29966,-0.13815 4.39927,-0.50092 0.85354,-0.28159 2.1108,-0.84318 2.79394,-1.24803 0.68314,-0.40483 1.76788,-1.22164 2.41051,-1.81508 0.64264,-0.59347 1.87435,-2.06786 2.73708,-3.27646 0.86276,-1.20859 2.21194,-3.38723 2.9982,-4.84141 0.78627,-1.4542 2.11932,-4.27326 2.96233,-6.2646 l 1.53279,-3.62061 -1.70474,-0.0846 c -0.95048,-0.0472 -2.94168,0.16765 -4.50044,0.48557 -1.53766,0.31361 -3.75891,0.90264 -4.93612,1.30895 -1.17721,0.40632 -2.92259,1.16447 -3.8786,1.68478 -0.95601,0.52031 -2.2043,1.20446 -2.77394,1.52033 -0.56965,0.31587 -1.80669,1.28808 -2.74897,2.16046 -0.9423,0.87239 -2.11491,2.20602 -2.60582,2.96364 -0.49091,0.7576 -1.1081,1.98947 -1.37152,2.73747 -0.28864,0.81967 -0.50115,2.37086 -0.53486,3.90431 -0.0348,1.58502 0.0804,2.84358 0.30573,3.33807 0.19892,0.43658 0.74553,0.96103 1.21472,1.16545 0.51292,0.22348 1.98833,0.37607 3.70044,0.3827 z m -17.73639,-0.86535 c 0.37805,0.0184 0.75745,-0.21778 0.96083,-0.59781 0.18486,-0.34542 0.44826,-1.07527 0.58534,-1.62189 0.13707,-0.54665 0.33296,-1.37466 0.43531,-1.84007 0.10234,-0.46541 0.18442,-1.86166 0.18238,-3.10275 -0.003,-1.50736 -0.20624,-2.91208 -0.61375,-4.23101 -0.33553,-1.08597 -1.08906,-2.79953 -1.67451,-3.80792 -0.58546,-1.00838 -1.82852,-2.60924 -2.76236,-3.55745 -0.93384,-0.94821 -2.22982,-1.99538 -2.87995,-2.32705 -0.65013,-0.33168 -1.39639,-0.60305 -1.65837,-0.60305 -0.43632,0 -0.46095,0.43221 -0.29338,5.14773 0.10061,2.83126 0.23668,5.46506 0.30237,5.8529 0.0657,0.38785 0.20635,1.46676 0.31259,2.39758 0.10624,0.93082 0.37023,2.32705 0.58665,3.10274 0.21641,0.77569 0.63615,1.80815 0.93276,2.29437 0.29661,0.48623 0.96262,1.20418 1.48002,1.59541 0.51741,0.39126 1.51192,0.83661 2.21004,0.98972 0.69812,0.15308 1.55043,0.29193 1.89403,0.30855 z"
       id="path3418"
       inkscape:connector-curvature="0" />
  </g>
</svg>
