<?xml version="1.0" encoding="UTF-8" standalone="no"?>
<!-- Created with Inkscape (http://www.inkscape.org/) -->

<svg
   xmlns:dc="http://purl.org/dc/elements/1.1/"
   xmlns:cc="http://creativecommons.org/ns#"
   xmlns:rdf="http://www.w3.org/1999/02/22-rdf-syntax-ns#"
   xmlns:svg="http://www.w3.org/2000/svg"
   xmlns="http://www.w3.org/2000/svg"
   xmlns:sodipodi="http://sodipodi.sourceforge.net/DTD/sodipodi-0.dtd"
   xmlns:inkscape="http://www.inkscape.org/namespaces/inkscape"
   width="650"
   height="600"
   id="svg2"
   version="1.1"
   inkscape:version="0.48.1 "
   sodipodi:docname="!0wn-mod2-cord-13.svg">
  <defs
     id="defs4" />
  <sodipodi:namedview
     id="base"
     pagecolor="#ffffff"
     bordercolor="#666666"
     borderopacity="1.0"
     inkscape:pageopacity="0.0"
     inkscape:pageshadow="2"
     inkscape:zoom="1"
     inkscape:cx="321.13306"
     inkscape:cy="372.16063"
     inkscape:document-units="px"
     inkscape:current-layer="layer1"
     showgrid="false"
     inkscape:window-width="1280"
     inkscape:window-height="977"
     inkscape:window-x="-4"
     inkscape:window-y="-4"
     inkscape:window-maximized="1"
     units="px"
     showborder="true"
     inkscape:snap-center="true"
     inkscape:showpageshadow="true"
     width="744px" />
  <metadata
     id="metadata7">
    <rdf:RDF>
      <cc:Work
         rdf:about="">
        <dc:format>image/svg+xml</dc:format>
        <dc:type
           rdf:resource="http://purl.org/dc/dcmitype/StillImage" />
        <dc:title></dc:title>
      </cc:Work>
    </rdf:RDF>
  </metadata>
  <g
     inkscape:label="Layer 1"
     inkscape:groupmode="layer"
     id="layer1"
     transform="translate(0,-452.35997)">
    <g
       id="1"
       transform="translate(0,62.36)" />
    <g
       id="1-1"
       transform="translate(0,62.36)" />
    <path
       style="fill:#000000"
       d="m 352.00123,991.3145 c -5.71738,0.1172 -12.23803,-0.019 -14.49033,-0.3042 -2.2523,-0.2845 -16.85287,-0.5023 -32.44571,-0.484 -15.59285,0.018 -28.91764,-0.1436 -29.61066,-0.36 -0.69301,-0.2162 -3.81158,-0.6974 -6.93015,-1.069 -3.11857,-0.3717 -7.37116,-0.9807 -9.45021,-1.3533 -2.07904,-0.3726 -7.46566,-1.4955 -11.97026,-2.49516 -4.5046,-0.99977 -11.30875,-2.64833 -15.12034,-3.6636 -3.81158,-1.0152 -10.61573,-2.98607 -15.12033,-4.37973 -4.5046,-1.39359 -9.46596,-2.94922 -11.02525,-3.45688 -1.55928,-0.50773 -5.10311,-1.76171 -7.87517,-2.78675 -2.77206,-1.02496 -7.44991,-2.7645 -10.39523,-3.86563 -2.94531,-1.10114 -7.19791,-2.72702 -9.45021,-3.61313 -2.2523,-0.88612 -7.78067,-3.17282 -12.28527,-5.08157 -4.5046,-1.90875 -9.93444,-4.28088 -12.06632,-5.27145 -2.13188,-0.99057 -4.25818,-2.17506 -4.72511,-2.63214 -0.46693,-0.45707 -4.10928,-2.88395 -8.09412,-5.39304 -3.98484,-2.5091 -9.49132,-6.32427 -12.23662,-8.4781 -2.74531,-2.15383 -5.29686,-4.202 -5.67013,-4.55147 -0.37326,-0.34941 -2.79032,-2.47571 -5.37123,-4.72511 -2.58092,-2.24934 -6.51773,-5.93252 -8.74848,-8.18476 -2.23075,-2.25236 -7.29717,-7.92249 -11.25871,-12.60028 -3.96154,-4.67792 -8.80429,-10.91505 -10.76167,-13.86031 -1.95737,-2.94537 -4.02816,-6.2057 -4.60174,-7.24516 -0.57359,-1.03952 -1.92936,-3.39098 -3.01285,-5.22539 -1.08349,-1.83442 -1.96998,-3.58409 -1.96998,-3.88826 0,-0.30411 -1.27577,-2.45548 -2.83506,-4.7808 -1.55928,-2.32532 -2.83506,-4.3086 -2.83506,-4.40732 0,-0.0988 -1.21994,-2.25842 -2.71097,-4.7992 -1.49103,-2.54084 -3.09783,-5.61191 -3.57067,-6.82469 -0.47283,-1.21277 -1.09336,-2.51482 -1.37896,-2.8934 -0.2856,-0.37864 -1.63233,-3.63896 -2.99273,-7.24516 -1.3604,-3.60626 -4.32403,-10.57283 -6.58584,-15.48127 -2.26181,-4.9085 -5.68717,-12.23783 -7.61192,-16.28743 -1.92474,-4.04961 -3.49954,-7.48873 -3.49954,-7.64251 0,-0.15379 -1.01758,-2.46367 -2.2613,-5.13311 -1.24372,-2.66943 -2.63351,-5.70395 -3.08843,-6.74348 -0.45491,-1.03952 -1.53422,-3.44932 -2.39846,-5.35511 -0.86422,-1.9058 -2.28154,-5.16612 -3.14958,-7.24516 -0.86805,-2.07905 -2.46624,-6.41399 -3.55155,-9.63317 -1.08532,-3.21918 -2.23822,-7.18827 -2.56201,-8.82019 -0.32378,-1.63193 -0.74766,-3.67588 -0.94197,-4.54215 -0.1943,-0.86627 -0.75461,-3.84309 -1.24513,-6.61515 -0.49052,-2.77206 -1.07157,-6.59939 -1.29123,-8.50519 -0.21965,-1.90579 -0.3987,-8.42643 -0.3979,-14.49032 6.3e-4,-6.06388 0.2929,-12.86803 0.6491,-15.12033 0.35619,-2.2523 0.9434,-5.79613 1.30491,-7.87517 0.36151,-2.07905 0.77405,-4.3471 0.91676,-5.04012 0.14271,-0.69301 0.71633,-3.24457 1.2747,-5.67015 0.55837,-2.42556 1.7559,-6.5364 2.66118,-9.13521 0.90527,-2.5988 2.59865,-7.04222 3.76305,-9.87427 1.1644,-2.83203 3.01954,-6.80112 4.12254,-8.82019 1.10299,-2.01906 2.52047,-4.52155 3.14995,-5.56107 0.62947,-1.03952 1.34346,-2.3153 1.58664,-2.83506 0.24318,-0.51977 1.75857,-2.92957 3.36755,-5.35512 1.60897,-2.42556 4.39427,-7.17318 6.18954,-10.55028 1.79528,-3.37711 4.48793,-8.05497 5.98367,-10.39523 1.49575,-2.34028 3.21743,-5.53083 3.82597,-7.09011 0.60853,-1.55929 2.64296,-5.44666 4.52094,-8.63861 1.87798,-3.19196 3.71135,-6.5843 4.07415,-7.53854 0.3628,-0.95424 2.13182,-3.8183 3.93115,-6.36457 1.79933,-2.54627 4.04584,-5.63601 4.99226,-6.86608 0.94641,-1.23008 2.44523,-3.69259 3.33069,-5.47227 0.88547,-1.77967 2.52093,-4.41965 3.63437,-5.86662 1.11343,-1.44696 2.73319,-3.70676 3.59946,-5.02178 0.86627,-1.31502 5.11886,-5.94302 9.45021,-10.28444 4.33134,-4.34143 8.86744,-8.73543 10.08022,-9.76446 1.21278,-1.02902 3.48083,-2.85938 5.04011,-4.06746 1.55929,-1.20809 3.11857,-2.54174 3.46508,-2.96368 0.34651,-0.42194 1.51247,-1.2849 2.59104,-1.91767 1.07857,-0.63277 3.68545,-2.3554 5.79306,-3.82806 2.10762,-1.47266 3.97474,-2.67756 4.14915,-2.67756 0.17441,0 1.0076,-0.63992 1.85153,-1.42205 0.84392,-0.78212 2.63044,-1.80208 3.97004,-2.26657 1.3396,-0.46448 3.91969,-1.80911 5.73352,-2.98805 1.81383,-1.17893 3.4571,-2.14352 3.65171,-2.14352 0.19461,0 2.39614,-0.95054 4.8923,-2.1123 2.49616,-1.16175 6.87445,-2.88509 9.72953,-3.82963 2.85508,-0.94454 5.33871,-1.95626 5.51918,-2.24825 0.18046,-0.292 2.66409,-1.28417 5.51917,-2.20482 2.85508,-0.92066 6.18333,-2.12003 7.39611,-2.66529 1.21278,-0.54525 2.95756,-1.37357 3.87729,-1.84071 0.91973,-0.46714 2.08992,-0.84935 2.60042,-0.84935 0.51049,0 1.26756,-0.40893 1.68236,-0.90873 0.4148,-0.49981 3.35615,-1.77559 6.53634,-2.83507 3.18019,-1.05948 6.24791,-1.92633 6.81716,-1.92633 0.56924,0 2.98888,-0.83145 5.37695,-1.84766 2.38807,-1.01622 8.15876,-3.1213 12.82375,-4.67796 4.66499,-1.55666 11.74212,-3.66387 15.72696,-4.6827 3.98484,-1.01882 9.2297,-2.29911 11.65525,-2.84507 2.42556,-0.54596 7.10341,-1.44765 10.39523,-2.00375 3.29183,-0.55609 7.54442,-1.28115 9.45021,-1.61124 1.9058,-0.33008 8.42644,-1.04499 14.49032,-1.58867 7.03951,-0.63117 17.74405,-0.98467 29.61066,-0.97785 10.22197,0.006 21.42047,0.30796 24.88555,0.67131 3.46507,0.36336 9.27695,1.06509 12.91528,1.5594 3.63833,0.4943 12.99404,1.2368 20.79046,1.64999 8.88022,0.47063 22.64747,0.61705 36.85582,0.39197 12.47427,-0.19761 30.47692,-0.55231 40.00588,-0.78823 14.81012,-0.36667 18.33152,-0.27059 24.25554,0.66184 3.81158,0.59993 9.62346,1.78464 12.91528,2.63267 3.29183,0.84803 8.02449,2.22177 10.51702,3.05274 2.49252,0.83097 7.02862,2.5773 10.08022,3.88073 3.0516,1.30342 8.2082,3.73392 11.45913,5.40109 3.25094,1.66717 8.92106,4.89049 12.60028,7.16293 3.67922,2.27244 10.37507,6.50329 14.87967,9.40189 4.5046,2.8986 9.0407,5.86369 10.08022,6.58907 1.03953,0.72538 4.15809,2.81504 6.93016,4.64367 2.77206,1.82863 6.92397,5.29239 9.22649,7.69724 2.30257,2.40485 5.44023,5.93173 6.97268,7.83753 1.53244,1.90579 5.57971,8.14293 8.99401,13.8603 3.4143,5.71738 6.86816,11.19663 7.67521,12.17611 0.80705,0.97948 1.46736,2.30941 1.46736,2.95538 0,0.64598 0.24785,1.32768 0.5507,1.51487 0.30291,0.18721 1.83069,2.96812 3.39502,6.17982 1.56439,3.2117 3.55907,7.39874 4.43265,9.30453 0.87358,1.90579 2.07615,5.02436 2.67246,6.93016 0.59631,1.90579 1.46352,4.17384 1.92715,5.04011 0.46356,0.86627 1.52803,3.27607 2.36538,5.35512 0.83742,2.07904 1.71881,4.77235 1.95865,5.98513 0.23985,1.21277 1.83328,6.45764 3.54087,11.65526 1.70772,5.19761 3.37108,10.30072 3.69648,11.34025 0.3254,1.03952 1.43511,5.71737 2.466,10.39523 1.03089,4.67785 2.30919,11.19849 2.84067,14.49032 0.53155,3.29182 1.26765,8.39493 1.63577,11.34025 0.36818,2.94531 0.80213,6.77265 0.96436,8.50519 0.16217,1.73253 0.29472,10.80477 0.29453,20.16047 -1.8e-4,9.35571 -0.14263,18.56966 -0.31645,20.47545 -0.17382,1.9058 -0.73579,6.15839 -1.24875,9.45021 -0.51296,3.29183 -1.47178,8.11143 -2.13065,10.71024 -0.65893,2.59881 -1.76863,6.5679 -2.466,8.8202 -0.69736,2.2523 -2.18444,6.64664 -3.30461,9.76521 -1.12023,3.11857 -2.44357,6.80415 -2.94078,8.19018 -0.4972,1.38603 -2.89252,7.19791 -5.32292,12.91529 -2.43041,5.71737 -7.38314,16.41337 -11.00603,23.76885 -3.62296,7.35554 -8.74132,17.27826 -11.37415,22.05049 -2.63289,4.77229 -7.49357,13.2129 -10.80158,18.75709 -3.30796,5.54412 -9.19588,14.82624 -13.08426,20.62697 -3.88832,5.80079 -7.67162,11.32916 -8.40722,12.28527 -0.73567,0.95617 -3.84264,4.99884 -6.90451,8.98368 -3.06181,3.98484 -8.50821,10.24182 -12.10307,13.90441 -3.59486,3.66258 -8.94595,8.6465 -11.89126,11.07527 -2.94532,2.42876 -7.68573,6.14099 -10.53428,8.2494 -2.84848,2.10834 -8.37685,5.81232 -12.28527,8.231 -3.90835,2.41869 -8.24014,5.03394 -9.62617,5.81176 -1.38603,0.77781 -5.53064,3.07585 -9.2103,5.10676 -3.67966,2.03092 -6.8601,3.69264 -7.06769,3.69264 -0.20752,0 -2.72525,1.15274 -5.59496,2.56164 -2.86972,1.40896 -9.94515,4.53251 -15.72326,6.9413 -5.77811,2.40886 -12.157,4.92652 -14.17531,5.5949 -2.01832,0.66832 -6.93003,2.31789 -10.91487,3.66561 -3.98484,1.34779 -9.65496,3.16973 -12.60028,4.04885 -2.94531,0.87906 -7.19791,2.09341 -9.45021,2.69848 -2.25229,0.60506 -5.37086,1.46799 -6.93015,1.91763 -1.55928,0.44958 -4.39435,1.15148 -6.30014,1.55967 -1.90579,0.40824 -4.88261,1.12492 -6.61514,1.59252 -1.73254,0.4676 -5.27637,1.2679 -7.87518,1.7784 -2.59881,0.5105 -6.99315,1.2607 -9.76521,1.6672 -2.77207,0.4065 -9.71797,0.8349 -15.43534,0.952 z m -7.12868,-9.88821 c 2.14312,0.0605 4.59248,-0.15404 5.44303,-0.47742 0.85056,-0.32339 6.44447,-0.89399 12.43092,-1.2681 7.43831,-0.46476 12.99563,-1.18474 17.55248,-2.27391 3.66741,-0.87653 11.62938,-2.8476 17.69326,-4.38004 6.06389,-1.53245 16.97888,-4.75541 24.25554,-7.16213 7.27666,-2.40671 14.64782,-4.92878 16.38036,-5.60466 1.73254,-0.67588 5.70163,-2.28267 8.82019,-3.57067 3.11857,-1.28806 11.90727,-5.41944 19.53044,-9.181 7.62317,-3.7615 17.54588,-9.062 22.05048,-11.77887 4.5046,-2.71687 11.30875,-7.17718 15.12034,-9.91176 3.81158,-2.73464 9.1982,-6.88359 11.97026,-9.21994 2.77206,-2.33634 7.0394,-6.18736 9.48297,-8.55779 2.44357,-2.37043 6.17615,-6.43616 8.29464,-9.03497 2.11855,-2.5988 6.78166,-8.74862 10.36253,-13.66626 3.58081,-4.91764 8.63693,-12.25005 11.23573,-16.29424 2.59881,-4.04418 5.29924,-8.38416 6.00095,-9.64425 0.70171,-1.26015 1.72227,-2.99994 2.26786,-3.86621 0.54565,-0.86627 2.56542,-4.26834 4.48828,-7.56016 1.92293,-3.29183 4.04551,-6.97741 4.71685,-8.19019 0.67135,-1.21277 2.1619,-3.89966 3.31224,-5.97089 1.15034,-2.07117 4.73052,-8.95672 7.95588,-15.30127 3.22535,-6.34456 5.94512,-12.02111 6.04397,-12.61458 0.0988,-0.59348 0.48518,-1.36253 0.8584,-1.70904 0.37328,-0.34651 3.11138,-6.44189 6.08467,-13.5453 2.97329,-7.10341 6.12468,-14.89983 7.00311,-17.32538 0.87849,-2.42556 2.42127,-6.96166 3.42854,-10.08023 1.0072,-3.11857 2.28751,-7.37116 2.8452,-9.45021 0.55769,-2.07904 1.30004,-5.62287 1.64969,-7.87517 0.34966,-2.2523 1.02781,-6.7884 1.507,-10.08022 0.62415,-4.28775 0.81561,-10.98814 0.67512,-23.62553 -0.10792,-9.70221 -0.31268,-18.63269 -0.45493,-19.84547 -0.14232,-1.21277 -0.45128,-3.90608 -0.68653,-5.98513 -0.23525,-2.07904 -0.69774,-5.62287 -1.0278,-7.87517 -0.33001,-2.2523 -0.74273,-5.22912 -0.91712,-6.61515 -0.17438,-1.38603 -0.41291,-2.94531 -0.53009,-3.46507 -0.11718,-0.51977 -0.39325,-1.65379 -0.61357,-2.52006 -0.22032,-0.86627 -1.12609,-4.66407 -2.01283,-8.43955 -0.88675,-3.77549 -2.13398,-8.45334 -2.77162,-10.39523 -0.63764,-1.9419 -1.9252,-6.08227 -2.86134,-9.20084 -0.93613,-3.11857 -2.20945,-6.80415 -2.82951,-8.19018 -0.62013,-1.38603 -1.76808,-4.5046 -2.55099,-6.93015 -0.78292,-2.42556 -2.06714,-5.96939 -2.85384,-7.87518 -0.78676,-1.90579 -2.14325,-5.59137 -3.01455,-8.19018 -0.87125,-2.59881 -2.49814,-6.56789 -3.61528,-8.82019 -1.11714,-2.2523 -3.69301,-6.55304 -5.72424,-9.55719 -2.03116,-3.00415 -3.69302,-5.64896 -3.69302,-5.87737 0,-0.2284 -2.43342,-4.43286 -5.40759,-9.34323 -2.97417,-4.91038 -6.7014,-10.58647 -8.28261,-12.61353 -1.58127,-2.02707 -4.03832,-4.51759 -5.46014,-5.53448 -1.42182,-1.0169 -3.0104,-2.19894 -3.53016,-2.62676 -0.51976,-0.42782 -2.07501,-1.48113 -3.45619,-2.34069 -1.38112,-0.85957 -3.08215,-1.9127 -3.78008,-2.3403 -0.69787,-0.42759 -1.76505,-0.95679 -2.37144,-1.176 -0.60639,-0.21921 -1.10252,-0.60435 -1.10252,-0.85588 0,-0.25153 -1.05855,-0.99811 -2.35229,-1.65906 -1.29373,-0.66095 -5.05019,-3.02187 -8.34768,-5.24649 -3.29749,-2.22461 -6.13716,-4.22413 -6.31041,-4.44335 -0.17325,-0.21923 -1.445,-1.0924 -2.82618,-1.94038 -1.38112,-0.84797 -3.08215,-1.88504 -3.78008,-2.30459 -0.69787,-0.41954 -1.69417,-0.96587 -2.21393,-1.21407 -0.51977,-0.24819 -1.08678,-0.65385 -1.26003,-0.90145 -0.17326,-0.2476 -4.70936,-2.58079 -10.08023,-5.18486 -5.37086,-2.60408 -11.608,-5.44972 -13.8603,-6.32367 -2.2523,-0.87394 -6.5049,-2.31008 -9.45021,-3.19141 -2.94532,-0.88134 -7.33966,-2.00637 -9.76522,-2.50006 -2.42555,-0.4937 -8.37918,-1.38801 -13.23029,-1.98736 -8.07104,-0.99719 -10.23823,-1.01606 -25.51556,-0.22227 -9.8359,0.51107 -29.37893,0.85427 -47.56605,0.83532 -29.70738,-0.0309 -31.34551,-0.0951 -43.47097,-1.70181 -6.93015,-0.91831 -18.44824,-1.97218 -25.59576,-2.34194 -7.14751,-0.36976 -17.49549,-0.49679 -22.99551,-0.2823 -8.58783,0.33492 -10.84523,0.6507 -15.98515,2.2361 -3.29183,1.01535 -7.15208,2.61698 -8.57835,3.55915 -1.42627,0.94217 -3.41082,2.25855 -4.4101,2.92529 -0.99929,0.66675 -3.37616,2.21485 -5.28196,3.44024 -1.90579,1.22539 -5.8242,4.50062 -8.70757,7.27828 -2.88338,2.77767 -5.88705,5.48216 -6.67483,6.00998 -0.78779,0.52782 -2.92144,2.23544 -4.74145,3.79473 -1.82001,1.55928 -6.49011,5.95363 -10.378,9.76521 -3.88788,3.81159 -7.97853,7.63892 -9.09033,8.50519 -1.11179,0.86627 -4.92002,4.4897 -8.46273,8.05207 -3.54271,3.56237 -7.43356,7.62495 -8.64634,9.02796 -1.21278,1.40301 -4.51581,4.86723 -7.34008,7.69828 -2.82426,2.83104 -7.10993,6.90385 -9.5237,9.05067 -2.41377,2.14682 -5.39002,5.4119 -6.61388,7.25574 -1.22388,1.84383 -2.55335,4.57102 -2.9544,6.06041 -0.54021,2.00618 -0.54765,3.25805 -0.0287,4.83047 0.38526,1.16736 1.80262,3.1182 3.14969,4.33519 1.34706,1.21699 3.54519,2.50783 4.88474,2.86853 1.33954,0.3607 3.69454,1.5099 5.23332,2.55376 1.53878,1.04387 3.72687,2.96118 4.86242,4.26069 1.13554,1.29951 3.57802,4.21046 5.42774,6.46878 1.84971,2.25832 4.11008,5.58009 5.02302,7.38172 1.3196,2.60411 1.65532,4.15184 1.63748,7.54922 -0.0123,2.35045 -0.3984,5.84507 -0.85791,7.76583 -0.45951,1.92076 -1.40286,4.75582 -2.09634,6.30014 -0.69348,1.54432 -2.29197,4.32474 -3.55219,6.17873 -1.26022,1.85399 -2.29132,4.06059 -2.29132,4.90355 0,0.84297 0.69119,2.89665 1.53596,4.56373 0.84477,1.66709 2.25549,3.50252 3.13492,4.07874 1.58428,1.03807 1.61021,1.02565 2.82356,-1.35271 0.67352,-1.32022 2.92038,-4.16056 4.99301,-6.31188 2.52097,-2.61666 4.98822,-4.45522 7.45325,-5.55406 3.40543,-1.51803 4.14829,-1.61516 9.7973,-1.28107 4.37885,0.25897 6.83553,0.73037 8.66189,1.66211 2.1049,1.07384 2.97753,2.15207 5.00466,6.18384 1.73261,3.44601 2.58139,6.08465 2.88389,8.9653 0.23577,2.24514 0.12257,7.5634 -0.25154,11.81834 -0.56293,6.40246 -1.00251,8.41193 -2.54967,11.65529 -1.02821,2.1554 -2.22211,4.40153 -2.65312,4.99128 -0.43101,0.58976 -0.56932,1.28662 -0.30735,1.54864 0.26197,0.26196 2.19535,-0.46879 4.29639,-1.6238 3.45891,-1.90157 4.14658,-2.06172 7.27334,-1.69423 1.8993,0.22321 4.35024,0.86778 5.44655,1.43234 1.0963,0.56461 2.85913,1.68453 3.91738,2.4888 1.05825,0.80428 3.14953,3.60406 4.64728,6.22177 2.61827,4.57617 2.70688,4.90359 2.30007,8.49926 -0.30557,2.70094 -1.37776,5.64839 -3.85976,10.61064 -1.89014,3.77895 -3.43663,7.61289 -3.43663,8.51986 0,1.34993 0.58179,1.94385 3.20761,3.27444 2.83013,1.43416 3.42261,2.09958 5.03441,5.65437 1.35394,2.98602 1.93648,5.45592 2.25057,9.54213 0.34864,4.53566 0.67516,5.76463 1.84149,6.93091 0.77974,0.77977 2.21121,1.61687 3.18105,1.8603 0.96983,0.24344 3.33317,0.0982 5.25187,-0.32263 1.91869,-0.42084 6.89061,-1.30255 11.0487,-1.95934 4.15809,-0.65679 8.62196,-1.27975 9.91969,-1.38433 l 2.35952,-0.19007 0.24138,-10.08023 c 0.17862,-7.4593 0.003,-10.9812 -0.6742,-13.5453 -0.50357,-1.90579 -1.01308,-3.89033 -1.13226,-4.41009 -0.11918,-0.51976 -0.66013,-1.98757 -1.20211,-3.26177 -0.56804,-1.33544 -1.59036,-2.50475 -2.41366,-2.76066 -0.78552,-0.24413 -2.95708,-1.45326 -4.82568,-2.68682 -1.86859,-1.23357 -4.59779,-3.46042 -6.06489,-4.94857 -1.46709,-1.48816 -3.3735,-4.19791 -4.23646,-6.02174 -0.86296,-1.82376 -1.76607,-4.21498 -2.00691,-5.31373 -0.24085,-1.0988 -1.11552,-2.72896 -1.94372,-3.62258 -0.9932,-1.07171 -2.16925,-1.6248 -3.4546,-1.6248 -1.22903,0 -2.51987,-0.57117 -3.49515,-1.54643 -0.85052,-0.85052 -1.5464,-2.28091 -1.5464,-3.17868 0,-0.89777 0.69588,-2.32821 1.5464,-3.17873 0.85052,-0.85052 2.20497,-1.5464 3.00989,-1.5464 0.80491,0 2.02598,0.39399 2.71349,0.87556 0.81303,0.56947 3.2006,0.90294 6.83,0.95397 3.06899,0.0428 5.8299,0.23291 6.13534,0.42167 0.30543,0.18875 0.55534,0.10313 0.55534,-0.19033 0,-0.29346 -1.84279,-2.4222 -4.09509,-4.73056 -2.91049,-2.98294 -4.09509,-4.6701 -4.09509,-5.83241 0,-0.89947 0.69588,-2.33128 1.5464,-3.18179 0.97478,-0.97479 2.26621,-1.5464 3.49371,-1.5464 1.2275,0 2.51893,0.57161 3.49371,1.5464 0.85052,0.85051 1.55372,1.91366 1.56266,2.36255 0.009,0.44888 1.10894,1.31938 2.44446,1.93444 1.33551,0.61507 4.34707,2.81224 6.69235,4.88261 2.34528,2.07037 4.44966,3.76435 4.67639,3.76435 0.22674,0 0.20861,-1.6302 -0.0403,-3.62261 -0.2489,-1.99242 -0.47647,-4.27336 -0.50571,-5.06875 -0.0292,-0.79539 0.64272,-2.14205 1.49324,-2.99257 0.85052,-0.85051 2.28093,-1.5464 3.1787,-1.5464 0.89777,0 2.32819,0.69589 3.17871,1.5464 0.85052,0.85052 1.5464,2.15637 1.5464,2.9019 0,0.74552 0.68679,1.89572 1.5262,2.556 1.09815,0.86381 1.81423,2.46686 2.55315,5.71572 0.77693,3.41587 0.93853,6.25175 0.66374,11.64788 -0.19977,3.92304 -0.14378,7.131 0.12441,7.1288 0.26819,0 0.96473,-0.84252 1.54786,-1.86743 0.59408,-1.04412 1.8214,-2.05447 2.7914,-2.29791 1.08456,-0.27223 2.33266,-0.0969 3.34154,0.46936 0.88571,0.49715 1.87746,1.66336 2.2039,2.59156 0.40296,1.14581 0.35653,2.15094 -0.14462,3.13061 -0.40597,0.79356 -0.99481,1.86818 -1.30854,2.38794 -0.31372,0.51976 -1.09543,2.21173 -1.73711,3.76005 -0.64169,1.54826 -1.15439,4.1877 -1.13934,5.86543 0.026,2.89712 0.22494,3.24375 3.95854,6.89733 2.76972,2.71032 4.54422,5.16548 6.0061,8.30982 1.14121,2.45466 2.53483,6.16405 3.09695,8.2431 0.56211,2.07905 1.38191,5.12674 1.82175,6.77265 0.43985,1.64591 1.09221,2.99061 1.4497,2.98822 0.35748,0 1.31567,-0.98188 2.12928,-2.1767 0.81363,-1.19482 2.19407,-3.94193 3.06766,-6.10471 1.34559,-3.33132 1.59026,-4.95134 1.60099,-10.60017 0.01,-5.18672 -0.23749,-7.1535 -1.11348,-8.85384 -0.61938,-1.20226 -1.79152,-3.06143 -2.60476,-4.13144 -0.81324,-1.07002 -1.76031,-3.43087 -2.1046,-5.24638 -0.34429,-1.81545 -0.73776,-3.49147 -0.87436,-3.72458 -0.1366,-0.23304 -0.43409,-3.48139 -0.66108,-7.21851 -0.22699,-3.73712 -0.69293,-7.56445 -1.03543,-8.50519 -0.34249,-0.94073 -1.10493,-2.63182 -1.6943,-3.75797 -0.58937,-1.12615 -1.30351,-2.04754 -1.58697,-2.04754 -0.28346,0 -1.21126,-0.69592 -2.06178,-1.54644 -0.85049,-0.85051 -1.54637,-2.28093 -1.54637,-3.1787 0,-0.89777 0.69588,-2.32818 1.5464,-3.1787 0.85052,-0.85052 2.28093,-1.5464 3.1787,-1.5464 0.94429,0 2.35051,0.72727 3.33621,1.72542 0.93714,0.94897 3.37548,2.96342 5.41853,4.47653 l 3.71462,2.75114 -0.41967,-2.09832 c -0.23082,-1.15411 -1.12276,-3.11292 -1.98209,-4.35293 -0.85932,-1.24001 -1.56241,-2.8901 -1.56241,-3.66687 0,-0.77676 0.69588,-2.10818 1.5464,-2.9587 0.85052,-0.85052 2.28093,-1.5464 3.1787,-1.5464 0.95216,0 2.2534,0.67956 3.12287,1.63088 0.81981,0.89698 1.72831,1.89384 2.0189,2.21524 0.2906,0.3214 2.09816,2.07994 4.01682,3.90787 1.91865,1.82793 3.97407,4.34685 4.5676,5.59768 0.59353,1.25076 1.07914,2.71063 1.07914,3.24425 0,0.53356 0.24697,1.12275 0.54881,1.3093 0.30184,0.18654 0.70426,-0.8199 0.89427,-2.23649 0.19001,-1.41665 0.19284,-3.51623 0.006,-4.66583 -0.27163,-1.67385 -0.0163,-2.41304 1.28213,-3.71145 0.90738,-0.90739 2.34008,-1.62132 3.25362,-1.62132 0.91313,0 2.34596,0.71364 3.25208,1.61976 1.38192,1.38193 1.5616,1.9835 1.22366,4.09684 -0.26034,1.62813 -0.0597,3.28236 0.58566,4.82671 0.62333,1.49187 0.93597,3.91743 0.85636,6.64388 -0.069,2.36179 -0.52326,5.62709 -1.00955,7.25631 -0.48629,1.62915 -1.85986,5.93895 -3.05237,9.57728 -1.77177,5.40558 -2.25484,8.05498 -2.64204,14.49032 -0.2606,4.33135 -0.33207,11.89227 -0.15882,16.80209 0.17326,4.90983 0.46992,9.08109 0.65925,9.26946 0.18933,0.18838 2.74089,0.80466 5.67012,1.36953 2.92924,0.56487 6.51591,1.45873 7.97038,1.9863 1.76602,0.64054 4.11662,0.87598 7.0761,0.70877 2.43738,-0.13772 4.70882,-0.52764 5.04764,-0.86646 0.40138,-0.40138 0.18511,-2.37017 -0.62064,-5.65015 -0.68017,-2.76879 -1.66001,-6.59341 -2.17743,-8.49921 -0.51742,-1.90579 -1.66918,-6.58364 -2.55947,-10.39523 -0.89028,-3.81158 -2.06093,-9.1982 -2.60146,-11.97026 -0.54052,-2.77206 -1.10161,-5.74888 -1.24688,-6.61515 -0.14526,-0.86627 -0.247,-7.1034 -0.22608,-13.8603 0.0209,-6.7569 0.31574,-15.26212 0.65516,-18.90045 0.33943,-3.63833 0.90109,-11.15125 1.24814,-16.69537 0.34705,-5.54412 0.88262,-11.62821 1.19016,-13.5202 0.30754,-1.892 0.60766,-8.97965 0.66695,-15.75035 0.084,-9.58778 0.37656,-13.49472 1.32306,-17.66549 0.66839,-2.94531 1.61167,-6.63089 2.09616,-8.19018 0.48449,-1.55928 1.77241,-4.58608 2.86203,-6.72621 1.08961,-2.14013 3.19246,-5.54221 4.67299,-7.56017 1.48053,-2.01796 2.90519,-4.02013 3.16593,-4.44927 0.26073,-0.42914 -0.0717,-2.01408 -0.73878,-3.52209 -0.66706,-1.508 -1.74493,-3.41911 -2.39525,-4.24689 -0.65032,-0.82778 -2.59993,-2.86947 -4.33247,-4.53709 -1.73254,-1.66763 -4.14234,-3.95533 -5.35512,-5.08378 -1.21278,-1.12845 -3.3981,-2.99724 -4.85627,-4.15286 -2.63452,-2.08789 -2.66491,-2.09464 -4.82032,-1.07183 -1.193,0.56611 -2.98119,1.0293 -3.97375,1.0293 -0.99256,0 -2.7706,-0.51804 -3.9512,-1.15121 -1.1806,-0.63315 -2.66458,-2.11714 -3.29774,-3.29773 -0.63317,-1.18061 -1.15121,-3.00591 -1.15121,-4.05625 0,-1.05033 0.51804,-2.87564 1.15121,-4.05624 0.63316,-1.1806 2.11714,-2.66458 3.29774,-3.29774 1.1806,-0.63317 3.00591,-1.15121 4.05624,-1.15121 1.05033,0 2.87564,0.51804 4.05624,1.15121 1.1806,0.63316 2.66459,2.11714 3.29774,3.29774 0.63317,1.1806 1.15121,2.89697 1.15121,3.81415 0,1.49917 0.55679,1.90255 5.51262,3.99381 3.03194,1.2794 6.36314,2.70357 7.40266,3.16479 1.03953,0.46124 2.88232,1.28156 4.09509,1.82294 1.21278,0.54139 3.36109,1.64072 4.77402,2.44297 1.41293,0.80225 4.03602,2.51261 5.82909,3.8008 1.79306,1.28819 3.69039,2.34216 4.21627,2.34216 0.52588,0 3.43116,-1.23729 6.45619,-2.74954 3.02502,-1.51225 8.33509,-3.75634 11.80017,-4.98687 3.46507,-1.23053 8.70994,-2.68355 11.65525,-3.22893 2.94532,-0.54539 10.94612,-1.42261 17.77963,-1.94939 6.83344,-0.52677 12.78707,-0.88415 13.23029,-0.79417 0.61508,0.12488 0.78978,-1.32746 0.73819,-6.13653 -0.0372,-3.46508 -0.40183,-7.85943 -0.8102,-9.76522 -0.40844,-1.90579 -1.0268,-4.52823 -1.37419,-5.82763 -0.53419,-1.99809 -0.8967,-2.36255 -2.3497,-2.36255 -0.94496,0 -2.68405,-0.51804 -3.86463,-1.15121 -1.18065,-0.63315 -2.66458,-2.11714 -3.29774,-3.29774 -0.63317,-1.1806 -1.15123,-3.00591 -1.15123,-4.05624 0,-1.05033 0.51806,-2.87564 1.15123,-4.05624 0.63316,-1.1806 2.11709,-2.66458 3.29774,-3.29774 1.18058,-0.63317 3.00586,-1.15121 4.05622,-1.15121 1.05036,0 2.87563,0.51804 4.05622,1.15121 1.18064,0.63316 2.66458,2.11714 3.29774,3.29774 0.63317,1.1806 1.15123,2.95864 1.15123,3.9512 0,0.99256 -0.45954,2.77304 -1.02119,3.95661 -1.01785,2.14496 -1.01237,2.1668 1.68245,6.71036 1.48696,2.50712 3.62825,6.30989 4.75837,8.4506 1.13018,2.1407 2.83601,6.19912 3.79073,9.01869 1.08331,3.19918 2.20051,5.37514 2.97165,5.78786 0.67966,0.36374 4.38301,1.45864 8.22968,2.43311 3.84668,0.97447 8.93631,2.49652 11.31033,3.38234 2.37402,0.88581 7.3842,3.14505 11.13386,5.02052 3.74959,1.87547 9.0366,5.10624 11.74894,7.17948 2.71233,2.07325 6.72936,5.41601 8.92679,7.42838 2.19742,2.01236 5.76841,5.94481 7.93559,8.73878 2.16725,2.79396 4.97195,6.70877 6.23279,8.69958 1.26079,1.99082 3.56746,6.12524 5.1258,9.1876 1.5584,3.06237 3.57186,7.52891 4.47442,9.92565 0.90256,2.39673 2.16951,5.91698 2.81547,7.82277 0.64589,1.90579 1.77443,5.87488 2.50777,8.8202 0.73333,2.94531 1.46024,5.92213 1.61529,6.61514 0.15505,0.69302 0.70782,3.86486 1.22834,7.04854 0.52052,3.18369 1.20389,9.56258 1.51858,14.17532 0.31463,4.61274 0.48316,12.78114 0.37448,18.15204 -0.10874,5.37087 -0.37548,11.46626 -0.59278,13.5453 -0.21735,2.07905 -0.82859,6.33164 -1.35837,9.45021 -0.52971,3.11857 -1.68648,8.36344 -2.57058,11.65526 -0.88404,3.29182 -2.0054,6.9161 -2.4919,8.05404 -0.48649,1.13786 -0.88454,2.3708 -0.88454,2.73986 0,0.369 -0.44623,1.70602 -0.9917,2.97115 -0.54547,1.26513 -1.37173,3.15082 -1.83618,4.19035 -0.46444,1.03952 -1.68465,3.60242 -2.71158,5.69532 -1.02692,2.09291 -2.96478,5.49498 -4.30646,7.56017 -1.34161,2.06519 -2.5811,4.08772 -2.75435,4.49452 -0.17326,0.40686 -2.10916,3.01436 -4.30193,5.79443 -2.19282,2.78012 -6.02785,6.99334 -8.5222,9.36276 -2.49441,2.36942 -6.79564,6.02186 -9.55838,8.1166 -2.76267,2.09467 -7.00764,4.95436 -9.4332,6.35482 -2.42555,1.40046 -7.1034,3.61244 -10.39523,4.91556 -3.29182,1.30318 -6.83565,2.96566 -7.87517,3.69453 -1.03952,0.72886 -2.59371,2.15697 -3.4538,3.17356 -0.86003,1.01666 -2.3669,3.11498 -3.34865,4.66299 -0.98169,1.54794 -3.78027,6.95724 -6.21906,12.02054 -2.43884,5.06336 -5.62942,11.61582 -7.0903,14.5612 -1.46081,2.94525 -3.59656,7.05609 -4.74615,9.1352 -1.14952,2.07898 -3.6583,6.18982 -5.57493,9.1352 -1.91669,2.94525 -4.76309,7.05609 -6.32534,9.1352 -1.56224,2.07898 -4.84575,5.7972 -7.29663,8.26263 -2.45094,2.46544 -6.58251,6.03642 -9.18132,7.93553 -2.59881,1.89918 -6.99315,4.73544 -9.76521,6.30279 -2.77207,1.56741 -7.16641,3.83452 -9.76522,5.03809 -2.59881,1.20358 -7.27666,3.06893 -10.39523,4.14524 -3.11857,1.07632 -8.16383,2.70138 -11.2117,3.61118 -3.04787,0.9098 -10.98605,3.02848 -17.64039,4.70816 -6.65435,1.67961 -14.79212,3.75664 -18.08395,4.61554 -3.29182,0.85896 -9.52896,2.26352 -13.8603,3.12122 -4.33135,0.8577 -10.42673,2.00477 -13.5453,2.54903 -3.11857,0.54427 -7.51292,1.27729 -9.76522,1.62897 -2.2523,0.35161 -7.63892,1.0891 -11.97026,1.63885 -4.33135,0.54969 -10.71024,1.39126 -14.17532,1.87014 -3.46507,0.47887 -10.83624,1.21359 -16.38036,1.63274 -5.54412,0.41909 -12.91528,0.76729 -16.38036,0.77372 -3.46508,0.006 -9.41871,-0.46445 -13.23029,-1.04645 -3.81159,-0.58201 -11.18275,-1.89414 -16.38037,-2.91583 -7.04577,-1.38503 -12.73626,-2.02493 -22.36549,-2.51508 -7.10341,-0.36157 -14.04931,-0.93034 -15.43534,-1.26387 -1.38603,-0.33359 -4.78811,-0.61893 -7.56017,-0.63417 -2.77206,-0.0151 -6.74115,-0.28666 -8.82019,-0.60312 -2.07905,-0.31652 -6.18989,-1.01993 -9.1352,-1.56319 -2.94532,-0.5432 -9.60772,-1.42446 -14.80533,-1.95821 -5.19762,-0.53381 -12.09805,-1.67457 -15.33431,-2.53505 -3.23625,-0.86053 -7.61597,-2.2935 -9.7327,-3.1844 -2.11674,-0.8909 -5.28078,-2.5578 -7.0312,-3.70411 -1.75041,-1.14637 -4.18743,-3.03276 -5.41557,-4.19205 -1.22816,-1.15922 -3.07095,-3.24173 -4.09509,-4.62776 -1.02416,-1.38603 -2.23238,-3.17956 -2.68494,-3.9856 -0.45257,-0.80604 -1.43002,-3.35759 -2.17212,-5.67012 -1.19251,-3.71608 -1.35309,-5.70503 -1.3822,-17.11987 -0.0181,-7.10341 0.16086,-14.19107 0.3977,-15.75035 0.23686,-1.55929 0.86673,-5.24487 1.39972,-8.19018 0.533,-2.94532 1.27665,-6.48915 1.65255,-7.87518 0.37591,-1.38603 1.84283,-5.92213 3.25981,-10.08022 2.47696,-7.26847 2.57814,-7.87606 2.62281,-15.75035 0.044,-7.74734 -0.0496,-8.38807 -1.73056,-11.85043 -0.97736,-2.01315 -2.9533,-4.80594 -4.39098,-6.20621 -1.43768,-1.4002 -4.74026,-4.16924 -7.33907,-6.15341 -2.59881,-1.9841 -7.48971,-5.51426 -10.86867,-7.84468 -3.37896,-2.33048 -7.02337,-4.54391 -8.0987,-4.91877 -1.49739,-0.52203 -3.3806,-0.43118 -8.04358,0.3879 -4.38905,0.77095 -6.55142,0.89342 -7.74723,0.43874 -0.91235,-0.34682 -2.36944,-1.56968 -3.238,-2.71731 -0.86855,-1.1477 -1.65144,-2.79544 -1.73976,-3.66171 -0.0883,-0.86626 0.0617,-3.27607 0.33334,-5.35511 0.27164,-2.07905 0.91114,-4.77236 1.42111,-5.98514 0.50997,-1.21277 0.90345,-3.64507 0.87441,-5.40507 -0.0291,-1.76001 -0.77403,-5.16209 -1.65552,-7.56017 -0.88149,-2.39809 -2.04248,-6.34468 -2.57999,-8.77024 -0.58448,-2.63768 -0.97378,-7.41387 -0.96861,-11.88376 0.005,-4.11053 0.35159,-8.93013 0.77073,-10.71024 0.41915,-1.7801 1.43151,-4.57276 2.24969,-6.20589 0.81818,-1.63312 2.34197,-3.94243 3.38622,-5.13171 1.04423,-1.18934 3.24193,-2.80205 4.88378,-3.58377 1.64184,-0.78179 4.6862,-1.79372 6.76524,-2.24884 2.07905,-0.45512 4.64844,-0.83741 5.70976,-0.84957 1.32592,-0.0151 2.50864,-0.63638 3.78009,-1.98523 1.01772,-1.0797 3.27362,-3.02503 5.01312,-4.32296 1.7395,-1.29794 4.8491,-3.31161 6.91023,-4.47484 3.37982,-1.90745 4.24606,-2.1169 8.82874,-2.13468 4.48334,-0.0174 5.31649,0.1656 7.08063,1.55531 1.09967,0.86627 2.64942,2.85082 3.44388,4.4101 1.03745,2.03619 1.42183,3.81147 1.36408,6.30017 -0.0442,1.90579 -0.70146,5.30787 -1.46052,7.56017 -0.75906,2.2523 -3.3453,7.67741 -5.74722,12.05588 -2.40191,4.37841 -4.36711,8.50336 -4.36711,9.16658 0,0.66321 0.73015,2.32569 1.62256,3.69446 0.8924,1.36877 3.33749,3.71828 5.43354,5.22118 2.09605,1.5029 6.65124,4.15217 10.12265,5.88729 3.47142,1.73512 7.47609,3.57558 8.89928,4.08986 1.42318,0.51428 5.36902,1.77104 8.76852,2.79273 3.39951,1.02163 7.4261,2.02827 8.948,2.23686 2.25235,0.30871 3.37125,0.0633 6.01513,-1.31912 1.78644,-0.93412 5.57956,-2.63831 8.42916,-3.78708 2.8496,-1.14883 7.1983,-2.54752 9.66379,-3.1083 2.46548,-0.56077 6.41128,-1.01539 8.76843,-1.01029 2.35715,0.006 5.8913,0.51063 7.85366,1.12338 1.96237,0.61275 4.38701,1.8135 5.38811,2.6683 1.00109,0.8548 2.40211,2.56384 3.11338,3.79791 0.71126,1.23407 1.6478,3.72187 2.0812,5.5285 0.47037,1.96073 0.64154,4.99248 0.42464,7.52142 -0.19984,2.33023 -0.52669,5.36054 -0.72633,6.73397 -0.19965,1.37349 -0.48142,2.61569 -0.62616,2.7604 -0.14474,0.14478 0.0204,0.79294 0.36686,1.44034 0.52651,0.98383 1.37676,1.17599 5.17545,1.16975 2.49999,-0.006 6.10472,-0.41745 8.01051,-0.91856 2.43077,-0.63909 3.96509,-1.50252 5.1402,-2.89252 1.30893,-1.54826 1.77075,-2.93372 2.11261,-6.33788 0.34695,-3.45474 0.23147,-4.67086 -0.55789,-5.87557 -0.54746,-0.83553 -1.95842,-2.46065 -3.13546,-3.6113 -1.17704,-1.15072 -2.89326,-3.54018 -3.81383,-5.30989 -0.92056,-1.76977 -1.83864,-4.60994 -2.04017,-6.31154 -0.26301,-2.22067 0.0118,-4.3183 0.97377,-7.43278 0.73709,-2.38643 2.20223,-5.84571 3.25586,-7.68724 l 1.91568,-3.34827 -3.51838,1.55601 c -1.93511,0.85581 -4.40445,1.55601 -5.48742,1.55601 -1.08298,0 -3.74208,-0.99158 -5.90914,-2.20348 -3.6381,-2.0345 -4.16295,-2.61556 -6.84781,-7.58121 -1.59926,-2.95779 -3.35331,-6.69024 -3.89791,-8.29432 -0.71025,-2.09196 -0.86621,-3.91163 -0.55165,-6.4366 0.24119,-1.93603 0.7256,-4.08703 1.07646,-4.78004 0.35085,-0.69302 1.56942,-2.67759 2.70792,-4.41013 1.87156,-2.8481 2.10764,-3.74119 2.4628,-9.31667 l 0.39281,-6.16659 -1.62851,1.06704 c -0.89569,0.58688 -2.31967,2.43097 -3.16442,4.098 -0.84474,1.66701 -2.57801,4.07306 -3.85171,5.34676 -1.2737,1.2737 -4.16844,3.15583 -6.43276,4.18252 -3.65159,1.65572 -4.54179,1.81865 -7.87551,1.44148 -2.06721,-0.23387 -4.82742,-0.97052 -6.13379,-1.63698 -1.30638,-0.66646 -2.60306,-1.57209 -2.88152,-2.01252 -0.27846,-0.44042 -2.02235,-1.93083 -3.87529,-3.31201 -2.75911,-2.05661 -3.87041,-3.50549 -6.1387,-8.00342 -1.52334,-3.02071 -3.19261,-6.70629 -3.70949,-8.19018 -0.51689,-1.48389 -0.94392,-4.44745 -0.94896,-6.58569 -0.007,-3.00934 0.46849,-5.02027 2.10499,-8.90058 1.1628,-2.75708 2.90277,-6.04679 3.86663,-7.31047 1.56016,-2.04547 1.71431,-2.66736 1.40474,-5.66686 -0.19126,-1.85309 -0.91301,-4.46857 -1.60388,-5.8122 -0.69089,-1.34362 -2.06176,-3.17095 -3.04639,-4.06073 -0.98463,-0.88978 -2.54533,-2.08513 -3.46822,-2.65633 -0.92289,-0.5712 -4.43428,-2.16882 -7.80308,-3.55026 -3.36881,-1.38143 -6.72456,-3.06739 -7.45723,-3.74658 -0.73266,-0.67918 -2.643,-1.9268 -4.2452,-2.77249 -2.2036,-1.16311 -4.36847,-1.64443 -8.8887,-1.97624 -3.92572,-0.28816 -7.03273,-0.18237 -9.05718,0.3084 -1.69486,0.41088 -5.09585,1.70082 -7.55777,2.86655 -2.46191,1.16572 -4.72996,2.12309 -5.04011,2.12748 -0.31015,0.004 -2.12319,0.8026 -4.02898,1.7738 -1.90579,0.9712 -4.5991,2.52387 -5.98513,3.45038 -1.38603,0.92651 -3.08707,2.07425 -3.78009,2.55053 -0.69301,0.47628 -3.7498,2.47964 -6.79287,4.45189 -3.04306,1.97226 -6.70918,4.00096 -8.14692,4.50823 -1.43773,0.50726 -3.59944,1.67387 -4.80377,2.59246 -1.20434,0.9186 -4.34238,2.78796 -6.97342,4.15414 -2.63104,1.36619 -5.49248,2.94142 -6.35875,3.50052 -0.86627,0.55911 -2.85081,1.65214 -4.41009,2.42895 -1.55929,0.77682 -3.13708,1.42126 -3.50621,1.4321 -0.36913,0.0108 -3.16949,1.32699 -6.22302,2.92479 -3.05353,1.59779 -6.7206,3.73437 -8.14905,4.74795 -1.42845,1.01357 -3.60144,2.50773 -4.82888,3.32035 -1.22743,0.81262 -3.07022,2.47816 -4.09509,3.70121 -1.02487,1.22304 -2.57215,3.27094 -3.43842,4.55088 -0.86627,1.27994 -2.45216,3.36057 -3.5242,4.62363 -1.07204,1.26305 -2.28048,3.27033 -2.68543,4.46061 -0.40495,1.19027 -1.10994,2.6078 -1.56665,3.15007 -0.45671,0.54226 -1.26033,2.2617 -1.78581,3.82099 -0.52548,1.55928 -1.27749,3.83417 -1.67112,5.0553 -0.39363,1.22113 -1.02509,3.77267 -1.40324,5.67015 -0.37815,1.89741 -0.81622,4.30041 -0.97348,5.33994 -0.15726,1.03952 -0.42136,2.51306 -0.58688,3.27449 -0.16551,0.7615 -0.5119,3.45481 -0.76973,5.98513 -0.25784,2.53039 -0.45971,8.71152 -0.44859,13.73588 0.0111,5.02436 0.36604,11.89309 0.78873,15.26385 0.42269,3.37083 0.93493,7.19817 1.13832,8.50519 0.20338,1.30709 1.02241,5.06985 1.82007,8.36167 0.79765,3.29183 1.73375,6.6939 2.0802,7.56017 0.34645,0.86627 1.12498,2.85081 1.73006,4.4101 0.60507,1.55928 1.66384,4.11084 2.35282,5.67012 0.68898,1.55929 1.92594,4.30527 2.74879,6.10226 0.82286,1.79692 1.49611,3.41064 1.49611,3.58591 0,0.17533 1.10732,2.67416 2.4607,5.553 1.35339,2.87885 4.36223,9.34513 6.68631,14.36949 2.32407,5.02436 5.60635,12.02325 7.29393,15.55315 1.68759,3.52984 3.47078,7.49893 3.96266,8.8202 0.49187,1.3212 1.88824,4.99355 3.10305,8.16069 1.21481,3.16715 2.88136,7.13623 3.70345,8.8202 0.82209,1.6839 2.45176,4.76278 3.62151,6.84182 1.16974,2.07905 3.42897,5.72204 5.02052,8.09556 1.59155,2.37351 3.56047,5.49208 4.37538,6.93015 0.8149,1.43807 2.7552,5.00099 4.31176,7.91764 1.55655,2.91671 4.00677,6.8858 5.44492,8.82019 1.43814,1.93446 2.75979,3.659 2.93698,3.83225 0.1772,0.17325 1.16365,1.44903 2.19212,2.83506 1.02847,1.38603 2.71684,3.51233 3.75193,4.72511 1.0351,1.21277 5.72038,6.03263 10.41175,10.7108 4.69136,4.67817 9.52202,9.36774 10.7348,10.42131 1.21277,1.05351 4.04784,3.35168 6.30014,5.10702 2.2523,1.75528 6.36314,4.74136 9.1352,6.63575 2.77206,1.89439 9.15161,5.71706 14.17677,8.49486 5.02516,2.77779 10.27003,5.42253 11.65526,5.87714 1.38523,0.45468 5.77892,2.22458 9.76376,3.93318 3.98483,1.70854 11.07249,4.52375 15.75034,6.25598 4.67786,1.73222 11.34025,4.09175 14.80533,5.24341 3.46508,1.15167 9.27696,2.99969 12.91529,4.10681 3.63833,1.10713 7.89092,2.40149 9.45021,2.87646 1.55928,0.4749 4.5361,1.30205 6.61514,1.838 2.07905,0.53595 6.89865,1.657 10.71024,2.4912 3.81158,0.83414 9.1982,1.94693 11.97026,2.47287 2.77206,0.52593 7.30816,1.24698 10.08023,1.60237 2.77206,0.3554 6.17413,0.80308 7.56016,0.9948 1.38603,0.19177 13.2933,0.63795 26.46059,0.99151 13.16729,0.35357 26.63384,0.86432 29.92566,1.13504 3.29182,0.27071 7.73859,0.54193 9.8817,0.60273 z M 432.328,750.54698 c 2.07905,-0.15303 5.19762,-0.71759 6.93015,-1.25455 1.73254,-0.53702 3.78796,-1.67489 4.5676,-2.52875 0.86142,-0.94332 1.41754,-2.35638 1.41754,-3.60185 0,-1.12722 -0.36522,-2.54898 -0.81165,-3.15946 -0.55089,-0.75343 -2.22048,-1.2914 -5.19762,-1.67483 -2.41226,-0.31066 -7.22103,-0.56178 -10.6861,-0.55806 -3.46508,0.006 -7.53956,0.24627 -9.05441,0.53885 -1.51485,0.29257 -2.99891,0.91812 -3.29792,1.39006 -0.29902,0.47201 -0.54801,1.75774 -0.55331,2.8573 -0.006,1.23036 0.60325,2.72765 1.58398,3.89317 0.91478,1.08715 2.86048,2.30233 4.56761,2.85271 1.63568,0.52732 3.82448,1.08589 4.86401,1.24119 1.03952,0.15536 3.59107,0.15725 5.67012,0.006 z m 28.41035,-40.57082 c 4.50643,0.0176 7.36997,-0.30858 9.82601,-1.11884 1.90643,-0.62895 4.71459,-1.8833 6.24042,-2.78756 1.52583,-0.9042 3.94867,-2.72859 5.38403,-4.05408 1.43537,-1.32555 4.18645,-4.61869 6.11341,-7.31817 1.92702,-2.69945 4.9405,-7.56556 6.69667,-10.81357 1.75616,-3.24802 4.73361,-9.54457 6.61653,-13.99234 l 3.42356,-8.08684 -3.80762,-0.18901 c -2.12295,-0.10538 -6.57041,0.37447 -10.05199,1.08456 -3.43446,0.70046 -8.39576,2.01609 -11.02512,2.92362 -2.62937,0.90754 -6.52777,2.60091 -8.66307,3.76305 -2.13531,1.16214 -4.92343,2.69022 -6.19575,3.39573 -1.27237,0.70551 -4.03536,2.877 -6.13999,4.82553 -2.10468,1.94852 -4.72378,4.92727 -5.82026,6.61945 -1.09647,1.69216 -2.475,4.4436 -3.06337,6.1143 -0.6447,1.83077 -1.11935,5.29546 -1.19464,8.7205 -0.0778,3.54024 0.17968,6.3513 0.68287,7.45577 0.44429,0.97514 1.66519,2.14653 2.71316,2.6031 1.14562,0.49916 4.44103,0.83999 8.26515,0.8548 z m -39.61526,-1.93282 c 0.84438,0.041 1.69179,-0.48643 2.14607,-1.33525 0.41289,-0.77152 1.0012,-2.40168 1.30737,-3.62258 0.30616,-1.22097 0.74369,-3.07038 0.97229,-4.1099 0.2286,-1.03952 0.41192,-4.15812 0.40736,-6.93018 -0.006,-3.36677 -0.46065,-6.50429 -1.37084,-9.45021 -0.74942,-2.42556 -2.43247,-6.25289 -3.74011,-8.50519 -1.30765,-2.2523 -4.0841,-5.8279 -6.16989,-7.94578 -2.0858,-2.11789 -4.98044,-4.45681 -6.43254,-5.19761 -1.45211,-0.74081 -3.11893,-1.34693 -3.70406,-1.34693 -0.97455,0 -1.02957,0.96536 -0.65528,11.49775 0.22472,6.32377 0.52864,12.20652 0.67535,13.07279 0.14672,0.86627 0.46091,3.27608 0.6982,5.35512 0.23729,2.07905 0.82692,5.19762 1.3103,6.93015 0.48337,1.73257 1.4209,4.03861 2.08339,5.12463 0.66249,1.08602 2.15006,2.68959 3.30571,3.56342 1.15566,0.8739 3.37696,1.86863 4.93625,2.2106 1.55928,0.34191 3.46298,0.65206 4.23043,0.68917 z"
       id="path3418"
       inkscape:connector-curvature="0" />
  </g>
</svg>
