0
SECTION
2
ENTITIES
0
POLYLINE
5
3fd
8
0
66
1
10
0
20
0
30
0
0
VERTEX
5
40d
8
0
10
25.741105
20
124.168236
30
0.000000
0
VERTEX
5
41d
8
0
10
13.180068
20
135.278342
30
0.000000
0
VERTEX
5
42d
8
0
10
3.526013
20
124.168236
30
0.000000
0
VERTEX
5
43d
8
0
10
8.806775
20
87.197778
30
0.000000
0
VERTEX
5
44d
8
0
10
21.372939
20
76.092798
30
0.000000
0
VERTEX
5
45d
8
0
10
31.026989
20
87.197778
30
0.000000
0
VERTEX
5
46d
8
0
10
25.741105
20
124.168236
30
0.000000
0
SEQEND
5
47d
8
0
0
POLYLINE
5
48d
8
0
66
1
10
0
20
0
30
0
0
VERTEX
5
49d
8
0
10
34.482558
20
62.434592
30
0.000000
0
VERTEX
5
4ad
8
0
10
21.736953
20
73.539572
30
0.000000
0
VERTEX
5
4bd
8
0
10
12.267472
20
62.434592
30
0.000000
0
VERTEX
5
4cd
8
0
10
17.368788
20
25.464135
30
0.000000
0
VERTEX
5
4dd
8
0
10
30.114392
20
14.354028
30
0.000000
0
VERTEX
5
4ed
8
0
10
39.583874
20
25.464135
30
0.000000
0
VERTEX
5
4fd
8
0
10
34.482558
20
62.434592
30
0.000000
0
SEQEND
5
50d
8
0
0
POLYLINE
5
51d
8
0
66
1
10
0
20
0
30
0
0
VERTEX
5
52d
8
0
10
78.945932
20
61.880883
30
0.000000
0
VERTEX
5
53d
8
0
10
65.954235
20
73.539572
30
0.000000
0
VERTEX
5
54d
8
0
10
56.305307
20
62.690939
30
0.000000
0
VERTEX
5
55d
8
0
10
61.191293
20
25.464135
30
0.000000
0
VERTEX
5
56d
8
0
10
74.095835
20
14.354028
30
0.000000
0
VERTEX
5
57d
8
0
10
83.683239
20
25.787133
30
0.000000
0
VERTEX
5
58d
8
0
10
78.945932
20
61.880883
30
0.000000
0
SEQEND
5
59d
8
0
0
POLYLINE
5
5ad
8
0
66
1
10
0
20
0
30
0
0
VERTEX
5
5bd
8
0
10
69.922497
20
123.855492
30
0.000000
0
VERTEX
5
5cd
8
0
10
57.156384
20
135.278342
30
0.000000
0
VERTEX
5
5dd
8
0
10
47.348518
20
124.168236
30
0.000000
0
VERTEX
5
5ed
8
0
10
52.901013
20
86.956813
30
0.000000
0
VERTEX
5
5fd
8
0
10
65.579967
20
76.092798
30
0.000000
0
VERTEX
5
60d
8
0
10
75.316049
20
87.736106
30
0.000000
0
VERTEX
5
61d
8
0
10
69.922497
20
123.855492
30
0.000000
0
SEQEND
5
62d
8
0
0
POLYLINE
5
63d
8
0
66
1
10
0
20
0
30
0
0
VERTEX
5
64d
8
0
10
119.648813
20
136.503688
30
0.000000
0
VERTEX
5
65d
8
0
10
107.082650
20
147.659938
30
0.000000
0
VERTEX
5
66d
8
0
10
67.564098
20
147.659938
30
0.000000
0
VERTEX
5
67d
8
0
10
58.094616
20
136.503688
30
0.000000
0
VERTEX
5
68d
8
0
10
70.660775
20
125.347438
30
0.000000
0
VERTEX
5
69d
8
0
10
110.179331
20
125.347438
30
0.000000
0
VERTEX
5
6ad
8
0
10
119.648813
20
136.503688
30
0.000000
0
SEQEND
5
6bd
8
0
0
POLYLINE
5
6cd
8
0
66
1
10
0
20
0
30
0
0
VERTEX
5
6dd
8
0
10
133.850475
20
124.168236
30
0.000000
0
VERTEX
5
6ed
8
0
10
121.130505
20
135.278342
30
0.000000
0
VERTEX
5
6fd
8
0
10
111.358529
20
123.850365
30
0.000000
0
VERTEX
5
70d
8
0
10
116.444469
20
87.613063
30
0.000000
0
VERTEX
5
71d
8
0
10
129.225963
20
76.092798
30
0.000000
0
VERTEX
5
72d
8
0
10
139.044077
20
87.100365
30
0.000000
0
VERTEX
5
73d
8
0
10
133.850475
20
124.168236
30
0.000000
0
SEQEND
5
74d
8
0
0
POLYLINE
5
75d
8
0
66
1
10
0
20
0
30
0
0
VERTEX
5
76d
8
0
10
142.489392
20
62.521752
30
0.000000
0
VERTEX
5
77d
8
0
10
129.605358
20
73.539572
30
0.000000
0
VERTEX
5
78d
8
0
10
120.033335
20
62.034689
30
0.000000
0
VERTEX
5
79d
8
0
10
125.119270
20
25.771752
30
0.000000
0
VERTEX
5
7ad
8
0
10
138.069956
20
14.354028
30
0.000000
0
VERTEX
5
7bd
8
0
10
147.693249
20
25.484643
30
0.000000
0
VERTEX
5
7cd
8
0
10
142.489392
20
62.521752
30
0.000000
0
SEQEND
5
7dd
8
0
0
POLYLINE
5
7ed
8
0
66
1
10
0
20
0
30
0
0
VERTEX
5
7fd
8
0
10
137.131725
20
13.128688
30
0.000000
0
VERTEX
5
80d
8
0
10
124.380993
20
24.284938
30
0.000000
0
VERTEX
5
81d
8
0
10
85.047009
20
24.284938
30
0.000000
0
VERTEX
5
82d
8
0
10
75.392954
20
13.128688
30
0.000000
0
VERTEX
5
83d
8
0
10
88.143686
20
1.972438
30
0.000000
0
VERTEX
5
84d
8
0
10
127.477670
20
1.972438
30
0.000000
0
VERTEX
5
85d
8
0
10
137.131725
20
13.128688
30
0.000000
0
SEQEND
5
86d
8
0
0
POLYLINE
5
87d
8
0
66
1
10
0
20
0
30
0
0
VERTEX
5
88d
8
0
10
248.025038
20
62.521752
30
0.000000
0
VERTEX
5
89d
8
0
10
235.484509
20
73.539572
30
0.000000
0
VERTEX
5
8ad
8
0
10
225.850968
20
62.367941
30
0.000000
0
VERTEX
5
8bd
8
0
10
231.377822
20
25.300070
30
0.000000
0
VERTEX
5
8cd
8
0
10
243.836318
20
14.354028
30
0.000000
0
VERTEX
5
8dd
8
0
10
253.223767
20
25.484643
30
0.000000
0
VERTEX
5
8ed
8
0
10
248.025038
20
62.521752
30
0.000000
0
SEQEND
5
8fd
8
0
0
POLYLINE
5
90d
8
0
66
1
10
0
20
0
30
0
0
VERTEX
5
91d
8
0
10
242.662248
20
13.128688
30
0.000000
0
VERTEX
5
92d
8
0
10
229.916638
20
24.284938
30
0.000000
0
VERTEX
5
93d
8
0
10
185.296765
20
24.284938
30
0.000000
0
VERTEX
5
94d
8
0
10
175.827284
20
13.128688
30
0.000000
0
VERTEX
5
95d
8
0
10
188.393447
20
1.972438
30
0.000000
0
VERTEX
5
96d
8
0
10
233.192761
20
1.972438
30
0.000000
0
VERTEX
5
97d
8
0
10
242.662248
20
13.128688
30
0.000000
0
SEQEND
5
98d
8
0
0
POLYLINE
5
99d
8
0
66
1
10
0
20
0
30
0
0
VERTEX
5
9ad
8
0
10
233.920790
20
74.816188
30
0.000000
0
VERTEX
5
9bd
8
0
10
221.354626
20
85.972438
30
0.000000
0
VERTEX
5
9cd
8
0
10
186.937390
20
85.972438
30
0.000000
0
VERTEX
5
9dd
8
0
10
177.467909
20
74.816188
30
0.000000
0
VERTEX
5
9ed
8
0
10
190.034072
20
63.659938
30
0.000000
0
VERTEX
5
9fd
8
0
10
224.451308
20
63.659938
30
0.000000
0
VERTEX
5
a0d
8
0
10
233.920790
20
74.816188
30
0.000000
0
SEQEND
5
a1d
8
0
0
POLYLINE
5
a2d
8
0
66
1
10
0
20
0
30
0
0
VERTEX
5
a3d
8
0
10
239.386125
20
124.168236
30
0.000000
0
VERTEX
5
a4d
8
0
10
226.896867
20
135.278342
30
0.000000
0
VERTEX
5
a5d
8
0
10
217.488905
20
124.332301
30
0.000000
0
VERTEX
5
a6d
8
0
10
222.359509
20
87.279811
30
0.000000
0
VERTEX
5
a7d
8
0
10
235.110246
20
76.092798
30
0.000000
0
VERTEX
5
a8d
8
0
10
244.584855
20
87.100365
30
0.000000
0
VERTEX
5
a9d
8
0
10
239.386125
20
124.168236
30
0.000000
0
SEQEND
5
aad
8
0
0
POLYLINE
5
abd
8
0
66
1
10
0
20
0
30
0
0
VERTEX
5
acd
8
0
10
225.363905
20
136.503688
30
0.000000
0
VERTEX
5
add
8
0
10
212.618300
20
147.659938
30
0.000000
0
VERTEX
5
aed
8
0
10
168.003554
20
147.659938
30
0.000000
0
VERTEX
5
afd
8
0
10
158.349499
20
136.503688
30
0.000000
0
VERTEX
5
b0d
8
0
10
171.095109
20
125.347438
30
0.000000
0
VERTEX
5
b1d
8
0
10
215.709855
20
125.347438
30
0.000000
0
VERTEX
5
b2d
8
0
10
225.363905
20
136.503688
30
0.000000
0
SEQEND
5
b3d
8
0
0
ENDSEC
0
EOF
