  0
SECTION
  2
HEADER
  9
$ACADVER
  1
AC1014
  9
$HANDSEED
  5
FFFF
  9
$MEASUREMENT
 70
     1
  0
ENDSEC
  0
SECTION
  2
TABLES
  0
TABLE
  2
VPORT
  5
8
330
0
100
AcDbSymbolTable
 70
     4
  0
VPORT
  5
2E
330
8
100
AcDbSymbolTableRecord
100
AcDbViewportTableRecord
  2
*ACTIVE
 70
     0
 10
0.0
 20
0.0
 11
1.0
 21
1.0
 12
210.0
 22
148.5
 13
0.0
 23
0.0
 14
10.0
 24
10.0
 15
10.0
 25
10.0
 16
0.0
 26
0.0
 36
1.0
 17
0.0
 27
0.0
 37
0.0
 40
341.0
 41
1.24
 42
50.0
 43
0.0
 44
0.0
 50
0.0
 51
0.0
 71
     0
 72
   100
 73
     1
 74
     3
 75
     0
 76
     0
 77
     0
 78
     0
  0
ENDTAB
  0
TABLE
  2
LTYPE
  5
5
330
0
100
AcDbSymbolTable
 70
     1
  0
LTYPE
  5
14
330
5
100
AcDbSymbolTableRecord
100
AcDbLinetypeTableRecord
  2
BYBLOCK
 70
     0
  3

 72
    65
 73
     0
 40
0.0
  0
LTYPE
  5
15
330
5
100
AcDbSymbolTableRecord
100
AcDbLinetypeTableRecord
  2
BYLAYER
 70
     0
  3

 72
    65
 73
     0
 40
0.0
  0
LTYPE
  5
16
330
5
100
AcDbSymbolTableRecord
100
AcDbLinetypeTableRecord
  2
CONTINUOUS
 70
     0
  3
Solid line
 72
    65
 73
     0
 40
0.0
  0
ENDTAB
  0
TABLE
  2
LAYER
  5
2
100
AcDbSymbolTable
 70
2
  0
LAYER
  5
50
100
AcDbSymbolTableRecord
100
AcDbLayerTableRecord
  2
0
 70
0
  6
CONTINUOUS
  0
LAYER
  5
51
100
AcDbSymbolTableRecord
100
AcDbLayerTableRecord
  2
Layer_1
 70
0
  6
CONTINUOUS
  0
ENDTAB
  0
TABLE
  2
STYLE
  5
3
330
0
100
AcDbSymbolTable
 70
     1
  0
STYLE
  5
11
330
3
100
AcDbSymbolTableRecord
100
AcDbTextStyleTableRecord
  2
STANDARD
 70
     0
 40
0.0
 41
1.0
 50
0.0
 71
     0
 42
2.5
  3
txt
  4

  0
ENDTAB
  0
TABLE
  2
VIEW
  5
6
330
0
100
AcDbSymbolTable
 70
     0
  0
ENDTAB
  0
TABLE
  2
UCS
  5
7
330
0
100
AcDbSymbolTable
 70
     0
  0
ENDTAB
  0
TABLE
  2
APPID
  5
9
330
0
100
AcDbSymbolTable
 70
     2
  0
APPID
  5
12
330
9
100
AcDbSymbolTableRecord
100
AcDbRegAppTableRecord
  2
ACAD
 70
     0
  0
ENDTAB
  0
TABLE
  2
DIMSTYLE
  5
A
330
0
100
AcDbSymbolTable
 70
     1
  0
DIMSTYLE
105
27
330
A
100
AcDbSymbolTableRecord
100
AcDbDimStyleTableRecord
  2
ISO-25
 70
     0
  3

  4

  5

  6

  7

 40
1.0
 41
2.5
 42
0.625
 43
3.75
 44
1.25
 45
0.0
 46
0.0
 47
0.0
 48
0.0
140
2.5
141
2.5
142
0.0
143
0.03937007874016
144
1.0
145
0.0
146
1.0
147
0.625
 71
     0
 72
     0
 73
     0
 74
     0
 75
     0
 76
     0
 77
     1
 78
     8
170
     0
171
     3
172
     1
173
     0
174
     0
175
     0
176
     0
177
     0
178
     0
270
     2
271
     2
272
     2
273
     2
274
     3
340
11
275
     0
280
     0
281
     0
282
     0
283
     0
284
     8
285
     0
286
     0
287
     3
288
     0
  0
ENDTAB
  0
TABLE
  2
BLOCK_RECORD
  5
1
330
0
100
AcDbSymbolTable
 70
     1
  0
BLOCK_RECORD
  5
1F
330
1
100
AcDbSymbolTableRecord
100
AcDbBlockTableRecord
  2
*MODEL_SPACE
  0
BLOCK_RECORD
  5
1B
330
1
100
AcDbSymbolTableRecord
100
AcDbBlockTableRecord
  2
*PAPER_SPACE
  0
ENDTAB
  0
ENDSEC
  0
SECTION
  2
BLOCKS
  0
BLOCK
  5
20
330
1F
100
AcDbEntity
  8
0
100
AcDbBlockBegin
  2
*MODEL_SPACE
 70
     0
 10
0.0
 20
0.0
 30
0.0
  3
*MODEL_SPACE
  1

  0
ENDBLK
  5
21
330
1F
100
AcDbEntity
  8
0
100
AcDbBlockEnd
  0
BLOCK
  5
1C
330
1B
100
AcDbEntity
 67
     1
  8
0
100
AcDbBlockBegin
  2
*PAPER_SPACE
  1

  0
ENDBLK
  5
1D
330
1B
100
AcDbEntity
 67
     1
  8
0
100
AcDbBlockEnd
  0
ENDSEC
  0
SECTION
  2
ENTITIES
  0
SPLINE
  5
100
100
AcDbEntity
  8
Layer_1
 62
7
100
AcDbSpline
 70
8
 71
3
 72
8
 73
4
 74
0
 40
0
 40
0
 40
0
 40
0
 40
1
 40
1
 40
1
 40
1
 10
498.553728
 20
135.543368
 30
0.0
 10
500.365664
 20
139.234152
 30
0.0
 10
503.477440
 20
144.162632
 30
0.0
 10
505.468784
 20
146.495552
 30
0.0
  0
SPLINE
  5
101
100
AcDbEntity
  8
Layer_1
 62
7
100
AcDbSpline
 70
8
 71
3
 72
8
 73
4
 74
0
 40
0
 40
0
 40
0
 40
0
 40
1
 40
1
 40
1
 40
1
 10
505.468784
 20
146.495552
 30
0.0
 10
507.460128
 20
148.828464
 30
0.0
 10
509.089408
 20
151.137816
 30
0.0
 10
509.089408
 20
151.627432
 30
0.0
  0
SPLINE
  5
102
100
AcDbEntity
  8
Layer_1
 62
7
100
AcDbSpline
 70
8
 71
3
 72
8
 73
4
 74
0
 40
0
 40
0
 40
0
 40
0
 40
1
 40
1
 40
1
 40
1
 10
509.089408
 20
151.627432
 30
0.0
 10
509.089408
 20
152.117048
 30
0.0
 10
510.153776
 20
153.964960
 30
0.0
 10
511.454680
 20
155.733912
 30
0.0
  0
SPLINE
  5
103
100
AcDbEntity
  8
Layer_1
 62
7
100
AcDbSpline
 70
8
 71
3
 72
8
 73
4
 74
0
 40
0
 40
0
 40
0
 40
0
 40
1
 40
1
 40
1
 40
1
 10
511.454680
 20
155.733912
 30
0.0
 10
512.755576
 20
157.502856
 30
0.0
 10
514.244632
 20
160.723776
 30
0.0
 10
514.763696
 20
162.891512
 30
0.0
  0
SPLINE
  5
104
100
AcDbEntity
  8
Layer_1
 62
7
100
AcDbSpline
 70
8
 71
3
 72
8
 73
4
 74
0
 40
0
 40
0
 40
0
 40
0
 40
1
 40
1
 40
1
 40
1
 10
514.763696
 20
162.891512
 30
0.0
 10
517.047272
 20
172.428280
 30
0.0
 10
518.925504
 20
177.254336
 30
0.0
 10
521.544184
 20
180.313664
 30
0.0
  0
SPLINE
  5
105
100
AcDbEntity
  8
Layer_1
 62
7
100
AcDbSpline
 70
8
 71
3
 72
8
 73
4
 74
0
 40
0
 40
0
 40
0
 40
0
 40
1
 40
1
 40
1
 40
1
 10
521.544184
 20
180.313664
 30
0.0
 10
523.054056
 20
182.077616
 30
0.0
 10
524.289408
 20
183.765080
 30
0.0
 10
524.289408
 20
184.063584
 30
0.0
  0
SPLINE
  5
106
100
AcDbEntity
  8
Layer_1
 62
7
100
AcDbSpline
 70
8
 71
3
 72
8
 73
4
 74
0
 40
0
 40
0
 40
0
 40
0
 40
1
 40
1
 40
1
 40
1
 10
524.289408
 20
184.063584
 30
0.0
 10
524.289408
 20
184.362088
 30
0.0
 10
526.359408
 20
185.991624
 30
0.0
 10
528.889408
 20
187.684784
 30
0.0
  0
SPLINE
  5
107
100
AcDbEntity
  8
Layer_1
 62
7
100
AcDbSpline
 70
8
 71
3
 72
8
 73
4
 74
0
 40
0
 40
0
 40
0
 40
0
 40
1
 40
1
 40
1
 40
1
 10
556.790096
 20
194.774632
 30
0.0
 10
558.282800
 20
196.502608
 30
0.0
 10
559.897296
 20
199.376664
 30
0.0
 10
560.377880
 20
201.161416
 30
0.0
  0
SPLINE
  5
108
100
AcDbEntity
  8
Layer_1
 62
7
100
AcDbSpline
 70
8
 71
3
 72
8
 73
4
 74
0
 40
0
 40
0
 40
0
 40
0
 40
1
 40
1
 40
1
 40
1
 10
560.377880
 20
201.161416
 30
0.0
 10
561.487728
 20
205.283056
 30
0.0
 10
560.576144
 20
218.555584
 30
0.0
 10
559.044432
 20
220.576240
 30
0.0
  0
SPLINE
  5
109
100
AcDbEntity
  8
Layer_1
 62
7
100
AcDbSpline
 70
8
 71
3
 72
8
 73
4
 74
0
 40
0
 40
0
 40
0
 40
0
 40
1
 40
1
 40
1
 40
1
 10
559.044432
 20
220.576240
 30
0.0
 10
558.437160
 20
221.377376
 30
0.0
 10
557.928848
 20
222.299040
 30
0.0
 10
557.914848
 20
222.624376
 30
0.0
  0
SPLINE
  5
10a
100
AcDbEntity
  8
Layer_1
 62
7
100
AcDbSpline
 70
8
 71
3
 72
8
 73
4
 74
0
 40
0
 40
0
 40
0
 40
0
 40
1
 40
1
 40
1
 40
1
 10
557.914848
 20
222.624376
 30
0.0
 10
557.900848
 20
222.949720
 30
0.0
 10
559.732272
 20
225.250864
 30
0.0
 10
561.984672
 20
227.738040
 30
0.0
  0
SPLINE
  5
10b
100
AcDbEntity
  8
Layer_1
 62
7
100
AcDbSpline
 70
8
 71
3
 72
8
 73
4
 74
0
 40
0
 40
0
 40
0
 40
0
 40
1
 40
1
 40
1
 40
1
 10
561.984672
 20
227.738040
 30
0.0
 10
568.571792
 20
235.011768
 30
0.0
 10
569.372032
 20
237.538720
 30
0.0
 10
569.640056
 20
251.911688
 30
0.0
  0
LWPOLYLINE
  5
10c
100
AcDbEntity
  8
Layer_1
 62
7
100
AcDbPolyline
 90
5
 70
0
 10
528.889408
 20
187.684784
 30
0.0
 10
533.489408
 20
190.763240
 30
0.0
 10
543.782760
 20
191.198048
 30
0.0
 10
554.076104
 20
191.632848
 30
0.0
 10
556.790096
 20
194.774632
 30
0.0
  0
SPLINE
  5
10d
100
AcDbEntity
  8
Layer_1
 62
7
100
AcDbSpline
 70
8
 71
3
 72
8
 73
4
 74
0
 40
0
 40
0
 40
0
 40
0
 40
1
 40
1
 40
1
 40
1
 10
574.290184
 20
271.599616
 30
0.0
 10
577.944264
 20
277.723216
 30
0.0
 10
579.002640
 20
280.381472
 30
0.0
 10
580.390280
 20
286.920776
 30
0.0
  0
SPLINE
  5
10e
100
AcDbEntity
  8
Layer_1
 62
7
100
AcDbSpline
 70
8
 71
3
 72
8
 73
4
 74
0
 40
0
 40
0
 40
0
 40
0
 40
1
 40
1
 40
1
 40
1
 10
580.390280
 20
286.920776
 30
0.0
 10
583.171712
 20
300.028440
 30
0.0
 10
581.039848
 20
308.332792
 30
0.0
 10
573.049120
 20
315.517144
 30
0.0
  0
SPLINE
  5
10f
100
AcDbEntity
  8
Layer_1
 62
7
100
AcDbSpline
 70
8
 71
3
 72
8
 73
4
 74
0
 40
0
 40
0
 40
0
 40
0
 40
1
 40
1
 40
1
 40
1
 10
573.049120
 20
315.517144
 30
0.0
 10
570.820408
 20
317.520944
 30
0.0
 10
569.089408
 20
319.773664
 30
0.0
 10
569.089408
 20
320.670296
 30
0.0
  0
SPLINE
  5
110
100
AcDbEntity
  8
Layer_1
 62
7
100
AcDbSpline
 70
8
 71
3
 72
8
 73
4
 74
0
 40
0
 40
0
 40
0
 40
0
 40
1
 40
1
 40
1
 40
1
 10
569.089408
 20
320.670296
 30
0.0
 10
569.089408
 20
321.646816
 30
0.0
 10
571.554224
 20
324.485336
 30
0.0
 10
575.458328
 20
328.004832
 30
0.0
  0
SPLINE
  5
111
100
AcDbEntity
  8
Layer_1
 62
7
100
AcDbSpline
 70
8
 71
3
 72
8
 73
4
 74
0
 40
0
 40
0
 40
0
 40
0
 40
1
 40
1
 40
1
 40
1
 10
575.458328
 20
328.004832
 30
0.0
 10
583.940144
 20
335.651080
 30
0.0
 10
586.289408
 20
340.255824
 30
0.0
 10
586.289408
 20
349.234640
 30
0.0
  0
SPLINE
  5
112
100
AcDbEntity
  8
Layer_1
 62
7
100
AcDbSpline
 70
8
 71
3
 72
8
 73
4
 74
0
 40
0
 40
0
 40
0
 40
0
 40
1
 40
1
 40
1
 40
1
 10
586.289408
 20
349.234640
 30
0.0
 10
586.289408
 20
354.512952
 30
0.0
 10
585.925472
 20
356.371808
 30
0.0
 10
584.215608
 20
359.826808
 30
0.0
  0
SPLINE
  5
113
100
AcDbEntity
  8
Layer_1
 62
7
100
AcDbSpline
 70
8
 71
3
 72
8
 73
4
 74
0
 40
0
 40
0
 40
0
 40
0
 40
1
 40
1
 40
1
 40
1
 10
584.215608
 20
359.826808
 30
0.0
 10
581.895720
 20
364.514448
 30
0.0
 10
581.735512
 20
363.920320
 30
0.0
 10
587.297296
 20
371.255336
 30
0.0
  0
SPLINE
  5
114
100
AcDbEntity
  8
Layer_1
 62
7
100
AcDbSpline
 70
8
 71
3
 72
8
 73
4
 74
0
 40
0
 40
0
 40
0
 40
0
 40
1
 40
1
 40
1
 40
1
 10
587.297296
 20
371.255336
 30
0.0
 10
588.731632
 20
373.146976
 30
0.0
 10
590.418488
 20
376.345768
 30
0.0
 10
591.045864
 20
378.363768
 30
0.0
  0
SPLINE
  5
115
100
AcDbEntity
  8
Layer_1
 62
7
100
AcDbSpline
 70
8
 71
3
 72
8
 73
4
 74
0
 40
0
 40
0
 40
0
 40
0
 40
1
 40
1
 40
1
 40
1
 10
591.045864
 20
378.363768
 30
0.0
 10
591.673248
 20
380.381760
 30
0.0
 10
593.109696
 20
383.803864
 30
0.0
 10
594.237984
 20
385.968432
 30
0.0
  0
SPLINE
  5
116
100
AcDbEntity
  8
Layer_1
 62
7
100
AcDbSpline
 70
8
 71
3
 72
8
 73
4
 74
0
 40
0
 40
0
 40
0
 40
0
 40
1
 40
1
 40
1
 40
1
 10
594.237984
 20
385.968432
 30
0.0
 10
595.366264
 20
388.133000
 30
0.0
 10
596.289408
 20
390.382816
 30
0.0
 10
596.289408
 20
390.968016
 30
0.0
  0
SPLINE
  5
117
100
AcDbEntity
  8
Layer_1
 62
7
100
AcDbSpline
 70
8
 71
3
 72
8
 73
4
 74
0
 40
0
 40
0
 40
0
 40
0
 40
1
 40
1
 40
1
 40
1
 10
596.289408
 20
390.968016
 30
0.0
 10
596.289408
 20
391.553216
 30
0.0
 10
597.277512
 20
393.801792
 30
0.0
 10
598.485192
 20
395.964856
 30
0.0
  0
SPLINE
  5
118
100
AcDbEntity
  8
Layer_1
 62
7
100
AcDbSpline
 70
8
 71
3
 72
8
 73
4
 74
0
 40
0
 40
0
 40
0
 40
0
 40
1
 40
1
 40
1
 40
1
 10
598.485192
 20
395.964856
 30
0.0
 10
600.031944
 20
398.735216
 30
0.0
 10
601.562888
 20
400.286792
 30
0.0
 10
603.664632
 20
401.214080
 30
0.0
  0
SPLINE
  5
119
100
AcDbEntity
  8
Layer_1
 62
7
100
AcDbSpline
 70
8
 71
3
 72
8
 73
4
 74
0
 40
0
 40
0
 40
0
 40
0
 40
1
 40
1
 40
1
 40
1
 10
603.664632
 20
401.214080
 30
0.0
 10
610.794904
 20
404.359944
 30
0.0
 10
614.645672
 20
412.967296
 30
0.0
 10
615.841784
 20
428.432848
 30
0.0
  0
SPLINE
  5
11a
100
AcDbEntity
  8
Layer_1
 62
7
100
AcDbSpline
 70
8
 71
3
 72
8
 73
4
 74
0
 40
0
 40
0
 40
0
 40
0
 40
1
 40
1
 40
1
 40
1
 10
615.841784
 20
428.432848
 30
0.0
 10
616.271048
 20
433.983064
 30
0.0
 10
614.012752
 20
457.988568
 30
0.0
 10
612.304608
 20
466.032848
 30
0.0
  0
SPLINE
  5
11b
100
AcDbEntity
  8
Layer_1
 62
7
100
AcDbSpline
 70
8
 71
3
 72
8
 73
4
 74
0
 40
0
 40
0
 40
0
 40
0
 40
1
 40
1
 40
1
 40
1
 10
612.304608
 20
466.032848
 30
0.0
 10
610.727104
 20
473.461904
 30
0.0
 10
611.078976
 20
479.966432
 30
0.0
 10
613.453424
 20
487.269304
 30
0.0
  0
SPLINE
  5
11c
100
AcDbEntity
  8
Layer_1
 62
7
100
AcDbSpline
 70
8
 71
3
 72
8
 73
4
 74
0
 40
0
 40
0
 40
0
 40
0
 40
1
 40
1
 40
1
 40
1
 10
613.453424
 20
487.269304
 30
0.0
 10
619.591704
 20
506.148256
 30
0.0
 10
619.426216
 20
505.316672
 30
0.0
 10
619.416192
 20
517.232848
 30
0.0
  0
SPLINE
  5
11d
100
AcDbEntity
  8
Layer_1
 62
7
100
AcDbSpline
 70
8
 71
3
 72
8
 73
4
 74
0
 40
0
 40
0
 40
0
 40
0
 40
1
 40
1
 40
1
 40
1
 10
619.416192
 20
517.232848
 30
0.0
 10
619.411392
 20
523.392848
 30
0.0
 10
619.106720
 20
529.512848
 30
0.0
 10
618.739984
 20
530.832848
 30
0.0
  0
SPLINE
  5
11e
100
AcDbEntity
  8
Layer_1
 62
7
100
AcDbSpline
 70
8
 71
3
 72
8
 73
4
 74
0
 40
0
 40
0
 40
0
 40
0
 40
1
 40
1
 40
1
 40
1
 10
618.739984
 20
530.832848
 30
0.0
 10
618.373248
 20
532.152848
 30
0.0
 10
617.636640
 20
535.392848
 30
0.0
 10
617.103080
 20
538.032848
 30
0.0
  0
SPLINE
  5
11f
100
AcDbEntity
  8
Layer_1
 62
7
100
AcDbSpline
 70
8
 71
3
 72
8
 73
4
 74
0
 40
0
 40
0
 40
0
 40
0
 40
1
 40
1
 40
1
 40
1
 10
617.103080
 20
538.032848
 30
0.0
 10
616.569512
 20
540.672848
 30
0.0
 10
615.000752
 20
546.072848
 30
0.0
 10
613.616944
 20
550.032848
 30
0.0
  0
SPLINE
  5
120
100
AcDbEntity
  8
Layer_1
 62
7
100
AcDbSpline
 70
8
 71
3
 72
8
 73
4
 74
0
 40
0
 40
0
 40
0
 40
0
 40
1
 40
1
 40
1
 40
1
 10
613.616944
 20
550.032848
 30
0.0
 10
611.917960
 20
554.894792
 30
0.0
 10
611.186744
 20
558.329088
 30
0.0
 10
611.365184
 20
560.608696
 30
0.0
  0
SPLINE
  5
121
100
AcDbEntity
  8
Layer_1
 62
7
100
AcDbSpline
 70
8
 71
3
 72
8
 73
4
 74
0
 40
0
 40
0
 40
0
 40
0
 40
1
 40
1
 40
1
 40
1
 10
611.365184
 20
560.608696
 30
0.0
 10
611.662520
 20
564.407280
 30
0.0
 10
610.397352
 20
568.991704
 30
0.0
 10
608.178360
 20
572.156344
 30
0.0
  0
SPLINE
  5
122
100
AcDbEntity
  8
Layer_1
 62
7
100
AcDbSpline
 70
8
 71
3
 72
8
 73
4
 74
0
 40
0
 40
0
 40
0
 40
0
 40
1
 40
1
 40
1
 40
1
 10
608.178360
 20
572.156344
 30
0.0
 10
606.243824
 20
574.915320
 30
0.0
 10
606.296440
 20
575.624400
 30
0.0
 10
608.666312
 20
578.731456
 30
0.0
  0
SPLINE
  5
123
100
AcDbEntity
  8
Layer_1
 62
7
100
AcDbSpline
 70
8
 71
3
 72
8
 73
4
 74
0
 40
0
 40
0
 40
0
 40
0
 40
1
 40
1
 40
1
 40
1
 10
608.666312
 20
578.731456
 30
0.0
 10
609.753608
 20
580.156976
 30
0.0
 10
611.232104
 20
583.621968
 30
0.0
 10
611.951856
 20
586.431440
 30
0.0
  0
SPLINE
  5
124
100
AcDbEntity
  8
Layer_1
 62
7
100
AcDbSpline
 70
8
 71
3
 72
8
 73
4
 74
0
 40
0
 40
0
 40
0
 40
0
 40
1
 40
1
 40
1
 40
1
 10
611.951856
 20
586.431440
 30
0.0
 10
612.671608
 20
589.240912
 30
0.0
 10
614.248040
 20
592.820560
 30
0.0
 10
615.455032
 20
594.386208
 30
0.0
  0
SPLINE
  5
125
100
AcDbEntity
  8
Layer_1
 62
7
100
AcDbSpline
 70
8
 71
3
 72
8
 73
4
 74
0
 40
0
 40
0
 40
0
 40
0
 40
1
 40
1
 40
1
 40
1
 10
615.455032
 20
594.386208
 30
0.0
 10
616.662024
 20
595.951864
 30
0.0
 10
618.164568
 20
598.662544
 30
0.0
 10
618.794016
 20
600.409944
 30
0.0
  0
SPLINE
  5
126
100
AcDbEntity
  8
Layer_1
 62
7
100
AcDbSpline
 70
8
 71
3
 72
8
 73
4
 74
0
 40
0
 40
0
 40
0
 40
0
 40
1
 40
1
 40
1
 40
1
 10
618.794016
 20
600.409944
 30
0.0
 10
619.682128
 20
602.875408
 30
0.0
 10
620.470552
 20
603.708368
 30
0.0
 10
622.313944
 20
604.128728
 30
0.0
  0
SPLINE
  5
127
100
AcDbEntity
  8
Layer_1
 62
7
100
AcDbSpline
 70
8
 71
3
 72
8
 73
4
 74
0
 40
0
 40
0
 40
0
 40
0
 40
1
 40
1
 40
1
 40
1
 10
622.313944
 20
604.128728
 30
0.0
 10
623.620448
 20
604.426656
 30
0.0
 10
626.418536
 20
605.070696
 30
0.0
 10
628.531912
 20
605.559928
 30
0.0
  0
SPLINE
  5
128
100
AcDbEntity
  8
Layer_1
 62
7
100
AcDbSpline
 70
8
 71
3
 72
8
 73
4
 74
0
 40
0
 40
0
 40
0
 40
0
 40
1
 40
1
 40
1
 40
1
 10
628.531912
 20
605.559928
 30
0.0
 10
632.047248
 20
606.373704
 30
0.0
 10
632.592160
 20
606.292024
 30
0.0
 10
634.931912
 20
604.600560
 30
0.0
  0
SPLINE
  5
129
100
AcDbEntity
  8
Layer_1
 62
7
100
AcDbSpline
 70
8
 71
3
 72
8
 73
4
 74
0
 40
0
 40
0
 40
0
 40
0
 40
1
 40
1
 40
1
 40
1
 10
634.931912
 20
604.600560
 30
0.0
 10
636.338536
 20
603.583672
 30
0.0
 10
638.455184
 20
602.272072
 30
0.0
 10
639.635576
 20
601.685888
 30
0.0
  0
SPLINE
  5
12a
100
AcDbEntity
  8
Layer_1
 62
7
100
AcDbSpline
 70
8
 71
3
 72
8
 73
4
 74
0
 40
0
 40
0
 40
0
 40
0
 40
1
 40
1
 40
1
 40
1
 10
639.635576
 20
601.685888
 30
0.0
 10
643.227792
 20
599.901992
 30
0.0
 10
646.422120
 20
595.864376
 30
0.0
 10
647.905408
 20
591.232848
 30
0.0
  0
SPLINE
  5
12b
100
AcDbEntity
  8
Layer_1
 62
7
100
AcDbSpline
 70
8
 71
3
 72
8
 73
4
 74
0
 40
0
 40
0
 40
0
 40
0
 40
1
 40
1
 40
1
 40
1
 10
647.905408
 20
591.232848
 30
0.0
 10
648.680440
 20
588.812848
 30
0.0
 10
649.931152
 20
585.932848
 30
0.0
 10
650.684784
 20
584.832848
 30
0.0
  0
SPLINE
  5
12c
100
AcDbEntity
  8
Layer_1
 62
7
100
AcDbSpline
 70
8
 71
3
 72
8
 73
4
 74
0
 40
0
 40
0
 40
0
 40
0
 40
1
 40
1
 40
1
 40
1
 10
650.684784
 20
584.832848
 30
0.0
 10
651.438408
 20
583.732848
 30
0.0
 10
652.284952
 20
581.572848
 30
0.0
 10
652.565992
 20
580.032848
 30
0.0
  0
SPLINE
  5
12d
100
AcDbEntity
  8
Layer_1
 62
7
100
AcDbSpline
 70
8
 71
3
 72
8
 73
4
 74
0
 40
0
 40
0
 40
0
 40
0
 40
1
 40
1
 40
1
 40
1
 10
652.565992
 20
580.032848
 30
0.0
 10
652.847032
 20
578.492848
 30
0.0
 10
653.451944
 20
575.612848
 30
0.0
 10
653.910240
 20
573.632848
 30
0.0
  0
SPLINE
  5
12e
100
AcDbEntity
  8
Layer_1
 62
7
100
AcDbSpline
 70
8
 71
3
 72
8
 73
4
 74
0
 40
0
 40
0
 40
0
 40
0
 40
1
 40
1
 40
1
 40
1
 10
653.910240
 20
573.632848
 30
0.0
 10
654.368528
 20
571.652848
 30
0.0
 10
655.112560
 20
567.332848
 30
0.0
 10
655.563632
 20
564.032848
 30
0.0
  0
SPLINE
  5
12f
100
AcDbEntity
  8
Layer_1
 62
7
100
AcDbSpline
 70
8
 71
3
 72
8
 73
4
 74
0
 40
0
 40
0
 40
0
 40
0
 40
1
 40
1
 40
1
 40
1
 10
655.563632
 20
564.032848
 30
0.0
 10
656.014696
 20
560.732848
 30
0.0
 10
656.773096
 20
556.255352
 30
0.0
 10
657.248952
 20
554.082856
 30
0.0
  0
SPLINE
  5
130
100
AcDbEntity
  8
Layer_1
 62
7
100
AcDbSpline
 70
8
 71
3
 72
8
 73
4
 74
0
 40
0
 40
0
 40
0
 40
0
 40
1
 40
1
 40
1
 40
1
 10
657.248952
 20
554.082856
 30
0.0
 10
658.207312
 20
549.707536
 30
0.0
 10
658.352648
 20
534.792080
 30
0.0
 10
657.465232
 20
531.887152
 30
0.0
  0
SPLINE
  5
131
100
AcDbEntity
  8
Layer_1
 62
7
100
AcDbSpline
 70
8
 71
3
 72
8
 73
4
 74
0
 40
0
 40
0
 40
0
 40
0
 40
1
 40
1
 40
1
 40
1
 10
657.465232
 20
531.887152
 30
0.0
 10
655.884784
 20
526.713632
 30
0.0
 10
653.127800
 20
522.226832
 30
0.0
 10
647.782712
 20
516.129496
 30
0.0
  0
SPLINE
  5
132
100
AcDbEntity
  8
Layer_1
 62
7
100
AcDbSpline
 70
8
 71
3
 72
8
 73
4
 74
0
 40
0
 40
0
 40
0
 40
0
 40
1
 40
1
 40
1
 40
1
 10
647.782712
 20
516.129496
 30
0.0
 10
644.541392
 20
512.432008
 30
0.0
 10
641.889408
 20
508.987600
 30
0.0
 10
641.889408
 20
508.475248
 30
0.0
  0
SPLINE
  5
133
100
AcDbEntity
  8
Layer_1
 62
7
100
AcDbSpline
 70
8
 71
3
 72
8
 73
4
 74
0
 40
0
 40
0
 40
0
 40
0
 40
1
 40
1
 40
1
 40
1
 10
641.889408
 20
508.475248
 30
0.0
 10
641.889408
 20
507.962896
 30
0.0
 10
641.010432
 20
506.352312
 30
0.0
 10
639.936136
 20
504.896184
 30
0.0
  0
SPLINE
  5
134
100
AcDbEntity
  8
Layer_1
 62
7
100
AcDbSpline
 70
8
 71
3
 72
8
 73
4
 74
0
 40
0
 40
0
 40
0
 40
0
 40
1
 40
1
 40
1
 40
1
 10
639.936136
 20
504.896184
 30
0.0
 10
638.861840
 20
503.440056
 30
0.0
 10
636.263176
 20
498.780112
 30
0.0
 10
634.161336
 20
494.540760
 30
0.0
  0
SPLINE
  5
135
100
AcDbEntity
  8
Layer_1
 62
7
100
AcDbSpline
 70
8
 71
3
 72
8
 73
4
 74
0
 40
0
 40
0
 40
0
 40
0
 40
1
 40
1
 40
1
 40
1
 10
634.161336
 20
494.540760
 30
0.0
 10
630.559408
 20
487.275784
 30
0.0
 10
630.328096
 20
486.421592
 30
0.0
 10
630.136144
 20
479.676288
 30
0.0
  0
SPLINE
  5
136
100
AcDbEntity
  8
Layer_1
 62
7
100
AcDbSpline
 70
8
 71
3
 72
8
 73
4
 74
0
 40
0
 40
0
 40
0
 40
0
 40
1
 40
1
 40
1
 40
1
 10
630.136144
 20
479.676288
 30
0.0
 10
629.942240
 20
472.862648
 30
0.0
 10
630.226856
 20
469.547016
 30
0.0
 10
632.268744
 20
454.832848
 30
0.0
  0
SPLINE
  5
137
100
AcDbEntity
  8
Layer_1
 62
7
100
AcDbSpline
 70
8
 71
3
 72
8
 73
4
 74
0
 40
0
 40
0
 40
0
 40
0
 40
1
 40
1
 40
1
 40
1
 10
632.268744
 20
454.832848
 30
0.0
 10
633.259264
 20
447.694984
 30
0.0
 10
636.587448
 20
436.694400
 30
0.0
 10
638.682720
 20
433.632848
 30
0.0
  0
SPLINE
  5
138
100
AcDbEntity
  8
Layer_1
 62
7
100
AcDbSpline
 70
8
 71
3
 72
8
 73
4
 74
0
 40
0
 40
0
 40
0
 40
0
 40
1
 40
1
 40
1
 40
1
 10
638.682720
 20
433.632848
 30
0.0
 10
639.435544
 20
432.532848
 30
0.0
 10
640.709424
 20
429.832848
 30
0.0
 10
641.513560
 20
427.632848
 30
0.0
  0
SPLINE
  5
139
100
AcDbEntity
  8
Layer_1
 62
7
100
AcDbSpline
 70
8
 71
3
 72
8
 73
4
 74
0
 40
0
 40
0
 40
0
 40
0
 40
1
 40
1
 40
1
 40
1
 10
641.513560
 20
427.632848
 30
0.0
 10
642.317704
 20
425.432848
 30
0.0
 10
643.631232
 20
422.677272
 30
0.0
 10
644.432520
 20
421.509352
 30
0.0
  0
SPLINE
  5
13a
100
AcDbEntity
  8
Layer_1
 62
7
100
AcDbSpline
 70
8
 71
3
 72
8
 73
4
 74
0
 40
0
 40
0
 40
0
 40
0
 40
1
 40
1
 40
1
 40
1
 10
644.432520
 20
421.509352
 30
0.0
 10
645.233808
 20
420.341432
 30
0.0
 10
645.889408
 20
418.639648
 30
0.0
 10
645.889408
 20
417.727616
 30
0.0
  0
SPLINE
  5
13b
100
AcDbEntity
  8
Layer_1
 62
7
100
AcDbSpline
 70
8
 71
3
 72
8
 73
4
 74
0
 40
0
 40
0
 40
0
 40
0
 40
1
 40
1
 40
1
 40
1
 10
645.889408
 20
417.727616
 30
0.0
 10
645.889408
 20
416.815584
 30
0.0
 10
646.789408
 20
413.678296
 30
0.0
 10
647.889408
 20
410.755864
 30
0.0
  0
SPLINE
  5
13c
100
AcDbEntity
  8
Layer_1
 62
7
100
AcDbSpline
 70
8
 71
3
 72
8
 73
4
 74
0
 40
0
 40
0
 40
0
 40
0
 40
1
 40
1
 40
1
 40
1
 10
647.889408
 20
410.755864
 30
0.0
 10
648.989408
 20
407.833432
 30
0.0
 10
649.889408
 20
404.630472
 30
0.0
 10
649.889408
 20
403.638184
 30
0.0
  0
SPLINE
  5
13d
100
AcDbEntity
  8
Layer_1
 62
7
100
AcDbSpline
 70
8
 71
3
 72
8
 73
4
 74
0
 40
0
 40
0
 40
0
 40
0
 40
1
 40
1
 40
1
 40
1
 10
649.889408
 20
403.638184
 30
0.0
 10
649.889408
 20
402.645888
 30
0.0
 10
650.454512
 20
400.258752
 30
0.0
 10
651.145200
 20
398.333432
 30
0.0
  0
SPLINE
  5
13e
100
AcDbEntity
  8
Layer_1
 62
7
100
AcDbSpline
 70
8
 71
3
 72
8
 73
4
 74
0
 40
0
 40
0
 40
0
 40
0
 40
1
 40
1
 40
1
 40
1
 10
651.145200
 20
398.333432
 30
0.0
 10
651.835880
 20
396.408112
 30
0.0
 10
652.683520
 20
392.132848
 30
0.0
 10
653.028840
 20
388.832848
 30
0.0
  0
SPLINE
  5
13f
100
AcDbEntity
  8
Layer_1
 62
7
100
AcDbSpline
 70
8
 71
3
 72
8
 73
4
 74
0
 40
0
 40
0
 40
0
 40
0
 40
1
 40
1
 40
1
 40
1
 10
653.028840
 20
388.832848
 30
0.0
 10
653.374168
 20
385.532848
 30
0.0
 10
654.429064
 20
381.142600
 30
0.0
 10
655.373056
 20
379.076736
 30
0.0
  0
SPLINE
  5
140
100
AcDbEntity
  8
Layer_1
 62
7
100
AcDbSpline
 70
8
 71
3
 72
8
 73
4
 74
0
 40
0
 40
0
 40
0
 40
0
 40
1
 40
1
 40
1
 40
1
 10
655.373056
 20
379.076736
 30
0.0
 10
656.317048
 20
377.010880
 30
0.0
 10
657.089408
 20
374.532648
 30
0.0
 10
657.089408
 20
373.569552
 30
0.0
  0
SPLINE
  5
141
100
AcDbEntity
  8
Layer_1
 62
7
100
AcDbSpline
 70
8
 71
3
 72
8
 73
4
 74
0
 40
0
 40
0
 40
0
 40
0
 40
1
 40
1
 40
1
 40
1
 10
657.089408
 20
373.569552
 30
0.0
 10
657.089408
 20
372.606464
 30
0.0
 10
657.428160
 20
370.516712
 30
0.0
 10
657.842184
 20
368.925664
 30
0.0
  0
SPLINE
  5
142
100
AcDbEntity
  8
Layer_1
 62
7
100
AcDbSpline
 70
8
 71
3
 72
8
 73
4
 74
0
 40
0
 40
0
 40
0
 40
0
 40
1
 40
1
 40
1
 40
1
 10
657.842184
 20
368.925664
 30
0.0
 10
658.256216
 20
367.334616
 30
0.0
 10
659.047856
 20
364.234064
 30
0.0
 10
659.601400
 20
362.035544
 30
0.0
  0
SPLINE
  5
143
100
AcDbEntity
  8
Layer_1
 62
7
100
AcDbSpline
 70
8
 71
3
 72
8
 73
4
 74
0
 40
0
 40
0
 40
0
 40
0
 40
1
 40
1
 40
1
 40
1
 10
659.601400
 20
362.035544
 30
0.0
 10
661.392008
 20
354.923664
 30
0.0
 10
669.275248
 20
348.832848
 30
0.0
 10
676.689408
 20
348.832848
 30
0.0
  0
SPLINE
  5
144
100
AcDbEntity
  8
Layer_1
 62
7
100
AcDbSpline
 70
8
 71
3
 72
8
 73
4
 74
0
 40
0
 40
0
 40
0
 40
0
 40
1
 40
1
 40
1
 40
1
 10
676.689408
 20
348.832848
 30
0.0
 10
686.717208
 20
348.832848
 30
0.0
 10
695.955368
 20
359.156184
 30
0.0
 10
694.411008
 20
368.636144
 30
0.0
  0
SPLINE
  5
145
100
AcDbEntity
  8
Layer_1
 62
7
100
AcDbSpline
 70
8
 71
3
 72
8
 73
4
 74
0
 40
0
 40
0
 40
0
 40
0
 40
1
 40
1
 40
1
 40
1
 10
694.411008
 20
368.636144
 30
0.0
 10
694.142504
 20
370.284336
 30
0.0
 10
693.554376
 20
373.252848
 30
0.0
 10
693.104048
 20
375.232848
 30
0.0
  0
SPLINE
  5
146
100
AcDbEntity
  8
Layer_1
 62
7
100
AcDbSpline
 70
8
 71
3
 72
8
 73
4
 74
0
 40
0
 40
0
 40
0
 40
0
 40
1
 40
1
 40
1
 40
1
 10
693.104048
 20
375.232848
 30
0.0
 10
692.653720
 20
377.212848
 30
0.0
 10
691.941448
 20
380.745144
 30
0.0
 10
691.521216
 20
383.082392
 30
0.0
  0
SPLINE
  5
147
100
AcDbEntity
  8
Layer_1
 62
7
100
AcDbSpline
 70
8
 71
3
 72
8
 73
4
 74
0
 40
0
 40
0
 40
0
 40
0
 40
1
 40
1
 40
1
 40
1
 10
691.521216
 20
383.082392
 30
0.0
 10
691.100984
 20
385.419640
 30
0.0
 10
690.201920
 20
388.444952
 30
0.0
 10
689.523288
 20
389.805304
 30
0.0
  0
SPLINE
  5
148
100
AcDbEntity
  8
Layer_1
 62
7
100
AcDbSpline
 70
8
 71
3
 72
8
 73
4
 74
0
 40
0
 40
0
 40
0
 40
0
 40
1
 40
1
 40
1
 40
1
 10
689.523288
 20
389.805304
 30
0.0
 10
688.844656
 20
391.165656
 30
0.0
 10
688.284008
 20
393.753360
 30
0.0
 10
688.277400
 20
395.555760
 30
0.0
  0
SPLINE
  5
149
100
AcDbEntity
  8
Layer_1
 62
7
100
AcDbSpline
 70
8
 71
3
 72
8
 73
4
 74
0
 40
0
 40
0
 40
0
 40
0
 40
1
 40
1
 40
1
 40
1
 10
688.277400
 20
395.555760
 30
0.0
 10
688.271000
 20
397.358160
 30
0.0
 10
687.370848
 20
401.712848
 30
0.0
 10
686.277512
 20
405.232848
 30
0.0
  0
SPLINE
  5
14a
100
AcDbEntity
  8
Layer_1
 62
7
100
AcDbSpline
 70
8
 71
3
 72
8
 73
4
 74
0
 40
0
 40
0
 40
0
 40
0
 40
1
 40
1
 40
1
 40
1
 10
686.277512
 20
405.232848
 30
0.0
 10
685.184176
 20
408.752848
 30
0.0
 10
684.289576
 20
412.422256
 30
0.0
 10
684.289520
 20
413.387080
 30
0.0
  0
SPLINE
  5
14b
100
AcDbEntity
  8
Layer_1
 62
7
100
AcDbSpline
 70
8
 71
3
 72
8
 73
4
 74
0
 40
0
 40
0
 40
0
 40
0
 40
1
 40
1
 40
1
 40
1
 10
684.289520
 20
413.387080
 30
0.0
 10
684.289456
 20
414.351904
 30
0.0
 10
683.436200
 20
417.591904
 30
0.0
 10
682.393384
 20
420.587080
 30
0.0
  0
SPLINE
  5
14c
100
AcDbEntity
  8
Layer_1
 62
7
100
AcDbSpline
 70
8
 71
3
 72
8
 73
4
 74
0
 40
0
 40
0
 40
0
 40
0
 40
1
 40
1
 40
1
 40
1
 10
682.393384
 20
420.587080
 30
0.0
 10
681.350576
 20
423.582256
 30
0.0
 10
680.078040
 20
427.794880
 30
0.0
 10
679.565536
 20
429.948464
 30
0.0
  0
SPLINE
  5
14d
100
AcDbEntity
  8
Layer_1
 62
7
100
AcDbSpline
 70
8
 71
3
 72
8
 73
4
 74
0
 40
0
 40
0
 40
0
 40
0
 40
1
 40
1
 40
1
 40
1
 10
679.565536
 20
429.948464
 30
0.0
 10
679.053024
 20
432.102056
 30
0.0
 10
677.979768
 20
434.802056
 30
0.0
 10
677.180512
 20
435.948464
 30
0.0
  0
SPLINE
  5
14e
100
AcDbEntity
  8
Layer_1
 62
7
100
AcDbSpline
 70
8
 71
3
 72
8
 73
4
 74
0
 40
0
 40
0
 40
0
 40
0
 40
1
 40
1
 40
1
 40
1
 10
677.180512
 20
435.948464
 30
0.0
 10
676.381264
 20
437.094880
 30
0.0
 10
675.069392
 20
439.832848
 30
0.0
 10
674.265256
 20
442.032848
 30
0.0
  0
SPLINE
  5
14f
100
AcDbEntity
  8
Layer_1
 62
7
100
AcDbSpline
 70
8
 71
3
 72
8
 73
4
 74
0
 40
0
 40
0
 40
0
 40
0
 40
1
 40
1
 40
1
 40
1
 10
674.265256
 20
442.032848
 30
0.0
 10
673.461112
 20
444.232848
 30
0.0
 10
672.220032
 20
446.932848
 30
0.0
 10
671.507288
 20
448.032848
 30
0.0
  0
SPLINE
  5
150
100
AcDbEntity
  8
Layer_1
 62
7
100
AcDbSpline
 70
8
 71
3
 72
8
 73
4
 74
0
 40
0
 40
0
 40
0
 40
0
 40
1
 40
1
 40
1
 40
1
 10
671.507288
 20
448.032848
 30
0.0
 10
669.278432
 20
451.472736
 30
0.0
 10
668.289408
 20
454.398192
 30
0.0
 10
668.289408
 20
457.551112
 30
0.0
  0
SPLINE
  5
151
100
AcDbEntity
  8
Layer_1
 62
7
100
AcDbSpline
 70
8
 71
3
 72
8
 73
4
 74
0
 40
0
 40
0
 40
0
 40
0
 40
1
 40
1
 40
1
 40
1
 10
668.289408
 20
457.551112
 30
0.0
 10
668.289408
 20
459.224752
 30
0.0
 10
667.927152
 20
461.637808
 30
0.0
 10
667.484392
 20
462.913472
 30
0.0
  0
SPLINE
  5
152
100
AcDbEntity
  8
Layer_1
 62
7
100
AcDbSpline
 70
8
 71
3
 72
8
 73
4
 74
0
 40
0
 40
0
 40
0
 40
0
 40
1
 40
1
 40
1
 40
1
 10
667.484392
 20
462.913472
 30
0.0
 10
667.041632
 20
464.189128
 30
0.0
 10
666.403008
 20
467.932848
 30
0.0
 10
666.065224
 20
471.232848
 30
0.0
  0
SPLINE
  5
153
100
AcDbEntity
  8
Layer_1
 62
7
100
AcDbSpline
 70
8
 71
3
 72
8
 73
4
 74
0
 40
0
 40
0
 40
0
 40
0
 40
1
 40
1
 40
1
 40
1
 10
666.065224
 20
471.232848
 30
0.0
 10
665.464912
 20
477.097648
 30
0.0
 10
665.518096
 20
477.368304
 30
0.0
 10
668.425576
 20
483.244384
 30
0.0
  0
SPLINE
  5
154
100
AcDbEntity
  8
Layer_1
 62
7
100
AcDbSpline
 70
8
 71
3
 72
8
 73
4
 74
0
 40
0
 40
0
 40
0
 40
0
 40
1
 40
1
 40
1
 40
1
 10
668.425576
 20
483.244384
 30
0.0
 10
670.201976
 20
486.834520
 30
0.0
 10
673.960656
 20
492.206816
 30
0.0
 10
677.757152
 20
496.582040
 30
0.0
  0
SPLINE
  5
155
100
AcDbEntity
  8
Layer_1
 62
7
100
AcDbSpline
 70
8
 71
3
 72
8
 73
4
 74
0
 40
0
 40
0
 40
0
 40
0
 40
1
 40
1
 40
1
 40
1
 10
677.757152
 20
496.582040
 30
0.0
 10
682.986648
 20
502.608688
 30
0.0
 10
688.289408
 20
510.989168
 30
0.0
 10
688.289408
 20
513.227200
 30
0.0
  0
SPLINE
  5
156
100
AcDbEntity
  8
Layer_1
 62
7
100
AcDbSpline
 70
8
 71
3
 72
8
 73
4
 74
0
 40
0
 40
0
 40
0
 40
0
 40
1
 40
1
 40
1
 40
1
 10
688.289408
 20
513.227200
 30
0.0
 10
688.289408
 20
513.498584
 30
0.0
 10
689.033768
 20
515.354608
 30
0.0
 10
689.943552
 20
517.351688
 30
0.0
  0
SPLINE
  5
157
100
AcDbEntity
  8
Layer_1
 62
7
100
AcDbSpline
 70
8
 71
3
 72
8
 73
4
 74
0
 40
0
 40
0
 40
0
 40
0
 40
1
 40
1
 40
1
 40
1
 10
689.943552
 20
517.351688
 30
0.0
 10
692.581864
 20
523.143152
 30
0.0
 10
693.386032
 20
529.148736
 30
0.0
 10
693.355560
 20
542.832848
 30
0.0
  0
SPLINE
  5
158
100
AcDbEntity
  8
Layer_1
 62
7
100
AcDbSpline
 70
8
 71
3
 72
8
 73
4
 74
0
 40
0
 40
0
 40
0
 40
0
 40
1
 40
1
 40
1
 40
1
 10
693.355560
 20
542.832848
 30
0.0
 10
693.325640
 20
556.270112
 30
0.0
 10
691.874952
 20
568.783816
 30
0.0
 10
689.089408
 20
579.632848
 30
0.0
  0
SPLINE
  5
159
100
AcDbEntity
  8
Layer_1
 62
7
100
AcDbSpline
 70
8
 71
3
 72
8
 73
4
 74
0
 40
0
 40
0
 40
0
 40
0
 40
1
 40
1
 40
1
 40
1
 10
689.089408
 20
579.632848
 30
0.0
 10
688.750496
 20
580.952848
 30
0.0
 10
688.030496
 20
584.192848
 30
0.0
 10
687.489408
 20
586.832848
 30
0.0
  0
SPLINE
  5
15a
100
AcDbEntity
  8
Layer_1
 62
7
100
AcDbSpline
 70
8
 71
3
 72
8
 73
4
 74
0
 40
0
 40
0
 40
0
 40
0
 40
1
 40
1
 40
1
 40
1
 10
687.489408
 20
586.832848
 30
0.0
 10
686.053480
 20
593.838864
 30
0.0
 10
685.039960
 20
596.981984
 30
0.0
 10
683.490936
 20
599.232848
 30
0.0
  0
SPLINE
  5
15b
100
AcDbEntity
  8
Layer_1
 62
7
100
AcDbSpline
 70
8
 71
3
 72
8
 73
4
 74
0
 40
0
 40
0
 40
0
 40
0
 40
1
 40
1
 40
1
 40
1
 10
683.490936
 20
599.232848
 30
0.0
 10
682.733928
 20
600.332848
 30
0.0
 10
681.473240
 20
603.212848
 30
0.0
 10
680.689408
 20
605.632848
 30
0.0
  0
SPLINE
  5
15c
100
AcDbEntity
  8
Layer_1
 62
7
100
AcDbSpline
 70
8
 71
3
 72
8
 73
4
 74
0
 40
0
 40
0
 40
0
 40
0
 40
1
 40
1
 40
1
 40
1
 10
680.689408
 20
605.632848
 30
0.0
 10
679.905576
 20
608.052848
 30
0.0
 10
678.671952
 20
610.932848
 30
0.0
 10
677.948008
 20
612.032848
 30
0.0
  0
SPLINE
  5
15d
100
AcDbEntity
  8
Layer_1
 62
7
100
AcDbSpline
 70
8
 71
3
 72
8
 73
4
 74
0
 40
0
 40
0
 40
0
 40
0
 40
1
 40
1
 40
1
 40
1
 10
677.948008
 20
612.032848
 30
0.0
 10
677.224064
 20
613.132848
 30
0.0
 10
676.104720
 20
615.079288
 30
0.0
 10
675.460576
 20
616.358272
 30
0.0
  0
SPLINE
  5
15e
100
AcDbEntity
  8
Layer_1
 62
7
100
AcDbSpline
 70
8
 71
3
 72
8
 73
4
 74
0
 40
0
 40
0
 40
0
 40
0
 40
1
 40
1
 40
1
 40
1
 10
675.460576
 20
616.358272
 30
0.0
 10
673.968448
 20
619.320984
 30
0.0
 10
662.856440
 20
629.458296
 30
0.0
 10
658.449544
 20
631.877176
 30
0.0
  0
SPLINE
  5
15f
100
AcDbEntity
  8
Layer_1
 62
7
100
AcDbSpline
 70
8
 71
3
 72
8
 73
4
 74
0
 40
0
 40
0
 40
0
 40
0
 40
1
 40
1
 40
1
 40
1
 10
658.449544
 20
631.877176
 30
0.0
 10
655.110184
 20
633.710104
 30
0.0
 10
652.666232
 20
636.073304
 30
0.0
 10
647.689408
 20
642.281792
 30
0.0
  0
SPLINE
  5
160
100
AcDbEntity
  8
Layer_1
 62
7
100
AcDbSpline
 70
8
 71
3
 72
8
 73
4
 74
0
 40
0
 40
0
 40
0
 40
0
 40
1
 40
1
 40
1
 40
1
 10
647.689408
 20
642.281792
 30
0.0
 10
645.466232
 20
645.055160
 30
0.0
 10
645.089408
 20
646.161272
 30
0.0
 10
645.089408
 20
649.913720
 30
0.0
  0
SPLINE
  5
161
100
AcDbEntity
  8
Layer_1
 62
7
100
AcDbSpline
 70
8
 71
3
 72
8
 73
4
 74
0
 40
0
 40
0
 40
0
 40
0
 40
1
 40
1
 40
1
 40
1
 10
645.089408
 20
649.913720
 30
0.0
 10
645.089408
 20
653.940912
 30
0.0
 10
645.378744
 20
654.641168
 30
0.0
 10
648.603880
 20
658.419512
 30
0.0
  0
SPLINE
  5
162
100
AcDbEntity
  8
Layer_1
 62
7
100
AcDbSpline
 70
8
 71
3
 72
8
 73
4
 74
0
 40
0
 40
0
 40
0
 40
0
 40
1
 40
1
 40
1
 40
1
 10
648.603880
 20
658.419512
 30
0.0
 10
650.536840
 20
660.684032
 30
0.0
 10
652.961824
 20
664.313424
 30
0.0
 10
653.992744
 20
666.484832
 30
0.0
  0
SPLINE
  5
163
100
AcDbEntity
  8
Layer_1
 62
7
100
AcDbSpline
 70
8
 71
3
 72
8
 73
4
 74
0
 40
0
 40
0
 40
0
 40
0
 40
1
 40
1
 40
1
 40
1
 10
653.992744
 20
666.484832
 30
0.0
 10
655.043712
 20
668.698480
 30
0.0
 10
656.409104
 20
670.432848
 30
0.0
 10
657.100840
 20
670.432848
 30
0.0
  0
SPLINE
  5
164
100
AcDbEntity
  8
Layer_1
 62
7
100
AcDbSpline
 70
8
 71
3
 72
8
 73
4
 74
0
 40
0
 40
0
 40
0
 40
0
 40
1
 40
1
 40
1
 40
1
 10
657.100840
 20
670.432848
 30
0.0
 10
657.779376
 20
670.432848
 30
0.0
 10
660.935264
 20
671.679208
 30
0.0
 10
664.113912
 20
673.202536
 30
0.0
  0
SPLINE
  5
165
100
AcDbEntity
  8
Layer_1
 62
7
100
AcDbSpline
 70
8
 71
3
 72
8
 73
4
 74
0
 40
0
 40
0
 40
0
 40
0
 40
1
 40
1
 40
1
 40
1
 10
664.113912
 20
673.202536
 30
0.0
 10
667.292560
 20
674.725856
 30
0.0
 10
671.420376
 20
676.383424
 30
0.0
 10
673.286840
 20
676.886008
 30
0.0
  0
SPLINE
  5
166
100
AcDbEntity
  8
Layer_1
 62
7
100
AcDbSpline
 70
8
 71
3
 72
8
 73
4
 74
0
 40
0
 40
0
 40
0
 40
0
 40
1
 40
1
 40
1
 40
1
 10
673.286840
 20
676.886008
 30
0.0
 10
675.153304
 20
677.388600
 30
0.0
 10
678.121320
 20
678.534904
 30
0.0
 10
679.882440
 20
679.433360
 30
0.0
  0
SPLINE
  5
167
100
AcDbEntity
  8
Layer_1
 62
7
100
AcDbSpline
 70
8
 71
3
 72
8
 73
4
 74
0
 40
0
 40
0
 40
0
 40
0
 40
1
 40
1
 40
1
 40
1
 10
679.882440
 20
679.433360
 30
0.0
 10
681.643552
 20
680.331808
 30
0.0
 10
685.159272
 20
681.550928
 30
0.0
 10
687.695152
 20
682.142512
 30
0.0
  0
SPLINE
  5
168
100
AcDbEntity
  8
Layer_1
 62
7
100
AcDbSpline
 70
8
 71
3
 72
8
 73
4
 74
0
 40
0
 40
0
 40
0
 40
0
 40
1
 40
1
 40
1
 40
1
 10
687.695152
 20
682.142512
 30
0.0
 10
690.231024
 20
682.734088
 30
0.0
 10
694.381224
 20
684.265760
 30
0.0
 10
696.917808
 20
685.546224
 30
0.0
  0
SPLINE
  5
169
100
AcDbEntity
  8
Layer_1
 62
7
100
AcDbSpline
 70
8
 71
3
 72
8
 73
4
 74
0
 40
0
 40
0
 40
0
 40
0
 40
1
 40
1
 40
1
 40
1
 10
696.917808
 20
685.546224
 30
0.0
 10
699.454392
 20
686.826688
 30
0.0
 10
703.140696
 20
688.307744
 30
0.0
 10
705.109592
 20
688.837456
 30
0.0
  0
SPLINE
  5
16a
100
AcDbEntity
  8
Layer_1
 62
7
100
AcDbSpline
 70
8
 71
3
 72
8
 73
4
 74
0
 40
0
 40
0
 40
0
 40
0
 40
1
 40
1
 40
1
 40
1
 10
705.109592
 20
688.837456
 30
0.0
 10
707.078488
 20
689.367168
 30
0.0
 10
709.700392
 20
690.322928
 30
0.0
 10
710.936032
 20
690.961360
 30
0.0
  0
SPLINE
  5
16b
100
AcDbEntity
  8
Layer_1
 62
7
100
AcDbSpline
 70
8
 71
3
 72
8
 73
4
 74
0
 40
0
 40
0
 40
0
 40
0
 40
1
 40
1
 40
1
 40
1
 10
710.936032
 20
690.961360
 30
0.0
 10
713.617544
 20
692.346856
 30
0.0
 10
723.151760
 20
694.811032
 30
0.0
 10
728.561904
 20
695.516880
 30
0.0
  0
SPLINE
  5
16c
100
AcDbEntity
  8
Layer_1
 62
7
100
AcDbSpline
 70
8
 71
3
 72
8
 73
4
 74
0
 40
0
 40
0
 40
0
 40
0
 40
1
 40
1
 40
1
 40
1
 10
728.561904
 20
695.516880
 30
0.0
 10
730.691776
 20
695.794760
 30
0.0
 10
734.021776
 20
696.724288
 30
0.0
 10
735.961904
 20
697.582496
 30
0.0
  0
LWPOLYLINE
  5
16d
100
AcDbEntity
  8
Layer_1
 62
7
100
AcDbPolyline
 90
3
 70
0
 10
569.640056
 20
251.911688
 30
0.0
 10
569.869024
 20
264.190528
 30
0.0
 10
574.290184
 20
271.599616
 30
0.0
  0
SPLINE
  5
16e
100
AcDbEntity
  8
Layer_1
 62
7
100
AcDbSpline
 70
8
 71
3
 72
8
 73
4
 74
0
 40
0
 40
0
 40
0
 40
0
 40
1
 40
1
 40
1
 40
1
 10
37.670103
 20
710.767872
 30
0.0
 10
50.537727
 20
704.583056
 30
0.0
 10
59.757903
 20
706.937848
 30
0.0
 10
61.311559
 20
696.416944
 30
0.0
  0
SPLINE
  5
16f
100
AcDbEntity
  8
Layer_1
 62
7
100
AcDbSpline
 70
8
 71
3
 72
8
 73
4
 74
0
 40
0
 40
0
 40
0
 40
0
 40
1
 40
1
 40
1
 40
1
 10
61.311559
 20
696.416944
 30
0.0
 10
65.240447
 20
669.811744
 30
0.0
 10
59.684247
 20
625.632848
 30
0.0
 10
59.810999
 20
625.632848
 30
0.0
  0
SPLINE
  5
170
100
AcDbEntity
  8
Layer_1
 62
7
100
AcDbSpline
 70
8
 71
3
 72
8
 73
4
 74
0
 40
0
 40
0
 40
0
 40
0
 40
1
 40
1
 40
1
 40
1
 10
59.810999
 20
625.632848
 30
0.0
 10
59.987879
 20
625.632848
 30
0.0
 10
61.483719
 20
629.862848
 30
0.0
 10
63.135159
 20
635.032848
 30
0.0
  0
SPLINE
  5
171
100
AcDbEntity
  8
Layer_1
 62
7
100
AcDbSpline
 70
8
 71
3
 72
8
 73
4
 74
0
 40
0
 40
0
 40
0
 40
0
 40
1
 40
1
 40
1
 40
1
 10
63.135159
 20
635.032848
 30
0.0
 10
64.786599
 20
640.202848
 30
0.0
 10
66.663479
 20
645.512848
 30
0.0
 10
67.306039
 20
646.832848
 30
0.0
  0
SPLINE
  5
172
100
AcDbEntity
  8
Layer_1
 62
7
100
AcDbSpline
 70
8
 71
3
 72
8
 73
4
 74
0
 40
0
 40
0
 40
0
 40
0
 40
1
 40
1
 40
1
 40
1
 10
67.306039
 20
646.832848
 30
0.0
 10
68.636439
 20
649.565976
 30
0.0
 10
88.134008
 20
668.992408
 30
0.0
 10
94.521336
 20
673.948912
 30
0.0
  0
SPLINE
  5
173
100
AcDbEntity
  8
Layer_1
 62
7
100
AcDbSpline
 70
8
 71
3
 72
8
 73
4
 74
0
 40
0
 40
0
 40
0
 40
0
 40
1
 40
1
 40
1
 40
1
 10
94.521336
 20
673.948912
 30
0.0
 10
103.134160
 20
680.632376
 30
0.0
 10
105.897136
 20
682.272664
 30
0.0
 10
110.044072
 20
683.164240
 30
0.0
  0
SPLINE
  5
174
100
AcDbEntity
  8
Layer_1
 62
7
100
AcDbSpline
 70
8
 71
3
 72
8
 73
4
 74
0
 40
0
 40
0
 40
0
 40
0
 40
1
 40
1
 40
1
 40
1
 10
110.044072
 20
683.164240
 30
0.0
 10
112.379008
 20
683.666240
 30
0.0
 10
116.809408
 20
684.642216
 30
0.0
 10
119.889408
 20
685.333088
 30
0.0
  0
SPLINE
  5
175
100
AcDbEntity
  8
Layer_1
 62
7
100
AcDbSpline
 70
8
 71
3
 72
8
 73
4
 74
0
 40
0
 40
0
 40
0
 40
0
 40
1
 40
1
 40
1
 40
1
 10
119.889408
 20
685.333088
 30
0.0
 10
124.920840
 20
686.461672
 30
0.0
 10
127.048952
 20
686.470928
 30
0.0
 10
140.849936
 20
685.424216
 30
0.0
  0
SPLINE
  5
176
100
AcDbEntity
  8
Layer_1
 62
7
100
AcDbSpline
 70
8
 71
3
 72
8
 73
4
 74
0
 40
0
 40
0
 40
0
 40
0
 40
1
 40
1
 40
1
 40
1
 10
140.849936
 20
685.424216
 30
0.0
 10
154.275008
 20
684.406024
 30
0.0
 10
156.744648
 20
684.001456
 30
0.0
 10
160.449936
 20
682.213440
 30
0.0
  0
SPLINE
  5
177
100
AcDbEntity
  8
Layer_1
 62
7
100
AcDbSpline
 70
8
 71
3
 72
8
 73
4
 74
0
 40
0
 40
0
 40
0
 40
0
 40
1
 40
1
 40
1
 40
1
 10
160.449936
 20
682.213440
 30
0.0
 10
168.105136
 20
678.519352
 30
0.0
 10
170.318552
 20
677.846632
 30
0.0
 10
174.954824
 20
677.804976
 30
0.0
  0
SPLINE
  5
178
100
AcDbEntity
  8
Layer_1
 62
7
100
AcDbSpline
 70
8
 71
3
 72
8
 73
4
 74
0
 40
0
 40
0
 40
0
 40
0
 40
1
 40
1
 40
1
 40
1
 10
174.954824
 20
677.804976
 30
0.0
 10
177.991048
 20
677.777696
 30
0.0
 10
180.422768
 20
677.240192
 30
0.0
 10
182.167648
 20
676.210688
 30
0.0
  0
SPLINE
  5
179
100
AcDbEntity
  8
Layer_1
 62
7
100
AcDbSpline
 70
8
 71
3
 72
8
 73
4
 74
0
 40
0
 40
0
 40
0
 40
0
 40
1
 40
1
 40
1
 40
1
 10
182.167648
 20
676.210688
 30
0.0
 10
183.615440
 20
675.356464
 30
0.0
 10
186.755120
 20
674.011680
 30
0.0
 10
189.144704
 20
673.222272
 30
0.0
  0
SPLINE
  5
17a
100
AcDbEntity
  8
Layer_1
 62
7
100
AcDbSpline
 70
8
 71
3
 72
8
 73
4
 74
0
 40
0
 40
0
 40
0
 40
0
 40
1
 40
1
 40
1
 40
1
 10
189.144704
 20
673.222272
 30
0.0
 10
191.534288
 20
672.432864
 30
0.0
 10
194.569400
 20
670.986856
 30
0.0
 10
195.889400
 20
670.008928
 30
0.0
  0
SPLINE
  5
17b
100
AcDbEntity
  8
Layer_1
 62
7
100
AcDbSpline
 70
8
 71
3
 72
8
 73
4
 74
0
 40
0
 40
0
 40
0
 40
0
 40
1
 40
1
 40
1
 40
1
 10
195.889400
 20
670.008928
 30
0.0
 10
197.209400
 20
669.031000
 30
0.0
 10
199.729400
 20
667.774168
 30
0.0
 10
201.489400
 20
667.215968
 30
0.0
  0
SPLINE
  5
17c
100
AcDbEntity
  8
Layer_1
 62
7
100
AcDbSpline
 70
8
 71
3
 72
8
 73
4
 74
0
 40
0
 40
0
 40
0
 40
0
 40
1
 40
1
 40
1
 40
1
 10
201.489400
 20
667.215968
 30
0.0
 10
203.249400
 20
666.657768
 30
0.0
 10
205.695424
 20
665.362968
 30
0.0
 10
206.925008
 20
664.338640
 30
0.0
  0
SPLINE
  5
17d
100
AcDbEntity
  8
Layer_1
 62
7
100
AcDbSpline
 70
8
 71
3
 72
8
 73
4
 74
0
 40
0
 40
0
 40
0
 40
0
 40
1
 40
1
 40
1
 40
1
 10
206.925008
 20
664.338640
 30
0.0
 10
208.154600
 20
663.314304
 30
0.0
 10
210.674600
 20
661.744936
 30
0.0
 10
212.525008
 20
660.851144
 30
0.0
  0
SPLINE
  5
17e
100
AcDbEntity
  8
Layer_1
 62
7
100
AcDbSpline
 70
8
 71
3
 72
8
 73
4
 74
0
 40
0
 40
0
 40
0
 40
0
 40
1
 40
1
 40
1
 40
1
 10
212.525008
 20
660.851144
 30
0.0
 10
214.375424
 20
659.957360
 30
0.0
 10
218.409400
 20
657.260456
 30
0.0
 10
221.489400
 20
654.858032
 30
0.0
  0
SPLINE
  5
17f
100
AcDbEntity
  8
Layer_1
 62
7
100
AcDbSpline
 70
8
 71
3
 72
8
 73
4
 74
0
 40
0
 40
0
 40
0
 40
0
 40
1
 40
1
 40
1
 40
1
 10
221.489400
 20
654.858032
 30
0.0
 10
224.569400
 20
652.455600
 30
0.0
 10
228.088024
 20
650.266624
 30
0.0
 10
229.308560
 20
649.993640
 30
0.0
  0
SPLINE
  5
180
100
AcDbEntity
  8
Layer_1
 62
7
100
AcDbSpline
 70
8
 71
3
 72
8
 73
4
 74
0
 40
0
 40
0
 40
0
 40
0
 40
1
 40
1
 40
1
 40
1
 10
229.308560
 20
649.993640
 30
0.0
 10
230.529104
 20
649.720656
 30
0.0
 10
232.509104
 20
648.671904
 30
0.0
 10
233.708560
 20
647.663088
 30
0.0
  0
SPLINE
  5
181
100
AcDbEntity
  8
Layer_1
 62
7
100
AcDbSpline
 70
8
 71
3
 72
8
 73
4
 74
0
 40
0
 40
0
 40
0
 40
0
 40
1
 40
1
 40
1
 40
1
 10
233.708560
 20
647.663088
 30
0.0
 10
236.012664
 20
645.725208
 30
0.0
 10
239.469048
 20
643.660808
 30
0.0
 10
246.689400
 20
639.910000
 30
0.0
  0
SPLINE
  5
182
100
AcDbEntity
  8
Layer_1
 62
7
100
AcDbSpline
 70
8
 71
3
 72
8
 73
4
 74
0
 40
0
 40
0
 40
0
 40
0
 40
1
 40
1
 40
1
 40
1
 10
246.689400
 20
639.910000
 30
0.0
 10
249.109400
 20
638.652872
 30
0.0
 10
251.889680
 20
636.456224
 30
0.0
 10
252.867792
 20
635.028576
 30
0.0
  0
SPLINE
  5
183
100
AcDbEntity
  8
Layer_1
 62
7
100
AcDbSpline
 70
8
 71
3
 72
8
 73
4
 74
0
 40
0
 40
0
 40
0
 40
0
 40
1
 40
1
 40
1
 40
1
 10
252.867792
 20
635.028576
 30
0.0
 10
253.845912
 20
633.600928
 30
0.0
 10
256.932120
 20
629.648376
 30
0.0
 10
259.726032
 20
626.245128
 30
0.0
  0
SPLINE
  5
184
100
AcDbEntity
  8
Layer_1
 62
7
100
AcDbSpline
 70
8
 71
3
 72
8
 73
4
 74
0
 40
0
 40
0
 40
0
 40
0
 40
1
 40
1
 40
1
 40
1
 10
259.726032
 20
626.245128
 30
0.0
 10
262.519952
 20
622.841888
 30
0.0
 10
265.309704
 20
619.061888
 30
0.0
 10
265.925480
 20
617.845128
 30
0.0
  0
SPLINE
  5
185
100
AcDbEntity
  8
Layer_1
 62
7
100
AcDbSpline
 70
8
 71
3
 72
8
 73
4
 74
0
 40
0
 40
0
 40
0
 40
0
 40
1
 40
1
 40
1
 40
1
 10
265.925480
 20
617.845128
 30
0.0
 10
268.302408
 20
613.148376
 30
0.0
 10
274.543328
 20
604.984848
 30
0.0
 10
280.336176
 20
598.994992
 30
0.0
  0
SPLINE
  5
186
100
AcDbEntity
  8
Layer_1
 62
7
100
AcDbSpline
 70
8
 71
3
 72
8
 73
4
 74
0
 40
0
 40
0
 40
0
 40
0
 40
1
 40
1
 40
1
 40
1
 10
280.336176
 20
598.994992
 30
0.0
 10
284.443488
 20
594.748000
 30
0.0
 10
286.724296
 20
591.666536
 30
0.0
 10
287.447184
 20
589.387712
 30
0.0
  0
SPLINE
  5
187
100
AcDbEntity
  8
Layer_1
 62
7
100
AcDbSpline
 70
8
 71
3
 72
8
 73
4
 74
0
 40
0
 40
0
 40
0
 40
0
 40
1
 40
1
 40
1
 40
1
 10
287.447184
 20
589.387712
 30
0.0
 10
288.032512
 20
587.542536
 30
0.0
 10
288.668872
 20
581.071584
 30
0.0
 10
288.861312
 20
575.007824
 30
0.0
  0
LWPOLYLINE
  5
188
100
AcDbEntity
  8
Layer_1
 62
7
100
AcDbPolyline
 90
18
 70
0
 10
735.961904
 20
697.582496
 30
0.0
 10
739.489408
 20
699.142880
 30
0.0
 10
808.987920
 20
729.744200
 30
0.0
 10
815.980640
 20
743.420976
 30
0.0
 10
820.398640
 20
763.557370
 30
0.0
 10
817.646080
 20
777.549971
 30
0.0
 10
806.271040
 20
794.679044
 30
0.0
 10
786.294944
 20
807.898657
 30
0.0
 10
739.489408
 20
808.832848
 30
0.0
 10
399.489408
 20
808.832848
 30
0.0
 10
59.489399
 20
808.832848
 30
0.0
 10
35.445751
 20
803.652766
 30
0.0
 10
23.123943
 20
795.192084
 30
0.0
 10
16.019863
 20
781.589773
 30
0.0
 10
12.950263
 20
759.488472
 30
0.0
 10
12.300903
 20
736.192272
 30
0.0
 10
18.758263
 20
719.857856
 30
0.0
 10
37.670103
 20
710.767872
 30
0.0
  0
SPLINE
  5
189
100
AcDbEntity
  8
Layer_1
 62
7
100
AcDbSpline
 70
8
 71
3
 72
8
 73
4
 74
0
 40
0
 40
0
 40
0
 40
0
 40
1
 40
1
 40
1
 40
1
 10
286.748592
 20
561.178040
 30
0.0
 10
285.394160
 20
559.635424
 30
0.0
 10
283.796240
 20
557.216688
 30
0.0
 10
283.197664
 20
555.803064
 30
0.0
  0
SPLINE
  5
18a
100
AcDbEntity
  8
Layer_1
 62
7
100
AcDbSpline
 70
8
 71
3
 72
8
 73
4
 74
0
 40
0
 40
0
 40
0
 40
0
 40
1
 40
1
 40
1
 40
1
 10
283.197664
 20
555.803064
 30
0.0
 10
282.599080
 20
554.389448
 30
0.0
 10
280.439848
 20
551.023440
 30
0.0
 10
278.399368
 20
548.323056
 30
0.0
  0
SPLINE
  5
18b
100
AcDbEntity
  8
Layer_1
 62
7
100
AcDbSpline
 70
8
 71
3
 72
8
 73
4
 74
0
 40
0
 40
0
 40
0
 40
0
 40
1
 40
1
 40
1
 40
1
 10
278.399368
 20
548.323056
 30
0.0
 10
276.358888
 20
545.622672
 30
0.0
 10
274.689400
 20
543.040248
 30
0.0
 10
274.689400
 20
542.584336
 30
0.0
  0
SPLINE
  5
18c
100
AcDbEntity
  8
Layer_1
 62
7
100
AcDbSpline
 70
8
 71
3
 72
8
 73
4
 74
0
 40
0
 40
0
 40
0
 40
0
 40
1
 40
1
 40
1
 40
1
 10
274.689400
 20
542.584336
 30
0.0
 10
274.689400
 20
542.128424
 30
0.0
 10
273.361456
 20
540.017824
 30
0.0
 10
271.738416
 20
537.894128
 30
0.0
  0
SPLINE
  5
18d
100
AcDbEntity
  8
Layer_1
 62
7
100
AcDbSpline
 70
8
 71
3
 72
8
 73
4
 74
0
 40
0
 40
0
 40
0
 40
0
 40
1
 40
1
 40
1
 40
1
 10
271.738416
 20
537.894128
 30
0.0
 10
265.287856
 20
529.453752
 30
0.0
 10
262.877640
 20
522.864072
 30
0.0
 10
261.109072
 20
508.832848
 30
0.0
  0
SPLINE
  5
18e
100
AcDbEntity
  8
Layer_1
 62
7
100
AcDbSpline
 70
8
 71
3
 72
8
 73
4
 74
0
 40
0
 40
0
 40
0
 40
0
 40
1
 40
1
 40
1
 40
1
 10
261.109072
 20
508.832848
 30
0.0
 10
260.693120
 20
505.532848
 30
0.0
 10
259.978536
 20
501.302848
 30
0.0
 10
259.521096
 20
499.432848
 30
0.0
  0
SPLINE
  5
18f
100
AcDbEntity
  8
Layer_1
 62
7
100
AcDbSpline
 70
8
 71
3
 72
8
 73
4
 74
0
 40
0
 40
0
 40
0
 40
0
 40
1
 40
1
 40
1
 40
1
 10
259.521096
 20
499.432848
 30
0.0
 10
257.716384
 20
492.055128
 30
0.0
 10
257.155184
 20
489.042952
 30
0.0
 10
256.726464
 20
484.432848
 30
0.0
  0
SPLINE
  5
190
100
AcDbEntity
  8
Layer_1
 62
7
100
AcDbSpline
 70
8
 71
3
 72
8
 73
4
 74
0
 40
0
 40
0
 40
0
 40
0
 40
1
 40
1
 40
1
 40
1
 10
256.726464
 20
484.432848
 30
0.0
 10
256.320168
 20
480.063952
 30
0.0
 10
257.644552
 20
464.682312
 30
0.0
 10
259.378384
 20
453.632848
 30
0.0
  0
SPLINE
  5
191
100
AcDbEntity
  8
Layer_1
 62
7
100
AcDbSpline
 70
8
 71
3
 72
8
 73
4
 74
0
 40
0
 40
0
 40
0
 40
0
 40
1
 40
1
 40
1
 40
1
 10
259.378384
 20
453.632848
 30
0.0
 10
259.758120
 20
451.212848
 30
0.0
 10
259.897928
 20
448.777632
 30
0.0
 10
259.689072
 20
448.221264
 30
0.0
  0
SPLINE
  5
192
100
AcDbEntity
  8
Layer_1
 62
7
100
AcDbSpline
 70
8
 71
3
 72
8
 73
4
 74
0
 40
0
 40
0
 40
0
 40
0
 40
1
 40
1
 40
1
 40
1
 10
259.689072
 20
448.221264
 30
0.0
 10
259.480208
 20
447.664888
 30
0.0
 10
259.742752
 20
443.006016
 30
0.0
 10
260.272432
 20
437.868208
 30
0.0
  0
SPLINE
  5
193
100
AcDbEntity
  8
Layer_1
 62
7
100
AcDbSpline
 70
8
 71
3
 72
8
 73
4
 74
0
 40
0
 40
0
 40
0
 40
0
 40
1
 40
1
 40
1
 40
1
 10
260.272432
 20
437.868208
 30
0.0
 10
261.362016
 20
427.299976
 30
0.0
 10
261.586944
 20
407.785720
 30
0.0
 10
260.736192
 20
397.632848
 30
0.0
  0
SPLINE
  5
194
100
AcDbEntity
  8
Layer_1
 62
7
100
AcDbSpline
 70
8
 71
3
 72
8
 73
4
 74
0
 40
0
 40
0
 40
0
 40
0
 40
1
 40
1
 40
1
 40
1
 10
260.736192
 20
397.632848
 30
0.0
 10
260.422808
 20
393.892848
 30
0.0
 10
259.390040
 20
388.361960
 30
0.0
 10
258.441168
 20
385.341992
 30
0.0
  0
SPLINE
  5
195
100
AcDbEntity
  8
Layer_1
 62
7
100
AcDbSpline
 70
8
 71
3
 72
8
 73
4
 74
0
 40
0
 40
0
 40
0
 40
0
 40
1
 40
1
 40
1
 40
1
 10
258.441168
 20
385.341992
 30
0.0
 10
256.837712
 20
380.238696
 30
0.0
 10
256.091152
 20
379.216416
 30
0.0
 10
247.864304
 20
370.858824
 30
0.0
  0
SPLINE
  5
196
100
AcDbEntity
  8
Layer_1
 62
7
100
AcDbSpline
 70
8
 71
3
 72
8
 73
4
 74
0
 40
0
 40
0
 40
0
 40
0
 40
1
 40
1
 40
1
 40
1
 10
247.864304
 20
370.858824
 30
0.0
 10
238.881488
 20
361.733248
 30
0.0
 10
237.089400
 20
358.801688
 30
0.0
 10
237.089400
 20
353.232848
 30
0.0
  0
SPLINE
  5
197
100
AcDbEntity
  8
Layer_1
 62
7
100
AcDbSpline
 70
8
 71
3
 72
8
 73
4
 74
0
 40
0
 40
0
 40
0
 40
0
 40
1
 40
1
 40
1
 40
1
 10
237.089400
 20
353.232848
 30
0.0
 10
237.089400
 20
344.048200
 30
0.0
 10
245.904752
 20
335.232848
 30
0.0
 10
255.089400
 20
335.232848
 30
0.0
  0
SPLINE
  5
198
100
AcDbEntity
  8
Layer_1
 62
7
100
AcDbSpline
 70
8
 71
3
 72
8
 73
4
 74
0
 40
0
 40
0
 40
0
 40
0
 40
1
 40
1
 40
1
 40
1
 10
255.089400
 20
335.232848
 30
0.0
 10
261.935984
 20
335.232848
 30
0.0
 10
268.982776
 20
340.404792
 30
0.0
 10
280.939184
 20
354.205112
 30
0.0
  0
SPLINE
  5
199
100
AcDbEntity
  8
Layer_1
 62
7
100
AcDbSpline
 70
8
 71
3
 72
8
 73
4
 74
0
 40
0
 40
0
 40
0
 40
0
 40
1
 40
1
 40
1
 40
1
 10
280.939184
 20
354.205112
 30
0.0
 10
285.717232
 20
359.720032
 30
0.0
 10
288.350392
 20
363.491952
 30
0.0
 10
289.037080
 20
365.805112
 30
0.0
  0
SPLINE
  5
19a
100
AcDbEntity
  8
Layer_1
 62
7
100
AcDbSpline
 70
8
 71
3
 72
8
 73
4
 74
0
 40
0
 40
0
 40
0
 40
0
 40
1
 40
1
 40
1
 40
1
 10
289.037080
 20
365.805112
 30
0.0
 10
289.596736
 20
367.690368
 30
0.0
 10
290.329400
 20
369.592848
 30
0.0
 10
290.665216
 20
370.032848
 30
0.0
  0
SPLINE
  5
19b
100
AcDbEntity
  8
Layer_1
 62
7
100
AcDbSpline
 70
8
 71
3
 72
8
 73
4
 74
0
 40
0
 40
0
 40
0
 40
0
 40
1
 40
1
 40
1
 40
1
 10
290.665216
 20
370.032848
 30
0.0
 10
291.001040
 20
370.472848
 30
0.0
 10
292.193728
 20
373.712848
 30
0.0
 10
293.315640
 20
377.232848
 30
0.0
  0
SPLINE
  5
19c
100
AcDbEntity
  8
Layer_1
 62
7
100
AcDbSpline
 70
8
 71
3
 72
8
 73
4
 74
0
 40
0
 40
0
 40
0
 40
0
 40
1
 40
1
 40
1
 40
1
 10
293.315640
 20
377.232848
 30
0.0
 10
296.761296
 20
388.043632
 30
0.0
 10
298.152176
 20
416.996744
 30
0.0
 10
296.178760
 20
436.832848
 30
0.0
  0
SPLINE
  5
19d
100
AcDbEntity
  8
Layer_1
 62
7
100
AcDbSpline
 70
8
 71
3
 72
8
 73
4
 74
0
 40
0
 40
0
 40
0
 40
0
 40
1
 40
1
 40
1
 40
1
 10
296.178760
 20
436.832848
 30
0.0
 10
295.719136
 20
441.452848
 30
0.0
 10
295.362216
 20
447.855664
 30
0.0
 10
295.385608
 20
451.061328
 30
0.0
  0
SPLINE
  5
19e
100
AcDbEntity
  8
Layer_1
 62
7
100
AcDbSpline
 70
8
 71
3
 72
8
 73
4
 74
0
 40
0
 40
0
 40
0
 40
0
 40
1
 40
1
 40
1
 40
1
 10
295.385608
 20
451.061328
 30
0.0
 10
295.408968
 20
454.266992
 30
0.0
 10
295.118464
 20
457.704320
 30
0.0
 10
294.739968
 20
458.699840
 30
0.0
  0
SPLINE
  5
19f
100
AcDbEntity
  8
Layer_1
 62
7
100
AcDbSpline
 70
8
 71
3
 72
8
 73
4
 74
0
 40
0
 40
0
 40
0
 40
0
 40
1
 40
1
 40
1
 40
1
 10
294.739968
 20
458.699840
 30
0.0
 10
294.361480
 20
459.695352
 30
0.0
 10
293.620296
 20
465.172536
 30
0.0
 10
293.092896
 20
470.871352
 30
0.0
  0
SPLINE
  5
1a0
100
AcDbEntity
  8
Layer_1
 62
7
100
AcDbSpline
 70
8
 71
3
 72
8
 73
4
 74
0
 40
0
 40
0
 40
0
 40
0
 40
1
 40
1
 40
1
 40
1
 10
293.092896
 20
470.871352
 30
0.0
 10
292.129536
 20
481.281064
 30
0.0
 10
292.270720
 20
483.210808
 30
0.0
 10
294.787424
 20
494.032848
 30
0.0
  0
SPLINE
  5
1a1
100
AcDbEntity
  8
Layer_1
 62
7
100
AcDbSpline
 70
8
 71
3
 72
8
 73
4
 74
0
 40
0
 40
0
 40
0
 40
0
 40
1
 40
1
 40
1
 40
1
 10
294.787424
 20
494.032848
 30
0.0
 10
295.196712
 20
495.792848
 30
0.0
 10
295.880352
 20
500.112848
 30
0.0
 10
296.306608
 20
503.632848
 30
0.0
  0
SPLINE
  5
1a2
100
AcDbEntity
  8
Layer_1
 62
7
100
AcDbSpline
 70
8
 71
3
 72
8
 73
4
 74
0
 40
0
 40
0
 40
0
 40
0
 40
1
 40
1
 40
1
 40
1
 10
296.306608
 20
503.632848
 30
0.0
 10
297.397960
 20
512.645072
 30
0.0
 10
297.505904
 20
512.962592
 30
0.0
 10
301.103376
 20
517.742688
 30
0.0
  0
SPLINE
  5
1a3
100
AcDbEntity
  8
Layer_1
 62
7
100
AcDbSpline
 70
8
 71
3
 72
8
 73
4
 74
0
 40
0
 40
0
 40
0
 40
0
 40
1
 40
1
 40
1
 40
1
 10
301.103376
 20
517.742688
 30
0.0
 10
302.879184
 20
520.102280
 30
0.0
 10
305.060520
 20
523.533720
 30
0.0
 10
305.950792
 20
525.368112
 30
0.0
  0
SPLINE
  5
1a4
100
AcDbEntity
  8
Layer_1
 62
7
100
AcDbSpline
 70
8
 71
3
 72
8
 73
4
 74
0
 40
0
 40
0
 40
0
 40
0
 40
1
 40
1
 40
1
 40
1
 10
305.950792
 20
525.368112
 30
0.0
 10
308.054832
 20
529.703496
 30
0.0
 10
308.682528
 20
530.145216
 30
0.0
 10
313.697312
 20
530.819432
 30
0.0
  0
LWPOLYLINE
  5
1a5
100
AcDbEntity
  8
Layer_1
 62
7
100
AcDbPolyline
 90
3
 70
0
 10
288.861312
 20
575.007824
 30
0.0
 10
289.211208
 20
563.982800
 30
0.0
 10
286.748592
 20
561.178040
 30
0.0
  0
SPLINE
  5
1a6
100
AcDbEntity
  8
Layer_1
 62
7
100
AcDbSpline
 70
8
 71
3
 72
8
 73
4
 74
0
 40
0
 40
0
 40
0
 40
0
 40
1
 40
1
 40
1
 40
1
 10
322.223752
 20
526.709008
 30
0.0
 10
324.598944
 20
524.137120
 30
0.0
 10
327.890416
 20
520.071528
 30
0.0
 10
329.538136
 20
517.674352
 30
0.0
  0
SPLINE
  5
1a7
100
AcDbEntity
  8
Layer_1
 62
7
100
AcDbSpline
 70
8
 71
3
 72
8
 73
4
 74
0
 40
0
 40
0
 40
0
 40
0
 40
1
 40
1
 40
1
 40
1
 10
329.538136
 20
517.674352
 30
0.0
 10
332.445360
 20
513.444792
 30
0.0
 10
332.538320
 20
513.089808
 30
0.0
 10
332.680712
 20
505.674352
 30
0.0
  0
SPLINE
  5
1a8
100
AcDbEntity
  8
Layer_1
 62
7
100
AcDbSpline
 70
8
 71
3
 72
8
 73
4
 74
0
 40
0
 40
0
 40
0
 40
0
 40
1
 40
1
 40
1
 40
1
 10
332.680712
 20
505.674352
 30
0.0
 10
332.850880
 20
496.812424
 30
0.0
 10
334.181248
 20
485.427136
 30
0.0
 10
335.425936
 20
482.180768
 30
0.0
  0
SPLINE
  5
1a9
100
AcDbEntity
  8
Layer_1
 62
7
100
AcDbSpline
 70
8
 71
3
 72
8
 73
4
 74
0
 40
0
 40
0
 40
0
 40
0
 40
1
 40
1
 40
1
 40
1
 10
335.425936
 20
482.180768
 30
0.0
 10
335.900840
 20
480.942128
 30
0.0
 10
336.289400
 20
478.757464
 30
0.0
 10
336.289400
 20
477.325968
 30
0.0
  0
SPLINE
  5
1aa
100
AcDbEntity
  8
Layer_1
 62
7
100
AcDbSpline
 70
8
 71
3
 72
8
 73
4
 74
0
 40
0
 40
0
 40
0
 40
0
 40
1
 40
1
 40
1
 40
1
 10
336.289400
 20
477.325968
 30
0.0
 10
336.289400
 20
475.894472
 30
0.0
 10
336.831728
 20
472.897024
 30
0.0
 10
337.494576
 20
470.664976
 30
0.0
  0
SPLINE
  5
1ab
100
AcDbEntity
  8
Layer_1
 62
7
100
AcDbSpline
 70
8
 71
3
 72
8
 73
4
 74
0
 40
0
 40
0
 40
0
 40
0
 40
1
 40
1
 40
1
 40
1
 10
337.494576
 20
470.664976
 30
0.0
 10
338.157424
 20
468.432920
 30
0.0
 10
339.253072
 20
459.817576
 30
0.0
 10
339.929336
 20
451.519768
 30
0.0
  0
SPLINE
  5
1ac
100
AcDbEntity
  8
Layer_1
 62
7
100
AcDbSpline
 70
8
 71
3
 72
8
 73
4
 74
0
 40
0
 40
0
 40
0
 40
0
 40
1
 40
1
 40
1
 40
1
 10
339.929336
 20
451.519768
 30
0.0
 10
340.605608
 20
443.221960
 30
0.0
 10
341.466456
 20
433.912848
 30
0.0
 10
341.842320
 20
430.832848
 30
0.0
  0
SPLINE
  5
1ad
100
AcDbEntity
  8
Layer_1
 62
7
100
AcDbSpline
 70
8
 71
3
 72
8
 73
4
 74
0
 40
0
 40
0
 40
0
 40
0
 40
1
 40
1
 40
1
 40
1
 10
341.842320
 20
430.832848
 30
0.0
 10
344.205696
 20
411.466648
 30
0.0
 10
344.357120
 20
409.711520
 30
0.0
 10
345.258816
 20
391.232848
 30
0.0
  0
SPLINE
  5
1ae
100
AcDbEntity
  8
Layer_1
 62
7
100
AcDbSpline
 70
8
 71
3
 72
8
 73
4
 74
0
 40
0
 40
0
 40
0
 40
0
 40
1
 40
1
 40
1
 40
1
 10
345.258816
 20
391.232848
 30
0.0
 10
345.586648
 20
384.514568
 30
0.0
 10
345.171736
 20
378.933816
 30
0.0
 10
343.474512
 20
367.232848
 30
0.0
  0
SPLINE
  5
1af
100
AcDbEntity
  8
Layer_1
 62
7
100
AcDbSpline
 70
8
 71
3
 72
8
 73
4
 74
0
 40
0
 40
0
 40
0
 40
0
 40
1
 40
1
 40
1
 40
1
 10
343.474512
 20
367.232848
 30
0.0
 10
342.995848
 20
363.932848
 30
0.0
 10
342.315288
 20
357.796480
 30
0.0
 10
341.962160
 20
353.596472
 30
0.0
  0
SPLINE
  5
1b0
100
AcDbEntity
  8
Layer_1
 62
7
100
AcDbSpline
 70
8
 71
3
 72
8
 73
4
 74
0
 40
0
 40
0
 40
0
 40
0
 40
1
 40
1
 40
1
 40
1
 10
341.962160
 20
353.596472
 30
0.0
 10
341.482440
 20
347.890752
 30
0.0
 10
340.583032
 20
343.992512
 30
0.0
 10
338.404752
 20
338.177688
 30
0.0
  0
SPLINE
  5
1b1
100
AcDbEntity
  8
Layer_1
 62
7
100
AcDbSpline
 70
8
 71
3
 72
8
 73
4
 74
0
 40
0
 40
0
 40
0
 40
0
 40
1
 40
1
 40
1
 40
1
 10
338.404752
 20
338.177688
 30
0.0
 10
336.801312
 20
333.897368
 30
0.0
 10
335.489352
 20
329.773744
 30
0.0
 10
335.489288
 20
329.014072
 30
0.0
  0
SPLINE
  5
1b2
100
AcDbEntity
  8
Layer_1
 62
7
100
AcDbSpline
 70
8
 71
3
 72
8
 73
4
 74
0
 40
0
 40
0
 40
0
 40
0
 40
1
 40
1
 40
1
 40
1
 10
335.489288
 20
329.014072
 30
0.0
 10
335.489232
 20
328.254400
 30
0.0
 10
334.577936
 20
324.752848
 30
0.0
 10
333.464192
 20
321.232848
 30
0.0
  0
SPLINE
  5
1b3
100
AcDbEntity
  8
Layer_1
 62
7
100
AcDbSpline
 70
8
 71
3
 72
8
 73
4
 74
0
 40
0
 40
0
 40
0
 40
0
 40
1
 40
1
 40
1
 40
1
 10
333.464192
 20
321.232848
 30
0.0
 10
331.696320
 20
315.645488
 30
0.0
 10
331.393608
 20
313.004416
 30
0.0
 10
331.080160
 20
300.432848
 30
0.0
  0
SPLINE
  5
1b4
100
AcDbEntity
  8
Layer_1
 62
7
100
AcDbSpline
 70
8
 71
3
 72
8
 73
4
 74
0
 40
0
 40
0
 40
0
 40
0
 40
1
 40
1
 40
1
 40
1
 10
331.080160
 20
300.432848
 30
0.0
 10
330.882688
 20
292.512848
 30
0.0
 10
330.316056
 20
282.013176
 30
0.0
 10
329.820976
 20
277.100240
 30
0.0
  0
SPLINE
  5
1b5
100
AcDbEntity
  8
Layer_1
 62
7
100
AcDbSpline
 70
8
 71
3
 72
8
 73
4
 74
0
 40
0
 40
0
 40
0
 40
0
 40
1
 40
1
 40
1
 40
1
 10
329.820976
 20
277.100240
 30
0.0
 10
329.127040
 20
270.213944
 30
0.0
 10
329.143448
 20
267.493104
 30
0.0
 10
329.892576
 20
265.223176
 30
0.0
  0
SPLINE
  5
1b6
100
AcDbEntity
  8
Layer_1
 62
7
100
AcDbSpline
 70
8
 71
3
 72
8
 73
4
 74
0
 40
0
 40
0
 40
0
 40
0
 40
1
 40
1
 40
1
 40
1
 10
329.892576
 20
265.223176
 30
0.0
 10
330.975416
 20
261.942152
 30
0.0
 10
331.242320
 20
241.515248
 30
0.0
 10
330.322040
 20
232.355536
 30
0.0
  0
SPLINE
  5
1b7
100
AcDbEntity
  8
Layer_1
 62
7
100
AcDbSpline
 70
8
 71
3
 72
8
 73
4
 74
0
 40
0
 40
0
 40
0
 40
0
 40
1
 40
1
 40
1
 40
1
 10
330.322040
 20
232.355536
 30
0.0
 10
329.544240
 20
224.613944
 30
0.0
 10
330.810440
 20
220.671872
 30
0.0
 10
335.629144
 20
215.832848
 30
0.0
  0
SPLINE
  5
1b8
100
AcDbEntity
  8
Layer_1
 62
7
100
AcDbSpline
 70
8
 71
3
 72
8
 73
4
 74
0
 40
0
 40
0
 40
0
 40
0
 40
1
 40
1
 40
1
 40
1
 10
335.629144
 20
215.832848
 30
0.0
 10
337.710376
 20
213.742848
 30
0.0
 10
339.949088
 20
212.032848
 30
0.0
 10
340.604072
 20
212.032848
 30
0.0
  0
SPLINE
  5
1b9
100
AcDbEntity
  8
Layer_1
 62
7
100
AcDbSpline
 70
8
 71
3
 72
8
 73
4
 74
0
 40
0
 40
0
 40
0
 40
0
 40
1
 40
1
 40
1
 40
1
 10
340.604072
 20
212.032848
 30
0.0
 10
342.495184
 20
212.032848
 30
0.0
 10
342.857296
 20
210.769928
 30
0.0
 10
343.495488
 20
201.948608
 30
0.0
  0
SPLINE
  5
1ba
100
AcDbEntity
  8
Layer_1
 62
7
100
AcDbSpline
 70
8
 71
3
 72
8
 73
4
 74
0
 40
0
 40
0
 40
0
 40
0
 40
1
 40
1
 40
1
 40
1
 10
343.495488
 20
201.948608
 30
0.0
 10
343.970048
 20
195.389064
 30
0.0
 10
344.545392
 20
192.725832
 30
0.0
 10
346.233144
 20
189.276192
 30
0.0
  0
SPLINE
  5
1bb
100
AcDbEntity
  8
Layer_1
 62
7
100
AcDbSpline
 70
8
 71
3
 72
8
 73
4
 74
0
 40
0
 40
0
 40
0
 40
0
 40
1
 40
1
 40
1
 40
1
 10
346.233144
 20
189.276192
 30
0.0
 10
348.975976
 20
183.670048
 30
0.0
 10
355.087984
 20
178.160408
 30
0.0
 10
360.954536
 20
176.005680
 30
0.0
  0
SPLINE
  5
1bc
100
AcDbEntity
  8
Layer_1
 62
7
100
AcDbSpline
 70
8
 71
3
 72
8
 73
4
 74
0
 40
0
 40
0
 40
0
 40
0
 40
1
 40
1
 40
1
 40
1
 10
360.954536
 20
176.005680
 30
0.0
 10
363.448704
 20
175.089600
 30
0.0
 10
366.656720
 20
173.288408
 30
0.0
 10
368.083448
 20
172.003048
 30
0.0
  0
SPLINE
  5
1bd
100
AcDbEntity
  8
Layer_1
 62
7
100
AcDbSpline
 70
8
 71
3
 72
8
 73
4
 74
0
 40
0
 40
0
 40
0
 40
0
 40
1
 40
1
 40
1
 40
1
 10
368.083448
 20
172.003048
 30
0.0
 10
370.506728
 20
169.819880
 30
0.0
 10
370.711680
 20
169.221432
 30
0.0
 10
371.196600
 20
162.912760
 30
0.0
  0
LWPOLYLINE
  5
1be
100
AcDbEntity
  8
Layer_1
 62
7
100
AcDbPolyline
 90
3
 70
0
 10
313.697312
 20
530.819432
 30
0.0
 10
317.905216
 20
531.385168
 30
0.0
 10
322.223752
 20
526.709008
 30
0.0
  0
SPLINE
  5
1bf
100
AcDbEntity
  8
Layer_1
 62
7
100
AcDbSpline
 70
8
 71
3
 72
8
 73
4
 74
0
 40
0
 40
0
 40
0
 40
0
 40
1
 40
1
 40
1
 40
1
 10
367.202544
 20
150.722240
 30
0.0
 10
364.720312
 20
147.731744
 30
0.0
 10
362.689392
 20
144.871640
 30
0.0
 10
362.689392
 20
144.366456
 30
0.0
  0
SPLINE
  5
1c0
100
AcDbEntity
  8
Layer_1
 62
7
100
AcDbSpline
 70
8
 71
3
 72
8
 73
4
 74
0
 40
0
 40
0
 40
0
 40
0
 40
1
 40
1
 40
1
 40
1
 10
362.689392
 20
144.366456
 30
0.0
 10
362.689392
 20
143.861272
 30
0.0
 10
359.359392
 20
140.249544
 30
0.0
 10
355.289392
 20
136.340392
 30
0.0
  0
LWPOLYLINE
  5
1c1
100
AcDbEntity
  8
Layer_1
 62
7
100
AcDbPolyline
 90
3
 70
0
 10
371.196600
 20
162.912760
 30
0.0
 10
371.715704
 20
156.159504
 30
0.0
 10
367.202544
 20
150.722240
 30
0.0
  0
SPLINE
  5
1c2
100
AcDbEntity
  8
Layer_1
 62
7
100
AcDbSpline
 70
8
 71
3
 72
8
 73
4
 74
0
 40
0
 40
0
 40
0
 40
0
 40
1
 40
1
 40
1
 40
1
 10
398.437344
 20
132.617664
 30
0.0
 10
400.278720
 20
134.716016
 30
0.0
 10
402.254184
 20
137.332848
 30
0.0
 10
402.827272
 20
138.432848
 30
0.0
  0
SPLINE
  5
1c3
100
AcDbEntity
  8
Layer_1
 62
7
100
AcDbSpline
 70
8
 71
3
 72
8
 73
4
 74
0
 40
0
 40
0
 40
0
 40
0
 40
1
 40
1
 40
1
 40
1
 10
402.827272
 20
138.432848
 30
0.0
 10
403.400360
 20
139.532848
 30
0.0
 10
404.809072
 20
141.692848
 30
0.0
 10
405.957752
 20
143.232848
 30
0.0
  0
SPLINE
  5
1c4
100
AcDbEntity
  8
Layer_1
 62
7
100
AcDbSpline
 70
8
 71
3
 72
8
 73
4
 74
0
 40
0
 40
0
 40
0
 40
0
 40
1
 40
1
 40
1
 40
1
 10
405.957752
 20
143.232848
 30
0.0
 10
407.106424
 20
144.772848
 30
0.0
 10
408.821688
 20
148.136792
 30
0.0
 10
409.769448
 20
150.708280
 30
0.0
  0
SPLINE
  5
1c5
100
AcDbEntity
  8
Layer_1
 62
7
100
AcDbSpline
 70
8
 71
3
 72
8
 73
4
 74
0
 40
0
 40
0
 40
0
 40
0
 40
1
 40
1
 40
1
 40
1
 10
409.769448
 20
150.708280
 30
0.0
 10
411.352888
 20
155.004536
 30
0.0
 10
412.188328
 20
156.403536
 30
0.0
 10
416.123728
 20
161.349032
 30
0.0
  0
SPLINE
  5
1c6
100
AcDbEntity
  8
Layer_1
 62
7
100
AcDbSpline
 70
8
 71
3
 72
8
 73
4
 74
0
 40
0
 40
0
 40
0
 40
0
 40
1
 40
1
 40
1
 40
1
 10
416.123728
 20
161.349032
 30
0.0
 10
417.645040
 20
163.260808
 30
0.0
 10
423.171768
 20
164.427936
 30
0.0
 10
425.082488
 20
163.240928
 30
0.0
  0
SPLINE
  5
1c7
100
AcDbEntity
  8
Layer_1
 62
7
100
AcDbSpline
 70
8
 71
3
 72
8
 73
4
 74
0
 40
0
 40
0
 40
0
 40
0
 40
1
 40
1
 40
1
 40
1
 10
425.082488
 20
163.240928
 30
0.0
 10
426.445552
 20
162.394152
 30
0.0
 10
426.742312
 20
154.303072
 30
0.0
 10
425.868704
 20
141.805120
 30
0.0
  0
SPLINE
  5
1c8
100
AcDbEntity
  8
Layer_1
 62
7
100
AcDbSpline
 70
8
 71
3
 72
8
 73
4
 74
0
 40
0
 40
0
 40
0
 40
0
 40
1
 40
1
 40
1
 40
1
 10
425.868704
 20
141.805120
 30
0.0
 10
425.376896
 20
134.769256
 30
0.0
 10
424.065944
 20
134.677520
 30
0.0
 10
424.376800
 20
131.033688
 30
0.0
  0
LWPOLYLINE
  5
1c9
100
AcDbEntity
  8
Layer_1
 62
7
100
AcDbPolyline
 90
9
 70
0
 10
355.289392
 20
136.340392
 30
0.0
 10
350.746536
 20
128.089992
 30
0.0
 10
352.608264
 20
122.899880
 30
0.0
 10
359.433280
 20
120.022184
 30
0.0
 10
369.775104
 20
119.303376
 30
0.0
 10
381.030240
 20
120.894208
 30
0.0
 10
389.091648
 20
124.090400
 30
0.0
 10
395.089392
 20
128.802480
 30
0.0
 10
398.437344
 20
132.617664
 30
0.0
  0
SPLINE
  5
1ca
100
AcDbEntity
  8
Layer_1
 62
7
100
AcDbSpline
 70
8
 71
3
 72
8
 73
4
 74
0
 40
0
 40
0
 40
0
 40
0
 40
1
 40
1
 40
1
 40
1
 10
427.858560
 20
123.689992
 30
0.0
 10
436.762896
 20
114.426776
 30
0.0
 10
446.641984
 20
128.894688
 30
0.0
 10
447.844064
 20
130.610856
 30
0.0
  0
SPLINE
  5
1cb
100
AcDbEntity
  8
Layer_1
 62
7
100
AcDbSpline
 70
8
 71
3
 72
8
 73
4
 74
0
 40
0
 40
0
 40
0
 40
0
 40
1
 40
1
 40
1
 40
1
 10
447.844064
 20
130.610856
 30
0.0
 10
448.529024
 20
131.588752
 30
0.0
 10
449.089440
 20
133.651800
 30
0.0
 10
449.089440
 20
135.195392
 30
0.0
  0
SPLINE
  5
1cc
100
AcDbEntity
  8
Layer_1
 62
7
100
AcDbSpline
 70
8
 71
3
 72
8
 73
4
 74
0
 40
0
 40
0
 40
0
 40
0
 40
1
 40
1
 40
1
 40
1
 10
449.089440
 20
135.195392
 30
0.0
 10
449.089440
 20
138.067400
 30
0.0
 10
451.242376
 20
144.514288
 30
0.0
 10
453.963744
 20
149.791344
 30
0.0
  0
SPLINE
  5
1cd
100
AcDbEntity
  8
Layer_1
 62
7
100
AcDbSpline
 70
8
 71
3
 72
8
 73
4
 74
0
 40
0
 40
0
 40
0
 40
0
 40
1
 40
1
 40
1
 40
1
 10
453.963744
 20
149.791344
 30
0.0
 10
454.973440
 20
151.749248
 30
0.0
 10
455.489440
 20
154.396400
 30
0.0
 10
455.489440
 20
157.618320
 30
0.0
  0
SPLINE
  5
1ce
100
AcDbEntity
  8
Layer_1
 62
7
100
AcDbSpline
 70
8
 71
3
 72
8
 73
4
 74
0
 40
0
 40
0
 40
0
 40
0
 40
1
 40
1
 40
1
 40
1
 10
455.489440
 20
157.618320
 30
0.0
 10
455.489440
 20
162.393040
 30
0.0
 10
455.547120
 20
162.520960
 30
0.0
 10
458.482976
 20
164.259832
 30
0.0
  0
SPLINE
  5
1cf
100
AcDbEntity
  8
Layer_1
 62
7
100
AcDbSpline
 70
8
 71
3
 72
8
 73
4
 74
0
 40
0
 40
0
 40
0
 40
0
 40
1
 40
1
 40
1
 40
1
 10
458.482976
 20
164.259832
 30
0.0
 10
462.475440
 20
166.624496
 30
0.0
 10
466.480840
 20
168.139208
 30
0.0
 10
469.889440
 20
168.573368
 30
0.0
  0
SPLINE
  5
1d0
100
AcDbEntity
  8
Layer_1
 62
7
100
AcDbSpline
 70
8
 71
3
 72
8
 73
4
 74
0
 40
0
 40
0
 40
0
 40
0
 40
1
 40
1
 40
1
 40
1
 10
469.889440
 20
168.573368
 30
0.0
 10
472.272064
 20
168.876848
 30
0.0
 10
472.823232
 20
168.633208
 30
0.0
 10
473.587008
 20
166.938992
 30
0.0
  0
SPLINE
  5
1d1
100
AcDbEntity
  8
Layer_1
 62
7
100
AcDbSpline
 70
8
 71
3
 72
8
 73
4
 74
0
 40
0
 40
0
 40
0
 40
0
 40
1
 40
1
 40
1
 40
1
 10
473.587008
 20
166.938992
 30
0.0
 10
474.080664
 20
165.843936
 30
0.0
 10
474.200680
 20
164.652072
 30
0.0
 10
473.853712
 20
164.290416
 30
0.0
  0
SPLINE
  5
1d2
100
AcDbEntity
  8
Layer_1
 62
7
100
AcDbSpline
 70
8
 71
3
 72
8
 73
4
 74
0
 40
0
 40
0
 40
0
 40
0
 40
1
 40
1
 40
1
 40
1
 10
473.853712
 20
164.290416
 30
0.0
 10
473.165936
 20
163.573520
 30
0.0
 10
470.510416
 20
158.758648
 30
0.0
 10
465.990320
 20
150.032848
 30
0.0
  0
SPLINE
  5
1d3
100
AcDbEntity
  8
Layer_1
 62
7
100
AcDbSpline
 70
8
 71
3
 72
8
 73
4
 74
0
 40
0
 40
0
 40
0
 40
0
 40
1
 40
1
 40
1
 40
1
 10
465.990320
 20
150.032848
 30
0.0
 10
463.598360
 20
145.415288
 30
0.0
 10
463.089936
 20
143.590752
 30
0.0
 10
463.092272
 20
139.632848
 30
0.0
  0
SPLINE
  5
1d4
100
AcDbEntity
  8
Layer_1
 62
7
100
AcDbSpline
 70
8
 71
3
 72
8
 73
4
 74
0
 40
0
 40
0
 40
0
 40
0
 40
1
 40
1
 40
1
 40
1
 10
463.092272
 20
139.632848
 30
0.0
 10
463.093872
 20
136.566256
 30
0.0
 10
463.632576
 20
133.749472
 30
0.0
 10
464.583424
 20
131.832848
 30
0.0
  0
LWPOLYLINE
  5
1d5
100
AcDbEntity
  8
Layer_1
 62
7
100
AcDbPolyline
 90
4
 70
0
 10
424.376800
 20
131.033688
 30
0.0
 10
424.903936
 20
127.502608
 30
0.0
 10
425.741840
 20
125.892024
 30
0.0
 10
427.858560
 20
123.689992
 30
0.0
  0
LWPOLYLINE
  5
1d6
100
AcDbEntity
  8
Layer_1
 62
7
100
AcDbPolyline
 90
7
 70
0
 10
464.583424
 20
131.832848
 30
0.0
 10
467.214600
 20
127.404280
 30
0.0
 10
473.418008
 20
123.448728
 30
0.0
 10
481.808392
 20
123.118560
 30
0.0
 10
489.204832
 20
123.975040
 30
0.0
 10
495.259320
 20
128.832848
 30
0.0
 10
498.553728
 20
135.543368
 30
0.0
  0
ENDSEC
  0
SECTION
  2
OBJECTS
  0
DICTIONARY
  5
C
330
0
100
AcDbDictionary
  3
ACAD_GROUP
350
D
  3
ACAD_MLINESTYLE
350
17
  0
DICTIONARY
  5
D
330
C
100
AcDbDictionary
  0
DICTIONARY
  5
1A
330
C
100
AcDbDictionary
  0
DICTIONARY
  5
17
330
C
100
AcDbDictionary
  3
STANDARD
350
18
  0
DICTIONARY
  5
19
330
C
100
AcDbDictionary
  0
ENDSEC
  0
EOF
