<?xml version="1.0" encoding="UTF-8" standalone="no"?>
<!-- Created with Inkscape (http://www.inkscape.org/) -->

<svg
   xmlns:dc="http://purl.org/dc/elements/1.1/"
   xmlns:cc="http://creativecommons.org/ns#"
   xmlns:rdf="http://www.w3.org/1999/02/22-rdf-syntax-ns#"
   xmlns:svg="http://www.w3.org/2000/svg"
   xmlns="http://www.w3.org/2000/svg"
   xmlns:sodipodi="http://sodipodi.sourceforge.net/DTD/sodipodi-0.dtd"
   xmlns:inkscape="http://www.inkscape.org/namespaces/inkscape"
   width="744.09448819"
   height="1052.3622047"
   id="svg2"
   version="1.1"
   inkscape:version="0.48.4 r9939"
   sodipodi:docname="tornado4-1.svg">
  <defs
     id="defs4" />
  <sodipodi:namedview
     id="base"
     pagecolor="#ffffff"
     bordercolor="#666666"
     borderopacity="1.0"
     inkscape:pageopacity="0.0"
     inkscape:pageshadow="2"
     inkscape:zoom="0.98994949"
     inkscape:cx="525.5131"
     inkscape:cy="730.53472"
     inkscape:document-units="px"
     inkscape:current-layer="layer1"
     showgrid="false"
     inkscape:window-width="1280"
     inkscape:window-height="977"
     inkscape:window-x="-4"
     inkscape:window-y="-4"
     inkscape:window-maximized="1" />
  <metadata
     id="metadata7">
    <rdf:RDF>
      <cc:Work
         rdf:about="">
        <dc:format>image/svg+xml</dc:format>
        <dc:type
           rdf:resource="http://purl.org/dc/dcmitype/StillImage" />
        <dc:title></dc:title>
      </cc:Work>
    </rdf:RDF>
  </metadata>
  <g
     inkscape:label="Layer 1"
     inkscape:groupmode="layer"
     id="layer1">
    <path
       style="fill:#000000"
       d="m 282.97149,404.9816 c -1.48307,-1.48307 -1.56792,-6.72236 -0.20458,-12.63265 1.14783,-4.97606 -0.0444,-8.21033 -3.02667,-8.21033 -2.05477,0 -4.80042,4.73174 -5.91887,10.20033 -0.89074,4.35527 -3.3652,5.71597 -6.85149,3.76764 -2.38821,-1.33467 -2.81011,-2.30087 -3.27497,-7.5 l -0.53361,-5.96797 -0.7569,4 c -2.62452,13.86984 -4.59015,16.5 -12.33115,16.5 -5.97275,0 -5.67446,0.45233 -6.92422,-10.5 l -0.68465,-6 -1.68113,4.93088 c -1.93543,5.67676 -4.156,7.62228 -6.80474,5.96188 -0.9625,-0.60336 -1.88952,-2.03088 -2.06003,-3.17227 -0.17052,-1.14139 -0.95802,-2.61303 -1.75,-3.27031 -0.79199,-0.65729 -1.43997,-1.81497 -1.43997,-2.57262 0,-0.75766 -0.28789,-1.37756 -0.63976,-1.37756 -1.12241,0 -3.29549,3.43649 -3.32844,5.26357 -0.0175,0.96996 -0.44895,2.54496 -0.9588,3.5 -0.50985,0.95504 -1.18229,2.55407 -1.49432,3.5534 -0.40473,1.29628 -1.35701,1.72614 -3.32299,1.5 -2.57172,-0.29581 -2.77587,-0.66745 -3.05795,-5.56697 -0.24331,-4.22615 -0.64483,-5.25 -2.05887,-5.25 -4.19159,0 -5.39683,-2.31642 -6.03026,-11.58997 -0.53979,-7.90254 -0.82533,-8.91003 -2.52528,-8.91003 -1.24794,0 -2.25426,1.0467 -2.88427,3 -1.40143,4.34503 -2.5982,5.5 -5.69906,5.5 -1.51531,0 -3.21864,-0.5625 -3.78517,-1.25 -0.56654,-0.6875 -1.29444,-8 -1.61756,-16.25 -1.08324,-27.65723 -1.18444,-28.25258 -6.75497,-39.73643 -0.46327,-0.95504 -0.8423,-2.80052 -0.8423,-4.10106 0,-1.30055 -1.04757,-4.34415 -2.32792,-6.76357 -2.29251,-4.33201 -3.60494,-11.61245 -5.66023,-31.39894 -1.44306,-13.89245 -2.02515,-16.52373 -5.08544,-22.98783 -2.81852,-5.95346 -6.15188,-8.91163 -15.16128,-13.45482 -1.831,-0.92332 -2.93445,-2.443 -3.33876,-4.59816 -0.38931,-2.07517 -1.46073,-3.60944 -3.01514,-4.31768 -1.85324,-0.8444 -2.41123,-1.87767 -2.41123,-4.46508 0,-3.561 -2.46337,-6.67643 -5.27905,-6.67643 -0.89187,0 -2.05211,-0.76933 -2.57832,-1.70962 -0.78101,-1.39558 -2.58113,-1.73233 -9.79969,-1.83323 -5.29999,-0.0741 -10.6215,0.45217 -13.28209,1.3135 -3.95109,1.27909 -4.73692,1.2612 -7.14753,-0.16278 -2.48086,-1.46548 -3.15803,-1.46587 -8.06085,-0.005 -9.630442,2.87029 -9.653632,2.88798 -10.411672,7.94293 -0.57219,3.81564 -0.28821,5.39849 1.57935,8.80297 3.46242,6.31186 4.96092,7.65085 8.562262,7.65085 2.345,0 3.86039,-0.74747 5.34704,-2.63744 1.98199,-2.51969 2.33124,-2.59919 7.82258,-1.78056 3.16138,0.47128 8.24889,0.84564 11.30558,0.8319 4.69406,-0.0211 5.83548,0.34339 7.34592,2.34583 1.70412,2.2592 1.70588,2.46189 0.0374,4.30554 -1.36678,1.51066 -3.08951,1.93511 -7.85252,1.93511 -3.35589,0 -7.58196,-0.42456 -9.39126,-0.94346 -2.92538,-0.83899 -3.38372,-0.69602 -4.13922,1.2911 -1.74301,4.58444 -8.52714,7.20177 -10.986392,4.23856 -0.72404,-0.87241 -2.18061,-1.5862 -3.23683,-1.5862 -2.19111,0 -11.83471,-8.60836 -11.83471,-10.56426 0,-0.70982 -1.125,-2.1755 -2.5,-3.25708 -1.375,-1.08158 -2.5,-2.46424 -2.5,-3.07258 0,-1.348 0.45043,-1.34828 -8.30845,0.005 -3.95535,0.61122 -7.45834,1.53586 -7.78441,2.05475 -0.32607,0.51889 -4.71357,1.2104 -9.75,1.5367 l -9.15714,0.59351 0,-103.64802 0,-103.648017 276.500002,0 276.50002,0 0,79.999997 c 0,77.38018 -0.061,80 -1.8635,80 -1.025,0 -4.0625,-0.41291 -6.75,-0.91759 -2.6876,-0.50467 -11.4115,-1.20537 -19.3865,-1.55711 -13.9939,-0.61721 -14.6571,-0.55601 -19,1.75317 -2.475,1.31599 -7.1062,2.69781 -10.2914,3.07072 -5.3668,0.6283 -13.7086,4.53666 -13.7086,6.42281 0,1.94804 -5.1796,3.5091 -14.2602,4.29786 -12.9842,1.12782 -13.4786,1.32635 -14.8701,5.97059 -1.1369,3.79469 -8.8025,12.95955 -10.8395,12.95955 -0.5519,0 -1.6754,1.4625 -2.4967,3.25 -0.8213,1.7875 -1.8824,3.925 -2.358,4.75 -3.7571,6.51769 -4.0938,10.54491 -1.5871,18.98587 2.3572,7.93748 1.1009,14.02228 -4.8489,23.48564 -8.4784,13.48522 -11.0517,16.59235 -17.4485,21.06859 -3.735,2.61368 -8.366,5.18137 -10.291,5.70596 -1.925,0.5246 -6.0779,2.51057 -9.2286,4.41327 -6.9462,4.19474 -10.4819,4.85972 -18.2905,3.43998 -7.1555,-1.30099 -9.7108,-3.76026 -9.3906,-9.03773 0.1189,-1.95887 -0.495,-5.13658 -1.3641,-7.06158 -0.8691,-1.925 -1.8279,-4.29771 -2.1305,-5.27268 -0.7656,-2.46601 -2.884,-3.06113 -8.108,-2.27775 -2.9665,0.44485 -4.4877,1.16915 -4.4877,2.1367 0,0.82637 -1.3063,1.72499 -3,2.06373 -2.835,0.567 -3,0.86489 -3,5.41598 0,2.64879 -0.45,5.0941 -1,5.43402 -0.55,0.33992 -1,1.63543 -1,2.87891 0,1.24348 -1.3182,3.73732 -2.9293,5.54187 -2.7989,3.13495 -3.0884,3.2285 -6.5035,2.10142 -1.9658,-0.64878 -5.0351,-0.89104 -6.8207,-0.53837 -3.9317,0.77656 -9.0612,2.65533 -9.7465,3.56986 -0.275,0.36699 -1.9023,1.38546 -3.6162,2.26327 -3.6003,1.84394 -7.3112,4.82464 -11.7439,9.43304 -2.4247,2.52088 -3.9584,3.25 -6.8359,3.25 -4.72627,0 -8.59149,1.75502 -9.38727,4.2623 -0.34193,1.07734 -2.09161,3.59654 -3.88817,5.59824 -3.00735,3.35074 -3.30336,4.29295 -3.73145,11.8772 -0.33788,5.98625 -0.94806,8.77156 -2.23252,10.19087 -0.97216,1.07422 -3.02928,4.34224 -4.57138,7.26226 -2.54502,4.81907 -3.20487,5.38421 -7.14853,6.1225 -4.06042,0.76015 -4.52056,1.18798 -7.03235,6.53859 -1.47821,3.14886 -3.61571,6.56509 -4.75,7.59161 -1.13429,1.02652 -2.06235,2.62752 -2.06235,3.55778 0,1.50024 -1.60452,5.59883 -3.91427,9.99865 -1.01369,1.93096 -5.23476,2.45097 -6.84275,0.84298 z m 57.78184,-93.12423 c 1.0548,-1.73448 2.2081,-5.0893 2.5629,-7.45515 0.4053,-2.70299 1.4711,-4.95129 2.8678,-6.04995 1.2225,-0.96162 2.6709,-3.09058 3.2188,-4.73103 0.9759,-2.92232 1.1153,-2.97539 6.8955,-2.62497 3.2447,0.1967 6.794,0.9842 7.8873,1.75 1.0933,0.76579 3.1253,1.38857 4.5154,1.38395 2.4896,-0.008 2.5319,-0.14088 2.8236,-8.84666 l 0.2961,-8.83825 -6.2961,1.59665 c -3.4629,0.87816 -6.8382,2.10664 -7.5008,2.72994 -0.6626,0.62331 -3.4727,1.94885 -6.2447,2.94565 -2.8707,1.03226 -5.2865,2.589 -5.6127,3.61671 -0.315,0.9924 -1.1459,1.80436 -1.8464,1.80436 -0.7005,0 -2.4907,2.23614 -3.9782,4.96919 -1.4876,2.73306 -3.13407,5.23462 -3.65896,5.55902 -0.5249,0.3244 -0.95436,1.65096 -0.95436,2.9479 0,1.29694 -0.9,4.45769 -2,7.02389 -2.44231,5.69767 -2.46268,6.248 -0.25,6.75183 2.59067,0.5899 5.11652,-0.984 7.27482,-4.53308 z m 44.9752,-49.55208 c 0,-3.76928 -0.9494,-4.52244 -3.1689,-2.51386 -2.7345,2.47472 -2.3752,5.34719 0.6689,5.34719 2.0784,0 2.5,-0.47778 2.5,-2.83333 z m 43.8818,-1.16667 c 0.8684,-2.89837 1.7382,-4 3.1583,-4 1.3137,0 1.9599,-0.68076 1.9599,-2.06462 0,-2.66702 -3.9784,-11.93538 -5.1232,-11.93538 -0.4822,0 -0.8768,-0.73661 -0.8768,-1.63691 0,-1.42482 -0.8746,-1.54428 -6.75,-0.92199 -3.7125,0.39321 -7.875,0.80826 -9.25,0.92235 -3.5603,0.29539 -6.3105,2.03009 -12.0772,7.61756 -4.4447,4.30657 -4.9217,5.1526 -3.9397,6.98742 0.6145,1.14817 1.5325,1.83095 2.04,1.51728 2.5934,-1.6028 8.2312,-1.35329 11.7242,0.51886 2.0477,1.09749 4.6297,2.00811 5.7379,2.0236 1.1081,0.0155 4.0398,1.10637 6.5148,2.42417 2.475,1.31781 4.7662,2.43013 5.0917,2.47183 0.3254,0.0417 1.131,-1.72417 1.7901,-3.92417 z"
       id="path3140"
       inkscape:connector-curvature="0" />
  </g>
</svg>
