  0
SECTION
  2
HEADER
  9
$ACADVER
  1
AC1014
  9
$HANDSEED
  5
FFFF
  9
$MEASUREMENT
 70
     1
  0
ENDSEC
  0
SECTION
  2
TABLES
  0
TABLE
  2
VPORT
  5
8
330
0
100
AcDbSymbolTable
 70
     4
  0
VPORT
  5
2E
330
8
100
AcDbSymbolTableRecord
100
AcDbViewportTableRecord
  2
*ACTIVE
 70
     0
 10
0.0
 20
0.0
 11
1.0
 21
1.0
 12
210.0
 22
148.5
 13
0.0
 23
0.0
 14
10.0
 24
10.0
 15
10.0
 25
10.0
 16
0.0
 26
0.0
 36
1.0
 17
0.0
 27
0.0
 37
0.0
 40
341.0
 41
1.24
 42
50.0
 43
0.0
 44
0.0
 50
0.0
 51
0.0
 71
     0
 72
   100
 73
     1
 74
     3
 75
     0
 76
     0
 77
     0
 78
     0
  0
ENDTAB
  0
TABLE
  2
LTYPE
  5
5
330
0
100
AcDbSymbolTable
 70
     1
  0
LTYPE
  5
14
330
5
100
AcDbSymbolTableRecord
100
AcDbLinetypeTableRecord
  2
BYBLOCK
 70
     0
  3

 72
    65
 73
     0
 40
0.0
  0
LTYPE
  5
15
330
5
100
AcDbSymbolTableRecord
100
AcDbLinetypeTableRecord
  2
BYLAYER
 70
     0
  3

 72
    65
 73
     0
 40
0.0
  0
LTYPE
  5
16
330
5
100
AcDbSymbolTableRecord
100
AcDbLinetypeTableRecord
  2
CONTINUOUS
 70
     0
  3
Solid line
 72
    65
 73
     0
 40
0.0
  0
ENDTAB
  0
TABLE
  2
LAYER
  5
2
100
AcDbSymbolTable
 70
2
  0
LAYER
  5
50
100
AcDbSymbolTableRecord
100
AcDbLayerTableRecord
  2
0
 70
0
  6
CONTINUOUS
  0
LAYER
  5
51
100
AcDbSymbolTableRecord
100
AcDbLayerTableRecord
  2
Layer_1
 70
0
  6
CONTINUOUS
  0
ENDTAB
  0
TABLE
  2
STYLE
  5
3
330
0
100
AcDbSymbolTable
 70
     1
  0
STYLE
  5
11
330
3
100
AcDbSymbolTableRecord
100
AcDbTextStyleTableRecord
  2
STANDARD
 70
     0
 40
0.0
 41
1.0
 50
0.0
 71
     0
 42
2.5
  3
txt
  4

  0
ENDTAB
  0
TABLE
  2
VIEW
  5
6
330
0
100
AcDbSymbolTable
 70
     0
  0
ENDTAB
  0
TABLE
  2
UCS
  5
7
330
0
100
AcDbSymbolTable
 70
     0
  0
ENDTAB
  0
TABLE
  2
APPID
  5
9
330
0
100
AcDbSymbolTable
 70
     2
  0
APPID
  5
12
330
9
100
AcDbSymbolTableRecord
100
AcDbRegAppTableRecord
  2
ACAD
 70
     0
  0
ENDTAB
  0
TABLE
  2
DIMSTYLE
  5
A
330
0
100
AcDbSymbolTable
 70
     1
  0
DIMSTYLE
105
27
330
A
100
AcDbSymbolTableRecord
100
AcDbDimStyleTableRecord
  2
ISO-25
 70
     0
  3

  4

  5

  6

  7

 40
1.0
 41
2.5
 42
0.625
 43
3.75
 44
1.25
 45
0.0
 46
0.0
 47
0.0
 48
0.0
140
2.5
141
2.5
142
0.0
143
0.03937007874016
144
1.0
145
0.0
146
1.0
147
0.625
 71
     0
 72
     0
 73
     0
 74
     0
 75
     0
 76
     0
 77
     1
 78
     8
170
     0
171
     3
172
     1
173
     0
174
     0
175
     0
176
     0
177
     0
178
     0
270
     2
271
     2
272
     2
273
     2
274
     3
340
11
275
     0
280
     0
281
     0
282
     0
283
     0
284
     8
285
     0
286
     0
287
     3
288
     0
  0
ENDTAB
  0
TABLE
  2
BLOCK_RECORD
  5
1
330
0
100
AcDbSymbolTable
 70
     1
  0
BLOCK_RECORD
  5
1F
330
1
100
AcDbSymbolTableRecord
100
AcDbBlockTableRecord
  2
*MODEL_SPACE
  0
BLOCK_RECORD
  5
1B
330
1
100
AcDbSymbolTableRecord
100
AcDbBlockTableRecord
  2
*PAPER_SPACE
  0
ENDTAB
  0
ENDSEC
  0
SECTION
  2
BLOCKS
  0
BLOCK
  5
20
330
1F
100
AcDbEntity
  8
0
100
AcDbBlockBegin
  2
*MODEL_SPACE
 70
     0
 10
0.0
 20
0.0
 30
0.0
  3
*MODEL_SPACE
  1

  0
ENDBLK
  5
21
330
1F
100
AcDbEntity
  8
0
100
AcDbBlockEnd
  0
BLOCK
  5
1C
330
1B
100
AcDbEntity
 67
     1
  8
0
100
AcDbBlockBegin
  2
*PAPER_SPACE
  1

  0
ENDBLK
  5
1D
330
1B
100
AcDbEntity
 67
     1
  8
0
100
AcDbBlockEnd
  0
ENDSEC
  0
SECTION
  2
ENTITIES
  0
SPLINE
  5
100
100
AcDbEntity
  8
Layer_1
 62
7
100
AcDbSpline
 70
8
 71
3
 72
8
 73
4
 74
0
 40
0
 40
0
 40
0
 40
0
 40
1
 40
1
 40
1
 40
1
 10
166.345248
 20
534.966964
 30
0.0
 10
166.345248
 20
536.125020
 30
0.0
 10
165.679888
 20
537.294908
 30
0.0
 10
164.733048
 20
537.801636
 30
0.0
  0
SPLINE
  5
101
100
AcDbEntity
  8
Layer_1
 62
7
100
AcDbSpline
 70
8
 71
3
 72
8
 73
4
 74
0
 40
0
 40
0
 40
0
 40
0
 40
1
 40
1
 40
1
 40
1
 10
164.733048
 20
537.801636
 30
0.0
 10
161.597424
 20
539.479772
 30
0.0
 10
160.080472
 20
544.666908
 30
0.0
 10
159.587912
 20
555.395108
 30
0.0
  0
SPLINE
  5
102
100
AcDbEntity
  8
Layer_1
 62
7
100
AcDbSpline
 70
8
 71
3
 72
8
 73
4
 74
0
 40
0
 40
0
 40
0
 40
0
 40
1
 40
1
 40
1
 40
1
 10
159.587912
 20
555.395108
 30
0.0
 10
158.647904
 20
575.868852
 30
0.0
 10
158.594784
 20
576.163588
 30
0.0
 10
154.219088
 20
585.184252
 30
0.0
  0
SPLINE
  5
103
100
AcDbEntity
  8
Layer_1
 62
7
100
AcDbSpline
 70
8
 71
3
 72
8
 73
4
 74
0
 40
0
 40
0
 40
0
 40
0
 40
1
 40
1
 40
1
 40
1
 10
154.219088
 20
585.184252
 30
0.0
 10
153.848472
 20
585.948284
 30
0.0
 10
153.545248
 20
587.424668
 30
0.0
 10
153.545248
 20
588.465100
 30
0.0
  0
SPLINE
  5
104
100
AcDbEntity
  8
Layer_1
 62
7
100
AcDbSpline
 70
8
 71
3
 72
8
 73
4
 74
0
 40
0
 40
0
 40
0
 40
0
 40
1
 40
1
 40
1
 40
1
 10
153.545248
 20
588.465100
 30
0.0
 10
153.545248
 20
589.505540
 30
0.0
 10
152.707192
 20
591.940428
 30
0.0
 10
151.682912
 20
593.875964
 30
0.0
  0
SPLINE
  5
105
100
AcDbEntity
  8
Layer_1
 62
7
100
AcDbSpline
 70
8
 71
3
 72
8
 73
4
 74
0
 40
0
 40
0
 40
0
 40
0
 40
1
 40
1
 40
1
 40
1
 10
151.682912
 20
593.875964
 30
0.0
 10
149.848904
 20
597.341572
 30
0.0
 10
148.798960
 20
603.165924
 30
0.0
 10
147.154728
 20
618.995116
 30
0.0
  0
SPLINE
  5
106
100
AcDbEntity
  8
Layer_1
 62
7
100
AcDbSpline
 70
8
 71
3
 72
8
 73
4
 74
0
 40
0
 40
0
 40
0
 40
0
 40
1
 40
1
 40
1
 40
1
 10
147.154728
 20
618.995116
 30
0.0
 10
146.000280
 20
630.109076
 30
0.0
 10
145.534608
 20
632.214100
 30
0.0
 10
143.086376
 20
637.385380
 30
0.0
  0
SPLINE
  5
107
100
AcDbEntity
  8
Layer_1
 62
7
100
AcDbSpline
 70
8
 71
3
 72
8
 73
4
 74
0
 40
0
 40
0
 40
0
 40
0
 40
1
 40
1
 40
1
 40
1
 10
143.086376
 20
637.385380
 30
0.0
 10
140.831560
 20
642.148148
 30
0.0
 10
138.164872
 20
644.514684
 30
0.0
 10
130.957352
 20
648.149236
 30
0.0
  0
SPLINE
  5
108
100
AcDbEntity
  8
Layer_1
 62
7
100
AcDbSpline
 70
8
 71
3
 72
8
 73
4
 74
0
 40
0
 40
0
 40
0
 40
0
 40
1
 40
1
 40
1
 40
1
 10
130.957352
 20
648.149236
 30
0.0
 10
129.492552
 20
648.887892
 30
0.0
 10
128.609792
 20
650.103636
 30
0.0
 10
128.286344
 20
651.827764
 30
0.0
  0
SPLINE
  5
109
100
AcDbEntity
  8
Layer_1
 62
7
100
AcDbSpline
 70
8
 71
3
 72
8
 73
4
 74
0
 40
0
 40
0
 40
0
 40
0
 40
1
 40
1
 40
1
 40
1
 10
128.286344
 20
651.827764
 30
0.0
 10
127.974896
 20
653.487900
 30
0.0
 10
127.117760
 20
654.715316
 30
0.0
 10
125.874232
 20
655.281908
 30
0.0
  0
SPLINE
  5
10a
100
AcDbEntity
  8
Layer_1
 62
7
100
AcDbSpline
 70
8
 71
3
 72
8
 73
4
 74
0
 40
0
 40
0
 40
0
 40
0
 40
1
 40
1
 40
1
 40
1
 10
125.874232
 20
655.281908
 30
0.0
 10
124.391640
 20
655.957428
 30
0.0
 10
123.945248
 20
656.784044
 30
0.0
 10
123.945248
 20
658.853972
 30
0.0
  0
SPLINE
  5
10b
100
AcDbEntity
  8
Layer_1
 62
7
100
AcDbSpline
 70
8
 71
3
 72
8
 73
4
 74
0
 40
0
 40
0
 40
0
 40
0
 40
1
 40
1
 40
1
 40
1
 10
123.945248
 20
658.853972
 30
0.0
 10
123.945248
 20
661.702764
 30
0.0
 10
121.974552
 20
664.195108
 30
0.0
 10
119.722008
 20
664.195108
 30
0.0
  0
SPLINE
  5
10c
100
AcDbEntity
  8
Layer_1
 62
7
100
AcDbSpline
 70
8
 71
3
 72
8
 73
4
 74
0
 40
0
 40
0
 40
0
 40
0
 40
1
 40
1
 40
1
 40
1
 10
119.722008
 20
664.195108
 30
0.0
 10
119.008520
 20
664.195108
 30
0.0
 10
118.080320
 20
664.810580
 30
0.0
 10
117.659352
 20
665.562812
 30
0.0
  0
SPLINE
  5
10d
100
AcDbEntity
  8
Layer_1
 62
7
100
AcDbSpline
 70
8
 71
3
 72
8
 73
4
 74
0
 40
0
 40
0
 40
0
 40
0
 40
1
 40
1
 40
1
 40
1
 10
117.659352
 20
665.562812
 30
0.0
 10
117.034544
 20
666.679276
 30
0.0
 10
115.594448
 20
666.948676
 30
0.0
 10
109.819600
 20
667.029388
 30
0.0
  0
SPLINE
  5
10e
100
AcDbEntity
  8
Layer_1
 62
7
100
AcDbSpline
 70
8
 71
3
 72
8
 73
4
 74
0
 40
0
 40
0
 40
0
 40
0
 40
1
 40
1
 40
1
 40
1
 10
109.819600
 20
667.029388
 30
0.0
 10
105.579608
 20
667.088668
 30
0.0
 10
101.322400
 20
666.667660
 30
0.0
 10
99.193928
 20
665.978596
 30
0.0
  0
SPLINE
  5
10f
100
AcDbEntity
  8
Layer_1
 62
7
100
AcDbSpline
 70
8
 71
3
 72
8
 73
4
 74
0
 40
0
 40
0
 40
0
 40
0
 40
1
 40
1
 40
1
 40
1
 10
99.193928
 20
665.978596
 30
0.0
 10
96.033056
 20
664.955324
 30
0.0
 10
95.404384
 20
664.969628
 30
0.0
 10
93.475904
 20
666.108820
 30
0.0
  0
SPLINE
  5
110
100
AcDbEntity
  8
Layer_1
 62
7
100
AcDbSpline
 70
8
 71
3
 72
8
 73
4
 74
0
 40
0
 40
0
 40
0
 40
0
 40
1
 40
1
 40
1
 40
1
 10
93.475904
 20
666.108820
 30
0.0
 10
91.491216
 20
667.281204
 30
0.0
 10
90.949480
 20
667.281516
 30
0.0
 10
87.027224
 20
666.112820
 30
0.0
  0
SPLINE
  5
111
100
AcDbEntity
  8
Layer_1
 62
7
100
AcDbSpline
 70
8
 71
3
 72
8
 73
4
 74
0
 40
0
 40
0
 40
0
 40
0
 40
1
 40
1
 40
1
 40
1
 10
87.027224
 20
666.112820
 30
0.0
 10
79.322874
 20
663.816580
 30
0.0
 10
79.304322
 20
663.802428
 30
0.0
 10
78.697890
 20
659.758476
 30
0.0
  0
SPLINE
  5
112
100
AcDbEntity
  8
Layer_1
 62
7
100
AcDbSpline
 70
8
 71
3
 72
8
 73
4
 74
0
 40
0
 40
0
 40
0
 40
0
 40
1
 40
1
 40
1
 40
1
 10
78.697890
 20
659.758476
 30
0.0
 10
78.240138
 20
656.705956
 30
0.0
 10
78.467322
 20
655.439676
 30
0.0
 10
79.961370
 20
652.716092
 30
0.0
  0
SPLINE
  5
113
100
AcDbEntity
  8
Layer_1
 62
7
100
AcDbSpline
 70
8
 71
3
 72
8
 73
4
 74
0
 40
0
 40
0
 40
0
 40
0
 40
1
 40
1
 40
1
 40
1
 10
79.961370
 20
652.716092
 30
0.0
 10
82.731304
 20
647.666612
 30
0.0
 10
83.930104
 20
646.595420
 30
0.0
 10
86.811176
 20
646.595420
 30
0.0
  0
SPLINE
  5
114
100
AcDbEntity
  8
Layer_1
 62
7
100
AcDbSpline
 70
8
 71
3
 72
8
 73
4
 74
0
 40
0
 40
0
 40
0
 40
0
 40
1
 40
1
 40
1
 40
1
 10
86.811176
 20
646.595420
 30
0.0
 10
88.687176
 20
646.595420
 30
0.0
 10
89.899488
 20
647.193396
 30
0.0
 10
91.088808
 20
648.705372
 30
0.0
  0
SPLINE
  5
115
100
AcDbEntity
  8
Layer_1
 62
7
100
AcDbSpline
 70
8
 71
3
 72
8
 73
4
 74
0
 40
0
 40
0
 40
0
 40
0
 40
1
 40
1
 40
1
 40
1
 10
91.088808
 20
648.705372
 30
0.0
 10
92.674400
 20
650.721116
 30
0.0
 10
92.953800
 20
650.784716
 30
0.0
 10
97.346872
 20
650.129820
 30
0.0
  0
SPLINE
  5
116
100
AcDbEntity
  8
Layer_1
 62
7
100
AcDbSpline
 70
8
 71
3
 72
8
 73
4
 74
0
 40
0
 40
0
 40
0
 40
0
 40
1
 40
1
 40
1
 40
1
 10
97.346872
 20
650.129820
 30
0.0
 10
99.875976
 20
649.752796
 30
0.0
 10
103.945984
 20
649.453308
 30
0.0
 10
106.391336
 20
649.464300
 30
0.0
  0
SPLINE
  5
117
100
AcDbEntity
  8
Layer_1
 62
7
100
AcDbSpline
 70
8
 71
3
 72
8
 73
4
 74
0
 40
0
 40
0
 40
0
 40
0
 40
1
 40
1
 40
1
 40
1
 10
106.391336
 20
649.464300
 30
0.0
 10
110.146584
 20
649.481180
 30
0.0
 10
111.059720
 20
649.189588
 30
0.0
 10
112.268072
 20
647.587636
 30
0.0
  0
SPLINE
  5
118
100
AcDbEntity
  8
Layer_1
 62
7
100
AcDbSpline
 70
8
 71
3
 72
8
 73
4
 74
0
 40
0
 40
0
 40
0
 40
0
 40
1
 40
1
 40
1
 40
1
 10
112.268072
 20
647.587636
 30
0.0
 10
113.631368
 20
645.780276
 30
0.0
 10
113.632776
 20
645.618124
 30
0.0
 10
112.297992
 20
644.143204
 30
0.0
  0
SPLINE
  5
119
100
AcDbEntity
  8
Layer_1
 62
7
100
AcDbSpline
 70
8
 71
3
 72
8
 73
4
 74
0
 40
0
 40
0
 40
0
 40
0
 40
1
 40
1
 40
1
 40
1
 10
112.297992
 20
644.143204
 30
0.0
 10
111.165400
 20
642.891708
 30
0.0
 10
109.887288
 20
642.610684
 30
0.0
 10
105.621256
 20
642.675164
 30
0.0
  0
SPLINE
  5
11a
100
AcDbEntity
  8
Layer_1
 62
7
100
AcDbSpline
 70
8
 71
3
 72
8
 73
4
 74
0
 40
0
 40
0
 40
0
 40
0
 40
1
 40
1
 40
1
 40
1
 10
105.621256
 20
642.675164
 30
0.0
 10
102.719448
 20
642.718684
 30
0.0
 10
99.445248
 20
643.016916
 30
0.0
 10
98.345248
 20
643.337524
 30
0.0
  0
SPLINE
  5
11b
100
AcDbEntity
  8
Layer_1
 62
7
100
AcDbSpline
 70
8
 71
3
 72
8
 73
4
 74
0
 40
0
 40
0
 40
0
 40
0
 40
1
 40
1
 40
1
 40
1
 10
98.345248
 20
643.337524
 30
0.0
 10
96.789352
 20
643.791004
 30
0.0
 10
95.761736
 20
643.418004
 30
0.0
 10
93.717408
 20
641.657772
 30
0.0
  0
SPLINE
  5
11c
100
AcDbEntity
  8
Layer_1
 62
7
100
AcDbSpline
 70
8
 71
3
 72
8
 73
4
 74
0
 40
0
 40
0
 40
0
 40
0
 40
1
 40
1
 40
1
 40
1
 10
93.717408
 20
641.657772
 30
0.0
 10
90.923472
 20
639.252084
 30
0.0
 10
88.507552
 20
638.886660
 30
0.0
 10
83.980568
 20
640.184988
 30
0.0
  0
SPLINE
  5
11d
100
AcDbEntity
  8
Layer_1
 62
7
100
AcDbSpline
 70
8
 71
3
 72
8
 73
4
 74
0
 40
0
 40
0
 40
0
 40
0
 40
1
 40
1
 40
1
 40
1
 10
83.980568
 20
640.184988
 30
0.0
 10
81.106736
 20
641.009188
 30
0.0
 10
74.345250
 20
646.999228
 30
0.0
 10
74.345250
 20
648.720972
 30
0.0
  0
SPLINE
  5
11e
100
AcDbEntity
  8
Layer_1
 62
7
100
AcDbSpline
 70
8
 71
3
 72
8
 73
4
 74
0
 40
0
 40
0
 40
0
 40
0
 40
1
 40
1
 40
1
 40
1
 10
74.345250
 20
648.720972
 30
0.0
 10
74.345250
 20
649.266956
 30
0.0
 10
73.074346
 20
650.683044
 30
0.0
 10
71.521034
 20
651.867820
 30
0.0
  0
SPLINE
  5
11f
100
AcDbEntity
  8
Layer_1
 62
7
100
AcDbSpline
 70
8
 71
3
 72
8
 73
4
 74
0
 40
0
 40
0
 40
0
 40
0
 40
1
 40
1
 40
1
 40
1
 10
71.521034
 20
651.867820
 30
0.0
 10
68.903362
 20
653.864420
 30
0.0
 10
68.307874
 20
653.985636
 30
0.0
 10
63.378626
 20
653.525332
 30
0.0
  0
SPLINE
  5
120
100
AcDbEntity
  8
Layer_1
 62
7
100
AcDbSpline
 70
8
 71
3
 72
8
 73
4
 74
0
 40
0
 40
0
 40
0
 40
0
 40
1
 40
1
 40
1
 40
1
 10
63.378626
 20
653.525332
 30
0.0
 10
60.453626
 20
653.252204
 30
0.0
 10
57.821098
 20
652.641452
 30
0.0
 10
57.528562
 20
652.168108
 30
0.0
  0
SPLINE
  5
121
100
AcDbEntity
  8
Layer_1
 62
7
100
AcDbSpline
 70
8
 71
3
 72
8
 73
4
 74
0
 40
0
 40
0
 40
0
 40
0
 40
1
 40
1
 40
1
 40
1
 10
57.528562
 20
652.168108
 30
0.0
 10
57.236026
 20
651.694780
 30
0.0
 10
53.700106
 20
651.093932
 30
0.0
 10
49.670962
 20
650.832892
 30
0.0
  0
LWPOLYLINE
  5
122
100
AcDbEntity
  8
Layer_1
 62
7
100
AcDbPolyline
 90
5
 70
0
 10
42.345250
 20
514.595108
 30
0.0
 10
42.345250
 20
532.995108
 30
0.0
 10
104.345248
 20
532.995108
 30
0.0
 10
166.345248
 20
532.995108
 30
0.0
 10
166.345248
 20
534.966964
 30
0.0
  0
SPLINE
  5
123
100
AcDbEntity
  8
Layer_1
 62
7
100
AcDbSpline
 70
8
 71
3
 72
8
 73
4
 74
0
 40
0
 40
0
 40
0
 40
0
 40
1
 40
1
 40
1
 40
1
 10
495.345248
 20
686.913124
 30
0.0
 10
490.615248
 20
687.197612
 30
0.0
 10
483.685248
 20
687.945692
 30
0.0
 10
479.945248
 20
688.575532
 30
0.0
  0
SPLINE
  5
124
100
AcDbEntity
  8
Layer_1
 62
7
100
AcDbSpline
 70
8
 71
3
 72
8
 73
4
 74
0
 40
0
 40
0
 40
0
 40
0
 40
1
 40
1
 40
1
 40
1
 10
479.945248
 20
688.575532
 30
0.0
 10
476.205248
 20
689.205364
 30
0.0
 10
468.105248
 20
689.939076
 30
0.0
 10
461.945248
 20
690.205988
 30
0.0
  0
SPLINE
  5
125
100
AcDbEntity
  8
Layer_1
 62
7
100
AcDbSpline
 70
8
 71
3
 72
8
 73
4
 74
0
 40
0
 40
0
 40
0
 40
0
 40
1
 40
1
 40
1
 40
1
 10
461.945248
 20
690.205988
 30
0.0
 10
451.188712
 20
690.672092
 30
0.0
 10
450.602704
 20
690.615428
 30
0.0
 10
447.145248
 20
688.774740
 30
0.0
  0
SPLINE
  5
126
100
AcDbEntity
  8
Layer_1
 62
7
100
AcDbSpline
 70
8
 71
3
 72
8
 73
4
 74
0
 40
0
 40
0
 40
0
 40
0
 40
1
 40
1
 40
1
 40
1
 10
447.145248
 20
688.774740
 30
0.0
 10
445.165248
 20
687.720636
 30
0.0
 10
441.460336
 20
686.614092
 30
0.0
 10
438.912112
 20
686.315756
 30
0.0
  0
SPLINE
  5
127
100
AcDbEntity
  8
Layer_1
 62
7
100
AcDbSpline
 70
8
 71
3
 72
8
 73
4
 74
0
 40
0
 40
0
 40
0
 40
0
 40
1
 40
1
 40
1
 40
1
 10
438.912112
 20
686.315756
 30
0.0
 10
434.618720
 20
685.813124
 30
0.0
 10
427.945248
 20
682.686428
 30
0.0
 10
427.945248
 20
681.177516
 30
0.0
  0
SPLINE
  5
128
100
AcDbEntity
  8
Layer_1
 62
7
100
AcDbSpline
 70
8
 71
3
 72
8
 73
4
 74
0
 40
0
 40
0
 40
0
 40
0
 40
1
 40
1
 40
1
 40
1
 10
427.945248
 20
681.177516
 30
0.0
 10
427.945248
 20
679.619084
 30
0.0
 10
423.801584
 20
678.370236
 30
0.0
 10
416.537072
 20
677.739220
 30
0.0
  0
SPLINE
  5
129
100
AcDbEntity
  8
Layer_1
 62
7
100
AcDbSpline
 70
8
 71
3
 72
8
 73
4
 74
0
 40
0
 40
0
 40
0
 40
0
 40
1
 40
1
 40
1
 40
1
 10
416.537072
 20
677.739220
 30
0.0
 10
406.149752
 20
676.836972
 30
0.0
 10
405.754192
 20
676.678148
 30
0.0
 10
404.641032
 20
672.962756
 30
0.0
  0
SPLINE
  5
12a
100
AcDbEntity
  8
Layer_1
 62
7
100
AcDbSpline
 70
8
 71
3
 72
8
 73
4
 74
0
 40
0
 40
0
 40
0
 40
0
 40
1
 40
1
 40
1
 40
1
 10
404.641032
 20
672.962756
 30
0.0
 10
403.731504
 20
669.927004
 30
0.0
 10
397.599040
 20
662.595108
 30
0.0
 10
395.969440
 20
662.595108
 30
0.0
  0
SPLINE
  5
12b
100
AcDbEntity
  8
Layer_1
 62
7
100
AcDbSpline
 70
8
 71
3
 72
8
 73
4
 74
0
 40
0
 40
0
 40
0
 40
0
 40
1
 40
1
 40
1
 40
1
 10
395.969440
 20
662.595108
 30
0.0
 10
395.527944
 20
662.595108
 30
0.0
 10
394.629128
 20
661.425116
 30
0.0
 10
393.972064
 20
659.995108
 30
0.0
  0
SPLINE
  5
12c
100
AcDbEntity
  8
Layer_1
 62
7
100
AcDbSpline
 70
8
 71
3
 72
8
 73
4
 74
0
 40
0
 40
0
 40
0
 40
0
 40
1
 40
1
 40
1
 40
1
 10
393.972064
 20
659.995108
 30
0.0
 10
393.315008
 20
658.565116
 30
0.0
 10
392.466128
 20
656.855108
 30
0.0
 10
392.085672
 20
656.195108
 30
0.0
  0
SPLINE
  5
12d
100
AcDbEntity
  8
Layer_1
 62
7
100
AcDbSpline
 70
8
 71
3
 72
8
 73
4
 74
0
 40
0
 40
0
 40
0
 40
0
 40
1
 40
1
 40
1
 40
1
 10
392.085672
 20
656.195108
 30
0.0
 10
389.079968
 20
650.980964
 30
0.0
 10
388.810648
 20
647.759188
 30
0.0
 10
390.816000
 20
641.006420
 30
0.0
  0
SPLINE
  5
12e
100
AcDbEntity
  8
Layer_1
 62
7
100
AcDbSpline
 70
8
 71
3
 72
8
 73
4
 74
0
 40
0
 40
0
 40
0
 40
0
 40
1
 40
1
 40
1
 40
1
 10
390.816000
 20
641.006420
 30
0.0
 10
392.701744
 20
634.656436
 30
0.0
 10
391.696720
 20
629.788588
 30
0.0
 10
386.936872
 20
622.217908
 30
0.0
  0
SPLINE
  5
12f
100
AcDbEntity
  8
Layer_1
 62
7
100
AcDbSpline
 70
8
 71
3
 72
8
 73
4
 74
0
 40
0
 40
0
 40
0
 40
0
 40
1
 40
1
 40
1
 40
1
 10
386.936872
 20
622.217908
 30
0.0
 10
380.154120
 20
611.429732
 30
0.0
 10
378.095528
 20
608.944028
 30
0.0
 10
372.978104
 20
605.363036
 30
0.0
  0
SPLINE
  5
130
100
AcDbEntity
  8
Layer_1
 62
7
100
AcDbSpline
 70
8
 71
3
 72
8
 73
4
 74
0
 40
0
 40
0
 40
0
 40
0
 40
1
 40
1
 40
1
 40
1
 10
372.978104
 20
605.363036
 30
0.0
 10
369.990032
 20
603.272092
 30
0.0
 10
366.285248
 20
601.217932
 30
0.0
 10
364.745248
 20
600.798260
 30
0.0
  0
SPLINE
  5
131
100
AcDbEntity
  8
Layer_1
 62
7
100
AcDbSpline
 70
8
 71
3
 72
8
 73
4
 74
0
 40
0
 40
0
 40
0
 40
0
 40
1
 40
1
 40
1
 40
1
 10
364.745248
 20
600.798260
 30
0.0
 10
363.205248
 20
600.378580
 30
0.0
 10
359.882960
 20
598.789812
 30
0.0
 10
357.362376
 20
597.267644
 30
0.0
  0
SPLINE
  5
132
100
AcDbEntity
  8
Layer_1
 62
7
100
AcDbSpline
 70
8
 71
3
 72
8
 73
4
 74
0
 40
0
 40
0
 40
0
 40
0
 40
1
 40
1
 40
1
 40
1
 10
357.362376
 20
597.267644
 30
0.0
 10
351.805464
 20
593.911852
 30
0.0
 10
348.976880
 20
593.379876
 30
0.0
 10
342.729984
 20
594.515660
 30
0.0
  0
SPLINE
  5
133
100
AcDbEntity
  8
Layer_1
 62
7
100
AcDbSpline
 70
8
 71
3
 72
8
 73
4
 74
0
 40
0
 40
0
 40
0
 40
0
 40
1
 40
1
 40
1
 40
1
 10
342.729984
 20
594.515660
 30
0.0
 10
337.005624
 20
595.556460
 30
0.0
 10
334.961384
 20
597.523876
 30
0.0
 10
335.217520
 20
601.745852
 30
0.0
  0
SPLINE
  5
134
100
AcDbEntity
  8
Layer_1
 62
7
100
AcDbSpline
 70
8
 71
3
 72
8
 73
4
 74
0
 40
0
 40
0
 40
0
 40
0
 40
1
 40
1
 40
1
 40
1
 10
335.217520
 20
601.745852
 30
0.0
 10
335.312592
 20
603.312940
 30
0.0
 10
334.821504
 20
605.855108
 30
0.0
 10
334.126216
 20
607.395108
 30
0.0
  0
SPLINE
  5
135
100
AcDbEntity
  8
Layer_1
 62
7
100
AcDbSpline
 70
8
 71
3
 72
8
 73
4
 74
0
 40
0
 40
0
 40
0
 40
0
 40
1
 40
1
 40
1
 40
1
 10
334.126216
 20
607.395108
 30
0.0
 10
333.430920
 20
608.935116
 30
0.0
 10
332.663936
 20
610.833276
 30
0.0
 10
332.421792
 20
611.613260
 30
0.0
  0
SPLINE
  5
136
100
AcDbEntity
  8
Layer_1
 62
7
100
AcDbSpline
 70
8
 71
3
 72
8
 73
4
 74
0
 40
0
 40
0
 40
0
 40
0
 40
1
 40
1
 40
1
 40
1
 10
332.421792
 20
611.613260
 30
0.0
 10
331.809344
 20
613.586068
 30
0.0
 10
330.114600
 20
614.062164
 30
0.0
 10
325.935424
 20
613.435460
 30
0.0
  0
SPLINE
  5
137
100
AcDbEntity
  8
Layer_1
 62
7
100
AcDbSpline
 70
8
 71
3
 72
8
 73
4
 74
0
 40
0
 40
0
 40
0
 40
0
 40
1
 40
1
 40
1
 40
1
 10
325.935424
 20
613.435460
 30
0.0
 10
323.562240
 20
613.079580
 30
0.0
 10
322.345248
 20
612.500140
 30
0.0
 10
322.345248
 20
611.726100
 30
0.0
  0
SPLINE
  5
138
100
AcDbEntity
  8
Layer_1
 62
7
100
AcDbSpline
 70
8
 71
3
 72
8
 73
4
 74
0
 40
0
 40
0
 40
0
 40
0
 40
1
 40
1
 40
1
 40
1
 10
322.345248
 20
611.726100
 30
0.0
 10
322.345248
 20
611.064996
 30
0.0
 10
321.300192
 20
610.346100
 30
0.0
 10
319.945248
 20
610.075116
 30
0.0
  0
SPLINE
  5
139
100
AcDbEntity
  8
Layer_1
 62
7
100
AcDbSpline
 70
8
 71
3
 72
8
 73
4
 74
0
 40
0
 40
0
 40
0
 40
0
 40
1
 40
1
 40
1
 40
1
 10
319.945248
 20
610.075116
 30
0.0
 10
317.677256
 20
609.621516
 30
0.0
 10
317.545248
 20
609.383204
 30
0.0
 10
317.545248
 20
605.742332
 30
0.0
  0
SPLINE
  5
13a
100
AcDbEntity
  8
Layer_1
 62
7
100
AcDbSpline
 70
8
 71
3
 72
8
 73
4
 74
0
 40
0
 40
0
 40
0
 40
0
 40
1
 40
1
 40
1
 40
1
 10
317.545248
 20
605.742332
 30
0.0
 10
317.545248
 20
603.623300
 30
0.0
 10
317.185248
 20
601.667052
 30
0.0
 10
316.745248
 20
601.395116
 30
0.0
  0
SPLINE
  5
13b
100
AcDbEntity
  8
Layer_1
 62
7
100
AcDbSpline
 70
8
 71
3
 72
8
 73
4
 74
0
 40
0
 40
0
 40
0
 40
0
 40
1
 40
1
 40
1
 40
1
 10
316.745248
 20
601.395116
 30
0.0
 10
316.305248
 20
601.123180
 30
0.0
 10
315.945248
 20
600.086772
 30
0.0
 10
315.945248
 20
599.091988
 30
0.0
  0
SPLINE
  5
13c
100
AcDbEntity
  8
Layer_1
 62
7
100
AcDbSpline
 70
8
 71
3
 72
8
 73
4
 74
0
 40
0
 40
0
 40
0
 40
0
 40
1
 40
1
 40
1
 40
1
 10
315.945248
 20
599.091988
 30
0.0
 10
315.945248
 20
598.097204
 30
0.0
 10
314.890712
 20
596.102132
 30
0.0
 10
313.601824
 20
594.658492
 30
0.0
  0
SPLINE
  5
13d
100
AcDbEntity
  8
Layer_1
 62
7
100
AcDbSpline
 70
8
 71
3
 72
8
 73
4
 74
0
 40
0
 40
0
 40
0
 40
0
 40
1
 40
1
 40
1
 40
1
 10
313.601824
 20
594.658492
 30
0.0
 10
311.362720
 20
592.150532
 30
0.0
 10
311.131120
 20
592.075692
 30
0.0
 10
308.399056
 20
592.977348
 30
0.0
  0
SPLINE
  5
13e
100
AcDbEntity
  8
Layer_1
 62
7
100
AcDbSpline
 70
8
 71
3
 72
8
 73
4
 74
0
 40
0
 40
0
 40
0
 40
0
 40
1
 40
1
 40
1
 40
1
 10
308.399056
 20
592.977348
 30
0.0
 10
306.826416
 20
593.496372
 30
0.0
 10
304.370952
 20
593.690180
 30
0.0
 10
302.942480
 20
593.408044
 30
0.0
  0
SPLINE
  5
13f
100
AcDbEntity
  8
Layer_1
 62
7
100
AcDbSpline
 70
8
 71
3
 72
8
 73
4
 74
0
 40
0
 40
0
 40
0
 40
0
 40
1
 40
1
 40
1
 40
1
 10
302.942480
 20
593.408044
 30
0.0
 10
299.797072
 20
592.786796
 30
0.0
 10
295.693496
 20
591.283780
 30
0.0
 10
295.145248
 20
590.552156
 30
0.0
  0
SPLINE
  5
140
100
AcDbEntity
  8
Layer_1
 62
7
100
AcDbSpline
 70
8
 71
3
 72
8
 73
4
 74
0
 40
0
 40
0
 40
0
 40
0
 40
1
 40
1
 40
1
 40
1
 10
295.145248
 20
590.552156
 30
0.0
 10
294.925248
 20
590.258564
 30
0.0
 10
293.623416
 20
589.443788
 30
0.0
 10
292.252288
 20
588.741548
 30
0.0
  0
SPLINE
  5
141
100
AcDbEntity
  8
Layer_1
 62
7
100
AcDbSpline
 70
8
 71
3
 72
8
 73
4
 74
0
 40
0
 40
0
 40
0
 40
0
 40
1
 40
1
 40
1
 40
1
 10
292.252288
 20
588.741548
 30
0.0
 10
289.372080
 20
587.266396
 30
0.0
 10
286.403376
 20
584.881836
 30
0.0
 10
282.857208
 20
581.195108
 30
0.0
  0
SPLINE
  5
142
100
AcDbEntity
  8
Layer_1
 62
7
100
AcDbSpline
 70
8
 71
3
 72
8
 73
4
 74
0
 40
0
 40
0
 40
0
 40
0
 40
1
 40
1
 40
1
 40
1
 10
282.857208
 20
581.195108
 30
0.0
 10
280.749576
 20
579.003940
 30
0.0
 10
279.779936
 20
578.595108
 30
0.0
 10
276.690760
 20
578.595108
 30
0.0
  0
SPLINE
  5
143
100
AcDbEntity
  8
Layer_1
 62
7
100
AcDbSpline
 70
8
 71
3
 72
8
 73
4
 74
0
 40
0
 40
0
 40
0
 40
0
 40
1
 40
1
 40
1
 40
1
 10
276.690760
 20
578.595108
 30
0.0
 10
274.251032
 20
578.595108
 30
0.0
 10
272.570504
 20
578.126924
 30
0.0
 10
271.665568
 20
577.195108
 30
0.0
  0
SPLINE
  5
144
100
AcDbEntity
  8
Layer_1
 62
7
100
AcDbSpline
 70
8
 71
3
 72
8
 73
4
 74
0
 40
0
 40
0
 40
0
 40
0
 40
1
 40
1
 40
1
 40
1
 10
271.665568
 20
577.195108
 30
0.0
 10
268.720200
 20
574.162276
 30
0.0
 10
266.345248
 20
569.614292
 30
0.0
 10
266.345248
 20
567.006804
 30
0.0
  0
SPLINE
  5
145
100
AcDbEntity
  8
Layer_1
 62
7
100
AcDbSpline
 70
8
 71
3
 72
8
 73
4
 74
0
 40
0
 40
0
 40
0
 40
0
 40
1
 40
1
 40
1
 40
1
 10
266.345248
 20
567.006804
 30
0.0
 10
266.345248
 20
565.512308
 30
0.0
 10
266.009472
 20
564.082020
 30
0.0
 10
265.599072
 20
563.828380
 30
0.0
  0
SPLINE
  5
146
100
AcDbEntity
  8
Layer_1
 62
7
100
AcDbSpline
 70
8
 71
3
 72
8
 73
4
 74
0
 40
0
 40
0
 40
0
 40
0
 40
1
 40
1
 40
1
 40
1
 10
265.599072
 20
563.828380
 30
0.0
 10
265.188672
 20
563.574740
 30
0.0
 10
264.432456
 20
561.303484
 30
0.0
 10
263.918584
 20
558.781164
 30
0.0
  0
SPLINE
  5
147
100
AcDbEntity
  8
Layer_1
 62
7
100
AcDbSpline
 70
8
 71
3
 72
8
 73
4
 74
0
 40
0
 40
0
 40
0
 40
0
 40
1
 40
1
 40
1
 40
1
 10
263.918584
 20
558.781164
 30
0.0
 10
263.404720
 20
556.258836
 30
0.0
 10
262.294064
 20
553.445068
 30
0.0
 10
261.450472
 20
552.528340
 30
0.0
  0
SPLINE
  5
148
100
AcDbEntity
  8
Layer_1
 62
7
100
AcDbSpline
 70
8
 71
3
 72
8
 73
4
 74
0
 40
0
 40
0
 40
0
 40
0
 40
1
 40
1
 40
1
 40
1
 10
261.450472
 20
552.528340
 30
0.0
 10
260.606872
 20
551.611612
 30
0.0
 10
259.512000
 20
548.731612
 30
0.0
 10
259.017408
 20
546.128340
 30
0.0
  0
SPLINE
  5
149
100
AcDbEntity
  8
Layer_1
 62
7
100
AcDbSpline
 70
8
 71
3
 72
8
 73
4
 74
0
 40
0
 40
0
 40
0
 40
0
 40
1
 40
1
 40
1
 40
1
 10
259.017408
 20
546.128340
 30
0.0
 10
257.370136
 20
537.457876
 30
0.0
 10
255.409056
 20
534.957676
 30
0.0
 10
249.145248
 20
533.542268
 30
0.0
  0
SPLINE
  5
14a
100
AcDbEntity
  8
Layer_1
 62
7
100
AcDbSpline
 70
8
 71
3
 72
8
 73
4
 74
0
 40
0
 40
0
 40
0
 40
0
 40
1
 40
1
 40
1
 40
1
 10
249.145248
 20
533.542268
 30
0.0
 10
248.265248
 20
533.343412
 30
0.0
 10
305.235248
 20
533.138948
 30
0.0
 10
375.745248
 20
533.087908
 30
0.0
  0
LWPOLYLINE
  5
14b
100
AcDbEntity
  8
Layer_1
 62
7
100
AcDbPolyline
 90
9
 70
0
 10
49.670962
 20
650.832892
 30
0.0
 10
42.345250
 20
650.358276
 30
0.0
 10
42.345250
 20
733.276700
 30
0.0
 10
42.345250
 20
816.195116
 30
0.0
 10
273.145248
 20
816.195116
 30
0.0
 10
503.945248
 20
816.195116
 30
0.0
 10
503.945248
 20
751.295500
 30
0.0
 10
503.945248
 20
686.395884
 30
0.0
 10
495.345248
 20
686.913124
 30
0.0
  0
SPLINE
  5
14c
100
AcDbEntity
  8
Layer_1
 62
7
100
AcDbSpline
 70
8
 71
3
 72
8
 73
4
 74
0
 40
0
 40
0
 40
0
 40
0
 40
1
 40
1
 40
1
 40
1
 10
279.165120
 20
594.020108
 30
0.0
 10
280.008960
 20
595.407700
 30
0.0
 10
280.931600
 20
598.091548
 30
0.0
 10
281.215424
 20
599.984236
 30
0.0
  0
SPLINE
  5
14d
100
AcDbEntity
  8
Layer_1
 62
7
100
AcDbSpline
 70
8
 71
3
 72
8
 73
4
 74
0
 40
0
 40
0
 40
0
 40
0
 40
1
 40
1
 40
1
 40
1
 10
281.215424
 20
599.984236
 30
0.0
 10
281.539696
 20
602.146620
 30
0.0
 10
282.392288
 20
603.945260
 30
0.0
 10
283.509656
 20
604.824196
 30
0.0
  0
SPLINE
  5
14e
100
AcDbEntity
  8
Layer_1
 62
7
100
AcDbSpline
 70
8
 71
3
 72
8
 73
4
 74
0
 40
0
 40
0
 40
0
 40
0
 40
1
 40
1
 40
1
 40
1
 10
283.509656
 20
604.824196
 30
0.0
 10
284.487664
 20
605.593492
 30
0.0
 10
285.646424
 20
607.296660
 30
0.0
 10
286.084688
 20
608.609012
 30
0.0
  0
SPLINE
  5
14f
100
AcDbEntity
  8
Layer_1
 62
7
100
AcDbSpline
 70
8
 71
3
 72
8
 73
4
 74
0
 40
0
 40
0
 40
0
 40
0
 40
1
 40
1
 40
1
 40
1
 10
286.084688
 20
608.609012
 30
0.0
 10
286.865416
 20
610.946876
 30
0.0
 10
286.976952
 20
610.989332
 30
0.0
 10
291.601104
 20
610.708996
 30
0.0
  0
SPLINE
  5
150
100
AcDbEntity
  8
Layer_1
 62
7
100
AcDbSpline
 70
8
 71
3
 72
8
 73
4
 74
0
 40
0
 40
0
 40
0
 40
0
 40
1
 40
1
 40
1
 40
1
 10
291.601104
 20
610.708996
 30
0.0
 10
294.196872
 20
610.551628
 30
0.0
 10
297.036312
 20
609.921636
 30
0.0
 10
297.910968
 20
609.308996
 30
0.0
  0
SPLINE
  5
151
100
AcDbEntity
  8
Layer_1
 62
7
100
AcDbSpline
 70
8
 71
3
 72
8
 73
4
 74
0
 40
0
 40
0
 40
0
 40
0
 40
1
 40
1
 40
1
 40
1
 10
297.910968
 20
609.308996
 30
0.0
 10
298.785624
 20
608.696364
 30
0.0
 10
300.411152
 20
608.198140
 30
0.0
 10
301.523256
 20
608.201828
 30
0.0
  0
SPLINE
  5
152
100
AcDbEntity
  8
Layer_1
 62
7
100
AcDbSpline
 70
8
 71
3
 72
8
 73
4
 74
0
 40
0
 40
0
 40
0
 40
0
 40
1
 40
1
 40
1
 40
1
 10
301.523256
 20
608.201828
 30
0.0
 10
303.514944
 20
608.208228
 30
0.0
 10
303.548800
 20
608.314532
 30
0.0
 10
303.782144
 20
615.279156
 30
0.0
  0
LWPOLYLINE
  5
153
100
AcDbEntity
  8
Layer_1
 62
7
100
AcDbPolyline
 90
8
 70
0
 10
375.745248
 20
533.087908
 30
0.0
 10
503.945248
 20
532.995108
 30
0.0
 10
503.945248
 20
514.595108
 30
0.0
 10
503.945248
 20
496.195108
 30
0.0
 10
273.145248
 20
496.195108
 30
0.0
 10
42.345250
 20
496.195108
 30
0.0
 10
42.345250
 20
514.595108
 30
0.0
 10
42.345250
 20
514.595108
 30
0.0
  0
SPLINE
  5
154
100
AcDbEntity
  8
Layer_1
 62
7
100
AcDbSpline
 70
8
 71
3
 72
8
 73
4
 74
0
 40
0
 40
0
 40
0
 40
0
 40
1
 40
1
 40
1
 40
1
 10
298.982144
 20
621.072436
 30
0.0
 10
296.211856
 20
620.369908
 30
0.0
 10
293.511552
 20
619.387124
 30
0.0
 10
292.981480
 20
618.888484
 30
0.0
  0
SPLINE
  5
155
100
AcDbEntity
  8
Layer_1
 62
7
100
AcDbSpline
 70
8
 71
3
 72
8
 73
4
 74
0
 40
0
 40
0
 40
0
 40
0
 40
1
 40
1
 40
1
 40
1
 10
292.981480
 20
618.888484
 30
0.0
 10
292.451400
 20
618.389836
 30
0.0
 10
290.203312
 20
617.329404
 30
0.0
 10
287.985712
 20
616.531964
 30
0.0
  0
SPLINE
  5
156
100
AcDbEntity
  8
Layer_1
 62
7
100
AcDbSpline
 70
8
 71
3
 72
8
 73
4
 74
0
 40
0
 40
0
 40
0
 40
0
 40
1
 40
1
 40
1
 40
1
 10
287.985712
 20
616.531964
 30
0.0
 10
285.689216
 20
615.706156
 30
0.0
 10
283.756520
 20
614.460764
 30
0.0
 10
283.495576
 20
613.638596
 30
0.0
  0
SPLINE
  5
157
100
AcDbEntity
  8
Layer_1
 62
7
100
AcDbSpline
 70
8
 71
3
 72
8
 73
4
 74
0
 40
0
 40
0
 40
0
 40
0
 40
1
 40
1
 40
1
 40
1
 10
283.495576
 20
613.638596
 30
0.0
 10
283.243592
 20
612.844676
 30
0.0
 10
282.578904
 20
612.195108
 30
0.0
 10
282.018480
 20
612.195108
 30
0.0
  0
SPLINE
  5
158
100
AcDbEntity
  8
Layer_1
 62
7
100
AcDbSpline
 70
8
 71
3
 72
8
 73
4
 74
0
 40
0
 40
0
 40
0
 40
0
 40
1
 40
1
 40
1
 40
1
 10
282.018480
 20
612.195108
 30
0.0
 10
281.458064
 20
612.195108
 30
0.0
 10
280.025888
 20
610.406196
 30
0.0
 10
278.835872
 20
608.219756
 30
0.0
  0
SPLINE
  5
159
100
AcDbEntity
  8
Layer_1
 62
7
100
AcDbSpline
 70
8
 71
3
 72
8
 73
4
 74
0
 40
0
 40
0
 40
0
 40
0
 40
1
 40
1
 40
1
 40
1
 10
278.835872
 20
608.219756
 30
0.0
 10
277.645864
 20
606.033308
 30
0.0
 10
276.328648
 20
604.032060
 30
0.0
 10
275.908736
 20
603.772540
 30
0.0
  0
SPLINE
  5
15a
100
AcDbEntity
  8
Layer_1
 62
7
100
AcDbSpline
 70
8
 71
3
 72
8
 73
4
 74
0
 40
0
 40
0
 40
0
 40
0
 40
1
 40
1
 40
1
 40
1
 10
275.908736
 20
603.772540
 30
0.0
 10
275.488816
 20
603.513020
 30
0.0
 10
275.145248
 20
602.451772
 30
0.0
 10
275.145248
 20
601.414220
 30
0.0
  0
SPLINE
  5
15b
100
AcDbEntity
  8
Layer_1
 62
7
100
AcDbSpline
 70
8
 71
3
 72
8
 73
4
 74
0
 40
0
 40
0
 40
0
 40
0
 40
1
 40
1
 40
1
 40
1
 10
275.145248
 20
601.414220
 30
0.0
 10
275.145248
 20
600.376668
 30
0.0
 10
274.425248
 20
597.848068
 30
0.0
 10
273.545248
 20
595.795108
 30
0.0
  0
SPLINE
  5
15c
100
AcDbEntity
  8
Layer_1
 62
7
100
AcDbSpline
 70
8
 71
3
 72
8
 73
4
 74
0
 40
0
 40
0
 40
0
 40
0
 40
1
 40
1
 40
1
 40
1
 10
273.545248
 20
595.795108
 30
0.0
 10
271.591400
 20
591.236972
 30
0.0
 10
271.575104
 20
590.796708
 30
0.0
 10
273.345248
 20
590.393644
 30
0.0
  0
SPLINE
  5
15d
100
AcDbEntity
  8
Layer_1
 62
7
100
AcDbSpline
 70
8
 71
3
 72
8
 73
4
 74
0
 40
0
 40
0
 40
0
 40
0
 40
1
 40
1
 40
1
 40
1
 10
273.345248
 20
590.393644
 30
0.0
 10
275.417784
 20
589.921724
 30
0.0
 10
277.438464
 20
591.180844
 30
0.0
 10
279.165120
 20
594.020108
 30
0.0
  0
LWPOLYLINE
  5
15e
100
AcDbEntity
  8
Layer_1
 62
7
100
AcDbPolyline
 90
3
 70
0
 10
303.782144
 20
615.279156
 30
0.0
 10
304.019048
 20
622.349756
 30
0.0
 10
298.982144
 20
621.072436
 30
0.0
  0
SPLINE
  5
15f
100
AcDbEntity
  8
Layer_1
 62
7
100
AcDbSpline
 70
8
 71
3
 72
8
 73
4
 74
0
 40
0
 40
0
 40
0
 40
0
 40
1
 40
1
 40
1
 40
1
 10
315.145248
 20
633.661772
 30
0.0
 10
315.145248
 20
636.677204
 30
0.0
 10
314.385736
 20
637.279732
 30
0.0
 10
312.610168
 20
635.672868
 30
0.0
  0
SPLINE
  5
160
100
AcDbEntity
  8
Layer_1
 62
7
100
AcDbSpline
 70
8
 71
3
 72
8
 73
4
 74
0
 40
0
 40
0
 40
0
 40
0
 40
1
 40
1
 40
1
 40
1
 10
312.610168
 20
635.672868
 30
0.0
 10
310.422544
 20
633.693092
 30
0.0
 10
310.709984
 20
631.395108
 30
0.0
 10
313.145248
 20
631.395108
 30
0.0
  0
SPLINE
  5
161
100
AcDbEntity
  8
Layer_1
 62
7
100
AcDbSpline
 70
8
 71
3
 72
8
 73
4
 74
0
 40
0
 40
0
 40
0
 40
0
 40
1
 40
1
 40
1
 40
1
 10
313.145248
 20
631.395108
 30
0.0
 10
314.807992
 20
631.395108
 30
0.0
 10
315.145248
 20
631.777332
 30
0.0
 10
315.145248
 20
633.661772
 30
0.0
  0
LWPOLYLINE
  5
162
100
AcDbEntity
  8
Layer_1
 62
7
100
AcDbPolyline
 90
2
 70
0
 10
279.165120
 20
594.020108
 30
0.0
 10
279.165120
 20
594.020108
 30
0.0
  0
SPLINE
  5
163
100
AcDbEntity
  8
Layer_1
 62
7
100
AcDbSpline
 70
8
 71
3
 72
8
 73
4
 74
0
 40
0
 40
0
 40
0
 40
0
 40
1
 40
1
 40
1
 40
1
 10
350.250728
 20
634.595108
 30
0.0
 10
350.945432
 20
636.913804
 30
0.0
 10
351.641280
 20
637.795108
 30
0.0
 10
352.777360
 20
637.795108
 30
0.0
  0
SPLINE
  5
164
100
AcDbEntity
  8
Layer_1
 62
7
100
AcDbSpline
 70
8
 71
3
 72
8
 73
4
 74
0
 40
0
 40
0
 40
0
 40
0
 40
1
 40
1
 40
1
 40
1
 10
352.777360
 20
637.795108
 30
0.0
 10
353.828272
 20
637.795108
 30
0.0
 10
354.345248
 20
638.339724
 30
0.0
 10
354.345248
 20
639.446804
 30
0.0
  0
SPLINE
  5
165
100
AcDbEntity
  8
Layer_1
 62
7
100
AcDbSpline
 70
8
 71
3
 72
8
 73
4
 74
0
 40
0
 40
0
 40
0
 40
0
 40
1
 40
1
 40
1
 40
1
 10
354.345248
 20
639.446804
 30
0.0
 10
354.345248
 20
641.580428
 30
0.0
 10
351.162568
 20
648.995108
 30
0.0
 10
350.246736
 20
648.995108
 30
0.0
  0
SPLINE
  5
166
100
AcDbEntity
  8
Layer_1
 62
7
100
AcDbSpline
 70
8
 71
3
 72
8
 73
4
 74
0
 40
0
 40
0
 40
0
 40
0
 40
1
 40
1
 40
1
 40
1
 10
350.246736
 20
648.995108
 30
0.0
 10
349.860920
 20
648.995108
 30
0.0
 10
349.545248
 20
649.584404
 30
0.0
 10
349.545248
 20
650.304636
 30
0.0
  0
SPLINE
  5
167
100
AcDbEntity
  8
Layer_1
 62
7
100
AcDbSpline
 70
8
 71
3
 72
8
 73
4
 74
0
 40
0
 40
0
 40
0
 40
0
 40
1
 40
1
 40
1
 40
1
 10
349.545248
 20
650.304636
 30
0.0
 10
349.545248
 20
651.444500
 30
0.0
 10
348.845584
 20
651.540068
 30
0.0
 10
344.145248
 20
651.042228
 30
0.0
  0
SPLINE
  5
168
100
AcDbEntity
  8
Layer_1
 62
7
100
AcDbSpline
 70
8
 71
3
 72
8
 73
4
 74
0
 40
0
 40
0
 40
0
 40
0
 40
1
 40
1
 40
1
 40
1
 10
344.145248
 20
651.042228
 30
0.0
 10
341.175248
 20
650.727660
 30
0.0
 10
337.845248
 20
650.395628
 30
0.0
 10
336.745248
 20
650.304348
 30
0.0
  0
SPLINE
  5
169
100
AcDbEntity
  8
Layer_1
 62
7
100
AcDbSpline
 70
8
 71
3
 72
8
 73
4
 74
0
 40
0
 40
0
 40
0
 40
0
 40
1
 40
1
 40
1
 40
1
 10
336.745248
 20
650.304348
 30
0.0
 10
333.897048
 20
650.068036
 30
0.0
 10
331.696840
 20
648.680284
 30
0.0
 10
327.083512
 20
644.210308
 30
0.0
  0
SPLINE
  5
16a
100
AcDbEntity
  8
Layer_1
 62
7
100
AcDbSpline
 70
8
 71
3
 72
8
 73
4
 74
0
 40
0
 40
0
 40
0
 40
0
 40
1
 40
1
 40
1
 40
1
 10
327.083512
 20
644.210308
 30
0.0
 10
323.527776
 20
640.765052
 30
0.0
 10
323.146160
 20
640.088228
 30
0.0
 10
323.931728
 20
638.620364
 30
0.0
  0
SPLINE
  5
16b
100
AcDbEntity
  8
Layer_1
 62
7
100
AcDbSpline
 70
8
 71
3
 72
8
 73
4
 74
0
 40
0
 40
0
 40
0
 40
0
 40
1
 40
1
 40
1
 40
1
 10
323.931728
 20
638.620364
 30
0.0
 10
324.423320
 20
637.701828
 30
0.0
 10
325.157728
 20
637.155612
 30
0.0
 10
325.563744
 20
637.406548
 30
0.0
  0
SPLINE
  5
16c
100
AcDbEntity
  8
Layer_1
 62
7
100
AcDbSpline
 70
8
 71
3
 72
8
 73
4
 74
0
 40
0
 40
0
 40
0
 40
0
 40
1
 40
1
 40
1
 40
1
 10
325.563744
 20
637.406548
 30
0.0
 10
327.638448
 20
638.688788
 30
0.0
 10
332.148696
 20
638.489172
 30
0.0
 10
334.943120
 20
636.991452
 30
0.0
  0
SPLINE
  5
16d
100
AcDbEntity
  8
Layer_1
 62
7
100
AcDbSpline
 70
8
 71
3
 72
8
 73
4
 74
0
 40
0
 40
0
 40
0
 40
0
 40
1
 40
1
 40
1
 40
1
 10
334.943120
 20
636.991452
 30
0.0
 10
336.581256
 20
636.113468
 30
0.0
 10
338.646888
 20
635.384972
 30
0.0
 10
339.533400
 20
635.372580
 30
0.0
  0
SPLINE
  5
16e
100
AcDbEntity
  8
Layer_1
 62
7
100
AcDbSpline
 70
8
 71
3
 72
8
 73
4
 74
0
 40
0
 40
0
 40
0
 40
0
 40
1
 40
1
 40
1
 40
1
 10
339.533400
 20
635.372580
 30
0.0
 10
340.419920
 20
635.360180
 30
0.0
 10
342.765248
 20
634.487484
 30
0.0
 10
344.745248
 20
633.433244
 30
0.0
  0
SPLINE
  5
16f
100
AcDbEntity
  8
Layer_1
 62
7
100
AcDbSpline
 70
8
 71
3
 72
8
 73
4
 74
0
 40
0
 40
0
 40
0
 40
0
 40
1
 40
1
 40
1
 40
1
 10
344.745248
 20
633.433244
 30
0.0
 10
346.725248
 20
632.378988
 30
0.0
 10
348.558264
 20
631.489140
 30
0.0
 10
348.818616
 20
631.455772
 30
0.0
  0
SPLINE
  5
170
100
AcDbEntity
  8
Layer_1
 62
7
100
AcDbSpline
 70
8
 71
3
 72
8
 73
4
 74
0
 40
0
 40
0
 40
0
 40
0
 40
1
 40
1
 40
1
 40
1
 10
348.818616
 20
631.455772
 30
0.0
 10
349.078968
 20
631.422412
 30
0.0
 10
349.723424
 20
632.835116
 30
0.0
 10
350.250728
 20
634.595108
 30
0.0
  0
LWPOLYLINE
  5
171
100
AcDbEntity
  8
Layer_1
 62
7
100
AcDbPolyline
 90
2
 70
0
 10
315.145248
 20
633.661772
 30
0.0
 10
315.145248
 20
633.661772
 30
0.0
  0
LWPOLYLINE
  5
172
100
AcDbEntity
  8
Layer_1
 62
7
100
AcDbPolyline
 90
2
 70
0
 10
350.250728
 20
634.595108
 30
0.0
 10
350.250728
 20
634.595108
 30
0.0
  0
ENDSEC
  0
SECTION
  2
OBJECTS
  0
DICTIONARY
  5
C
330
0
100
AcDbDictionary
  3
ACAD_GROUP
350
D
  3
ACAD_MLINESTYLE
350
17
  0
DICTIONARY
  5
D
330
C
100
AcDbDictionary
  0
DICTIONARY
  5
1A
330
C
100
AcDbDictionary
  0
DICTIONARY
  5
17
330
C
100
AcDbDictionary
  3
STANDARD
350
18
  0
DICTIONARY
  5
19
330
C
100
AcDbDictionary
  0
ENDSEC
  0
EOF
