  0
SECTION
  2
HEADER
  9
$ACADVER
  1
AC1014
  9
$HANDSEED
  5
FFFF
  9
$MEASUREMENT
 70
     1
  0
ENDSEC
  0
SECTION
  2
TABLES
  0
TABLE
  2
VPORT
  5
8
330
0
100
AcDbSymbolTable
 70
     4
  0
VPORT
  5
2E
330
8
100
AcDbSymbolTableRecord
100
AcDbViewportTableRecord
  2
*ACTIVE
 70
     0
 10
0.0
 20
0.0
 11
1.0
 21
1.0
 12
210.0
 22
148.5
 13
0.0
 23
0.0
 14
10.0
 24
10.0
 15
10.0
 25
10.0
 16
0.0
 26
0.0
 36
1.0
 17
0.0
 27
0.0
 37
0.0
 40
341.0
 41
1.24
 42
50.0
 43
0.0
 44
0.0
 50
0.0
 51
0.0
 71
     0
 72
   100
 73
     1
 74
     3
 75
     0
 76
     0
 77
     0
 78
     0
  0
ENDTAB
  0
TABLE
  2
LTYPE
  5
5
330
0
100
AcDbSymbolTable
 70
     1
  0
LTYPE
  5
14
330
5
100
AcDbSymbolTableRecord
100
AcDbLinetypeTableRecord
  2
BYBLOCK
 70
     0
  3

 72
    65
 73
     0
 40
0.0
  0
LTYPE
  5
15
330
5
100
AcDbSymbolTableRecord
100
AcDbLinetypeTableRecord
  2
BYLAYER
 70
     0
  3

 72
    65
 73
     0
 40
0.0
  0
LTYPE
  5
16
330
5
100
AcDbSymbolTableRecord
100
AcDbLinetypeTableRecord
  2
CONTINUOUS
 70
     0
  3
Solid line
 72
    65
 73
     0
 40
0.0
  0
ENDTAB
  0
TABLE
  2
LAYER
  5
2
100
AcDbSymbolTable
 70
2
  0
LAYER
  5
50
100
AcDbSymbolTableRecord
100
AcDbLayerTableRecord
  2
0
 70
0
  6
CONTINUOUS
  0
LAYER
  5
51
100
AcDbSymbolTableRecord
100
AcDbLayerTableRecord
  2
Layer_1
 70
0
  6
CONTINUOUS
  0
ENDTAB
  0
TABLE
  2
STYLE
  5
3
330
0
100
AcDbSymbolTable
 70
     1
  0
STYLE
  5
11
330
3
100
AcDbSymbolTableRecord
100
AcDbTextStyleTableRecord
  2
STANDARD
 70
     0
 40
0.0
 41
1.0
 50
0.0
 71
     0
 42
2.5
  3
txt
  4

  0
ENDTAB
  0
TABLE
  2
VIEW
  5
6
330
0
100
AcDbSymbolTable
 70
     0
  0
ENDTAB
  0
TABLE
  2
UCS
  5
7
330
0
100
AcDbSymbolTable
 70
     0
  0
ENDTAB
  0
TABLE
  2
APPID
  5
9
330
0
100
AcDbSymbolTable
 70
     2
  0
APPID
  5
12
330
9
100
AcDbSymbolTableRecord
100
AcDbRegAppTableRecord
  2
ACAD
 70
     0
  0
ENDTAB
  0
TABLE
  2
DIMSTYLE
  5
A
330
0
100
AcDbSymbolTable
 70
     1
  0
DIMSTYLE
105
27
330
A
100
AcDbSymbolTableRecord
100
AcDbDimStyleTableRecord
  2
ISO-25
 70
     0
  3

  4

  5

  6

  7

 40
1.0
 41
2.5
 42
0.625
 43
3.75
 44
1.25
 45
0.0
 46
0.0
 47
0.0
 48
0.0
140
2.5
141
2.5
142
0.0
143
0.03937007874016
144
1.0
145
0.0
146
1.0
147
0.625
 71
     0
 72
     0
 73
     0
 74
     0
 75
     0
 76
     0
 77
     1
 78
     8
170
     0
171
     3
172
     1
173
     0
174
     0
175
     0
176
     0
177
     0
178
     0
270
     2
271
     2
272
     2
273
     2
274
     3
340
11
275
     0
280
     0
281
     0
282
     0
283
     0
284
     8
285
     0
286
     0
287
     3
288
     0
  0
ENDTAB
  0
TABLE
  2
BLOCK_RECORD
  5
1
330
0
100
AcDbSymbolTable
 70
     1
  0
BLOCK_RECORD
  5
1F
330
1
100
AcDbSymbolTableRecord
100
AcDbBlockTableRecord
  2
*MODEL_SPACE
  0
BLOCK_RECORD
  5
1B
330
1
100
AcDbSymbolTableRecord
100
AcDbBlockTableRecord
  2
*PAPER_SPACE
  0
ENDTAB
  0
ENDSEC
  0
SECTION
  2
BLOCKS
  0
BLOCK
  5
20
330
1F
100
AcDbEntity
  8
0
100
AcDbBlockBegin
  2
*MODEL_SPACE
 70
     0
 10
0.0
 20
0.0
 30
0.0
  3
*MODEL_SPACE
  1

  0
ENDBLK
  5
21
330
1F
100
AcDbEntity
  8
0
100
AcDbBlockEnd
  0
BLOCK
  5
1C
330
1B
100
AcDbEntity
 67
     1
  8
0
100
AcDbBlockBegin
  2
*PAPER_SPACE
  1

  0
ENDBLK
  5
1D
330
1B
100
AcDbEntity
 67
     1
  8
0
100
AcDbBlockEnd
  0
ENDSEC
  0
SECTION
  2
ENTITIES
  0
SPLINE
  5
100
100
AcDbEntity
  8
Layer_1
 62
7
100
AcDbSpline
 70
8
 71
3
 72
8
 73
4
 74
0
 40
0
 40
0
 40
0
 40
0
 40
1
 40
1
 40
1
 40
1
 10
357.462192
 20
240.886408
 30
0.0
 10
355.758592
 20
241.880464
 30
0.0
 10
352.937672
 20
246.426352
 30
0.0
 10
351.913088
 20
249.828744
 30
0.0
  0
SPLINE
  5
101
100
AcDbEntity
  8
Layer_1
 62
7
100
AcDbSpline
 70
8
 71
3
 72
8
 73
4
 74
0
 40
0
 40
0
 40
0
 40
0
 40
1
 40
1
 40
1
 40
1
 10
351.913088
 20
249.828744
 30
0.0
 10
351.477760
 20
251.274352
 30
0.0
 10
350.828592
 20
255.206424
 30
0.0
 10
350.470488
 20
258.566680
 30
0.0
  0
SPLINE
  5
102
100
AcDbEntity
  8
Layer_1
 62
7
100
AcDbSpline
 70
8
 71
3
 72
8
 73
4
 74
0
 40
0
 40
0
 40
0
 40
0
 40
1
 40
1
 40
1
 40
1
 10
350.470488
 20
258.566680
 30
0.0
 10
349.960048
 20
263.356472
 30
0.0
 10
349.348712
 20
265.293344
 30
0.0
 10
347.640440
 20
267.533000
 30
0.0
  0
SPLINE
  5
103
100
AcDbEntity
  8
Layer_1
 62
7
100
AcDbSpline
 70
8
 71
3
 72
8
 73
4
 74
0
 40
0
 40
0
 40
0
 40
0
 40
1
 40
1
 40
1
 40
1
 10
342.130744
 20
268.336608
 30
0.0
 10
337.180592
 20
265.285224
 30
0.0
 10
336.800000
 20
264.497160
 30
0.0
 10
336.800000
 20
257.298688
 30
0.0
  0
SPLINE
  5
104
100
AcDbEntity
  8
Layer_1
 62
7
100
AcDbSpline
 70
8
 71
3
 72
8
 73
4
 74
0
 40
0
 40
0
 40
0
 40
0
 40
1
 40
1
 40
1
 40
1
 10
336.800000
 20
257.298688
 30
0.0
 10
336.800000
 20
250.935344
 30
0.0
 10
336.760880
 20
250.810144
 30
0.0
 10
333.973072
 20
248.251592
 30
0.0
  0
SPLINE
  5
105
100
AcDbEntity
  8
Layer_1
 62
7
100
AcDbSpline
 70
8
 71
3
 72
8
 73
4
 74
0
 40
0
 40
0
 40
0
 40
0
 40
1
 40
1
 40
1
 40
1
 10
333.973072
 20
248.251592
 30
0.0
 10
332.350176
 20
246.762152
 30
0.0
 10
330.288864
 20
245.657128
 30
0.0
 10
329.133344
 20
245.657128
 30
0.0
  0
SPLINE
  5
106
100
AcDbEntity
  8
Layer_1
 62
7
100
AcDbSpline
 70
8
 71
3
 72
8
 73
4
 74
0
 40
0
 40
0
 40
0
 40
0
 40
1
 40
1
 40
1
 40
1
 10
329.133344
 20
245.657128
 30
0.0
 10
326.134688
 20
245.657128
 30
0.0
 10
322.400000
 20
247.860960
 30
0.0
 10
322.400000
 20
249.630456
 30
0.0
  0
SPLINE
  5
107
100
AcDbEntity
  8
Layer_1
 62
7
100
AcDbSpline
 70
8
 71
3
 72
8
 73
4
 74
0
 40
0
 40
0
 40
0
 40
0
 40
1
 40
1
 40
1
 40
1
 10
322.400000
 20
249.630456
 30
0.0
 10
322.400000
 20
250.473192
 30
0.0
 10
322.040000
 20
251.385192
 30
0.0
 10
321.600000
 20
251.657128
 30
0.0
  0
SPLINE
  5
108
100
AcDbEntity
  8
Layer_1
 62
7
100
AcDbSpline
 70
8
 71
3
 72
8
 73
4
 74
0
 40
0
 40
0
 40
0
 40
0
 40
1
 40
1
 40
1
 40
1
 10
321.600000
 20
251.657128
 30
0.0
 10
320.384024
 20
252.408648
 30
0.0
 10
320.644856
 20
261.016240
 30
0.0
 10
322.000000
 20
264.857128
 30
0.0
  0
SPLINE
  5
109
100
AcDbEntity
  8
Layer_1
 62
7
100
AcDbSpline
 70
8
 71
3
 72
8
 73
4
 74
0
 40
0
 40
0
 40
0
 40
0
 40
1
 40
1
 40
1
 40
1
 10
322.000000
 20
264.857128
 30
0.0
 10
322.701240
 20
266.844656
 30
0.0
 10
323.200000
 20
271.049400
 30
0.0
 10
323.200000
 20
274.973608
 30
0.0
  0
SPLINE
  5
10a
100
AcDbEntity
  8
Layer_1
 62
7
100
AcDbSpline
 70
8
 71
3
 72
8
 73
4
 74
0
 40
0
 40
0
 40
0
 40
0
 40
1
 40
1
 40
1
 40
1
 10
323.200000
 20
274.973608
 30
0.0
 10
323.200000
 20
282.823920
 30
0.0
 10
321.829576
 20
285.709648
 30
0.0
 10
315.726528
 20
290.710632
 30
0.0
  0
SPLINE
  5
10b
100
AcDbEntity
  8
Layer_1
 62
7
100
AcDbSpline
 70
8
 71
3
 72
8
 73
4
 74
0
 40
0
 40
0
 40
0
 40
0
 40
1
 40
1
 40
1
 40
1
 10
315.726528
 20
290.710632
 30
0.0
 10
313.322696
 20
292.680392
 30
0.0
 10
311.736760
 20
294.759256
 30
0.0
 10
311.162464
 20
296.693240
 30
0.0
  0
SPLINE
  5
10c
100
AcDbEntity
  8
Layer_1
 62
7
100
AcDbSpline
 70
8
 71
3
 72
8
 73
4
 74
0
 40
0
 40
0
 40
0
 40
0
 40
1
 40
1
 40
1
 40
1
 10
311.162464
 20
296.693240
 30
0.0
 10
310.315840
 20
299.544328
 30
0.0
 10
310.457736
 20
312.062272
 30
0.0
 10
311.648344
 20
339.556336
 30
0.0
  0
SPLINE
  5
10d
100
AcDbEntity
  8
Layer_1
 62
7
100
AcDbSpline
 70
8
 71
3
 72
8
 73
4
 74
0
 40
0
 40
0
 40
0
 40
0
 40
1
 40
1
 40
1
 40
1
 10
311.648344
 20
339.556336
 30
0.0
 10
312.005432
 20
347.802512
 30
0.0
 10
311.845728
 20
350.476880
 30
0.0
 10
310.847168
 20
352.972528
 30
0.0
  0
SPLINE
  5
10e
100
AcDbEntity
  8
Layer_1
 62
7
100
AcDbSpline
 70
8
 71
3
 72
8
 73
4
 74
0
 40
0
 40
0
 40
0
 40
0
 40
1
 40
1
 40
1
 40
1
 10
310.847168
 20
352.972528
 30
0.0
 10
310.161224
 20
354.686864
 30
0.0
 10
309.588552
 20
357.072224
 30
0.0
 10
309.574560
 20
358.273320
 30
0.0
  0
SPLINE
  5
10f
100
AcDbEntity
  8
Layer_1
 62
7
100
AcDbSpline
 70
8
 71
3
 72
8
 73
4
 74
0
 40
0
 40
0
 40
0
 40
0
 40
1
 40
1
 40
1
 40
1
 10
309.574560
 20
358.273320
 30
0.0
 10
309.560560
 20
359.474416
 30
0.0
 10
309.020560
 20
361.155936
 30
0.0
 10
308.374560
 20
362.010032
 30
0.0
  0
SPLINE
  5
110
100
AcDbEntity
  8
Layer_1
 62
7
100
AcDbSpline
 70
8
 71
3
 72
8
 73
4
 74
0
 40
0
 40
0
 40
0
 40
0
 40
1
 40
1
 40
1
 40
1
 10
308.374560
 20
362.010032
 30
0.0
 10
307.728552
 20
362.864128
 30
0.0
 10
307.200000
 20
364.725456
 30
0.0
 10
307.200000
 20
366.146320
 30
0.0
  0
SPLINE
  5
111
100
AcDbEntity
  8
Layer_1
 62
7
100
AcDbSpline
 70
8
 71
3
 72
8
 73
4
 74
0
 40
0
 40
0
 40
0
 40
0
 40
1
 40
1
 40
1
 40
1
 10
307.200000
 20
366.146320
 30
0.0
 10
307.200000
 20
368.397152
 30
0.0
 10
306.520288
 20
369.238728
 30
0.0
 10
301.919696
 20
372.684080
 30
0.0
  0
SPLINE
  5
112
100
AcDbEntity
  8
Layer_1
 62
7
100
AcDbSpline
 70
8
 71
3
 72
8
 73
4
 74
0
 40
0
 40
0
 40
0
 40
0
 40
1
 40
1
 40
1
 40
1
 10
301.919696
 20
372.684080
 30
0.0
 10
298.352648
 20
375.355416
 30
0.0
 10
295.274928
 20
376.943816
 30
0.0
 10
292.434096
 20
377.579568
 30
0.0
  0
SPLINE
  5
113
100
AcDbEntity
  8
Layer_1
 62
7
100
AcDbSpline
 70
8
 71
3
 72
8
 73
4
 74
0
 40
0
 40
0
 40
0
 40
0
 40
1
 40
1
 40
1
 40
1
 10
292.434096
 20
377.579568
 30
0.0
 10
288.479808
 20
378.464496
 30
0.0
 10
281.600000
 20
382.585800
 30
0.0
 10
281.600000
 20
384.069656
 30
0.0
  0
SPLINE
  5
114
100
AcDbEntity
  8
Layer_1
 62
7
100
AcDbSpline
 70
8
 71
3
 72
8
 73
4
 74
0
 40
0
 40
0
 40
0
 40
0
 40
1
 40
1
 40
1
 40
1
 10
281.600000
 20
384.069656
 30
0.0
 10
281.600000
 20
385.089512
 30
0.0
 10
274.644256
 20
389.571104
 30
0.0
 10
272.172104
 20
390.144064
 30
0.0
  0
SPLINE
  5
115
100
AcDbEntity
  8
Layer_1
 62
7
100
AcDbSpline
 70
8
 71
3
 72
8
 73
4
 74
0
 40
0
 40
0
 40
0
 40
0
 40
1
 40
1
 40
1
 40
1
 10
272.172104
 20
390.144064
 30
0.0
 10
270.977448
 20
390.420936
 30
0.0
 10
269.100000
 20
391.227064
 30
0.0
 10
268.000000
 20
391.935448
 30
0.0
  0
SPLINE
  5
116
100
AcDbEntity
  8
Layer_1
 62
7
100
AcDbSpline
 70
8
 71
3
 72
8
 73
4
 74
0
 40
0
 40
0
 40
0
 40
0
 40
1
 40
1
 40
1
 40
1
 10
268.000000
 20
391.935448
 30
0.0
 10
265.954808
 20
393.252512
 30
0.0
 10
262.058440
 20
393.814984
 30
0.0
 10
245.200000
 20
395.226800
 30
0.0
  0
SPLINE
  5
117
100
AcDbEntity
  8
Layer_1
 62
7
100
AcDbSpline
 70
8
 71
3
 72
8
 73
4
 74
0
 40
0
 40
0
 40
0
 40
0
 40
1
 40
1
 40
1
 40
1
 10
245.200000
 20
395.226800
 30
0.0
 10
239.920000
 20
395.668968
 30
0.0
 10
233.620000
 20
396.356000
 30
0.0
 10
231.200000
 20
396.753528
 30
0.0
  0
SPLINE
  5
118
100
AcDbEntity
  8
Layer_1
 62
7
100
AcDbSpline
 70
8
 71
3
 72
8
 73
4
 74
0
 40
0
 40
0
 40
0
 40
0
 40
1
 40
1
 40
1
 40
1
 10
231.200000
 20
396.753528
 30
0.0
 10
228.780000
 20
397.151056
 30
0.0
 10
224.403080
 20
397.287544
 30
0.0
 10
221.473504
 20
397.056848
 30
0.0
  0
SPLINE
  5
119
100
AcDbEntity
  8
Layer_1
 62
7
100
AcDbSpline
 70
8
 71
3
 72
8
 73
4
 74
0
 40
0
 40
0
 40
0
 40
0
 40
1
 40
1
 40
1
 40
1
 10
221.473504
 20
397.056848
 30
0.0
 10
216.530328
 20
396.667576
 30
0.0
 10
215.997784
 20
396.786616
 30
0.0
 10
214.073504
 20
398.710896
 30
0.0
  0
SPLINE
  5
11a
100
AcDbEntity
  8
Layer_1
 62
7
100
AcDbSpline
 70
8
 71
3
 72
8
 73
4
 74
0
 40
0
 40
0
 40
0
 40
0
 40
1
 40
1
 40
1
 40
1
 10
214.073504
 20
398.710896
 30
0.0
 10
211.405728
 20
401.378672
 30
0.0
 10
211.321360
 20
405.051216
 30
0.0
 10
213.869320
 20
407.599176
 30
0.0
  0
SPLINE
  5
11b
100
AcDbEntity
  8
Layer_1
 62
7
100
AcDbSpline
 70
8
 71
3
 72
8
 73
4
 74
0
 40
0
 40
0
 40
0
 40
0
 40
1
 40
1
 40
1
 40
1
 10
213.869320
 20
407.599176
 30
0.0
 10
216.299928
 20
410.029784
 30
0.0
 10
224.496240
 20
410.923496
 30
0.0
 10
232.400000
 20
409.619736
 30
0.0
  0
SPLINE
  5
11c
100
AcDbEntity
  8
Layer_1
 62
7
100
AcDbSpline
 70
8
 71
3
 72
8
 73
4
 74
0
 40
0
 40
0
 40
0
 40
0
 40
1
 40
1
 40
1
 40
1
 10
232.400000
 20
409.619736
 30
0.0
 10
235.480000
 20
409.111672
 30
0.0
 10
241.960000
 20
408.394376
 30
0.0
 10
246.800000
 20
408.025728
 30
0.0
  0
SPLINE
  5
11d
100
AcDbEntity
  8
Layer_1
 62
7
100
AcDbSpline
 70
8
 71
3
 72
8
 73
4
 74
0
 40
0
 40
0
 40
0
 40
0
 40
1
 40
1
 40
1
 40
1
 10
246.800000
 20
408.025728
 30
0.0
 10
264.037744
 20
406.712808
 30
0.0
 10
269.415280
 20
405.860712
 30
0.0
 10
273.923792
 20
403.727840
 30
0.0
  0
SPLINE
  5
11e
100
AcDbEntity
  8
Layer_1
 62
7
100
AcDbSpline
 70
8
 71
3
 72
8
 73
4
 74
0
 40
0
 40
0
 40
0
 40
0
 40
1
 40
1
 40
1
 40
1
 10
273.923792
 20
403.727840
 30
0.0
 10
276.331208
 20
402.588952
 30
0.0
 10
278.805240
 20
401.657128
 30
0.0
 10
279.421640
 20
401.657128
 30
0.0
  0
SPLINE
  5
11f
100
AcDbEntity
  8
Layer_1
 62
7
100
AcDbSpline
 70
8
 71
3
 72
8
 73
4
 74
0
 40
0
 40
0
 40
0
 40
0
 40
1
 40
1
 40
1
 40
1
 10
279.421640
 20
401.657128
 30
0.0
 10
280.820976
 20
401.657128
 30
0.0
 10
285.462336
 20
398.314696
 30
0.0
 10
290.275736
 20
393.840664
 30
0.0
  0
SPLINE
  5
120
100
AcDbEntity
  8
Layer_1
 62
7
100
AcDbSpline
 70
8
 71
3
 72
8
 73
4
 74
0
 40
0
 40
0
 40
0
 40
0
 40
1
 40
1
 40
1
 40
1
 10
290.275736
 20
393.840664
 30
0.0
 10
292.498704
 20
391.774416
 30
0.0
 10
295.225632
 20
390.113624
 30
0.0
 10
297.175672
 20
389.638368
 30
0.0
  0
SPLINE
  5
121
100
AcDbEntity
  8
Layer_1
 62
7
100
AcDbSpline
 70
8
 71
3
 72
8
 73
4
 74
0
 40
0
 40
0
 40
0
 40
0
 40
1
 40
1
 40
1
 40
1
 10
297.175672
 20
389.638368
 30
0.0
 10
298.949048
 20
389.206160
 30
0.0
 10
301.442576
 20
388.300144
 30
0.0
 10
302.716824
 20
387.624992
 30
0.0
  0
SPLINE
  5
122
100
AcDbEntity
  8
Layer_1
 62
7
100
AcDbSpline
 70
8
 71
3
 72
8
 73
4
 74
0
 40
0
 40
0
 40
0
 40
0
 40
1
 40
1
 40
1
 40
1
 10
302.716824
 20
387.624992
 30
0.0
 10
304.972960
 20
386.429600
 30
0.0
 10
305.092616
 20
386.466336
 30
0.0
 10
307.284312
 20
389.027288
 30
0.0
  0
SPLINE
  5
123
100
AcDbEntity
  8
Layer_1
 62
7
100
AcDbSpline
 70
8
 71
3
 72
8
 73
4
 74
0
 40
0
 40
0
 40
0
 40
0
 40
1
 40
1
 40
1
 40
1
 10
307.284312
 20
389.027288
 30
0.0
 10
309.321448
 20
391.407624
 30
0.0
 10
309.538056
 20
392.242768
 30
0.0
 10
309.567488
 20
397.829984
 30
0.0
  0
SPLINE
  5
124
100
AcDbEntity
  8
Layer_1
 62
7
100
AcDbSpline
 70
8
 71
3
 72
8
 73
4
 74
0
 40
0
 40
0
 40
0
 40
0
 40
1
 40
1
 40
1
 40
1
 10
309.567488
 20
397.829984
 30
0.0
 10
309.586928
 20
401.522816
 30
0.0
 10
309.137144
 20
405.058336
 30
0.0
 10
308.447944
 20
406.629984
 30
0.0
  0
SPLINE
  5
125
100
AcDbEntity
  8
Layer_1
 62
7
100
AcDbSpline
 70
8
 71
3
 72
8
 73
4
 74
0
 40
0
 40
0
 40
0
 40
0
 40
1
 40
1
 40
1
 40
1
 10
308.447944
 20
406.629984
 30
0.0
 10
307.814312
 20
408.074912
 30
0.0
 10
306.284312
 20
412.586344
 30
0.0
 10
305.047944
 20
416.655392
 30
0.0
  0
SPLINE
  5
126
100
AcDbEntity
  8
Layer_1
 62
7
100
AcDbSpline
 70
8
 71
3
 72
8
 73
4
 74
0
 40
0
 40
0
 40
0
 40
0
 40
1
 40
1
 40
1
 40
1
 10
305.047944
 20
416.655392
 30
0.0
 10
303.068248
 20
423.170816
 30
0.0
 10
302.581848
 20
424.053872
 30
0.0
 10
300.971856
 20
424.055392
 30
0.0
  0
SPLINE
  5
127
100
AcDbEntity
  8
Layer_1
 62
7
100
AcDbSpline
 70
8
 71
3
 72
8
 73
4
 74
0
 40
0
 40
0
 40
0
 40
0
 40
1
 40
1
 40
1
 40
1
 10
300.971856
 20
424.055392
 30
0.0
 10
299.966376
 20
424.056192
 30
0.0
 10
298.299656
 20
423.504088
 30
0.0
 10
297.268040
 20
422.828144
 30
0.0
  0
SPLINE
  5
128
100
AcDbEntity
  8
Layer_1
 62
7
100
AcDbSpline
 70
8
 71
3
 72
8
 73
4
 74
0
 40
0
 40
0
 40
0
 40
0
 40
1
 40
1
 40
1
 40
1
 10
297.268040
 20
422.828144
 30
0.0
 10
295.531320
 20
421.690200
 30
0.0
 10
286.846088
 20
421.262352
 30
0.0
 10
274.400000
 20
421.701640
 30
0.0
  0
SPLINE
  5
129
100
AcDbEntity
  8
Layer_1
 62
7
100
AcDbSpline
 70
8
 71
3
 72
8
 73
4
 74
0
 40
0
 40
0
 40
0
 40
0
 40
1
 40
1
 40
1
 40
1
 10
274.400000
 20
421.701640
 30
0.0
 10
272.860000
 20
421.755960
 30
0.0
 10
269.679760
 20
421.539504
 30
0.0
 10
267.332792
 20
421.220552
 30
0.0
  0
SPLINE
  5
12a
100
AcDbEntity
  8
Layer_1
 62
7
100
AcDbSpline
 70
8
 71
3
 72
8
 73
4
 74
0
 40
0
 40
0
 40
0
 40
0
 40
1
 40
1
 40
1
 40
1
 10
267.332792
 20
421.220552
 30
0.0
 10
263.740600
 20
420.732376
 30
0.0
 10
262.475120
 20
420.933272
 30
0.0
 10
259.332792
 20
422.490552
 30
0.0
  0
SPLINE
  5
12b
100
AcDbEntity
  8
Layer_1
 62
7
100
AcDbSpline
 70
8
 71
3
 72
8
 73
4
 74
0
 40
0
 40
0
 40
0
 40
0
 40
1
 40
1
 40
1
 40
1
 10
259.332792
 20
422.490552
 30
0.0
 10
254.089832
 20
425.088880
 30
0.0
 10
251.343592
 20
427.235936
 30
0.0
 10
249.548928
 20
430.139760
 30
0.0
  0
SPLINE
  5
12c
100
AcDbEntity
  8
Layer_1
 62
7
100
AcDbSpline
 70
8
 71
3
 72
8
 73
4
 74
0
 40
0
 40
0
 40
0
 40
0
 40
1
 40
1
 40
1
 40
1
 10
249.548928
 20
430.139760
 30
0.0
 10
247.451080
 20
433.534152
 30
0.0
 10
247.592648
 20
436.522504
 30
0.0
 10
249.963640
 20
438.893488
 30
0.0
  0
SPLINE
  5
12d
100
AcDbEntity
  8
Layer_1
 62
7
100
AcDbSpline
 70
8
 71
3
 72
8
 73
4
 74
0
 40
0
 40
0
 40
0
 40
0
 40
1
 40
1
 40
1
 40
1
 10
249.963640
 20
438.893488
 30
0.0
 10
252.744080
 20
441.673936
 30
0.0
 10
256.156216
 20
441.487064
 30
0.0
 10
259.407280
 20
438.376296
 30
0.0
  0
SPLINE
  5
12e
100
AcDbEntity
  8
Layer_1
 62
7
100
AcDbSpline
 70
8
 71
3
 72
8
 73
4
 74
0
 40
0
 40
0
 40
0
 40
0
 40
1
 40
1
 40
1
 40
1
 10
259.407280
 20
438.376296
 30
0.0
 10
260.833280
 20
437.011840
 30
0.0
 10
262.973120
 20
435.391320
 30
0.0
 10
264.162488
 20
434.775152
 30
0.0
  0
SPLINE
  5
12f
100
AcDbEntity
  8
Layer_1
 62
7
100
AcDbSpline
 70
8
 71
3
 72
8
 73
4
 74
0
 40
0
 40
0
 40
0
 40
0
 40
1
 40
1
 40
1
 40
1
 10
264.162488
 20
434.775152
 30
0.0
 10
266.152624
 20
433.744128
 30
0.0
 10
266.478136
 20
433.807992
 30
0.0
 10
268.246608
 20
435.576464
 30
0.0
  0
SPLINE
  5
130
100
AcDbEntity
  8
Layer_1
 62
7
100
AcDbSpline
 70
8
 71
3
 72
8
 73
4
 74
0
 40
0
 40
0
 40
0
 40
0
 40
1
 40
1
 40
1
 40
1
 10
268.246608
 20
435.576464
 30
0.0
 10
270.125376
 20
437.455224
 30
0.0
 10
270.393912
 20
437.488352
 30
0.0
 10
280.284120
 20
437.061224
 30
0.0
  0
LWPOLYLINE
  5
131
100
AcDbEntity
  8
Layer_1
 62
7
100
AcDbPolyline
 90
3
 70
0
 10
347.640440
 20
267.533000
 30
0.0
 10
345.461480
 20
270.389760
 30
0.0
 10
342.130744
 20
268.336608
 30
0.0
  0
SPLINE
  5
132
100
AcDbEntity
  8
Layer_1
 62
7
100
AcDbSpline
 70
8
 71
3
 72
8
 73
4
 74
0
 40
0
 40
0
 40
0
 40
0
 40
1
 40
1
 40
1
 40
1
 10
290.400000
 20
438.721608
 30
0.0
 10
290.400000
 20
440.228104
 30
0.0
 10
289.047912
 20
442.146016
 30
0.0
 10
285.600000
 20
445.530312
 30
0.0
  0
SPLINE
  5
133
100
AcDbEntity
  8
Layer_1
 62
7
100
AcDbSpline
 70
8
 71
3
 72
8
 73
4
 74
0
 40
0
 40
0
 40
0
 40
0
 40
1
 40
1
 40
1
 40
1
 10
285.600000
 20
445.530312
 30
0.0
 10
282.960000
 20
448.121600
 30
0.0
 10
280.800000
 20
450.714360
 30
0.0
 10
280.800000
 20
451.291992
 30
0.0
  0
SPLINE
  5
134
100
AcDbEntity
  8
Layer_1
 62
7
100
AcDbSpline
 70
8
 71
3
 72
8
 73
4
 74
0
 40
0
 40
0
 40
0
 40
0
 40
1
 40
1
 40
1
 40
1
 10
280.800000
 20
451.291992
 30
0.0
 10
280.800000
 20
451.869632
 30
0.0
 10
278.033840
 20
455.248096
 30
0.0
 10
274.652976
 20
458.799688
 30
0.0
  0
SPLINE
  5
135
100
AcDbEntity
  8
Layer_1
 62
7
100
AcDbSpline
 70
8
 71
3
 72
8
 73
4
 74
0
 40
0
 40
0
 40
0
 40
0
 40
1
 40
1
 40
1
 40
1
 10
274.652976
 20
458.799688
 30
0.0
 10
271.272112
 20
462.351280
 30
0.0
 10
266.567760
 20
467.296352
 30
0.0
 10
264.198856
 20
469.788736
 30
0.0
  0
SPLINE
  5
136
100
AcDbEntity
  8
Layer_1
 62
7
100
AcDbSpline
 70
8
 71
3
 72
8
 73
4
 74
0
 40
0
 40
0
 40
0
 40
0
 40
1
 40
1
 40
1
 40
1
 10
264.198856
 20
469.788736
 30
0.0
 10
261.829960
 20
472.281120
 30
0.0
 10
257.894584
 20
475.521120
 30
0.0
 10
255.453584
 20
476.988736
 30
0.0
  0
SPLINE
  5
137
100
AcDbEntity
  8
Layer_1
 62
7
100
AcDbSpline
 70
8
 71
3
 72
8
 73
4
 74
0
 40
0
 40
0
 40
0
 40
0
 40
1
 40
1
 40
1
 40
1
 10
255.453584
 20
476.988736
 30
0.0
 10
253.012576
 20
478.456352
 30
0.0
 10
249.848720
 20
480.638944
 30
0.0
 10
248.422792
 20
481.838944
 30
0.0
  0
SPLINE
  5
138
100
AcDbEntity
  8
Layer_1
 62
7
100
AcDbSpline
 70
8
 71
3
 72
8
 73
4
 74
0
 40
0
 40
0
 40
0
 40
0
 40
1
 40
1
 40
1
 40
1
 10
248.422792
 20
481.838944
 30
0.0
 10
246.996856
 20
483.038952
 30
0.0
 10
243.528400
 20
485.116528
 30
0.0
 10
240.715096
 20
486.455792
 30
0.0
  0
SPLINE
  5
139
100
AcDbEntity
  8
Layer_1
 62
7
100
AcDbSpline
 70
8
 71
3
 72
8
 73
4
 74
0
 40
0
 40
0
 40
0
 40
0
 40
1
 40
1
 40
1
 40
1
 10
240.715096
 20
486.455792
 30
0.0
 10
233.889928
 20
489.704880
 30
0.0
 10
230.860320
 20
491.736824
 30
0.0
 10
226.216952
 20
496.179648
 30
0.0
  0
SPLINE
  5
13a
100
AcDbEntity
  8
Layer_1
 62
7
100
AcDbSpline
 70
8
 71
3
 72
8
 73
4
 74
0
 40
0
 40
0
 40
0
 40
0
 40
1
 40
1
 40
1
 40
1
 10
226.216952
 20
496.179648
 30
0.0
 10
224.077160
 20
498.227024
 30
0.0
 10
221.365152
 20
500.143416
 30
0.0
 10
220.190272
 20
500.438288
 30
0.0
  0
SPLINE
  5
13b
100
AcDbEntity
  8
Layer_1
 62
7
100
AcDbSpline
 70
8
 71
3
 72
8
 73
4
 74
0
 40
0
 40
0
 40
0
 40
0
 40
1
 40
1
 40
1
 40
1
 10
220.190272
 20
500.438288
 30
0.0
 10
218.121504
 20
500.957520
 30
0.0
 10
213.233600
 20
505.625448
 30
0.0
 10
208.495776
 20
511.606496
 30
0.0
  0
SPLINE
  5
13c
100
AcDbEntity
  8
Layer_1
 62
7
100
AcDbSpline
 70
8
 71
3
 72
8
 73
4
 74
0
 40
0
 40
0
 40
0
 40
0
 40
1
 40
1
 40
1
 40
1
 10
208.495776
 20
511.606496
 30
0.0
 10
207.228456
 20
513.206368
 30
0.0
 10
206.064616
 20
514.388416
 30
0.0
 10
205.909456
 20
514.233264
 30
0.0
  0
SPLINE
  5
13d
100
AcDbEntity
  8
Layer_1
 62
7
100
AcDbSpline
 70
8
 71
3
 72
8
 73
4
 74
0
 40
0
 40
0
 40
0
 40
0
 40
1
 40
1
 40
1
 40
1
 10
205.909456
 20
514.233264
 30
0.0
 10
205.754304
 20
514.078112
 30
0.0
 10
206.002160
 20
512.715008
 30
0.0
 10
206.460240
 20
511.204152
 30
0.0
  0
SPLINE
  5
13e
100
AcDbEntity
  8
Layer_1
 62
7
100
AcDbSpline
 70
8
 71
3
 72
8
 73
4
 74
0
 40
0
 40
0
 40
0
 40
0
 40
1
 40
1
 40
1
 40
1
 10
206.460240
 20
511.204152
 30
0.0
 10
208.420744
 20
504.738008
 30
0.0
 10
209.879168
 20
493.142408
 30
0.0
 10
210.323520
 20
480.488032
 30
0.0
  0
LWPOLYLINE
  5
13f
100
AcDbEntity
  8
Layer_1
 62
7
100
AcDbPolyline
 90
3
 70
0
 10
280.284120
 20
437.061224
 30
0.0
 10
290.400000
 20
436.624352
 30
0.0
 10
290.400000
 20
438.721608
 30
0.0
  0
SPLINE
  5
140
100
AcDbEntity
  8
Layer_1
 62
7
100
AcDbSpline
 70
8
 71
3
 72
8
 73
4
 74
0
 40
0
 40
0
 40
0
 40
0
 40
1
 40
1
 40
1
 40
1
 10
215.600000
 20
465.480312
 30
0.0
 10
220.993056
 20
463.863944
 30
0.0
 10
223.200000
 20
461.788200
 30
0.0
 10
223.200000
 20
458.332136
 30
0.0
  0
SPLINE
  5
141
100
AcDbEntity
  8
Layer_1
 62
7
100
AcDbSpline
 70
8
 71
3
 72
8
 73
4
 74
0
 40
0
 40
0
 40
0
 40
0
 40
1
 40
1
 40
1
 40
1
 10
223.200000
 20
458.332136
 30
0.0
 10
223.200000
 20
455.439136
 30
0.0
 10
220.031224
 20
452.057128
 30
0.0
 10
217.320632
 20
452.057128
 30
0.0
  0
SPLINE
  5
142
100
AcDbEntity
  8
Layer_1
 62
7
100
AcDbSpline
 70
8
 71
3
 72
8
 73
4
 74
0
 40
0
 40
0
 40
0
 40
0
 40
1
 40
1
 40
1
 40
1
 10
217.320632
 20
452.057128
 30
0.0
 10
213.055592
 20
452.057128
 30
0.0
 10
204.986400
 20
455.274312
 30
0.0
 10
201.502256
 20
458.363904
 30
0.0
  0
LWPOLYLINE
  5
143
100
AcDbEntity
  8
Layer_1
 62
7
100
AcDbPolyline
 90
3
 70
0
 10
210.323520
 20
480.488032
 30
0.0
 10
210.800000
 20
466.918936
 30
0.0
 10
215.600000
 20
465.480312
 30
0.0
  0
SPLINE
  5
144
100
AcDbEntity
  8
Layer_1
 62
7
100
AcDbSpline
 70
8
 71
3
 72
8
 73
4
 74
0
 40
0
 40
0
 40
0
 40
0
 40
1
 40
1
 40
1
 40
1
 10
197.538296
 20
476.563344
 30
0.0
 10
197.063904
 20
492.071888
 30
0.0
 10
195.539440
 20
503.735312
 30
0.0
 10
193.100176
 20
510.518680
 30
0.0
  0
LWPOLYLINE
  5
145
100
AcDbEntity
  8
Layer_1
 62
7
100
AcDbPolyline
 90
3
 70
0
 10
201.502256
 20
458.363904
 30
0.0
 10
198.000000
 20
461.469568
 30
0.0
 10
197.538296
 20
476.563344
 30
0.0
  0
SPLINE
  5
146
100
AcDbEntity
  8
Layer_1
 62
7
100
AcDbSpline
 70
8
 71
3
 72
8
 73
4
 74
0
 40
0
 40
0
 40
0
 40
0
 40
1
 40
1
 40
1
 40
1
 10
186.856368
 20
509.263456
 30
0.0
 10
183.999560
 20
506.255344
 30
0.0
 10
181.034848
 20
503.915504
 30
0.0
 10
179.655928
 20
503.580624
 30
0.0
  0
SPLINE
  5
147
100
AcDbEntity
  8
Layer_1
 62
7
100
AcDbSpline
 70
8
 71
3
 72
8
 73
4
 74
0
 40
0
 40
0
 40
0
 40
0
 40
1
 40
1
 40
1
 40
1
 10
179.655928
 20
503.580624
 30
0.0
 10
176.610176
 20
502.840960
 30
0.0
 10
173.962384
 20
499.772736
 30
0.0
 10
172.399552
 20
495.172040
 30
0.0
  0
SPLINE
  5
148
100
AcDbEntity
  8
Layer_1
 62
7
100
AcDbSpline
 70
8
 71
3
 72
8
 73
4
 74
0
 40
0
 40
0
 40
0
 40
0
 40
1
 40
1
 40
1
 40
1
 10
172.399552
 20
495.172040
 30
0.0
 10
171.086640
 20
491.307064
 30
0.0
 10
169.272800
 20
489.244232
 30
0.0
 10
165.079224
 20
486.846848
 30
0.0
  0
LWPOLYLINE
  5
149
100
AcDbEntity
  8
Layer_1
 62
7
100
AcDbPolyline
 90
3
 70
0
 10
193.100176
 20
510.518680
 30
0.0
 10
191.712736
 20
514.377016
 30
0.0
 10
186.856368
 20
509.263456
 30
0.0
  0
SPLINE
  5
14a
100
AcDbEntity
  8
Layer_1
 62
7
100
AcDbSpline
 70
8
 71
3
 72
8
 73
4
 74
0
 40
0
 40
0
 40
0
 40
0
 40
1
 40
1
 40
1
 40
1
 10
161.983136
 20
476.598992
 30
0.0
 10
161.477864
 20
468.864448
 30
0.0
 10
161.180448
 20
467.564848
 30
0.0
 10
159.540272
 20
465.924672
 30
0.0
  0
SPLINE
  5
14b
100
AcDbEntity
  8
Layer_1
 62
7
100
AcDbSpline
 70
8
 71
3
 72
8
 73
4
 74
0
 40
0
 40
0
 40
0
 40
0
 40
1
 40
1
 40
1
 40
1
 10
159.540272
 20
465.924672
 30
0.0
 10
157.039472
 20
463.423872
 30
0.0
 10
153.319800
 20
463.464600
 30
0.0
 10
150.763632
 20
466.020768
 30
0.0
  0
SPLINE
  5
14c
100
AcDbEntity
  8
Layer_1
 62
7
100
AcDbSpline
 70
8
 71
3
 72
8
 73
4
 74
0
 40
0
 40
0
 40
0
 40
0
 40
1
 40
1
 40
1
 40
1
 10
150.763632
 20
466.020768
 30
0.0
 10
149.683632
 20
467.100768
 30
0.0
 10
148.800000
 20
468.717648
 30
0.0
 10
148.800000
 20
469.613840
 30
0.0
  0
SPLINE
  5
14d
100
AcDbEntity
  8
Layer_1
 62
7
100
AcDbSpline
 70
8
 71
3
 72
8
 73
4
 74
0
 40
0
 40
0
 40
0
 40
0
 40
1
 40
1
 40
1
 40
1
 10
148.800000
 20
469.613840
 30
0.0
 10
148.800000
 20
470.510032
 30
0.0
 10
147.500232
 20
472.946096
 30
0.0
 10
145.911592
 20
475.027304
 30
0.0
  0
SPLINE
  5
14e
100
AcDbEntity
  8
Layer_1
 62
7
100
AcDbSpline
 70
8
 71
3
 72
8
 73
4
 74
0
 40
0
 40
0
 40
0
 40
0
 40
1
 40
1
 40
1
 40
1
 10
145.911592
 20
475.027304
 30
0.0
 10
142.847512
 20
479.041448
 30
0.0
 10
139.725032
 20
485.445344
 30
0.0
 10
138.817832
 20
489.576008
 30
0.0
  0
SPLINE
  5
14f
100
AcDbEntity
  8
Layer_1
 62
7
100
AcDbSpline
 70
8
 71
3
 72
8
 73
4
 74
0
 40
0
 40
0
 40
0
 40
0
 40
1
 40
1
 40
1
 40
1
 10
138.817832
 20
489.576008
 30
0.0
 10
138.516472
 20
490.947944
 30
0.0
 10
137.580392
 20
492.439488
 30
0.0
 10
136.737592
 20
492.890536
 30
0.0
  0
SPLINE
  5
150
100
AcDbEntity
  8
Layer_1
 62
7
100
AcDbSpline
 70
8
 71
3
 72
8
 73
4
 74
0
 40
0
 40
0
 40
0
 40
0
 40
1
 40
1
 40
1
 40
1
 10
136.737592
 20
492.890536
 30
0.0
 10
134.975832
 20
493.833400
 30
0.0
 10
131.999992
 20
499.258432
 30
0.0
 10
131.999992
 20
501.527312
 30
0.0
  0
SPLINE
  5
151
100
AcDbEntity
  8
Layer_1
 62
7
100
AcDbSpline
 70
8
 71
3
 72
8
 73
4
 74
0
 40
0
 40
0
 40
0
 40
0
 40
1
 40
1
 40
1
 40
1
 10
131.999992
 20
501.527312
 30
0.0
 10
131.999992
 20
502.370960
 30
0.0
 10
131.478392
 20
503.494104
 30
0.0
 10
130.840952
 20
504.023176
 30
0.0
  0
SPLINE
  5
152
100
AcDbEntity
  8
Layer_1
 62
7
100
AcDbSpline
 70
8
 71
3
 72
8
 73
4
 74
0
 40
0
 40
0
 40
0
 40
0
 40
1
 40
1
 40
1
 40
1
 10
130.840952
 20
504.023176
 30
0.0
 10
130.203432
 20
504.552248
 30
0.0
 10
129.295512
 20
506.155768
 30
0.0
 10
128.823272
 20
507.586544
 30
0.0
  0
SPLINE
  5
153
100
AcDbEntity
  8
Layer_1
 62
7
100
AcDbSpline
 70
8
 71
3
 72
8
 73
4
 74
0
 40
0
 40
0
 40
0
 40
0
 40
1
 40
1
 40
1
 40
1
 10
128.823272
 20
507.586544
 30
0.0
 10
128.351112
 20
509.017328
 30
0.0
 10
127.267752
 20
511.555080
 30
0.0
 10
126.415912
 20
513.225984
 30
0.0
  0
SPLINE
  5
154
100
AcDbEntity
  8
Layer_1
 62
7
100
AcDbSpline
 70
8
 71
3
 72
8
 73
4
 74
0
 40
0
 40
0
 40
0
 40
0
 40
1
 40
1
 40
1
 40
1
 10
126.415912
 20
513.225984
 30
0.0
 10
125.563992
 20
514.896888
 30
0.0
 10
124.619112
 20
517.927448
 30
0.0
 10
124.316152
 20
519.960568
 30
0.0
  0
SPLINE
  5
155
100
AcDbEntity
  8
Layer_1
 62
7
100
AcDbSpline
 70
8
 71
3
 72
8
 73
4
 74
0
 40
0
 40
0
 40
0
 40
0
 40
1
 40
1
 40
1
 40
1
 10
124.316152
 20
519.960568
 30
0.0
 10
124.013112
 20
521.993680
 30
0.0
 10
123.296072
 20
524.377136
 30
0.0
 10
122.722712
 20
525.257136
 30
0.0
  0
SPLINE
  5
156
100
AcDbEntity
  8
Layer_1
 62
7
100
AcDbSpline
 70
8
 71
3
 72
8
 73
4
 74
0
 40
0
 40
0
 40
0
 40
0
 40
1
 40
1
 40
1
 40
1
 10
122.722712
 20
525.257136
 30
0.0
 10
122.149272
 20
526.137136
 30
0.0
 10
121.722712
 20
528.713112
 30
0.0
 10
121.774792
 20
530.981520
 30
0.0
  0
SPLINE
  5
157
100
AcDbEntity
  8
Layer_1
 62
7
100
AcDbSpline
 70
8
 71
3
 72
8
 73
4
 74
0
 40
0
 40
0
 40
0
 40
0
 40
1
 40
1
 40
1
 40
1
 10
121.774792
 20
530.981520
 30
0.0
 10
121.851592
 20
534.336416
 30
0.0
 10
121.482312
 20
535.566048
 30
0.0
 10
119.794232
 20
537.572224
 30
0.0
  0
SPLINE
  5
158
100
AcDbEntity
  8
Layer_1
 62
7
100
AcDbSpline
 70
8
 71
3
 72
8
 73
4
 74
0
 40
0
 40
0
 40
0
 40
0
 40
1
 40
1
 40
1
 40
1
 10
119.794232
 20
537.572224
 30
0.0
 10
118.652792
 20
538.928704
 30
0.0
 10
117.131832
 20
542.112728
 30
0.0
 10
116.414152
 20
544.647840
 30
0.0
  0
SPLINE
  5
159
100
AcDbEntity
  8
Layer_1
 62
7
100
AcDbSpline
 70
8
 71
3
 72
8
 73
4
 74
0
 40
0
 40
0
 40
0
 40
0
 40
1
 40
1
 40
1
 40
1
 10
116.414152
 20
544.647840
 30
0.0
 10
115.696552
 20
547.182952
 30
0.0
 10
114.914312
 20
549.922512
 30
0.0
 10
114.675832
 20
550.735744
 30
0.0
  0
SPLINE
  5
15a
100
AcDbEntity
  8
Layer_1
 62
7
100
AcDbSpline
 70
8
 71
3
 72
8
 73
4
 74
0
 40
0
 40
0
 40
0
 40
0
 40
1
 40
1
 40
1
 40
1
 10
114.675832
 20
550.735744
 30
0.0
 10
114.437352
 20
551.548984
 30
0.0
 10
112.567752
 20
554.087568
 30
0.0
 10
110.521112
 20
556.377040
 30
0.0
  0
SPLINE
  5
15b
100
AcDbEntity
  8
Layer_1
 62
7
100
AcDbSpline
 70
8
 71
3
 72
8
 73
4
 74
0
 40
0
 40
0
 40
0
 40
0
 40
1
 40
1
 40
1
 40
1
 10
110.521112
 20
556.377040
 30
0.0
 10
108.474552
 20
558.666520
 30
0.0
 10
105.760552
 20
562.681144
 30
0.0
 10
104.490072
 20
565.298432
 30
0.0
  0
SPLINE
  5
15c
100
AcDbEntity
  8
Layer_1
 62
7
100
AcDbSpline
 70
8
 71
3
 72
8
 73
4
 74
0
 40
0
 40
0
 40
0
 40
0
 40
1
 40
1
 40
1
 40
1
 10
104.490072
 20
565.298432
 30
0.0
 10
103.219592
 20
567.915720
 30
0.0
 10
101.453432
 20
571.486144
 30
0.0
 10
100.565112
 20
573.232704
 30
0.0
  0
SPLINE
  5
15d
100
AcDbEntity
  8
Layer_1
 62
7
100
AcDbSpline
 70
8
 71
3
 72
8
 73
4
 74
0
 40
0
 40
0
 40
0
 40
0
 40
1
 40
1
 40
1
 40
1
 10
100.565112
 20
573.232704
 30
0.0
 10
99.676872
 20
574.979272
 30
0.0
 10
98.292552
 20
578.939272
 30
0.0
 10
97.488792
 20
582.032704
 30
0.0
  0
SPLINE
  5
15e
100
AcDbEntity
  8
Layer_1
 62
7
100
AcDbSpline
 70
8
 71
3
 72
8
 73
4
 74
0
 40
0
 40
0
 40
0
 40
0
 40
1
 40
1
 40
1
 40
1
 10
97.488792
 20
582.032704
 30
0.0
 10
96.109992
 20
587.339376
 30
0.0
 10
96.026632
 20
593.589280
 30
0.0
 10
96.013752
 20
692.657128
 30
0.0
  0
LWPOLYLINE
  5
15f
100
AcDbEntity
  8
Layer_1
 62
7
100
AcDbPolyline
 90
3
 70
0
 10
165.079224
 20
486.846848
 30
0.0
 10
162.558448
 20
485.405760
 30
0.0
 10
161.983136
 20
476.598992
 30
0.0
  0
SPLINE
  5
160
100
AcDbEntity
  8
Layer_1
 62
7
100
AcDbSpline
 70
8
 71
3
 72
8
 73
4
 74
0
 40
0
 40
0
 40
0
 40
0
 40
1
 40
1
 40
1
 40
1
 10
759.801384
 20
705.457128
 30
0.0
 10
759.604864
 20
632.971328
 30
0.0
 10
759.331424
 20
612.603568
 30
0.0
 10
758.522552
 20
610.200512
 30
0.0
  0
SPLINE
  5
161
100
AcDbEntity
  8
Layer_1
 62
7
100
AcDbSpline
 70
8
 71
3
 72
8
 73
4
 74
0
 40
0
 40
0
 40
0
 40
0
 40
1
 40
1
 40
1
 40
1
 10
758.522552
 20
610.200512
 30
0.0
 10
757.324760
 20
606.642040
 30
0.0
 10
752.729712
 20
601.275488
 30
0.0
 10
749.411264
 20
599.559456
 30
0.0
  0
SPLINE
  5
162
100
AcDbEntity
  8
Layer_1
 62
7
100
AcDbSpline
 70
8
 71
3
 72
8
 73
4
 74
0
 40
0
 40
0
 40
0
 40
0
 40
1
 40
1
 40
1
 40
1
 10
749.411264
 20
599.559456
 30
0.0
 10
748.141240
 20
598.902696
 30
0.0
 10
743.794184
 20
598.001176
 30
0.0
 10
739.751144
 20
597.556072
 30
0.0
  0
SPLINE
  5
163
100
AcDbEntity
  8
Layer_1
 62
7
100
AcDbSpline
 70
8
 71
3
 72
8
 73
4
 74
0
 40
0
 40
0
 40
0
 40
0
 40
1
 40
1
 40
1
 40
1
 10
739.751144
 20
597.556072
 30
0.0
 10
735.708104
 20
597.110960
 30
0.0
 10
731.680160
 20
596.242672
 30
0.0
 10
730.800160
 20
595.626536
 30
0.0
  0
SPLINE
  5
164
100
AcDbEntity
  8
Layer_1
 62
7
100
AcDbSpline
 70
8
 71
3
 72
8
 73
4
 74
0
 40
0
 40
0
 40
0
 40
0
 40
1
 40
1
 40
1
 40
1
 10
730.800160
 20
595.626536
 30
0.0
 10
729.920160
 20
595.010400
 30
0.0
 10
727.760160
 20
593.414008
 30
0.0
 10
726.000160
 20
592.079000
 30
0.0
  0
SPLINE
  5
165
100
AcDbEntity
  8
Layer_1
 62
7
100
AcDbSpline
 70
8
 71
3
 72
8
 73
4
 74
0
 40
0
 40
0
 40
0
 40
0
 40
1
 40
1
 40
1
 40
1
 10
726.000160
 20
592.079000
 30
0.0
 10
724.240160
 20
590.743984
 30
0.0
 10
721.774704
 20
589.022928
 30
0.0
 10
720.521368
 20
588.254416
 30
0.0
  0
SPLINE
  5
166
100
AcDbEntity
  8
Layer_1
 62
7
100
AcDbSpline
 70
8
 71
3
 72
8
 73
4
 74
0
 40
0
 40
0
 40
0
 40
0
 40
1
 40
1
 40
1
 40
1
 10
720.521368
 20
588.254416
 30
0.0
 10
716.023736
 20
585.496608
 30
0.0
 10
714.743352
 20
584.175696
 30
0.0
 10
712.854800
 20
580.345216
 30
0.0
  0
SPLINE
  5
167
100
AcDbEntity
  8
Layer_1
 62
7
100
AcDbSpline
 70
8
 71
3
 72
8
 73
4
 74
0
 40
0
 40
0
 40
0
 40
0
 40
1
 40
1
 40
1
 40
1
 10
712.854800
 20
580.345216
 30
0.0
 10
711.800480
 20
578.206776
 30
0.0
 10
710.186872
 20
575.517072
 30
0.0
 10
709.269008
 20
574.368104
 30
0.0
  0
SPLINE
  5
168
100
AcDbEntity
  8
Layer_1
 62
7
100
AcDbSpline
 70
8
 71
3
 72
8
 73
4
 74
0
 40
0
 40
0
 40
0
 40
0
 40
1
 40
1
 40
1
 40
1
 10
709.269008
 20
574.368104
 30
0.0
 10
708.351144
 20
573.219136
 30
0.0
 10
706.608248
 20
570.591296
 30
0.0
 10
705.395904
 20
568.528456
 30
0.0
  0
SPLINE
  5
169
100
AcDbEntity
  8
Layer_1
 62
7
100
AcDbSpline
 70
8
 71
3
 72
8
 73
4
 74
0
 40
0
 40
0
 40
0
 40
0
 40
1
 40
1
 40
1
 40
1
 10
705.395904
 20
568.528456
 30
0.0
 10
704.183568
 20
566.465616
 30
0.0
 10
702.115840
 20
564.165680
 30
0.0
 10
700.800960
 20
563.417488
 30
0.0
  0
SPLINE
  5
16a
100
AcDbEntity
  8
Layer_1
 62
7
100
AcDbSpline
 70
8
 71
3
 72
8
 73
4
 74
0
 40
0
 40
0
 40
0
 40
0
 40
1
 40
1
 40
1
 40
1
 10
700.800960
 20
563.417488
 30
0.0
 10
699.486088
 20
562.669296
 30
0.0
 10
698.408000
 20
561.725584
 30
0.0
 10
698.405216
 20
561.320360
 30
0.0
  0
SPLINE
  5
16b
100
AcDbEntity
  8
Layer_1
 62
7
100
AcDbSpline
 70
8
 71
3
 72
8
 73
4
 74
0
 40
0
 40
0
 40
0
 40
0
 40
1
 40
1
 40
1
 40
1
 10
698.405216
 20
561.320360
 30
0.0
 10
698.400416
 20
560.596824
 30
0.0
 10
696.498032
 20
556.385968
 30
0.0
 10
690.426016
 20
543.657136
 30
0.0
  0
SPLINE
  5
16c
100
AcDbEntity
  8
Layer_1
 62
7
100
AcDbSpline
 70
8
 71
3
 72
8
 73
4
 74
0
 40
0
 40
0
 40
0
 40
0
 40
1
 40
1
 40
1
 40
1
 10
690.426016
 20
543.657136
 30
0.0
 10
688.746872
 20
540.137136
 30
0.0
 10
686.757792
 20
535.637136
 30
0.0
 10
686.005840
 20
533.657136
 30
0.0
  0
SPLINE
  5
16d
100
AcDbEntity
  8
Layer_1
 62
7
100
AcDbSpline
 70
8
 71
3
 72
8
 73
4
 74
0
 40
0
 40
0
 40
0
 40
0
 40
1
 40
1
 40
1
 40
1
 10
686.005840
 20
533.657136
 30
0.0
 10
685.253888
 20
531.677136
 30
0.0
 10
684.134992
 20
528.874920
 30
0.0
 10
683.519408
 20
527.429992
 30
0.0
  0
SPLINE
  5
16e
100
AcDbEntity
  8
Layer_1
 62
7
100
AcDbSpline
 70
8
 71
3
 72
8
 73
4
 74
0
 40
0
 40
0
 40
0
 40
0
 40
1
 40
1
 40
1
 40
1
 10
683.519408
 20
527.429992
 30
0.0
 10
682.903824
 20
525.985064
 30
0.0
 10
682.400160
 20
523.462688
 30
0.0
 10
682.400160
 20
521.824712
 30
0.0
  0
SPLINE
  5
16f
100
AcDbEntity
  8
Layer_1
 62
7
100
AcDbSpline
 70
8
 71
3
 72
8
 73
4
 74
0
 40
0
 40
0
 40
0
 40
0
 40
1
 40
1
 40
1
 40
1
 10
682.400160
 20
521.824712
 30
0.0
 10
682.400160
 20
520.186736
 30
0.0
 10
682.014736
 20
517.588952
 30
0.0
 10
681.543664
 20
516.051856
 30
0.0
  0
SPLINE
  5
170
100
AcDbEntity
  8
Layer_1
 62
7
100
AcDbSpline
 70
8
 71
3
 72
8
 73
4
 74
0
 40
0
 40
0
 40
0
 40
0
 40
1
 40
1
 40
1
 40
1
 10
681.543664
 20
516.051856
 30
0.0
 10
681.072592
 20
514.514760
 30
0.0
 10
680.687920
 20
508.937136
 30
0.0
 10
680.688840
 20
503.657136
 30
0.0
  0
SPLINE
  5
171
100
AcDbEntity
  8
Layer_1
 62
7
100
AcDbSpline
 70
8
 71
3
 72
8
 73
4
 74
0
 40
0
 40
0
 40
0
 40
0
 40
1
 40
1
 40
1
 40
1
 10
680.688840
 20
503.657136
 30
0.0
 10
680.690440
 20
493.531392
 30
0.0
 10
679.356120
 20
486.101248
 30
0.0
 10
676.019120
 20
477.657128
 30
0.0
  0
SPLINE
  5
172
100
AcDbEntity
  8
Layer_1
 62
7
100
AcDbSpline
 70
8
 71
3
 72
8
 73
4
 74
0
 40
0
 40
0
 40
0
 40
0
 40
1
 40
1
 40
1
 40
1
 10
676.019120
 20
477.657128
 30
0.0
 10
673.145032
 20
470.384384
 30
0.0
 10
672.812832
 20
468.886824
 30
0.0
 10
671.644104
 20
457.934464
 30
0.0
  0
SPLINE
  5
173
100
AcDbEntity
  8
Layer_1
 62
7
100
AcDbSpline
 70
8
 71
3
 72
8
 73
4
 74
0
 40
0
 40
0
 40
0
 40
0
 40
1
 40
1
 40
1
 40
1
 10
671.644104
 20
457.934464
 30
0.0
 10
671.019816
 20
452.084112
 30
0.0
 10
669.961528
 20
446.329448
 30
0.0
 10
669.260696
 20
444.974192
 30
0.0
  0
SPLINE
  5
174
100
AcDbEntity
  8
Layer_1
 62
7
100
AcDbSpline
 70
8
 71
3
 72
8
 73
4
 74
0
 40
0
 40
0
 40
0
 40
0
 40
1
 40
1
 40
1
 40
1
 10
669.260696
 20
444.974192
 30
0.0
 10
668.567400
 20
443.633504
 30
0.0
 10
667.998152
 20
441.168704
 30
0.0
 10
667.995696
 20
439.496856
 30
0.0
  0
SPLINE
  5
175
100
AcDbEntity
  8
Layer_1
 62
7
100
AcDbSpline
 70
8
 71
3
 72
8
 73
4
 74
0
 40
0
 40
0
 40
0
 40
0
 40
1
 40
1
 40
1
 40
1
 10
667.995696
 20
439.496856
 30
0.0
 10
667.987696
 20
434.316392
 30
0.0
 10
666.535336
 20
430.831664
 30
0.0
 10
662.010976
 20
425.141344
 30
0.0
  0
SPLINE
  5
176
100
AcDbEntity
  8
Layer_1
 62
7
100
AcDbSpline
 70
8
 71
3
 72
8
 73
4
 74
0
 40
0
 40
0
 40
0
 40
0
 40
1
 40
1
 40
1
 40
1
 10
662.010976
 20
425.141344
 30
0.0
 10
655.881208
 20
417.431888
 30
0.0
 10
654.782520
 20
415.927784
 30
0.0
 10
653.622216
 20
413.657128
 30
0.0
  0
SPLINE
  5
177
100
AcDbEntity
  8
Layer_1
 62
7
100
AcDbSpline
 70
8
 71
3
 72
8
 73
4
 74
0
 40
0
 40
0
 40
0
 40
0
 40
1
 40
1
 40
1
 40
1
 10
653.622216
 20
413.657128
 30
0.0
 10
653.060120
 20
412.557128
 30
0.0
 10
651.949728
 20
410.937128
 30
0.0
 10
651.154680
 20
410.057128
 30
0.0
  0
SPLINE
  5
178
100
AcDbEntity
  8
Layer_1
 62
7
100
AcDbSpline
 70
8
 71
3
 72
8
 73
4
 74
0
 40
0
 40
0
 40
0
 40
0
 40
1
 40
1
 40
1
 40
1
 10
651.154680
 20
410.057128
 30
0.0
 10
650.359632
 20
409.177128
 30
0.0
 10
648.624136
 20
406.266648
 30
0.0
 10
647.298008
 20
403.589392
 30
0.0
  0
SPLINE
  5
179
100
AcDbEntity
  8
Layer_1
 62
7
100
AcDbSpline
 70
8
 71
3
 72
8
 73
4
 74
0
 40
0
 40
0
 40
0
 40
0
 40
1
 40
1
 40
1
 40
1
 10
647.298008
 20
403.589392
 30
0.0
 10
642.786856
 20
394.482000
 30
0.0
 10
636.192168
 20
390.576192
 30
0.0
 10
627.068872
 20
391.608376
 30
0.0
  0
SPLINE
  5
17a
100
AcDbEntity
  8
Layer_1
 62
7
100
AcDbSpline
 70
8
 71
3
 72
8
 73
4
 74
0
 40
0
 40
0
 40
0
 40
0
 40
1
 40
1
 40
1
 40
1
 10
627.068872
 20
391.608376
 30
0.0
 10
621.687672
 20
392.217184
 30
0.0
 10
620.804376
 20
391.363400
 30
0.0
 10
621.394936
 20
386.123992
 30
0.0
  0
SPLINE
  5
17b
100
AcDbEntity
  8
Layer_1
 62
7
100
AcDbSpline
 70
8
 71
3
 72
8
 73
4
 74
0
 40
0
 40
0
 40
0
 40
0
 40
1
 40
1
 40
1
 40
1
 10
621.394936
 20
386.123992
 30
0.0
 10
621.785400
 20
382.659768
 30
0.0
 10
621.242320
 20
380.198720
 30
0.0
 10
618.479304
 20
372.911432
 30
0.0
  0
SPLINE
  5
17c
100
AcDbEntity
  8
Layer_1
 62
7
100
AcDbSpline
 70
8
 71
3
 72
8
 73
4
 74
0
 40
0
 40
0
 40
0
 40
0
 40
1
 40
1
 40
1
 40
1
 10
618.479304
 20
372.911432
 30
0.0
 10
616.445656
 20
367.547824
 30
0.0
 10
613.096408
 20
364.007888
 30
0.0
 10
606.638376
 20
360.396352
 30
0.0
  0
SPLINE
  5
17d
100
AcDbEntity
  8
Layer_1
 62
7
100
AcDbSpline
 70
8
 71
3
 72
8
 73
4
 74
0
 40
0
 40
0
 40
0
 40
0
 40
1
 40
1
 40
1
 40
1
 10
606.638376
 20
360.396352
 30
0.0
 10
603.906048
 20
358.868344
 30
0.0
 10
601.430264
 20
357.229440
 30
0.0
 10
601.136632
 20
356.754344
 30
0.0
  0
SPLINE
  5
17e
100
AcDbEntity
  8
Layer_1
 62
7
100
AcDbSpline
 70
8
 71
3
 72
8
 73
4
 74
0
 40
0
 40
0
 40
0
 40
0
 40
1
 40
1
 40
1
 40
1
 10
601.136632
 20
356.754344
 30
0.0
 10
600.843008
 20
356.279240
 30
0.0
 10
599.297184
 20
355.291976
 30
0.0
 10
597.701464
 20
354.560416
 30
0.0
  0
SPLINE
  5
17f
100
AcDbEntity
  8
Layer_1
 62
7
100
AcDbSpline
 70
8
 71
3
 72
8
 73
4
 74
0
 40
0
 40
0
 40
0
 40
0
 40
1
 40
1
 40
1
 40
1
 10
597.701464
 20
354.560416
 30
0.0
 10
594.849208
 20
353.252792
 30
0.0
 10
592.779904
 20
352.030344
 30
0.0
 10
587.180080
 20
348.344896
 30
0.0
  0
SPLINE
  5
180
100
AcDbEntity
  8
Layer_1
 62
7
100
AcDbSpline
 70
8
 71
3
 72
8
 73
4
 74
0
 40
0
 40
0
 40
0
 40
0
 40
1
 40
1
 40
1
 40
1
 10
587.180080
 20
348.344896
 30
0.0
 10
585.629032
 20
347.324096
 30
0.0
 10
582.620736
 20
345.965456
 30
0.0
 10
580.494976
 20
345.325696
 30
0.0
  0
SPLINE
  5
181
100
AcDbEntity
  8
Layer_1
 62
7
100
AcDbSpline
 70
8
 71
3
 72
8
 73
4
 74
0
 40
0
 40
0
 40
0
 40
0
 40
1
 40
1
 40
1
 40
1
 10
580.494976
 20
345.325696
 30
0.0
 10
577.611064
 20
344.457768
 30
0.0
 10
575.172528
 20
342.749304
 30
0.0
 10
570.888488
 20
338.595304
 30
0.0
  0
SPLINE
  5
182
100
AcDbEntity
  8
Layer_1
 62
7
100
AcDbSpline
 70
8
 71
3
 72
8
 73
4
 74
0
 40
0
 40
0
 40
0
 40
0
 40
1
 40
1
 40
1
 40
1
 10
570.888488
 20
338.595304
 30
0.0
 10
563.547080
 20
331.476736
 30
0.0
 10
558.771864
 20
329.945072
 30
0.0
 10
550.800160
 20
332.151928
 30
0.0
  0
SPLINE
  5
183
100
AcDbEntity
  8
Layer_1
 62
7
100
AcDbSpline
 70
8
 71
3
 72
8
 73
4
 74
0
 40
0
 40
0
 40
0
 40
0
 40
1
 40
1
 40
1
 40
1
 10
550.800160
 20
332.151928
 30
0.0
 10
546.316808
 20
333.393080
 30
0.0
 10
540.451240
 20
339.412672
 30
0.0
 10
539.198208
 20
344.058528
 30
0.0
  0
SPLINE
  5
184
100
AcDbEntity
  8
Layer_1
 62
7
100
AcDbSpline
 70
8
 71
3
 72
8
 73
4
 74
0
 40
0
 40
0
 40
0
 40
0
 40
1
 40
1
 40
1
 40
1
 10
539.198208
 20
344.058528
 30
0.0
 10
538.088072
 20
348.174616
 30
0.0
 10
538.572688
 20
354.132256
 30
0.0
 10
540.284616
 20
357.414120
 30
0.0
  0
SPLINE
  5
185
100
AcDbEntity
  8
Layer_1
 62
7
100
AcDbSpline
 70
8
 71
3
 72
8
 73
4
 74
0
 40
0
 40
0
 40
0
 40
0
 40
1
 40
1
 40
1
 40
1
 10
540.284616
 20
357.414120
 30
0.0
 10
541.877840
 20
360.468432
 30
0.0
 10
554.858168
 20
372.740240
 30
0.0
 10
559.387640
 20
375.474424
 30
0.0
  0
SPLINE
  5
186
100
AcDbEntity
  8
Layer_1
 62
7
100
AcDbSpline
 70
8
 71
3
 72
8
 73
4
 74
0
 40
0
 40
0
 40
0
 40
0
 40
1
 40
1
 40
1
 40
1
 10
559.387640
 20
375.474424
 30
0.0
 10
561.407896
 20
376.693944
 30
0.0
 10
564.622184
 20
378.166792
 30
0.0
 10
566.530496
 20
378.747432
 30
0.0
  0
SPLINE
  5
187
100
AcDbEntity
  8
Layer_1
 62
7
100
AcDbSpline
 70
8
 71
3
 72
8
 73
4
 74
0
 40
0
 40
0
 40
0
 40
0
 40
1
 40
1
 40
1
 40
1
 10
566.530496
 20
378.747432
 30
0.0
 10
568.438816
 20
379.328064
 30
0.0
 10
571.400400
 20
380.760280
 30
0.0
 10
573.111800
 20
381.930128
 30
0.0
  0
SPLINE
  5
188
100
AcDbEntity
  8
Layer_1
 62
7
100
AcDbSpline
 70
8
 71
3
 72
8
 73
4
 74
0
 40
0
 40
0
 40
0
 40
0
 40
1
 40
1
 40
1
 40
1
 10
573.111800
 20
381.930128
 30
0.0
 10
574.823200
 20
383.099976
 30
0.0
 10
576.623200
 20
384.081032
 30
0.0
 10
577.111800
 20
384.110240
 30
0.0
  0
SPLINE
  5
189
100
AcDbEntity
  8
Layer_1
 62
7
100
AcDbSpline
 70
8
 71
3
 72
8
 73
4
 74
0
 40
0
 40
0
 40
0
 40
0
 40
1
 40
1
 40
1
 40
1
 10
577.111800
 20
384.110240
 30
0.0
 10
577.600400
 20
384.139440
 30
0.0
 10
579.620160
 20
385.338560
 30
0.0
 10
581.600160
 20
386.774920
 30
0.0
  0
SPLINE
  5
18a
100
AcDbEntity
  8
Layer_1
 62
7
100
AcDbSpline
 70
8
 71
3
 72
8
 73
4
 74
0
 40
0
 40
0
 40
0
 40
0
 40
1
 40
1
 40
1
 40
1
 10
581.600160
 20
386.774920
 30
0.0
 10
584.972736
 20
389.221512
 30
0.0
 10
585.231696
 20
389.675896
 30
0.0
 10
585.699304
 20
393.967584
 30
0.0
  0
SPLINE
  5
18b
100
AcDbEntity
  8
Layer_1
 62
7
100
AcDbSpline
 70
8
 71
3
 72
8
 73
4
 74
0
 40
0
 40
0
 40
0
 40
0
 40
1
 40
1
 40
1
 40
1
 10
585.699304
 20
393.967584
 30
0.0
 10
585.973832
 20
396.487192
 30
0.0
 10
586.824416
 20
400.058080
 30
0.0
 10
587.589488
 20
401.902904
 30
0.0
  0
SPLINE
  5
18c
100
AcDbEntity
  8
Layer_1
 62
7
100
AcDbSpline
 70
8
 71
3
 72
8
 73
4
 74
0
 40
0
 40
0
 40
0
 40
0
 40
1
 40
1
 40
1
 40
1
 10
587.589488
 20
401.902904
 30
0.0
 10
588.354568
 20
403.747728
 30
0.0
 10
589.445880
 20
406.517128
 30
0.0
 10
590.014640
 20
408.057128
 30
0.0
  0
SPLINE
  5
18d
100
AcDbEntity
  8
Layer_1
 62
7
100
AcDbSpline
 70
8
 71
3
 72
8
 73
4
 74
0
 40
0
 40
0
 40
0
 40
0
 40
1
 40
1
 40
1
 40
1
 10
590.014640
 20
408.057128
 30
0.0
 10
590.583400
 20
409.597128
 30
0.0
 10
591.469304
 20
411.985648
 30
0.0
 10
591.983328
 20
413.364944
 30
0.0
  0
SPLINE
  5
18e
100
AcDbEntity
  8
Layer_1
 62
7
100
AcDbSpline
 70
8
 71
3
 72
8
 73
4
 74
0
 40
0
 40
0
 40
0
 40
0
 40
1
 40
1
 40
1
 40
1
 10
591.983328
 20
413.364944
 30
0.0
 10
592.497344
 20
414.744240
 30
0.0
 10
595.321408
 20
418.408688
 30
0.0
 10
598.259032
 20
421.508168
 30
0.0
  0
SPLINE
  5
18f
100
AcDbEntity
  8
Layer_1
 62
7
100
AcDbSpline
 70
8
 71
3
 72
8
 73
4
 74
0
 40
0
 40
0
 40
0
 40
0
 40
1
 40
1
 40
1
 40
1
 10
598.259032
 20
421.508168
 30
0.0
 10
604.448488
 20
428.038640
 30
0.0
 10
607.643392
 20
429.330080
 30
0.0
 10
615.565856
 20
428.503896
 30
0.0
  0
SPLINE
  5
190
100
AcDbEntity
  8
Layer_1
 62
7
100
AcDbSpline
 70
8
 71
3
 72
8
 73
4
 74
0
 40
0
 40
0
 40
0
 40
0
 40
1
 40
1
 40
1
 40
1
 10
615.565856
 20
428.503896
 30
0.0
 10
620.224552
 20
428.018072
 30
0.0
 10
620.450904
 20
428.080720
 30
0.0
 10
621.797088
 20
430.228440
 30
0.0
  0
SPLINE
  5
191
100
AcDbEntity
  8
Layer_1
 62
7
100
AcDbSpline
 70
8
 71
3
 72
8
 73
4
 74
0
 40
0
 40
0
 40
0
 40
0
 40
1
 40
1
 40
1
 40
1
 10
621.797088
 20
430.228440
 30
0.0
 10
623.970976
 20
433.696696
 30
0.0
 10
627.361744
 20
438.782328
 30
0.0
 10
630.074568
 20
442.643408
 30
0.0
  0
SPLINE
  5
192
100
AcDbEntity
  8
Layer_1
 62
7
100
AcDbSpline
 70
8
 71
3
 72
8
 73
4
 74
0
 40
0
 40
0
 40
0
 40
0
 40
1
 40
1
 40
1
 40
1
 10
630.074568
 20
442.643408
 30
0.0
 10
631.435496
 20
444.580376
 30
0.0
 10
632.795792
 20
447.708640
 30
0.0
 10
633.097456
 20
449.595120
 30
0.0
  0
SPLINE
  5
193
100
AcDbEntity
  8
Layer_1
 62
7
100
AcDbSpline
 70
8
 71
3
 72
8
 73
4
 74
0
 40
0
 40
0
 40
0
 40
0
 40
1
 40
1
 40
1
 40
1
 10
633.097456
 20
449.595120
 30
0.0
 10
633.399112
 20
451.481600
 30
0.0
 10
634.128840
 20
453.977296
 30
0.0
 10
634.719064
 20
455.141104
 30
0.0
  0
SPLINE
  5
194
100
AcDbEntity
  8
Layer_1
 62
7
100
AcDbSpline
 70
8
 71
3
 72
8
 73
4
 74
0
 40
0
 40
0
 40
0
 40
0
 40
1
 40
1
 40
1
 40
1
 10
634.719064
 20
455.141104
 30
0.0
 10
636.317072
 20
458.292048
 30
0.0
 10
637.078216
 20
469.650552
 30
0.0
 10
635.968704
 20
473.789408
 30
0.0
  0
SPLINE
  5
195
100
AcDbEntity
  8
Layer_1
 62
7
100
AcDbSpline
 70
8
 71
3
 72
8
 73
4
 74
0
 40
0
 40
0
 40
0
 40
0
 40
1
 40
1
 40
1
 40
1
 10
635.968704
 20
473.789408
 30
0.0
 10
635.457424
 20
475.696656
 30
0.0
 10
633.473856
 20
479.575360
 30
0.0
 10
631.560768
 20
482.408760
 30
0.0
  0
SPLINE
  5
196
100
AcDbEntity
  8
Layer_1
 62
7
100
AcDbSpline
 70
8
 71
3
 72
8
 73
4
 74
0
 40
0
 40
0
 40
0
 40
0
 40
1
 40
1
 40
1
 40
1
 10
631.560768
 20
482.408760
 30
0.0
 10
628.773264
 20
486.537248
 30
0.0
 10
627.399008
 20
487.809704
 30
0.0
 10
624.641304
 20
488.815664
 30
0.0
  0
SPLINE
  5
197
100
AcDbEntity
  8
Layer_1
 62
7
100
AcDbSpline
 70
8
 71
3
 72
8
 73
4
 74
0
 40
0
 40
0
 40
0
 40
0
 40
1
 40
1
 40
1
 40
1
 10
624.641304
 20
488.815664
 30
0.0
 10
622.054480
 20
489.759296
 30
0.0
 10
620.841336
 20
490.803328
 30
0.0
 10
619.754848
 20
493.020976
 30
0.0
  0
LWPOLYLINE
  5
198
100
AcDbEntity
  8
Layer_1
 62
7
100
AcDbPolyline
 90
5
 70
0
 10
96.013752
 20
692.657128
 30
0.0
 10
96.000152
 20
797.657139
 30
0.0
 10
428.025760
 20
797.657139
 30
0.0
 10
760.051360
 20
797.657139
 30
0.0
 10
759.801384
 20
705.457128
 30
0.0
  0
SPLINE
  5
199
100
AcDbEntity
  8
Layer_1
 62
7
100
AcDbSpline
 70
8
 71
3
 72
8
 73
4
 74
0
 40
0
 40
0
 40
0
 40
0
 40
1
 40
1
 40
1
 40
1
 10
614.154848
 20
495.485856
 30
0.0
 10
611.479872
 20
495.173496
 30
0.0
 10
609.634992
 20
494.486712
 30
0.0
 10
608.974848
 20
493.557544
 30
0.0
  0
SPLINE
  5
19a
100
AcDbEntity
  8
Layer_1
 62
7
100
AcDbSpline
 70
8
 71
3
 72
8
 73
4
 74
0
 40
0
 40
0
 40
0
 40
0
 40
1
 40
1
 40
1
 40
1
 10
608.974848
 20
493.557544
 30
0.0
 10
607.072640
 20
490.880136
 30
0.0
 10
597.538752
 20
483.272200
 30
0.0
 10
595.419080
 20
482.740192
 30
0.0
  0
SPLINE
  5
19b
100
AcDbEntity
  8
Layer_1
 62
7
100
AcDbSpline
 70
8
 71
3
 72
8
 73
4
 74
0
 40
0
 40
0
 40
0
 40
0
 40
1
 40
1
 40
1
 40
1
 10
595.419080
 20
482.740192
 30
0.0
 10
591.060120
 20
481.646168
 30
0.0
 10
582.758600
 20
476.125632
 30
0.0
 10
580.379288
 20
472.738696
 30
0.0
  0
SPLINE
  5
19c
100
AcDbEntity
  8
Layer_1
 62
7
100
AcDbSpline
 70
8
 71
3
 72
8
 73
4
 74
0
 40
0
 40
0
 40
0
 40
0
 40
1
 40
1
 40
1
 40
1
 10
580.379288
 20
472.738696
 30
0.0
 10
577.390184
 20
468.483728
 30
0.0
 10
571.808720
 20
462.894032
 30
0.0
 10
566.917576
 20
459.257128
 30
0.0
  0
SPLINE
  5
19d
100
AcDbEntity
  8
Layer_1
 62
7
100
AcDbSpline
 70
8
 71
3
 72
8
 73
4
 74
0
 40
0
 40
0
 40
0
 40
0
 40
1
 40
1
 40
1
 40
1
 10
566.917576
 20
459.257128
 30
0.0
 10
564.846480
 20
457.717128
 30
0.0
 10
561.699016
 20
455.377128
 30
0.0
 10
559.923208
 20
454.057128
 30
0.0
  0
SPLINE
  5
19e
100
AcDbEntity
  8
Layer_1
 62
7
100
AcDbSpline
 70
8
 71
3
 72
8
 73
4
 74
0
 40
0
 40
0
 40
0
 40
0
 40
1
 40
1
 40
1
 40
1
 10
559.923208
 20
454.057128
 30
0.0
 10
558.147400
 20
452.737128
 30
0.0
 10
555.908248
 20
450.348216
 30
0.0
 10
554.947312
 20
448.748424
 30
0.0
  0
SPLINE
  5
19f
100
AcDbEntity
  8
Layer_1
 62
7
100
AcDbSpline
 70
8
 71
3
 72
8
 73
4
 74
0
 40
0
 40
0
 40
0
 40
0
 40
1
 40
1
 40
1
 40
1
 10
554.947312
 20
448.748424
 30
0.0
 10
548.935728
 20
438.740200
 30
0.0
 10
546.096624
 20
434.966016
 30
0.0
 10
540.285104
 20
429.257128
 30
0.0
  0
SPLINE
  5
1a0
100
AcDbEntity
  8
Layer_1
 62
7
100
AcDbSpline
 70
8
 71
3
 72
8
 73
4
 74
0
 40
0
 40
0
 40
0
 40
0
 40
1
 40
1
 40
1
 40
1
 10
540.285104
 20
429.257128
 30
0.0
 10
536.701816
 20
425.737128
 30
0.0
 10
532.774760
 20
421.057128
 30
0.0
 10
531.558304
 20
418.857128
 30
0.0
  0
SPLINE
  5
1a1
100
AcDbEntity
  8
Layer_1
 62
7
100
AcDbSpline
 70
8
 71
3
 72
8
 73
4
 74
0
 40
0
 40
0
 40
0
 40
0
 40
1
 40
1
 40
1
 40
1
 10
531.558304
 20
418.857128
 30
0.0
 10
530.341848
 20
416.657128
 30
0.0
 10
528.005672
 20
413.417128
 30
0.0
 10
526.366800
 20
411.657128
 30
0.0
  0
SPLINE
  5
1a2
100
AcDbEntity
  8
Layer_1
 62
7
100
AcDbSpline
 70
8
 71
3
 72
8
 73
4
 74
0
 40
0
 40
0
 40
0
 40
0
 40
1
 40
1
 40
1
 40
1
 10
526.366800
 20
411.657128
 30
0.0
 10
521.945592
 20
406.909160
 30
0.0
 10
521.373408
 20
405.342952
 30
0.0
 10
520.305144
 20
395.064872
 30
0.0
  0
LWPOLYLINE
  5
1a3
100
AcDbEntity
  8
Layer_1
 62
7
100
AcDbPolyline
 90
3
 70
0
 10
619.754848
 20
493.020976
 30
0.0
 10
618.309528
 20
495.971016
 30
0.0
 10
614.154848
 20
495.485856
 30
0.0
  0
SPLINE
  5
1a4
100
AcDbEntity
  8
Layer_1
 62
7
100
AcDbSpline
 70
8
 71
3
 72
8
 73
4
 74
0
 40
0
 40
0
 40
0
 40
0
 40
1
 40
1
 40
1
 40
1
 10
513.724704
 20
375.864872
 30
0.0
 10
508.682360
 20
367.040480
 30
0.0
 10
506.915008
 20
363.245728
 30
0.0
 10
504.861232
 20
356.833680
 30
0.0
  0
SPLINE
  5
1a5
100
AcDbEntity
  8
Layer_1
 62
7
100
AcDbSpline
 70
8
 71
3
 72
8
 73
4
 74
0
 40
0
 40
0
 40
0
 40
0
 40
1
 40
1
 40
1
 40
1
 10
504.861232
 20
356.833680
 30
0.0
 10
503.569584
 20
352.801064
 30
0.0
 10
499.034144
 20
345.693328
 30
0.0
 10
496.008160
 20
342.959528
 30
0.0
  0
SPLINE
  5
1a6
100
AcDbEntity
  8
Layer_1
 62
7
100
AcDbSpline
 70
8
 71
3
 72
8
 73
4
 74
0
 40
0
 40
0
 40
0
 40
0
 40
1
 40
1
 40
1
 40
1
 10
496.008160
 20
342.959528
 30
0.0
 10
493.269072
 20
340.484928
 30
0.0
 10
488.706568
 20
338.474560
 30
0.0
 10
485.800160
 20
338.461592
 30
0.0
  0
SPLINE
  5
1a7
100
AcDbEntity
  8
Layer_1
 62
7
100
AcDbSpline
 70
8
 71
3
 72
8
 73
4
 74
0
 40
0
 40
0
 40
0
 40
0
 40
1
 40
1
 40
1
 40
1
 10
485.800160
 20
338.461592
 30
0.0
 10
485.250160
 20
338.459192
 30
0.0
 10
484.800160
 20
338.101648
 30
0.0
 10
484.800160
 20
337.667160
 30
0.0
  0
SPLINE
  5
1a8
100
AcDbEntity
  8
Layer_1
 62
7
100
AcDbSpline
 70
8
 71
3
 72
8
 73
4
 74
0
 40
0
 40
0
 40
0
 40
0
 40
1
 40
1
 40
1
 40
1
 10
484.800160
 20
337.667160
 30
0.0
 10
484.800160
 20
337.232680
 30
0.0
 10
483.447280
 20
336.023160
 30
0.0
 10
481.793752
 20
334.979336
 30
0.0
  0
SPLINE
  5
1a9
100
AcDbEntity
  8
Layer_1
 62
7
100
AcDbSpline
 70
8
 71
3
 72
8
 73
4
 74
0
 40
0
 40
0
 40
0
 40
0
 40
1
 40
1
 40
1
 40
1
 10
481.793752
 20
334.979336
 30
0.0
 10
479.254736
 20
333.376528
 30
0.0
 10
478.506096
 20
332.208208
 30
0.0
 10
476.978192
 20
327.464216
 30
0.0
  0
SPLINE
  5
1aa
100
AcDbEntity
  8
Layer_1
 62
7
100
AcDbSpline
 70
8
 71
3
 72
8
 73
4
 74
0
 40
0
 40
0
 40
0
 40
0
 40
1
 40
1
 40
1
 40
1
 10
476.978192
 20
327.464216
 30
0.0
 10
475.503920
 20
322.886760
 30
0.0
 10
474.437824
 20
321.162992
 30
0.0
 10
471.218864
 20
318.152040
 30
0.0
  0
SPLINE
  5
1ab
100
AcDbEntity
  8
Layer_1
 62
7
100
AcDbSpline
 70
8
 71
3
 72
8
 73
4
 74
0
 40
0
 40
0
 40
0
 40
0
 40
1
 40
1
 40
1
 40
1
 10
471.218864
 20
318.152040
 30
0.0
 10
469.046280
 20
316.119840
 30
0.0
 10
466.968288
 20
314.457128
 30
0.0
 10
466.601104
 20
314.457128
 30
0.0
  0
SPLINE
  5
1ac
100
AcDbEntity
  8
Layer_1
 62
7
100
AcDbSpline
 70
8
 71
3
 72
8
 73
4
 74
0
 40
0
 40
0
 40
0
 40
0
 40
1
 40
1
 40
1
 40
1
 10
466.601104
 20
314.457128
 30
0.0
 10
466.233920
 20
314.457128
 30
0.0
 10
464.633432
 20
313.287128
 30
0.0
 10
463.044456
 20
311.857128
 30
0.0
  0
SPLINE
  5
1ad
100
AcDbEntity
  8
Layer_1
 62
7
100
AcDbSpline
 70
8
 71
3
 72
8
 73
4
 74
0
 40
0
 40
0
 40
0
 40
0
 40
1
 40
1
 40
1
 40
1
 10
463.044456
 20
311.857128
 30
0.0
 10
461.455488
 20
310.427128
 30
0.0
 10
459.220480
 20
308.610320
 30
0.0
 10
458.077792
 20
307.819784
 30
0.0
  0
SPLINE
  5
1ae
100
AcDbEntity
  8
Layer_1
 62
7
100
AcDbSpline
 70
8
 71
3
 72
8
 73
4
 74
0
 40
0
 40
0
 40
0
 40
0
 40
1
 40
1
 40
1
 40
1
 10
458.077792
 20
307.819784
 30
0.0
 10
456.594880
 20
306.793872
 30
0.0
 10
456.000160
 20
305.670672
 30
0.0
 10
456.000160
 20
303.895912
 30
0.0
  0
SPLINE
  5
1af
100
AcDbEntity
  8
Layer_1
 62
7
100
AcDbSpline
 70
8
 71
3
 72
8
 73
4
 74
0
 40
0
 40
0
 40
0
 40
0
 40
1
 40
1
 40
1
 40
1
 10
456.000160
 20
303.895912
 30
0.0
 10
456.000160
 20
300.595776
 30
0.0
 10
450.807064
 20
295.573784
 30
0.0
 10
446.089848
 20
294.312120
 30
0.0
  0
SPLINE
  5
1b0
100
AcDbEntity
  8
Layer_1
 62
7
100
AcDbSpline
 70
8
 71
3
 72
8
 73
4
 74
0
 40
0
 40
0
 40
0
 40
0
 40
1
 40
1
 40
1
 40
1
 10
446.089848
 20
294.312120
 30
0.0
 10
443.751152
 20
293.686616
 30
0.0
 10
442.278424
 20
292.697104
 30
0.0
 10
441.394888
 20
291.157640
 30
0.0
  0
SPLINE
  5
1b1
100
AcDbEntity
  8
Layer_1
 62
7
100
AcDbSpline
 70
8
 71
3
 72
8
 73
4
 74
0
 40
0
 40
0
 40
0
 40
0
 40
1
 40
1
 40
1
 40
1
 10
441.394888
 20
291.157640
 30
0.0
 10
440.654480
 20
289.867560
 30
0.0
 10
439.150040
 20
288.704032
 30
0.0
 10
437.853848
 20
288.419024
 30
0.0
  0
SPLINE
  5
1b2
100
AcDbEntity
  8
Layer_1
 62
7
100
AcDbSpline
 70
8
 71
3
 72
8
 73
4
 74
0
 40
0
 40
0
 40
0
 40
0
 40
1
 40
1
 40
1
 40
1
 10
437.853848
 20
288.419024
 30
0.0
 10
436.614320
 20
288.146480
 30
0.0
 10
435.229000
 20
287.815112
 30
0.0
 10
434.775368
 20
287.682648
 30
0.0
  0
SPLINE
  5
1b3
100
AcDbEntity
  8
Layer_1
 62
7
100
AcDbSpline
 70
8
 71
3
 72
8
 73
4
 74
0
 40
0
 40
0
 40
0
 40
0
 40
1
 40
1
 40
1
 40
1
 10
434.775368
 20
287.682648
 30
0.0
 10
434.321728
 20
287.550184
 30
0.0
 10
433.311840
 20
285.415528
 30
0.0
 10
432.531168
 20
282.938952
 30
0.0
  0
SPLINE
  5
1b4
100
AcDbEntity
  8
Layer_1
 62
7
100
AcDbSpline
 70
8
 71
3
 72
8
 73
4
 74
0
 40
0
 40
0
 40
0
 40
0
 40
1
 40
1
 40
1
 40
1
 10
432.531168
 20
282.938952
 30
0.0
 10
430.957872
 20
277.947864
 30
0.0
 10
428.628704
 20
275.822152
 30
0.0
 10
425.041880
 20
276.103848
 30
0.0
  0
SPLINE
  5
1b5
100
AcDbEntity
  8
Layer_1
 62
7
100
AcDbSpline
 70
8
 71
3
 72
8
 73
4
 74
0
 40
0
 40
0
 40
0
 40
0
 40
1
 40
1
 40
1
 40
1
 10
425.041880
 20
276.103848
 30
0.0
 10
423.808936
 20
276.200680
 30
0.0
 10
421.461720
 20
275.689776
 30
0.0
 10
419.825856
 20
274.968520
 30
0.0
  0
SPLINE
  5
1b6
100
AcDbEntity
  8
Layer_1
 62
7
100
AcDbSpline
 70
8
 71
3
 72
8
 73
4
 74
0
 40
0
 40
0
 40
0
 40
0
 40
1
 40
1
 40
1
 40
1
 10
419.825856
 20
274.968520
 30
0.0
 10
418.189984
 20
274.247256
 30
0.0
 10
415.849984
 20
273.645752
 30
0.0
 10
414.625856
 20
273.631848
 30
0.0
  0
SPLINE
  5
1b7
100
AcDbEntity
  8
Layer_1
 62
7
100
AcDbSpline
 70
8
 71
3
 72
8
 73
4
 74
0
 40
0
 40
0
 40
0
 40
0
 40
1
 40
1
 40
1
 40
1
 10
414.625856
 20
273.631848
 30
0.0
 10
411.919008
 20
273.601128
 30
0.0
 10
408.944920
 20
271.034248
 30
0.0
 10
406.800160
 20
266.877696
 30
0.0
  0
SPLINE
  5
1b8
100
AcDbEntity
  8
Layer_1
 62
7
100
AcDbSpline
 70
8
 71
3
 72
8
 73
4
 74
0
 40
0
 40
0
 40
0
 40
0
 40
1
 40
1
 40
1
 40
1
 10
406.800160
 20
266.877696
 30
0.0
 10
405.920160
 20
265.172256
 30
0.0
 10
404.215144
 20
262.536720
 30
0.0
 10
403.011240
 20
261.020952
 30
0.0
  0
SPLINE
  5
1b9
100
AcDbEntity
  8
Layer_1
 62
7
100
AcDbSpline
 70
8
 71
3
 72
8
 73
4
 74
0
 40
0
 40
0
 40
0
 40
0
 40
1
 40
1
 40
1
 40
1
 10
403.011240
 20
261.020952
 30
0.0
 10
400.688968
 20
258.097112
 30
0.0
 10
399.211976
 20
253.906560
 30
0.0
 10
399.204624
 20
250.220768
 30
0.0
  0
SPLINE
  5
1ba
100
AcDbEntity
  8
Layer_1
 62
7
100
AcDbSpline
 70
8
 71
3
 72
8
 73
4
 74
0
 40
0
 40
0
 40
0
 40
0
 40
1
 40
1
 40
1
 40
1
 10
399.204624
 20
250.220768
 30
0.0
 10
399.199024
 20
247.432120
 30
0.0
 10
395.966968
 20
244.057128
 30
0.0
 10
393.301952
 20
244.057128
 30
0.0
  0
SPLINE
  5
1bb
100
AcDbEntity
  8
Layer_1
 62
7
100
AcDbSpline
 70
8
 71
3
 72
8
 73
4
 74
0
 40
0
 40
0
 40
0
 40
0
 40
1
 40
1
 40
1
 40
1
 10
393.301952
 20
244.057128
 30
0.0
 10
389.372344
 20
244.057128
 30
0.0
 10
389.270648
 20
244.159568
 30
0.0
 10
382.580592
 20
254.857128
 30
0.0
  0
SPLINE
  5
1bc
100
AcDbEntity
  8
Layer_1
 62
7
100
AcDbSpline
 70
8
 71
3
 72
8
 73
4
 74
0
 40
0
 40
0
 40
0
 40
0
 40
1
 40
1
 40
1
 40
1
 10
382.580592
 20
254.857128
 30
0.0
 10
382.030256
 20
255.737128
 30
0.0
 10
380.904448
 20
257.897128
 30
0.0
 10
380.078784
 20
259.657128
 30
0.0
  0
SPLINE
  5
1bd
100
AcDbEntity
  8
Layer_1
 62
7
100
AcDbSpline
 70
8
 71
3
 72
8
 73
4
 74
0
 40
0
 40
0
 40
0
 40
0
 40
1
 40
1
 40
1
 40
1
 10
380.078784
 20
259.657128
 30
0.0
 10
378.067872
 20
263.943672
 30
0.0
 10
376.246544
 20
264.905672
 30
0.0
 10
371.260016
 20
264.315096
 30
0.0
  0
LWPOLYLINE
  5
1be
100
AcDbEntity
  8
Layer_1
 62
7
100
AcDbPolyline
 90
3
 70
0
 10
520.305144
 20
395.064872
 30
0.0
 10
519.328952
 20
385.672624
 30
0.0
 10
513.724704
 20
375.864872
 30
0.0
  0
SPLINE
  5
1bf
100
AcDbEntity
  8
Layer_1
 62
7
100
AcDbSpline
 70
8
 71
3
 72
8
 73
4
 74
0
 40
0
 40
0
 40
0
 40
0
 40
1
 40
1
 40
1
 40
1
 10
367.200160
 20
253.909328
 30
0.0
 10
367.200160
 20
244.438416
 30
0.0
 10
367.110336
 20
243.894576
 30
0.0
 10
365.236520
 20
242.020768
 30
0.0
  0
SPLINE
  5
1c0
100
AcDbEntity
  8
Layer_1
 62
7
100
AcDbSpline
 70
8
 71
3
 72
8
 73
4
 74
0
 40
0
 40
0
 40
0
 40
0
 40
1
 40
1
 40
1
 40
1
 10
365.236520
 20
242.020768
 30
0.0
 10
363.187928
 20
239.972168
 30
0.0
 10
359.861064
 20
239.486736
 30
0.0
 10
357.462352
 20
240.886408
 30
0.0
  0
LWPOLYLINE
  5
1c1
100
AcDbEntity
  8
Layer_1
 62
7
100
AcDbPolyline
 90
3
 70
0
 10
371.260016
 20
264.315096
 30
0.0
 10
367.200160
 20
263.834264
 30
0.0
 10
367.200160
 20
253.909328
 30
0.0
  0
LWPOLYLINE
  5
1c2
100
AcDbEntity
  8
Layer_1
 62
7
100
AcDbPolyline
 90
2
 70
0
 10
357.462352
 20
240.886408
 30
0.0
 10
357.462192
 20
240.886408
 30
0.0
  0
ENDSEC
  0
SECTION
  2
OBJECTS
  0
DICTIONARY
  5
C
330
0
100
AcDbDictionary
  3
ACAD_GROUP
350
D
  3
ACAD_MLINESTYLE
350
17
  0
DICTIONARY
  5
D
330
C
100
AcDbDictionary
  0
DICTIONARY
  5
1A
330
C
100
AcDbDictionary
  0
DICTIONARY
  5
17
330
C
100
AcDbDictionary
  3
STANDARD
350
18
  0
DICTIONARY
  5
19
330
C
100
AcDbDictionary
  0
ENDSEC
  0
EOF
