  0
SECTION
  2
HEADER
  9
$ACADVER
  1
AC1014
  9
$HANDSEED
  5
FFFF
  9
$MEASUREMENT
 70
     1
  0
ENDSEC
  0
SECTION
  2
TABLES
  0
TABLE
  2
VPORT
  5
8
330
0
100
AcDbSymbolTable
 70
     4
  0
VPORT
  5
2E
330
8
100
AcDbSymbolTableRecord
100
AcDbViewportTableRecord
  2
*ACTIVE
 70
     0
 10
0.0
 20
0.0
 11
1.0
 21
1.0
 12
210.0
 22
148.5
 13
0.0
 23
0.0
 14
10.0
 24
10.0
 15
10.0
 25
10.0
 16
0.0
 26
0.0
 36
1.0
 17
0.0
 27
0.0
 37
0.0
 40
341.0
 41
1.24
 42
50.0
 43
0.0
 44
0.0
 50
0.0
 51
0.0
 71
     0
 72
   100
 73
     1
 74
     3
 75
     0
 76
     0
 77
     0
 78
     0
  0
ENDTAB
  0
TABLE
  2
LTYPE
  5
5
330
0
100
AcDbSymbolTable
 70
     1
  0
LTYPE
  5
14
330
5
100
AcDbSymbolTableRecord
100
AcDbLinetypeTableRecord
  2
BYBLOCK
 70
     0
  3

 72
    65
 73
     0
 40
0.0
  0
LTYPE
  5
15
330
5
100
AcDbSymbolTableRecord
100
AcDbLinetypeTableRecord
  2
BYLAYER
 70
     0
  3

 72
    65
 73
     0
 40
0.0
  0
LTYPE
  5
16
330
5
100
AcDbSymbolTableRecord
100
AcDbLinetypeTableRecord
  2
CONTINUOUS
 70
     0
  3
Solid line
 72
    65
 73
     0
 40
0.0
  0
ENDTAB
  0
TABLE
  2
LAYER
  5
2
100
AcDbSymbolTable
 70
2
  0
LAYER
  5
50
100
AcDbSymbolTableRecord
100
AcDbLayerTableRecord
  2
0
 70
0
  6
CONTINUOUS
  0
LAYER
  5
51
100
AcDbSymbolTableRecord
100
AcDbLayerTableRecord
  2
Layer_1
 70
0
  6
CONTINUOUS
  0
ENDTAB
  0
TABLE
  2
STYLE
  5
3
330
0
100
AcDbSymbolTable
 70
     1
  0
STYLE
  5
11
330
3
100
AcDbSymbolTableRecord
100
AcDbTextStyleTableRecord
  2
STANDARD
 70
     0
 40
0.0
 41
1.0
 50
0.0
 71
     0
 42
2.5
  3
txt
  4

  0
ENDTAB
  0
TABLE
  2
VIEW
  5
6
330
0
100
AcDbSymbolTable
 70
     0
  0
ENDTAB
  0
TABLE
  2
UCS
  5
7
330
0
100
AcDbSymbolTable
 70
     0
  0
ENDTAB
  0
TABLE
  2
APPID
  5
9
330
0
100
AcDbSymbolTable
 70
     2
  0
APPID
  5
12
330
9
100
AcDbSymbolTableRecord
100
AcDbRegAppTableRecord
  2
ACAD
 70
     0
  0
ENDTAB
  0
TABLE
  2
DIMSTYLE
  5
A
330
0
100
AcDbSymbolTable
 70
     1
  0
DIMSTYLE
105
27
330
A
100
AcDbSymbolTableRecord
100
AcDbDimStyleTableRecord
  2
ISO-25
 70
     0
  3

  4

  5

  6

  7

 40
1.0
 41
2.5
 42
0.625
 43
3.75
 44
1.25
 45
0.0
 46
0.0
 47
0.0
 48
0.0
140
2.5
141
2.5
142
0.0
143
0.03937007874016
144
1.0
145
0.0
146
1.0
147
0.625
 71
     0
 72
     0
 73
     0
 74
     0
 75
     0
 76
     0
 77
     1
 78
     8
170
     0
171
     3
172
     1
173
     0
174
     0
175
     0
176
     0
177
     0
178
     0
270
     2
271
     2
272
     2
273
     2
274
     3
340
11
275
     0
280
     0
281
     0
282
     0
283
     0
284
     8
285
     0
286
     0
287
     3
288
     0
  0
ENDTAB
  0
TABLE
  2
BLOCK_RECORD
  5
1
330
0
100
AcDbSymbolTable
 70
     1
  0
BLOCK_RECORD
  5
1F
330
1
100
AcDbSymbolTableRecord
100
AcDbBlockTableRecord
  2
*MODEL_SPACE
  0
BLOCK_RECORD
  5
1B
330
1
100
AcDbSymbolTableRecord
100
AcDbBlockTableRecord
  2
*PAPER_SPACE
  0
ENDTAB
  0
ENDSEC
  0
SECTION
  2
BLOCKS
  0
BLOCK
  5
20
330
1F
100
AcDbEntity
  8
0
100
AcDbBlockBegin
  2
*MODEL_SPACE
 70
     0
 10
0.0
 20
0.0
 30
0.0
  3
*MODEL_SPACE
  1

  0
ENDBLK
  5
21
330
1F
100
AcDbEntity
  8
0
100
AcDbBlockEnd
  0
BLOCK
  5
1C
330
1B
100
AcDbEntity
 67
     1
  8
0
100
AcDbBlockBegin
  2
*PAPER_SPACE
  1

  0
ENDBLK
  5
1D
330
1B
100
AcDbEntity
 67
     1
  8
0
100
AcDbBlockEnd
  0
ENDSEC
  0
SECTION
  2
ENTITIES
  0
SPLINE
  5
100
100
AcDbEntity
  8
Layer_1
 62
7
100
AcDbSpline
 70
8
 71
3
 72
8
 73
4
 74
0
 40
0
 40
0
 40
0
 40
0
 40
1
 40
1
 40
1
 40
1
 10
198.562112
 20
514.755116
 30
0.0
 10
198.034112
 20
515.283116
 30
0.0
 10
197.602112
 20
516.341868
 30
0.0
 10
197.602112
 20
517.107900
 30
0.0
  0
SPLINE
  5
101
100
AcDbEntity
  8
Layer_1
 62
7
100
AcDbSpline
 70
8
 71
3
 72
8
 73
4
 74
0
 40
0
 40
0
 40
0
 40
0
 40
1
 40
1
 40
1
 40
1
 10
197.602112
 20
517.107900
 30
0.0
 10
197.602112
 20
517.873932
 30
0.0
 10
197.242112
 20
518.723180
 30
0.0
 10
196.802112
 20
518.995116
 30
0.0
  0
SPLINE
  5
102
100
AcDbEntity
  8
Layer_1
 62
7
100
AcDbSpline
 70
8
 71
3
 72
8
 73
4
 74
0
 40
0
 40
0
 40
0
 40
0
 40
1
 40
1
 40
1
 40
1
 10
196.802112
 20
518.995116
 30
0.0
 10
196.362112
 20
519.267052
 30
0.0
 10
195.990664
 20
520.818300
 30
0.0
 10
195.976672
 20
522.442332
 30
0.0
  0
SPLINE
  5
103
100
AcDbEntity
  8
Layer_1
 62
7
100
AcDbSpline
 70
8
 71
3
 72
8
 73
4
 74
0
 40
0
 40
0
 40
0
 40
0
 40
1
 40
1
 40
1
 40
1
 10
195.976672
 20
522.442332
 30
0.0
 10
195.949152
 20
525.634828
 30
0.0
 10
194.214768
 20
528.668188
 30
0.0
 10
192.886328
 20
527.847164
 30
0.0
  0
SPLINE
  5
104
100
AcDbEntity
  8
Layer_1
 62
7
100
AcDbSpline
 70
8
 71
3
 72
8
 73
4
 74
0
 40
0
 40
0
 40
0
 40
0
 40
1
 40
1
 40
1
 40
1
 10
192.886328
 20
527.847164
 30
0.0
 10
192.434096
 20
527.567668
 30
0.0
 10
191.823200
 20
526.001620
 30
0.0
 10
191.528784
 20
524.367052
 30
0.0
  0
SPLINE
  5
105
100
AcDbEntity
  8
Layer_1
 62
7
100
AcDbSpline
 70
8
 71
3
 72
8
 73
4
 74
0
 40
0
 40
0
 40
0
 40
0
 40
1
 40
1
 40
1
 40
1
 10
191.528784
 20
524.367052
 30
0.0
 10
190.886736
 20
520.802436
 30
0.0
 10
189.888504
 20
519.395116
 30
0.0
 10
188.002112
 20
519.395116
 30
0.0
  0
SPLINE
  5
106
100
AcDbEntity
  8
Layer_1
 62
7
100
AcDbSpline
 70
8
 71
3
 72
8
 73
4
 74
0
 40
0
 40
0
 40
0
 40
0
 40
1
 40
1
 40
1
 40
1
 10
188.002112
 20
519.395116
 30
0.0
 10
185.787192
 20
519.395116
 30
0.0
 10
184.841152
 20
521.186892
 30
0.0
 10
184.294464
 20
526.417300
 30
0.0
  0
SPLINE
  5
107
100
AcDbEntity
  8
Layer_1
 62
7
100
AcDbSpline
 70
8
 71
3
 72
8
 73
4
 74
0
 40
0
 40
0
 40
0
 40
0
 40
1
 40
1
 40
1
 40
1
 10
184.294464
 20
526.417300
 30
0.0
 10
183.843632
 20
530.730644
 30
0.0
 10
183.563760
 20
531.331684
 30
0.0
 10
181.799984
 20
531.774364
 30
0.0
  0
SPLINE
  5
108
100
AcDbEntity
  8
Layer_1
 62
7
100
AcDbSpline
 70
8
 71
3
 72
8
 73
4
 74
0
 40
0
 40
0
 40
0
 40
0
 40
1
 40
1
 40
1
 40
1
 10
181.799984
 20
531.774364
 30
0.0
 10
179.417560
 20
532.372308
 30
0.0
 10
179.585280
 20
532.539812
 30
0.0
 10
178.697072
 20
528.675340
 30
0.0
  0
SPLINE
  5
109
100
AcDbEntity
  8
Layer_1
 62
7
100
AcDbSpline
 70
8
 71
3
 72
8
 73
4
 74
0
 40
0
 40
0
 40
0
 40
0
 40
1
 40
1
 40
1
 40
1
 10
178.697072
 20
528.675340
 30
0.0
 10
177.846936
 20
524.976476
 30
0.0
 10
175.881704
 20
523.374828
 30
0.0
 10
173.802112
 20
524.685980
 30
0.0
  0
SPLINE
  5
10a
100
AcDbEntity
  8
Layer_1
 62
7
100
AcDbSpline
 70
8
 71
3
 72
8
 73
4
 74
0
 40
0
 40
0
 40
0
 40
0
 40
1
 40
1
 40
1
 40
1
 10
173.802112
 20
524.685980
 30
0.0
 10
172.709920
 20
525.374596
 30
0.0
 10
172.384520
 20
526.753180
 30
0.0
 10
172.322112
 20
530.956156
 30
0.0
  0
SPLINE
  5
10b
100
AcDbEntity
  8
Layer_1
 62
7
100
AcDbSpline
 70
8
 71
3
 72
8
 73
4
 74
0
 40
0
 40
0
 40
0
 40
0
 40
1
 40
1
 40
1
 40
1
 10
172.322112
 20
530.956156
 30
0.0
 10
172.251712
 20
535.699172
 30
0.0
 10
171.997536
 20
536.550076
 30
0.0
 10
170.197544
 20
538.069380
 30
0.0
  0
SPLINE
  5
10c
100
AcDbEntity
  8
Layer_1
 62
7
100
AcDbSpline
 70
8
 71
3
 72
8
 73
4
 74
0
 40
0
 40
0
 40
0
 40
0
 40
1
 40
1
 40
1
 40
1
 10
170.197544
 20
538.069380
 30
0.0
 10
166.778968
 20
540.954860
 30
0.0
 10
165.738872
 20
544.592644
 30
0.0
 10
165.243872
 20
555.395116
 30
0.0
  0
SPLINE
  5
10d
100
AcDbEntity
  8
Layer_1
 62
7
100
AcDbSpline
 70
8
 71
3
 72
8
 73
4
 74
0
 40
0
 40
0
 40
0
 40
0
 40
1
 40
1
 40
1
 40
1
 10
165.243872
 20
555.395116
 30
0.0
 10
164.305992
 20
575.862788
 30
0.0
 10
164.251864
 20
576.163140
 30
0.0
 10
159.875952
 20
585.184260
 30
0.0
  0
SPLINE
  5
10e
100
AcDbEntity
  8
Layer_1
 62
7
100
AcDbSpline
 70
8
 71
3
 72
8
 73
4
 74
0
 40
0
 40
0
 40
0
 40
0
 40
1
 40
1
 40
1
 40
1
 10
159.875952
 20
585.184260
 30
0.0
 10
159.505336
 20
585.948292
 30
0.0
 10
159.202112
 20
587.424676
 30
0.0
 10
159.202112
 20
588.465108
 30
0.0
  0
SPLINE
  5
10f
100
AcDbEntity
  8
Layer_1
 62
7
100
AcDbSpline
 70
8
 71
3
 72
8
 73
4
 74
0
 40
0
 40
0
 40
0
 40
0
 40
1
 40
1
 40
1
 40
1
 10
159.202112
 20
588.465108
 30
0.0
 10
159.202112
 20
589.505548
 30
0.0
 10
158.364056
 20
591.940428
 30
0.0
 10
157.339776
 20
593.875964
 30
0.0
  0
SPLINE
  5
110
100
AcDbEntity
  8
Layer_1
 62
7
100
AcDbSpline
 70
8
 71
3
 72
8
 73
4
 74
0
 40
0
 40
0
 40
0
 40
0
 40
1
 40
1
 40
1
 40
1
 10
157.339776
 20
593.875964
 30
0.0
 10
155.505768
 20
597.341572
 30
0.0
 10
154.455824
 20
603.165924
 30
0.0
 10
152.811592
 20
618.995116
 30
0.0
  0
SPLINE
  5
111
100
AcDbEntity
  8
Layer_1
 62
7
100
AcDbSpline
 70
8
 71
3
 72
8
 73
4
 74
0
 40
0
 40
0
 40
0
 40
0
 40
1
 40
1
 40
1
 40
1
 10
152.811592
 20
618.995116
 30
0.0
 10
151.657144
 20
630.109076
 30
0.0
 10
151.191472
 20
632.214100
 30
0.0
 10
148.743240
 20
637.385380
 30
0.0
  0
SPLINE
  5
112
100
AcDbEntity
  8
Layer_1
 62
7
100
AcDbSpline
 70
8
 71
3
 72
8
 73
4
 74
0
 40
0
 40
0
 40
0
 40
0
 40
1
 40
1
 40
1
 40
1
 10
148.743240
 20
637.385380
 30
0.0
 10
146.488424
 20
642.148148
 30
0.0
 10
143.821736
 20
644.514684
 30
0.0
 10
136.614216
 20
648.149236
 30
0.0
  0
SPLINE
  5
113
100
AcDbEntity
  8
Layer_1
 62
7
100
AcDbSpline
 70
8
 71
3
 72
8
 73
4
 74
0
 40
0
 40
0
 40
0
 40
0
 40
1
 40
1
 40
1
 40
1
 10
136.614216
 20
648.149236
 30
0.0
 10
135.149416
 20
648.887892
 30
0.0
 10
134.266656
 20
650.103636
 30
0.0
 10
133.943208
 20
651.827764
 30
0.0
  0
SPLINE
  5
114
100
AcDbEntity
  8
Layer_1
 62
7
100
AcDbSpline
 70
8
 71
3
 72
8
 73
4
 74
0
 40
0
 40
0
 40
0
 40
0
 40
1
 40
1
 40
1
 40
1
 10
133.943208
 20
651.827764
 30
0.0
 10
133.631760
 20
653.487900
 30
0.0
 10
132.774624
 20
654.715316
 30
0.0
 10
131.531096
 20
655.281908
 30
0.0
  0
SPLINE
  5
115
100
AcDbEntity
  8
Layer_1
 62
7
100
AcDbSpline
 70
8
 71
3
 72
8
 73
4
 74
0
 40
0
 40
0
 40
0
 40
0
 40
1
 40
1
 40
1
 40
1
 10
131.531096
 20
655.281908
 30
0.0
 10
130.048504
 20
655.957428
 30
0.0
 10
129.602112
 20
656.784044
 30
0.0
 10
129.602112
 20
658.853972
 30
0.0
  0
SPLINE
  5
116
100
AcDbEntity
  8
Layer_1
 62
7
100
AcDbSpline
 70
8
 71
3
 72
8
 73
4
 74
0
 40
0
 40
0
 40
0
 40
0
 40
1
 40
1
 40
1
 40
1
 10
129.602112
 20
658.853972
 30
0.0
 10
129.602112
 20
661.702772
 30
0.0
 10
127.631416
 20
664.195116
 30
0.0
 10
125.378872
 20
664.195116
 30
0.0
  0
SPLINE
  5
117
100
AcDbEntity
  8
Layer_1
 62
7
100
AcDbSpline
 70
8
 71
3
 72
8
 73
4
 74
0
 40
0
 40
0
 40
0
 40
0
 40
1
 40
1
 40
1
 40
1
 10
125.378872
 20
664.195116
 30
0.0
 10
124.665376
 20
664.195116
 30
0.0
 10
123.737184
 20
664.810580
 30
0.0
 10
123.316208
 20
665.562812
 30
0.0
  0
SPLINE
  5
118
100
AcDbEntity
  8
Layer_1
 62
7
100
AcDbSpline
 70
8
 71
3
 72
8
 73
4
 74
0
 40
0
 40
0
 40
0
 40
0
 40
1
 40
1
 40
1
 40
1
 10
123.316208
 20
665.562812
 30
0.0
 10
122.691408
 20
666.679276
 30
0.0
 10
121.251312
 20
666.948676
 30
0.0
 10
115.476456
 20
667.029396
 30
0.0
  0
SPLINE
  5
119
100
AcDbEntity
  8
Layer_1
 62
7
100
AcDbSpline
 70
8
 71
3
 72
8
 73
4
 74
0
 40
0
 40
0
 40
0
 40
0
 40
1
 40
1
 40
1
 40
1
 10
115.476456
 20
667.029396
 30
0.0
 10
111.236472
 20
667.088676
 30
0.0
 10
106.979256
 20
666.667660
 30
0.0
 10
104.850792
 20
665.978596
 30
0.0
  0
SPLINE
  5
11a
100
AcDbEntity
  8
Layer_1
 62
7
100
AcDbSpline
 70
8
 71
3
 72
8
 73
4
 74
0
 40
0
 40
0
 40
0
 40
0
 40
1
 40
1
 40
1
 40
1
 10
104.850792
 20
665.978596
 30
0.0
 10
101.689912
 20
664.955324
 30
0.0
 10
101.061248
 20
664.969636
 30
0.0
 10
99.132760
 20
666.108820
 30
0.0
  0
SPLINE
  5
11b
100
AcDbEntity
  8
Layer_1
 62
7
100
AcDbSpline
 70
8
 71
3
 72
8
 73
4
 74
0
 40
0
 40
0
 40
0
 40
0
 40
1
 40
1
 40
1
 40
1
 10
99.132760
 20
666.108820
 30
0.0
 10
97.148080
 20
667.281204
 30
0.0
 10
96.606344
 20
667.281516
 30
0.0
 10
92.684088
 20
666.112820
 30
0.0
  0
SPLINE
  5
11c
100
AcDbEntity
  8
Layer_1
 62
7
100
AcDbSpline
 70
8
 71
3
 72
8
 73
4
 74
0
 40
0
 40
0
 40
0
 40
0
 40
1
 40
1
 40
1
 40
1
 10
92.684088
 20
666.112820
 30
0.0
 10
84.979728
 20
663.816588
 30
0.0
 10
84.961176
 20
663.802436
 30
0.0
 10
84.354752
 20
659.758476
 30
0.0
  0
SPLINE
  5
11d
100
AcDbEntity
  8
Layer_1
 62
7
100
AcDbSpline
 70
8
 71
3
 72
8
 73
4
 74
0
 40
0
 40
0
 40
0
 40
0
 40
1
 40
1
 40
1
 40
1
 10
84.354752
 20
659.758476
 30
0.0
 10
83.897000
 20
656.705964
 30
0.0
 10
84.124184
 20
655.439684
 30
0.0
 10
85.618232
 20
652.716100
 30
0.0
  0
SPLINE
  5
11e
100
AcDbEntity
  8
Layer_1
 62
7
100
AcDbSpline
 70
8
 71
3
 72
8
 73
4
 74
0
 40
0
 40
0
 40
0
 40
0
 40
1
 40
1
 40
1
 40
1
 10
85.618232
 20
652.716100
 30
0.0
 10
88.388160
 20
647.666612
 30
0.0
 10
89.586968
 20
646.595420
 30
0.0
 10
92.468032
 20
646.595420
 30
0.0
  0
SPLINE
  5
11f
100
AcDbEntity
  8
Layer_1
 62
7
100
AcDbSpline
 70
8
 71
3
 72
8
 73
4
 74
0
 40
0
 40
0
 40
0
 40
0
 40
1
 40
1
 40
1
 40
1
 10
92.468032
 20
646.595420
 30
0.0
 10
94.344040
 20
646.595420
 30
0.0
 10
95.556352
 20
647.193396
 30
0.0
 10
96.745672
 20
648.705372
 30
0.0
  0
SPLINE
  5
120
100
AcDbEntity
  8
Layer_1
 62
7
100
AcDbSpline
 70
8
 71
3
 72
8
 73
4
 74
0
 40
0
 40
0
 40
0
 40
0
 40
1
 40
1
 40
1
 40
1
 10
96.745672
 20
648.705372
 30
0.0
 10
98.331264
 20
650.721124
 30
0.0
 10
98.610664
 20
650.784724
 30
0.0
 10
103.003736
 20
650.129820
 30
0.0
  0
SPLINE
  5
121
100
AcDbEntity
  8
Layer_1
 62
7
100
AcDbSpline
 70
8
 71
3
 72
8
 73
4
 74
0
 40
0
 40
0
 40
0
 40
0
 40
1
 40
1
 40
1
 40
1
 10
103.003736
 20
650.129820
 30
0.0
 10
105.532840
 20
649.752796
 30
0.0
 10
109.602848
 20
649.453308
 30
0.0
 10
112.048200
 20
649.464300
 30
0.0
  0
SPLINE
  5
122
100
AcDbEntity
  8
Layer_1
 62
7
100
AcDbSpline
 70
8
 71
3
 72
8
 73
4
 74
0
 40
0
 40
0
 40
0
 40
0
 40
1
 40
1
 40
1
 40
1
 10
112.048200
 20
649.464300
 30
0.0
 10
115.803448
 20
649.481180
 30
0.0
 10
116.716584
 20
649.189588
 30
0.0
 10
117.924928
 20
647.587636
 30
0.0
  0
SPLINE
  5
123
100
AcDbEntity
  8
Layer_1
 62
7
100
AcDbSpline
 70
8
 71
3
 72
8
 73
4
 74
0
 40
0
 40
0
 40
0
 40
0
 40
1
 40
1
 40
1
 40
1
 10
117.924928
 20
647.587636
 30
0.0
 10
119.288224
 20
645.780276
 30
0.0
 10
119.289632
 20
645.618124
 30
0.0
 10
117.954848
 20
644.143204
 30
0.0
  0
SPLINE
  5
124
100
AcDbEntity
  8
Layer_1
 62
7
100
AcDbSpline
 70
8
 71
3
 72
8
 73
4
 74
0
 40
0
 40
0
 40
0
 40
0
 40
1
 40
1
 40
1
 40
1
 10
117.954848
 20
644.143204
 30
0.0
 10
116.822264
 20
642.891708
 30
0.0
 10
115.544152
 20
642.610684
 30
0.0
 10
111.278120
 20
642.675164
 30
0.0
  0
SPLINE
  5
125
100
AcDbEntity
  8
Layer_1
 62
7
100
AcDbSpline
 70
8
 71
3
 72
8
 73
4
 74
0
 40
0
 40
0
 40
0
 40
0
 40
1
 40
1
 40
1
 40
1
 10
111.278120
 20
642.675164
 30
0.0
 10
108.376312
 20
642.718684
 30
0.0
 10
105.102112
 20
643.016916
 30
0.0
 10
104.002112
 20
643.337524
 30
0.0
  0
SPLINE
  5
126
100
AcDbEntity
  8
Layer_1
 62
7
100
AcDbSpline
 70
8
 71
3
 72
8
 73
4
 74
0
 40
0
 40
0
 40
0
 40
0
 40
1
 40
1
 40
1
 40
1
 10
104.002112
 20
643.337524
 30
0.0
 10
102.446208
 20
643.791004
 30
0.0
 10
101.418592
 20
643.418012
 30
0.0
 10
99.374272
 20
641.657780
 30
0.0
  0
SPLINE
  5
127
100
AcDbEntity
  8
Layer_1
 62
7
100
AcDbSpline
 70
8
 71
3
 72
8
 73
4
 74
0
 40
0
 40
0
 40
0
 40
0
 40
1
 40
1
 40
1
 40
1
 10
99.374272
 20
641.657780
 30
0.0
 10
96.580328
 20
639.252092
 30
0.0
 10
94.164416
 20
638.886660
 30
0.0
 10
89.637424
 20
640.184988
 30
0.0
  0
SPLINE
  5
128
100
AcDbEntity
  8
Layer_1
 62
7
100
AcDbSpline
 70
8
 71
3
 72
8
 73
4
 74
0
 40
0
 40
0
 40
0
 40
0
 40
1
 40
1
 40
1
 40
1
 10
89.637424
 20
640.184988
 30
0.0
 10
86.763592
 20
641.009188
 30
0.0
 10
80.002104
 20
646.999228
 30
0.0
 10
80.002104
 20
648.720972
 30
0.0
  0
SPLINE
  5
129
100
AcDbEntity
  8
Layer_1
 62
7
100
AcDbSpline
 70
8
 71
3
 72
8
 73
4
 74
0
 40
0
 40
0
 40
0
 40
0
 40
1
 40
1
 40
1
 40
1
 10
80.002104
 20
648.720972
 30
0.0
 10
80.002104
 20
649.266964
 30
0.0
 10
78.731210
 20
650.683052
 30
0.0
 10
77.177890
 20
651.867828
 30
0.0
  0
SPLINE
  5
12a
100
AcDbEntity
  8
Layer_1
 62
7
100
AcDbSpline
 70
8
 71
3
 72
8
 73
4
 74
0
 40
0
 40
0
 40
0
 40
0
 40
1
 40
1
 40
1
 40
1
 10
77.177890
 20
651.867828
 30
0.0
 10
74.560218
 20
653.864420
 30
0.0
 10
73.964730
 20
653.985644
 30
0.0
 10
69.035490
 20
653.525340
 30
0.0
  0
SPLINE
  5
12b
100
AcDbEntity
  8
Layer_1
 62
7
100
AcDbSpline
 70
8
 71
3
 72
8
 73
4
 74
0
 40
0
 40
0
 40
0
 40
0
 40
1
 40
1
 40
1
 40
1
 10
69.035490
 20
653.525340
 30
0.0
 10
66.110490
 20
653.252204
 30
0.0
 10
63.477954
 20
652.641452
 30
0.0
 10
63.185418
 20
652.168116
 30
0.0
  0
SPLINE
  5
12c
100
AcDbEntity
  8
Layer_1
 62
7
100
AcDbSpline
 70
8
 71
3
 72
8
 73
4
 74
0
 40
0
 40
0
 40
0
 40
0
 40
1
 40
1
 40
1
 40
1
 10
63.185418
 20
652.168116
 30
0.0
 10
62.892882
 20
651.694780
 30
0.0
 10
59.356962
 20
651.093932
 30
0.0
 10
55.327818
 20
650.832892
 30
0.0
  0
SPLINE
  5
12d
100
AcDbEntity
  8
Layer_1
 62
7
100
AcDbSpline
 70
8
 71
3
 72
8
 73
4
 74
0
 40
0
 40
0
 40
0
 40
0
 40
1
 40
1
 40
1
 40
1
 10
501.002072
 20
686.913132
 30
0.0
 10
496.272072
 20
687.197620
 30
0.0
 10
489.342072
 20
687.945700
 30
0.0
 10
485.602072
 20
688.575532
 30
0.0
  0
SPLINE
  5
12e
100
AcDbEntity
  8
Layer_1
 62
7
100
AcDbSpline
 70
8
 71
3
 72
8
 73
4
 74
0
 40
0
 40
0
 40
0
 40
0
 40
1
 40
1
 40
1
 40
1
 10
485.602072
 20
688.575532
 30
0.0
 10
481.862072
 20
689.205372
 30
0.0
 10
473.762072
 20
689.939076
 30
0.0
 10
467.602072
 20
690.205996
 30
0.0
  0
SPLINE
  5
12f
100
AcDbEntity
  8
Layer_1
 62
7
100
AcDbSpline
 70
8
 71
3
 72
8
 73
4
 74
0
 40
0
 40
0
 40
0
 40
0
 40
1
 40
1
 40
1
 40
1
 10
467.602072
 20
690.205996
 30
0.0
 10
456.845576
 20
690.672092
 30
0.0
 10
456.259568
 20
690.615428
 30
0.0
 10
452.802112
 20
688.774748
 30
0.0
  0
SPLINE
  5
130
100
AcDbEntity
  8
Layer_1
 62
7
100
AcDbSpline
 70
8
 71
3
 72
8
 73
4
 74
0
 40
0
 40
0
 40
0
 40
0
 40
1
 40
1
 40
1
 40
1
 10
452.802112
 20
688.774748
 30
0.0
 10
450.822112
 20
687.720636
 30
0.0
 10
447.117200
 20
686.614092
 30
0.0
 10
444.568976
 20
686.315764
 30
0.0
  0
SPLINE
  5
131
100
AcDbEntity
  8
Layer_1
 62
7
100
AcDbSpline
 70
8
 71
3
 72
8
 73
4
 74
0
 40
0
 40
0
 40
0
 40
0
 40
1
 40
1
 40
1
 40
1
 10
444.568976
 20
686.315764
 30
0.0
 10
440.275584
 20
685.813124
 30
0.0
 10
433.602112
 20
682.686436
 30
0.0
 10
433.602112
 20
681.177516
 30
0.0
  0
SPLINE
  5
132
100
AcDbEntity
  8
Layer_1
 62
7
100
AcDbSpline
 70
8
 71
3
 72
8
 73
4
 74
0
 40
0
 40
0
 40
0
 40
0
 40
1
 40
1
 40
1
 40
1
 10
433.602112
 20
681.177516
 30
0.0
 10
433.602112
 20
679.619084
 30
0.0
 10
429.458448
 20
678.370236
 30
0.0
 10
422.193936
 20
677.739228
 30
0.0
  0
SPLINE
  5
133
100
AcDbEntity
  8
Layer_1
 62
7
100
AcDbSpline
 70
8
 71
3
 72
8
 73
4
 74
0
 40
0
 40
0
 40
0
 40
0
 40
1
 40
1
 40
1
 40
1
 10
422.193936
 20
677.739228
 30
0.0
 10
411.806616
 20
676.836972
 30
0.0
 10
411.411056
 20
676.678148
 30
0.0
 10
410.297896
 20
672.962756
 30
0.0
  0
SPLINE
  5
134
100
AcDbEntity
  8
Layer_1
 62
7
100
AcDbSpline
 70
8
 71
3
 72
8
 73
4
 74
0
 40
0
 40
0
 40
0
 40
0
 40
1
 40
1
 40
1
 40
1
 10
410.297896
 20
672.962756
 30
0.0
 10
409.388368
 20
669.927004
 30
0.0
 10
403.255904
 20
662.595116
 30
0.0
 10
401.626304
 20
662.595116
 30
0.0
  0
SPLINE
  5
135
100
AcDbEntity
  8
Layer_1
 62
7
100
AcDbSpline
 70
8
 71
3
 72
8
 73
4
 74
0
 40
0
 40
0
 40
0
 40
0
 40
1
 40
1
 40
1
 40
1
 10
401.626304
 20
662.595116
 30
0.0
 10
401.184808
 20
662.595116
 30
0.0
 10
400.285992
 20
661.425116
 30
0.0
 10
399.628928
 20
659.995116
 30
0.0
  0
SPLINE
  5
136
100
AcDbEntity
  8
Layer_1
 62
7
100
AcDbSpline
 70
8
 71
3
 72
8
 73
4
 74
0
 40
0
 40
0
 40
0
 40
0
 40
1
 40
1
 40
1
 40
1
 10
399.628928
 20
659.995116
 30
0.0
 10
398.971872
 20
658.565116
 30
0.0
 10
398.122992
 20
656.855116
 30
0.0
 10
397.742536
 20
656.195116
 30
0.0
  0
SPLINE
  5
137
100
AcDbEntity
  8
Layer_1
 62
7
100
AcDbSpline
 70
8
 71
3
 72
8
 73
4
 74
0
 40
0
 40
0
 40
0
 40
0
 40
1
 40
1
 40
1
 40
1
 10
397.742536
 20
656.195116
 30
0.0
 10
394.736832
 20
650.980964
 30
0.0
 10
394.467512
 20
647.759188
 30
0.0
 10
396.472864
 20
641.006420
 30
0.0
  0
SPLINE
  5
138
100
AcDbEntity
  8
Layer_1
 62
7
100
AcDbSpline
 70
8
 71
3
 72
8
 73
4
 74
0
 40
0
 40
0
 40
0
 40
0
 40
1
 40
1
 40
1
 40
1
 10
396.472864
 20
641.006420
 30
0.0
 10
398.358608
 20
634.656436
 30
0.0
 10
397.353584
 20
629.788596
 30
0.0
 10
392.593736
 20
622.217908
 30
0.0
  0
SPLINE
  5
139
100
AcDbEntity
  8
Layer_1
 62
7
100
AcDbSpline
 70
8
 71
3
 72
8
 73
4
 74
0
 40
0
 40
0
 40
0
 40
0
 40
1
 40
1
 40
1
 40
1
 10
392.593736
 20
622.217908
 30
0.0
 10
385.810984
 20
611.429732
 30
0.0
 10
383.752392
 20
608.944028
 30
0.0
 10
378.634968
 20
605.363036
 30
0.0
  0
SPLINE
  5
13a
100
AcDbEntity
  8
Layer_1
 62
7
100
AcDbSpline
 70
8
 71
3
 72
8
 73
4
 74
0
 40
0
 40
0
 40
0
 40
0
 40
1
 40
1
 40
1
 40
1
 10
378.634968
 20
605.363036
 30
0.0
 10
375.646896
 20
603.272092
 30
0.0
 10
371.942112
 20
601.217940
 30
0.0
 10
370.402112
 20
600.798268
 30
0.0
  0
SPLINE
  5
13b
100
AcDbEntity
  8
Layer_1
 62
7
100
AcDbSpline
 70
8
 71
3
 72
8
 73
4
 74
0
 40
0
 40
0
 40
0
 40
0
 40
1
 40
1
 40
1
 40
1
 10
370.402112
 20
600.798268
 30
0.0
 10
368.862112
 20
600.378588
 30
0.0
 10
365.539824
 20
598.789812
 30
0.0
 10
363.019240
 20
597.267652
 30
0.0
  0
SPLINE
  5
13c
100
AcDbEntity
  8
Layer_1
 62
7
100
AcDbSpline
 70
8
 71
3
 72
8
 73
4
 74
0
 40
0
 40
0
 40
0
 40
0
 40
1
 40
1
 40
1
 40
1
 10
363.019240
 20
597.267652
 30
0.0
 10
357.462328
 20
593.911860
 30
0.0
 10
354.633744
 20
593.379876
 30
0.0
 10
348.386848
 20
594.515668
 30
0.0
  0
SPLINE
  5
13d
100
AcDbEntity
  8
Layer_1
 62
7
100
AcDbSpline
 70
8
 71
3
 72
8
 73
4
 74
0
 40
0
 40
0
 40
0
 40
0
 40
1
 40
1
 40
1
 40
1
 10
348.386848
 20
594.515668
 30
0.0
 10
342.662488
 20
595.556460
 30
0.0
 10
340.618248
 20
597.523876
 30
0.0
 10
340.874384
 20
601.745852
 30
0.0
  0
SPLINE
  5
13e
100
AcDbEntity
  8
Layer_1
 62
7
100
AcDbSpline
 70
8
 71
3
 72
8
 73
4
 74
0
 40
0
 40
0
 40
0
 40
0
 40
1
 40
1
 40
1
 40
1
 10
340.874384
 20
601.745852
 30
0.0
 10
340.969456
 20
603.312948
 30
0.0
 10
340.478368
 20
605.855116
 30
0.0
 10
339.783080
 20
607.395116
 30
0.0
  0
SPLINE
  5
13f
100
AcDbEntity
  8
Layer_1
 62
7
100
AcDbSpline
 70
8
 71
3
 72
8
 73
4
 74
0
 40
0
 40
0
 40
0
 40
0
 40
1
 40
1
 40
1
 40
1
 10
339.783080
 20
607.395116
 30
0.0
 10
339.087784
 20
608.935116
 30
0.0
 10
338.320800
 20
610.833284
 30
0.0
 10
338.078656
 20
611.613260
 30
0.0
  0
SPLINE
  5
140
100
AcDbEntity
  8
Layer_1
 62
7
100
AcDbSpline
 70
8
 71
3
 72
8
 73
4
 74
0
 40
0
 40
0
 40
0
 40
0
 40
1
 40
1
 40
1
 40
1
 10
338.078656
 20
611.613260
 30
0.0
 10
337.466208
 20
613.586068
 30
0.0
 10
335.771464
 20
614.062164
 30
0.0
 10
331.592288
 20
613.435460
 30
0.0
  0
SPLINE
  5
141
100
AcDbEntity
  8
Layer_1
 62
7
100
AcDbSpline
 70
8
 71
3
 72
8
 73
4
 74
0
 40
0
 40
0
 40
0
 40
0
 40
1
 40
1
 40
1
 40
1
 10
331.592288
 20
613.435460
 30
0.0
 10
329.219104
 20
613.079580
 30
0.0
 10
328.002112
 20
612.500140
 30
0.0
 10
328.002112
 20
611.726100
 30
0.0
  0
SPLINE
  5
142
100
AcDbEntity
  8
Layer_1
 62
7
100
AcDbSpline
 70
8
 71
3
 72
8
 73
4
 74
0
 40
0
 40
0
 40
0
 40
0
 40
1
 40
1
 40
1
 40
1
 10
328.002112
 20
611.726100
 30
0.0
 10
328.002112
 20
611.065004
 30
0.0
 10
326.957056
 20
610.346108
 30
0.0
 10
325.602112
 20
610.075116
 30
0.0
  0
SPLINE
  5
143
100
AcDbEntity
  8
Layer_1
 62
7
100
AcDbSpline
 70
8
 71
3
 72
8
 73
4
 74
0
 40
0
 40
0
 40
0
 40
0
 40
1
 40
1
 40
1
 40
1
 10
325.602112
 20
610.075116
 30
0.0
 10
323.334120
 20
609.621516
 30
0.0
 10
323.202112
 20
609.383204
 30
0.0
 10
323.202112
 20
605.742332
 30
0.0
  0
SPLINE
  5
144
100
AcDbEntity
  8
Layer_1
 62
7
100
AcDbSpline
 70
8
 71
3
 72
8
 73
4
 74
0
 40
0
 40
0
 40
0
 40
0
 40
1
 40
1
 40
1
 40
1
 10
323.202112
 20
605.742332
 30
0.0
 10
323.202112
 20
603.623300
 30
0.0
 10
322.842112
 20
601.667052
 30
0.0
 10
322.402112
 20
601.395116
 30
0.0
  0
SPLINE
  5
145
100
AcDbEntity
  8
Layer_1
 62
7
100
AcDbSpline
 70
8
 71
3
 72
8
 73
4
 74
0
 40
0
 40
0
 40
0
 40
0
 40
1
 40
1
 40
1
 40
1
 10
322.402112
 20
601.395116
 30
0.0
 10
321.962112
 20
601.123180
 30
0.0
 10
321.602112
 20
600.086772
 30
0.0
 10
321.602112
 20
599.091988
 30
0.0
  0
SPLINE
  5
146
100
AcDbEntity
  8
Layer_1
 62
7
100
AcDbSpline
 70
8
 71
3
 72
8
 73
4
 74
0
 40
0
 40
0
 40
0
 40
0
 40
1
 40
1
 40
1
 40
1
 10
321.602112
 20
599.091988
 30
0.0
 10
321.602112
 20
598.097204
 30
0.0
 10
320.547576
 20
596.102132
 30
0.0
 10
319.258688
 20
594.658492
 30
0.0
  0
SPLINE
  5
147
100
AcDbEntity
  8
Layer_1
 62
7
100
AcDbSpline
 70
8
 71
3
 72
8
 73
4
 74
0
 40
0
 40
0
 40
0
 40
0
 40
1
 40
1
 40
1
 40
1
 10
319.258688
 20
594.658492
 30
0.0
 10
317.019584
 20
592.150532
 30
0.0
 10
316.787984
 20
592.075692
 30
0.0
 10
314.055920
 20
592.977356
 30
0.0
  0
SPLINE
  5
148
100
AcDbEntity
  8
Layer_1
 62
7
100
AcDbSpline
 70
8
 71
3
 72
8
 73
4
 74
0
 40
0
 40
0
 40
0
 40
0
 40
1
 40
1
 40
1
 40
1
 10
314.055920
 20
592.977356
 30
0.0
 10
312.483280
 20
593.496380
 30
0.0
 10
310.027816
 20
593.690188
 30
0.0
 10
308.599344
 20
593.408052
 30
0.0
  0
SPLINE
  5
149
100
AcDbEntity
  8
Layer_1
 62
7
100
AcDbSpline
 70
8
 71
3
 72
8
 73
4
 74
0
 40
0
 40
0
 40
0
 40
0
 40
1
 40
1
 40
1
 40
1
 10
308.599344
 20
593.408052
 30
0.0
 10
305.453936
 20
592.786804
 30
0.0
 10
301.350360
 20
591.283788
 30
0.0
 10
300.802112
 20
590.552164
 30
0.0
  0
SPLINE
  5
14a
100
AcDbEntity
  8
Layer_1
 62
7
100
AcDbSpline
 70
8
 71
3
 72
8
 73
4
 74
0
 40
0
 40
0
 40
0
 40
0
 40
1
 40
1
 40
1
 40
1
 10
300.802112
 20
590.552164
 30
0.0
 10
300.582112
 20
590.258572
 30
0.0
 10
299.280280
 20
589.443796
 30
0.0
 10
297.909152
 20
588.741548
 30
0.0
  0
SPLINE
  5
14b
100
AcDbEntity
  8
Layer_1
 62
7
100
AcDbSpline
 70
8
 71
3
 72
8
 73
4
 74
0
 40
0
 40
0
 40
0
 40
0
 40
1
 40
1
 40
1
 40
1
 10
297.909152
 20
588.741548
 30
0.0
 10
295.028944
 20
587.266396
 30
0.0
 10
292.060240
 20
584.881836
 30
0.0
 10
288.514072
 20
581.195116
 30
0.0
  0
SPLINE
  5
14c
100
AcDbEntity
  8
Layer_1
 62
7
100
AcDbSpline
 70
8
 71
3
 72
8
 73
4
 74
0
 40
0
 40
0
 40
0
 40
0
 40
1
 40
1
 40
1
 40
1
 10
288.514072
 20
581.195116
 30
0.0
 10
286.406440
 20
579.003948
 30
0.0
 10
285.436800
 20
578.595116
 30
0.0
 10
282.347624
 20
578.595116
 30
0.0
  0
SPLINE
  5
14d
100
AcDbEntity
  8
Layer_1
 62
7
100
AcDbSpline
 70
8
 71
3
 72
8
 73
4
 74
0
 40
0
 40
0
 40
0
 40
0
 40
1
 40
1
 40
1
 40
1
 10
282.347624
 20
578.595116
 30
0.0
 10
279.907896
 20
578.595116
 30
0.0
 10
278.227368
 20
578.126932
 30
0.0
 10
277.322432
 20
577.195116
 30
0.0
  0
SPLINE
  5
14e
100
AcDbEntity
  8
Layer_1
 62
7
100
AcDbSpline
 70
8
 71
3
 72
8
 73
4
 74
0
 40
0
 40
0
 40
0
 40
0
 40
1
 40
1
 40
1
 40
1
 10
277.322432
 20
577.195116
 30
0.0
 10
274.377064
 20
574.162284
 30
0.0
 10
272.002112
 20
569.614292
 30
0.0
 10
272.002112
 20
567.006804
 30
0.0
  0
SPLINE
  5
14f
100
AcDbEntity
  8
Layer_1
 62
7
100
AcDbSpline
 70
8
 71
3
 72
8
 73
4
 74
0
 40
0
 40
0
 40
0
 40
0
 40
1
 40
1
 40
1
 40
1
 10
272.002112
 20
567.006804
 30
0.0
 10
272.002112
 20
565.512308
 30
0.0
 10
271.666336
 20
564.082020
 30
0.0
 10
271.255936
 20
563.828380
 30
0.0
  0
SPLINE
  5
150
100
AcDbEntity
  8
Layer_1
 62
7
100
AcDbSpline
 70
8
 71
3
 72
8
 73
4
 74
0
 40
0
 40
0
 40
0
 40
0
 40
1
 40
1
 40
1
 40
1
 10
271.255936
 20
563.828380
 30
0.0
 10
270.845536
 20
563.574740
 30
0.0
 10
270.089320
 20
561.303492
 30
0.0
 10
269.575448
 20
558.781164
 30
0.0
  0
SPLINE
  5
151
100
AcDbEntity
  8
Layer_1
 62
7
100
AcDbSpline
 70
8
 71
3
 72
8
 73
4
 74
0
 40
0
 40
0
 40
0
 40
0
 40
1
 40
1
 40
1
 40
1
 10
269.575448
 20
558.781164
 30
0.0
 10
269.061584
 20
556.258836
 30
0.0
 10
267.950928
 20
553.445068
 30
0.0
 10
267.107336
 20
552.528340
 30
0.0
  0
SPLINE
  5
152
100
AcDbEntity
  8
Layer_1
 62
7
100
AcDbSpline
 70
8
 71
3
 72
8
 73
4
 74
0
 40
0
 40
0
 40
0
 40
0
 40
1
 40
1
 40
1
 40
1
 10
267.107336
 20
552.528340
 30
0.0
 10
266.263736
 20
551.611612
 30
0.0
 10
265.168864
 20
548.731612
 30
0.0
 10
264.674272
 20
546.128340
 30
0.0
  0
SPLINE
  5
153
100
AcDbEntity
  8
Layer_1
 62
7
100
AcDbSpline
 70
8
 71
3
 72
8
 73
4
 74
0
 40
0
 40
0
 40
0
 40
0
 40
1
 40
1
 40
1
 40
1
 10
264.674272
 20
546.128340
 30
0.0
 10
264.179688
 20
543.525068
 30
0.0
 10
263.280384
 20
540.248620
 30
0.0
 10
262.675824
 20
538.847348
 30
0.0
  0
SPLINE
  5
154
100
AcDbEntity
  8
Layer_1
 62
7
100
AcDbSpline
 70
8
 71
3
 72
8
 73
4
 74
0
 40
0
 40
0
 40
0
 40
0
 40
1
 40
1
 40
1
 40
1
 10
262.675824
 20
538.847348
 30
0.0
 10
261.570544
 20
536.285500
 30
0.0
 10
257.825960
 20
533.795116
 30
0.0
 10
255.079200
 20
533.795116
 30
0.0
  0
SPLINE
  5
155
100
AcDbEntity
  8
Layer_1
 62
7
100
AcDbSpline
 70
8
 71
3
 72
8
 73
4
 74
0
 40
0
 40
0
 40
0
 40
0
 40
1
 40
1
 40
1
 40
1
 10
255.079200
 20
533.795116
 30
0.0
 10
254.266800
 20
533.795116
 30
0.0
 10
253.602112
 20
533.310908
 30
0.0
 10
253.602112
 20
532.719108
 30
0.0
  0
SPLINE
  5
156
100
AcDbEntity
  8
Layer_1
 62
7
100
AcDbSpline
 70
8
 71
3
 72
8
 73
4
 74
0
 40
0
 40
0
 40
0
 40
0
 40
1
 40
1
 40
1
 40
1
 10
253.602112
 20
532.719108
 30
0.0
 10
253.602112
 20
532.127300
 30
0.0
 10
252.902520
 20
531.009972
 30
0.0
 10
252.047456
 20
530.236156
 30
0.0
  0
SPLINE
  5
157
100
AcDbEntity
  8
Layer_1
 62
7
100
AcDbSpline
 70
8
 71
3
 72
8
 73
4
 74
0
 40
0
 40
0
 40
0
 40
0
 40
1
 40
1
 40
1
 40
1
 10
252.047456
 20
530.236156
 30
0.0
 10
251.192392
 20
529.462332
 30
0.0
 10
250.245584
 20
527.696540
 30
0.0
 10
249.943424
 20
526.312164
 30
0.0
  0
SPLINE
  5
158
100
AcDbEntity
  8
Layer_1
 62
7
100
AcDbSpline
 70
8
 71
3
 72
8
 73
4
 74
0
 40
0
 40
0
 40
0
 40
0
 40
1
 40
1
 40
1
 40
1
 10
249.943424
 20
526.312164
 30
0.0
 10
249.171680
 20
522.776332
 30
0.0
 10
245.023776
 20
516.995116
 30
0.0
 10
243.258632
 20
516.995116
 30
0.0
  0
SPLINE
  5
159
100
AcDbEntity
  8
Layer_1
 62
7
100
AcDbSpline
 70
8
 71
3
 72
8
 73
4
 74
0
 40
0
 40
0
 40
0
 40
0
 40
1
 40
1
 40
1
 40
1
 10
243.258632
 20
516.995116
 30
0.0
 10
241.343152
 20
516.995116
 30
0.0
 10
237.808816
 20
521.670572
 30
0.0
 10
237.468840
 20
524.654252
 30
0.0
  0
SPLINE
  5
15a
100
AcDbEntity
  8
Layer_1
 62
7
100
AcDbSpline
 70
8
 71
3
 72
8
 73
4
 74
0
 40
0
 40
0
 40
0
 40
0
 40
1
 40
1
 40
1
 40
1
 10
237.468840
 20
524.654252
 30
0.0
 10
237.314056
 20
526.012692
 30
0.0
 10
236.727352
 20
526.995116
 30
0.0
 10
236.070880
 20
526.995116
 30
0.0
  0
SPLINE
  5
15b
100
AcDbEntity
  8
Layer_1
 62
7
100
AcDbSpline
 70
8
 71
3
 72
8
 73
4
 74
0
 40
0
 40
0
 40
0
 40
0
 40
1
 40
1
 40
1
 40
1
 10
236.070880
 20
526.995116
 30
0.0
 10
234.672176
 20
526.995116
 30
0.0
 10
232.143752
 20
522.597188
 30
0.0
 10
231.352224
 20
518.787516
 30
0.0
  0
SPLINE
  5
15c
100
AcDbEntity
  8
Layer_1
 62
7
100
AcDbSpline
 70
8
 71
3
 72
8
 73
4
 74
0
 40
0
 40
0
 40
0
 40
0
 40
1
 40
1
 40
1
 40
1
 10
231.352224
 20
518.787516
 30
0.0
 10
230.558064
 20
514.965188
 30
0.0
 10
228.663960
 20
513.817572
 30
0.0
 10
225.795208
 20
515.420572
 30
0.0
  0
SPLINE
  5
15d
100
AcDbEntity
  8
Layer_1
 62
7
100
AcDbSpline
 70
8
 71
3
 72
8
 73
4
 74
0
 40
0
 40
0
 40
0
 40
0
 40
1
 40
1
 40
1
 40
1
 10
225.795208
 20
515.420572
 30
0.0
 10
223.979128
 20
516.435364
 30
0.0
 10
223.533352
 20
517.329292
 30
0.0
 10
223.202112
 20
520.620572
 30
0.0
  0
SPLINE
  5
15e
100
AcDbEntity
  8
Layer_1
 62
7
100
AcDbSpline
 70
8
 71
3
 72
8
 73
4
 74
0
 40
0
 40
0
 40
0
 40
0
 40
1
 40
1
 40
1
 40
1
 10
223.202112
 20
520.620572
 30
0.0
 10
222.856856
 20
524.051180
 30
0.0
 10
222.583144
 20
524.557860
 30
0.0
 10
221.202112
 20
524.322916
 30
0.0
  0
SPLINE
  5
15f
100
AcDbEntity
  8
Layer_1
 62
7
100
AcDbSpline
 70
8
 71
3
 72
8
 73
4
 74
0
 40
0
 40
0
 40
0
 40
0
 40
1
 40
1
 40
1
 40
1
 10
221.202112
 20
524.322916
 30
0.0
 10
218.502088
 20
523.863564
 30
0.0
 10
216.897048
 20
521.774612
 30
0.0
 10
216.643896
 20
518.390420
 30
0.0
  0
SPLINE
  5
160
100
AcDbEntity
  8
Layer_1
 62
7
100
AcDbSpline
 70
8
 71
3
 72
8
 73
4
 74
0
 40
0
 40
0
 40
0
 40
0
 40
1
 40
1
 40
1
 40
1
 10
216.643896
 20
518.390420
 30
0.0
 10
216.144296
 20
511.711396
 30
0.0
 10
211.097256
 20
512.266012
 30
0.0
 10
210.402112
 20
519.076332
 30
0.0
  0
SPLINE
  5
161
100
AcDbEntity
  8
Layer_1
 62
7
100
AcDbSpline
 70
8
 71
3
 72
8
 73
4
 74
0
 40
0
 40
0
 40
0
 40
0
 40
1
 40
1
 40
1
 40
1
 10
210.402112
 20
519.076332
 30
0.0
 10
210.047840
 20
522.547132
 30
0.0
 10
209.770688
 20
523.022116
 30
0.0
 10
207.977712
 20
523.231308
 30
0.0
  0
SPLINE
  5
162
100
AcDbEntity
  8
Layer_1
 62
7
100
AcDbSpline
 70
8
 71
3
 72
8
 73
4
 74
0
 40
0
 40
0
 40
0
 40
0
 40
1
 40
1
 40
1
 40
1
 10
207.977712
 20
523.231308
 30
0.0
 10
206.177112
 20
523.441388
 30
0.0
 10
205.840824
 20
523.046884
 30
0.0
 10
204.935664
 20
519.662612
 30
0.0
  0
SPLINE
  5
163
100
AcDbEntity
  8
Layer_1
 62
7
100
AcDbSpline
 70
8
 71
3
 72
8
 73
4
 74
0
 40
0
 40
0
 40
0
 40
0
 40
1
 40
1
 40
1
 40
1
 10
204.935664
 20
519.662612
 30
0.0
 10
204.375960
 20
517.569924
 30
0.0
 10
203.532856
 20
515.393636
 30
0.0
 10
203.062112
 20
514.826420
 30
0.0
  0
SPLINE
  5
164
100
AcDbEntity
  8
Layer_1
 62
7
100
AcDbSpline
 70
8
 71
3
 72
8
 73
4
 74
0
 40
0
 40
0
 40
0
 40
0
 40
1
 40
1
 40
1
 40
1
 10
203.062112
 20
514.826420
 30
0.0
 10
201.987616
 20
513.531732
 30
0.0
 10
199.819840
 20
513.497388
 30
0.0
 10
198.562112
 20
514.755140
 30
0.0
  0
LWPOLYLINE
  5
165
100
AcDbEntity
  8
Layer_1
 62
7
100
AcDbPolyline
 90
9
 70
0
 10
55.327818
 20
650.832892
 30
0.0
 10
48.002106
 20
650.358284
 30
0.0
 10
48.002106
 20
733.276700
 30
0.0
 10
48.002106
 20
816.195117
 30
0.0
 10
278.802112
 20
816.195117
 30
0.0
 10
509.602072
 20
816.195117
 30
0.0
 10
509.602072
 20
751.295508
 30
0.0
 10
509.602072
 20
686.395892
 30
0.0
 10
501.002072
 20
686.913132
 30
0.0
  0
SPLINE
  5
166
100
AcDbEntity
  8
Layer_1
 62
7
100
AcDbSpline
 70
8
 71
3
 72
8
 73
4
 74
0
 40
0
 40
0
 40
0
 40
0
 40
1
 40
1
 40
1
 40
1
 10
284.821984
 20
594.020116
 30
0.0
 10
285.665824
 20
595.407700
 30
0.0
 10
286.588464
 20
598.091556
 30
0.0
 10
286.872288
 20
599.984236
 30
0.0
  0
SPLINE
  5
167
100
AcDbEntity
  8
Layer_1
 62
7
100
AcDbSpline
 70
8
 71
3
 72
8
 73
4
 74
0
 40
0
 40
0
 40
0
 40
0
 40
1
 40
1
 40
1
 40
1
 10
286.872288
 20
599.984236
 30
0.0
 10
287.196560
 20
602.146628
 30
0.0
 10
288.049152
 20
603.945268
 30
0.0
 10
289.166520
 20
604.824196
 30
0.0
  0
SPLINE
  5
168
100
AcDbEntity
  8
Layer_1
 62
7
100
AcDbSpline
 70
8
 71
3
 72
8
 73
4
 74
0
 40
0
 40
0
 40
0
 40
0
 40
1
 40
1
 40
1
 40
1
 10
289.166520
 20
604.824196
 30
0.0
 10
290.144528
 20
605.593492
 30
0.0
 10
291.303288
 20
607.296660
 30
0.0
 10
291.741552
 20
608.609020
 30
0.0
  0
SPLINE
  5
169
100
AcDbEntity
  8
Layer_1
 62
7
100
AcDbSpline
 70
8
 71
3
 72
8
 73
4
 74
0
 40
0
 40
0
 40
0
 40
0
 40
1
 40
1
 40
1
 40
1
 10
291.741552
 20
608.609020
 30
0.0
 10
292.522280
 20
610.946876
 30
0.0
 10
292.633816
 20
610.989332
 30
0.0
 10
297.257968
 20
610.708996
 30
0.0
  0
SPLINE
  5
16a
100
AcDbEntity
  8
Layer_1
 62
7
100
AcDbSpline
 70
8
 71
3
 72
8
 73
4
 74
0
 40
0
 40
0
 40
0
 40
0
 40
1
 40
1
 40
1
 40
1
 10
297.257968
 20
610.708996
 30
0.0
 10
299.853736
 20
610.551636
 30
0.0
 10
302.693176
 20
609.921636
 30
0.0
 10
303.567832
 20
609.308996
 30
0.0
  0
SPLINE
  5
16b
100
AcDbEntity
  8
Layer_1
 62
7
100
AcDbSpline
 70
8
 71
3
 72
8
 73
4
 74
0
 40
0
 40
0
 40
0
 40
0
 40
1
 40
1
 40
1
 40
1
 10
303.567832
 20
609.308996
 30
0.0
 10
304.442488
 20
608.696364
 30
0.0
 10
306.068016
 20
608.198140
 30
0.0
 10
307.180120
 20
608.201836
 30
0.0
  0
SPLINE
  5
16c
100
AcDbEntity
  8
Layer_1
 62
7
100
AcDbSpline
 70
8
 71
3
 72
8
 73
4
 74
0
 40
0
 40
0
 40
0
 40
0
 40
1
 40
1
 40
1
 40
1
 10
307.180120
 20
608.201836
 30
0.0
 10
309.171808
 20
608.208236
 30
0.0
 10
309.205664
 20
608.314540
 30
0.0
 10
309.439008
 20
615.279164
 30
0.0
  0
LWPOLYLINE
  5
16d
100
AcDbEntity
  8
Layer_1
 62
7
100
AcDbPolyline
 90
2
 70
0
 10
198.562112
 20
514.755140
 30
0.0
 10
198.562112
 20
514.755116
 30
0.0
  0
SPLINE
  5
16e
100
AcDbEntity
  8
Layer_1
 62
7
100
AcDbSpline
 70
8
 71
3
 72
8
 73
4
 74
0
 40
0
 40
0
 40
0
 40
0
 40
1
 40
1
 40
1
 40
1
 10
304.639008
 20
621.072444
 30
0.0
 10
301.868720
 20
620.369916
 30
0.0
 10
299.168416
 20
619.387132
 30
0.0
 10
298.638344
 20
618.888492
 30
0.0
  0
SPLINE
  5
16f
100
AcDbEntity
  8
Layer_1
 62
7
100
AcDbSpline
 70
8
 71
3
 72
8
 73
4
 74
0
 40
0
 40
0
 40
0
 40
0
 40
1
 40
1
 40
1
 40
1
 10
298.638344
 20
618.888492
 30
0.0
 10
298.108264
 20
618.389844
 30
0.0
 10
295.860176
 20
617.329412
 30
0.0
 10
293.642576
 20
616.531972
 30
0.0
  0
SPLINE
  5
170
100
AcDbEntity
  8
Layer_1
 62
7
100
AcDbSpline
 70
8
 71
3
 72
8
 73
4
 74
0
 40
0
 40
0
 40
0
 40
0
 40
1
 40
1
 40
1
 40
1
 10
293.642576
 20
616.531972
 30
0.0
 10
291.346080
 20
615.706164
 30
0.0
 10
289.413384
 20
614.460772
 30
0.0
 10
289.152440
 20
613.638604
 30
0.0
  0
SPLINE
  5
171
100
AcDbEntity
  8
Layer_1
 62
7
100
AcDbSpline
 70
8
 71
3
 72
8
 73
4
 74
0
 40
0
 40
0
 40
0
 40
0
 40
1
 40
1
 40
1
 40
1
 10
289.152440
 20
613.638604
 30
0.0
 10
288.900456
 20
612.844684
 30
0.0
 10
288.235768
 20
612.195116
 30
0.0
 10
287.675344
 20
612.195116
 30
0.0
  0
SPLINE
  5
172
100
AcDbEntity
  8
Layer_1
 62
7
100
AcDbSpline
 70
8
 71
3
 72
8
 73
4
 74
0
 40
0
 40
0
 40
0
 40
0
 40
1
 40
1
 40
1
 40
1
 10
287.675344
 20
612.195116
 30
0.0
 10
287.114928
 20
612.195116
 30
0.0
 10
285.682752
 20
610.406204
 30
0.0
 10
284.492736
 20
608.219764
 30
0.0
  0
SPLINE
  5
173
100
AcDbEntity
  8
Layer_1
 62
7
100
AcDbSpline
 70
8
 71
3
 72
8
 73
4
 74
0
 40
0
 40
0
 40
0
 40
0
 40
1
 40
1
 40
1
 40
1
 10
284.492736
 20
608.219764
 30
0.0
 10
283.302728
 20
606.033316
 30
0.0
 10
281.985512
 20
604.032068
 30
0.0
 10
281.565600
 20
603.772548
 30
0.0
  0
SPLINE
  5
174
100
AcDbEntity
  8
Layer_1
 62
7
100
AcDbSpline
 70
8
 71
3
 72
8
 73
4
 74
0
 40
0
 40
0
 40
0
 40
0
 40
1
 40
1
 40
1
 40
1
 10
281.565600
 20
603.772548
 30
0.0
 10
281.145680
 20
603.513028
 30
0.0
 10
280.802112
 20
602.451780
 30
0.0
 10
280.802112
 20
601.414228
 30
0.0
  0
SPLINE
  5
175
100
AcDbEntity
  8
Layer_1
 62
7
100
AcDbSpline
 70
8
 71
3
 72
8
 73
4
 74
0
 40
0
 40
0
 40
0
 40
0
 40
1
 40
1
 40
1
 40
1
 10
280.802112
 20
601.414228
 30
0.0
 10
280.802112
 20
600.376676
 30
0.0
 10
280.082112
 20
597.848076
 30
0.0
 10
279.202112
 20
595.795116
 30
0.0
  0
SPLINE
  5
176
100
AcDbEntity
  8
Layer_1
 62
7
100
AcDbSpline
 70
8
 71
3
 72
8
 73
4
 74
0
 40
0
 40
0
 40
0
 40
0
 40
1
 40
1
 40
1
 40
1
 10
279.202112
 20
595.795116
 30
0.0
 10
277.248264
 20
591.236980
 30
0.0
 10
277.231968
 20
590.796716
 30
0.0
 10
279.002112
 20
590.393652
 30
0.0
  0
SPLINE
  5
177
100
AcDbEntity
  8
Layer_1
 62
7
100
AcDbSpline
 70
8
 71
3
 72
8
 73
4
 74
0
 40
0
 40
0
 40
0
 40
0
 40
1
 40
1
 40
1
 40
1
 10
279.002112
 20
590.393652
 30
0.0
 10
281.074648
 20
589.921732
 30
0.0
 10
283.095328
 20
591.180852
 30
0.0
 10
284.821984
 20
594.020116
 30
0.0
  0
LWPOLYLINE
  5
178
100
AcDbEntity
  8
Layer_1
 62
7
100
AcDbPolyline
 90
3
 70
0
 10
309.439008
 20
615.279164
 30
0.0
 10
309.675912
 20
622.349764
 30
0.0
 10
304.639008
 20
621.072444
 30
0.0
  0
SPLINE
  5
179
100
AcDbEntity
  8
Layer_1
 62
7
100
AcDbSpline
 70
8
 71
3
 72
8
 73
4
 74
0
 40
0
 40
0
 40
0
 40
0
 40
1
 40
1
 40
1
 40
1
 10
320.802112
 20
633.661780
 30
0.0
 10
320.802112
 20
636.677204
 30
0.0
 10
320.042600
 20
637.279732
 30
0.0
 10
318.267032
 20
635.672868
 30
0.0
  0
SPLINE
  5
17a
100
AcDbEntity
  8
Layer_1
 62
7
100
AcDbSpline
 70
8
 71
3
 72
8
 73
4
 74
0
 40
0
 40
0
 40
0
 40
0
 40
1
 40
1
 40
1
 40
1
 10
318.267032
 20
635.672868
 30
0.0
 10
316.079408
 20
633.693092
 30
0.0
 10
316.366848
 20
631.395116
 30
0.0
 10
318.802112
 20
631.395116
 30
0.0
  0
SPLINE
  5
17b
100
AcDbEntity
  8
Layer_1
 62
7
100
AcDbSpline
 70
8
 71
3
 72
8
 73
4
 74
0
 40
0
 40
0
 40
0
 40
0
 40
1
 40
1
 40
1
 40
1
 10
318.802112
 20
631.395116
 30
0.0
 10
320.464856
 20
631.395116
 30
0.0
 10
320.802112
 20
631.777340
 30
0.0
 10
320.802112
 20
633.661780
 30
0.0
  0
LWPOLYLINE
  5
17c
100
AcDbEntity
  8
Layer_1
 62
7
100
AcDbPolyline
 90
2
 70
0
 10
284.821984
 20
594.020116
 30
0.0
 10
284.821984
 20
594.020116
 30
0.0
  0
SPLINE
  5
17d
100
AcDbEntity
  8
Layer_1
 62
7
100
AcDbSpline
 70
8
 71
3
 72
8
 73
4
 74
0
 40
0
 40
0
 40
0
 40
0
 40
1
 40
1
 40
1
 40
1
 10
355.907592
 20
634.595116
 30
0.0
 10
356.602296
 20
636.913812
 30
0.0
 10
357.298144
 20
637.795116
 30
0.0
 10
358.434224
 20
637.795116
 30
0.0
  0
SPLINE
  5
17e
100
AcDbEntity
  8
Layer_1
 62
7
100
AcDbSpline
 70
8
 71
3
 72
8
 73
4
 74
0
 40
0
 40
0
 40
0
 40
0
 40
1
 40
1
 40
1
 40
1
 10
358.434224
 20
637.795116
 30
0.0
 10
359.485136
 20
637.795116
 30
0.0
 10
360.002112
 20
638.339724
 30
0.0
 10
360.002112
 20
639.446812
 30
0.0
  0
SPLINE
  5
17f
100
AcDbEntity
  8
Layer_1
 62
7
100
AcDbSpline
 70
8
 71
3
 72
8
 73
4
 74
0
 40
0
 40
0
 40
0
 40
0
 40
1
 40
1
 40
1
 40
1
 10
360.002112
 20
639.446812
 30
0.0
 10
360.002112
 20
641.580428
 30
0.0
 10
356.819432
 20
648.995116
 30
0.0
 10
355.903600
 20
648.995116
 30
0.0
  0
SPLINE
  5
180
100
AcDbEntity
  8
Layer_1
 62
7
100
AcDbSpline
 70
8
 71
3
 72
8
 73
4
 74
0
 40
0
 40
0
 40
0
 40
0
 40
1
 40
1
 40
1
 40
1
 10
355.903600
 20
648.995116
 30
0.0
 10
355.517784
 20
648.995116
 30
0.0
 10
355.202112
 20
649.584404
 30
0.0
 10
355.202112
 20
650.304644
 30
0.0
  0
SPLINE
  5
181
100
AcDbEntity
  8
Layer_1
 62
7
100
AcDbSpline
 70
8
 71
3
 72
8
 73
4
 74
0
 40
0
 40
0
 40
0
 40
0
 40
1
 40
1
 40
1
 40
1
 10
355.202112
 20
650.304644
 30
0.0
 10
355.202112
 20
651.444500
 30
0.0
 10
354.502448
 20
651.540068
 30
0.0
 10
349.802112
 20
651.042236
 30
0.0
  0
SPLINE
  5
182
100
AcDbEntity
  8
Layer_1
 62
7
100
AcDbSpline
 70
8
 71
3
 72
8
 73
4
 74
0
 40
0
 40
0
 40
0
 40
0
 40
1
 40
1
 40
1
 40
1
 10
349.802112
 20
651.042236
 30
0.0
 10
346.832112
 20
650.727668
 30
0.0
 10
343.502112
 20
650.395628
 30
0.0
 10
342.402112
 20
650.304356
 30
0.0
  0
SPLINE
  5
183
100
AcDbEntity
  8
Layer_1
 62
7
100
AcDbSpline
 70
8
 71
3
 72
8
 73
4
 74
0
 40
0
 40
0
 40
0
 40
0
 40
1
 40
1
 40
1
 40
1
 10
342.402112
 20
650.304356
 30
0.0
 10
339.553912
 20
650.068044
 30
0.0
 10
337.353704
 20
648.680284
 30
0.0
 10
332.740376
 20
644.210308
 30
0.0
  0
SPLINE
  5
184
100
AcDbEntity
  8
Layer_1
 62
7
100
AcDbSpline
 70
8
 71
3
 72
8
 73
4
 74
0
 40
0
 40
0
 40
0
 40
0
 40
1
 40
1
 40
1
 40
1
 10
332.740376
 20
644.210308
 30
0.0
 10
329.184640
 20
640.765052
 30
0.0
 10
328.803024
 20
640.088228
 30
0.0
 10
329.588592
 20
638.620372
 30
0.0
  0
SPLINE
  5
185
100
AcDbEntity
  8
Layer_1
 62
7
100
AcDbSpline
 70
8
 71
3
 72
8
 73
4
 74
0
 40
0
 40
0
 40
0
 40
0
 40
1
 40
1
 40
1
 40
1
 10
329.588592
 20
638.620372
 30
0.0
 10
330.080184
 20
637.701836
 30
0.0
 10
330.814592
 20
637.155612
 30
0.0
 10
331.220608
 20
637.406548
 30
0.0
  0
SPLINE
  5
186
100
AcDbEntity
  8
Layer_1
 62
7
100
AcDbSpline
 70
8
 71
3
 72
8
 73
4
 74
0
 40
0
 40
0
 40
0
 40
0
 40
1
 40
1
 40
1
 40
1
 10
331.220608
 20
637.406548
 30
0.0
 10
333.295312
 20
638.688788
 30
0.0
 10
337.805560
 20
638.489180
 30
0.0
 10
340.599984
 20
636.991460
 30
0.0
  0
SPLINE
  5
187
100
AcDbEntity
  8
Layer_1
 62
7
100
AcDbSpline
 70
8
 71
3
 72
8
 73
4
 74
0
 40
0
 40
0
 40
0
 40
0
 40
1
 40
1
 40
1
 40
1
 10
340.599984
 20
636.991460
 30
0.0
 10
342.238120
 20
636.113468
 30
0.0
 10
344.303752
 20
635.384972
 30
0.0
 10
345.190264
 20
635.372580
 30
0.0
  0
SPLINE
  5
188
100
AcDbEntity
  8
Layer_1
 62
7
100
AcDbSpline
 70
8
 71
3
 72
8
 73
4
 74
0
 40
0
 40
0
 40
0
 40
0
 40
1
 40
1
 40
1
 40
1
 10
345.190264
 20
635.372580
 30
0.0
 10
346.076784
 20
635.360180
 30
0.0
 10
348.422112
 20
634.487484
 30
0.0
 10
350.402112
 20
633.433244
 30
0.0
  0
SPLINE
  5
189
100
AcDbEntity
  8
Layer_1
 62
7
100
AcDbSpline
 70
8
 71
3
 72
8
 73
4
 74
0
 40
0
 40
0
 40
0
 40
0
 40
1
 40
1
 40
1
 40
1
 10
350.402112
 20
633.433244
 30
0.0
 10
352.382112
 20
632.378996
 30
0.0
 10
354.215128
 20
631.489140
 30
0.0
 10
354.475480
 20
631.455780
 30
0.0
  0
SPLINE
  5
18a
100
AcDbEntity
  8
Layer_1
 62
7
100
AcDbSpline
 70
8
 71
3
 72
8
 73
4
 74
0
 40
0
 40
0
 40
0
 40
0
 40
1
 40
1
 40
1
 40
1
 10
354.475480
 20
631.455780
 30
0.0
 10
354.735832
 20
631.422420
 30
0.0
 10
355.380288
 20
632.835116
 30
0.0
 10
355.907592
 20
634.595116
 30
0.0
  0
LWPOLYLINE
  5
18b
100
AcDbEntity
  8
Layer_1
 62
7
100
AcDbPolyline
 90
2
 70
0
 10
320.802112
 20
633.661780
 30
0.0
 10
320.802112
 20
633.661780
 30
0.0
  0
LWPOLYLINE
  5
18c
100
AcDbEntity
  8
Layer_1
 62
7
100
AcDbPolyline
 90
2
 70
0
 10
355.907592
 20
634.595116
 30
0.0
 10
355.907592
 20
634.595116
 30
0.0
  0
ENDSEC
  0
SECTION
  2
OBJECTS
  0
DICTIONARY
  5
C
330
0
100
AcDbDictionary
  3
ACAD_GROUP
350
D
  3
ACAD_MLINESTYLE
350
17
  0
DICTIONARY
  5
D
330
C
100
AcDbDictionary
  0
DICTIONARY
  5
1A
330
C
100
AcDbDictionary
  0
DICTIONARY
  5
17
330
C
100
AcDbDictionary
  3
STANDARD
350
18
  0
DICTIONARY
  5
19
330
C
100
AcDbDictionary
  0
ENDSEC
  0
EOF
