<?xml version="1.0" encoding="UTF-8" standalone="no"?>
<!-- Created with Inkscape (http://www.inkscape.org/) -->

<svg
   xmlns:dc="http://purl.org/dc/elements/1.1/"
   xmlns:cc="http://creativecommons.org/ns#"
   xmlns:rdf="http://www.w3.org/1999/02/22-rdf-syntax-ns#"
   xmlns:svg="http://www.w3.org/2000/svg"
   xmlns="http://www.w3.org/2000/svg"
   xmlns:sodipodi="http://sodipodi.sourceforge.net/DTD/sodipodi-0.dtd"
   xmlns:inkscape="http://www.inkscape.org/namespaces/inkscape"
   width="744.09448819"
   height="1052.3622047"
   id="svg2"
   version="1.1"
   inkscape:version="0.48.4 r9939"
   sodipodi:docname="tornado4-2.dxf">
  <defs
     id="defs4" />
  <sodipodi:namedview
     id="base"
     pagecolor="#ffffff"
     bordercolor="#666666"
     borderopacity="1.0"
     inkscape:pageopacity="0.0"
     inkscape:pageshadow="2"
     inkscape:zoom="0.98994949"
     inkscape:cx="427.78365"
     inkscape:cy="730.53472"
     inkscape:document-units="px"
     inkscape:current-layer="layer1"
     showgrid="false"
     inkscape:window-width="1280"
     inkscape:window-height="977"
     inkscape:window-x="-4"
     inkscape:window-y="-4"
     inkscape:window-maximized="1" />
  <metadata
     id="metadata7">
    <rdf:RDF>
      <cc:Work
         rdf:about="">
        <dc:format>image/svg+xml</dc:format>
        <dc:type
           rdf:resource="http://purl.org/dc/dcmitype/StillImage" />
        <dc:title></dc:title>
      </cc:Work>
    </rdf:RDF>
  </metadata>
  <g
     inkscape:label="Layer 1"
     inkscape:groupmode="layer"
     id="layer1">
    <path
       style="fill:#000000"
       d="m 52.931563,409.11832 0,-23 77.499997,0 77.5,0 0,-2.46482 c 0,-1.44757 -0.8317,-2.90993 -2.01525,-3.54334 -3.91953,-2.09767 -5.81572,-8.58159 -6.43142,-21.99184 -1.17501,-25.59218 -1.24141,-25.9606 -6.71103,-37.23643 -0.46327,-0.95504 -0.8423,-2.80052 -0.8423,-4.10106 0,-1.30055 -1.04757,-4.34416 -2.32792,-6.76358 -2.29251,-4.33201 -3.60494,-11.61245 -5.66023,-31.39894 -1.44306,-13.89245 -2.02515,-16.52373 -5.08544,-22.98783 -2.81852,-5.95346 -6.15188,-8.91163 -15.16128,-13.45482 -1.831,-0.92332 -2.93445,-2.443 -3.33876,-4.59816 -0.38931,-2.07517 -1.46073,-3.60944 -3.01514,-4.31768 -1.85324,-0.8444 -2.41123,-1.87767 -2.41123,-4.46508 0,-3.56099 -2.46337,-6.67642 -5.27905,-6.67642 -0.89186,0 -2.05211,-0.76934 -2.57832,-1.70963 -0.78101,-1.39558 -2.58113,-1.73233 -9.79969,-1.83322 -5.29999,-0.0741 -10.6215,0.45216 -13.28209,1.31349 -3.95109,1.27909 -4.73693,1.26121 -7.14753,-0.16278 -2.48086,-1.46548 -3.15803,-1.46587 -8.06085,-0.005 -9.630437,2.8703 -9.653627,2.88799 -10.411667,7.94293 -0.57219,3.81565 -0.28821,5.3985 1.57935,8.80298 3.462417,6.31185 4.960917,7.65084 8.562257,7.65084 2.345,0 3.86039,-0.74747 5.34704,-2.63744 1.98199,-2.51968 2.33124,-2.59918 7.82258,-1.78056 3.16138,0.47128 8.24889,0.84564 11.30558,0.8319 4.69406,-0.0211 5.83548,0.34339 7.34592,2.34583 1.70412,2.2592 1.70588,2.46189 0.0374,4.30554 -1.41574,1.56437 -3.01338,1.91565 -8.34592,1.83505 -3.62726,-0.0544 -7.72001,-0.42719 -9.09501,-0.82795 -1.94487,-0.56685 -3.22939,-0.1006 -5.7848,2.09969 -3.49242,3.00711 -6.51232,3.46389 -12.17105,1.84098 -3.59229,-1.03025 -12.044147,-8.5178 -12.044147,-10.66998 0,-0.68248 -1.58863,-2.45259 -3.53027,-3.93356 -3.27209,-2.49575 -4.01645,-2.64727 -10.17801,-2.07189 -3.65625,0.34141 -6.94691,1.10485 -7.31258,1.69653 -0.36567,0.59166 -4.78557,1.34272 -9.822,1.66902 l -9.15714,0.59327 0,-103.64803 0,-103.64802 288.499997,0 288.5,0 0,81.12452 0,81.12452 -10.75,-0.64655 c -5.9125,-0.35561 -14.575,-1.29071 -19.25,-2.07801 -4.675,-0.78729 -14.8,-1.70443 -22.5,-2.03807 -13.44567,-0.58263 -14.17818,-0.5118 -18.5,1.78906 -2.475,1.31763 -7.10614,2.70081 -10.29142,3.07373 -5.36674,0.62829 -13.70858,4.53666 -13.70858,6.4228 0,1.94804 -5.17958,3.5091 -14.26022,4.29787 -12.98415,1.12781 -13.4786,1.32634 -14.87005,5.97058 -1.13691,3.79469 -8.80249,12.95956 -10.83949,12.95956 -0.55187,0 -1.67539,1.46249 -2.49672,3.25 -0.82132,1.78749 -1.88242,3.925 -2.35799,4.75 -3.75713,6.51768 -4.09378,10.5449 -1.58709,18.98586 2.35718,7.93748 1.1009,14.02229 -4.84891,23.48564 -8.47844,13.48522 -11.05168,16.59235 -17.44846,21.06859 -3.73509,2.61368 -8.36607,5.18138 -10.29107,5.70597 -1.925,0.5246 -6.07786,2.51056 -9.22859,4.41327 -6.94614,4.19474 -10.48187,4.85971 -18.29049,3.43998 -7.15545,-1.301 -9.71075,-3.76027 -9.39058,-9.03774 0.11884,-1.95886 -0.49502,-5.13657 -1.36413,-7.06157 -0.86912,-1.92501 -1.82785,-4.29771 -2.13053,-5.27269 -0.76556,-2.46601 -2.88399,-3.06113 -8.10796,-2.27775 -2.96648,0.44485 -4.48772,1.16915 -4.48772,2.1367 0,0.82638 -1.30632,1.725 -3,2.06373 -2.83499,0.567 -3,0.86489 -3,5.41598 0,2.64879 -0.45,5.0941 -1,5.43402 -0.55,0.33992 -1,1.63543 -1,2.87891 0,1.24348 -1.31817,3.73732 -2.92928,5.54187 -2.79888,3.13495 -3.08838,3.2285 -6.50346,2.10143 -1.9658,-0.64878 -5.03513,-0.89104 -6.82072,-0.53837 -3.93176,0.77656 -9.06123,2.65533 -9.74654,3.56986 -0.275,0.36699 -1.90229,1.38546 -3.6162,2.26326 -3.60026,1.84394 -7.31114,4.82464 -11.74385,9.43305 -2.63454,2.73896 -3.84659,3.25 -7.70806,3.25 -3.04966,0 -5.15032,0.58523 -6.28149,1.75 -3.68171,3.79104 -6.6504,9.47602 -6.6504,12.73538 0,1.86812 -0.41972,3.65598 -0.93272,3.97303 -0.513,0.31705 -1.45827,3.15612 -2.10061,6.30902 -0.64233,3.15291 -2.03065,6.67012 -3.08514,7.81603 -1.0545,1.14591 -2.42309,4.74591 -3.04133,8 -2.05909,10.83808 -4.51044,13.96333 -12.3402,15.73259 -1.1,0.24857 70.1125,0.50415 158.25,0.56795 l 160.25,0.116 0,23 0,23 -288.5,0 -288.499997,0 0,-23 z M 348.9564,309.83707 c 1.0548,-1.73449 2.2081,-5.0893 2.56288,-7.45516 0.40534,-2.70298 1.47108,-4.95128 2.86779,-6.04995 1.22251,-0.96162 2.67096,-3.09058 3.21879,-4.73102 0.97591,-2.92233 1.11533,-2.9754 6.89552,-2.62498 3.24471,0.19671 6.79401,0.9842 7.88733,1.75 1.09332,0.76579 3.12523,1.38857 4.51536,1.38396 2.48961,-0.008 2.53193,-0.14088 2.82361,-8.84666 l 0.29613,-8.83825 -6.29613,1.59665 c -3.46286,0.87816 -6.83824,2.10664 -7.50083,2.72994 -0.6626,0.62331 -3.47271,1.94885 -6.24471,2.94565 -2.87062,1.03226 -5.28649,2.589 -5.61267,3.61671 -0.31498,0.9924 -1.14584,1.80436 -1.84637,1.80436 -0.70052,0 -2.49074,2.23614 -3.97826,4.96919 -1.48751,2.73306 -3.13403,5.23462 -3.65892,5.55902 -0.5249,0.3244 -0.95436,1.65096 -0.95436,2.9479 0,1.29694 -0.9,4.45769 -2,7.02389 -2.44231,5.69767 -2.46268,6.248 -0.25,6.75183 2.59067,0.5899 5.11652,-0.984 7.27484,-4.53308 z m 44.97516,-49.55208 c 0,-3.76929 -0.94939,-4.52245 -3.16885,-2.51387 -2.73453,2.47472 -2.37523,5.3472 0.66885,5.3472 2.07843,0 2.5,-0.47778 2.5,-2.83333 z m 43.88185,-1.16667 c 0.86838,-2.89837 1.73819,-4 3.15829,-4 1.31364,0 1.95986,-0.68077 1.95986,-2.06462 0,-2.66703 -3.97835,-11.93538 -5.12314,-11.93538 -0.48227,0 -0.87686,-0.73662 -0.87686,-1.63691 0,-1.42483 -0.87458,-1.54429 -6.75,-0.92199 -3.7125,0.39321 -7.875,0.80825 -9.25,0.92235 -3.56025,0.29539 -6.31051,2.03008 -12.07717,7.61755 -4.44467,4.30657 -4.92169,5.1526 -3.93973,6.98743 0.61449,1.14817 1.5325,1.83094 2.04002,1.51727 2.59338,-1.6028 8.23119,-1.35328 11.72422,0.51887 2.04767,1.09748 4.62971,2.0081 5.73785,2.02359 1.10815,0.0155 4.03981,1.10637 6.51481,2.42417 2.475,1.31782 4.76627,2.43013 5.09171,2.47184 0.32544,0.0417 1.13101,-1.72418 1.79014,-3.92417 z"
       id="path3101"
       inkscape:connector-curvature="0" />
  </g>
</svg>
