<?xml version="1.0" encoding="UTF-8"?>
<!DOCTYPE svg PUBLIC "-//W3C//DTD SVG 1.0//EN" "http://www.w3.org/TR/2001/REC-SVG-20010904/DTD/svg10.dtd">
<svg shape-rendering="geometricPrecision" text-rendering="geometricPrecision" image-rendering="optimizeQuality" fill-rule="evenodd" xml:space="preserve" 
 xmlns="http://www.w3.org/2000/svg" xmlns:xlink="http://www.w3.org/1999/xlink"  viewBox=" -0.09487523883581161 -0.09526652842760086 1000.1901511177421 1067.17693156749" width="100.01901511177421mm" height="106.71769315674901mm" >
<g><path fill="#000000" d="M566.22626,332.9314 L544.4066,333.1452 536.8333,333.38187 533.6822,333.63617 533.2776,333.84238 533.0986,334.26443 532.8458,343.63373 532.6707,366.61725 532.69183,470.264 533.09924,524.1958 533.3725,532.8833 533.5552,533.31006 533.97577,533.51465 537.8697,533.75256 545.89044,533.92566 579.2401,533.8586 596.5701,533.39923 599.4742,533.14264 599.8815,532.9146 600.0395,532.4782 600.0395,334.234 599.86835,333.7879 599.44714,333.5713 596.01746,333.3091 588.2216,333.0858 566.22626,332.9314 Z M729.2552,332.9882 L670.5471,332.99155 666.8053,333.34802 666.2637,333.77435 666.2209,532.87024 666.597,533.4706 671.36346,533.7937 679.7724,533.97473 713.03784,533.88226 730.04913,533.3834 732.9176,533.1111 733.4442,532.6892 733.488,333.94217 733.31775,333.49332 732.88824,333.2749 729.2552,332.9882 Z M469.68246,-0.09526653 L262.4246,0.22989269 205.04001,0.61094284 200.70563,0.7457886 200.11842,1.1379826 199.84286,9.190982 199.70456,25.20554 199.70465,69.62996 200.02287,112.874405 200.28238,127.41774 200.62146,133.41205 201.21848,133.78151 259.84906,133.76216 266.35037,133.92819 266.52682,134.11238 266.52682,199.57983 266.9341,200.19429 332.88593,200.24669 333.0677,200.35187 333.0403,320.11374 333.2468,333.30368 333.8573,333.70184 391.4877,333.6698 399.25613,333.87625 399.4351,334.05585 399.68906,344.26245 399.85104,367.5097 399.89282,435.05798 399.60468,501.87332 399.35434,524.2083 399.05856,533.1289 398.8732,533.30334 341.55603,533.3065 333.6018,533.3907 333.13458,533.58875 332.94202,534.05804 332.94202,599.8702 332.76947,599.96515 200.2173,600.0176 199.81,600.632 199.79248,666.4137 1.0970309,666.4137 0.64179957,666.5932 0.43170786,667.03516 0.31082627,668.81744 -0.0052818777,689.0603 -0.09487524,733.9786 0.15479012,778.49 0.39294207,793.4857 0.6558177,799.3382 1.0743239,799.90247 66.07389,799.94934 66.52275,799.7757 66.73781,799.3451 67.03867,795.1701 67.05531,734.005 67.23627,733.82404 199.62424,733.82404 200.08923,733.6352 200.29083,733.17554 200.43199,728.04987 200.45848,667.20496 320.16132,667.16595 326.89462,667.12695 333.44778,666.87445 333.84067,666.2651 333.84067,600.63226 334.0132,600.5373 398.7784,600.5373 398.9659,600.70764 399.339,605.691 399.36893,728.4162 399.67624,733.2485 400.2772,733.626 465.5883,733.626 465.77426,733.7995 466.03903,738.5357 466.05066,799.286 466.24597,799.7576 466.71753,799.9529 666.3957,799.9005 666.80304,799.286 666.80304,734.0635 666.98395,733.8825 733.0618,733.8347 733.47894,733.26276 733.73474,728.71204 733.74805,667.36475 733.9289,667.18365 798.7996,667.10626 799.38824,666.752 799.7176,663.453 799.9777,656.0454 800.2776,634.692 800.25366,612.85565 800.10846,604.8337 799.89606,600.90076 799.72125,600.4783 798.5939,600.17993 788.81433,599.8412 767.0799,599.6306 744.93353,599.7377 733.22595,600.15576 732.79395,600.368 732.6173,600.81946 732.56476,665.86847 732.38403,666.04956 666.7024,666.0855 666.08923,666.4898 665.96387,677.4865 665.9726,732.3297 665.7916,732.5107 467.3275,732.5107 467.1436,732.33374 466.8936,725.91187 466.85278,719.2881 466.84515,600.23584 466.2307,599.8285 401.29315,599.8285 401.10355,599.66345 400.97153,598.70856 400.57553,589.0772 400.30615,567.8507 400.3699,546.1493 400.6592,535.52875 400.78226,534.13995 400.96936,533.96875 465.3302,533.96875 465.7762,533.79767 466.3238,533.305 466.64578,532.77747 466.8659,531.2743 466.8609,335.4267 466.6289,333.84598 466.41922,333.47256 466.02838,333.30392 461.42603,332.98157 405.87192,332.95493 400.5594,332.72754 400.38406,332.5427 400.33167,200.33025 399.71722,199.92296 334.1507,199.92296 333.96777,199.8168 333.89658,188.76295 333.90552,134.04915 333.72546,133.59338 333.28564,133.38391 330.9453,133.19745 322.54633,132.99428 268.04532,133.04625 267.85477,132.88406 267.69913,131.9229 267.52203,129.57532 267.04062,112.18516 266.93005,89.52859 267.21344,71.76651 267.48114,68.13785 267.66574,67.96796 282.36832,67.717865 319.9055,67.5242 432.70474,67.34595 545.76965,67.47195 583.63684,67.65861 598.7955,67.924225 598.9782,68.098724 599.2659,72.75663 599.2926,128.31216 599.5542,133.32497 599.7638,133.76804 600.2196,133.94815 732.3136,133.94815 732.48615,134.04308 732.48615,199.58202 732.6692,200.04097 733.11536,200.24783 739.4681,200.48663 798.6066,200.45999 798.7944,200.62976 799.1829,205.48772 799.2146,261.44168 799.45886,266.51517 799.66266,266.96075 800.11847,267.14688 816.1043,267.30066 849.08813,267.27927 865.41254,267.38495 865.5971,267.56006 865.89417,273.99667 865.94666,280.62787 865.9501,399.8987 866.56177,400.30667 932.04895,400.37863 932.22986,400.55963 932.22986,665.85846 932.0493,666.03973 866.82526,666.08215 866.2281,666.452 865.9095,670.46063 865.91455,796.36926 866.19855,799.3632 866.41925,799.77966 866.8601,799.9462 932.69635,799.9462 933.31085,799.5389 933.41394,666.8566 933.59515,666.67596 994.1012,666.74445 998.1717,666.5056 999.1086,666.3089 999.4852,666.0797 999.63654,665.67 999.7677,661.62537 999.8857,652.11035 1000.0953,578.5981 999.73804,441.54276 999.4729,411.89377 999.1755,400.47385 998.9691,400.0238 998.5094,399.84003 933.5442,399.84003 933.3632,399.65906 933.36,281.42606 933.20514,266.77228 932.59204,266.36816 866.5742,266.36816 866.3933,266.18723 866.3933,200.56818 866.198,200.0966 865.72644,199.9013 800.1491,199.9013 799.96814,199.72034 799.9521,134.03403 799.75653,133.56288 799.2852,133.36777 733.38477,133.27284 733.38477,67.14459 732.9775,66.53013 600.08057,66.47773 599.8996,66.29676 599.8996,1.0357611 599.5031,0.4259915 579.8468,0.11766821 469.68246,-0.09526653 Z M803.2395,799.6008 L800.1447,799.7585 799.7129,799.944 799.5105,800.37006 799.3388,802.4681 799.2162,804.9961 799.1896,860.54956 798.9529,865.81934 798.7678,865.9944 733.3653,865.9944 732.7558,866.3902 732.5794,874.59796 732.59265,932.1476 732.4215,932.33466 727.08966,932.7129 604.3669,932.74286 600.1974,932.95465 599.76654,933.1504 599.57416,933.579 599.29584,938.4184 599.2809,999.06537 599.09985,999.24634 334.1732,999.24634 333.99222,999.06537 333.99222,933.7119 333.60962,933.1085 327.52823,932.74445 200.54694,932.73114 200.39967,866.4849 199.7852,866.07764 134.26283,866.07764 134.08188,865.89667 134.08188,800.6738 133.92355,800.24243 133.53015,800.0169 130.89352,799.6141 68.18899,799.6058 67.11914,799.7374 66.725525,799.9703 66.574356,800.39874 66.52774,864.6793 66.894196,866.33057 67.45489,866.6363 132.91592,866.6363 133.09698,866.81714 133.1973,932.9639 133.60486,933.5773 199.7802,933.6296 199.8875,996.52136 200.01155,999.41315 200.42519,1000.0019 332.69254,1000.0514 332.8784,1000.22504 333.05362,1003.43994 333.05197,1064.1959 332.8984,1066.3467 333.06833,1066.8593 333.2921,1067.0209 599.4487,1067.0817 599.9203,1066.8864 600.1156,1066.4148 600.0611,1002.24164 600.39496,1000.0678 600.58655,999.91 733.0908,999.83624 733.4979,999.22186 733.4979,933.6242 733.67883,933.4431 799.5557,933.39075 799.963,932.7763 799.93243,875.067 800.1763,866.77716 800.36096,866.6015 862.0834,866.60065 865.62067,866.48065 866.18365,866.1332 866.43823,864.5865 866.3788,800.4389 866.20776,799.99365 865.7831,799.7765 863.5775,799.6024 803.2395,799.6008 Z " />
</g></svg>