<?xml version="1.0" encoding="UTF-8"?>
<!DOCTYPE svg PUBLIC "-//W3C//DTD SVG 1.0//EN" "http://www.w3.org/TR/2001/REC-SVG-20010904/DTD/svg10.dtd">
<svg shape-rendering="geometricPrecision" text-rendering="geometricPrecision" image-rendering="optimizeQuality" fill-rule="evenodd" xml:space="preserve" 
 xmlns="http://www.w3.org/2000/svg" xmlns:xlink="http://www.w3.org/1999/xlink"  viewBox="0 0 1185.1543824449182 1000.2115723863244" width="118.51543824449182mm" height="100.02115723863244mm" >
<g><path fill="#000000" d="M185.57751,-0.10579846 L185.05382,0.11108464 184.83693,0.6347907 184.83693,81.19827 185.05382,81.72198 185.57751,81.938866 264.50433,81.938866 265.028,81.72198 265.24493,81.19827 265.24493,0.6347907 265.028,0.11108464 264.50433,-0.10579846 Z M277.23056,-0.10579846 L276.70685,0.11108464 276.48996,0.6347907 276.48996,81.19827 276.70685,81.72198 277.23056,81.938866 357.794,81.938866 358.31772,81.72198 358.5346,81.19827 358.5346,0.6347907 358.31772,0.11108464 357.794,-0.10579846 Z M368.88358,-0.10579846 L368.3599,0.11108464 368.14297,0.6347907 368.14297,81.19827 368.3599,81.72198 368.88358,81.938866 449.44705,81.938866 449.97076,81.72198 450.18762,81.19827 450.18762,0.6347907 449.97076,0.11108464 449.44705,-0.10579846 Z M460.53662,-0.10579846 L460.01288,0.11108464 459.79602,0.6347907 459.79602,81.19827 460.01288,81.72198 460.53662,81.938866 541.10004,81.938866 541.6238,81.72198 541.84064,81.19827 541.84064,0.6347907 541.6238,0.11108464 541.10004,-0.10579846 Z M552.18964,-0.10579846 L551.6659,0.11108464 551.44904,0.6347907 551.44904,81.19827 551.6659,81.72198 552.18964,81.938866 632.7531,81.938866 633.2768,81.72198 633.4937,81.19827 633.4937,0.6347907 633.2768,0.11108464 632.7531,-0.10579846 Z M643.84265,-0.10579846 L643.319,0.11108464 643.10205,0.6347907 643.10205,81.19827 643.319,81.72198 643.84265,81.938866 724.4061,81.938866 724.9299,81.72198 725.1467,81.19827 725.1467,0.6347907 724.9299,0.11108464 724.4061,-0.10579846 Z M735.49567,-0.10579846 L734.972,0.11108464 734.7551,0.6347907 734.7551,81.19827 734.972,81.72198 735.49567,81.938866 816.05914,81.938866 816.5829,81.72198 816.79974,81.19827 816.79974,0.6347907 816.5829,0.11108464 816.05914,-0.10579846 Z M827.14874,-0.10579846 L826.625,0.11108464 826.40814,0.6347907 826.40814,81.19827 826.625,81.72198 827.14874,81.938866 907.71216,81.938866 908.23584,81.72198 908.4527,81.19827 908.4527,0.6347907 908.23584,0.11108464 907.71216,-0.10579846 Z M920.4383,-0.10579846 L919.9146,0.11108464 919.69775,0.6347907 919.69775,81.19827 919.9146,81.72198 920.4383,81.938866 999.36523,81.938866 999.8889,81.72198 1000.1058,81.19827 1000.1058,0.6347907 999.8889,0.11108464 999.36523,-0.10579846 Z M92.28781,91.54723 L91.76411,91.764114 91.547226,92.28782 91.547226,172.8513 91.76411,173.37502 92.28781,173.59189 172.85126,173.59189 173.37497,173.37502 173.59184,172.8513 173.59184,92.28782 173.37497,91.764114 172.85126,91.54723 Z M1012.0914,91.54723 L1011.5677,91.764114 1011.3508,92.28782 1011.3508,172.8513 1011.5677,173.37502 1012.0914,173.59189 1092.6549,173.59189 1093.1787,173.37502 1093.3955,172.8513 1093.3955,92.28782 1093.1787,91.764114 1092.6549,91.54723 Z M0.6347907,183.20026 L0.11108464,183.41714 -0.10579846,183.94084 -0.10579846,264.5043 0.11108464,265.028 0.6347907,265.2449 81.19827,265.2449 81.72197,265.028 81.93886,264.5043 81.93886,183.94084 81.72197,183.41714 81.19827,183.20026 Z M1103.7444,183.20026 L1103.2207,183.41714 1103.0038,183.94084 1103.0038,264.5043 1103.2207,265.028 1103.7444,265.2449 1184.308,265.2449 1184.8317,265.028 1185.0486,264.5043 1185.0486,183.94084 1184.8317,183.41714 1184.308,183.20026 Z M0.6347907,274.8533 L0.11108464,275.0702 -0.10579846,275.59387 -0.10579846,356.15735 0.11108464,356.68103 0.6347907,356.89792 81.19827,356.89792 81.72197,356.68103 81.93886,356.15735 81.93886,275.59387 81.72197,275.0702 81.19827,274.8533 Z M1103.7444,274.8533 L1103.2207,275.0702 1103.0038,275.59387 1103.0038,356.15735 1103.2207,356.68103 1103.7444,356.89792 1184.308,356.89792 1184.8317,356.68103 1185.0486,356.15735 1185.0486,275.59387 1184.8317,275.0702 1184.308,274.8533 Z M0.6347907,366.50632 L0.11108464,366.7232 -0.10579846,367.24692 -0.10579846,447.81036 0.11108464,448.33408 0.6347907,448.55096 81.19827,448.55096 81.72197,448.33408 81.93886,447.81036 81.93886,367.24692 81.72197,366.7232 81.19827,366.50632 Z M277.2305,366.50632 L276.7068,366.7232 276.4899,367.24692 276.4899,447.81036 276.7068,448.33408 277.2305,448.55096 357.79398,448.55096 358.3177,448.33408 358.53458,447.81036 358.53458,367.24692 358.3177,366.7232 357.79398,366.50632 Z M368.8835,366.50632 L368.35983,366.7232 368.14294,367.24692 368.14294,447.81036 368.35983,448.33408 368.8835,448.55096 449.447,448.55096 449.9707,448.33408 450.18756,447.81036 450.18756,367.24692 449.9707,366.7232 449.447,366.50632 Z M735.49567,366.50632 L734.972,366.7232 734.7551,367.24692 734.7551,447.81036 734.972,448.33408 735.49567,448.55096 816.05914,448.55096 816.5829,448.33408 816.79974,447.81036 816.79974,367.24692 816.5829,366.7232 816.05914,366.50632 Z M827.14874,366.50632 L826.625,366.7232 826.40814,367.24692 826.40814,447.81036 826.625,448.33408 827.14874,448.55096 907.71216,448.55096 908.23584,448.33408 908.4527,447.81036 908.4527,367.24692 908.23584,366.7232 907.71216,366.50632 Z M1103.7444,366.50632 L1103.2207,366.7232 1103.0038,367.24692 1103.0038,447.81036 1103.2207,448.33408 1103.7444,448.55096 1184.308,448.55096 1184.8317,448.33408 1185.0486,447.81036 1185.0486,367.24692 1184.8317,366.7232 1184.308,366.50632 Z M0.6347907,458.15933 L0.11108464,458.37622 -0.10579846,458.89993 -0.10579846,539.4634 0.11108464,539.9871 0.6347907,540.204 81.19827,540.204 81.72197,539.9871 81.93886,539.4634 81.93886,458.89993 81.72197,458.37622 81.19827,458.15933 Z M185.57747,458.15933 L185.05376,458.37622 184.83688,458.89993 184.83688,539.4634 185.05376,539.9871 185.57747,540.204 264.50427,540.204 265.02798,539.9871 265.24487,539.4634 265.24487,458.89993 265.02798,458.37622 264.50427,458.15933 Z M368.8835,458.15933 L368.35983,458.37622 368.14294,458.89993 368.14294,539.4634 368.35983,539.9871 368.8835,540.204 449.447,540.204 449.9707,539.9871 450.18756,539.4634 450.18756,458.89993 449.9707,458.37622 449.447,458.15933 Z M460.53656,458.15933 L460.01282,458.37622 459.79596,458.89993 459.79596,539.4634 460.01282,539.9871 460.53656,540.204 541.10004,540.204 541.6237,539.9871 541.8406,539.4634 541.8406,458.89993 541.6237,458.37622 541.10004,458.15933 Z M643.8426,458.15933 L643.3189,458.37622 643.10205,458.89993 643.10205,539.4634 643.319,539.9871 643.84265,540.204 724.4061,540.204 724.9299,539.9871 725.1467,539.4634 725.1467,458.89993 724.9299,458.37622 724.4061,458.15933 Z M827.14874,458.15933 L826.625,458.37622 826.40814,458.89993 826.40814,539.4634 826.625,539.9871 827.14874,540.204 907.71216,540.204 908.23584,539.9871 908.4527,539.4634 908.4527,458.89993 908.23584,458.37622 907.71216,458.15933 Z M920.4383,458.15933 L919.9146,458.37622 919.69775,458.89993 919.69775,539.4634 919.9146,539.9871 920.4383,540.204 999.36523,540.204 999.8889,539.9871 1000.1058,539.4634 1000.1058,458.89993 999.8889,458.37622 999.36523,458.15933 Z M1103.7444,458.15933 L1103.2207,458.37622 1103.0038,458.89993 1103.0038,539.4634 1103.2207,539.9871 1103.7444,540.204 1184.308,540.204 1184.8317,539.9871 1185.0486,539.4634 1185.0486,458.89993 1184.8317,458.37622 1184.308,458.15933 Z M92.28787,549.8124 L91.76417,550.02924 91.54728,550.553 91.54728,631.1164 91.76417,631.64014 92.28787,631.857 172.8513,631.857 173.37502,631.64014 173.59189,631.1164 173.59189,550.553 173.37502,550.02924 172.8513,549.8124 Z M277.23056,549.8124 L276.70685,550.02924 276.48996,550.553 276.48996,631.1164 276.70685,631.64014 277.23056,631.857 357.794,631.857 358.31772,631.64014 358.5346,631.1164 358.5346,550.553 358.31772,550.02924 357.794,549.8124 Z M735.49567,549.8124 L734.972,550.02924 734.7551,550.553 734.7551,631.1164 734.972,631.64014 735.49567,631.857 816.05914,631.857 816.5829,631.64014 816.79974,631.1164 816.79974,550.553 816.5829,550.02924 816.05914,549.8124 Z M1012.0914,549.8124 L1011.5677,550.02924 1011.3508,550.553 1011.3508,631.1164 1011.5677,631.64014 1012.0914,631.857 1092.6549,631.857 1093.1787,631.64014 1093.3955,631.1164 1093.3955,550.553 1093.1787,550.02924 1092.6549,549.8124 Z M185.57751,641.4654 L185.05382,641.68225 184.83693,642.206 184.83693,722.7695 185.05382,723.29315 185.57751,723.51 264.50433,723.51 265.028,723.29315 265.24493,722.7695 265.24493,642.206 265.028,641.68225 264.50433,641.4654 Z M552.18964,641.4654 L551.6659,641.68225 551.44904,642.206 551.44904,722.7695 551.6659,723.29315 552.18964,723.51 632.7531,723.51 633.2768,723.29315 633.4937,722.7695 633.4937,642.206 633.2768,641.68225 632.7531,641.4654 Z M920.4383,641.4654 L919.9146,641.68225 919.69775,642.206 919.69775,722.7695 919.9146,723.29315 920.4383,723.51 999.36523,723.51 999.8889,723.29315 1000.1058,722.7695 1000.1058,642.206 999.8889,641.68225 999.36523,641.4654 Z M277.23056,733.1184 L276.70685,733.33527 276.48996,733.859 276.48996,814.4225 276.70685,814.9462 277.23056,815.1631 357.794,815.1631 358.31772,814.9462 358.5346,814.4225 358.5346,733.859 358.31772,733.33527 357.794,733.1184 Z M827.14874,733.1184 L826.625,733.33527 826.40814,733.859 826.40814,814.4225 826.625,814.9462 827.14874,815.1631 907.71216,815.1631 908.23584,814.9462 908.4527,814.4225 908.4527,733.859 908.23584,733.33527 907.71216,733.1184 Z M368.8835,826.40814 L368.35983,826.625 368.14294,827.14874 368.14294,906.07544 368.35983,906.5992 368.8835,906.81604 449.447,906.81604 449.9707,906.5992 450.18756,906.07544 450.18756,827.14874 449.9707,826.625 449.447,826.40814 Z M460.53656,826.40814 L460.01282,826.625 459.79596,827.14874 459.79596,906.07544 460.01282,906.5992 460.53656,906.81604 541.10004,906.81604 541.6237,906.5992 541.8406,906.07544 541.8406,827.14874 541.6237,826.625 541.10004,826.40814 Z M643.8426,826.40814 L643.3189,826.625 643.10205,827.14874 643.10205,906.07544 643.319,906.5992 643.84265,906.81604 724.4061,906.81604 724.9299,906.5992 725.1467,906.07544 725.1467,827.14874 724.9299,826.625 724.4061,826.40814 Z M735.49567,826.40814 L734.972,826.625 734.7551,827.14874 734.7551,906.07544 734.972,906.5992 735.49567,906.81604 816.05914,906.81604 816.5829,906.5992 816.79974,906.07544 816.79974,827.14874 816.5829,826.625 816.05914,826.40814 Z M460.53656,918.06104 L460.01282,918.2779 459.79596,918.80164 459.79596,999.36523 460.01282,999.8889 460.53656,1000.1058 541.10004,1000.1058 541.6237,999.8889 541.8406,999.36523 541.8406,918.80164 541.6237,918.2779 541.10004,918.06104 Z M552.1896,918.06104 L551.66583,918.2779 551.449,918.80164 551.449,999.36523 551.66583,999.8889 552.1896,1000.1058 632.75305,1000.1058 633.2768,999.8889 633.49365,999.36523 633.49365,918.80164 633.2768,918.2779 632.75305,918.06104 Z M643.8426,918.06104 L643.3189,918.2779 643.10205,918.80164 643.10205,999.36523 643.319,999.8889 643.84265,1000.1058 724.4061,1000.1058 724.9299,999.8889 725.1467,999.36523 725.1467,918.80164 724.9299,918.2779 724.4061,918.06104 Z " />
</g></svg>