<?xml version="1.0" encoding="UTF-8"?>
<!DOCTYPE svg PUBLIC "-//W3C//DTD SVG 1.0//EN" "http://www.w3.org/TR/2001/REC-SVG-20010904/DTD/svg10.dtd">
<svg shape-rendering="geometricPrecision" text-rendering="geometricPrecision" image-rendering="optimizeQuality" fill-rule="evenodd" xml:space="preserve" 
 xmlns="http://www.w3.org/2000/svg" xmlns:xlink="http://www.w3.org/1999/xlink"  viewBox="0 0 1000.2203388884664 1234.129213400185" width="100.02203388884664mm" height="123.41292134001851mm" >
<g><path fill="#000000" d="M156.07506,-0.11017043 L155.52971,0.11567506 155.30386,0.6610226 155.30386,71.552444 155.52971,72.097786 156.07506,72.32363 226.96849,72.32363 227.51382,72.097786 227.73969,71.552444 227.73969,0.6610226 227.51382,0.11567506 226.96849,-0.11017043 Z M233.00008,-0.11017043 L232.45474,0.11567506 232.22888,0.6610226 232.22888,71.552444 232.45474,72.097786 233.00008,72.32363 303.89154,72.32363 304.4369,72.097786 304.66275,71.552444 304.66275,0.6610226 304.4369,0.11567506 303.89154,-0.11017043 Z M309.92316,-0.11017043 L309.37784,0.11567506 309.15198,0.6610226 309.15198,71.552444 309.37784,72.097786 309.92316,72.32363 380.8146,72.32363 381.35995,72.097786 381.58582,71.552444 381.58582,0.6610226 381.35995,0.11567506 380.8146,-0.11017043 Z M388.4161,-0.11017043 L387.87076,0.11567506 387.64493,0.6610226 387.64493,71.552444 387.87076,72.097786 388.4161,72.32363 459.30753,72.32363 459.8529,72.097786 460.0787,71.552444 460.0787,0.6610226 459.8529,0.11567506 459.30753,-0.11017043 Z M465.33914,-0.11017043 L464.79376,0.11567506 464.56796,0.6610226 464.56796,71.552444 464.79376,72.097786 465.33914,72.32363 536.23065,72.32363 536.776,72.097786 537.00183,71.552444 537.00183,0.6610226 536.776,0.11567506 536.23065,-0.11017043 Z M542.2622,-0.11017043 L541.71686,0.11567506 541.491,0.6610226 541.491,71.552444 541.71686,72.097786 542.2622,72.32363 613.1536,72.32363 613.69904,72.097786 613.92487,71.552444 613.92487,0.6610226 613.69904,0.11567506 613.1536,-0.11017043 Z M619.18536,-0.11017043 L618.64,0.11567506 618.4142,0.6610226 618.4142,71.552444 618.64,72.097786 619.18536,72.32363 690.0768,72.32363 690.62213,72.097786 690.84796,71.552444 690.84796,0.6610226 690.62213,0.11567506 690.0768,-0.11017043 Z M697.6783,-0.11017043 L697.13293,0.11567506 696.9071,0.6610226 696.9071,71.552444 697.13293,72.097786 697.6783,72.32363 768.56964,72.32363 769.115,72.097786 769.3408,71.552444 769.3408,0.6610226 769.115,0.11567506 768.56964,-0.11017043 Z M774.6013,-0.11017043 L774.05597,0.11567506 773.83014,0.6610226 773.83014,71.552444 774.05597,72.097786 774.6013,72.32363 845.49274,72.32363 846.03815,72.097786 846.264,71.552444 846.264,0.6610226 846.03815,0.11567506 845.49274,-0.11017043 Z M77.58213,78.38276 L77.03678,78.608604 76.810936,79.15395 76.810936,150.0454 77.03678,150.59074 77.58213,150.81659 148.47556,150.81659 149.0209,150.59074 149.24675,150.0454 149.24675,79.15395 149.0209,78.608604 148.47556,78.38276 Z M851.52435,78.38276 L850.979,78.608604 850.7532,79.15395 850.7532,150.0454 850.979,150.59074 851.52435,150.81659 922.41583,150.81659 922.9612,150.59074 923.187,150.0454 923.187,79.15395 922.9612,78.608604 922.41583,78.38276 Z M0.6610226,155.30585 L0.11567506,155.5317 -0.11017043,156.07704 -0.11017043,226.96849 0.11567506,227.51382 0.6610226,227.73969 71.55443,227.73969 72.09978,227.51382 72.32562,226.96849 72.32562,156.07704 72.09978,155.5317 71.55443,155.30585 Z M156.07506,155.30585 L155.52971,155.5317 155.30386,156.07704 155.30386,226.96849 155.52971,227.51382 156.07506,227.73969 226.96849,227.73969 227.51382,227.51382 227.73969,226.96849 227.73969,156.07704 227.51382,155.5317 226.96849,155.30585 Z M233.00008,155.30585 L232.45474,155.5317 232.22888,156.07704 232.22888,226.96849 232.45474,227.51382 233.00008,227.73969 303.89154,227.73969 304.4369,227.51382 304.66275,226.96849 304.66275,156.07704 304.4369,155.5317 303.89154,155.30585 Z M309.92316,155.30585 L309.37784,155.5317 309.15198,156.07704 309.15198,226.96849 309.37784,227.51382 309.92316,227.73969 380.8146,227.73969 381.35995,227.51382 381.58582,226.96849 381.58582,156.07704 381.35995,155.5317 380.8146,155.30585 Z M619.18536,155.30585 L618.64,155.5317 618.4142,156.07704 618.4142,226.96849 618.64,227.51382 619.18536,227.73969 690.0768,227.73969 690.62213,227.51382 690.84796,226.96849 690.84796,156.07704 690.62213,155.5317 690.0768,155.30585 Z M697.6783,155.30585 L697.13293,155.5317 696.9071,156.07704 696.9071,226.96849 697.13293,227.51382 697.6783,227.73969 768.56964,227.73969 769.115,227.51382 769.3408,226.96849 769.3408,156.07704 769.115,155.5317 768.56964,155.30585 Z M774.6013,155.30585 L774.05597,155.5317 773.83014,156.07704 773.83014,226.96849 774.05597,227.51382 774.6013,227.73969 845.49274,227.73969 846.03815,227.51382 846.264,226.96849 846.264,156.07704 846.03815,155.5317 845.49274,155.30585 Z M928.44745,155.30585 L927.9021,155.5317 927.6763,156.07704 927.6763,226.96849 927.9021,227.51382 928.44745,227.73969 999.339,227.73969 999.88434,227.51382 1000.11017,226.96849 1000.11017,156.07704 999.88434,155.5317 999.339,155.30585 Z M0.6610226,232.22888 L0.11567506,232.45474 -0.11017043,233.00008 -0.11017043,303.8915 0.11567506,304.43683 0.6610226,304.6627 71.55443,304.6627 72.09978,304.43683 72.32562,303.8915 72.32562,233.00008 72.09978,232.45474 71.55443,232.22888 Z M156.07506,232.22888 L155.52971,232.45474 155.30386,233.00008 155.30386,303.8915 155.52971,304.43683 156.07506,304.6627 226.96849,304.6627 227.51382,304.43683 227.73969,303.8915 227.73969,233.00008 227.51382,232.45474 226.96849,232.22888 Z M309.92316,232.22888 L309.37784,232.45474 309.15198,233.00008 309.15198,303.8915 309.37784,304.43683 309.92316,304.6627 380.8146,304.6627 381.35995,304.43683 381.58582,303.8915 381.58582,233.00008 381.35995,232.45474 380.8146,232.22888 Z M388.4161,232.22888 L387.87076,232.45474 387.64493,233.00008 387.64493,303.8915 387.87076,304.43683 388.4161,304.6627 459.30753,304.6627 459.8529,304.43683 460.0787,303.8915 460.0787,233.00008 459.8529,232.45474 459.30753,232.22888 Z M542.2622,232.22888 L541.71686,232.45474 541.491,233.00008 541.491,303.8915 541.71686,304.43683 542.2622,304.6627 613.1536,304.6627 613.69904,304.43683 613.92487,303.8915 613.92487,233.00008 613.69904,232.45474 613.1536,232.22888 Z M697.6783,232.22888 L697.13293,232.45474 696.9071,233.00008 696.9071,303.8915 697.13293,304.43683 697.6783,304.6627 768.56964,304.6627 769.115,304.43683 769.3408,303.8915 769.3408,233.00008 769.115,232.45474 768.56964,232.22888 Z M774.6013,232.22888 L774.05597,232.45474 773.83014,233.00008 773.83014,303.8915 774.05597,304.43683 774.6013,304.6627 845.49274,304.6627 846.03815,304.43683 846.264,303.8915 846.264,233.00008 846.03815,232.45474 845.49274,232.22888 Z M928.44745,232.22888 L927.9021,232.45474 927.6763,233.00008 927.6763,303.8915 927.9021,304.43683 928.44745,304.6627 999.339,304.6627 999.88434,304.43683 1000.11017,303.8915 1000.11017,233.00008 999.88434,232.45474 999.339,232.22888 Z M0.6610226,309.15192 L0.11567506,309.37778 -0.11017043,309.92313 -0.11017043,380.8146 0.11567506,381.35995 0.6610226,381.58582 71.55443,381.58582 72.09978,381.35995 72.32562,380.8146 72.32562,309.92313 72.09978,309.37778 71.55443,309.15192 Z M156.07506,309.15192 L155.52971,309.37778 155.30386,309.92313 155.30386,380.8146 155.52971,381.35995 156.07506,381.58582 226.96849,381.58582 227.51382,381.35995 227.73969,380.8146 227.73969,309.92313 227.51382,309.37778 226.96849,309.15192 Z M233.00008,309.15192 L232.45474,309.37778 232.22888,309.92313 232.22888,380.8146 232.45474,381.35995 233.00008,381.58582 303.89154,381.58582 304.4369,381.35995 304.66275,380.8146 304.66275,309.92313 304.4369,309.37778 303.89154,309.15192 Z M309.92316,309.15192 L309.37784,309.37778 309.15198,309.92313 309.15198,380.8146 309.37784,381.35995 309.92316,381.58582 380.8146,381.58582 381.35995,381.35995 381.58582,380.8146 381.58582,309.92313 381.35995,309.37778 380.8146,309.15192 Z M388.4161,309.15192 L387.87076,309.37778 387.64493,309.92313 387.64493,380.8146 387.87076,381.35995 388.4161,381.58582 459.30753,381.58582 459.8529,381.35995 460.0787,380.8146 460.0787,309.92313 459.8529,309.37778 459.30753,309.15192 Z M542.2622,309.15192 L541.71686,309.37778 541.491,309.92313 541.491,380.8146 541.71686,381.35995 542.2622,381.58582 613.1536,381.58582 613.69904,381.35995 613.92487,380.8146 613.92487,309.92313 613.69904,309.37778 613.1536,309.15192 Z M619.18536,309.15192 L618.64,309.37778 618.4142,309.92313 618.4142,380.8146 618.64,381.35995 619.18536,381.58582 690.0768,381.58582 690.62213,381.35995 690.84796,380.8146 690.84796,309.92313 690.62213,309.37778 690.0768,309.15192 Z M697.6783,309.15192 L697.13293,309.37778 696.9071,309.92313 696.9071,380.8146 697.13293,381.35995 697.6783,381.58582 768.56964,381.58582 769.115,381.35995 769.3408,380.8146 769.3408,309.92313 769.115,309.37778 768.56964,309.15192 Z M774.6013,309.15192 L774.05597,309.37778 773.83014,309.92313 773.83014,380.8146 774.05597,381.35995 774.6013,381.58582 845.49274,381.58582 846.03815,381.35995 846.264,380.8146 846.264,309.92313 846.03815,309.37778 845.49274,309.15192 Z M928.44745,309.15192 L927.9021,309.37778 927.6763,309.92313 927.6763,380.8146 927.9021,381.35995 928.44745,381.58582 999.339,381.58582 999.88434,381.35995 1000.11017,380.8146 1000.11017,309.92313 999.88434,309.37778 999.339,309.15192 Z M0.6610226,387.64487 L0.11567506,387.87073 -0.11017043,388.41605 -0.11017043,459.30753 0.11567506,459.8529 0.6610226,460.0787 71.55443,460.0787 72.09978,459.8529 72.32562,459.30753 72.32562,388.41605 72.09978,387.87073 71.55443,387.64487 Z M156.07506,387.64487 L155.52971,387.87073 155.30386,388.41605 155.30386,459.30753 155.52971,459.8529 156.07506,460.0787 226.96849,460.0787 227.51382,459.8529 227.73969,459.30753 227.73969,388.41605 227.51382,387.87073 226.96849,387.64487 Z M233.00008,387.64487 L232.45474,387.87073 232.22888,388.41605 232.22888,459.30753 232.45474,459.8529 233.00008,460.0787 303.89154,460.0787 304.4369,459.8529 304.66275,459.30753 304.66275,388.41605 304.4369,387.87073 303.89154,387.64487 Z M309.92316,387.64487 L309.37784,387.87073 309.15198,388.41605 309.15198,459.30753 309.37784,459.8529 309.92316,460.0787 380.8146,460.0787 381.35995,459.8529 381.58582,459.30753 381.58582,388.41605 381.35995,387.87073 380.8146,387.64487 Z M388.4161,387.64487 L387.87076,387.87073 387.64493,388.41605 387.64493,459.30753 387.87076,459.8529 388.4161,460.0787 459.30753,460.0787 459.8529,459.8529 460.0787,459.30753 460.0787,388.41605 459.8529,387.87073 459.30753,387.64487 Z M542.2622,387.64487 L541.71686,387.87073 541.491,388.41605 541.491,459.30753 541.71686,459.8529 542.2622,460.0787 613.1536,460.0787 613.69904,459.8529 613.92487,459.30753 613.92487,388.41605 613.69904,387.87073 613.1536,387.64487 Z M619.18536,387.64487 L618.64,387.87073 618.4142,388.41605 618.4142,459.30753 618.64,459.8529 619.18536,460.0787 690.0768,460.0787 690.62213,459.8529 690.84796,459.30753 690.84796,388.41605 690.62213,387.87073 690.0768,387.64487 Z M697.6783,387.64487 L697.13293,387.87073 696.9071,388.41605 696.9071,459.30753 697.13293,459.8529 697.6783,460.0787 768.56964,460.0787 769.115,459.8529 769.3408,459.30753 769.3408,388.41605 769.115,387.87073 768.56964,387.64487 Z M774.6013,387.64487 L774.05597,387.87073 773.83014,388.41605 773.83014,459.30753 774.05597,459.8529 774.6013,460.0787 845.49274,460.0787 846.03815,459.8529 846.264,459.30753 846.264,388.41605 846.03815,387.87073 845.49274,387.64487 Z M928.44745,387.64487 L927.9021,387.87073 927.6763,388.41605 927.6763,459.30753 927.9021,459.8529 928.44745,460.0787 999.339,460.0787 999.88434,459.8529 1000.11017,459.30753 1000.11017,388.41605 999.88434,387.87073 999.339,387.64487 Z M0.6610226,464.568 L0.11567506,464.79382 -0.11017043,465.3392 -0.11017043,536.2305 0.11567506,536.7759 0.6610226,537.0017 71.55443,537.0017 72.09978,536.7759 72.32562,536.2305 72.32562,465.3392 72.09978,464.79382 71.55443,464.568 Z M233.00008,464.568 L232.45474,464.79382 232.22888,465.3392 232.22888,536.2305 232.45474,536.7759 233.00008,537.0017 303.89154,537.0017 304.4369,536.7759 304.66275,536.2305 304.66275,465.3392 304.4369,464.79382 303.89154,464.568 Z M309.92316,464.568 L309.37784,464.79382 309.15198,465.3392 309.15198,536.2305 309.37784,536.7759 309.92316,537.0017 380.8146,537.0017 381.35995,536.7759 381.58582,536.2305 381.58582,465.3392 381.35995,464.79382 380.8146,464.568 Z M388.4161,464.568 L387.87076,464.79382 387.64493,465.3392 387.64493,536.2305 387.87076,536.7759 388.4161,537.0017 459.30753,537.0017 459.8529,536.7759 460.0787,536.2305 460.0787,465.3392 459.8529,464.79382 459.30753,464.568 Z M542.2622,464.568 L541.71686,464.79382 541.491,465.3392 541.491,536.2305 541.71686,536.7759 542.2622,537.0017 613.1536,537.0017 613.69904,536.7759 613.92487,536.2305 613.92487,465.3392 613.69904,464.79382 613.1536,464.568 Z M619.18536,464.568 L618.64,464.79382 618.4142,465.3392 618.4142,536.2305 618.64,536.7759 619.18536,537.0017 690.0768,537.0017 690.62213,536.7759 690.84796,536.2305 690.84796,465.3392 690.62213,464.79382 690.0768,464.568 Z M697.6783,464.568 L697.13293,464.79382 696.9071,465.3392 696.9071,536.2305 697.13293,536.7759 697.6783,537.0017 768.56964,537.0017 769.115,536.7759 769.3408,536.2305 769.3408,465.3392 769.115,464.79382 768.56964,464.568 Z M928.44745,464.568 L927.9021,464.79382 927.6763,465.3392 927.6763,536.2305 927.9021,536.7759 928.44745,537.0017 999.339,537.0017 999.88434,536.7759 1000.11017,536.2305 1000.11017,465.3392 999.88434,464.79382 999.339,464.568 Z M0.6610226,541.4911 L0.11567506,541.7169 -0.11017043,542.26227 -0.11017043,613.1536 0.11567506,613.69904 0.6610226,613.92487 71.55443,613.92487 72.09978,613.69904 72.32562,613.1536 72.32562,542.26227 72.09978,541.7169 71.55443,541.4911 Z M156.07506,541.4911 L155.52971,541.7169 155.30386,542.26227 155.30386,613.1536 155.52971,613.69904 156.07506,613.92487 226.96849,613.92487 227.51382,613.69904 227.73969,613.1536 227.73969,542.26227 227.51382,541.7169 226.96849,541.4911 Z M774.6013,541.4911 L774.05597,541.7169 773.83014,542.26227 773.83014,613.1536 774.05597,613.69904 774.6013,613.92487 845.49274,613.92487 846.03815,613.69904 846.264,613.1536 846.264,542.26227 846.03815,541.7169 845.49274,541.4911 Z M928.44745,541.4911 L927.9021,541.7169 927.6763,542.26227 927.6763,613.1536 927.9021,613.69904 928.44745,613.92487 999.339,613.92487 999.88434,613.69904 1000.11017,613.1536 1000.11017,542.26227 999.88434,541.7169 999.339,541.4911 Z M0.6610226,619.984 L0.11567506,620.20984 -0.11017043,620.7552 -0.11017043,691.64667 0.11567506,692.192 0.6610226,692.41785 71.55443,692.41785 72.09978,692.192 72.32562,691.64667 72.32562,620.7552 72.09978,620.20984 71.55443,619.984 Z M233.00008,619.984 L232.45474,620.20984 232.22888,620.7552 232.22888,691.64667 232.45474,692.192 233.00008,692.41785 303.89154,692.41785 304.4369,692.192 304.66275,691.64667 304.66275,620.7552 304.4369,620.20984 303.89154,619.984 Z M309.92316,619.984 L309.37784,620.20984 309.15198,620.7552 309.15198,691.64667 309.37784,692.192 309.92316,692.41785 380.8146,692.41785 381.35995,692.192 381.58582,691.64667 381.58582,620.7552 381.35995,620.20984 380.8146,619.984 Z M388.4161,619.984 L387.87076,620.20984 387.64493,620.7552 387.64493,691.64667 387.87076,692.192 388.4161,692.41785 459.30753,692.41785 459.8529,692.192 460.0787,691.64667 460.0787,620.7552 459.8529,620.20984 459.30753,619.984 Z M465.33914,619.984 L464.79376,620.20984 464.56796,620.7552 464.56796,691.64667 464.79376,692.192 465.33914,692.41785 536.23065,692.41785 536.776,692.192 537.00183,691.64667 537.00183,620.7552 536.776,620.20984 536.23065,619.984 Z M542.2622,619.984 L541.71686,620.20984 541.491,620.7552 541.491,691.64667 541.71686,692.192 542.2622,692.41785 613.1536,692.41785 613.69904,692.192 613.92487,691.64667 613.92487,620.7552 613.69904,620.20984 613.1536,619.984 Z M619.18536,619.984 L618.64,620.20984 618.4142,620.7552 618.4142,691.64667 618.64,692.192 619.18536,692.41785 690.0768,692.41785 690.62213,692.192 690.84796,691.64667 690.84796,620.7552 690.62213,620.20984 690.0768,619.984 Z M697.6783,619.984 L697.13293,620.20984 696.9071,620.7552 696.9071,691.64667 697.13293,692.192 697.6783,692.41785 768.56964,692.41785 769.115,692.192 769.3408,691.64667 769.3408,620.7552 769.115,620.20984 768.56964,619.984 Z M928.44745,619.984 L927.9021,620.20984 927.6763,620.7552 927.6763,691.64667 927.9021,692.192 928.44745,692.41785 999.339,692.41785 999.88434,692.192 1000.11017,691.64667 1000.11017,620.7552 999.88434,620.20984 999.339,619.984 Z M77.58213,696.907 L77.03678,697.13275 76.810936,697.67816 76.810936,768.56964 77.03678,769.115 77.58213,769.3408 148.47556,769.3408 149.0209,769.115 149.24675,768.56964 149.24675,697.67816 149.0209,697.13275 148.47556,696.907 Z M309.92316,696.907 L309.37784,697.13275 309.15198,697.67816 309.15198,768.56964 309.37784,769.115 309.92316,769.3408 380.8146,769.3408 381.35995,769.115 381.58582,768.56964 381.58582,697.67816 381.35995,697.13275 380.8146,696.907 Z M388.4161,696.907 L387.87076,697.13275 387.64493,697.67816 387.64493,768.56964 387.87076,769.115 388.4161,769.3408 459.30753,769.3408 459.8529,769.115 460.0787,768.56964 460.0787,697.67816 459.8529,697.13275 459.30753,696.907 Z M465.33914,696.907 L464.79376,697.13275 464.56796,697.67816 464.56796,768.56964 464.79376,769.115 465.33914,769.3408 536.23065,769.3408 536.776,769.115 537.00183,768.56964 537.00183,697.67816 536.776,697.13275 536.23065,696.907 Z M542.2622,696.907 L541.71686,697.13275 541.491,697.67816 541.491,768.56964 541.71686,769.115 542.2622,769.3408 613.1536,769.3408 613.69904,769.115 613.92487,768.56964 613.92487,697.67816 613.69904,697.13275 613.1536,696.907 Z M619.18536,696.907 L618.64,697.13275 618.4142,697.67816 618.4142,768.56964 618.64,769.115 619.18536,769.3408 690.0768,769.3408 690.62213,769.115 690.84796,768.56964 690.84796,697.67816 690.62213,697.13275 690.0768,696.907 Z M851.52435,696.907 L850.979,697.13275 850.7532,697.67816 850.7532,768.56964 850.979,769.115 851.52435,769.3408 922.41583,769.3408 922.9612,769.115 923.187,768.56964 923.187,697.67816 922.9612,697.13275 922.41583,696.907 Z M156.07506,773.83014 L155.52971,774.05597 155.30386,774.6013 155.30386,845.49274 155.52971,846.03815 156.07506,846.264 226.96849,846.264 227.51382,846.03815 227.73969,845.49274 227.73969,774.6013 227.51382,774.05597 226.96849,773.83014 Z M388.4161,773.83014 L387.87076,774.05597 387.64493,774.6013 387.64493,845.49274 387.87076,846.03815 388.4161,846.264 459.30753,846.264 459.8529,846.03815 460.0787,845.49274 460.0787,774.6013 459.8529,774.05597 459.30753,773.83014 Z M465.33914,773.83014 L464.79376,774.05597 464.56796,774.6013 464.56796,845.49274 464.79376,846.03815 465.33914,846.264 536.23065,846.264 536.776,846.03815 537.00183,845.49274 537.00183,774.6013 536.776,774.05597 536.23065,773.83014 Z M542.2622,773.83014 L541.71686,774.05597 541.491,774.6013 541.491,845.49274 541.71686,846.03815 542.2622,846.264 613.1536,846.264 613.69904,846.03815 613.92487,845.49274 613.92487,774.6013 613.69904,774.05597 613.1536,773.83014 Z M774.6013,773.83014 L774.05597,774.05597 773.83014,774.6013 773.83014,845.49274 774.05597,846.03815 774.6013,846.264 845.49274,846.264 846.03815,846.03815 846.264,845.49274 846.264,774.6013 846.03815,774.05597 845.49274,773.83014 Z M233.00008,850.75323 L232.45474,850.97906 232.22888,851.5244 232.22888,922.4157 232.45474,922.96106 233.00008,923.1869 303.89154,923.1869 304.4369,922.96106 304.66275,922.4157 304.66275,851.5244 304.4369,850.97906 303.89154,850.75323 Z M309.92316,850.75323 L309.37784,850.97906 309.15198,851.5244 309.15198,922.4157 309.37784,922.96106 309.92316,923.1869 380.8146,923.1869 381.35995,922.96106 381.58582,922.4157 381.58582,851.5244 381.35995,850.97906 380.8146,850.75323 Z M619.18536,850.75323 L618.64,850.97906 618.4142,851.5244 618.4142,922.4157 618.64,922.96106 619.18536,923.1869 690.0768,923.1869 690.62213,922.96106 690.84796,922.4157 690.84796,851.5244 690.62213,850.97906 690.0768,850.75323 Z M697.6783,850.75323 L697.13293,850.97906 696.9071,851.5244 696.9071,922.4157 697.13293,922.96106 697.6783,923.1869 768.56964,923.1869 769.115,922.96106 769.3408,922.4157 769.3408,851.5244 769.115,850.97906 768.56964,850.75323 Z M156.07506,929.24615 L155.52971,929.472 155.30386,930.0174 155.30386,1000.9087 155.52971,1001.45404 156.07506,1001.6799 226.96849,1001.6799 227.51382,1001.45404 227.73969,1000.9087 227.73969,930.0174 227.51382,929.472 226.96849,929.24615 Z M233.00008,929.24615 L232.45474,929.472 232.22888,930.0174 232.22888,1000.9087 232.45474,1001.45404 233.00008,1001.6799 303.89154,1001.6799 304.4369,1001.45404 304.66275,1000.9087 304.66275,930.0174 304.4369,929.472 303.89154,929.24615 Z M388.4161,929.24615 L387.87076,929.472 387.64493,930.0174 387.64493,1000.9087 387.87076,1001.45404 388.4161,1001.6799 459.30753,1001.6799 459.8529,1001.45404 460.0787,1000.9087 460.0787,930.0174 459.8529,929.472 459.30753,929.24615 Z M465.33914,929.24615 L464.79376,929.472 464.56796,930.0174 464.56796,1000.9087 464.79376,1001.45404 465.33914,1001.6799 536.23065,1001.6799 536.776,1001.45404 537.00183,1000.9087 537.00183,930.0174 536.776,929.472 536.23065,929.24615 Z M542.2622,929.24615 L541.71686,929.472 541.491,930.0174 541.491,1000.9087 541.71686,1001.45404 542.2622,1001.6799 613.1536,1001.6799 613.69904,1001.45404 613.92487,1000.9087 613.92487,930.0174 613.69904,929.472 613.1536,929.24615 Z M697.6783,929.24615 L697.13293,929.472 696.9071,930.0174 696.9071,1000.9087 697.13293,1001.45404 697.6783,1001.6799 768.56964,1001.6799 769.115,1001.45404 769.3408,1000.9087 769.3408,930.0174 769.115,929.472 768.56964,929.24615 Z M774.6013,929.24615 L774.05597,929.472 773.83014,930.0174 773.83014,1000.9087 774.05597,1001.45404 774.6013,1001.6799 845.49274,1001.6799 846.03815,1001.45404 846.264,1000.9087 846.264,930.0174 846.03815,929.472 845.49274,929.24615 Z M0.6610226,1006.1691 L0.11567506,1006.39496 -0.11017043,1006.9403 -0.11017043,1077.8339 0.11567506,1078.3792 0.6610226,1078.605 71.55443,1078.605 72.09978,1078.3792 72.32562,1077.8339 72.32562,1006.9403 72.09978,1006.39496 71.55443,1006.1691 Z M77.58213,1006.1691 L77.03678,1006.39496 76.810936,1006.9403 76.810936,1077.8339 77.03678,1078.3792 77.58213,1078.605 148.47556,1078.605 149.0209,1078.3792 149.24675,1077.8339 149.24675,1006.9403 149.0209,1006.39496 148.47556,1006.1691 Z M156.07506,1006.1691 L155.52971,1006.39496 155.30386,1006.9403 155.30386,1077.8339 155.52971,1078.3792 156.07506,1078.605 226.96849,1078.605 227.51382,1078.3792 227.73969,1077.8339 227.73969,1006.9403 227.51382,1006.39496 226.96849,1006.1691 Z M309.92316,1006.1691 L309.37784,1006.39496 309.15198,1006.9403 309.15198,1077.8339 309.37784,1078.3792 309.92316,1078.605 380.8146,1078.605 381.35995,1078.3792 381.58582,1077.8339 381.58582,1006.9403 381.35995,1006.39496 380.8146,1006.1691 Z M619.18536,1006.1691 L618.64,1006.39496 618.4142,1006.9403 618.4142,1077.8339 618.64,1078.3792 619.18536,1078.605 690.0768,1078.605 690.62213,1078.3792 690.84796,1077.8339 690.84796,1006.9403 690.62213,1006.39496 690.0768,1006.1691 Z M774.6013,1006.1691 L774.05597,1006.39496 773.83014,1006.9403 773.83014,1077.8339 774.05597,1078.3792 774.6013,1078.605 845.49274,1078.605 846.03815,1078.3792 846.264,1077.8339 846.264,1006.9403 846.03815,1006.39496 845.49274,1006.1691 Z M851.52435,1006.1691 L850.979,1006.39496 850.7532,1006.9403 850.7532,1077.8339 850.979,1078.3792 851.52435,1078.605 922.41583,1078.605 922.9612,1078.3792 923.187,1077.8339 923.187,1006.9403 922.9612,1006.39496 922.41583,1006.1691 Z M928.44745,1006.1691 L927.9021,1006.39496 927.6763,1006.9403 927.6763,1077.8339 927.9021,1078.3792 928.44745,1078.605 999.339,1078.605 999.88434,1078.3792 1000.11017,1077.8339 1000.11017,1006.9403 999.88434,1006.39496 999.339,1006.1691 Z M309.92316,1083.0903 L309.37784,1083.3162 309.15198,1083.8616 309.15198,1154.7549 309.37784,1155.3003 309.92316,1155.5261 380.8146,1155.5261 381.35995,1155.3003 381.58582,1154.7549 381.58582,1083.8616 381.35995,1083.3162 380.8146,1083.0903 Z M465.33914,1083.0903 L464.79376,1083.3162 464.56796,1083.8616 464.56796,1154.7549 464.79376,1155.3003 465.33914,1155.5261 536.23065,1155.5261 536.776,1155.3003 537.00183,1154.7549 537.00183,1083.8616 536.776,1083.3162 536.23065,1083.0903 Z M619.18536,1083.0903 L618.64,1083.3162 618.4142,1083.8616 618.4142,1154.7549 618.64,1155.3003 619.18536,1155.5261 690.0768,1155.5261 690.62213,1155.3003 690.84796,1154.7549 690.84796,1083.8616 690.62213,1083.3162 690.0768,1083.0903 Z M309.92316,1161.5831 L309.37784,1161.809 309.15198,1162.3544 309.15198,1233.2478 309.37784,1233.7932 309.92316,1234.019 380.8146,1234.019 381.35995,1233.7932 381.58582,1233.2478 381.58582,1162.3544 381.35995,1161.809 380.8146,1161.5831 Z M388.4161,1161.5831 L387.87076,1161.809 387.64493,1162.3544 387.64493,1233.2478 387.87076,1233.7932 388.4161,1234.019 459.30753,1234.019 459.8529,1233.7932 460.0787,1233.2478 460.0787,1162.3544 459.8529,1161.809 459.30753,1161.5831 Z M542.2622,1161.5831 L541.71686,1161.809 541.491,1162.3544 541.491,1233.2478 541.71686,1233.7932 542.2622,1234.019 613.1536,1234.019 613.69904,1233.7932 613.92487,1233.2478 613.92487,1162.3544 613.69904,1161.809 613.1536,1161.5831 Z M619.18536,1161.5831 L618.64,1161.809 618.4142,1162.3544 618.4142,1233.2478 618.64,1233.7932 619.18536,1234.019 690.0768,1234.019 690.62213,1233.7932 690.84796,1233.2478 690.84796,1162.3544 690.62213,1161.809 690.0768,1161.5831 Z " />
</g></svg>