<?xml version="1.0" encoding="UTF-8"?>
<!DOCTYPE svg PUBLIC "-//W3C//DTD SVG 1.0//EN" "http://www.w3.org/TR/2001/REC-SVG-20010904/DTD/svg10.dtd">
<svg shape-rendering="geometricPrecision" text-rendering="geometricPrecision" image-rendering="optimizeQuality" fill-rule="evenodd" xml:space="preserve" 
 xmlns="http://www.w3.org/2000/svg" xmlns:xlink="http://www.w3.org/1999/xlink"  viewBox="0 0 1253.388501033187 1000.2238281816244" width="125.33885010331869mm" height="100.02238281816244mm" >
<g><path fill="#000000" d="M0.6713382,-0.111889705 L0.11748023,0.11748023 -0.111889705,0.6713382 -0.111889705,73.69577 0.11748023,74.249626 0.6713382,74.479 73.69576,74.479 74.24962,74.249626 74.47899,73.69577 74.47899,0.6713382 74.24962,0.11748023 73.69576,-0.111889705 Z M84.53211,-0.111889705 L83.97826,0.11748023 83.748886,0.6713382 83.748886,73.69577 83.97826,74.249626 84.53211,74.479 157.55652,74.479 158.11038,74.249626 158.33975,73.69577 158.33975,0.6713382 158.11038,0.11748023 157.55652,-0.111889705 Z M168.39287,-0.111889705 L167.839,0.11748023 167.60965,0.6713382 167.60965,73.69577 167.839,74.249626 168.39287,74.479 242.99957,74.479 243.55342,74.249626 243.7828,73.69577 243.7828,0.6713382 243.55342,0.11748023 242.99957,-0.111889705 Z M252.25365,-0.111889705 L251.6998,0.11748023 251.47041,0.6713382 251.47041,73.69577 251.6998,74.249626 252.25365,74.479 326.86035,74.479 327.41418,74.249626 327.64355,73.69577 327.64355,0.6713382 327.41418,0.11748023 326.86035,-0.111889705 Z M337.6967,-0.111889705 L337.14282,0.11748023 336.91345,0.6713382 336.91345,73.69577 337.14282,74.249626 337.6967,74.479 410.72113,74.479 411.27496,74.249626 411.50436,73.69577 411.50436,0.6713382 411.27496,0.11748023 410.72113,-0.111889705 Z M421.55743,-0.111889705 L421.0036,0.11748023 420.7742,0.6713382 420.7742,73.69577 421.0036,74.249626 421.55743,74.479 494.58188,74.479 495.13577,74.249626 495.3651,73.69577 495.3651,0.6713382 495.13577,0.11748023 494.58188,-0.111889705 Z M505.41818,-0.111889705 L504.86432,0.11748023 504.63498,0.6713382 504.63498,73.69577 504.86432,74.249626 505.41818,74.479 578.4427,74.479 578.9965,74.249626 579.2259,73.69577 579.2259,0.6713382 578.9965,0.11748023 578.4427,-0.111889705 Z M589.279,-0.111889705 L588.7251,0.11748023 588.4957,0.6713382 588.4957,73.69577 588.7251,74.249626 589.279,74.479 663.8857,74.479 664.4396,74.249626 664.66895,73.69577 664.66895,0.6713382 664.4396,0.11748023 663.8857,-0.111889705 Z M673.1398,-0.111889705 L672.5859,0.11748023 672.35657,0.6713382 672.35657,73.69577 672.5859,74.249626 673.1398,74.479 747.74646,74.479 748.30035,74.249626 748.5297,73.69577 748.5297,0.6713382 748.30035,0.11748023 747.74646,-0.111889705 Z M758.5828,-0.111889705 L758.02893,0.11748023 757.79956,0.6713382 757.79956,73.69577 758.02893,74.249626 758.5828,74.479 831.60724,74.479 832.1611,74.249626 832.39044,73.69577 832.39044,0.6713382 832.1611,0.11748023 831.60724,-0.111889705 Z M842.4436,-0.111889705 L841.8897,0.11748023 841.66034,0.6713382 841.66034,73.69577 841.8897,74.249626 842.4436,74.479 915.4681,74.479 916.0219,74.249626 916.2513,73.69577 916.2513,0.6713382 916.0219,0.11748023 915.4681,-0.111889705 Z M926.3044,-0.111889705 L925.7505,0.11748023 925.5211,0.6713382 925.5211,73.69577 925.7505,74.249626 926.3044,74.479 999.3288,74.479 999.8827,74.249626 1000.112,73.69577 1000.112,0.6713382 999.8827,0.11748023 999.3288,-0.111889705 Z M1010.16504,-0.111889705 L1009.6112,0.11748023 1009.38184,0.6713382 1009.38184,73.69577 1009.6112,74.249626 1010.16504,74.479 1084.7717,74.479 1085.3257,74.249626 1085.555,73.69577 1085.555,0.6713382 1085.3257,0.11748023 1084.7717,-0.111889705 Z M1094.026,-0.111889705 L1093.472,0.11748023 1093.2427,0.6713382 1093.2427,73.69577 1093.472,74.249626 1094.026,74.479 1168.6327,74.479 1169.1865,74.249626 1169.4159,73.69577 1169.4159,0.6713382 1169.1865,0.11748023 1168.6327,-0.111889705 Z M1179.4689,-0.111889705 L1178.915,0.11748023 1178.6857,0.6713382 1178.6857,73.69577 1178.915,74.249626 1179.4689,74.479 1252.4933,74.479 1253.0472,74.249626 1253.2766,73.69577 1253.2766,0.6713382 1253.0472,0.11748023 1252.4933,-0.111889705 Z M0.6713382,83.74888 L0.11748023,83.97825 -0.111889705,84.532104 -0.111889705,157.55652 0.11748023,158.11038 0.6713382,158.33975 73.69576,158.33975 74.24962,158.11038 74.47899,157.55652 74.47899,84.532104 74.24962,83.97825 73.69576,83.74888 Z M1179.4689,83.74888 L1178.915,83.97825 1178.6857,84.532104 1178.6857,157.55652 1178.915,158.11038 1179.4689,158.33975 1252.4933,158.33975 1253.0472,158.11038 1253.2766,157.55652 1253.2766,84.532104 1253.0472,83.97825 1252.4933,83.74888 Z M0.6713382,167.60965 L0.11748023,167.839 -0.111889705,168.39287 -0.111889705,241.41731 0.11748023,241.97116 0.6713382,242.20053 73.69576,242.20053 74.24962,241.97116 74.47899,241.41731 74.47899,168.39287 74.24962,167.839 73.69576,167.60965 Z M749.0892,167.60965 L748.5353,167.839 748.3059,168.39287 748.3059,241.41731 748.5353,241.97116 749.0892,242.20053 822.1135,242.20053 822.6674,241.97116 822.8968,241.41731 822.8968,168.39287 822.6674,167.839 822.1135,167.60965 Z M926.3044,167.60965 L925.7505,167.839 925.5211,168.39287 925.5211,241.41731 925.7505,241.97116 926.3044,242.20053 999.3288,242.20053 999.8827,241.97116 1000.112,241.41731 1000.112,168.39287 999.8827,167.839 999.3288,167.60965 Z M1179.4689,167.60965 L1178.915,167.839 1178.6857,168.39287 1178.6857,241.41731 1178.915,241.97116 1179.4689,242.20053 1252.4933,242.20053 1253.0472,241.97116 1253.2766,241.41731 1253.2766,168.39287 1253.0472,167.839 1252.4933,167.60965 Z M0.6713382,251.47041 L0.11748023,251.6998 -0.111889705,252.25365 -0.111889705,326.86035 0.11748023,327.4142 0.6713382,327.6436 73.69576,327.6436 74.24962,327.4142 74.47899,326.86035 74.47899,252.25365 74.24962,251.6998 73.69576,251.47041 Z M589.279,251.47041 L588.7251,251.6998 588.4957,252.25365 588.4957,326.86035 588.7251,327.4142 589.279,327.6436 663.8857,327.6436 664.4396,327.4142 664.66895,326.86035 664.66895,252.25365 664.4396,251.6998 663.8857,251.47041 Z M1179.4689,251.47041 L1178.915,251.6998 1178.6857,252.25365 1178.6857,326.86035 1178.915,327.4142 1179.4689,327.6436 1252.4933,327.6436 1253.0472,327.4142 1253.2766,326.86035 1253.2766,252.25365 1253.0472,251.6998 1252.4933,251.47041 Z M0.6713382,336.91345 L0.11748023,337.14282 -0.111889705,337.6967 -0.111889705,410.72113 0.11748023,411.27496 0.6713382,411.50436 73.69576,411.50436 74.24962,411.27496 74.47899,410.72113 74.47899,337.6967 74.24962,337.14282 73.69576,336.91345 Z M1179.4689,336.91345 L1178.915,337.14282 1178.6857,337.6967 1178.6857,410.72113 1178.915,411.27496 1179.4689,411.50436 1252.4933,411.50436 1253.0472,411.27496 1253.2766,410.72113 1253.2766,337.6967 1253.0472,337.14282 1252.4933,336.91345 Z M0.6713382,420.77423 L0.11748023,421.0036 -0.111889705,421.55746 -0.111889705,494.58182 0.11748023,495.1357 0.6713382,495.36505 73.69576,495.36505 74.24962,495.1357 74.47899,494.58182 74.47899,421.55746 74.24962,421.0036 73.69576,420.77423 Z M505.41818,420.77423 L504.86432,421.0036 504.63498,421.55746 504.63498,494.58182 504.86432,495.1357 505.41818,495.36505 578.4427,495.36505 578.9965,495.1357 579.2259,494.58182 579.2259,421.55746 578.9965,421.0036 578.4427,420.77423 Z M1179.4689,420.77423 L1178.915,421.0036 1178.6857,421.55746 1178.6857,494.58182 1178.915,495.1357 1179.4689,495.36505 1252.4933,495.36505 1253.0472,495.1357 1253.2766,494.58182 1253.2766,421.55746 1253.0472,421.0036 1252.4933,420.77423 Z M692.1271,430.2679 L691.57324,430.4973 691.3439,431.05115 691.3439,504.07556 691.57324,504.62946 692.1271,504.8588 766.7338,504.8588 767.28766,504.62946 767.517,504.07556 767.517,431.05115 767.28766,430.4973 766.7338,430.2679 Z M0.6713382,504.635 L0.11748023,504.86438 -0.111889705,505.41824 -0.111889705,578.4426 0.11748023,578.9965 0.6713382,579.2258 73.69576,579.2258 74.24962,578.9965 74.47899,578.4426 74.47899,505.41824 74.24962,504.86438 73.69576,504.635 Z M1179.4689,504.635 L1178.915,504.86438 1178.6857,505.41824 1178.6857,578.4426 1178.915,578.9965 1179.4689,579.2258 1252.4933,579.2258 1253.0472,578.9965 1253.2766,578.4426 1253.2766,505.41824 1253.0472,504.86438 1252.4933,504.635 Z M608.26636,523.6223 L607.71246,523.8517 607.48315,524.4056 607.48315,597.43 607.71246,597.9839 608.26636,598.2132 681.2907,598.2132 681.8446,597.9839 682.074,597.43 682.074,524.4056 681.8446,523.8517 681.2907,523.6223 Z M0.6713382,588.4958 L0.11748023,588.72516 -0.111889705,589.27905 -0.111889705,662.3034 0.11748023,662.8573 0.6713382,663.0866 73.69576,663.0866 74.24962,662.8573 74.47899,662.3034 74.47899,589.27905 74.24962,588.72516 73.69576,588.4958 Z M1179.4689,588.4958 L1178.915,588.72516 1178.6857,589.27905 1178.6857,662.3034 1178.915,662.8573 1179.4689,663.0866 1252.4933,663.0866 1253.0472,662.8573 1253.2766,662.3034 1253.2766,589.27905 1253.0472,588.72516 1252.4933,588.4958 Z M0.6713382,672.35657 L0.11748023,672.5859 -0.111889705,673.1398 -0.111889705,746.1641 0.11748023,746.718 0.6713382,746.9474 73.69576,746.9474 74.24962,746.718 74.47899,746.1641 74.47899,673.1398 74.24962,672.5859 73.69576,672.35657 Z M1179.4689,672.35657 L1178.915,672.5859 1178.6857,673.1398 1178.6857,746.1641 1178.915,746.718 1179.4689,746.9474 1252.4933,746.9474 1253.0472,746.718 1253.2766,746.1641 1253.2766,673.1398 1253.0472,672.5859 1252.4933,672.35657 Z M0.6713382,756.2173 L0.11748023,756.44666 -0.111889705,757.0005 -0.111889705,831.6072 0.11748023,832.1611 0.6713382,832.3904 73.69576,832.3904 74.24962,832.1611 74.47899,831.6072 74.47899,757.0005 74.24962,756.44666 73.69576,756.2173 Z M1179.4689,756.2173 L1178.915,756.44666 1178.6857,757.0005 1178.6857,831.6072 1178.915,832.1611 1179.4689,832.3904 1252.4933,832.3904 1253.0472,832.1611 1253.2766,831.6072 1253.2766,757.0005 1253.0472,756.44666 1252.4933,756.2173 Z M0.6713382,840.078 L0.11748023,840.3074 -0.111889705,840.8612 -0.111889705,915.46796 0.11748023,916.02185 0.6713382,916.25116 73.69576,916.25116 74.24962,916.02185 74.47899,915.46796 74.47899,840.8612 74.24962,840.3074 73.69576,840.078 Z M1179.4689,840.078 L1178.915,840.3074 1178.6857,840.8612 1178.6857,915.46796 1178.915,916.02185 1179.4689,916.25116 1252.4933,916.25116 1253.0472,916.02185 1253.2766,915.46796 1253.2766,840.8612 1253.0472,840.3074 1252.4933,840.078 Z M0.6713382,925.52106 L0.11748023,925.75037 -0.111889705,926.30426 -0.111889705,999.3287 0.11748023,999.88257 0.6713382,1000.11194 73.69576,1000.11194 74.24962,999.88257 74.47899,999.3287 74.47899,926.30426 74.24962,925.75037 73.69576,925.52106 Z M84.53211,925.52106 L83.97826,925.75037 83.748886,926.30426 83.748886,999.3287 83.97826,999.88257 84.53211,1000.11194 157.55652,1000.11194 158.11038,999.88257 158.33975,999.3287 158.33975,926.30426 158.11038,925.75037 157.55652,925.52106 Z M168.39287,925.52106 L167.839,925.75037 167.60965,926.30426 167.60965,999.3287 167.839,999.88257 168.39287,1000.11194 242.99957,1000.11194 243.55342,999.88257 243.7828,999.3287 243.7828,926.30426 243.55342,925.75037 242.99957,925.52106 Z M252.25365,925.52106 L251.6998,925.75037 251.47041,926.30426 251.47041,999.3287 251.6998,999.88257 252.25365,1000.11194 326.86035,1000.11194 327.41418,999.88257 327.64355,999.3287 327.64355,926.30426 327.41418,925.75037 326.86035,925.52106 Z M337.6967,925.52106 L337.14282,925.75037 336.91345,926.30426 336.91345,999.3287 337.14282,999.88257 337.6967,1000.11194 410.72113,1000.11194 411.27496,999.88257 411.50436,999.3287 411.50436,926.30426 411.27496,925.75037 410.72113,925.52106 Z M421.55743,925.52106 L421.0036,925.75037 420.7742,926.30426 420.7742,999.3287 421.0036,999.88257 421.55743,1000.11194 494.58188,1000.11194 495.13577,999.88257 495.3651,999.3287 495.3651,926.30426 495.13577,925.75037 494.58188,925.52106 Z M505.41818,925.52106 L504.86432,925.75037 504.63498,926.30426 504.63498,999.3287 504.86432,999.88257 505.41818,1000.11194 578.4427,1000.11194 578.9965,999.88257 579.2259,999.3287 579.2259,926.30426 578.9965,925.75037 578.4427,925.52106 Z M589.279,925.52106 L588.7251,925.75037 588.4957,926.30426 588.4957,999.3287 588.7251,999.88257 589.279,1000.11194 663.8857,1000.11194 664.4396,999.88257 664.66895,999.3287 664.66895,926.30426 664.4396,925.75037 663.8857,925.52106 Z M673.1398,925.52106 L672.5859,925.75037 672.35657,926.30426 672.35657,999.3287 672.5859,999.88257 673.1398,1000.11194 747.74646,1000.11194 748.30035,999.88257 748.5297,999.3287 748.5297,926.30426 748.30035,925.75037 747.74646,925.52106 Z M758.5828,925.52106 L758.02893,925.75037 757.79956,926.30426 757.79956,999.3287 758.02893,999.88257 758.5828,1000.11194 831.60724,1000.11194 832.1611,999.88257 832.39044,999.3287 832.39044,926.30426 832.1611,925.75037 831.60724,925.52106 Z M842.4436,925.52106 L841.8897,925.75037 841.66034,926.30426 841.66034,999.3287 841.8897,999.88257 842.4436,1000.11194 915.4681,1000.11194 916.0219,999.88257 916.2513,999.3287 916.2513,926.30426 916.0219,925.75037 915.4681,925.52106 Z M926.3044,925.52106 L925.7505,925.75037 925.5211,926.30426 925.5211,999.3287 925.7505,999.88257 926.3044,1000.11194 999.3288,1000.11194 999.8827,999.88257 1000.112,999.3287 1000.112,926.30426 999.8827,925.75037 999.3288,925.52106 Z M1010.16504,925.52106 L1009.6112,925.75037 1009.38184,926.30426 1009.38184,999.3287 1009.6112,999.88257 1010.16504,1000.11194 1084.7717,1000.11194 1085.3257,999.88257 1085.555,999.3287 1085.555,926.30426 1085.3257,925.75037 1084.7717,925.52106 Z M1094.026,925.52106 L1093.472,925.75037 1093.2427,926.30426 1093.2427,999.3287 1093.472,999.88257 1094.026,1000.11194 1168.6327,1000.11194 1169.1865,999.88257 1169.4159,999.3287 1169.4159,926.30426 1169.1865,925.75037 1168.6327,925.52106 Z M1179.4689,925.52106 L1178.915,925.75037 1178.6857,926.30426 1178.6857,999.3287 1178.915,999.88257 1179.4689,1000.11194 1252.4933,1000.11194 1253.0472,999.88257 1253.2766,999.3287 1253.2766,926.30426 1253.0472,925.75037 1252.4933,925.52106 Z " />
</g></svg>