<?xml version="1.0" encoding="UTF-8"?>
<!DOCTYPE svg PUBLIC "-//W3C//DTD SVG 1.1//EN" "http://www.w3.org/Graphics/SVG/1.1/DTD/svg11.dtd">
<svg width="172.179mm" height="142.413mm" viewBox="0 0 172.179 142.413" shape-rendering="geometricPrecision" text-rendering="geometricPrecision" image-rendering="optimizeQuality" fill-rule="evenodd" clip-rule="evenodd" xmlns="http://www.w3.org/2000/svg" xmlns:xlink="http://www.w3.org/1999/xlink" xml:space="preserve">
<g id="Layer_x0020_1">
<path fill="#000000" d="M94.0191 141.401c-1.6136,0.0332 -3.4534,-0.0053 -4.0902,-0.0868 -0.6353,-0.0797 -4.7554,-0.1418 -9.157,-0.1365 -4.4002,0.0056 -8.1608,-0.0399 -8.3563,-0.1019 -0.5743,-0.1801 -3.8617,-0.5463 -4.6235,-0.6834 -5.3401,-0.9609 -12.1814,-2.8643 -17.2462,-4.7364 -4.1117,-1.5199 -8.4508,-3.1616 -12.4739,-5.0327 -1.341,-0.6237 -1.7006,-1.0569 -3.6174,-2.2641 -3.2022,-2.0167 -6.421,-4.6779 -9.0385,-7.3212 -2.304,-2.3267 -5.99,-6.7581 -7.5131,-9.5127 -0.1505,-0.2722 -1.4069,-2.3075 -1.4069,-2.5714 0,-0.1461 -1.5998,-2.5297 -1.5998,-2.5936 0,-0.0002 -1.5922,-2.8158 -1.7724,-3.2798 -0.1337,-0.3429 -0.3087,-0.7094 -0.3898,-0.817 -0.0801,-0.1062 -0.4604,-1.0266 -0.8449,-2.0451 -0.9702,-2.5728 -2.8,-6.4289 -4.0072,-8.9655 -1.2057,-2.5336 -0.6312,-1.4717 -1.6249,-3.605 -1.3344,-2.8647 -3.5834,-7.7313 -4.1628,-10.6673 -0.8146,-4.1281 -1.0943,-4.8629 -1.0943,-9.6393 0,-3.4066 0.2428,-5.1228 0.8103,-7.9114 0.74,-3.6359 2.2983,-7.8404 4.2249,-11.0243 0.6218,-1.0276 0.5219,-0.9896 1.3988,-2.311 1.0511,-1.584 2.4186,-4.3226 3.4357,-5.9119 1.0931,-1.7081 1.1627,-2.4126 2.3548,-4.4386 1.2388,-2.1053 0.9243,-2.0344 2.2602,-3.9247 1.0421,-1.4746 1.6291,-2.0381 2.3481,-3.4823 0.5512,-1.1072 1.3935,-2.0873 2.0422,-3.073 0.5191,-0.7888 4.7999,-5.0552 5.5122,-5.6582 0.4886,-0.4136 2.055,-1.5638 2.3992,-1.983 0.1417,-0.1725 3.4656,-2.3783 3.5373,-2.3784 0.0729,-0.0001 0.9141,-0.7884 1.6426,-1.0403 0.6051,-0.2093 2.5897,-1.4486 2.65,-1.4486 0.0537,0 0.6752,-0.2688 1.3808,-0.5965 0.7041,-0.3267 1.9389,-0.8131 2.745,-1.0806 2.0156,-0.667 1.0967,-0.6058 3.1157,-1.2565 1.4507,-0.4675 2.1087,-0.7282 3.182,-1.2722 0.4737,-0.2401 0.948,-0.182 1.2087,-0.496 0.2455,-0.2957 3.416,-1.3436 3.7673,-1.3437 0.1612,-0.0001 0.8449,-0.2342 1.5187,-0.5207 3.9656,-1.6873 10.0373,-3.2917 14.2808,-4.01 2.9205,-0.4944 3.2544,-0.5894 6.7564,-0.9042 2.9919,-0.269 12.4034,-0.3978 15.3804,-0.0854 3.7121,0.3895 4.9165,0.6617 9.5123,0.9053 5.5039,0.2918 15.9145,0.0312 21.6917,-0.1115 4.1795,-0.1034 5.1732,-0.0773 6.8446,0.1859 8.2183,1.2949 13.476,4.4115 20.4474,8.8995 2.2553,1.4519 5.7604,3.6246 7.4055,5.3425 2.1406,2.2353 2.6015,2.9346 4.5064,6.1242 0.9631,1.6121 1.9374,3.1598 2.166,3.4354 0.493,0.597 0.3789,1.1443 0.5691,1.2622 0.3196,0.1981 2.0169,3.9511 2.2091,4.3699 0.429,0.9347 0.9562,2.7387 1.2982,3.3774 0.3349,0.6255 1.0797,2.4872 1.221,3.2012 0.1269,0.6411 1.8482,5.8685 2.0422,6.4893 0.408,1.3059 1.2595,5.5502 1.4979,7.0238 0.7672,4.7416 0.8171,5.7559 0.8156,11.2903 -0.0012,4.6109 0.068,5.1816 -0.441,8.4459 -1.0299,6.6051 -4.6477,14.8012 -7.6687,20.9324 -3.1353,6.3631 -6.018,11.4695 -9.9508,17.3387 -4.3146,6.439 -7.7125,10.6758 -14.0656,15.38 -2.8747,2.1286 -5.7675,3.7411 -8.7834,5.4049 -2.7484,1.5162 -9.2603,4.3907 -12.0125,5.3026 -2.736,0.9065 -6.5499,2.1993 -9.3031,2.9394 -1.4405,0.3872 -2.3291,0.681 -3.7329,0.981 -1.4865,0.3177 -2.4979,0.6381 -4.0901,0.9511 -2.5526,0.5018 -4.0147,0.6761 -7.1119,0.7398zm-2.0119 -2.7919c0.605,0.018 1.2964,-0.0427 1.5363,-0.1337 0.2399,-0.0921 1.8189,-0.2522 3.5084,-0.358 4.1675,-0.2604 5.8592,-0.8452 9.9469,-1.8786 2.7346,-0.6914 9.1224,-2.6871 11.4679,-3.6022 2.7029,-1.0546 4.4121,-1.83 8.0006,-3.5994 6.3684,-3.1402 11.6699,-6.4081 16.5464,-11.1386 2.7101,-2.6289 6.2983,-7.6788 8.4363,-11.0049 2.0641,-3.2112 4.0379,-6.6518 5.8663,-9.9441 0.3142,-0.5658 3.8495,-7.2591 3.9508,-7.8782 0.0275,-0.168 0.1365,-0.3846 0.2424,-0.4823 0.3827,-0.3549 3.5054,-8.1937 3.6932,-8.7118 0.8832,-2.4367 1.849,-5.2337 2.2366,-7.735 0.5515,-3.5591 0.675,-4.2354 0.616,-9.5127 -0.0775,-6.9406 -0.1593,-5.6653 -0.8725,-11.3799 -0.2705,-2.1674 -2.3615,-9.8636 -3.2783,-11.9115 -0.4756,-1.0623 -1.0626,-3.0577 -1.5254,-4.1797 -1.3847,-3.3568 -1.1454,-4.0342 -3.4865,-7.498 -1.4424,-2.1342 -0.8149,-1.4 -2.5686,-4.2954 -1.2158,-2.0073 -2.4678,-4.1136 -3.8778,-5.122 -0.9444,-0.6754 -2.6996,-2.0281 -3.7084,-2.3936 -0.3868,-0.1402 -0.189,-0.3095 -0.9754,-0.7098 -0.386,-0.1965 -3.8674,-2.3975 -4.137,-2.7354 -0.3307,-0.4144 -2.6783,-1.5517 -2.8445,-1.7942 -0.2126,-0.3102 -6.3579,-3.0934 -6.7564,-3.2481 -3.1265,-1.2136 -5.6769,-1.7375 -9.157,-2.1674 -2.2779,-0.2812 -2.8896,-0.2868 -7.2002,-0.0621 -2.7767,0.1431 -8.2917,0.2409 -13.4248,0.2356 -8.3837,-0.0085 -8.8469,-0.0275 -12.2685,-0.4812 -4.2369,-0.5615 -9.603,-0.8993 -13.7128,-0.7397 -2.424,0.0934 -3.0607,0.1831 -4.5117,0.6311 -1.7717,0.5466 -2.4394,1.0109 -3.6657,1.8298 -1.4452,0.965 -2.3631,1.4978 -3.948,3.0251 -1.7239,1.6612 -1.6809,1.4472 -3.2219,2.7668 -0.9053,0.7752 -4.5795,4.4431 -5.4942,5.157 -1.6522,1.2896 -5.1918,5.2798 -6.9013,6.992 -1.2768,1.2788 -3.7569,3.4002 -4.5544,4.6027 -1.0546,1.5903 -1.4477,2.9446 0.0483,4.2965 1.2328,1.1141 2.4974,0.7523 4.2277,2.733 0.8025,0.9187 2.3818,2.7894 2.9492,3.9094 0.3719,0.7345 0.4671,1.1713 0.4615,2.1305 -0.0211,4.1988 -2.4832,6.106 -2.4832,7.0968 0,0.6132 0.7946,2.0956 1.3187,2.4391 0.787,0.5158 0.2713,-0.1554 2.2062,-2.1622 0.7112,-0.7387 1.4073,-1.258 2.1029,-1.5681 0.9621,-0.4286 1.1713,-0.4561 2.7658,-0.3612 2.3823,0.1412 2.9394,0.3895 3.8573,2.2147 0.489,0.9712 0.7274,1.717 0.8128,2.5298 0.0677,0.6325 0.0346,2.1347 -0.0702,3.3352 -0.1584,1.8065 -0.2826,2.3741 -0.7193,3.2893 -0.2907,0.6089 -0.6269,1.2428 -0.7497,1.4082 -0.1213,0.1669 -0.1598,0.3638 -0.0868,0.4368 0.0745,0.0744 0.6202,-0.1323 1.2125,-0.4576 0.9772,-0.5373 1.1702,-0.5814 2.0535,-0.478 1.9116,0.2251 2.9582,1.1221 3.9536,2.8621 0.7398,1.2911 0.7648,1.3836 0.6491,2.3992 -0.1832,1.6183 -2.0589,4.6482 -2.0588,5.3993 0.0001,0.3803 0.1641,0.5482 0.9053,0.9232 0.7993,0.405 0.9659,0.5927 1.4206,1.5956 0.9012,1.9897 0.4066,3.9013 1.155,4.6496 0.6747,0.6746 1.358,0.6577 2.3798,0.434 1.4851,-0.3251 5.1463,-0.8813 6.5843,-0.9977 0.0446,-1.884 0.1921,-5.4741 -0.1228,-6.6668 -0.2005,-0.7595 -0.5625,-2.7018 -1.3395,-2.945 -0.8561,-0.2679 -2.3808,-1.4523 -3.0741,-2.1551 -1.6569,-1.6798 -1.5409,-3.3922 -2.3096,-4.221 -0.6346,-0.6842 -1.3126,-0.2439 -1.9625,-0.8943 -1.0571,-1.0578 0.1663,-2.2307 0.8502,-2.2309 0.7106,-0.0002 0.4666,0.4855 2.6927,0.5164 0.8668,0.0113 1.6454,0.0649 1.7321,0.1186 0.0858,0.0539 0.156,0.0289 0.156,-0.0537 0,-0.2837 -2.3112,-2.2765 -2.3111,-2.9806 0.0002,-0.9467 1.407,-1.9003 2.4088,-0.8985 0.6263,0.6263 0.229,0.7972 1.1299,1.2125 0.7284,0.3357 3.0954,2.4405 3.2096,2.4405 0.1308,0 -0.1525,-2.3992 -0.1545,-2.4528 -0.0245,-0.6618 1.1498,-1.911 2.2162,-0.8446 0.5882,0.5882 0.2594,1.0637 0.8667,1.5406 0.3101,0.2438 0.5126,0.696 0.7208,1.6122 0.6387,2.812 -0.4307,6.6847 0.6586,4.7724 0.8434,-1.4805 2.9867,-0.2153 2.3124,1.0996 -0.51,0.9944 -1.192,2.1182 -1.1811,3.3898 0.0068,0.8184 0.0635,0.9165 1.1176,1.9473 1.9258,1.884 2.4425,4.1856 3.0826,6.5829 0.2776,1.0396 0.4361,1.0704 1.01,0.2286 0.2304,-0.3377 0.6188,-1.112 0.8657,-1.7226 0.3804,-0.9399 0.4491,-1.397 0.4519,-2.9916 0.0038,-2.0546 -0.1327,-2.4566 -1.0488,-3.6643 -0.5793,-0.7637 -0.6306,-2.177 -0.8406,-2.5326 -0.0646,-0.1094 -0.3135,-3.9792 -0.4795,-4.4376 -0.0789,-0.2177 -0.6689,-1.6383 -0.926,-1.6383 -0.185,0 -1.7175,-1.0916 -0.5814,-2.231 0.5939,-0.5956 1.2432,-0.5501 1.838,0.0508 0.5418,0.5474 1.8138,1.474 2.5785,2.0398 -0.1298,-0.6473 -0.2555,-1.2105 -0.6781,-1.8207 -0.5077,-0.7331 -0.6376,-1.2383 -0.0042,-1.8697 0.9805,-0.9774 1.7021,-0.0669 2.3484,0.6488 0.4798,0.5313 2.0542,1.9079 2.4225,2.6832 0.2764,0.5819 0.3022,1.1873 0.459,1.2845 0.2905,0.1801 0.3023,-1.6471 0.2533,-1.9474 -0.0755,-0.4727 -0.0039,-0.6808 0.3627,-1.0474 0.5924,-0.5924 1.2433,-0.5935 1.8355,-0.0014 0.8128,0.8126 0,1.2993 0.5111,2.5192 0.3835,0.9153 0.2487,2.9472 -0.0427,3.9232 -0.7539,2.5247 -1.4227,3.7115 -1.6083,6.7924 -0.073,1.2224 -0.0935,3.3556 -0.0441,4.7417 0.0484,1.385 0.1323,2.5633 0.1863,2.6155 0.0781,0.077 3.3276,0.757 3.8488,0.9469 0.8248,0.3005 3.1302,0.2476 3.4216,-0.0441 0.2833,-0.2836 -0.6722,-3.561 -0.7895,-3.9935 -0.6002,-2.2123 -1.4374,-5.9845 -1.808,-8.1788 -0.1892,-1.1199 0.0053,-8.002 0.1213,-9.2452 0.1705,-1.8275 0.4116,-6.8306 0.6876,-8.5274 0.311,-1.9117 0.0085,-6.9934 0.5623,-9.4311 0.5816,-2.5599 1.1386,-4.1905 2.7173,-6.3433 0.9166,-1.2499 1.1397,-1.2198 0.6847,-2.2504 -0.5306,-1.2018 -0.8609,-1.4793 -1.8988,-2.479 -1.0761,-1.0365 -1.7717,-1.7274 -2.8815,-2.606 -0.7425,-0.5895 -0.7521,-0.5909 -1.3599,-0.303 -1.837,0.8709 -3.4924,-0.5894 -3.4922,-2.1096 0.0003,-1.5561 1.7693,-3.0311 3.5444,-2.0754 0.6769,0.3644 1.2568,1.2777 1.2569,2.0077 0.0001,0.4229 0.157,0.5362 1.5558,1.126 2.4396,1.0295 4.1031,1.6392 6.2369,3.1708 0.5056,0.3623 1.0418,0.6601 1.1892,0.6601 0.149,-0.0001 0.9687,-0.3486 1.8232,-0.7758 1.9271,-0.9627 4.5376,-1.9334 6.6184,-2.3181 0.861,-0.1592 8.1283,-0.9014 8.7521,-0.7743 0.4849,0.0988 0.0407,-4.2014 -0.0208,-4.4885 -0.727,-3.3918 -0.3785,-1.688 -2.1414,-2.6359 -0.7144,-0.3841 -1.2553,-1.2981 -1.2552,-2.0754 0.0003,-1.5508 1.7605,-3.0326 3.5455,-2.0754 0.6963,0.3734 1.2554,1.29 1.2555,2.0451 0.0001,0.2811 -0.1295,0.7828 -0.2882,1.1176 -0.2878,0.6049 -0.2865,0.6103 0.4741,1.8933 1.0209,1.7189 1.7658,3.0224 2.413,4.9308 0.3059,0.9023 0.6216,1.5159 0.8393,1.633 0.1916,0.1034 1.2361,0.4121 2.322,0.6862 4.7645,1.2055 8.5274,3.1615 12.1694,6.4946 2.8234,2.5839 5.3685,6.7601 6.7084,10.3159 2.2376,5.9383 2.9702,11.1024 2.8388,17.6763 -0.077,3.8506 -0.3031,6.1532 -1.2763,9.7797l-0.9522 3.0456c0.0002,0.4965 -1.2451,2.978 -1.5639,3.6283 -0.41,0.8362 -1.934,3.2649 -1.9928,3.4025 -0.0494,0.1143 -0.5951,0.8502 -1.2139,1.6358 -2.0629,2.6164 -4.9155,5.0801 -7.7654,6.7261 -1.2908,0.7455 -4.5499,2.0039 -5.1565,2.4296 -1.6079,1.1286 -2.618,3.4123 -3.6738,5.6042 -2.9027,6.0264 -5.8508,12.3986 -11.3496,16.4155 -6.4218,4.6912 -14.0031,6.0138 -21.6928,8.0214 -4.1731,1.0895 -9.5773,1.9773 -13.8688,2.5217 -5.1774,0.6567 -11.8344,1.6963 -16.9802,0.9123 -4.2432,-0.6465 -5.9247,-1.2779 -10.9347,-1.5321 -2.0048,-0.102 -3.9645,-0.2632 -4.3558,-0.3571 -0.983,-0.2357 -3.4635,-0.1742 -4.6235,-0.3499 -2.3233,-0.3519 -3.9056,-0.7007 -6.7564,-0.9938 -4.906,-0.5044 -10.0084,-1.831 -12.5003,-6.2727 -0.1281,-0.2272 -0.4036,-0.9479 -0.6131,-1.5999 -0.3362,-1.0502 -0.3817,-1.6108 -0.3899,-4.8327 -0.0103,-3.8611 -0.0198,-3.8416 0.507,-6.7567 0.4284,-2.3707 0.5177,-2.5161 1.3864,-5.067 0.6985,-2.0503 0.7274,-2.2228 0.7398,-4.4453 0.0127,-2.1859 -0.0138,-2.3665 -0.4876,-3.3447 -0.7503,-1.5466 -1.8404,-2.3647 -3.3115,-3.4879 -1.0071,-0.769 -4.3061,-3.2366 -5.3523,-3.6022 -0.9133,-0.3191 -3.6532,0.5394 -4.4567,0.2342 -0.5711,-0.217 -1.3423,-1.1988 -1.4054,-1.8009 -0.0726,-0.6934 0.2149,-2.5311 0.496,-3.1997 0.7701,-1.8317 -0.4933,-4.0786 -0.9494,-6.1352 -0.3013,-1.3584 -0.373,-5.0279 -0.0553,-6.3761 0.4025,-1.7083 1.3401,-3.4373 2.9682,-4.2115 0.8884,-0.4225 2.6013,-0.8621 3.5211,-0.8734 0.3747,-0.0057 0.7084,-0.1807 1.0665,-0.561 0.8517,-0.9021 2.2041,-1.8285 3.3651,-2.4832 0.9539,-0.5376 1.1991,-0.5968 2.4917,-0.6021 1.2665,-0.0057 1.5007,0.0469 1.9995,0.4395 0.8704,0.6847 1.3828,1.8798 1.3561,3.0219 -0.0423,1.8127 -0.945,3.5514 -2.0341,5.5358 -0.6781,1.2361 -1.2319,2.4003 -1.2319,2.588 0,0.1859 0.2053,0.6558 0.4575,1.0417 0.8203,1.2568 2.8201,2.3501 4.3903,3.1352 2.3374,1.1686 2.5495,1.211 4.9859,1.9427 3.9376,1.1825 2.9868,0.6444 6.6022,-0.8103 2.3453,-0.9437 4.9999,-1.5992 7.4178,-0.8446 3.3964,1.06 3.3305,4.479 2.9024,7.4084 -0.098,0.6704 -0.2991,0.7639 -0.0731,1.185 0.1486,0.2783 0.3884,0.3323 1.4605,0.3309 1.2859,-0.0035 2.9306,-0.1537 3.7113,-1.0764 0.3693,-0.4367 0.5002,-0.8283 0.5965,-1.7886 0.1487,-1.4832 -0.0446,-1.7011 -1.0432,-2.6775 -0.7949,-0.7772 -1.519,-2.1637 -1.6524,-3.2798 -0.2014,-1.685 0.9072,-3.7631 1.735,-5.2116 -1.9912,0.8809 -2.4015,1.2676 -4.2097,0.2561 -1.0266,-0.5747 -1.1741,-0.7387 -1.9322,-2.1399 -0.8363,-1.5446 -1.4453,-2.6305 -1.2552,-4.1575 0.1697,-1.3629 0.3049,-1.434 1.0679,-2.5936 0.5278,-0.8033 0.5941,-1.0555 0.6946,-2.6293l0.1101 -1.7406c-0.5829,0.3835 -0.9519,0.6686 -1.3519,1.458 -0.6423,1.2677 -1.5353,2.069 -2.9019,2.69 -1.0308,0.467 -1.2831,0.5126 -2.2229,0.4064 -2.158,-0.2438 -2.2381,-0.9207 -3.6382,-1.965 -0.7785,-0.58 -1.0925,-0.9895 -1.7321,-2.2585 -1.2585,-2.4968 -1.8642,-3.9747 -0.7207,-6.6823 0.3281,-0.7772 0.8188,-1.706 1.0901,-2.0627 0.4409,-0.5775 0.485,-0.7525 0.3968,-1.5999 -0.1652,-1.599 -1.0011,-2.737 -2.2916,-3.5362 -0.5228,-0.3237 -3.8424,-1.6289 -4.3064,-2.0588 -0.2067,-0.1916 -0.7454,-0.5443 -1.1976,-0.7828 -1.1058,-0.5827 -3.84,-0.7676 -5.0656,-0.4699 -0.807,0.196 -3.4294,1.4078 -3.5553,1.4086 -1.0468,0.0067 -6.3889,4.1171 -8.1082,4.7237 -0.8538,0.3012 -2.0116,1.223 -3.3239,1.9033 -0.7484,0.388 -3.5543,2.0657 -4.0294,2.0778 -0.446,0.0114 -3.6675,1.8895 -4.0556,2.165 -1.7304,1.2283 -2.2532,1.4327 -3.4893,3.266 -0.5229,0.7755 -1.4557,1.691 -1.7529,2.5644 -0.3107,0.9132 -0.608,0.9662 -0.9451,1.9681 -0.7709,2.2911 -1.2702,4.6472 -1.5258,7.1462 -0.1948,1.9047 -0.1508,6.2208 0.0953,8.1845 0.4824,3.8489 0.988,6.1553 2.5756,9.7384 0.156,0.3521 1.1973,2.4957 1.1973,2.7354 0,0.3324 5.2177,11.0431 5.7591,12.5004 1.3189,3.5504 2.2289,5.8322 4.3586,9.0082 1.1635,1.7352 1.4322,2.2773 2.4528,4.1906 1.0206,1.9132 1.9077,2.9224 2.9835,4.3709 1.3056,1.7578 1.7422,2.1078 3.9977,4.3561 3.0179,3.0082 4.0927,4.0042 7.385,6.2548 1.26,0.8613 5.9166,3.6067 7.2912,4.0569 0.3913,0.1284 1.6302,0.6273 2.7545,1.1095 4.8565,2.0813 10.0319,3.7185 14.9366,5.2158 2.9823,0.9104 7.9817,1.9705 11.1125,2.3732 0.7829,0.1005 1.742,0.2257 2.1333,0.2797 0.3912,0.055 3.7525,0.1803 7.4676,0.2808 3.7165,0.0995 7.5173,0.2441 8.4458,0.32 0.9289,0.0758 2.1844,0.1527 2.7895,0.1693zm24.6819 -65.1591c1.3081,-0.0952 3.6445,-0.4542 3.6448,-2.0835 0.0002,-1.0593 -0.4213,-1.2002 -1.6965,-1.3642 -0.9462,-0.1217 -5.9832,-0.4325 -6.5017,0.387 -0.3099,0.4898 -0.1535,1.376 0.2907,1.9047 0.5436,0.6471 1.8925,1.0408 2.6624,1.1546 0.2936,0.0441 1.0129,0.0455 1.6003,0.0014zm8.0172 -11.4501c1.9657,0.0088 3.0931,-0.2458 4.5353,-1.1024 3.748,-2.2261 6.269,-8.479 7.9675,-12.4919 -4.3148,-0.2151 -7.5226,1.0489 -11.2156,3.0978 -0.9798,0.5436 -2.7463,2.2576 -3.3764,3.23 -0.9102,1.4048 -1.16,2.3329 -1.2015,4.1868 -0.063,2.8128 0.4513,3.0686 3.2907,3.0797zm-11.1798 -0.5444c0.6399,0.0296 0.8369,-0.8518 0.9739,-1.4001 0.3003,-1.2015 0.3927,-1.5987 0.3902,-3.1157 -0.0045,-2.772 -1.2368,-5.3343 -3.1835,-7.3089 -0.5895,-0.5983 -1.4055,-1.2583 -1.8161,-1.4679 -0.4092,-0.2092 -0.8805,-0.3803 -1.0444,-0.3803 -0.2754,0 -0.2906,0.2731 -0.1859,3.2452 0.086,2.4335 0.231,6.7762 1.346,8.6032 0.7365,1.2069 2.1855,1.7574 3.5198,1.8245z"/>
</g>
</svg>
