<?xml version="1.0" encoding="UTF-8"?>
<!DOCTYPE svg PUBLIC "-//W3C//DTD SVG 1.0//EN" "http://www.w3.org/TR/2001/REC-SVG-20010904/DTD/svg10.dtd">
<svg shape-rendering="geometricPrecision" text-rendering="geometricPrecision" image-rendering="optimizeQuality" fill-rule="evenodd" xml:space="preserve" 
 xmlns="http://www.w3.org/2000/svg" xmlns:xlink="http://www.w3.org/1999/xlink"  viewBox="0 0 1260.176307156682 1000.2243358567357" width="126.0176307156682mm" height="100.02243358567357mm" >
<g><path fill="#000000" d="M188.52197,536.2267 L207.34267,536.6879 216.73006,537.05023 235.46037,538.03894 244.80331,538.6654 254.1315,539.38025 272.74402,541.07526 291.2945,543.1244 300.54773,544.2822 309.78693,545.5291 319.00882,546.8646 328.2177,548.2897 337.40927,549.80347 346.58673,551.40686 355.74997,553.0998 364.89566,554.8819 374.02725,556.75385 383.14444,558.7159 392.24405,560.76715 401.32938,562.9087 410.4002,565.14044 419.45334,567.4619 428.49207,569.8739 437.51624,572.3766 446.5226,574.96906 455.5144,577.6525 464.49152,580.4268 473.4508,583.2913 482.39633,586.2475 494.10022,590.25824 505.7259,594.4024 517.2744,598.6804 528.74567,603.0921 540.1399,607.63745 551.45703,612.31647 562.6982,617.12946 573.8599,622.07513 584.9459,627.1548 595.9559,632.3683 606.88666,637.71436 617.7416,643.1942 628.51953,648.80743 639.22144,654.55444 649.8445,660.43365 660.3915,666.4467 670.86163,672.59283 681.25494,678.8721 691.57214,685.285 701.81067,691.8297 711.9733,698.50806 722.05914,705.31946 732.06903,712.2643 742.0002,719.34064 751.8556,726.5506 761.63416,733.8933 771.33606,741.3688 780.9612,748.9769 790.5095,756.71765 799.9812,764.5911 809.3761,772.5971 818.6944,780.73566 827.7027,788.8007 836.5999,796.9685 845.3865,805.2386 854.0623,813.61084 862.6279,822.0851 871.08435,830.66174 879.42944,839.33826 887.66595,848.117 895.7934,856.9968 903.8118,865.9775 911.72174,875.0589 919.5232,884.24054 927.2166,893.52264 934.8022,902.90466 942.2796,912.38556 949.65564,921.9738 955.1844,929.49115 955.10596,929.59845 921.37714,918.26434 910.40265,914.69226 898.4852,910.9761 886.532,907.4312 874.54443,904.05725 862.52234,900.8535 850.4662,897.8191 838.37585,894.9533 826.25146,892.25525 814.0932,889.7241 801.9011,887.35913 789.67535,885.1595 777.415,883.1243 765.1235,881.25323 752.79736,879.54486 740.43805,877.9988 728.04456,876.61383 715.6192,875.3897 704.4405,874.42804 693.2614,873.5989 682.08514,872.90247 670.9084,872.33905 659.7325,871.90875 648.5563,871.6117 637.3833,871.4481 626.2101,871.4182 615.03796,871.52216 603.867,871.76013 592.6961,872.1324 581.52985,872.6389 570.3604,873.2803 559.1958,874.0562 548.03156,874.96716 536.8687,876.0133 527.07,877.04254 517.302,878.1722 507.56018,879.40265 497.8446,880.73395 488.15863,882.16534 478.4997,883.6971 468.8658,885.3297 459.2595,887.0624 449.68256,888.8949 440.1317,890.82776 430.60822,892.8605 421.11188,894.9932 411.64285,897.2257 402.2011,899.55786 392.78653,901.98975 383.39923,904.5211 374.03915,907.15186 364.70538,909.8824 355.40088,912.7115 346.12247,915.6401 336.87134,918.6678 327.64734,921.7945 318.45056,925.0202 309.27997,928.3452 300.1397,931.7675 291.0224,935.2903 281.93546,938.91034 272.8746,942.62915 263.83997,946.447 254.8345,950.36224 245.85513,954.376 236.87163,958.50195 234.4089,959.5184 231.88701,960.3059 229.33577,960.8581 226.76564,961.1774 224.18645,961.2661 221.6084,961.12646 219.04187,960.76086 216.4969,960.1716 213.9837,959.3607 211.49258,958.3204 209.0935,957.0829 206.737,955.6208 204.4532,953.94586 202.25226,952.0605 200.1323,949.9523 198.12317,947.6464 190.19049,937.77386 182.31212,927.825 49.092087,758.88007 46.54837,755.47925 44.35404,752.1617 42.519497,748.94604 40.997658,745.74133 39.81191,742.5758 38.962303,739.44006 38.448795,736.3243 38.271408,733.2185 38.43027,730.11273 38.92566,726.9969 39.758083,723.86053 40.92807,720.69403 42.436306,717.48755 44.30721,714.19244 46.492447,710.88385 49.006817,707.5182 115.16827,623.6141 181.4899,539.75024 182.10188,539.08215 182.86903,538.41974 183.73618,537.81165 184.67354,537.2763 185.65147,536.8322 186.63977,536.4976 187.60838,536.2898 188.52197,536.2267 Z M625.96643,-0.11105461 L613.33484,1.331855 605.65594,2.375906 601.6607,3.0493252 597.6449,3.849515 594.113,4.662532 587.2191,6.521554 580.5347,8.687142 574.0502,11.152802 570.8906,12.491546 564.7044,15.388398 558.69794,18.568224 552.86755,22.022978 547.2118,25.742245 541.7203,29.721071 536.39,33.949284 531.2104,38.42289 526.1797,43.129864 521.2872,48.066612 516.52893,53.2232 511.89728,58.59292 507.37878,64.17729 426.13403,167.53983 344.758,270.78308 99.34987,581.7369 16.873957,686.3274 14.837687,689.0155 12.921849,691.7578 11.138283,694.5367 9.485102,697.35205 7.9634933,700.1995 6.572984,703.07697 5.313136,705.98285 4.1841354,708.9145 3.1869483,711.86694 2.3213878,714.83746 1.586883,717.8255 0.9838678,720.8273 0.5123926,723.83984 0.17257415,726.8596 -0.035807025,729.887 -0.11234231,732.9146 -0.05727369,735.9434 0.12969553,738.97046 0.44846308,741.9907 0.8990981,745.00256 1.4816452,748.0033 2.19615,750.99023 3.0426574,753.9605 4.0212092,756.9114 5.1322618,759.8412 6.3750496,762.7449 7.7499986,765.62103 9.257673,768.4677 10.896498,771.27924 12.668768,774.0569 14.572682,776.79474 16.617445,779.50183 92.641556,875.9651 168.733,972.33374 171.50769,975.642 174.46489,978.763 177.58719,981.67584 180.8717,984.3789 184.31822,986.8725 187.92465,989.156 191.68733,991.22766 195.60793,993.0879 199.75607,994.77057 203.87556,996.1707 207.97256,997.2956 212.05087,998.15283 216.11424,998.7487 220.16447,999.09045 224.20749,999.18494 228.24693,999.03973 232.28442,998.6617 236.32603,998.0578 240.37434,997.2355 244.4342,996.20184 248.50638,994.96484 252.59901,993.5305 256.71265,991.9071 275.46637,983.58496 290.0882,977.3616 304.7536,971.4144 319.4614,965.7437 334.21246,960.34875 349.00348,955.23035 363.83765,950.38666 378.71466,945.8175 393.63226,941.5233 408.5905,937.5037 423.5923,933.7571 438.63428,930.2841 453.7164,927.08453 468.84183,924.15704 484.00595,921.5021 499.2119,919.11884 514.45966,917.00696 529.7458,915.16644 545.0746,913.59625 560.4423,912.29663 575.84924,911.26697 591.29834,910.5068 606.7841,910.0158 622.314,909.7936 637.88007,909.8398 653.4868,910.15393 669.13293,910.73584 684.8183,911.585 700.54266,912.701 716.3059,914.0835 732.1081,915.7322 747.94885,917.64655 764.33276,919.9197 780.6294,922.49805 796.8371,925.3806 812.9603,928.5669 828.995,932.055 844.9446,935.84485 860.80914,939.9353 876.5859,944.3245 892.2792,949.013 907.885,953.9979 923.4067,959.27966 938.84357,964.85693 954.1958,970.72845 969.46326,976.89343 984.64667,983.3508 999.75336,990.1031 1010.3407,995.2434 1013.0286,996.42377 1015.7351,997.46014 1018.5665,998.3299 1021.3542,998.93207 1026.5275,999.64215 1031.6671,1000.0391 1036.6974,1000.1133 1041.6207,999.86566 1046.4318,999.2969 1051.1508,998.40265 1055.7072,997.20154 1060.1901,995.6667 1064.525,993.82416 1068.7173,991.6769 1072.8011,989.2049 1076.7556,986.41846 1080.5762,983.3206 1084.2611,979.9108 1087.8074,976.19147 1091.2231,972.1494 1129.2916,924.1885 1167.2272,876.1517 1242.9318,779.96405 1244.9958,777.2386 1246.9344,774.4656 1248.7405,771.6567 1250.4124,768.8165 1251.9513,765.9456 1253.3567,763.04724 1254.6288,760.1241 1255.7667,757.17957 1256.7714,754.2143 1257.6425,751.2317 1258.38,748.2342 1258.9839,745.2254 1259.4543,742.20483 1259.791,739.179 1259.9944,736.14624 1260.064,733.1135 1259.9999,730.0798 1259.8022,727.0487 1259.4713,724.02325 1259.0061,721.0043 1258.4078,717.99786 1257.6757,715.002 1256.8094,712.0216 1255.8107,709.06116 1254.6776,706.119 1253.411,703.2008 1252.0112,700.3079 1250.4779,697.443 1248.811,694.6084 1247.01,691.8059 1245.0754,689.0387 1242.9995,686.29987 995.0323,371.8144 746.97235,57.431976 744.1742,53.97834 741.313,50.62698 738.3947,47.385967 735.4181,44.254284 732.3808,41.229992 729.2847,38.315327 726.12933,35.51001 722.9123,32.81216 719.63403,30.222382 716.2946,27.741034 712.8908,25.365906 709.4259,23.099339 705.8962,20.939157 702.3014,18.88518 698.6438,16.938898 694.91943,15.098248 691.12946,13.363696 687.2716,11.734358 683.3468,10.210705 679.35626,8.793052 675.2952,7.4795823 671.1675,6.271451 666.9669,5.166928 662.69977,4.1674123 658.3586,3.2712042 653.9496,2.4791968 649.46545,1.790187 644.91223,1.2047342 640.2839,0.72181374 635.583,0.34160727 630.807,0.06376819 625.96643,-0.11105461 Z " />
</g></svg>