<?xml version="1.0" encoding="UTF-8"?>
<!DOCTYPE svg PUBLIC "-//W3C//DTD SVG 1.0//EN" "http://www.w3.org/TR/2001/REC-SVG-20010904/DTD/svg10.dtd">
<svg shape-rendering="geometricPrecision" text-rendering="geometricPrecision" image-rendering="optimizeQuality" fill-rule="evenodd" xml:space="preserve" 
 xmlns="http://www.w3.org/2000/svg" xmlns:xlink="http://www.w3.org/1999/xlink"  viewBox="0 0 1000.1625815033913 1114.959883697331" width="100.01625815033913mm" height="111.4959883697331mm" >
<g><path fill="#000000" d="M44.32085,29.046623 L62.892235,29.259226 67.58843,29.564219 70.36691,30.01647 72.86608,30.667778 75.17015,31.561947 77.26338,32.760643 78.98904,34.226562 80.296745,35.901417 80.81637,36.841812 82.047455,39.801216 82.698494,42.730396 82.81857,44.643223 82.71256,47.107635 82.3915,49.44334 81.51309,52.65414 80.64937,54.539776 80.05225,55.41949 79.3187,56.274918 77.54803,57.807808 75.24723,59.20847 72.9125,60.257576 69.32366,61.248478 66.472115,61.68221 63.26668,61.931763 55.783096,62.168865 40.793316,62.248043 40.604256,62.05898 40.604256,29.235682 40.793312,29.046623 Z M229.09918,40.902004 L248.22566,96.71373 248.0776,96.920944 209.98627,96.920944 209.83821,96.71373 228.96466,40.902004 Z M901.81085,29.576782 L913.31085,29.869747 917.7943,30.235062 923.0725,31.04263 927.916,32.309647 931.0963,33.46853 934.2424,34.88167 938.60187,37.392273 942.5014,40.249954 944.83905,42.344315 946.9673,44.58976 949.7691,48.24251 951.3766,50.86759 953.4473,55.07688 954.6044,58.040462 955.58325,61.14622 956.3843,64.3945 957.45123,71.31773 957.71747,74.9937 957.80536,78.81159 957.4781,86.34036 956.5014,93.24557 955.7692,96.46466 954.8747,99.52758 953.81793,102.434074 952.61816,105.14469 951.21967,107.73845 949.6565,110.16772 947.8983,112.48084 945.94116,114.67527 943.8261,116.71075 941.5122,118.6276 938.97925,120.43487 936.32776,122.06563 933.0642,123.68614 929.7759,125.034134 924.7698,126.5593 921.2706,127.23105 914.38025,127.88387 901.8046,128.2008 891.8166,128.20076 891.62744,128.01166 891.62744,29.765886 891.8166,29.576782 Z M49.41122,89.69766 L66.922905,89.804016 74.411446,90.231766 78.813126,90.96781 81.7434,91.83213 84.679985,93.087944 87.13123,94.617386 89.08194,96.42879 90.52883,98.455086 91.126656,99.617455 92.05183,102.289696 92.37772,103.80361 92.741264,107.10872 92.74574,110.337944 92.16926,114.32025 90.90938,117.93994 89.71531,120.083916 88.949196,121.08254 88.04018,122.04503 85.89751,123.76677 83.198975,125.31287 78.49024,127.154465 73.43177,128.29915 68.05231,128.73138 40.793312,128.83696 40.604256,128.6479 40.604256,89.88673 40.793316,89.69766 Z M206.54478,-0.099532135 L206.14645,0.025132962 205.89134,0.35544288 148.0142,157.04462 148.09555,157.68404 148.66763,157.9831 188.41847,157.9831 188.82347,157.85306 189.07765,157.512 199.78857,126.21111 199.99011,126.067085 258.0737,126.067085 258.27524,126.2111 268.9862,157.512 269.2404,157.85306 269.6454,157.9831 310.77887,157.90407 311.02805,157.68492 311.11002,157.04462 253.12907,0.16867782 252.57942,-0.099532135 Z M334.81415,-0.099532135 L334.32147,0.104505226 334.11743,0.5971928 334.11743,157.28636 334.32147,157.77905 334.81415,157.9831 370.94348,157.9831 371.21472,157.92836 371.58548,157.5576 371.73285,50.017548 438.29395,157.65277 438.8865,157.9831 477.1888,157.9831 477.6815,157.77905 477.88553,157.28636 477.88553,0.5971928 477.6815,0.104505226 477.1888,-0.099532135 441.05945,-0.099532135 440.7882,-0.04479078 440.41745,0.3259638 440.26562,89.95217 382.8936,-0.013857522 334.81415,-0.099532135 Z M518.88794,-0.099532135 L518.39526,0.104505226 518.1912,0.5971928 518.1912,157.28636 518.39526,157.77905 518.88794,157.9831 555.0173,157.9831 555.2885,157.92836 555.6593,157.5576 555.8067,50.017536 622.36774,157.65277 622.9603,157.9831 661.2626,157.9831 661.7553,157.77905 661.95935,157.28636 661.95935,0.5971928 661.7553,0.104505226 661.2626,-0.099532135 625.1333,-0.099532135 624.86206,-0.04479078 624.49133,0.3259638 624.3395,89.95217 566.96735,-0.013857522 518.88794,-0.099532135 Z M702.96173,-0.099532135 L702.469,0.104505226 702.26495,0.5971928 702.26495,157.28636 702.469,157.77905 702.96173,157.9831 815.9652,157.9831 816.45795,157.77905 816.6619,157.28636 816.6619,127.94319 816.60724,127.67196 816.2365,127.3012 743.15784,127.24647 742.9688,127.05741 742.9688,88.61433 743.15784,88.42527 810.6635,88.42527 811.15625,88.22123 811.3603,87.728546 811.3603,58.385338 811.15625,57.89265 810.6635,57.68861 743.15784,57.68861 742.9688,57.499554 742.9688,30.82618 743.15784,30.637123 816.2365,30.582382 816.60724,30.211628 816.6619,29.9404 816.6619,0.5971928 816.45795,0.104505226 815.9652,-0.099532135 Z M851.40826,-0.099532135 L850.9156,0.104505226 850.71155,0.5971928 850.71155,157.28636 850.9156,157.77902 851.40826,157.9831 911.1067,157.94025 924.0727,157.29485 931.9215,156.434 935.6091,155.8741 942.5456,154.47423 945.89075,153.58649 952.37335,151.4127 955.51105,150.12654 961.577,147.15605 964.5081,145.4702 968.27905,143.00696 973.6197,138.84177 976.972,135.75021 980.15845,132.40643 984.627,126.91754 988.7223,120.86089 992.36755,114.26942 995.3249,107.326065 997.573,100.06066 999.11163,92.4746 999.94086,84.56801 1000.06305,76.27681 999.51117,68.034836 998.29535,60.217876 996.41516,52.824287 993.87054,45.855076 990.6582,39.304928 988.21606,35.170654 985.5535,31.252182 981.1478,25.783213 976.2484,20.806189 972.7086,17.762352 966.9887,13.607227 962.52356,10.892876 957.1858,8.260622 951.2913,5.974669 944.8405,4.034908 937.8233,2.4233863 934.0705,1.7540404 926.07043,0.72457707 921.821,0.3641641 912.8279,-0.047812257 851.40826,-0.099532135 Z M0.5971928,-0.099532135 L0.104505226,0.104505226 -0.099532135,0.5971928 -0.09953219,157.28636 0.10450518,157.77905 0.59719276,157.9831 68.915245,157.98312 77.12039,157.79822 84.577774,157.24246 88.02365,156.82555 94.3479,155.71382 100.012215,154.21388 102.73776,153.28265 108.00972,151.04175 110.556244,149.73207 115.47084,146.7337 119.797386,143.51567 123.39952,140.15901 125.03717,138.33539 127.98486,134.3973 129.2941,132.28365 131.58885,127.78359 133.34793,122.961334 134.00824,120.4351 134.8897,115.153946 135.18582,109.561554 134.86778,103.83911 133.90811,98.553444 132.30562,93.69653 130.06009,89.271065 127.16945,85.27572 124.905235,82.8524 122.445076,80.63798 118.37398,77.70209 113.847374,75.2303 108.862785,73.22159 105.28874,72.14104 101.73556,71.31483 101.5734,71.11411 101.6986,70.51523 106.69212,67.941086 109.0641,66.42389 113.359886,63.013702 115.30079,61.09812 118.61035,57.018913 120.06054,54.724377 121.289894,52.392212 122.31015,50.027863 123.180275,47.47886 123.84111,44.8989 124.59088,39.560326 124.62117,34.290867 124.06846,29.628643 122.95795,25.2424 122.193436,23.153172 120.24126,19.17593 117.73064,15.437974 114.70821,12.192191 112.92106,10.666381 109.04313,8.017735 106.85262,6.81982 102.4756,4.827983 98.08359,3.226895 93.66259,2.0098157 89.21292,1.1775081 81.14627,0.39851767 70.20331,-0.019703181 0.5971928,-0.099532135 Z M346.60925,361.71194 L341.3758,361.91327 336.0478,362.67862 333.13474,363.39066 330.12158,364.3895 326.89023,365.69128 320.42383,368.92075 317.39374,370.74387 314.61777,372.6507 312.2394,374.55774 308.05295,378.6238 306.17685,380.799 302.85556,385.43085 300.1198,390.41797 297.98007,395.73938 296.4453,401.37595 295.52548,407.30624 295.2297,413.51016 295.31934,416.71835 295.72357,422.36374 296.4615,426.6955 297.7621,430.59045 299.96124,435.3174 303.23547,441.1782 305.74573,444.7562 308.51843,448.06912 313.17404,452.54837 316.61328,455.21384 322.2808,458.73987 326.9134,461.046 331.22498,462.7979 333.20828,463.35144 337.56683,464.0081 343.69727,464.33585 351.7573,464.3803 355.78146,463.93488 359.67914,462.9905 366.31046,460.57626 370.5632,458.50363 374.5606,456.10864 378.28842,453.4137 381.73514,450.43906 384.88403,447.2096 387.72375,443.74518 391.37317,438.1564 393.3782,434.20346 395.02567,430.09357 396.30228,425.84775 397.19412,421.48895 397.68735,417.03928 397.76843,412.52072 397.42368,407.9555 396.56668,402.96402 395.1403,397.74197 393.22733,392.7775 390.8602,388.09518 388.07166,383.71906 384.89316,379.67072 381.3561,375.9723 377.49457,372.64862 373.33862,369.7204 368.9217,367.21146 364.27322,365.1432 359.42877,363.54007 354.41763,362.42365 349.27466,361.81723 346.60925,361.71194 Z M636.5078,495.03592 L641.824,495.34534 647.1245,496.1809 653.0444,497.77634 656.22546,498.9476 659.3165,500.31018 662.3084,501.85635 665.1955,503.5794 667.96857,505.47153 670.6191,507.52475 673.14136,509.73328 675.5252,512.088 677.7634,514.58203 679.84863,517.2088 681.77167,519.9591 683.5254,522.82635 685.1019,525.80396 686.4929,528.8829 688.34033,534.0959 689.3741,538.46643 690.0541,543.1151 690.41406,550.33185 690.2169,555.11707 689.67224,559.7358 688.78296,564.056 687.5506,567.95245 686.1812,571.2306 682.98706,577.4072 679.21844,583.0386 674.9085,588.09534 670.09094,592.5466 664.79755,596.3634 661.98334,598.024 659.0629,599.5144 656.041,600.8307 652.9201,601.9698 647.0606,603.54083 641.7458,604.3525 636.4397,604.62225 631.178,604.36993 625.9969,603.61536 620.9262,602.3773 616.0054,600.67676 611.26697,598.53265 606.74475,595.96454 604.5751,594.5271 600.44336,591.35986 596.6155,587.81836 593.125,583.92096 590.00806,579.68933 587.29736,575.1407 585.03,570.2989 583.2373,565.17566 582.4318,561.7053 581.8688,557.8144 581.55286,553.6514 581.48376,549.33856 581.6636,545.0134 582.0945,540.8087 582.77545,536.8747 583.706,533.3478 585.5376,528.29315 587.8246,523.5304 590.53595,519.07135 593.64026,514.9327 597.1049,511.13266 600.8969,507.6901 604.9855,504.6212 607.1306,503.23273 611.6016,500.75958 616.2894,498.70483 621.1595,497.08746 626.1801,495.92496 631.32,495.23508 636.5078,495.03592 Z M428.36426,293.779 L428.5538,293.96796 428.5538,751.6788 428.36346,751.86676 348.6765,750.7773 337.25974,750.1945 333.44925,749.7574 330.26282,749.1921 323.82233,747.54114 317.22794,745.35205 310.8766,742.7488 304.78195,739.74585 298.95883,736.3583 293.42184,732.6007 288.18506,728.4877 285.68457,726.303 280.9282,721.68677 276.5082,716.7515 272.44135,711.5141 268.7416,705.9889 265.42365,700.19037 262.50235,694.1339 259.9924,687.83417 257.90848,681.3061 256.26953,674.58496 255.83351,669.4106 255.45499,658.71075 254.87053,623.8549 254.51645,576.3422 254.39165,522.5116 254.4948,468.68848 254.82463,421.20615 255.37997,386.39197 255.74214,375.71027 256.16376,370.5739 258.46494,361.81226 260.42987,356.14 262.7242,350.62915 265.33673,345.29254 268.25778,340.14093 271.47485,335.19016 274.97665,330.45346 278.75394,325.94162 282.7931,321.671 287.08575,317.65192 291.61868,313.89975 296.38153,310.42697 301.3631,307.24698 306.5534,304.37238 311.93835,301.8179 320.0264,298.65472 325.1636,297.0947 330.70862,295.92084 333.81396,295.4614 341.05606,294.7618 355.6001,294.15714 368.58676,293.97058 428.36426,293.779 Z M442.06357,249.56721 L369.6734,249.72119 347.3553,250.00713 339.64752,250.2255 329.47183,250.85121 326.3187,251.27501 321.22955,252.27815 311.28543,254.80382 301.6349,258.00592 292.3026,261.85944 287.76584,264.0219 278.96783,268.80222 274.71368,271.41348 266.5128,277.0619 258.74472,283.25696 251.44006,289.9706 244.6249,297.17862 241.40994,300.9596 235.38332,308.85892 232.57863,312.9708 227.40479,321.50186 225.0417,325.9162 220.78352,335.02167 218.89534,339.70624 215.617,349.32642 213.35251,357.788 211.89595,365.13376 211.30792,369.38342 210.3876,380.091 210.04466,386.9714 209.56516,404.84097 209.27881,445.11536 209.72447,612.27435 210.11127,654.9342 210.42534,666.60187 210.85674,674.0266 211.43297,678.85974 213.4448,688.0182 216.44014,698.25946 220.06142,708.0946 224.29366,717.5096 229.12082,726.48785 234.5265,735.01245 240.49612,743.0696 247.01337,750.6425 254.06256,757.71533 261.62772,764.27234 269.6942,770.2983 278.24353,775.77576 287.2632,780.691 296.73505,785.02704 306.64584,788.7689 316.97607,791.8998 322.28085,793.2286 325.2706,793.8057 329.05154,794.27405 334.1874,794.64496 350.8342,795.16046 438.15588,795.831 459.3907,795.74066 465.35977,795.55176 469.1292,795.2417 471.09766,794.8289 472.03674,794.31866 472.49753,793.49066 472.97876,789.7586 473.1818,785.9194 473.502,772.9287 473.72504,750.8279 473.9495,669.66956 473.92828,403.57953 473.5685,289.93246 473.37338,269.00647 473.00897,253.05069 472.76764,251.54483 472.30554,251.02388 471.59686,250.65411 469.58566,250.22849 462.55103,249.79594 442.06357,249.56721 Z M579.077,249.46982 L559.8508,249.52986 533.14294,249.94641 529.45734,250.19101 529.03314,250.42145 528.8608,250.86865 528.5614,272.04654 528.1439,417.22067 528.128,669.34937 528.3528,751.2461 528.5758,773.73615 529.0957,790.90735 529.327,793.37256 529.6694,794.8998 530.21924,795.3032 531.4847,795.46387 545.6323,795.8392 577.90283,795.8959 611.62854,795.5283 624.3041,795.2122 631.6442,794.8246 635.9552,794.26904 644.434,792.7682 648.6161,791.8245 656.8539,789.55896 660.90485,788.24054 668.8587,785.24066 672.75696,783.5626 680.3849,779.8581 687.7695,775.7019 694.89386,771.106 701.73865,766.0844 708.2845,760.65027 714.5124,754.8174 720.40393,748.5981 725.93805,742.0084 731.0977,735.05914 735.86365,727.7639 740.21155,720.146 742.4637,715.58405 746.9656,705.02026 748.7054,700.33685 751.9898,689.9321 752.79376,686.389 753.471,682.32477 754.0303,677.46234 754.84,664.2037 755.1132,655.23785 755.5422,615.5601 755.5582,443.99716 755.3076,397.93585 755.07764,384.0302 754.76074,374.66043 754.34375,368.65253 753.8117,364.82855 752.66364,359.34122 751.3216,353.94354 749.7897,348.63986 748.0702,343.42996 746.1682,338.32126 744.086,333.31454 741.82733,328.41367 739.397,323.6247 736.7967,318.94788 734.0321,314.39026 731.10516,309.95285 728.02,305.64017 724.7796,301.45517 721.38947,297.40366 717.8511,293.48703 714.16895,289.7096 710.3457,286.0745 706.3874,282.58722 702.29517,279.24933 698.07245,276.06476 693.7264,273.0392 689.2553,270.17297 684.66656,267.47214 679.96246,264.93945 675.1467,262.57874 670.2231,260.39346 665.19403,258.38715 660.066,256.56433 654.8397,254.9275 649.5198,253.48079 644.10895,252.22758 638.6189,251.17282 631.502,250.33083 620.6335,249.80948 603.87573,249.5441 579.077,249.46982 Z M728.7144,893.2208 L735.2082,893.5156 740.0667,894.42126 742.7018,895.36273 744.40845,896.27277 745.9839,897.348 747.4411,898.59265 748.7358,899.95605 750.873,903.01715 751.72626,904.72797 752.91766,908.30994 753.43353,912.1215 753.42236,914.06934 752.83704,917.9786 752.25305,919.9115 751.46826,921.81104 749.9413,924.405 749.04083,925.5621 748.0287,926.6425 745.7601,928.48517 743.0619,929.98865 739.8921,931.1558 736.3057,931.9679 734.334,932.2495 727.671,932.60785 719.61475,932.6075 719.4256,932.4184 719.4256,893.41 719.61475,893.2208 Z M849.0694,892.2027 L851.50055,892.3194 853.882,892.7136 856.1918,893.3873 858.40216,894.3431 860.8164,895.7709 862.8965,897.3622 864.712,899.1683 866.90985,902.2758 868.4179,905.75653 869.0699,908.3403 869.428,911.1169 869.49634,912.9995 869.44635,914.78265 869.00916,918.09674 868.1138,921.16864 866.755,923.96875 864.9715,926.4374 863.907,927.5675 862.71625,928.6332 860.0504,930.49475 856.891,932.06665 854.0653,932.9968 852.6364,933.29236 849.80255,933.554 848.3703,933.52686 845.5675,933.1717 841.57715,931.95233 837.93335,930.01245 834.6618,927.3886 831.97076,924.2389 829.94617,920.6401 828.71295,916.7343 828.37067,913.93945 828.46155,911.101 828.6798,909.64905 829.75696,905.7026 830.6263,903.4839 831.6427,901.50793 832.8217,899.75134 834.17944,898.1909 835.732,896.8029 837.49615,895.5645 839.48895,894.4528 841.8124,893.48773 844.22925,892.78424 846.63336,892.35986 849.0694,892.2027 Z M193.99791,878.31793 L193.50522,878.522 193.3012,879.01465 193.3012,946.81256 193.50522,947.3053 193.99791,947.5093 207.50682,947.5093 207.9995,947.3053 208.20354,946.81256 208.20354,879.01465 207.9995,878.522 207.50682,878.31793 Z M477.8844,878.31793 L477.3917,878.522 477.18768,879.01465 477.18768,946.81256 477.3917,947.3053 477.8844,947.5093 529.848,947.5093 530.34076,947.3053 530.5448,946.81256 530.5448,934.4347 530.49005,934.16345 530.11926,933.7927 491.14807,933.738 490.95898,933.5488 490.95898,918.2919 491.14807,918.1027 526.455,918.1027 526.9477,917.8987 527.15173,917.40594 527.15173,906.15924 527.09705,905.88794 526.72626,905.5172 491.14807,905.4625 490.95898,905.2734 490.95898,892.27576 491.1465,892.0858 529.58246,891.47943 530.00806,890.87317 530.62585,879.051 530.43536,878.535 529.93005,878.31793 Z M398.9072,878.31824 L378.40485,878.54443 370.24594,878.9431 369.39703,879.2352 369.21066,879.5527 368.8346,881.67065 368.61,886.5451 368.60977,892.52374 368.66452,892.795 369.03528,893.1657 391.04117,893.22046 391.23026,893.4096 391.23026,946.8129 391.4343,947.30566 391.92697,947.5097 405.43588,947.5097 405.7071,947.45496 406.07785,947.0842 406.1326,893.4096 406.3217,893.22046 426.92526,893.22046 427.41797,893.0164 427.62198,892.52374 427.62198,879.01495 427.56726,878.74365 427.1965,878.3729 398.9072,878.31824 Z M706.351,878.107 L705.86444,878.3051 705.6543,878.8037 705.6543,946.8132 705.85834,947.30585 706.35095,947.5099 726.8961,947.42737 732.24896,947.1655 736.9388,946.7033 742.9773,945.5819 748.0645,943.8891 751.1561,942.3727 753.97015,940.60675 755.9554,939.14624 757.8074,937.5795 761.0689,934.1893 762.4797,932.38 764.8652,928.5684 765.8417,926.57935 767.3639,922.4729 767.9114,920.3692 768.5834,916.09424 768.70917,913.9386 768.544,909.62305 767.8285,905.35187 767.2661,903.24994 765.736,899.1493 764.7698,897.1645 762.43915,893.36194 761.07574,891.5574 757.9567,888.17804 754.3211,885.1526 750.17236,882.536 746.1915,880.6649 744.401,880.06793 740.25775,879.28516 733.93304,878.8281 706.351,878.107 Z M266.81158,878.31775 L263.8078,878.41016 260.75592,878.9034 259.64685,879.57697 259.3529,880.8109 259.1272,890.5081 259.12665,914.0381 259.46017,946.28204 259.66696,946.7698 260.15683,946.9713 273.0719,947.5928 273.37823,947.53864 273.74823,947.16815 273.80283,902.2211 273.9236,902.18115 307.3747,947.22754 307.93433,947.5092 320.60904,947.5092 321.1017,947.3052 321.30576,946.8125 321.30576,879.01447 321.1017,878.5218 320.60904,878.31775 307.09393,878.31775 306.82446,878.3717 306.4541,878.7381 305.84567,921.34985 305.71802,921.39124 273.73618,878.5986 273.1772,878.31775 Z M593.6769,878.31775 L590.6733,878.41016 587.63135,878.8995 586.5128,879.57635 586.21826,880.8109 585.99255,890.5081 585.992,914.0381 586.32544,946.28204 586.53217,946.7698 587.0221,946.9713 599.9373,947.5928 600.2436,947.53864 600.6136,947.16815 600.66815,902.2211 600.789,902.18115 634.2401,947.22754 634.79974,947.5092 647.4744,947.5092 647.96716,947.3052 648.17114,946.8125 648.17114,879.01447 647.96716,878.5218 647.4744,878.31775 633.95935,878.31775 633.6899,878.3717 633.3195,878.7381 632.7112,921.34973 632.5834,921.39124 600.60266,878.5986 600.0437,878.31775 Z M128.39859,878.23395 L127.91824,878.42615 127.70194,878.93066 127.70194,922.477 127.580574,922.5173 94.6951,878.5962 94.13804,878.31793 80.89574,878.31793 80.40305,878.522 80.19901,879.01465 80.19901,946.8977 80.403076,947.39044 80.89681,947.5944 93.87945,946.9708 94.49285,946.55273 95.653984,903.6855 95.78359,903.6445 128.10028,947.2166 128.66068,947.4992 135.14731,947.28455 141.3688,946.9725 141.84363,946.7602 142.03877,946.27625 141.98834,879.2915 141.37624,878.85614 128.39859,878.23395 Z M847.6347,876.25867 L842.8767,876.5982 840.60315,877.0276 838.3638,877.655 835.1551,878.86957 832.122,880.33075 829.2755,882.0237 826.62384,883.9349 824.2211,886.00757 821.98206,888.30945 819.9296,890.83545 818.1488,893.4781 816.6095,896.26636 815.3418,899.1316 814.30536,902.1715 813.52484,905.37756 813.03906,908.6143 812.8392,911.9289 812.93036,915.2433 813.3222,918.65546 814.23035,922.96295 814.8547,925.02185 816.4339,928.94275 817.38513,930.8012 819.6012,934.30206 822.22125,937.50055 825.23065,940.37946 828.6124,942.92053 830.43823,944.0593 835.0091,946.3212 837.68823,947.3316 840.44525,948.15393 843.1446,948.75024 848.4411,949.3238 851.14703,949.30804 856.30255,948.6786 858.9189,948.04254 861.37354,947.2373 863.8271,946.21686 866.21954,944.9974 868.5892,943.5498 870.83716,941.9309 872.9569,940.1583 877.24133,935.7655 879.54694,932.7418 881.43463,929.5939 882.9178,926.2868 883.5121,924.5614 884.4139,920.94696 884.94507,917.0839 885.12054,912.95044 884.97125,909.0304 884.51587,905.345 883.7478,901.88165 882.65216,898.60297 881.22076,895.4918 879.4439,892.5282 877.3223,889.70306 874.81964,886.9666 873.056,885.33844 869.11993,882.4599 866.9607,881.20264 862.37006,879.0903 859.9717,878.2425 855.05786,876.98535 850.10406,876.34033 847.6347,876.25867 Z M423.5949,981.1419 L423.10876,981.34 422.89862,981.8386 422.95337,1109.951 423.32413,1110.3217 423.59537,1110.3765 452.07263,1110.3234 452.45004,1109.9443 452.50217,1109.6765 451.888,982.2198 451.52692,981.85156 451.2611,981.79266 423.5949,981.1419 Z M483.53937,981.2434 L483.04837,981.446 482.84277,981.9401 482.84277,1009.01886 483.0468,1009.5116 483.53952,1009.71564 523.3704,1009.71564 523.5596,1009.9048 523.61426,1109.951 523.98505,1110.3217 524.2563,1110.3765 551.60864,1110.3217 551.97943,1109.951 552.0341,1109.6797 552.0341,1009.9024 552.2221,1009.7124 591.4997,1009.1601 591.9853,1008.9527 592.18555,1008.4635 592.1318,982.23096 591.7632,981.85895 591.4931,981.8027 483.53937,981.2434 Z M854.5147,981.1432 L854.0289,981.3405 853.818,981.8399 853.818,1031.9479 853.6288,1032.137 794.262,1032.137 794.07294,1031.9479 794.0182,981.6663 793.64746,981.2956 793.3762,981.24084 767.4261,981.24084 766.93335,981.4449 766.7293,981.9376 766.7293,1109.6797 766.93335,1110.1724 767.4261,1110.3765 793.3762,1110.3765 793.64746,1110.3217 794.0182,1109.951 794.07294,1059.6697 794.262,1059.4806 853.6288,1059.4806 853.818,1059.6698 853.8727,1109.951 854.2434,1110.3217 854.5147,1110.3765 880.4627,1110.3765 880.9561,1110.1716 881.1595,1109.6765 880.54565,982.219 880.1859,981.8511 879.92065,981.7915 854.5147,981.1432 Z M310.4747,981.14124 L288.27255,981.794 287.70764,982.1114 261.3077,1072.4426 261.18115,1072.4471 257.96384,1061.2155 237.72273,986.0739 236.38919,981.5407 235.81651,981.24115 214.45766,981.28687 210.28285,981.5209 209.2487,981.7415 208.47606,982.2408 208.36302,982.5418 208.46841,983.3163 243.73482,1108.2183 244.17119,1109.0127 244.74408,1109.459 245.61769,1109.7897 247.00441,1110.0402 251.77623,1110.3127 275.4039,1110.3768 275.97614,1110.078 285.4435,1076.676 292.71744,1051.7407 298.00085,1034.6436 299.56906,1030.1407 300.0948,1029.0345 303.79367,1041.6719 322.8975,1109.5184 323.47192,1109.8209 354.22192,1110.4799 354.8102,1110.1796 391.15567,982.87317 391.14203,982.44525 390.77237,982.0315 389.7536,981.71783 384.16782,981.3112 363.6128,981.24115 363.04327,981.53613 361.4928,986.61395 341.69296,1060.0687 339.20197,1068.6597 338.4519,1070.9762 338.26926,1071.3739 338.07825,1071.3733 334.54645,1060.5605 330.86987,1048.4083 311.1416,981.6368 310.8898,981.2783 310.4747,981.14124 Z M133.2284,980.1954 L127.301895,980.379 121.684875,980.80365 116.5839,981.4675 112.20856,982.36456 107.30945,983.8249 102.72668,985.52686 96.44265,988.5183 90.94393,991.9768 86.24281,995.8702 82.375916,1000.1548 80.277115,1003.20984 78.57415,1006.4085 77.873955,1008.05865 76.78399,1011.4509 76.115974,1014.9564 75.943535,1016.7475 75.92827,1020.3982 76.36143,1024.1323 76.74904,1026.0243 78.179695,1030.6731 79.358536,1033.2438 80.858376,1035.7245 82.56247,1037.9244 84.681694,1040.102 87.08079,1042.0906 89.78383,1043.9308 92.91277,1045.7012 96.417854,1047.366 100.356064,1048.952 104.7267,1050.4604 109.549706,1051.9021 120.63317,1054.6277 146.27634,1059.7144 152.70238,1061.3866 155.39047,1062.2478 159.75475,1064.0388 162.97163,1066.0187 164.14105,1067.0652 165.05038,1068.1519 165.7518,1069.3344 166.23544,1070.5955 166.52132,1071.9692 166.60953,1073.4117 166.4504,1075.4208 165.98163,1077.2849 165.21706,1078.9878 164.08665,1080.6532 162.62833,1082.1938 160.873,1083.6034 158.7432,1084.9475 154.13058,1087.1642 150.41902,1088.4132 148.31978,1088.7913 142.6315,1089.1748 133.44304,1089.2534 121.581154,1088.9264 116.70004,1088.4618 112.29425,1087.7563 108.073654,1086.7603 103.837906,1085.4296 99.45803,1083.752 89.22959,1079.3618 87.38759,1078.7296 86.60343,1078.7341 85.6544,1080.0652 84.09385,1082.7749 76.29312,1097.3177 74.93667,1100.2025 75.01629,1100.8441 75.9499,1101.4291 78.399574,1102.5192 85.78691,1105.373 98.272766,1109.6371 104.00496,1111.1804 109.840065,1112.177 120.05873,1113.2001 127.40726,1113.5576 134.80492,1113.6445 145.31676,1113.2471 151.45207,1112.6182 158.74748,1111.22 163.0524,1110.086 167.06168,1108.7883 170.7793,1107.3241 174.27237,1105.6566 177.4133,1103.8464 180.21547,1101.9032 182.83244,1099.7092 185.0668,1097.4327 187.06535,1094.9392 188.82893,1092.194 190.26717,1089.335 191.40726,1086.362 192.31534,1083.0806 192.92996,1079.6825 193.37894,1073.2096 193.18793,1067.8333 192.40111,1062.9912 191.0162,1058.8054 190.06725,1056.8606 188.9436,1055.0199 187.59851,1053.2245 186.10701,1051.5708 182.59988,1048.5204 178.22165,1045.6412 172.01726,1042.4291 168.27257,1040.7937 164.30582,1039.3029 159.94862,1037.9033 149.37312,1035.1631 123.19793,1029.6368 115.20971,1027.4921 112.38221,1026.4501 110.13005,1025.3722 108.28223,1024.1962 106.10729,1022.24994 105.13503,1020.82385 104.2891,1018.3968 104.13819,1016.7231 104.309616,1014.9943 105.20001,1012.4662 106.83854,1010.24835 108.5904,1008.82654 110.81748,1007.57434 113.44375,1006.512 116.413475,1005.64026 119.77921,1004.9385 123.39228,1004.43195 131.3387,1003.9757 139.96696,1004.27014 144.43661,1004.701 153.48259,1006.13354 157.97675,1007.13684 162.39868,1008.3324 169.33856,1010.52014 171.67693,1011.0782 173.8867,1011.30774 174.47841,1010.94403 176.10104,1007.61505 182.02292,993.6451 183.22066,990.2932 183.18942,989.8455 182.89128,989.51 180.43704,988.4452 173.39493,986.18335 164.555,983.7837 156.24028,981.9283 151.01329,981.1194 145.29712,980.5618 139.30717,980.25507 133.2284,980.1954 Z M680.3891,977.42474 L676.0436,977.55023 671.62305,977.95795 668.6813,978.40216 662.9407,979.66125 660.1345,980.476 654.6568,982.47327 649.36597,984.9579 646.79364,986.3818 641.8004,989.5903 637.01794,993.2758 632.45575,997.43475 627.97144,1002.2736 623.8431,1007.67737 620.32416,1013.349 617.41364,1019.2466 615.1117,1025.3258 613.41754,1031.5436 612.3298,1037.8597 612.01355,1041.0394 611.83514,1047.4196 612.26215,1053.79 612.70245,1056.9578 614.0362,1063.2317 615.9737,1069.3882 618.5141,1075.3845 621.6569,1081.1776 625.4009,1086.7242 629.74634,1091.9829 635.757,1097.9637 639.3404,1101.0261 642.97217,1103.7247 646.6707,1106.0654 650.5561,1108.1166 654.5676,1109.8531 658.8053,1111.3381 663.3982,1112.6268 667.3034,1113.5148 671.21136,1114.1818 675.11285,1114.6276 679.0011,1114.8534 682.8719,1114.8604 686.7184,1114.6493 690.5345,1114.2211 694.31335,1113.577 698.0518,1112.7175 701.7409,1111.6442 705.3757,1110.3575 708.9501,1108.859 712.45825,1107.1494 715.89484,1105.2292 719.25226,1103.1005 722.52454,1100.7643 725.10583,1098.6981 730.3092,1093.8234 734.6534,1088.981 736.1826,1086.9294 737.1478,1085.2198 737.2522,1084.2394 734.06445,1081.1036 726.8611,1074.6923 717.39136,1066.4061 716.92334,1066.2257 716.3604,1066.5115 712.27454,1071.7183 710.7835,1073.3541 707.57574,1076.3228 704.09863,1078.887 702.27356,1080.0149 698.4683,1081.966 694.4952,1083.5037 690.3922,1084.6262 686.20154,1085.33 681.96094,1085.6123 677.71155,1085.47 673.49274,1084.8997 669.34515,1083.8988 665.3091,1082.4642 661.42474,1080.5933 659.55225,1079.4933 655.97,1076.9619 654.271,1075.5303 652.66364,1074.0115 650.6748,1071.8036 648.56824,1069.0891 646.64124,1066.2672 644.14685,1061.7225 642.8678,1058.4692 642.46765,1056.7612 642.046,1052.5697 641.95013,1046.3539 642.1921,1037.9863 642.795,1034.3463 643.2901,1032.7534 644.78033,1029.4275 646.4761,1026.306 648.4626,1023.34094 650.68024,1020.6004 653.104,1018.0884 655.74335,1015.78406 658.5611,1013.71375 661.55273,1011.87775 664.64386,1010.3132 667.86475,1009.0027 671.17596,1007.96515 674.5555,1007.2102 677.9812,1006.7476 681.43146,1006.5873 684.8834,1006.7388 688.34,1007.2171 691.70685,1008.01587 694.8114,1009.02356 697.8828,1010.2731 700.8151,1011.7144 703.61865,1013.3439 706.2284,1015.11725 708.6858,1017.0636 710.9257,1019.1419 716.383,1025.51 716.9206,1025.7622 717.3607,1025.6047 727.0003,1017.605 737.6267,1008.15265 737.85785,1007.5467 737.7067,1007.1903 733.6703,1002.2194 730.81946,998.9787 727.75616,995.9286 724.5091,993.0923 721.09033,990.47363 717.51196,988.0766 713.79144,985.90967 709.9384,983.9753 705.9691,982.28033 701.8961,980.8296 697.73303,979.62836 693.4936,978.6817 689.192,977.99536 684.8404,977.5744 680.3891,977.42474 Z " />
</g></svg>