<?xml version="1.0" encoding="UTF-8"?>
<!DOCTYPE svg PUBLIC "-//W3C//DTD SVG 1.0//EN" "http://www.w3.org/TR/2001/REC-SVG-20010904/DTD/svg10.dtd">
<svg shape-rendering="geometricPrecision" text-rendering="geometricPrecision" image-rendering="optimizeQuality" fill-rule="evenodd" xml:space="preserve" 
 xmlns="http://www.w3.org/2000/svg" xmlns:xlink="http://www.w3.org/1999/xlink"  viewBox="0 0 2800.4926508665085 710.2942504882812" width="280.04926508665085mm" height="71.02942504882813mm" >
<g><path fill="#000000" d="M1379.5065,203.97989 L1377.6987,204.12106 1375.8495,204.64134 1373.847,205.7554 1372.4243,207.04965 1371.2576,208.6172 1370.4214,210.36578 1369.9933,211.90982 1369.7988,214.07848 1369.7988,235.78107 1370.0299,237.59018 1370.6014,239.33014 1371.6864,241.17326 1372.8931,242.48691 1374.0449,243.37065 1375.639,244.2007 1377.3937,244.71262 1379.3192,244.87596 1403.4597,244.87994 1405.2949,244.748 1407.4915,244.14589 1409.217,243.25424 1410.5035,242.26953 1411.7983,240.84598 1412.7666,239.18372 1413.3602,237.35931 1413.5697,235.18675 1413.5602,213.8491 1413.3789,212.11073 1412.8218,210.22171 1411.7335,208.23184 1410.4828,206.77773 1408.9788,205.58804 1407.2584,204.70073 1405.3652,204.15747 1403.4515,203.97989 Z M429.35022,244.47083 L436.8819,244.68018 443.85098,245.29805 450.23776,246.30156 456.249,247.72008 461.77902,249.53949 466.88162,251.78998 471.3758,254.37206 475.43356,257.38123 479.00613,260.79465 482.14978,264.68686 484.73584,268.85638 486.8912,273.4986 488.5713,278.54367 489.7822,284.04767 490.4972,289.8297 490.73825,296.0631 490.48996,302.34952 489.77054,308.14215 488.56543,313.58926 486.85336,318.7008 484.7232,323.27853 482.09048,327.51364 478.9857,331.33777 475.40982,334.74792 471.2877,337.7906 466.79712,340.36365 461.75467,342.5779 456.22687,344.39407 450.17072,345.8181 443.63272,346.836 436.68747,347.4384 429.31378,347.6371 361.5207,347.6364 361.04584,347.16156 361.04584,244.9457 361.5207,244.47083 Z M661.6698,310.1822 L667.59546,310.27963 673.38385,311.03192 679.01843,312.4161 684.4496,314.4106 689.6262,316.9937 694.49927,320.14407 699.01764,323.8396 703.1316,328.0591 706.8793,333.09692 710.13806,338.4301 712.8885,344.0143 715.1179,349.81262 716.8149,355.789 717.9669,361.90643 718.5627,368.18365 718.58466,374.90744 718.1098,375.38446 605.6947,375.38446 605.2204,374.90942 605.2328,368.13092 605.80304,361.93048 606.91754,355.8284 608.5648,349.85986 610.7336,344.0608 613.4123,338.4662 616.5898,333.1111 620.31415,327.96616 624.34656,323.7897 628.8554,320.07416 633.7256,316.91174 638.90546,314.32495 644.3427,312.33615 649.9861,310.96774 655.7827,310.2424 661.6698,310.1822 Z M2161.0632,310.18243 L2166.971,310.2818 2172.7568,311.03558 2178.3884,312.4207 2183.8174,314.4155 2188.992,316.9982 2193.8625,320.14758 2198.378,323.84164 2202.4895,328.0591 2206.2373,333.09692 2209.496,338.4301 2212.2463,344.0143 2214.4763,349.81262 2216.1729,355.789 2217.325,361.90643 2217.9207,368.18634 2217.9426,374.90744 2217.4678,375.38446 2105.1091,375.38446 2104.6348,374.90942 2104.6467,368.13092 2105.2168,361.93048 2106.3306,355.8284 2107.978,349.85986 2110.1467,344.0608 2112.8254,338.4662 2116.0024,333.1111 2119.7263,327.96616 2123.7595,323.7897 2128.2688,320.07416 2133.1392,316.91174 2138.3188,314.32495 2143.757,312.33615 2149.4006,310.96774 2155.1985,310.2424 2161.0632,310.18243 Z M2386.4377,312.6297 L2393.1465,312.91516 2399.454,313.76968 2405.3674,315.19006 2410.883,317.17346 2415.9968,319.71738 2420.7063,322.81992 2425.0083,326.4788 2428.94,330.7446 2432.401,335.37506 2435.5063,340.35474 2438.1562,345.51962 2440.3433,350.82166 2442.0996,356.33893 2443.3926,361.99234 2444.2117,367.75412 2444.8574,379.88202 2444.9585,389.5325 2444.8525,398.97363 2444.1533,411.0814 2443.3042,417.05847 2442.0073,422.93863 2440.2554,428.73874 2438.1047,434.30536 2435.516,439.7424 2432.5142,444.98184 2429.107,449.99954 2425.337,454.40894 2421.1143,458.23337 2416.4414,461.4743 2411.3225,464.1305 2405.76,466.20053 2399.7578,467.6822 2393.3188,468.5728 2386.4482,468.86963 2379.4736,468.56134 2372.9373,467.63983 2366.845,466.1079 2361.201,463.96808 2356.0083,461.22296 2351.271,457.87463 2346.9922,453.92422 2343.177,449.37296 2339.813,444.20554 2336.8901,438.40906 2334.4104,431.98932 2332.3762,424.95264 2330.773,417.20453 2329.6448,408.96185 2328.9678,400.12164 2328.744,390.66925 2329.1538,378.8781 2329.659,371.6078 2330.5483,364.71085 2331.8206,358.1599 2333.4438,352.0641 2335.469,346.22653 2337.8716,340.75 2340.6506,335.64044 2343.804,330.90213 2347.3943,326.63644 2351.4856,322.93796 2356.0784,319.80307 2361.1692,317.23334 2366.7566,315.23032 2372.8374,313.7962 2379.4077,312.934 2386.4377,312.6297 Z M1176.951,284.36426 L1174.9445,284.45093 1172.8633,284.9171 1170.6168,285.93518 1169.1257,286.99176 1167.8593,288.24728 1165.7753,291.6271 1116.6661,445.7523 1116.3846,445.74948 1070.6493,291.2064 1069.5265,288.8723 1067.5955,286.80078 1066.0543,285.72668 1064.3726,284.96295 1062.6456,284.52573 1043.5422,284.37796 1041.5159,284.6606 1039.9603,285.2203 1038.811,285.88037 1037.3113,287.1792 1036.4974,288.21558 1035.7119,289.67932 1035.2184,291.294 1035.0557,292.96994 1035.8931,297.4241 1094.5828,489.02725 1095.4801,490.8582 1096.7504,492.76974 1098.5969,494.73566 1100.5245,495.86432 1102.3922,496.57956 1104.968,497.071 1124.0431,497.04224 1126.4077,496.59128 1128.5757,495.76126 1130.613,494.55255 1132.5933,492.8177 1134.0505,490.97375 1135.1821,488.8735 1135.9048,486.7546 1183.2911,340.2136 1183.5989,340.2136 1231.8217,489.168 1232.8217,490.9738 1234.2788,492.81778 1236.2587,494.55258 1238.2656,495.74927 1240.171,496.5039 1242.4796,497.00647 1261.9077,497.071 1264.1866,496.6629 1266.345,495.8637 1268.2693,494.7354 1270.1184,492.76904 1271.2693,491.06647 1272.295,489.0132 1273.0529,486.76093 1331.0103,297.41544 1331.8396,292.94113 1331.6683,291.24902 1331.1608,289.60727 1330.1658,287.87204 1329.0607,286.64536 1328.024,285.83142 1326.2408,284.9204 1324.6024,284.4914 1322.9893,284.37344 1304.2262,284.5256 1302.5155,284.95892 1300.8333,285.7226 1299.2924,286.79636 1297.3624,288.8689 1296.2372,291.2214 1250.5089,445.74948 1250.2275,445.7523 1201.1177,291.6267 1199.2706,288.54828 1198.0052,287.19547 1195.9857,285.7682 1194.0342,284.91766 1191.9515,284.45078 1190.0579,284.366 1176.951,284.36426 Z M1382.143,284.3775 L1380.3352,284.60852 1378.5952,285.18005 1377.0256,286.06598 1375.6659,287.2278 1374.5554,288.623 1373.7255,290.21643 1373.2135,291.9708 1373.0502,293.89523 1373.0624,488.24344 1373.2772,489.81454 1373.8485,491.5546 1374.9333,493.39758 1376.1399,494.71112 1377.2919,495.59503 1379.2067,496.54712 1380.6405,496.93713 1382.5659,497.1006 1401.4052,497.08865 1402.9778,496.875 1404.7218,496.30392 1406.2922,495.4185 1407.6528,494.25677 1408.7643,492.86127 1409.5951,491.26672 1410.1084,489.5103 1410.2731,487.58466 1410.2612,293.24863 1410.0476,291.67706 1409.4764,289.93307 1408.3938,288.09073 1407.186,286.77454 1406.034,285.88947 1404.1189,284.93646 1402.3436,284.4884 1400.759,284.3815 1382.143,284.3775 Z M1863.3987,206.83969 L1841.3875,206.96307 1839.5126,207.39352 1837.5238,208.33928 1835.9917,209.53653 1834.9985,210.75476 1834.0769,212.47557 1833.4877,214.76381 1833.3951,488.00113 1833.7079,490.14902 1834.3422,491.8621 1835.0845,493.1217 1836.2466,494.48264 1837.9286,495.77274 1839.5579,496.54648 1840.9927,496.937 1842.9196,497.1006 1862.3066,497.10458 1864.1125,496.878 1865.8568,496.31015 1867.4292,495.42746 1868.7905,494.27014 1870.0847,492.59207 1870.8625,490.9658 1871.2567,489.53253 1871.4254,487.6091 1871.4305,374.38156 1871.6744,367.41708 1872.4158,360.73337 1873.6246,354.52582 1875.3248,348.65317 1877.5337,343.11032 1880.1613,338.07706 1883.2931,333.38177 1886.9543,329.0327 1891.1469,325.15262 1895.7538,321.71692 1900.7292,318.77322 1905.8525,316.42374 1911.2545,314.60162 1916.8323,313.3531 1922.5417,312.6954 1928.4106,312.64795 1934.8394,312.9045 1941.0079,313.68652 1946.6787,314.9548 1952.0139,316.74118 1956.9552,319.03125 1961.499,321.82233 1965.6962,325.16602 1969.3778,328.89865 1972.6954,333.145 1975.6055,337.86972 1978.0188,342.89487 1980.0211,348.3911 1981.5814,354.29642 1982.6985,360.6064 1983.3763,367.4208 1983.5944,374.47083 1983.5935,487.9979 1983.905,490.14697 1984.5381,491.8607 1985.2797,493.1203 1986.4391,494.47882 1988.1433,495.78156 1989.7504,496.54498 1991.1388,496.92355 2012.947,497.104 2015.0892,496.79004 2016.8,496.15543 2018.3318,495.2141 2019.419,494.24985 2020.7085,492.56754 2021.4819,490.93814 2021.8721,489.50314 2022.0355,487.57318 2022.0399,371.99783 2021.7867,362.56998 2020.7717,353.03967 2019.026,343.75677 2016.5914,334.77118 2013.6077,326.87576 2009.8613,319.33673 2005.3807,312.20615 2000.2018,305.5469 1994.5168,299.6869 1988.1996,294.54184 1981.3484,290.18433 1973.7701,286.54196 1965.3159,283.7097 1956.624,281.7132 1947.7723,280.57147 1933.8312,280.27805 1928.7695,280.5519 1923.6768,281.11963 1918.6285,281.9753 1913.6393,283.11603 1908.7167,284.54053 1903.8754,286.24573 1899.1132,288.23785 1895.0479,290.41214 1887.2373,295.5064 1880.2122,301.31308 1876.941,304.52164 1871.8022,310.47845 1871.4469,310.34634 1871.4469,214.82063 1871.0106,212.73624 1870.2987,211.17264 1869.3137,209.80188 1868.0902,208.65042 1866.668,207.7516 1865.0864,207.1376 1863.3987,206.83969 Z M1494.6798,206.84149 L1492.959,206.95213 1491.1641,207.42781 1489.5121,208.2715 1488.0708,209.45137 1486.8945,210.97066 1486.0632,212.64598 1485.5214,214.83752 1485.4102,283.89413 1484.9348,284.36865 1453.5128,284.36545 1451.3682,284.54416 1449.9434,284.9544 1448.2936,285.79672 1446.8522,286.97824 1445.6765,288.49756 1444.8442,290.17184 1444.3541,291.93222 1444.1842,308.0648 1444.5359,310.1095 1445.1757,311.6828 1445.8889,312.81348 1447.0043,314.04504 1448.6237,315.21167 1450.1617,315.8835 1451.4587,316.1948 1484.8909,316.30194 1485.3656,316.77734 1485.3654,425.40356 1485.5132,433.2337 1486.2188,441.11334 1487.4811,448.9246 1489.3516,456.822 1491.3347,462.7249 1494.0088,468.52487 1497.4083,474.15298 1501.331,479.2481 1505.6464,483.49496 1510.4417,487.17526 1515.4608,490.14493 1521.0205,492.5864 1527.8096,494.65424 1534.8744,496.12057 1541.9326,496.92606 1548.8291,497.104 1576.5369,497.10785 1578.3097,496.9962 1580.1008,496.5253 1582.0588,495.4787 1583.4694,494.21954 1584.5452,492.70563 1585.2059,491.3165 1585.7485,489.12296 1585.7485,472.3593 1585.2051,470.16522 1584.3733,468.49237 1583.1958,466.97177 1582.0618,466.00134 1580.4683,465.09872 1578.2494,464.48273 1551.7036,464.36264 1547.8507,464.19635 1544.2454,463.69608 1540.8635,462.83963 1537.9253,461.7087 1535.215,460.227 1532.7872,458.40103 1530.7423,456.34283 1528.892,453.85138 1527.3389,451.07645 1525.9863,447.96768 1524.8385,444.5313 1523.896,440.7705 1522.6342,432.28622 1522.2114,422.49918 1522.213,316.77808 1522.6879,316.30325 1572.4862,316.30618 1574.6198,316.1453 1576.4218,315.6452 1578.0962,314.81204 1579.6136,313.6369 1580.7977,312.19174 1581.4994,310.88654 1582.0364,309.16174 1582.2219,293.48038 1581.9116,291.32632 1581.4227,289.92572 1580.5372,288.35638 1579.1328,286.77014 1577.6951,285.7077 1576.3876,285.05673 1574.2239,284.49634 1522.7052,284.37915 1522.2302,283.90338 1522.2302,215.94608 1522.0007,214.13976 1521.4297,212.3963 1520.5442,210.82571 1519.1392,209.23833 1517.7008,208.17456 1516.3926,207.52249 1514.7108,207.02968 1494.6798,206.84149 Z M331.44275,210.90482 L329.71664,211.01555 327.92218,211.49063 326.2715,212.33377 324.8404,213.50647 323.62128,215.1394 322.7811,216.91908 322.2913,218.82326 322.1644,220.8756 322.15945,487.368 322.26834,489.174 322.7062,490.99042 323.6536,492.9796 324.55997,494.2063 325.96237,495.46567 327.57767,496.38068 329.3031,496.9195 351.08585,497.10355 352.78308,496.9725 354.6598,496.48587 356.6967,495.4692 357.9814,494.48068 359.27402,493.06012 360.38724,491.059 360.90802,489.20953 361.05017,487.40088 361.05017,382.07803 361.52502,381.60318 432.95584,381.60318 433.44272,381.88495 494.43393,488.13092 497.6097,492.2598 499.4482,494.06006 501.68405,495.47736 504.0772,496.4497 506.93463,497.02814 527.2215,497.1087 528.79395,496.9294 530.394,496.44724 532.0917,495.50873 533.3054,494.46344 534.30646,493.21033 535.0626,491.7811 535.54175,490.21103 535.69147,488.45395 535.3965,486.51337 534.4134,483.9875 472.04324,375.85028 472.29163,375.24402 478.21082,373.60037 484.4575,371.2493 490.67908,368.24716 496.41647,364.8124 501.66013,361.0175 506.78638,356.58 511.27036,351.95886 515.4324,346.86423 519.22003,341.3016 522.44006,335.55112 525.10156,329.66656 527.30695,323.40118 528.996,316.7707 530.0691,310.1037 530.5421,303.45093 530.13086,287.14035 528.93646,277.82666 526.8376,268.67938 523.8535,259.78296 520.07544,251.98985 515.62427,245.1069 510.23965,238.64548 504.08215,232.86783 496.85974,227.56506 489.17392,223.0378 481.07538,219.30609 472.62634,216.40134 462.25653,213.86774 451.89923,212.1272 441.44254,211.13884 431.0336,210.90527 331.44275,210.90482 Z M896.0349,206.8328 L889.297,206.85477 882.4961,207.23067 875.7356,207.96 869.0247,209.0405 862.37646,210.46996 855.81287,212.24437 849.3395,214.36269 842.97845,216.81886 837.9086,219.13094 833.01154,221.79117 828.3211,224.78055 823.85925,228.08223 819.6358,231.68765 815.66876,235.5831 811.9743,239.75542 808.5497,244.22215 805.6777,248.81476 803.25305,253.46085 801.1936,258.26654 799.5081,263.20447 798.2006,268.26074 797.27997,273.40485 796.7612,278.4785 796.6112,288.84192 796.931,293.5935 797.60394,298.4827 798.6174,303.30658 799.96594,308.04477 801.64703,312.68475 803.6555,317.2057 805.9973,321.60144 808.75354,325.51892 811.74493,329.2262 814.95935,332.72882 818.38794,336.01947 822.01447,339.083 825.83545,341.9164 829.8325,344.5041 834.00104,346.8405 846.1214,352.662 858.5177,357.81052 871.1753,362.28293 899.62396,370.79285 913.0673,375.1231 924.46295,379.07623 933.75775,382.63486 940.58014,385.5559 946.9568,389.12488 952.97516,393.38693 958.53955,398.30038 960.4919,400.6754 962.21674,403.24777 963.67993,405.9622 964.8737,408.79837 965.7908,411.7354 966.4236,414.7534 966.76483,417.83112 966.65485,425.93762 965.86346,430.8917 964.522,435.5102 962.5949,439.98334 960.1291,444.18332 957.1503,448.05853 953.62244,451.6081 949.7598,454.6264 945.2307,457.47107 940.142,459.9401 934.4946,462.03415 928.2496,463.76102 921.4486,465.10632 914.17206,466.05704 906.3551,466.62784 898.0016,466.81625 890.2059,466.61594 882.8538,466.0232 875.9589,465.03983 869.63135,463.6942 863.6214,461.92743 858.1783,459.81293 853.16327,457.29865 848.56256,454.3594 844.8395,451.68024 841.3146,448.5937 838.1886,445.2929 835.3548,441.6748 832.87195,437.80664 830.75806,433.71396 829.03156,429.42206 827.2034,423.36777 826.3905,421.73578 825.33374,420.29596 824.06256,419.06046 822.6052,418.05124 821.02435,417.30762 819.27484,416.81552 817.2074,416.61444 795.2768,416.818 793.70306,417.3072 792.48065,417.94672 791.0858,419.0399 790.0076,420.25412 789.0451,421.9903 788.59045,423.56128 788.4573,425.18768 788.88934,430.17706 789.6834,435.0505 790.8679,439.9683 792.4174,444.77148 794.3813,449.5663 796.6499,454.0837 799.1899,458.3184 802.21533,462.58682 805.9362,467.01007 810.04645,471.29214 814.4245,475.28806 819.0498,478.9817 823.9083,482.36273 828.9825,485.41855 834.2606,488.13974 839.7467,490.52145 846.7446,493.14035 853.8497,495.39615 861.0508,497.28738 868.3333,498.81155 875.6832,499.96585 883.0873,500.74832 890.5053,501.1563 909.2985,500.94797 920.4959,499.98016 931.6439,498.271 942.70996,495.8161 951.8344,493.00534 960.6555,489.3703 969.1054,484.93918 977.24677,479.65616 980.5258,477.15994 983.76587,474.36887 986.8227,471.39258 989.6898,468.2388 992.3603,464.91626 994.82605,461.4342 997.0794,457.8015 999.12445,453.99924 1000.9499,449.79932 1003.70496,441.6074 1005.55566,432.99768 1006.4277,424.045 1006.4938,414.70193 1006.1573,409.92816 1005.45386,405.07532 1004.3588,400.1643 1002.978,395.59888 1001.21783,391.02127 999.05566,386.46 996.56525,382.11862 993.7262,378.43427 990.5221,374.78598 987.0938,371.35757 983.45703,368.16248 979.62134,365.20825 975.5992,362.50476 971.4017,360.0614 967.0223,357.8798 953.71564,352.0756 940.18085,346.86758 926.4285,342.2584 900.72296,334.75992 889.19617,330.95755 877.77637,326.8135 866.4456,322.31683 860.07733,319.37244 854.0367,315.7136 848.4407,311.40558 843.3275,306.45612 841.5339,303.96973 839.9521,301.3017 838.61865,298.51416 837.5397,295.625 836.7202,292.65112 836.16656,289.611 835.8838,286.5217 835.9526,278.63376 836.64087,274.00974 837.9137,269.54843 839.74396,265.30417 842.1047,261.33054 844.9687,257.6807 848.3097,254.40749 852.0996,251.5644 856.37604,249.02834 860.922,246.87189 865.88556,245.02199 871.21063,243.50519 876.99054,242.30602 883.01404,241.46754 889.40796,240.96404 901.6824,240.80748 907.27277,241.23296 912.8052,242.06877 918.2976,243.32182 923.5958,244.94708 928.8095,246.97784 933.8726,249.39497 938.7623,252.19232 942.5249,254.73415 945.94635,257.64185 949.01276,260.8869 951.7016,264.43552 953.98987,268.25473 955.8556,272.31107 957.2757,276.57144 958.2674,281.12064 958.8168,282.6853 959.7178,284.36502 960.8853,285.87216 962.294,287.1699 963.7166,288.0906 965.2497,288.76416 966.86383,289.18634 968.7423,289.36124 989.6084,289.34775 991.38873,289.09094 992.9781,288.52115 994.128,287.8615 995.3997,286.80405 996.6263,285.24347 997.3567,283.74545 997.78766,282.10458 997.8909,280.38138 997.4154,275.9738 996.6115,271.47495 995.48065,267.00204 994.0382,262.62555 992.2903,258.362 990.24316,254.22762 987.8351,250.13254 985.2666,246.40115 981.7739,241.94876 978.01935,237.73729 974.0157,233.77731 969.7757,230.0795 965.31274,226.65443 960.63934,223.51274 955.77094,220.66626 950.71155,218.12067 944.2257,215.3415 937.6143,212.94876 930.89,210.94307 924.0621,209.32603 917.1556,208.10321 910.1871,207.2774 903.16833,206.85191 896.0349,206.8328 Z M2161.1514,280.30234 L2151.5986,280.60706 2141.944,281.82794 2132.6062,283.9162 2123.4668,286.8833 2115.5754,290.48813 2107.8145,295.1206 2100.766,300.46515 2094.33,306.56226 2088.3901,313.49802 2083.1692,320.96396 2078.7026,328.904 2075.0237,337.26495 2071.8481,346.90695 2069.466,356.63657 2067.8284,366.6529 2066.9812,376.76578 2066.5686,390.23648 2066.9717,404.139 2067.8186,414.55908 2069.4263,424.58145 2071.838,434.58115 2075.0244,444.36725 2078.68,452.74783 2083.141,460.70996 2088.3716,468.18954 2094.33,475.12354 2100.7764,481.17838 2107.8308,486.485 2115.4158,490.98856 2123.6533,494.71872 2132.7656,497.63593 2142.1243,499.69696 2151.655,500.88068 2161.0208,501.18423 2166.942,501.13885 2172.8943,500.77542 2178.8103,500.09567 2184.678,499.10233 2190.486,497.7971 2196.2163,496.1843 2202.004,494.20956 2211.937,489.9905 2216.215,487.7682 2224.226,482.77502 2231.8171,476.8575 2235.358,473.6184 2238.8608,470.0329 2243.6775,463.9103 2247.1267,458.2321 2248.2676,455.72934 2249.1448,453.18472 2249.6792,450.75693 2249.8691,448.45862 2249.6465,446.5067 2249.0657,445.03317 2248.1477,443.73535 2246.9866,442.70218 2245.514,441.80045 2244.1892,441.24692 2242.5828,440.84784 2222.7537,440.69168 2218.949,440.88678 2216.023,441.6368 2215.321,442.0003 2212.5347,444.3743 2205.8496,452.2544 2201.4927,456.38 2196.778,460.10013 2191.7363,463.38657 2188.0432,465.3102 2184.326,466.92325 2180.515,468.26913 2176.6265,469.34467 2172.6672,470.14792 2168.6597,470.67422 2164.7188,470.91776 2154.8638,470.71384 2149.2236,469.87167 2143.754,468.38705 2138.444,466.2513 2133.5427,463.5903 2128.907,460.32733 2124.6055,456.46622 2120.8425,452.19727 2117.2183,447.18893 2114.0713,442.0138 2111.336,436.5759 2109.0479,430.9451 2107.2178,425.14932 2105.8562,419.21646 2104.9722,413.1735 2104.5732,406.95227 2104.5762,404.11667 2105.0518,403.64096 2246.4832,403.64096 2248.2896,403.4114 2250.3428,402.6959 2251.6013,401.95422 2252.961,400.79175 2254.25,399.11002 2254.9014,397.80017 2255.4026,396.08405 2255.581,386.7141 2255.308,375.58713 2254.1685,364.38022 2252.2222,353.5629 2249.4343,342.82367 2247.8235,338.04306 2244.0256,329.10837 2239.45,320.78232 2233.8647,312.68045 2230.912,309.02637 2227.7808,305.58652 2224.4607,302.34656 2220.9614,299.31308 2217.293,296.4938 2213.4646,293.89536 2209.4868,291.5252 2205.3667,289.38934 2200.949,287.43335 2191.422,284.24216 2181.49,281.9504 2171.2148,280.61978 2161.1514,280.30234 Z M661.73425,280.30234 L652.18256,280.60794 642.6898,281.80075 633.19196,283.91638 624.052,286.88345 616.15924,290.48843 608.398,295.12015 601.3471,300.46576 594.9088,306.5626 589.0771,313.36136 583.7518,320.96298 579.2845,328.90536 575.60724,337.26447 572.42914,346.9078 570.0201,356.77094 568.4113,366.65408 567.56683,376.76578 567.1477,390.23416 567.5574,404.139 568.4028,414.55853 570.0355,424.71298 572.42004,434.57938 575.60736,444.36627 579.26044,452.746 583.7219,460.71005 588.94965,468.18704 594.90936,475.12347 601.3578,481.17874 608.4122,486.48456 615.99976,490.98874 624.2383,494.7185 633.19507,497.59323 642.70984,499.6968 652.24036,500.88068 661.6119,501.1845 667.5629,501.13904 673.5142,500.77597 679.4293,500.0969 685.2956,499.1041 691.10266,497.79898 696.83105,496.1862 702.61945,494.2098 712.5491,489.99103 716.82886,487.76797 724.8399,482.77505 732.4303,476.85757 735.9704,473.6184 739.47015,470.0353 744.29175,463.9112 747.74164,458.23492 748.883,455.73242 749.75977,453.19116 750.29504,450.7627 750.48486,448.47116 750.2597,446.5148 749.67755,445.03757 748.7621,443.73935 747.5984,442.70135 746.1301,441.80627 744.52747,441.16483 743.19855,440.856 723.3697,440.70007 719.52856,440.9004 716.6369,441.64075 715.89343,442.0397 713.1485,444.38046 706.46436,452.26062 702.1075,456.3861 697.39215,460.10513 692.35,463.39102 688.65765,465.3136 684.9405,466.92648 681.13153,468.27216 677.238,469.34973 673.28375,470.1529 669.2736,470.6799 665.3326,470.9233 655.4775,470.71927 649.83765,469.87723 644.3676,468.39233 639.058,466.25616 634.15656,463.5949 629.52167,460.33234 625.2208,456.47244 621.45874,452.20605 617.83295,447.1951 614.68787,442.02124 611.95294,436.58197 609.6655,430.94998 607.83624,425.15335 606.4746,419.21945 605.59076,413.1766 605.19147,406.95633 605.19434,404.12534 605.6699,403.64975 747.0849,403.64975 748.8933,403.4176 750.9454,402.70065 752.478,401.75925 753.56537,400.7954 754.85535,399.11322 755.50665,397.80557 756.00806,396.09027 756.18646,386.71844 755.9165,375.5905 754.79956,364.52017 752.8385,353.56735 750.0566,342.82812 748.4446,338.0469 744.6426,329.1098 740.06415,320.78348 734.47595,312.6825 731.5194,309.02637 728.38635,305.58517 725.0641,302.3445 721.5622,299.31064 717.88885,296.48972 714.0596,293.8932 710.0787,291.52374 705.95734,289.38947 701.5345,287.43335 691.8422,284.19528 681.9092,281.9198 671.79944,280.61884 661.73425,280.30234 Z M2453.6545,206.85011 L2451.846,207.081 2450.1062,207.65242 2448.5369,208.53845 2447.177,209.7006 2446.067,211.09456 2445.2368,212.68964 2444.676,214.85158 2444.557,309.48767 2444.219,309.60803 2442.1484,307.07568 2439.0312,303.69626 2435.7222,300.5165 2432.2285,297.54233 2428.5667,294.78644 2424.7402,292.25226 2420.7605,289.94894 2416.6064,287.87167 2412.1064,286.04034 2407.5085,284.45413 2402.8389,283.11877 2398.1074,282.036 2393.3276,281.20874 2388.505,280.63788 2383.66,280.326 2373.9656,280.30356 2364.28,281.11032 2355.049,282.8416 2350.4255,284.07788 2341.4133,287.25406 2337.5024,289.0912 2333.7195,291.1767 2330.0833,293.4926 2326.6035,296.03107 2323.2913,298.78378 2320.1536,301.74496 2317.2075,304.90118 2314.3557,308.38565 2309.2751,315.61542 2304.7583,323.3482 2300.85,331.57315 2297.7026,339.9749 2295.082,349.25058 2293.079,358.85278 2291.7532,368.5743 2291.1106,378.436 2290.701,390.63144 2291.1055,402.9421 2291.7288,412.7364 2293.0352,422.52472 2295.0168,432.19492 2297.6855,441.76065 2300.8442,450.28113 2304.5837,458.21997 2309.0557,465.94626 2314.182,473.28137 2316.8862,476.59717 2319.816,479.7501 2322.935,482.70258 2326.233,485.4475 2329.6997,487.9761 2333.3223,490.27908 2337.0962,492.3522 2341.1628,494.2486 2345.684,495.95065 2354.7627,498.60648 2364.2278,500.36633 2369.012,500.88412 2378.635,501.1846 2383.6226,501.14685 2388.6196,500.8396 2393.5854,500.2638 2398.512,499.42148 2403.3835,498.31546 2408.192,496.94775 2412.9243,495.32135 2417.7227,493.36807 2421.7468,491.34534 2425.7737,488.99826 2429.6377,486.40927 2433.3298,483.58698 2436.8384,480.54 2440.1519,477.27908 2443.2637,473.80725 2445.4463,471.0381 2445.7756,471.15115 2445.9397,489.5412 2446.4285,491.29886 2447.2617,492.9756 2448.4392,494.49643 2449.8813,495.6777 2451.532,496.52048 2452.9583,496.9307 2454.8857,497.1006 2473.0728,497.10458 2474.8801,496.87796 2476.626,496.30994 2478.4702,495.2308 2479.5603,494.27026 2480.6772,492.87527 2481.51,491.28598 2482.027,489.53253 2482.1958,487.6091 2482.1836,215.71732 2481.9688,214.14662 2481.397,212.40475 2480.3123,210.56094 2479.3496,209.47383 2477.9539,208.36188 2476.0386,207.40903 2474.264,206.96086 2472.68,206.8541 2453.6545,206.85011 Z M1712.907,280.29364 L1696.5067,280.58258 1686.8608,281.68887 1677.0131,283.69156 1667.6647,286.4524 1659.5746,289.83386 1651.9324,294.08038 1644.659,299.26797 1638.133,305.1344 1632.4026,311.63464 1627.1936,318.9993 1622.8988,326.7206 1619.4451,334.87476 1616.4802,344.52307 1614.3108,354.38272 1612.9521,364.38895 1612.4147,374.36237 1612.0054,390.65634 1612.411,407.03006 1612.9521,417.09055 1614.3108,427.09512 1616.4802,436.9537 1619.4451,446.60065 1622.8988,454.75482 1627.1936,462.47614 1632.4026,469.84076 1638.1475,476.35742 1641.32,479.37845 1644.7928,482.31772 1651.7694,487.29523 1659.3987,491.56107 1667.4828,494.9649 1677.0131,497.79053 1686.7098,499.76923 1696.5353,500.90262 1712.9159,501.1853 1719.2603,500.8082 1725.6233,500.04346 1731.9207,498.8987 1738.1376,497.37735 1744.2551,495.4837 1750.2632,493.21872 1756.129,490.59296 1760.621,488.21826 1764.9393,485.5657 1769.067,482.6482 1772.9928,479.4765 1776.7107,476.05563 1780.2009,472.4028 1783.457,468.523 1786.4656,464.42798 1788.6927,460.948 1790.6843,457.33704 1792.4323,453.61404 1793.9332,449.7889 1795.1826,445.8746 1796.1758,441.88538 1796.9094,437.82657 1797.3746,433.71893 1797.3512,431.9273 1796.9087,430.10553 1795.7346,428.06375 1792.9756,425.55313 1791.3252,424.69254 1789.8605,424.2299 1787.8599,423.9642 1787.661,425.27374 1787.6589,423.95294 1768.2971,423.98077 1766.6381,424.2824 1765.0818,424.87756 1763.299,426.10577 1760.9819,429.22824 1759.3855,432.59238 1757.8748,436.87402 1756.0967,440.89148 1754.0123,444.74435 1751.6348,448.4153 1748.975,451.88797 1746.045,455.14484 1742.8569,458.1696 1739.3927,460.9572 1735.7059,463.0043 1731.843,464.7914 1727.8702,466.28775 1723.8041,467.48874 1719.661,468.39044 1715.4122,468.99176 1711.2115,469.27795 1701.181,469.21802 1695.6624,468.60104 1690.2035,467.40417 1684.8533,465.62454 1679.8336,463.35657 1675.0079,460.5397 1670.4796,457.21667 1666.2347,453.3402 1662.77,449.1975 1659.6699,444.45428 1656.9703,439.12354 1654.7426,433.37906 1652.9207,427.05606 1651.524,420.17245 1650.5616,412.76917 1650.0453,404.94818 1649.6368,390.64908 1650.051,376.40552 1650.576,368.50262 1651.5236,361.24277 1652.9153,354.4007 1654.7401,348.07523 1656.9948,342.27225 1659.6772,336.99594 1662.7844,332.25232 1666.3137,328.0452 1670.5011,324.2409 1675.0325,320.92062 1679.8601,318.1069 1684.9408,315.81625 1690.2319,314.0656 1695.6903,312.87177 1701.2733,312.25174 1711.2015,312.21725 1715.4657,312.52628 1719.5953,313.12634 1723.7115,314.0315 1727.7518,315.23123 1731.6996,316.72156 1735.5801,318.52002 1739.2762,320.57822 1742.7063,323.30307 1745.9271,326.3157 1748.9185,329.60587 1751.5742,333.0386 1753.9753,336.71353 1756.0994,340.62018 1757.8713,344.60492 1759.3851,348.88223 1760.9818,352.24686 1763.2988,355.36734 1765.0818,356.59567 1766.638,357.1907 1768.2998,357.49237 1787.6431,357.52017 1789.4728,357.32477 1791.6117,356.65173 1793.3138,355.6638 1795.7112,353.41357 1796.8848,351.372 1797.3265,349.5491 1797.35,347.7639 1796.9343,343.81378 1796.2301,339.70337 1795.2607,335.65576 1794.0306,331.6845 1792.5433,327.8014 1790.8043,324.01987 1788.8187,320.35474 1786.5911,316.81763 1783.597,312.72025 1780.3564,308.8467 1776.878,305.20322 1773.1692,301.7951 1769.2476,298.63785 1765.1243,295.74094 1760.8108,293.1144 1756.3202,290.76926 1750.4288,288.1733 1744.42,285.94183 1738.2998,284.07312 1732.0854,282.5706 1725.7933,281.43808 1719.4395,280.67868 1712.907,280.29364 Z M264.41037,35.739017 L316.84412,35.739605 317.319,36.214478 317.319,70.254364 316.84415,70.72922 264.19626,70.728714 257.8384,70.892334 251.5216,71.373955 245.29657,72.16627 239.17163,73.26132 233.15372,74.65143 227.2513,76.32868 221.47174,78.28535 215.82129,80.51463 210.31184,83.00675 204.94891,85.75482 199.73843,88.752365 194.69254,91.988884 189.81848,95.45647 185.11829,99.1518 180.60597,103.06231 176.28708,107.18199 172.16956,111.502686 168.26111,116.01695 164.57101,120.714775 161.10269,125.59442 157.8685,130.64192 154.87584,135.84932 152.1299,141.2135 149.64005,146.7239 147.414,152.37312 145.45967,158.1532 143.78532,164.05394 142.39764,170.07202 141.30487,176.19788 140.51505,182.42313 140.03593,188.74019 139.87592,195.1801 139.87538,290.92044 139.70245,291.33792 77.377304,353.6587 77.0694,354.07556 76.87302,355.06284 76.99795,355.56583 77.39617,356.1524 139.70245,418.4543 139.87538,418.8718 139.87488,514.73773 140.03835,521.09546 140.51967,527.412 141.31174,533.63696 142.40662,539.76184 143.79642,545.7797 145.47357,551.682 147.43001,557.4617 149.65909,563.1121 152.15097,568.62164 154.89893,573.9846 157.89626,579.19525 161.13264,584.2413 164.60002,589.1154 168.29514,593.8159 172.2055,598.3283 176.32501,602.64746 180.64569,606.7651 185.15974,610.6737 189.85748,614.3641 194.73697,617.8327 199.78429,621.06714 204.99173,624.05994 210.35558,626.8062 215.86606,629.29626 221.51515,631.5226 227.29507,633.4773 233.19576,635.1518 239.21382,636.53973 245.3396,637.6328 251.56485,638.42285 257.88187,638.9022 264.3218,639.06244 316.84415,639.063 317.319,639.53784 317.319,673.57776 316.84415,674.0526 264.32562,674.0521 256.07965,673.8321 247.9847,673.204 240.00787,672.17847 232.16139,670.76605 224.44814,668.9752 216.88771,666.818 209.48267,664.30286 202.24808,661.4413 195.1864,658.24023 188.3172,654.714 181.64383,650.8691 175.17798,646.7166 168.92993,642.2668 162.90968,637.5294 157.12936,632.5163 151.59306,627.23224 146.31621,621.6924 141.30711,615.905 136.57568,609.8801 132.1321,603.6276 127.98484,597.1557 124.14803,590.4805 120.626366,583.6033 117.4338,576.54083 114.578735,569.30084 112.071236,561.8934 109.92151,554.3284 108.13926,546.61566 106.734116,538.76306 105.71716,530.78516 105.09764,522.6899 104.88516,514.5235 104.88576,433.84833 104.75419,433.184 104.37319,432.6109 42.168495,370.40622 39.404213,367.01123 37.38865,363.1998 36.17557,359.14044 35.76319,354.9522 36.175568,350.6461 37.388634,346.58704 39.403923,342.77643 42.185455,339.36276 104.33886,277.21564 104.73867,276.6482 104.885765,275.94388 104.88627,195.18394 105.10609,186.93794 105.73392,178.84299 106.759125,170.86623 108.17134,163.01958 109.961845,155.30624 112.118706,147.74577 114.63362,140.34077 117.49498,133.106 120.69568,126.04433 124.22182,119.17498 128.06635,112.501526 132.21863,106.035614 136.66821,99.78735 141.40543,93.76703 146.41833,87.98649 151.70206,82.450165 157.24176,77.173134 163.02892,72.16385 169.0537,67.43232 175.30602,62.988403 181.77782,58.84108 188.45299,55.00407 195.33008,51.48227 202.39247,48.28937 209.63245,45.434185 217.04,42.92643 224.60484,40.776592 232.31766,38.99396 240.17046,37.588737 248.14835,36.571392 256.24393,35.951725 264.41037,35.739017 Z M2482.4736,-0.25 L2478.6968,-0.04877913 2475.1526,0.50398636 2471.8987,1.3434651 2468.4534,2.6064703 2465.3362,4.118849 2462.3953,5.9166203 2459.6501,7.980152 2457.119,10.291365 2454.8196,12.833048 2452.8616,15.44982 2450.9846,18.537605 2449.552,21.507925 2448.341,24.785706 2447.4143,28.37978 2446.8967,31.749846 2446.698,35.39838 2446.6936,70.901024 2446.897,74.71941 2447.4495,78.25993 2448.341,81.68313 2449.552,84.960915 2450.9846,87.93119 2452.8616,91.01902 2454.9255,93.76409 2457.119,96.17748 2459.6501,98.48869 2462.3953,100.55221 2465.3362,102.34997 2468.4534,103.86236 2471.732,105.0736 2475.1526,105.96485 2478.6973,106.51767 2482.3438,106.71645 2535.7175,106.72087 2544.6963,107.18623 2553.4795,108.5363 2561.956,110.72423 2570.1377,113.73138 2577.814,117.436035 2585.1072,121.87154 2591.9617,127.00683 2598.1997,132.67967 2603.9102,138.96367 2609.0044,145.77527 2613.438,153.06953 2617.1667,160.80286 2620.1458,168.93027 2622.3315,177.40752 2623.6785,186.19095 2624.146,195.31429 2624.1436,305.34882 2624.2769,306.0185 2624.656,306.58624 2672.6367,354.5605 2672.6367,355.2318 2624.656,403.21255 2624.2769,403.7803 2624.1436,404.44998 2624.1416,514.64734 2623.6763,523.62604 2622.3115,532.47107 2620.1384,540.8858 2617.1572,549.01196 2613.3962,556.7948 2608.991,564.037 2603.895,570.84686 2598.1394,577.17 2591.8987,582.83984 2585.0874,587.9342 2577.7927,592.36774 2570.0596,596.09625 2561.8733,599.0914 2553.455,601.2609 2544.6716,602.6085 2535.548,603.0758 2482.5132,603.0714 2478.8699,603.2569 2475.3235,603.7925 2471.8987,604.6668 2468.6113,605.8629 2465.485,607.3614 2462.535,609.14545 2459.65,611.3036 2457.119,613.6147 2454.8198,616.15625 2452.8616,618.77325 2451.0654,621.71246 2449.552,624.8313 2448.341,628.1091 2447.4143,631.7032 2446.8967,635.0732 2446.698,638.72174 2446.6936,674.2244 2446.8794,677.8693 2447.4143,681.4124 2448.341,685.00653 2449.552,688.2843 2451.0654,691.40314 2452.8616,694.3423 2454.9258,697.0877 2457.2366,699.6186 2459.7783,701.918 2462.535,703.97015 2465.3364,705.6735 2468.6113,707.2527 2471.732,708.39703 2475.1526,709.2882 2478.962,709.8612 2482.3438,710.03986 2535.9297,710.0427 2545.9365,709.7834 2555.8547,709.02454 2565.628,707.778 2575.2478,706.05536 2584.6934,703.8706 2593.9624,701.2338 2603.0337,698.15985 2611.9058,694.6568 2620.5532,690.74243 2628.9724,686.42523 2637.1514,681.71747 2645.0728,676.6334 2652.7258,671.1861 2660.1033,665.38293 2667.1868,659.24097 2673.9668,652.77094 2680.4302,645.985 2686.5652,638.8954 2692.3586,631.5164 2697.8018,623.85455 2702.8782,615.9281 2707.5762,607.74915 2711.8855,599.32587 2715.7932,590.6727 2719.2861,581.8018 2722.3525,572.72577 2724.9802,563.45886 2727.1567,554.009 2728.8706,544.39044 2730.1082,534.61554 2730.8586,524.69696 2731.1077,514.60767 2731.1082,448.2699 2731.281,447.85297 2783.2297,395.91162 2787.2068,391.51392 2790.6602,386.82974 2793.6633,381.74606 2796.0398,376.60364 2797.887,371.2954 2799.2036,365.8677 2799.99,360.35617 2800.2463,354.8044 2799.9727,349.2511 2799.201,343.90787 2797.8835,338.48083 2795.9705,333.0142 2793.5767,327.87744 2790.7498,323.09485 2787.311,318.40344 2783.3433,313.99805 2731.281,261.9327 2731.1082,261.51572 2731.1086,194.93968 2730.85,184.93224 2730.0923,175.0138 2728.8462,165.2398 2727.1245,155.61998 2724.9404,146.1739 2722.3047,136.90681 2719.2307,127.832634 2715.7292,118.96245 2711.8147,110.312416 2707.4983,101.89262 2702.7905,93.71334 2697.707,85.79138 2692.26,78.1381 2686.4575,70.76033 2680.3157,63.67632 2673.846,56.896084 2667.0605,50.4321 2659.971,44.296585 2652.5925,38.502945 2644.9304,33.05935 2637.0042,27.982767 2628.8254,23.28453 2620.4023,18.974781 2611.749,15.06703 2602.8784,11.573488 2593.802,8.50663 2584.535,5.8791723 2575.085,3.7021756 2565.4663,1.9884179 2555.6914,0.7501818 2545.7722,7.259846E-5 2535.6824,-0.24947298 2482.4736,-0.25 Z M264.04877,-0.25 L254.0612,0.008690953 244.14311,0.76730466 234.36922,2.0136814 224.74976,3.7358923 215.30399,5.920496 206.03464,8.557132 196.9634,11.630907 188.09113,15.133772 179.44398,19.047901 171.02449,23.364779 162.84566,28.072615 154.92596,33.154953 147.27124,38.60356 139.89392,44.40651 132.81026,50.54826 126.030624,57.018307 119.56701,63.804047 113.43184,70.893425 107.63874,78.27221 102.19565,85.93396 97.119446,93.86036 92.42175,102.03912 88.112434,110.462265 84.20508,119.11543 80.71216,127.98618 77.64577,137.06216 75.01872,146.32904 72.84221,155.7788 71.12873,165.39737 69.89105,175.1722 69.141266,185.09084 68.89224,195.1801 68.891716,261.51556 68.71877,261.9331 16.761917,313.8917 12.793225,318.2803 9.340274,322.96313 6.3304043,328.06064 4.0241284,333.03128 2.113195,338.49625 0.79688406,343.92358 0.026307225,349.26788 -0.24631298,354.8206 0.011506081,360.37125 0.79957104,365.8837 2.1172593,371.31064 4.031884,376.7801 6.42445,381.91278 9.2521305,386.69623 12.690645,391.38675 16.659218,395.79242 68.72319,447.85696 68.89613,448.2745 68.89562,514.8548 69.15447,524.8619 69.91261,534.7799 71.1586,544.55365 72.88058,554.17303 75.06473,563.6189 77.70025,572.8857 80.774506,581.9596 84.27705,590.83203 88.19087,599.47925 92.50752,607.8989 97.215,616.07806 102.29842,623.99994 107.745544,631.6529 113.54831,639.0307 119.689926,646.1147 126.15965,652.8948 132.94528,659.35864 140.03453,665.4943 147.41318,671.28784 155.07486,676.7314 163.00114,681.8081 171.17993,686.50635 179.6031,690.8162 188.25623,694.724 197.127,698.2176 206.2031,701.2845 215.47002,703.91223 224.9199,706.08936 234.53859,707.8032 244.31349,709.04156 254.23228,709.79193 264.3218,710.0417 317.4908,710.04425 321.13446,709.85876 324.8515,709.2882 328.27228,708.397 331.39258,707.25275 334.6681,705.6732 337.46957,703.97 340.21262,701.92804 342.88474,699.5011 345.1847,696.95917 347.23648,694.20294 349.0202,691.25336 350.45224,688.2843 351.6632,685.0062 352.58954,681.4139 353.12515,677.86743 353.30618,674.39386 353.3106,638.8912 353.10733,635.0742 352.5546,631.5309 351.6632,628.1094 350.51917,624.98944 348.93945,621.7137 347.14178,618.7725 345.07877,616.02814 342.88474,613.61456 340.3538,611.30316 337.60962,609.2403 334.6681,607.4424 331.39258,605.86285 328.10574,604.6669 324.6806,603.7925 321.13406,603.25684 317.66022,603.0758 264.28656,603.0714 255.30782,602.606 246.52487,601.2559 238.04816,599.068 229.86632,596.0608 222.1901,592.3562 214.89691,587.9207 208.04253,582.78534 201.80455,577.11255 196.094,570.8285 190.99971,564.01697 186.5663,556.72266 182.83765,548.9894 179.8585,540.862 177.67299,532.38477 176.32542,523.60126 175.85812,514.4779 175.8605,404.45004 175.72894,403.7857 175.34795,403.21262 127.37395,355.232 127.37395,354.5603 175.34796,306.58618 175.72731,306.01843 175.86052,305.34875 175.86255,195.14485 176.32797,186.16617 177.69286,177.3212 179.8659,168.90648 182.8472,160.78026 186.6078,152.99742 191.01324,145.75525 196.10913,138.94536 201.82137,132.66286 208.10541,126.95233 214.91693,121.85802 222.21132,117.42451 229.94456,113.69597 238.07195,110.71683 246.54929,108.53131 255.39613,107.17938 264.45596,106.71645 317.4908,106.72087 321.30768,106.51761 324.85135,105.96484 328.27234,105.07354 331.55075,103.86246 334.66837,102.349686 337.46942,100.646675 340.2254,98.59505 342.88477,96.17762 345.18484,93.635605 347.14175,91.01971 349.0202,87.92996 350.51917,84.80279 351.715,81.51628 352.58954,78.0905 353.12515,74.544014 353.30618,71.07046 353.3106,35.56781 353.10733,31.750898 352.5546,28.207455 351.715,24.952553 350.45224,21.507908 348.93945,18.3903 347.14175,15.449129 345.07892,12.704966 342.76712,10.17358 340.2254,7.873805 337.4694,5.8221445 334.5198,4.03841 331.55075,2.606373 328.10587,1.3435235 324.85135,0.50399566 321.30722,-0.048847437 317.66022,-0.24762046 264.04877,-0.25 Z " />
</g></svg>