<?xml version="1.0" encoding="UTF-8"?>
<!DOCTYPE svg PUBLIC "-//W3C//DTD SVG 1.0//EN" "http://www.w3.org/TR/2001/REC-SVG-20010904/DTD/svg10.dtd">
<svg shape-rendering="geometricPrecision" text-rendering="geometricPrecision" image-rendering="optimizeQuality" fill-rule="evenodd" xml:space="preserve" 
 xmlns="http://www.w3.org/2000/svg" xmlns:xlink="http://www.w3.org/1999/xlink"  viewBox="0 0 1000.1524047851562 1706.306884765625" width="100.01524047851562mm" height="170.6306884765625mm" >
<g><path fill="#000000" d="M435.5281,0.028280474 L434.82266,0.2947618 432.11853,2.680637 427.51913,7.15233 417.66443,17.206522 407.2666,28.476824 403.87796,32.508892 402.80423,33.978233 402.60202,34.536983 402.73077,35.117092 403.20932,35.96257 406.018,39.511936 409.93076,43.746998 413.5639,47.234608 416.5298,49.77545 418.8806,51.462967 420.13367,52.08309 421.34818,52.314243 421.96066,52.662197 422.3747,53.178276 422.8472,54.768307 423.79926,56.43783 426.56537,60.09796 430.53113,64.326256 432.06348,65.626366 432.87112,65.91866 433.4404,65.75797 434.76346,64.7796 441.1647,59.17305 466.10614,35.31102 466.43243,34.554535 466.12244,33.79122 450.9826,18.555145 443.372,10.517125 437.95724,4.1065283 436.8585,2.3751473 436.5432,0.768066 436.26575,0.32467005 435.5281,0.028280474 Z M501.0209,0.7840652 L500.26437,1.0987744 482.05203,19.407413 474.67017,27.160711 472.3296,29.92615 470.78708,32.10828 469.9381,33.824482 469.64786,35.240498 469.84564,36.637573 470.39404,37.822906 471.53366,39.34002 473.61588,41.618275 476.08133,43.938866 480.35052,47.368626 485.5501,51.90059 489.1671,55.320152 496.46033,62.764595 499.4606,65.49467 500.56854,66.026794 501.24396,65.78561 504.08926,63.458775 511.74493,56.55787 534.062,35.532055 534.39417,34.778095 534.08887,34.011257 501.78195,1.1034303 501.0209,0.7840652 Z M367.23755,0.9947545 L366.4939,1.296976 330.43985,36.393112 317.98846,48.669292 304.56827,62.214066 300.66843,66.56158 300.59372,67.16722 300.84778,67.7548 301.70596,68.979 304.09097,71.68037 306.1941,73.64057 308.002,74.97115 309.5471,75.85782 311.28436,76.29021 311.864,76.65654 312.33615,77.36332 312.74506,78.82814 314.11115,80.89305 316.6904,84.12743 320.06726,87.95831 325.77304,93.79302 329.06564,96.84064 331.53674,98.84073 332.28857,99.28227 332.8129,99.420265 333.51938,99.15247 348.76617,84.91048 367.5252,66.801895 400.2873,34.764206 400.29358,33.94337 400.0625,33.594376 367.99405,1.3096333 367.23755,0.9947545 Z M568.53107,2.8527827 L567.2982,3.147274 564.8276,4.515803 561.5848,7.0441523 558.3902,10.082844 541.1184,28.310959 538.14935,32.334087 537.5431,33.5967 537.28,34.59713 537.39496,35.39718 539.79816,38.276386 543.6779,44.526398 545.5803,46.690292 547.79614,48.617382 549.34814,49.650566 551.6509,50.849876 553.15643,51.978786 554.209,53.120255 554.4919,53.667248 554.6796,54.62369 555.5291,55.594414 556.39606,56.011417 557.6996,56.190968 558.4562,56.497738 559.7729,57.544834 561.12115,59.20022 563.15234,62.95754 564.1934,64.55748 565.3568,65.79433 566.11084,66.086 566.72504,65.89168 569.77216,63.58756 577.2995,56.940624 590.04913,45.247395 595.87134,40.501938 600.37933,37.309372 602.0404,36.422268 602.6824,36.183796 603.3027,36.159473 604.4186,36.345585 605.45557,36.764786 606.21173,37.398365 606.78644,38.984917 608.02057,40.954975 610.1956,43.56728 613.1217,46.69849 619.59705,52.652336 623.01404,55.47168 624.88446,56.558674 627.943,59.496685 630.3122,62.16356 633.18066,65.905655 634.2119,67.597084 634.51,68.195244 634.6521,68.9713 635.0247,69.53032 635.63513,69.944565 637.0685,70.33228 639.2901,71.888794 642.57,74.69248 649.0283,80.93061 652.421,84.52556 656.8412,89.64259 658.3569,91.80586 658.6769,92.819214 659.16327,93.4796 660.1724,94.044914 661.9534,94.39589 663.2159,95.12713 664.5201,96.22605 666.42706,98.38325 667.1709,98.79856 668.30994,98.833755 669.60657,98.31499 672.76587,95.947525 677.54047,91.477806 687.8959,81.023994 694.122,75.200096 696.771,72.92846 700.8492,69.96603 702.2407,69.27307 702.9333,69.19824 703.34515,69.394844 704.3748,70.161125 706.2864,71.97485 708.4685,74.41479 714.569,82.03196 716.1528,83.55093 718.40796,84.917915 721.0207,87.20646 724.5409,90.55414 730.5859,96.77607 736.8557,103.96862 738.3739,106.08495 738.9915,107.35075 740.1772,107.99429 741.5847,108.16617 742.50024,108.51179 743.91315,109.560394 745.35846,111.20567 747.78406,115.08119 749.013,116.70192 750.15155,117.8053 751.44745,118.37488 753.5085,119.94518 756.6822,122.79364 762.04364,128.10793 766.4684,132.83484 770.8887,137.9768 772.3946,140.11461 773.046,141.53748 773.694,141.96552 775.1213,142.34558 777.3667,143.95241 780.6117,146.79729 784.50104,150.53961 788.59503,154.78522 793.67194,160.43967 795.81635,163.0542 797.06036,165.06702 797.9269,165.68448 799.06104,166.21838 801.04706,166.84062 802.22546,167.43556 803.46564,168.55904 804.3025,170.13617 804.78394,173.56798 805.46063,174.88078 805.8363,175.26279 807.0826,175.94087 810.18805,176.3964 811.3996,176.97531 812.3031,178.00406 812.5614,178.69946 812.758,180.08447 813.5347,181.3706 814.3974,181.98338 816.44464,182.46622 817.95215,183.27461 820.6851,185.57332 824.01074,189.9305 826.7007,194.31197 828.59186,196.8434 829.8539,197.86787 831.21655,198.36201 832.1585,198.96751 834.93164,201.26485 838.5195,204.58194 843.08344,209.19821 848.2172,214.78613 851.8272,219.21495 853.0144,221.37372 854.2001,222.01721 855.6075,222.18906 856.5229,222.53445 857.9383,223.58496 859.38306,225.19617 861.7963,229.01877 863.2096,230.73949 864.5571,231.85872 865.90796,232.29254 866.70294,232.75279 868.47363,234.28667 870.51324,236.45169 874.7046,241.78502 876.8626,244.0706 878.6654,245.59514 879.3248,245.98724 880.8258,246.50601 882.09125,247.58414 883.40845,249.19589 885.7439,253.00664 887.0404,254.7295 888.17926,255.83293 889.4563,256.38565 891.5551,257.98965 894.7098,260.8213 900.07117,266.1354 904.496,270.86243 908.91626,276.00443 910.4223,278.14224 911.0799,279.57236 911.7116,279.9981 913.1854,280.3634 915.84174,282.1783 918.3747,284.38483 921.42975,287.394 931.49677,298.4352 933.58905,301.27548 934.5567,302.88934 934.5248,303.3065 933.3392,304.7228 929.8837,308.44934 912.3449,326.16147 907.60114,331.22736 904.62115,334.75797 904.33826,335.3592 904.35803,335.79657 904.5516,336.18927 906.21204,337.6443 907.43634,339.21155 909.75806,343.0417 910.99005,344.7442 912.07153,345.8472 913.26514,346.3747 915.00134,347.56934 919.14465,351.0921 922.8592,354.5854 928.22644,360.10318 930.4222,362.73883 931.2153,364.12964 932.88745,366.18332 936.82336,370.52377 939.99615,373.74936 943.0897,376.59796 945.7966,378.78134 947.7668,379.98944 949.2589,380.37344 950.0176,380.91443 950.4629,381.61072 950.7398,382.90958 951.2282,383.92105 952.9406,386.379 955.48566,389.3584 960.2828,394.28653 963.1402,397.47388 965.2735,400.17444 966.022,401.306 966.5812,402.51385 966.5591,402.9773 965.4142,404.79977 959.8105,411.55063 954.3156,417.49423 944.7503,427.38193 940.55334,432.02777 938.37836,435.08136 937.8725,436.43634 937.8101,437.078 938.22034,438.1488 940.53357,440.2516 941.63,441.55472 942.36145,442.8141 942.7033,444.25342 943.1314,444.94296 944.0313,445.6111 945.06335,445.99554 948.3249,446.46313 949.4134,446.98557 950.2589,447.82166 951.0373,450.28253 952.4463,452.3654 954.3518,454.43732 958.96594,458.50586 960.8299,460.49338 962.1236,462.34546 962.5508,463.19992 962.8293,464.7413 963.3832,465.57156 964.0689,466.0615 965.4218,466.35623 966.00006,466.6487 966.4201,467.1434 966.6358,467.74448 965.44354,469.5559 964.0494,471.2523 960.0037,475.77008 945.8452,490.3756 941.08,495.53806 937.7803,499.48688 936.78345,501.01413 936.61,501.60382 936.9487,502.675 937.9322,504.48422 939.3739,506.5858 941.1689,508.8401 943.1449,510.9221 945.12354,512.6081 946.86536,513.762 947.7539,514.1662 949.2577,514.42053 949.8806,514.742 950.3699,515.2612 950.7403,516.48987 951.23,517.45264 952.99426,519.9517 955.4912,522.98926 964.3337,532.79407 966.02277,534.9752 966.6052,535.97736 964.09546,539.06934 957.2433,546.41754 916.784,588.1007 908.13605,597.39795 904.0944,601.98773 902.679,604.05194 902.8579,605.16833 903.33014,605.7705 903.9164,606.1352 905.06287,606.4824 906.14105,607.20465 911.33374,611.53595 917.83374,617.58826 925.28564,625.19366 929.66614,630.3203 930.5503,631.70416 930.75055,632.6097 931.2919,633.50977 932.1146,634.279 932.88855,634.74133 933.0442,635.07574 932.35876,636.1691 929.09216,640.06067 920.0303,649.91925 901.18787,669.4359 882.91437,687.8843 826.8877,743.76074 807.8658,763.0323 802.67706,768.6337 802.6883,769.5539 803.296,771.64087 803.88306,773.2614 804.5924,774.37823 805.4229,775.2303 806.53485,775.95074 808.9923,776.57654 810.3654,777.5006 811.63666,778.8302 813.3014,781.36664 815.45264,784.22546 822.0997,791.60815 825.8267,795.26294 829.2909,798.35785 833.3424,801.3614 834.138,801.76624 835.00146,801.8059 838.9562,798.2854 848.7678,788.9246 871.0255,767.2173 888.37885,750.03906 903.78204,734.5109 915.4501,722.4938 922.63116,714.6825 923.1801,713.3256 923.8227,712.80133 924.6704,712.4623 926.1652,712.30444 927.1795,712.0038 928.69025,710.95374 929.69006,709.6471 930.8691,706.6215 931.5414,705.43933 932.26086,704.61475 933.70184,703.9714 936.6919,701.5197 941.39484,697.1472 947.2102,691.35803 959.1176,678.826 963.48083,673.9903 966.05457,670.8934 966.51013,670.11743 966.5334,669.6679 966.1908,668.7482 964.5624,666.3076 960.654,661.8307 955.8143,656.8608 953.25586,653.90594 951.4888,651.4985 951.04584,650.675 950.7616,649.538 950.2646,648.76526 949.15393,648.1 947.94977,647.94604 947.0602,647.55225 945.3477,646.4268 943.3871,644.7625 941.4236,642.6984 939.63965,640.458 938.1945,638.3074 937.2467,636.5304 936.91473,635.42224 938.33545,633.3668 940.7943,630.583 951.1087,619.69556 962.6077,608.0968 982.5657,588.3889 991.5161,579.1892 996.80396,573.1578 998.49963,570.6501 999.18555,568.81134 999.2064,568.0356 998.8893,567.08234 996.4509,564.2751 987.66705,555.1404 968.57587,535.87604 968.63635,535.52826 984.95,519.1411 995.2568,508.43777 997.56134,505.7092 999.0646,503.5118 999.7371,501.82047 999.6546,500.4077 999.234,499.4865 998.5427,498.5601 994.80176,494.53717 984.93854,484.473 968.66876,468.3014 968.63525,467.9264 993.52844,443.6251 996.3123,440.61716 998.1386,438.3205 998.82245,437.2158 999.3946,435.78555 999.5153,434.79617 999.2719,433.628 998.2955,431.78177 997.2603,430.45807 995.9931,429.23706 994.6622,428.35098 993.7761,427.99664 992.3977,427.80002 991.5451,427.36685 991.1665,426.98822 990.8154,425.91534 989.9917,424.6067 986.1175,419.9925 980.60187,414.22342 969.4665,403.28226 969.4633,402.872 990.57153,381.46823 997.2324,374.28738 998.99884,371.90286 999.9371,370.0536 1000.1524,368.42194 999.78845,366.83228 998.6369,364.4808 997.6252,363.02853 996.27246,361.51263 994.6285,360.28754 993.5994,359.9072 992.38544,359.77878 991.6841,359.5106 991.1654,359.1079 990.1295,357.1092 987.9473,354.3623 982.85925,348.61923 978.7774,344.36038 973.35693,339.0625 970.7995,336.77942 969.89465,336.10638 968.6521,335.5146 967.2625,334.42203 964.0478,331.3559 960.26263,326.7721 959.2715,325.15997 958.7595,323.6888 958.4501,323.2661 957.55975,322.50027 956.4552,321.91553 953.336,320.70352 952.0931,319.7162 951.1858,318.4355 950.6644,316.08847 949.52167,314.71765 948.25995,314.11304 945.2844,313.67728 943.9586,313.00934 943.17365,312.0859 942.909,311.26315 942.70917,309.7143 942.2462,308.71545 941.5347,308.06567 940.30756,307.67474 939.48676,307.03503 938.7025,305.9994 938.0572,304.68628 938.053,303.83853 938.41766,302.60767 939.3466,300.88297 942.75635,296.3253 945.2376,293.42105 960.2072,277.55792 964.27795,272.84094 966.54034,269.76025 966.8988,268.93808 966.74866,268.2809 966.22473,267.28134 964.51,264.9263 962.044,262.0428 955.75885,255.49852 953.2575,252.50267 951.56586,250.03876 951.0823,249.08089 950.8542,248.0645 950.4146,247.30127 949.51654,246.57663 948.50385,246.13983 945.2111,245.73936 943.95734,245.35567 943.13055,244.78403 942.2763,242.90569 940.57623,240.51036 929.1928,227.37788 927.50867,225.05533 926.46967,222.82098 925.3072,222.08987 923.87946,221.90025 922.9567,221.53038 921.5668,220.47871 920.1145,218.85094 917.6968,215.06554 916.27124,213.32408 914.93835,212.20937 913.5615,211.7626 912.79803,211.30869 911.0054,209.80042 908.9681,207.61253 904.75525,202.28374 902.5069,199.98601 900.5784,198.4658 899.82935,198.06389 898.86206,197.89944 898.15356,197.55533 896.8141,196.45056 895.57385,194.86981 893.44025,191.06015 892.00006,189.30927 890.5836,188.22002 889.9502,187.9632 888.47974,187.7293 887.5781,187.24236 887.0613,186.632 886.5619,185.05907 885.4259,183.7628 883.9749,182.6638 881.69653,181.47603 880.16284,180.41077 877.70233,178.24689 875.2353,175.65501 871.0764,170.1837 868.9492,167.87746 867.1151,166.3807 866.4234,166.00824 865.48114,165.84499 864.79565,165.52249 863.43225,164.42336 862.05396,162.84073 859.68054,159.04816 858.39056,157.44775 856.91205,156.19371 855.56036,155.75764 854.7865,155.29747 852.9938,153.78932 850.95654,151.60141 846.76447,146.26735 844.7127,144.0841 842.8034,142.45712 842.17566,142.08374 840.648,141.54785 839.40045,140.46667 838.0599,138.85544 835.62006,135.02956 834.243,133.44661 832.58167,132.21397 831.57764,131.86261 830.3507,131.7303 829.6596,131.44571 829.12537,130.98831 828.2817,129.13719 826.5472,126.80283 823.981,123.779396 817.69135,116.95584 815.18054,113.90087 813.4877,111.4603 813.01764,110.58263 812.7692,109.627785 812.33496,109.02439 811.4613,108.4323 810.4427,108.06564 807.1525,107.681305 806.03687,107.2797 805.2309,106.70117 804.24396,104.44267 802.479,101.89422 799.98285,98.85789 792.37103,90.515434 789.4783,86.774155 788.48456,84.76451 787.8248,84.26252 787.2532,84.043915 785.8518,83.87263 784.9269,83.501785 783.4602,82.39979 782.09595,80.84077 779.65936,77.02154 778.24365,75.29664 776.91064,74.18184 776.4023,73.91169 775.534,73.73498 774.77057,73.281136 772.9778,71.77294 770.93994,69.60924 766.572,64.14859 763.98627,61.431503 761.41406,59.11743 757.59625,56.508846 756.19446,55.186863 755.1942,53.769535 754.67206,51.747047 754.0227,50.819626 752.736,50.028446 750.47107,49.62758 749.3055,49.031033 748.2402,48.07293 746.8999,45.821827 745.7119,44.60625 744.10034,43.46474 741.1691,42.124687 739.9996,41.161304 739.1429,39.936687 738.5308,37.51314 737.81195,36.60878 737.17993,36.187443 736.30444,35.89208 735.1257,36.01414 732.54913,37.457424 729.1283,40.02146 725.1775,43.43926 701.4015,65.8836 700.9937,65.87609 694.01154,59.061916 691.92145,57.422264 690.1469,56.315014 689.3525,55.950905 688.1225,55.674 687.4859,55.180794 686.9953,54.32338 686.60876,52.252888 685.8319,50.730526 683.64124,48.075966 679.7248,45.16637 674.85187,42.534874 673.86383,41.5469 673.1298,40.345745 672.6388,37.95568 671.7879,36.64598 670.81903,36.04289 668.7354,35.565075 667.51025,34.66016 666.51776,33.434826 665.1581,30.460669 663.9549,28.988663 662.6919,28.114689 661.7884,27.844294 660.44366,27.713648 659.6849,27.439648 659.1212,27.032932 658.0577,25.058403 655.9602,22.35191 649.4609,15.144511 644.91144,10.543553 641.21497,7.0694184 638.2616,4.5400376 636.41364,3.3133419 635.28754,3.4642305 633.87085,4.2054906 632.0056,5.4714313 629.59796,7.298519 623.81036,12.23048 617.18304,18.479115 601.0789,34.312946 600.6691,34.30949 590.2947,23.74071 583.15424,16.946121 580.3691,14.654531 579.4524,14.038215 578.18677,13.459135 577.13806,12.428946 575.9866,10.910034 573.6419,7.055364 572.1068,5.1792264 570.7238,3.843282 569.7729,3.1676826 568.53107,2.8527827 Z M266.67224,33.789436 L265.9181,34.10183 105.46252,194.80444 61.06124,239.76086 43.627304,257.66214 34.785297,266.98715 34.50891,267.53424 34.57923,268.14313 35.042953,269.10376 36.482132,271.1871 38.70592,273.93936 44.2235,280.08102 47.261852,283.97543 48.280922,285.69232 48.516693,286.5876 48.85606,287.1515 49.56259,287.71512 50.231743,287.99756 52.754105,288.34985 53.66159,288.73105 54.24693,289.27255 54.808563,290.84766 55.90221,292.52655 61.48149,298.92554 62.79733,301.10593 63.398415,303.07614 63.361958,304.4482 62.621346,306.01312 61.93665,306.94894 61.17563,307.62494 59.38542,308.27814 57.636555,309.3498 54.116333,312.17548 51.627647,314.64526 49.992584,316.65106 48.896744,318.3678 48.516056,319.23416 48.23102,320.5168 47.648888,321.21127 46.641384,321.72977 44.527782,322.10242 43.222183,323.01288 42.616695,324.0259 42.21001,326.0901 41.519978,327.09604 40.615143,327.69275 38.50856,328.10687 37.222282,328.96515 36.62649,329.92096 36.17244,332.03018 35.391922,333.2772 34.301685,334.31683 32.02151,335.6116 28.54604,338.45276 20.848616,345.77155 14.918027,351.87375 8.388098,359.0791 4.105307,364.42926 2.6653035,366.64294 1.8842502,368.22882 1.5004954,369.55334 1.47476,370.36008 1.6922411,371.07654 2.2335048,372.043 3.147042,373.11075 4.4813423,373.99084 6.4838605,374.56055 7.829263,375.63943 9.223106,377.2255 11.662835,381.04346 13.059874,382.63324 14.718354,383.8666 15.732444,384.2423 16.948824,384.3675 17.648607,384.61453 18.179573,385.02298 18.986532,386.78378 21.540983,390.24338 25.151405,394.45483 32.31185,402.24557 32.3053,402.6523 16.248959,419.0451 3.834032,432.3246 0.8910373,435.90646 0.7228541,436.24097 0.71904445,436.9875 1.3830583,438.04242 2.5929656,438.9241 5.9505053,440.16605 7.212202,440.8448 8.06952,441.57248 9.126697,443.6831 11.05188,446.13422 13.937264,449.3158 20.98666,456.48712 23.815926,459.7172 25.749968,462.3277 26.386114,463.59998 26.609058,464.57086 27.227957,465.38864 28.497837,466.07083 30.642298,466.36285 31.54086,466.72226 32.1512,467.2588 32.402714,467.87332 32.28128,468.67496 31.587969,469.88278 29.271366,471.80075 20.678093,480.21817 11.286836,489.94873 5.8520193,496.08923 3.973869,498.52872 2.5806804,500.66223 1.7383652,502.4033 1.464822,503.51547 1.4526144,504.2965 2.1600056,506.0125 3.0954363,507.29614 3.9812865,508.02716 4.8512826,508.30743 6.0452914,509.03198 8.779933,511.26074 14.31947,516.43994 18.404552,520.5853 24.722685,527.7289 26.19828,529.8366 26.89669,531.30286 28.229843,532.05145 30.610426,532.4332 31.520563,533.00464 32.210663,533.96094 32.421646,535.207 32.00738,537.03174 31.485577,537.92737 29.188372,539.87695 20.557703,548.36 0.52128685,569.0078 0.2261708,569.8619 0.5374084,570.50916 9.640123,579.50476 14.616963,584.1367 18.721048,587.4669 20.96419,588.59106 22.056927,589.64874 23.281637,591.2601 25.639732,595.0857 26.982616,596.679 28.516876,597.909 30.545721,598.6014 31.833412,599.70575 33.026978,601.2778 35.11449,605.0622 36.46516,606.8254 37.753807,607.9118 39.88764,608.57227 41.409397,609.4825 44.355145,612.0815 46.169422,614.3919 47.349407,616.3275 48.143047,618.1107 48.64722,620.68414 49.124508,621.5642 49.80042,622.1216 50.84922,622.4218 52.404083,623.2639 54.501095,624.7979 57.95012,627.7413 60.677574,630.4343 62.64294,632.67694 64.554825,635.5488 63.242516,637.52246 57.82199,643.97 41.103767,661.7128 34.790638,668.6238 34.543827,669.0839 34.543873,669.6009 35.731163,673.25183 36.392193,674.3576 37.360767,675.38745 38.4127,676.0491 40.45105,676.62054 41.791527,677.5279 43.202587,678.895 46.674007,683.29114 52.786694,690.19226 61.350033,699.24255 68.45943,706.1697 74.27159,711.13556 75.88982,712.16565 77.217354,712.48083 77.86286,712.91766 78.28272,713.543 78.53387,714.76056 78.83177,715.4145 79.98892,717.18585 83.21015,720.82196 88.07029,724.8482 89.77371,725.9054 91.50063,726.56067 91.96753,727.1549 92.28152,727.95557 92.63387,730.18646 93.24212,731.1874 94.521324,732.08295 96.61998,732.4961 97.63512,733.19055 98.22628,734.096 98.60947,736.4621 99.32003,737.8379 101.84918,739.3733 105.47059,742.4416 113.1719,749.581 118.98519,755.30054 124.13731,760.6315 128.0074,764.9299 130.16814,767.7217 130.71078,769.2592 131.16441,769.83 132.87003,770.5199 135.51117,772.4766 142.0043,778.21936 147.94458,783.9144 154.66786,790.82007 158.23042,794.8367 160.1997,797.3968 160.61043,798.6857 161.30933,799.7456 162.13986,800.46954 163.13008,801.00635 166.97597,802.14655 168.03523,801.77844 169.7281,800.58875 173.61444,797.11676 198.65823,771.1875 198.95503,770.3619 198.75394,769.8186 195.11447,764.81537 193.80122,763.26733 192.10265,761.593 190.55637,760.4525 189.96402,760.1597 189.08347,759.98724 188.39977,759.5303 186.87325,757.9944 185.2169,755.7603 181.95659,750.39935 180.10925,748.0404 178.40286,746.48425 177.7454,746.1265 176.26424,745.8426 175.50171,745.43536 174.91136,744.74884 174.39293,743.14905 173.14693,741.7978 171.5737,740.6671 167.74037,738.54254 166.1516,737.2325 165.1051,735.8975 164.7864,735.162 164.52042,733.5973 163.98477,732.6951 163.24405,732.14136 161.97682,731.79767 161.28517,731.0985 160.89589,730.1979 160.56502,727.81287 159.80745,726.4348 159.29626,726.0869 158.58449,725.9551 157.8707,725.6079 156.20715,724.56586 151.458,720.62915 148.2718,717.04596 147.13295,715.3162 146.56183,713.5167 145.95177,712.7647 144.67128,712.12134 143.23875,711.972 142.35599,711.6894 140.89645,710.86346 139.43768,709.5539 137.12247,706.54987 135.6359,705.1429 134.22554,704.25977 132.22807,703.8539 131.37547,703.44135 130.89069,702.90784 130.46526,701.69836 128.94261,699.5345 122.652176,692.41205 118.54879,688.2588 112.85226,682.99524 109.210915,680.2485 107.738655,679.8017 107.20398,679.43774 106.87053,678.914 106.60259,677.95667 105.48508,676.35974 99.99946,670.10486 92.27917,662.04785 82.79948,652.76685 76.65483,647.1383 75.36811,646.12946 74.19672,645.5259 72.9511,644.3675 70.26766,641.2046 66.16938,635.5706 83.194305,618.8964 88.70039,613.2764 95.88215,605.25116 98.349335,601.8501 98.747086,600.6907 98.41908,599.5567 97.75463,598.6997 96.82956,598.1304 95.574554,597.937 94.79612,597.6049 93.32993,596.50336 91.94241,594.928 89.50071,591.1434 87.93867,589.39246 86.4456,588.3053 84.14704,587.66895 82.73274,586.7736 81.38793,585.53534 78.996056,582.37506 77.630875,581.1208 76.215096,580.2345 74.215485,579.83044 73.36043,579.38855 72.88506,578.8189 72.5893,577.82513 71.94337,576.71484 69.79196,573.9169 66.5782,570.26605 62.176754,565.66425 56.73615,560.51 53.48123,557.7558 51.35401,556.2789 49.794685,555.6617 49.251785,555.06244 48.902565,554.2517 48.518166,551.8423 47.88915,550.57764 46.73433,549.3247 44.54943,548.0642 43.612732,547.1262 42.94035,545.95306 42.523045,543.9089 41.916153,542.9648 40.621395,542.125 37.54597,541.7194 36.976154,541.4863 36.698128,541.15857 35.58673,537.30206 35.69135,536.6795 36.234905,535.40186 37.335144,533.58575 40.990982,528.7467 43.46968,525.85077 55.44367,512.95514 60.2432,507.4019 63.484932,503.18277 64.57505,501.31717 64.73528,500.64572 64.40794,499.51215 63.73236,498.64987 62.827976,498.1125 61.564667,497.91632 60.79547,497.58456 59.32788,496.48306 57.940575,494.90808 55.48842,491.12238 53.926487,489.3708 52.423874,488.28586 50.338356,487.7305 49.530704,487.13998 48.92047,486.11 48.514336,483.8165 47.88915,482.56403 46.73432,481.31104 44.545525,480.0496 43.6127,479.11267 42.940357,477.93948 42.523045,475.89526 41.92409,474.96228 40.62141,474.11142 37.545696,473.70572 36.790096,473.32086 35.5701,469.3813 35.63629,468.5828 36.164494,467.31137 37.197372,465.6225 40.802963,461.0269 46.227726,455.12152 55.4201,445.7692 60.219814,440.5279 63.460804,436.58218 64.72401,434.43686 64.38336,433.26093 63.722244,432.5432 62.83708,432.08124 61.56463,431.903 60.795437,431.57135 59.327873,430.46976 57.94058,428.8949 55.48842,425.1091 53.926487,423.3575 52.423897,422.2726 50.338398,421.71722 49.530704,421.12674 48.920475,420.09683 48.51816,417.8155 47.889164,416.55078 46.696476,415.2833 44.55246,414.03714 43.612732,413.0995 42.94035,411.92624 42.523045,409.882 41.924095,408.94904 40.621403,408.09818 37.546036,407.6926 36.800022,407.33127 35.590584,403.42102 35.637344,402.74185 36.174442,401.37177 38.69315,397.5072 40.62136,395.0324 45.687828,389.22388 68.476654,365.7004 98.41243,335.29532 98.49291,334.6963 98.234436,334.14996 92.82031,328.0818 89.49803,324.8092 86.41228,322.48682 85.69856,322.1229 84.14607,321.70532 83.43381,321.11444 82.90015,320.10138 82.55332,317.73444 82.29033,317.04535 81.80201,316.3642 81.4128,316.064 79.78609,315.42905 77.85238,314.09497 75.43679,312.15613 72.4867,309.4572 70.42659,307.3059 68.52955,304.96506 67.38842,303.1499 67.11054,302.4006 67.192245,301.90738 76.30361,292.18274 94.7694,273.23196 139.72063,227.99826 165.89154,202.44046 172.57454,196.36592 174.04054,195.71191 174.4694,195.1794 174.81181,194.07945 176.00768,192.657 188.92545,179.03331 212.64601,154.95789 261.4046,106.13436 276.6827,90.40633 291.50595,74.633995 296.03488,69.51123 298.49878,66.307976 298.78708,65.52029 298.75668,65.09502 298.45532,64.02819 297.6974,62.835598 296.66318,62.08959 294.57144,61.68173 293.56564,61.08838 292.97565,60.29698 292.71674,58.92616 292.35608,58.04441 291.3872,56.59672 290.0915,55.2317 285.8812,51.953285 280.85098,47.51669 275.76907,42.607117 267.43338,34.108803 266.67224,33.789436 Z M635.28394,805.71 L634.2345,806.1231 633.1826,806.8538 626.46967,812.4553 616.41,821.6383 604.12683,833.34546 588.29565,848.92615 578.04474,859.3268 571.153,866.6166 568.82544,869.3742 568.6266,869.91724 568.8244,870.62244 570.3228,872.75275 572.99414,875.9403 576.6282,879.878 582.70746,885.9596 586.253,889.23315 588.90356,891.43567 590.0077,892.159 591.1331,892.64996 592.2067,893.70734 593.3959,895.31915 595.8105,899.2418 597.19586,900.8594 598.28076,901.7705 598.92957,902.114 599.3843,902.215 600.0074,902.01294 604.5724,898.3898 618.5665,885.6236 627.72327,876.94257 652.4287,852.73755 662.85077,842.1162 666.58844,837.9082 666.7007,837.3399 666.4988,836.797 665.6481,835.63837 657.90906,827.0284 652.2517,821.1701 641.3091,810.50037 637.49304,807.1303 635.8846,805.89545 635.28394,805.71 Z M834.62115,804.37866 L833.8693,804.6893 734.66174,903.394 734.5407,903.99554 734.8614,904.6632 757.3573,926.4073 764.99817,933.4998 768.0642,936.0487 768.818,936.0398 769.1625,935.8209 772.79504,932.3856 795.2102,910.2463 867.6386,837.2789 867.69635,836.6599 867.39856,836.1142 835.36835,804.6847 834.62115,804.37866 Z M600.1819,903.46857 L599.41376,903.795 565.0851,939.3749 553.2315,951.9286 540.4142,966.0685 537.9647,969.0316 536.75085,970.73535 536.5564,971.26825 536.9584,972.435 538.33044,974.31055 540.2137,976.3373 546.73035,982.3126 548.379,984.43744 548.7442,985.5519 549.57666,986.8581 551.90186,989.6257 553.88007,991.435 555.76355,992.8962 557.70544,994.1548 559.65686,995.06146 560.5687,995.672 561.5323,996.65845 562.2843,997.95496 562.8884,1000.5539 563.62524,1001.48865 564.6615,1002.1427 565.56274,1002.35266 566.22534,1002.1896 568.2341,1000.8239 571.23096,998.4419 580.15674,990.5464 591.83417,979.6446 607.4947,964.40985 623.7377,948.2175 629.96985,941.2998 631.12823,939.7309 632.2707,937.53546 632.3992,936.3197 631.9633,935.04504 627.9485,930.07086 627.13165,928.6832 626.7427,927.2636 626.4033,926.7104 625.8373,926.27625 624.7367,925.9959 623.38153,925.1314 618.4248,920.97217 612.3114,915.1569 600.93585,903.781 600.1819,903.46857 Z M768.3256,937.88354 L767.57605,938.19196 712.1966,992.67865 704.8779,1000.09644 701.7707,1003.44824 701.0578,1004.3311 700.8295,1004.8772 700.9281,1005.46075 701.41235,1005.9533 702.59546,1006.2596 704.8794,1006.49524 705.6789,1006.8109 706.2851,1007.29767 706.83704,1008.629 708.36206,1010.793 712.751,1015.87366 716.1589,1019.48425 720.7295,1023.9825 725.80975,1028.514 728.04297,1030.1403 729.2064,1030.5385 730.00397,1031.2092 730.7813,1032.2413 732.0926,1034.726 732.7095,1035.4008 733.5223,1035.9171 734.62134,1036.0107 735.6995,1035.2368 745.6435,1026.1503 766.05237,1006.66724 801.81836,971.7922 801.8776,971.17596 801.5854,970.6301 769.0787,938.1954 768.3256,937.88354 Z M566.8499,1003.77496 L566.0764,1004.1073 545.8566,1025.5413 539.2177,1033.2255 537.7618,1035.1262 536.58417,1037.1337 536.71234,1037.7906 537.33044,1038.8506 539.4235,1041.7266 542.5917,1045.5278 546.4483,1049.7876 550.4241,1053.8655 553.94354,1057.1886 556.7615,1059.5507 557.8093,1060.2031 558.9971,1060.6823 560.0461,1061.7358 561.16174,1063.3489 563.1828,1067.1715 564.21844,1068.758 565.40393,1070.0074 566.1408,1070.2834 566.7839,1070.0676 568.21344,1068.9818 574.80835,1063.0339 583.3871,1054.6556 599.98004,1037.918 600.28864,1037.2008 600.0257,1036.4657 593.822,1029.493 591.81775,1027.6526 590.1884,1026.4677 588.3472,1025.7047 587.22754,1024.6481 585.98816,1023.03687 583.6458,1019.2135 582.3204,1017.49414 581.11316,1016.3883 579.8074,1015.9155 578.32605,1014.9767 576.28827,1013.2609 572.74316,1009.71375 567.6381,1004.12286 566.8499,1003.77496 Z M734.1848,1037.7354 L733.4222,1038.0558 687.2354,1085.2782 672.38403,1100.7794 668.1213,1105.3651 667.1499,1106.497 666.90314,1107.0436 666.99066,1107.6368 667.27405,1108.008 669.7717,1108.7637 673.7188,1111.3896 676.6203,1113.8182 682.2512,1119.0029 688.51447,1125.5925 692.363,1129.1964 697.22003,1133.1421 698.70984,1134.0154 700.4841,1134.7758 702.3611,1135.1228 703.0779,1135.0695 703.7234,1134.7917 716.7662,1122.5916 736.39844,1103.4847 756.6729,1083.2106 762.9699,1076.3297 765.2714,1073.3258 766.55334,1070.8529 766.7511,1069.4261 766.51074,1068.445 765.94775,1067.4308 764.11945,1065.1461 763.19556,1064.3439 762.3307,1063.9872 761.0684,1063.0405 755.57947,1058.1766 734.9328,1038.0419 734.1848,1037.7354 Z M567.06915,1071.5681 L566.2968,1071.8993 545.91534,1093.4451 539.23914,1101.07 537.75336,1102.901 536.5792,1104.7974 536.77875,1105.8076 537.3291,1106.924 538.0575,1107.9484 542.02386,1112.5092 547.2376,1119.012 549.05853,1120.7163 550.70215,1121.8749 551.57025,1122.2838 552.9916,1122.5652 553.7643,1123.1564 554.3553,1124.1621 554.7254,1126.2655 555.5913,1127.5504 556.5635,1128.1643 558.80084,1128.6509 560.24695,1129.5504 561.5139,1130.7986 563.50977,1133.8221 564.54346,1135.0619 565.7902,1136.0859 566.5873,1136.3589 567.3804,1136.0552 570.47144,1133.7009 578.2517,1126.853 600.0952,1105.938 600.421,1105.1913 600.12524,1104.4321 584.95135,1088.7607 580.8046,1084.8981 578.1371,1082.95 575.2306,1080.1144 567.8618,1071.9209 567.06915,1071.5681 Z M366.8695,1406.4446 L368.73654,1407.6813 370.54465,1409.1892 378.335,1416.332 400.71005,1438.5575 400.72495,1438.9524 354.8714,1484.9784 340.22733,1500.1963 336.06628,1504.7974 334.63516,1506.666 334.58124,1507.2706 334.95773,1508.0441 337.71585,1511.4205 341.92935,1515.3672 343.897,1516.9458 345.51666,1518.0618 346.6613,1518.5299 347.13608,1518.9071 349.87662,1522.0728 353.32693,1526.7992 355.3483,1528.9486 357.44473,1530.6962 358.52017,1531.3655 360.6174,1532.3281 362.11734,1533.4425 363.42947,1534.7761 364.55054,1536.4634 364.8913,1537.9565 364.7856,1538.6794 364.2493,1540.1183 363.04385,1542.0367 358.42972,1547.3801 344.0485,1561.6162 336.4354,1568.687 333.21286,1571.4395 332.8394,1571.4707 331.85278,1570.9016 329.48895,1568.912 326.32147,1565.8058 322.25098,1561.4731 314.97998,1552.8779 312.47098,1549.2548 310.97006,1548.3613 309.37073,1548.1172 308.50735,1547.7277 306.91177,1546.6002 305.19193,1544.9393 299.889,1538.253 296.7659,1534.8317 288.27264,1526.7351 280.54422,1519.0173 273.46997,1512.5588 271.9382,1510.9905 270.2897,1508.9724 269.32248,1507.359 269.06262,1506.4519 269.21146,1506.097 271.4711,1503.4606 283.57568,1490.494 322.3037,1450.341 340.33353,1432.0361 354.86435,1417.5806 364.24786,1408.5734 366.8695,1406.4446 Z M500.607,603.5534 L499.7947,603.9284 498.56815,605.3667 492.42642,611.67896 467.5013,635.9885 467.0921,635.9854 449.15976,618.0528 439.34354,607.6324 436.81854,604.57623 436.43515,604.2126 435.91577,604.07806 435.2716,604.2944 433.6566,605.48236 429.78464,608.8603 417.3904,620.4772 404.93283,632.5592 386.75186,650.64 361.64755,676.14417 346.743,691.69867 337.3563,701.9317 335.04938,704.75995 334.8036,705.37335 334.76883,706.19147 334.9826,707.09656 335.546,707.85504 336.1972,708.21765 337.66278,708.5031 339.0464,709.1185 340.43692,710.0406 341.99478,711.438 343.6717,713.7417 344.27075,715.0512 344.65204,716.71826 345.13785,717.4641 346.26797,718.1741 347.50623,718.34595 348.34763,718.6696 350.14252,719.725 352.10318,721.2154 354.4621,723.5021 357.20792,727.05457 358.1677,728.78546 358.66824,730.6739 359.27353,731.47485 360.53476,732.14417 362.65915,732.43805 363.84537,732.9188 364.95456,733.6436 365.52615,734.2312 365.66135,734.6365 364.95236,736.3715 363.69644,738.2373 359.69077,743.2218 354.06305,749.39355 341.72952,762.2984 337.33615,767.36224 335.765,769.4093 334.54605,771.4727 334.72433,772.8349 335.23965,773.6686 335.9281,774.1571 336.7632,774.35986 338.0143,775.1106 340.80328,777.37494 346.4112,782.6637 350.50458,786.90857 354.1086,790.88983 356.8186,794.1571 358.29788,796.22296 358.92383,797.475 360.18448,798.13776 362.50623,798.53546 363.63348,799.22705 364.62512,800.27466 365.21796,801.2239 365.44852,801.85596 365.46823,802.50604 365.0641,803.9365 364.1766,805.6536 360.6129,810.3388 354.61423,816.88086 344.38263,827.40967 337.296,835.419 335.80316,837.3338 334.64807,839.1927 334.48953,839.80426 334.66956,840.546 335.2639,841.403 336.22867,842.03644 338.7568,842.59375 340.20233,843.49176 341.47385,844.7258 343.51144,847.7223 345.00964,849.14435 346.45236,850.0248 347.18018,850.2674 348.8411,850.4844 349.62167,850.82196 350.21658,851.36005 350.85938,853.20844 351.92706,855.0258 353.4309,857.0499 355.77032,859.71 359.3473,862.8362 361.1207,863.91455 361.80167,864.2275 363.10825,864.4892 363.7961,865.0023 364.3176,865.9031 364.81607,867.99835 365.93625,869.6207 367.35925,870.93317 371.1831,873.5467 373.67273,875.7882 376.27997,878.5256 382.49603,886.18677 384.06433,887.71387 384.627,888.12646 385.46454,888.4557 386.96368,889.5267 390.6096,892.7728 396.2195,898.5381 399.3145,902.1298 400.38675,903.6595 400.421,904.1271 395.71783,909.5046 384.20743,921.4132 368.51117,937.15753 368.22052,937.70416 368.28174,938.3202 375.6207,945.7512 379.3296,949.7906 381.92508,953.2007 382.97217,955.57806 383.58893,956.06976 385.10736,956.54626 387.28934,958.0909 392.4386,962.7662 398.52405,968.95514 402.08835,972.9207 404.7892,976.143 406.3075,978.25934 406.64572,979.14014 406.9711,979.525 408.3537,980.18054 409.94785,980.3419 410.9335,980.688 412.36935,981.73346 413.77496,983.36115 415.94177,987.2583 417.0788,988.8847 418.19952,989.9866 420.1128,990.7827 421.87045,992.047 424.08655,993.9151 427.10352,996.8828 428.95212,999.0637 430.49548,1001.57184 431.23392,1004.00464 431.23392,1005.51215 431.01318,1006.465 429.85562,1008.9223 428.73206,1009.9917 427.47223,1010.41406 425.92395,1011.41864 422.64188,1014.30585 409.08713,1028.4087 405.44788,1032.3966 404.1751,1034.0854 403.33008,1035.7131 403.06915,1037.0743 403.225,1038.3146 404.24738,1040.7799 405.78348,1043.2587 407.0377,1044.7451 408.34875,1045.8551 409.10187,1046.2548 409.9727,1046.3949 410.63226,1046.6947 411.9983,1047.796 413.3162,1049.358 415.71597,1053.1562 417.25684,1054.9083 418.6994,1055.9958 420.80328,1056.6248 421.92923,1057.5099 422.84323,1058.7687 424.19974,1061.8898 425.0453,1063.2153 425.9602,1064.0881 427.54123,1064.674 428.52536,1065.499 429.56223,1066.7617 430.31674,1067.873 430.96262,1069.4186 431.07883,1070.7028 430.92407,1071.505 430.21112,1073.1425 427.87488,1076.4474 423.77722,1081.0851 414.6062,1090.7037 405.18317,1101.0692 402.81253,1104.1489 402.6126,1105.0083 403.78586,1107.0038 405.8004,1109.5729 410.00366,1114.3073 413.10715,1117.3912 417.32233,1120.9368 419.28363,1122.1077 421.10706,1122.6161 421.8289,1123.2147 422.32907,1124.1107 422.66547,1126.2983 423.30997,1127.7848 424.17715,1128.9692 427.61188,1131.8922 430.24478,1134.7754 430.83896,1136.0076 430.72275,1137.4191 429.62814,1139.6282 427.27823,1142.8069 421.0332,1149.8165 414.68878,1156.4852 383.45248,1188.4458 373.02744,1199.4204 369.14243,1203.7968 368.8755,1204.467 368.96533,1204.9436 369.92377,1206.4608 373.17773,1210.5302 378.29276,1216.1492 400.41092,1238.4198 401.17654,1238.732 401.93643,1238.4022 418.75366,1220.8141 427.41,1212.0083 433.95584,1205.6908 435.36566,1204.4813 435.70755,1204.4436 436.22357,1205.0103 436.64755,1206.8546 437.74826,1208.5995 443.20322,1215.0201 448.60995,1220.8037 466.4965,1238.8386 466.4921,1239.2479 450.9252,1254.3004 443.24945,1262.2484 439.15942,1266.983 437.75232,1268.8389 436.649,1270.7684 436.50983,1271.2885 436.6434,1271.8098 437.74945,1273.7917 443.19843,1280.5767 450.88858,1288.8956 466.5032,1304.707 466.50412,1305.1166 440.55807,1331.6556 401.4054,1372.395 400.9958,1372.3994 378.69412,1349.9719 371.5105,1342.2611 370.003,1340.4979 368.80612,1338.7919 370.064,1337.0122 375.8972,1330.5087 384.09628,1322.01 400.38983,1305.6447 400.6266,1305.294 400.6886,1304.6794 400.39948,1304.1337 368.049,1271.4705 367.29132,1271.154 366.54184,1271.4623 344.5051,1293.3562 337.3312,1301.053 334.78723,1304.1816 334.57648,1304.7263 334.68488,1305.3002 335.76398,1306.7633 339.2609,1310.7935 344.43933,1316.2985 366.81915,1338.7532 366.7562,1339.0917 332.3772,1373.1732 319.61966,1385.5552 311.19073,1393.4082 304.68967,1399.1531 300.51672,1402.385 299.3517,1402.9916 299.0458,1402.8584 298.5074,1401.7559 297.65268,1400.909 296.5272,1400.2992 294.47998,1399.9067 293.63406,1399.3634 292.98373,1398.3844 292.49634,1396.2542 291.45743,1394.8077 290.16293,1393.7983 287.19852,1392.442 285.88892,1391.3829 285.0499,1390.2224 284.63013,1388.0885 284.00455,1386.8696 283.27667,1386.2974 282.07812,1385.9774 280.4781,1385.1177 275.74164,1381.4026 272.16446,1377.82 270.37402,1375.5309 269.29108,1373.724 269.0644,1372.957 269.173,1372.4207 273.13092,1367.7858 285.90286,1353.9146 317.96484,1319.904 327.75778,1308.9878 330.09207,1306.1848 331.0659,1304.751 331.22458,1304.2382 331.01846,1303.5582 328.377,1300.285 318.27304,1289.2734 315.37067,1285.8665 313.4522,1283.323 312.26666,1280.8037 311.66107,1280.3525 309.57806,1279.7784 306.42642,1277.6826 304.3395,1275.7433 301.89822,1273.0521 300.8556,1271.5773 300.87637,1271.259 308.35486,1263.3745 321.07803,1250.6016 366.6245,1205.7454 366.8615,1205.3936 366.92218,1204.7781 366.63147,1204.2323 337.21747,1174.7692 324.75964,1161.9608 314.8727,1151.1184 312.9411,1148.636 312.59985,1147.6437 311.957,1146.8334 310.66895,1146.2087 308.55762,1145.9137 307.65808,1145.5277 306.96207,1144.8385 306.59543,1143.5525 305.98563,1142.8374 305.00732,1142.3104 302.4769,1141.8065 301.57712,1141.181 300.98453,1140.2749 300.797,1138.8529 301.04294,1137.7942 301.77625,1136.0099 302.86786,1134.1022 304.55032,1131.9269 305.71768,1130.7848 307.36987,1129.5144 308.91095,1128.654 310.9703,1128.2501 312.1186,1127.648 312.61346,1127.0182 312.83936,1126.2045 313.54474,1124.9757 317.2325,1120.592 322.31802,1115.3094 332.1767,1105.6384 332.50854,1104.9655 332.2059,1104.1105 322.24866,1094.0112 317.16867,1088.4526 313.5368,1083.8534 312.81992,1082.508 312.54312,1081.3226 312.0109,1080.5732 311.34198,1080.1752 310.39682,1080.0315 309.64844,1079.7014 307.96527,1078.6852 305.9519,1077.1929 303.31104,1074.8752 300.2532,1071.368 299.15765,1069.638 298.58807,1067.699 297.98917,1066.919 296.6562,1066.2163 294.45346,1065.8955 293.6477,1065.5563 293.05154,1065.055 292.61777,1063.9053 291.753,1062.5607 287.34982,1057.3417 281.1333,1050.7972 268.54132,1038.2047 268.5156,1037.8163 281.6591,1023.7414 288.55145,1016.7514 294.30167,1011.68494 295.44717,1010.8763 296.66827,1010.3844 297.33694,1009.7918 298.08948,1008.44275 298.56473,1006.65497 298.7804,1004.84375 298.61832,1001.9294 298.13464,1000.01764 297.166,998.3995 295.41617,997.4461 293.22397,995.6545 288.16647,991.1433 281.34647,984.72235 264.2016,967.90173 234.38219,937.88983 234.45793,937.6527 250.45029,921.5745 259.51703,912.23376 266.39862,904.5366 266.63177,903.7509 266.41098,903.2062 263.9802,900.3188 259.6333,895.5961 247.35768,883.0318 235.37236,871.353 229.64821,866.5902 224.93462,862.25793 221.72704,859.0492 219.15277,856.145 217.41336,853.82007 216.8058,852.58765 216.49251,851.319 215.92749,850.5908 215.20023,850.15656 214.24431,849.9663 213.81236,849.7134 210.61626,847.3116 208.3859,845.40393 199.7867,837.43225 193.38303,831.0422 187.70168,825.084 183.39949,820.20044 181.04916,817.05194 180.48508,815.30756 179.93219,814.58685 179.21083,814.1474 178.17896,813.9802 177.44292,813.6657 175.8005,812.6095 173.94876,811.09424 169.7498,806.9786 168.63913,806.1851 167.69217,805.79065 166.3096,805.7904 165.23679,806.27 164.17313,807.0757 153.31395,817.7445 134.60341,837.0334 134.3083,837.8874 134.62303,838.5381 140.57913,844.3702 144.12682,847.50134 147.28136,849.76556 148.24437,850.2223 149.25958,850.44214 149.86304,850.88074 150.30553,851.6228 150.61745,852.96985 152.21268,855.3986 154.88017,858.5927 158.45699,862.4222 162.5269,866.40704 166.4021,869.90765 169.73091,872.6256 171.80905,874.0251 173.2118,874.5059 173.84447,875.0885 174.30168,876.08936 174.6528,878.2162 175.55447,879.5081 176.55684,880.1197 178.6657,880.4864 179.66644,880.9999 180.16333,881.5391 180.7129,883.01776 181.68799,884.38617 184.91757,888.19965 189.96121,893.716 198.77744,902.9258 223.02487,927.5066 229.36728,934.2099 232.38289,937.7398 232.38518,938.0334 229.68169,941.27704 222.55225,948.90485 200.68526,970.96045 200.39624,971.50714 200.45879,972.1224 213.65576,985.2207 221.10611,992.34424 228.08482,998.71674 233.16034,1003.04144 234.81706,1004.85364 235.92033,1006.4494 236.37202,1007.4513 236.60785,1008.84186 237.0606,1009.67053 237.72421,1010.2218 238.79694,1010.61664 241.37709,1012.58386 245.41464,1016.0658 250.40962,1020.7031 260.6139,1030.8092 264.2159,1034.7101 266.39682,1037.4607 266.46988,1037.6704 266.1775,1038.1965 263.70007,1041.2014 256.5981,1048.8734 234.78548,1070.8927 234.49484,1071.4395 234.55606,1072.0554 252.90169,1090.9596 262.3735,1100.2324 269.96582,1106.93 271.78326,1108.1849 273.08685,1108.5234 273.88992,1109.0507 274.30588,1109.7146 274.8596,1111.7352 275.9754,1113.5132 277.5848,1115.5347 279.06998,1117.077 281.72806,1119.4138 283.75598,1120.9204 285.58163,1122.0155 287.42493,1122.6387 287.95395,1123.241 288.3119,1124.041 288.61447,1126.2617 289.00348,1127.2417 289.94897,1128.1888 291.24274,1128.5511 291.85977,1129.14 292.32068,1130.1387 292.67093,1132.2584 293.28598,1133.2709 294.56458,1134.1653 295.943,1134.3993 296.76266,1134.71 297.6696,1135.5396 298.2191,1136.6606 298.4696,1137.7837 298.32132,1139.7644 297.96136,1140.9117 297.44617,1141.7222 295.99362,1142.4141 293.4474,1144.3969 289.6049,1147.8936 284.7961,1152.6006 277.21265,1160.508 273.03815,1165.1062 270.1169,1168.549 268.79666,1170.4674 268.8552,1171.0607 269.51578,1172.2969 273.57446,1177.3397 277.85016,1181.8706 285.0757,1189.0729 290.45566,1195.0616 292.2674,1197.548 292.90277,1199.2052 293.59528,1199.8245 294.29245,1200.1547 296.6423,1200.63 297.56323,1201.347 298.2547,1202.5255 298.48233,1203.5045 298.3201,1204.2546 297.03745,1206.2078 294.6146,1209.2521 291.17447,1213.2136 284.35547,1220.6058 272.93323,1232.4274 246.19153,1259.1089 235.96933,1269.693 234.9172,1270.9196 234.67043,1271.4661 234.75793,1272.0593 235.7397,1273.3062 241.67928,1279.6191 266.73102,1304.4337 266.73355,1304.8433 244.47778,1327.318 239.30304,1332.7888 235.8251,1336.7152 234.80829,1338.041 234.59364,1338.5858 234.69879,1339.1617 235.7562,1340.56 241.67969,1347.1466 249.98274,1355.7191 266.82986,1372.6644 266.82483,1373.074 244.49953,1394.453 237.3327,1401.6652 234.93057,1404.33 234.66905,1404.8767 234.9263,1405.7532 237.2457,1408.4712 244.41707,1416.0486 266.66153,1438.533 266.66092,1438.9412 234.34908,1471.4207 234.05922,1471.9669 234.12083,1472.5822 234.3044,1472.8766 238.6377,1477.8031 244.13884,1483.5592 267.0248,1506.4393 266.9751,1506.7754 248.17326,1524.9285 240.65263,1532.4937 238.34207,1535.1285 236.78308,1537.3268 236.05542,1538.996 235.96312,1539.6514 236.10806,1540.6431 236.67844,1541.6796 237.96855,1543.1527 247.52934,1553.1155 289.50742,1595.8969 299.61258,1606.5653 305.32614,1613.0753 307.03598,1614.6803 308.6816,1615.8527 309.5908,1616.2927 311.09824,1616.543 311.74338,1616.8352 312.2417,1617.2789 313.3475,1619.386 317.00696,1623.9158 322.6872,1630.2101 332.26035,1640.3397 333.03506,1640.6731 333.7892,1640.3608 367.1676,1606.9751 367.57758,1606.9762 395.48575,1635.1741 407.5126,1646.9813 417.6575,1656.3435 420.06976,1658.2131 421.3881,1658.7671 421.9556,1659.4076 422.3216,1660.2732 422.77118,1662.7292 423.84125,1664.2653 425.1452,1665.2699 428.09653,1666.4861 429.31433,1667.3794 430.22302,1668.5261 430.69437,1670.5077 431.60202,1671.7301 432.58585,1672.287 434.7384,1672.6243 435.71826,1673.1067 436.31137,1673.7445 436.6928,1674.8981 437.7731,1676.514 443.29843,1682.8246 451.11746,1690.8243 466.65,1706.0027 467.39594,1706.3069 468.13855,1706.0061 485.62112,1689.0607 495.6838,1679.0745 499.18304,1675.356 499.63776,1674.33 499.56442,1673.4408 499.15274,1672.8192 497.8955,1672.096 497.31723,1671.5293 496.95386,1670.8678 496.70532,1669.7069 495.32758,1667.4797 492.23618,1663.8553 487.86023,1659.7372 486.0853,1658.3716 485.43668,1658.0734 484.2891,1657.0842 477.98636,1651.0983 460.75958,1634.0435 451.43268,1624.373 445.5026,1617.8633 439.6531,1610.9062 437.29068,1607.5543 436.8457,1606.5458 436.8147,1606.1388 440.49164,1601.3842 444.8407,1596.5238 450.68997,1590.2653 466.26212,1574.281 483.38403,1557.2719 534.8499,1506.9492 535.25867,1506.9514 542.13043,1513.8344 545.5782,1517.643 547.98315,1520.9325 548.4983,1522.0432 548.6981,1522.8999 549.3375,1523.6793 550.5952,1524.306 552.71075,1524.6615 553.6174,1525.2499 554.3088,1526.2618 554.92206,1528.706 555.6765,1529.6343 556.72363,1530.2417 559.0619,1530.7314 560.3408,1531.6252 561.32654,1532.8632 562.54407,1535.993 563.153,1537.0979 563.89856,1537.9674 564.4054,1538.3163 565.1091,1538.5223 566.87103,1539.8081 573.88214,1546.0201 582.9732,1554.7424 600.8261,1572.4802 600.829,1572.8889 526.031,1649.2205 510.20673,1666.1235 505.22418,1671.8397 502.6437,1675.2721 502.52316,1675.8547 502.65128,1676.6171 503.30072,1677.7914 504.0318,1678.3246 504.89767,1678.5387 506.4942,1679.5591 512.53174,1684.6705 520.04034,1691.7762 534.2306,1705.8674 534.98236,1706.1775 535.73315,1705.8685 603.1088,1639.0548 625.31635,1617.448 632.00476,1611.1361 634.66876,1608.8312 635.2518,1608.9915 636.57025,1609.8275 638.3924,1611.2343 646.102,1618.1299 667.72455,1639.933 668.4856,1640.2523 669.24445,1639.9353 719.8984,1588.7134 742.17554,1565.859 759.2211,1547.7994 765.01855,1541.2417 766.3303,1539.5846 766.52405,1538.9828 766.3352,1538.3655 765.39417,1537.2095 765.0451,1536.2979 764.8479,1534.7231 764.51215,1533.8188 763.7672,1532.9109 763.1039,1532.4814 760.6762,1531.9327 759.6707,1531.2446 759.07605,1530.3373 758.65717,1527.9366 758.35333,1527.2517 757.79425,1526.5668 755.43036,1525.4653 752.7191,1523.4878 749.318,1520.6438 738.40485,1510.8411 735.2186,1508.4403 734.65375,1508.2782 734.2743,1508.3474 732.66565,1509.586 728.20935,1513.6547 713.4722,1527.7856 668.71466,1572.0089 668.30524,1572.0073 635.77765,1539.4282 635.78357,1539.0187 651.91595,1523.7388 659.8664,1515.7699 662.19037,1513.2634 665.6085,1509.192 666.6747,1507.5833 666.7937,1507.022 666.60516,1506.4803 665.33954,1504.6677 659.4932,1497.9707 641.17255,1478.7872 628.2415,1465.8309 614.0144,1451.891 605.7696,1444.0704 603.0848,1441.6566 601.378,1440.35 600.66235,1440.3408 599.11365,1441.4513 592.7439,1447.2002 577.27057,1462.3962 571.8599,1467.4926 567.9632,1470.9043 566.14575,1472.137 565.45795,1471.7406 564.49066,1470.6932 563.4648,1469.1399 561.3748,1465.3196 560.0896,1463.7294 558.5261,1462.4866 556.4443,1461.9244 555.6338,1461.3392 555.0156,1460.3347 554.62286,1458.2175 553.7247,1456.9335 552.72,1456.3292 550.4954,1455.9983 549.6888,1455.7012 549.0985,1455.2688 548.3135,1453.4791 546.9148,1451.4202 542.6404,1446.1086 536.4367,1439.1544 536.0801,1438.8927 535.2208,1438.8839 501.2073,1472.4548 500.79758,1472.4526 467.8745,1439.1361 467.09625,1438.801 466.31766,1439.1401 449.69302,1456.1978 441.01102,1464.7487 436.0664,1469.3236 433.01514,1471.8212 432.42892,1472.137 431.89584,1471.9526 431.26813,1471.2577 430.9313,1470.3633 430.59814,1468.2195 429.9954,1467.235 428.7021,1466.3312 426.48947,1465.9492 425.68604,1465.5707 425.07233,1464.9764 424.66718,1463.7449 423.94882,1462.5116 421.5927,1459.5132 418.0755,1455.6193 409.46875,1446.9347 405.95795,1443.1448 403.6288,1440.3135 402.87308,1439.1342 402.89813,1438.7408 403.98114,1437.1738 407.2233,1433.2805 417.06378,1422.6438 426.54935,1413.1854 431.13452,1409.026 434.0508,1406.7048 435.62912,1406.1624 436.31613,1405.6152 436.69516,1404.8804 436.85324,1404.1204 437.98883,1402.4406 443.5273,1396.2294 451.23843,1388.445 466.93765,1373.3093 467.34616,1373.311 478.4948,1384.2173 484.34894,1389.6262 489.23386,1393.5845 490.5113,1394.3557 491.40033,1394.5575 491.95422,1394.9182 492.3965,1395.5995 492.88306,1397.5015 495.01187,1400.6864 497.82294,1403.5721 499.01886,1404.3333 499.9495,1404.5759 500.7636,1404.4856 502.45612,1403.7263 506.30438,1400.7437 515.072,1392.5242 535.18634,1373.0747 535.5958,1373.0898 544.48553,1383.0515 547.3641,1386.7706 548.9576,1389.5947 550.37286,1390.2677 552.73785,1390.57 553.6344,1390.9523 554.3363,1391.6564 554.6955,1392.913 555.3409,1393.6783 556.6234,1394.276 558.7108,1394.6128 559.7267,1395.2235 560.3213,1396.0166 560.7935,1398.1678 561.545,1399.7588 562.65826,1401.3995 563.671,1402.5748 600.2181,1438.3862 600.96643,1438.6929 601.7195,1438.3816 623.97015,1416.3538 631.72235,1409.1312 634.6487,1406.7239 634.979,1406.498 635.34906,1406.504 636.7876,1407.5544 640.3429,1410.786 650.31104,1420.5558 662.4841,1433.2792 671.3875,1443.1785 673.1104,1444.71 674.7667,1445.8267 675.6387,1446.2433 677.094,1446.4994 677.9159,1446.913 678.4071,1447.4658 678.92163,1449.072 680.0506,1450.877 682.9639,1454.5002 685.521,1457.1151 687.5517,1458.8069 689.27246,1459.9541 690.0643,1460.3365 691.3049,1460.574 691.9203,1460.9863 692.41376,1461.7258 692.7671,1462.9989 694.2287,1464.998 701.9636,1473.6571 709.51715,1481.5316 734.73816,1506.5402 735.1472,1506.6211 735.8997,1506.3088 768.7535,1473.4357 769.0658,1472.6716 768.7395,1471.9135 735.17316,1439.5374 735.1679,1439.1273 753.3734,1420.627 759.89136,1413.7854 764.8325,1408.0526 766.31885,1405.991 767.14124,1404.5079 767.38403,1403.3483 767.0893,1402.7313 766.18097,1402.204 763.55164,1400.1984 759.89136,1397.032 749.17694,1386.7373 745.4133,1383.3451 742.44476,1380.9493 741.38727,1380.2944 740.1457,1379.8479 739.4649,1379.2948 738.68414,1378.3073 737.4974,1375.9448 736.179,1374.4774 735.7964,1374.2587 735.0181,1374.2217 731.5068,1376.8798 723.66144,1383.921 707.8666,1398.7367 703.39545,1402.5769 701.0806,1404.1931 699.51917,1402.5275 698.2687,1401.7396 695.27905,1400.4437 694.0374,1399.454 693.13165,1398.2244 692.504,1395.8217 691.73987,1394.8772 690.7621,1394.3206 688.5273,1393.9626 687.72845,1393.6683 687.12634,1393.1888 686.4714,1391.457 685.3592,1389.6787 683.8036,1387.6262 681.3829,1384.8853 677.9146,1381.651 676.3162,1380.4565 674.47363,1379.6398 673.0798,1378.5316 662.70404,1367.0553 652.00543,1355.8309 640.5552,1344.5538 636.93506,1341.2961 635.8107,1340.4574 635.1475,1340.2266 634.5008,1340.4432 631.51685,1342.9178 623.7613,1350.1187 601.1512,1372.5043 600.74097,1372.5033 579.8882,1351.5518 569.6536,1340.8911 562.34174,1332.5953 560.9092,1330.6132 560.6482,1329.6333 560.0067,1328.8696 558.69653,1328.248 556.6362,1327.893 555.7294,1327.296 555.0353,1326.2867 554.6233,1324.1909 553.73016,1322.9169 552.7176,1322.3018 550.49756,1321.974 549.6853,1321.696 549.103,1321.2916 548.6076,1320.1012 547.7212,1318.6776 545.14056,1315.4122 539.4164,1308.8717 537.3092,1305.9403 536.8619,1304.8605 537.9096,1303.1696 542.9768,1297.1774 551.3934,1288.0886 556.2466,1283.1875 563.09125,1276.8418 565.9736,1274.6504 567.94775,1274.0294 568.7435,1273.1464 568.82526,1272.6825 568.6974,1272.2255 567.6806,1270.8904 566.3812,1269.7269 563.26636,1267.4126 561.9682,1265.9326 561.1148,1264.4712 560.66656,1262.1537 559.90283,1260.878 558.9899,1260.2539 557.5038,1259.8369 555.2478,1258.4012 551.9632,1255.7202 548.21405,1252.2401 545.76373,1249.7877 540.96436,1244.5349 537.5547,1240.282 536.8597,1238.9362 537.13806,1238.3508 539.4171,1235.3676 545.8705,1227.9716 554.56445,1218.7046 564.23456,1208.9622 566.99316,1206.4863 567.3594,1206.475 570.4406,1209.1558 578.00073,1216.3433 600.17175,1238.3932 600.92365,1238.7034 601.672,1238.3966 618.2477,1222.0863 627.03204,1214.0562 632.1215,1209.9858 634.0624,1208.6677 635.51886,1207.9231 636.35675,1207.8369 637.9871,1208.9589 642.73206,1213.0334 650.6959,1220.8765 656.8899,1227.8937 658.33997,1229.9731 659.0406,1231.4629 660.36584,1232.1945 662.8635,1232.536 663.6729,1232.8342 664.2774,1233.2965 664.97437,1235.0203 666.21075,1236.9454 667.90137,1239.146 670.6522,1242.3035 675.5814,1246.9641 678.49817,1249.41 683.243,1252.8707 684.9457,1254.5502 686.1446,1256.2361 686.52673,1257.0852 686.7447,1258.4242 687.3642,1259.3816 688.3112,1260.0641 690.7371,1260.6078 691.6427,1261.1494 692.3421,1262.1272 692.8218,1264.2305 693.6969,1265.5002 695.17834,1266.7065 698.16284,1267.9778 699.39276,1268.7322 700.299,1269.5773 700.5627,1270.1415 700.4936,1270.4011 699.31616,1272.0404 695.85065,1276.1317 690.7562,1281.724 668.7869,1304.3575 668.37714,1304.3595 653.627,1289.4136 644.66187,1280.8948 639.67633,1276.7595 637.6949,1275.3512 636.07275,1274.3881 635.0531,1274.1023 633.9897,1274.4589 630.56177,1276.7186 625.4574,1280.8885 622.49384,1283.5238 617.0097,1288.7064 601.4155,1304.2279 601.1217,1304.7739 601.1814,1305.3911 634.27637,1338.3132 635.0269,1338.6221 635.7777,1338.3132 654.8191,1319.441 662.99054,1311.6477 665.6568,1309.3777 667.6092,1308.0612 669.04266,1307.5223 670.03705,1307.6041 670.95166,1308.3005 672.5731,1310.1586 673.87634,1311.2778 675.33075,1312.1329 677.2033,1312.7292 678.18066,1313.7687 679.0968,1315.4348 680.3808,1319.3213 681.08325,1320.7711 681.87933,1321.8447 683.6292,1322.8923 685.4514,1324.3887 695.31793,1333.5604 707.1176,1345.1355 734.24243,1372.4069 734.99884,1372.7216 735.7531,1372.4093 768.8181,1339.2518 768.87646,1338.6338 768.581,1338.0878 755.7683,1325.4413 748.0328,1318.0292 742.5761,1313.2219 741.38007,1312.3208 740.3728,1311.8596 739.45074,1311.0247 737.3769,1308.2926 736.77466,1306.5604 736.9334,1305.3213 737.72656,1303.5826 739.2464,1301.4744 741.66644,1298.7037 751.4124,1288.861 768.37445,1272.3309 768.7124,1271.622 768.36926,1270.7635 761.5449,1264.5063 756.91595,1259.6515 755.39886,1257.5862 755.0283,1256.9082 754.6899,1255.6506 754.08624,1254.881 752.8034,1254.2297 751.36786,1254.0807 750.47656,1253.798 749.02106,1252.9694 747.53845,1251.6658 745.24884,1248.6774 743.7582,1247.2489 742.3412,1246.3685 741.4307,1246.087 740.23346,1245.9536 739.0965,1245.2942 738.71124,1244.294 737.1148,1242.0322 730.81226,1234.7994 724.6964,1228.5814 719.575,1223.9568 717.20734,1222.2709 715.88275,1221.9421 715.31726,1221.6119 714.2368,1219.3335 711.7561,1216.114 708.3026,1212.2897 701.3548,1205.1484 701.3579,1204.7399 726.4235,1179.5752 730.39636,1175.0869 732.425,1171.8984 732.8934,1169.9092 732.5749,1168.6034 731.90796,1167.421 731.0565,1166.329 729.80865,1165.1334 728.53906,1164.3259 727.252,1164.039 726.644,1163.7252 725.3323,1162.6239 724.0371,1161.0598 721.67267,1157.2397 720.33636,1155.5132 719.1412,1154.4521 717.2528,1153.6428 715.58746,1152.3356 713.5976,1150.4445 710.9788,1147.479 709.1087,1145.654 706.34973,1143.6527 703.97034,1142.5441 701.8911,1142.0813 700.41144,1142.1986 698.5354,1142.9547 695.9848,1144.5605 690.81824,1148.7882 680.5444,1158.4832 669.8328,1169.2443 635.30444,1204.7146 634.89465,1204.717 619.04364,1188.8169 610.9194,1180.9669 604.5286,1175.3479 602.93646,1174.2343 601.7871,1173.8975 601.2863,1173.5414 600.95105,1173.0105 600.6373,1171.9246 599.03485,1169.6292 592.75714,1162.5071 583.321,1153.1428 580.8701,1150.9412 578.87714,1149.6042 576.3241,1147.3507 567.36304,1138.2212 566.9327,1138.1312 566.1675,1138.4564 535.0097,1170.7296 534.6001,1170.7312 515.0567,1150.9675 510.13852,1146.3718 506.48907,1143.2706 504.99265,1142.2574 503.85355,1141.7504 503.31348,1141.0474 502.9371,1140.0732 502.5863,1137.3647 502.1929,1136.8987 501.60864,1136.7244 501.18466,1136.8123 491.00397,1147.183 467.0512,1170.5436 466.64197,1170.5403 451.05667,1154.8563 445.98383,1149.4827 443.40244,1146.5989 439.3187,1141.6335 437.96133,1139.739 436.84375,1137.6685 436.84506,1137.1128 437.10245,1136.5122 437.94333,1135.105 441.14783,1130.9974 445.80737,1125.7949 461.01102,1110.5726 463.10764,1108.0948 464.14673,1106.4323 464.50723,1105.4508 464.58688,1104.7318 464.36896,1103.6422 462.78183,1101.2671 455.26025,1093.2975 445.88623,1083.9213 441.77698,1079.3142 438.70966,1075.2236 437.6672,1073.5345 437.02277,1072.1093 436.8147,1070.9476 437.09198,1070.046 437.87338,1068.5076 439.19812,1066.5 443.08862,1061.5715 448.45325,1055.6863 461.09418,1042.7758 463.10135,1040.3472 464.22427,1038.5408 464.52783,1037.775 464.66214,1036.8206 464.5767,1036.1267 463.62994,1034.4026 461.13126,1031.4584 456.64557,1026.5951 449.631,1019.4037 446.14938,1016.16943 443.03833,1013.53357 440.69907,1011.831 439.45676,1011.2142 438.69308,1010.5595 437.68457,1009.04016 437.04898,1007.2511 436.81207,1005.60077 436.9801,1003.7245 437.56738,1002.06433 438.59686,1000.1472 440.11267,997.98694 444.70224,992.6484 455.41122,981.9416 460.92065,976.1372 462.7078,973.94995 463.84985,972.2457 464.4406,970.93317 464.5595,969.9169 464.14304,968.848 448.43478,952.3699 444.97424,949.10785 442.2878,946.91437 441.03204,946.15656 439.85446,945.85645 439.29752,945.4921 439.01175,945.12225 438.73776,944.1006 438.20193,943.05035 437.4512,941.95294 433.915,937.5574 427.62177,930.603 425.06296,927.5119 423.40848,925.1962 422.36884,922.9608 421.25903,922.24426 419.77966,922.0401 418.85565,921.6702 417.46585,920.61865 416.022,919.00745 413.5838,915.18506 412.30475,913.603 410.81302,912.3684 408.84454,911.7153 407.55826,910.7928 406.2649,909.47504 405.35257,908.2646 404.333,906.48724 403.901,905.31915 403.8252,904.231 404.12317,903.0929 404.83905,901.8042 407.82117,898.20276 425.12274,880.2802 428.5088,876.506 430.5604,873.47925 431.16873,872.1325 431.54367,870.64825 431.48676,868.53326 430.81256,866.7715 429.68558,865.2008 428.49615,864.30194 426.4761,863.80707 425.54175,863.06256 424.99084,862.1047 424.52322,859.7336 423.46286,858.2271 422.1757,857.2114 419.11417,856.03937 417.95602,855.4139 417.13126,854.7183 416.0002,852.5743 413.78467,849.8379 407.03842,842.68494 398.82858,835.04767 396.11823,832.7848 394.08792,831.674 393.06503,830.58716 391.9011,829.0004 389.57904,825.16693 388.16577,823.44635 386.8409,822.33435 386.35583,822.06836 385.4559,821.8846 384.69226,821.43054 382.8998,819.9225 380.8626,817.73456 376.65558,812.4131 374.4246,810.1067 372.6562,808.69183 371.7788,808.1914 370.1948,807.8179 369.4419,807.2846 369.01886,806.61975 368.80106,805.86145 368.85602,805.44025 370.02866,803.54065 371.5438,801.6244 378.6064,793.61707 392.17215,779.52893 396.93436,773.9517 398.42154,771.8141 399.32333,770.1042 399.77786,768.42914 399.49432,767.0676 398.1275,764.94507 397.20837,764.2058 396.01263,763.7813 393.9195,762.23 390.69965,759.3602 386.8591,755.6169 380.88522,749.3159 377.68674,745.63934 375.56973,742.95416 374.32703,740.8062 372.98398,740.15 370.56342,739.8356 369.67047,739.44653 368.97452,738.75745 368.80106,738.2267 368.9554,737.8242 372.83185,733.22736 378.57474,727.06085 389.22202,716.0891 405.6248,699.68677 418.2017,687.5103 426.02957,680.2081 431.9653,674.9249 434.5835,672.7773 435.89224,671.95776 436.2123,672.0528 439.02826,675.56323 451.17285,688.4104 466.51782,703.89966 467.27707,704.2156 468.02496,703.9078 501.4677,670.87823 501.87735,670.88104 534.5863,704.07574 535.3465,704.394 536.1187,704.0628 557.0194,682.1433 564.3346,674.9817 567.5917,672.2943 569.3958,673.54456 571.1152,674.9975 581.92175,685.0323 608.87933,711.59045 634.6991,736.47156 634.7029,736.8812 601.81226,769.796 601.5208,770.34216 601.58105,770.9583 601.82855,771.3205 617.13434,786.45874 626.253,795.27814 632.591,800.9949 634.06964,802.10864 634.77783,802.1057 637.81323,799.65924 642.3708,795.4313 654.37177,783.68164 662.21533,775.44006 665.63416,771.5046 666.5698,770.18695 666.7666,769.5816 666.5829,768.9721 665.80646,767.8321 661.3173,762.59955 639.79944,740.24927 638.6122,738.79407 638.0901,737.29083 638.3372,735.9746 638.7381,735.16693 640.9726,732.1657 645.1412,727.7733 654.5931,718.59674 660.0393,713.00244 665.62946,706.54706 666.659,704.97687 666.78577,704.394 666.57904,703.83435 663.0707,699.59094 649.34705,684.91394 633.1177,668.23425 617.6885,652.705 600.06085,635.3272 584.1334,620.0744 572.8424,609.80585 569.4615,607.0205 568.15735,606.16284 567.5741,605.9903 566.5994,606.328 563.33594,608.5688 561.0766,610.42303 555.73804,615.28217 550.5444,620.44885 535.533,636.14655 535.12274,636.15063 511.57388,612.6529 503.7606,605.63513 501.96487,604.2156 501.1758,603.71814 500.607,603.5534 Z " />
</g></svg>