<?xml version="1.0" encoding="UTF-8"?>
<!DOCTYPE svg PUBLIC "-//W3C//DTD SVG 1.0//EN" "http://www.w3.org/TR/2001/REC-SVG-20010904/DTD/svg10.dtd">
<svg shape-rendering="geometricPrecision" text-rendering="geometricPrecision" image-rendering="optimizeQuality" fill-rule="evenodd" xml:space="preserve" 
 xmlns="http://www.w3.org/2000/svg" xmlns:xlink="http://www.w3.org/1999/xlink"  viewBox="0 0 1157.2977697178721 1000.2066442295909" width="115.72977697178722mm" height="100.02066442295909mm" >
<g><path fill="#000000" d="M529.31696,58.8086 L528.80554,59.02039 528.59375,59.531784 528.59375,78.032364 528.80554,78.54373 529.31805,78.75555 547.01666,77.92435 547.4953,77.71499 547.7085,77.23618 548.55,59.567265 548.35144,59.03312 547.8277,58.8086 Z M940.781,19.740541 L940.97736,19.936829 940.97736,38.50304 941.18915,39.014404 941.4237,39.171387 970.8617,39.321346 976.2106,39.491776 979.7784,39.84642 980.1206,43.429226 980.30896,48.766205 980.45996,78.21085 980.8448,78.59569 981.12634,78.652504 999.61957,78.652504 999.8164,78.847496 1000.3047,137.23837 1000.3425,171.79031 1000.17206,184.69861 999.64075,194.56915 999.4402,194.75926 961.01764,194.75926 960.8213,194.56299 960.7467,184.3806 960.25995,179.15712 960.0006,177.8535 959.64844,177.13753 958.9209,176.50618 957.6501,176.0241 955.6773,175.69217 950.7298,175.34917 916.4339,175.17853 908.8802,175.00838 903.9039,174.64713 903.64514,172.12103 903.3632,161.35834 903.38226,116.65887 902.9907,116.26532 902.7129,116.20996 884.1078,116.20996 883.91003,116.01517 883.38605,82.09588 883.31067,64.98906 883.4428,52.093864 884.0324,39.568867 884.23303,39.377922 891.96655,39.37826 897.06384,39.09724 900.55804,38.59443 901.66907,38.026188 902.1831,37.45396 902.58295,36.683758 903.1389,34.38533 903.41974,29.13159 903.4199,19.936829 903.6163,19.740541 Z M511.19012,78.445885 L510.6787,78.65767 510.46692,79.16907 510.46692,97.88696 510.2707,98.0832 491.55283,98.0832 491.27127,98.14002 490.88644,98.52485 490.82965,156.47864 491.0414,156.99004 491.55283,157.20181 509.95038,157.20181 510.2319,157.145 510.61676,156.76016 510.67355,116.612816 510.86978,116.41658 548.0348,116.41658 548.231,116.612816 548.231,135.33072 548.4428,135.84212 548.9542,136.05391 587.30945,136.05391 587.5057,136.25014 587.5057,156.47864 587.71747,156.99004 588.2289,157.20181 606.9468,157.20181 607.143,157.39804 607.16113,168.29178 607.40497,171.86244 607.96075,174.14316 608.8712,175.48145 610.0005,176.05482 613.4253,176.5701 618.5889,176.83868 626.443,176.83908 626.6432,177.03 627.5073,195.03233 627.73047,195.52153 628.22974,195.72115 645.15686,195.72115 645.66406,195.51381 645.87994,195.01016 646.5239,155.9397 646.1319,155.5409 645.8521,155.48459 627.18317,155.48459 626.98694,155.28836 626.98694,136.57047 626.7752,136.05907 626.2638,135.84727 609.0564,135.84727 608.86017,135.65105 608.8601,116.67632 608.64484,116.17172 608.13586,115.96424 593.8501,116.34228 583.42896,116.417625 569.91974,116.21514 569.7216,116.023575 568.86017,99.51084 568.42303,98.88314 528.9951,98.087364 528.80035,97.889885 528.80035,79.16907 528.5886,78.65767 528.0772,78.445885 Z M647.8806,195.51453 L647.3759,195.71964 647.1577,196.21884 646.71985,213.75745 646.6627,225.68233 646.8118,230.02753 647.13727,232.3443 647.8956,233.1779 648.7173,233.55148 651.03564,233.95294 656.6904,233.93881 665.0859,233.45059 665.45245,233.06805 665.5063,232.79346 665.44946,195.95616 665.06464,195.57133 664.7831,195.51453 Z M1078.2423,332.42712 L1078.4386,332.62338 1078.4386,351.66144 1078.2423,351.85773 1059.2041,351.85773 1059.0078,351.66144 1059.0078,332.62338 1059.2041,332.42712 Z M883.05914,215.80191 L863.8443,216.63756 863.36304,216.85052 863.1539,217.3304 862.29205,233.84775 862.09393,234.03958 844.0921,234.26036 832.5563,234.03343 826.7263,234.38765 825.21783,234.63829 823.9688,235.09598 823.0992,235.69104 822.56085,236.38474 821.9038,238.50693 821.66223,242.12231 821.64294,253.33492 821.45276,253.53535 804.9529,254.39621 804.684,254.46312 804.3214,254.84355 803.4801,373.00848 803.8719,373.4025 804.1496,373.45795 823.7778,373.00455 842.59607,373.20694 842.7908,373.405 842.7907,382.35263 842.9594,386.99237 843.4275,390.73083 843.70435,391.5973 844.2917,392.02658 853.1136,392.49057 867.94635,392.5664 901.94806,392.10284 902.2275,392.0443 902.6086,391.65994 902.6647,372.96713 902.4617,372.45645 901.9581,372.23636 862.8295,371.49933 862.6347,371.3018 862.6347,352.5809 862.4229,352.06952 861.9115,351.85773 843.19366,351.85773 842.99744,351.6615 842.99744,332.94366 842.78564,332.43228 842.27423,332.2205 823.5564,332.2205 823.36017,332.02426 823.36017,275.22192 823.5564,275.0257 842.27423,275.0257 842.78564,274.8139 842.99744,274.30252 842.99744,254.07239 843.1929,253.87541 889.4537,253.40587 901.9813,253.13503 902.627,252.71393 903.4951,234.50452 903.1023,234.09238 902.8174,234.03383 883.97894,234.03383 883.78265,233.83755 883.78265,216.5251 883.55975,216.00287 883.05914,215.80191 Z M1000.61255,450.0443 L1000.10114,450.25607 999.88934,450.7675 999.908,460.7296 1000.2824,466.63144 1000.59955,468.29422 1000.88525,468.76355 1004.5699,469.2822 1016.7294,469.6993 1038.6487,469.77322 1038.93,469.71616 1039.3142,469.33148 1039.3707,450.7675 1039.314,450.48596 1038.9292,450.1011 1000.61255,450.0443 Z M962.0582,470.437 L961.5622,470.63446 961.33624,471.11807 960.86066,479.4761 960.8023,484.96948 961.15894,488.67865 961.6077,489.3929 962.4932,489.9135 964.00415,490.32266 965.9456,490.60345 971.86,490.92252 991.81006,490.96085 996.4735,490.7189 998.37683,490.38022 999.55853,489.8895 1000.37506,488.99716 1000.9151,487.47827 1001.224,485.56805 1001.4367,480.1018 1000.8917,471.10922 1000.4394,470.48883 962.0582,470.437 Z M177.3595,510.4669 L176.8481,510.67865 176.63632,511.19006 176.63632,529.58765 176.69313,529.86914 177.07797,530.254 233.51738,530.3108 233.7989,530.254 234.18373,529.86914 234.24055,511.19006 234.18373,510.90854 233.7989,510.52368 177.3595,510.4669 Z M765.70734,490.0743 L765.2011,490.2811 764.9843,490.78308 764.2111,529.85364 764.60345,530.2545 764.88385,530.3108 783.7236,530.2545 784.1159,529.85364 784.1662,529.5721 783.28186,490.5063 782.8977,490.1297 782.61975,490.0743 Z M861.9116,449.99625 L804.68256,450.8486 804.3063,451.2168 804.24316,451.4857 803.3971,469.36804 803.2026,469.56256 785.32196,470.40863 784.83167,470.63458 784.6342,471.1361 784.6342,488.06033 784.6893,488.3371 785.08057,488.7287 822.959,489.52054 823.15356,489.71838 823.15356,510.13055 822.9634,510.33093 806.43994,511.19308 805.9624,511.40768 805.75507,511.8852 804.9069,529.5533 805.1055,530.08624 805.6293,530.3108 883.1647,530.3108 883.6869,530.0879 883.88715,529.5565 883.0525,510.3768 882.8427,509.89847 882.3622,509.6865 862.82587,508.83664 862.6347,508.63702 862.6347,491.3553 862.82587,491.15543 882.3333,490.3062 882.60486,490.2417 882.97327,489.85892 882.9741,470.8597 882.6081,470.47656 882.33636,470.4108 862.82587,469.56195 862.6347,469.36234 862.6347,450.71942 862.4197,450.20493 861.9116,449.99625 Z M313.30643,530.1042 L312.79504,530.3159 312.58325,530.82733 312.58325,547.71436 312.64008,547.9959 313.0249,548.38074 351.3413,548.43756 351.62283,548.38074 352.00766,547.9959 352.06448,530.82733 352.00766,530.54584 351.62283,530.16095 313.30643,530.1042 Z M883.54395,490.0743 L883.03253,490.2861 882.82074,490.79752 882.82074,509.20938 883.03253,509.72073 883.2671,509.87775 919.6359,510.7613 919.8295,510.95938 919.8295,529.9079 919.6332,530.1042 902.5777,530.1042 902.0663,530.316 901.9091,530.551 901.89154,551.4438 902.23035,563.0651 902.5885,566.5811 902.94885,567.10205 904.63293,567.5568 908.73694,567.8293 912.1344,567.77295 920.3932,567.2864 920.81824,566.6625 921.66583,548.7513 921.86035,548.5567 939.7385,547.7108 940.0087,547.6453 940.37494,547.2629 940.37195,490.51596 939.9871,490.13113 939.70557,490.0743 Z M352.46045,548.23096 L351.93747,548.45465 351.73807,548.98846 352.5862,566.6585 352.8095,567.1476 353.30853,567.34735 370.94534,568.1772 371.49057,567.9659 371.7018,567.4547 371.7018,548.9541 371.49002,548.4427 370.9786,548.23096 Z M883.51697,568.6236 L883.0173,568.8243 882.7945,569.3146 881.9433,588.4674 882.14276,588.9991 882.6658,589.2228 902.802,589.2228 903.32416,588.9999 903.5245,588.4685 902.6909,569.3146 902.46814,568.8243 901.96844,568.6236 Z M410.57358,666.2615 L410.76984,666.4577 410.76984,705.1333 410.57358,705.3295 393.0459,705.3295 392.84967,705.1333 392.84967,666.4577 393.0459,666.2615 Z M1059.5244,685.69226 L1059.0131,685.90405 1058.8013,686.41547 1058.8013,704.8129 1058.858,705.0945 1059.2428,705.4793 1097.5593,705.53613 1097.8408,705.4793 1098.2257,705.0945 1098.2825,686.41547 1098.2257,686.1339 1097.8408,685.7491 1059.5244,685.69226 Z M627.44806,743.0936 L626.9367,743.3054 626.7249,743.81793 626.9491,860.39825 627.1611,860.9092 627.67224,861.12036 645.9011,861.12036 646.1827,861.06354 646.5675,860.6787 646.62427,823.5525 646.82056,823.35626 763.7249,823.35626 764.2363,823.14453 764.4481,822.6331 764.4481,803.91895 764.64435,803.7227 783.6827,803.7227 783.8789,803.91895 783.8789,822.6331 784.09064,823.14453 784.60205,823.35626 804.8305,823.35626 805.02673,823.5525 805.02673,842.26843 805.23846,842.77985 805.7499,842.9916 822.9185,842.9348 823.30334,842.55 823.36017,842.26843 823.36017,804.04144 823.55115,803.8415 841.58105,802.9944 842.0571,802.78394 842.2691,802.30634 843.1345,784.2763 843.33466,784.0854 861.9115,784.0854 862.4229,783.87366 862.6347,783.36224 862.6347,764.6444 862.83093,764.4481 883.1647,764.4481 883.6869,764.2252 883.88715,763.69385 883.0536,744.53986 882.9878,744.269 882.6046,743.9026 844.2423,743.8489 843.74255,744.04956 843.51984,744.53986 842.67114,764.0503 842.4715,764.2415 804.2394,764.2415 803.72797,764.45325 803.5162,764.96466 803.5162,783.68256 803.31995,783.8788 706.05273,783.8788 705.5413,784.0906 705.3296,784.602 705.3296,803.3199 705.1333,803.5161 646.8189,803.5161 646.62195,803.3207 646.41656,776.0107 646.49207,759.90546 646.8229,743.5534 646.43066,743.1506 646.14923,743.0936 Z M1097.7386,882.26825 L1097.939,882.45917 1098.8044,900.4917 1099.0277,900.9807 1099.5269,901.1805 1116.0126,902.04144 1116.2028,902.24194 1116.2028,921.14 1116.0065,921.3363 1100.1305,921.3363 1099.9302,921.14545 1099.0662,903.143 1098.843,902.65375 1098.3438,902.4542 1079.8881,902.4542 1079.3888,902.65375 1079.1656,903.143 1078.3015,921.14545 1078.1013,921.3363 1004.2226,921.4117 986.1384,921.6099 977.42017,921.9498 961.1523,921.2122 960.9588,921.0175 960.09436,903.14105 960.033,902.8717 959.65875,902.50073 921.7402,901.61285 921.5467,901.41486 921.5467,882.4646 921.74304,882.26825 1058.6049,882.26825 1058.8013,882.4646 1058.8013,901.29626 1059.0131,901.8077 1059.5244,902.0195 1077.2218,901.1776 1077.7025,900.9693 1077.9169,900.4894 1078.7823,882.45917 1078.9827,882.26825 Z M764.3448,921.0858 L773.0241,921.23364 783.6887,921.7864 783.8789,921.98676 783.8789,940.7754 783.6826,940.9716 772.4762,940.9999 767.04535,941.24927 764.05585,941.56165 761.3906,941.591 756.0747,941.4512 745.0004,940.8483 744.81085,940.64764 744.81085,921.98676 745.00104,921.7864 755.69855,921.2323 764.3448,921.0858 Z M882.78864,-0.10331171 L882.2772,0.10847364 882.0655,0.61987025 882.0655,37.464397 881.86914,37.660683 863.15125,37.660683 862.63983,37.872467 862.4281,38.383865 862.4281,135.651 862.2319,135.84727 843.514,135.84727 843.00256,136.05907 842.7908,136.57047 842.7908,156.79897 842.59454,156.9952 823.5564,156.9952 823.36017,156.79897 823.30334,116.6516 822.9185,116.26677 822.63696,116.20996 805.4684,116.26677 805.0835,116.6516 805.02673,116.933136 805.02673,135.65105 804.8305,135.84727 784.60205,135.84727 784.32056,135.9041 783.93567,136.28893 783.8789,156.79897 783.6827,156.9952 764.96466,156.9952 764.45325,157.20697 764.2415,157.71837 764.2415,176.43625 764.0453,176.63248 745.0071,176.63248 744.81085,176.43625 744.7541,116.6516 744.3692,116.26677 744.0877,116.20996 725.36975,116.20996 725.1735,116.013725 725.11676,78.887535 724.7319,78.5027 724.4504,78.445885 707.243,78.445885 707.04675,78.24965 707.04675,59.531784 706.99,59.250256 706.6051,58.86542 666.45776,58.8086 666.26154,58.612362 666.26154,38.383865 666.0498,37.872467 665.5384,37.660683 548.9542,37.660683 548.4428,37.872467 548.231,38.383865 548.231,58.51221 548.4429,59.02358 548.9542,59.235394 561.4376,58.656 577.17163,58.524242 599.6014,58.59984 646.22266,59.10644 646.41766,59.30359 646.41766,77.92933 646.4745,78.21085 646.8593,78.59569 685.4961,78.652504 685.6923,78.84875 685.7105,89.74342 685.95435,93.2964 686.5107,95.59602 686.91016,96.36609 687.42017,96.93397 688.5511,97.50568 692.00275,98.0029 697.1948,98.28941 705.13525,98.28981 705.33215,98.4849 705.424,121.9798 705.1816,176.1126 705.39185,176.62572 705.9048,176.8391 723.26013,176.8391 723.45636,177.03532 723.45636,233.51727 723.5132,233.79881 723.898,234.18362 743.9177,234.24046 744.1992,234.18362 744.5841,233.79881 744.66,208.69705 744.92444,198.71243 745.07886,197.1872 746.973,196.88872 755.28723,196.43852 764.97284,196.2687 783.6125,196.4705 783.8077,196.66655 784.6253,252.41048 784.841,252.91467 785.3484,253.12256 803.76904,253.12256 804.0468,253.06752 804.4306,252.69247 805.22833,216.44843 805.42004,216.24979 821.9428,215.38776 822.41943,215.1782 822.63196,214.70082 823.4792,196.90219 823.6728,196.70824 836.3401,196.11726 851.8842,195.9855 873.9197,196.06104 919.6344,196.56763 919.8295,196.76488 919.8295,215.39056 919.88635,215.67209 920.2711,216.05692 960.42194,216.11374 960.6198,216.3083 961.41473,252.71219 962.0453,253.15016 980.06116,254.01491 980.2521,254.21507 980.30884,274.58405 980.69366,274.96887 980.9752,275.0257 999.6931,275.0257 999.88934,275.222 999.88934,292.7496 999.6931,292.94586 980.9752,292.94586 980.4638,293.15765 980.2521,293.66907 980.2521,313.89743 980.05585,314.0937 961.0713,314.0937 960.874,313.89917 960.07446,255.1397 959.8596,254.63438 959.35144,254.4265 942.42676,254.4265 941.92755,254.62611 941.7044,255.1153 940.84045,273.11755 940.6402,273.30853 921.74304,273.30853 921.5467,273.11224 921.5465,254.25607 921.3288,253.7559 920.7848,253.55165 902.8671,254.46451 902.50275,254.84401 902.44806,255.11484 901.8402,294.20786 902.2321,294.60666 902.512,294.66296 919.6332,294.66296 919.8295,294.85925 919.8295,313.7574 919.6393,313.95782 903.11334,314.82007 902.6346,315.03583 902.4283,315.5157 901.56647,331.8892 901.3721,332.083 883.5084,332.94733 883.0183,333.17316 882.82074,333.67453 882.87585,350.892 883.2671,351.28363 883.54395,351.33844 901.3886,352.18347 901.5827,352.37827 902.4321,371.77686 902.498,372.04758 902.8813,372.41415 929.1173,372.91013 934.48145,372.81638 937.7646,372.4614 939.0607,371.98502 939.75073,371.413 940.0995,370.8989 940.6047,369.49252 941.06793,365.50925 941.16583,359.88333 940.93854,346.02118 941.17804,332.62115 941.3761,332.42712 960.42255,332.42712 960.6206,332.62115 960.8225,342.8306 960.84125,350.74423 960.61426,362.299 960.72595,365.45026 960.9684,368.12787 961.3653,370.11105 962.0266,371.39517 963.0676,372.1045 963.9265,372.40634 966.11206,372.77377 971.86163,373.09866 1017.67883,373.21228 1017.8791,373.40326 1018.8106,391.7008 1019.1935,392.06586 1019.4666,392.11923 1038.832,392.96918 1039.0267,393.16296 1039.8909,411.04282 1040.114,411.532 1040.6133,411.7316 1057.5586,411.7316 1058.0577,411.532 1058.281,411.04282 1059.145,393.04053 1059.3452,392.84958 1078.2423,392.84958 1078.4386,393.04587 1078.4386,410.43256 1078.2478,410.63272 1060.2153,411.4982 1059.7345,411.71252 1059.5271,412.1933 1058.6655,428.7062 1058.4651,428.89648 1039.8873,428.89648 1039.6057,428.95328 1039.221,429.33813 1039.221,449.8093 1039.6057,450.19412 1039.8873,450.25095 1058.605,450.25095 1058.8013,450.4472 1058.8013,469.48544 1058.605,469.6817 1039.6057,469.73853 1039.221,470.12335 1039.1642,470.4049 1039.1642,488.98102 1038.9729,489.18088 1019.43445,490.04935 1018.9535,490.26196 1018.744,490.74127 1017.8791,508.7654 1017.67883,508.95636 1009.39233,508.95615 1004.6205,509.23694 1002.3614,509.85065 1001.6183,510.30908 1000.9165,511.18216 1000.4632,512.9687 999.94745,518.61835 999.88934,529.9115 999.69476,530.1095 980.8807,530.29297 961.058,529.89575 960.67426,530.2748 960.61475,530.5528 960.6147,547.8938 960.42377,548.09393 942.39355,548.95935 941.9126,549.1737 941.70526,549.6545 940.84015,567.5547 940.64545,567.7482 921.25,568.5983 920.622,569.0256 919.7073,588.4674 919.90674,588.9991 920.42975,589.2228 940.6522,589.2228 940.85004,589.4176 941.3741,623.3388 941.4494,640.4437 941.31714,653.3398 940.72766,665.86426 940.527,666.05554 931.8468,666.07355 927.1477,666.31866 923.07245,666.8962 921.8421,667.2791 921.22235,667.7317 920.65753,668.654 920.1149,670.52716 919.8295,673.6444 920.05615,691.58435 919.83527,704.99536 919.6435,705.1935 903.1157,706.0556 902.6358,706.27264 902.4306,706.7549 901.56537,724.6355 901.37146,724.82935 883.5084,725.6937 883.0183,725.91956 882.82074,726.42096 882.82074,743.3433 883.03253,743.8547 883.2671,744.01166 904.49005,744.45215 917.65936,744.944 919.1648,745.1205 919.3241,746.0154 919.84894,754.7994 919.9995,765.7459 919.83124,822.95416 919.63464,823.14966 902.2256,823.14966 901.71106,823.3646 901.55505,823.6023 901.8538,862.94635 901.706,881.735 901.5142,881.9339 883.48065,882.8013 883.00165,883.01556 882.7936,883.4944 881.9904,901.4462 882.3832,901.85834 882.6681,901.9169 901.5064,901.9169 901.70276,902.1132 901.70276,921.0262 901.50824,921.22363 854.7487,921.8084 836.09186,921.67584 823.5511,921.094 823.36017,920.89343 823.36017,902.23535 823.5508,902.0355 841.5455,901.17896 842.0392,900.959 842.2422,900.4563 842.18896,843.9664 841.824,843.5831 841.55334,843.5166 823.8756,842.6761 823.3712,842.88196 823.15375,843.3815 823.15356,881.8653 822.9573,882.06165 627.1832,882.06165 626.98694,881.8653 626.9302,861.3553 626.5453,860.9705 626.2638,860.9137 618.7069,860.9134 613.5224,861.1771 611.10394,861.47516 609.50385,861.87195 608.46924,862.7113 607.9609,863.6568 607.41376,866.03906 607.2584,867.7903 607.143,881.8653 606.9467,882.06165 599.0507,882.06134 593.888,882.32263 590.2282,882.88965 589.38403,883.30237 588.7254,883.98553 588.01044,885.7428 587.6215,888.588 587.5057,901.51746 587.3111,901.7153 568.495,901.89526 548.9531,901.44763 548.67444,901.5036 548.2909,901.88184 548.231,920.81976 548.4428,921.3312 548.9542,921.54297 705.1333,921.54297 705.3296,921.7392 705.38635,942.2492 705.7712,942.634 706.05273,942.6908 723.2601,942.6908 723.45636,942.887 723.45636,958.9042 723.2601,959.1004 569.7818,959.1004 569.5856,958.9042 569.5856,941.6948 569.52875,941.4132 569.1439,941.02844 491.23254,940.9716 491.03625,940.7754 491.03625,921.7392 491.23254,921.54297 528.0772,921.54297 528.3587,921.48615 528.7436,921.1014 528.80035,764.96466 528.5886,764.45325 528.0772,764.2415 510.99268,764.2415 510.79282,764.0503 509.9423,744.5134 509.7334,744.03516 509.25412,743.8218 491.31683,742.95636 491.12387,742.7586 490.23746,706.49866 489.60535,706.0571 471.58566,705.1923 471.39316,704.9944 471.17236,691.569 471.38025,673.6411 471.1204,670.6631 470.57242,668.6624 469.9795,667.7165 469.39114,667.2872 468.1232,666.88336 465.82382,666.4748 460.00748,666.07416 451.958,666.0556 451.76163,665.8589 451.76163,646.81616 451.95554,646.6184 464.5803,646.41644 490.59552,646.81525 490.9796,646.43054 491.03625,646.1491 491.03625,628.78326 491.23007,628.5849 527.63116,627.69855 528.07263,627.0665 528.91925,609.0485 529.1178,608.8566 550.67865,608.7279 579.043,608.9168 583.9586,608.71185 586.61176,608.1779 587.5572,607.5481 588.1346,606.61633 588.6089,604.9198 588.8208,603.4504 589.0531,597.94464 588.50824,588.9354 588.2865,588.4554 587.794,588.2548 510.90854,587.49347 510.52454,587.8763 510.46692,588.15656 510.46692,606.9467 510.2707,607.14294 450.48605,607.1997 450.10123,607.5846 450.0444,607.8661 450.0444,626.58405 449.84818,626.7803 411.17267,626.7803 410.97644,626.58405 410.97644,609.05634 411.17267,608.8601 429.89056,608.8601 430.40198,608.6483 430.61374,608.1369 430.61374,589.419 430.80997,589.2228 440.7888,589.2229 446.54846,588.94434 449.0058,588.40485 449.79532,588.0064 450.3983,587.46515 450.97867,586.355 451.47528,582.6631 451.76126,577.0194 451.76163,568.2669 451.95554,568.0691 467.051,567.86725 490.31418,568.32196 490.82504,568.1099 491.03625,567.59875 491.03625,548.77484 491.22714,548.5747 509.25717,547.70917 509.7341,547.50116 509.94745,547.0244 510.8097,530.4975 511.00827,530.3058 546.99884,529.56903 547.4903,529.36505 547.70886,528.8792 548.5559,510.86282 548.7553,510.67117 576.11176,510.57913 645.8532,510.80356 646.36816,510.587 646.57513,510.06818 645.87964,471.1345 645.6702,470.6372 645.1732,470.4237 609.054,469.59424 608.86017,469.39587 608.86017,450.7675 608.64844,450.25607 608.137,450.0443 589.58386,450.0443 589.3855,449.8508 588.9206,430.99405 588.73193,411.77118 588.8642,394.72055 589.3856,373.40573 589.5838,373.21228 600.36945,373.19412 603.89166,372.93448 606.19006,372.37442 607.5085,371.4615 608.07715,370.34445 608.5737,366.65353 608.85986,361.00888 608.86017,352.2564 609.0541,352.05856 626.56934,351.85678 646.18353,352.25308 646.5676,351.8684 646.62427,351.58698 646.62427,332.62335 646.82056,332.42712 665.5384,332.42712 666.0498,332.21533 666.26154,331.70392 666.26154,314.8169 666.0498,314.30548 665.5384,314.0937 646.82056,314.0937 646.62427,313.89746 646.62427,294.8592 646.82056,294.66296 706.6051,294.60614 706.99,294.2213 707.04675,293.9398 707.04675,274.0317 706.835,273.52032 706.3236,273.30853 687.69525,273.30853 687.49713,273.11493 686.6673,235.4968 686.4502,234.99536 685.9442,234.78915 667.2415,234.84418 666.8577,235.21924 666.7964,235.49568 666.0597,273.11377 665.86194,273.30853 647.14087,273.30853 646.62946,273.52032 646.41766,274.0317 646.41766,292.74963 646.22144,292.94586 607.98065,292.94586 607.4693,293.15768 607.31213,293.39273 607.2184,322.81454 607.048,328.14133 606.6956,331.70428 602.77295,331.9378 592.4214,332.1449 561.26636,332.35266 532.4316,332.23932 511.04245,331.78558 510.65402,325.67422 510.54138,319.49725 510.5042,293.39374 510.11255,293.00092 509.8352,292.94586 491.23248,292.94586 491.03625,292.74963 490.97946,157.43684 490.5946,157.052 490.31308,156.9952 470.40494,156.9952 469.89352,157.20697 469.68176,157.71837 469.73856,313.85867 470.1234,314.2435 470.40494,314.30032 490.6334,314.30032 490.82965,314.49655 490.82965,331.70392 491.0414,332.21533 491.55283,332.42712 510.47153,332.41187 510.46692,351.3412 510.52374,351.6227 510.90857,352.00754 548.0348,352.06436 548.231,352.2606 548.28784,449.8093 548.67267,450.19412 548.9542,450.25095 567.6721,450.25095 567.86835,450.44717 567.86835,469.16516 567.9252,469.4467 568.31,469.83154 588.82,469.88834 589.0163,470.08456 589.0163,489.12283 588.82,489.31906 529.0354,489.37585 528.6506,489.7607 528.59375,490.04224 528.59375,510.27066 528.3975,510.4669 491.27127,510.52368 490.88644,510.90854 490.82965,511.19006 490.82965,529.90796 490.6334,530.1042 470.40494,530.1042 469.89352,530.3159 469.68176,530.82733 469.68176,548.0347 469.48553,548.23096 431.1303,548.23096 430.6189,548.4427 430.4071,548.9541 430.4071,567.67206 430.21088,567.8683 411.493,567.8683 410.98163,568.0801 410.76984,568.5915 410.76984,587.3094 410.57358,587.5056 393.0459,587.5056 392.84967,587.3094 392.84967,568.5915 392.79282,568.30994 392.40802,567.9251 372.2263,567.8683 371.711,568.08405 371.50317,568.60254 371.64615,578.59174 372.29852,607.7 372.6824,608.07513 372.96,608.13025 392.32922,608.9796 392.52393,609.1741 393.3714,627.08453 393.59485,627.57306 394.09363,627.7723 410.57962,628.63336 410.76984,628.83374 410.76984,644.7107 410.57358,644.9069 373.40442,644.9069 373.20673,644.7132 372.47006,608.60583 372.25302,608.10443 371.74704,607.8982 314.03223,607.8982 313.53372,608.0978 313.30994,608.58594 312.46408,626.3372 312.2714,626.5317 303.4898,627.0265 291.3592,627.2523 278.99622,627.15784 255.5822,626.6171 255.38843,626.4189 255.38843,609.0546 255.58386,608.8578 294.49933,608.4825 311.33395,608.11975 311.83224,607.9069 312.0428,607.40674 312.7836,548.96075 312.7305,548.68195 312.33875,548.2866 295.17966,548.23096 294.89813,548.2877 294.5133,548.6726 294.45648,587.3094 294.26025,587.5056 234.75711,587.5056 234.24573,587.7174 234.03394,588.2288 234.03394,645.901 234.24573,646.4124 234.75711,646.6242 351.66162,646.6242 351.85785,646.82043 351.85785,665.5383 352.06964,666.04974 352.58105,666.2615 371.29895,666.2615 371.49518,666.4577 371.49518,724.45026 371.70697,724.9617 372.21835,725.1734 449.84818,725.1734 450.0444,725.3697 450.0444,742.5771 450.2562,743.0885 450.7676,743.30023 469.48553,743.30023 469.68176,743.49646 469.68176,764.0453 469.48553,764.2415 450.7676,764.2415 450.2562,764.45325 450.0444,764.96466 450.0444,783.68256 449.84818,783.8788 411.21146,783.9356 410.82666,784.32043 410.76984,784.602 410.76984,803.3199 410.57358,803.5161 352.2995,803.5729 351.91467,803.95776 351.85785,804.23926 351.85785,822.9534 351.66162,823.14966 214.7995,823.14966 214.60326,822.9534 214.60326,804.23926 214.39146,803.72784 213.88008,803.5161 116.61667,803.5161 116.42044,803.3199 116.42044,784.602 116.20866,784.0906 115.69726,783.8788 98.486145,783.8788 98.2899,783.68256 98.2899,764.96466 98.07812,764.45325 97.56672,764.2415 78.85261,764.2415 78.656364,764.0453 78.656364,743.81683 78.44458,743.3054 77.93318,743.0936 59.209614,743.0936 59.01338,742.8974 59.01338,646.82043 59.209614,646.6242 77.93318,646.6242 78.44458,646.4124 78.656364,645.901 78.656364,607.5458 78.85261,607.34955 97.56672,607.34955 98.07812,607.13776 98.2899,606.62634 98.2899,587.9085 98.486145,587.7123 115.69726,587.7123 116.20866,587.5005 116.42044,586.9891 116.42044,568.2711 116.61667,568.0749 156.75833,568.0181 157.14316,567.63324 157.19998,567.35175 157.19998,548.6338 157.39621,548.43756 176.11977,548.43756 176.40129,548.38074 176.78613,547.9959 176.84294,530.82733 176.63116,530.3159 176.11977,530.1042 137.80147,530.16095 137.41663,530.54584 137.35982,530.82733 137.35982,548.0347 137.16359,548.23096 98.52493,548.2877 98.1401,548.6726 98.08328,548.9541 98.08328,567.67206 97.88704,567.8683 79.17293,567.8683 78.891396,567.9251 78.50656,568.30994 78.449745,587.3094 78.2535,587.5056 59.529934,587.5056 59.248405,587.56244 58.863575,587.94727 58.806755,628.09454 58.610516,628.2908 39.896397,628.2908 39.385,628.5025 39.173214,629.0139 39.173214,763.7249 39.385,764.2363 39.896397,764.4481 58.610516,764.4481 58.806755,764.64435 58.806755,783.36224 58.863575,783.6438 59.248405,784.0286 78.2535,784.0854 78.449745,784.2817 78.449745,802.9995 78.66153,803.5109 79.17293,803.7227 97.88704,803.7227 98.08328,803.91895 98.08328,822.6331 98.1401,822.9146 98.52493,823.2995 156.79712,823.35626 156.99335,823.5525 156.99335,842.26843 157.20514,842.77985 157.71654,842.9916 410.25327,842.9916 410.76465,842.77985 410.97644,842.26843 410.97644,823.5525 411.17267,823.35626 449.52786,823.35626 450.03928,823.14453 450.25104,822.6331 450.25104,803.91895 450.44727,803.7227 510.2707,803.7227 510.46692,803.91895 510.46692,881.8653 510.27066,882.06165 177.3595,882.06165 176.8481,882.27344 176.63632,882.78485 176.63632,901.5139 176.44003,901.71027 39.896397,901.71027 39.385,901.922 39.173214,902.4334 39.173214,921.14 38.97693,921.3363 0.61987025,921.3363 0.10847364,921.5481 -0.10331171,922.0595 -0.10331171,958.58386 0.10847364,959.0953 0.61987025,959.307 78.253456,959.307 78.449745,959.50336 78.449745,979.7317 78.66153,980.2431 79.17293,980.45483 332.02423,980.45483 332.22052,980.65106 332.22052,999.3801 332.4323,999.89154 332.9437,1000.10333 822.63696,1000.10333 823.1484,999.89154 823.36017,999.3801 823.36017,980.65106 823.55646,980.45483 1058.2847,980.45483 1058.7961,980.2431 1059.0078,979.7317 1059.0078,959.50336 1059.2042,959.307 1136.8341,959.307 1137.3455,959.0953 1137.5573,958.58386 1137.5573,941.3746 1137.7535,941.1782 1156.4713,941.1782 1156.9827,940.9665 1157.1945,940.4551 1157.1945,922.0595 1156.9827,921.5481 1156.4713,921.3363 1137.7535,921.3363 1137.5573,921.14 1137.5005,882.50323 1137.1156,882.11847 1136.8341,882.06165 1116.6057,882.06165 1116.4094,881.8653 1116.4094,861.6369 1116.3527,861.3553 1115.9678,860.9705 921.74304,860.9137 921.5467,860.7174 921.5467,843.18787 921.74304,842.9916 940.4608,842.9916 940.9722,842.77985 941.18396,842.26843 941.18396,743.81683 940.9722,743.3054 940.4608,743.0936 921.74304,743.0936 921.5467,742.89734 921.5467,725.3697 921.74304,725.1734 940.4608,725.1734 940.9722,724.9617 941.18396,724.45026 941.18396,686.09515 941.3803,685.89886 960.0981,685.89886 960.3797,685.8421 960.76447,685.4572 960.8213,646.8205 961.01764,646.6242 1038.9679,646.6242 1039.1642,646.8205 1039.221,685.4572 1039.6057,685.8421 1039.8873,685.89886 1058.3516,685.89886 1058.8668,685.6831 1059.0747,685.1646 1058.2615,628.2489 1058.05,627.7429 1057.5438,627.53064 961.0168,626.78204 960.8213,626.5853 960.8213,609.0543 961.0167,608.8571 972.65814,608.74677 1038.6487,609.008 1039.1595,608.79596 1039.3707,608.2848 1039.3707,589.41907 1039.567,589.2228 1078.2423,589.2228 1078.4386,589.41907 1078.4386,606.94666 1078.2423,607.14294 1059.4204,607.14294 1058.8982,607.36584 1058.7434,607.6115 1059.598,627.3494 1059.9811,627.7164 1060.2551,627.7701 1078.2477,628.61615 1078.4386,628.81616 1078.4386,645.901 1078.4955,646.18256 1078.8802,646.5674 1097.8796,646.6242 1098.0758,646.8205 1098.1327,685.4572 1098.5175,685.8421 1098.7991,685.89886 1115.9678,685.8421 1116.3527,685.4572 1116.4094,685.1757 1116.3527,628.7324 1115.9678,628.34753 1115.6863,628.2908 1098.4786,628.2908 1098.2825,628.0945 1098.2825,607.54584 1098.4786,607.34955 1115.6863,607.34955 1116.1976,607.13776 1116.4094,606.62634 1116.3527,587.94727 1115.9678,587.56244 1115.6863,587.5056 1078.8416,587.5056 1078.6453,587.3093 1078.6453,568.2712 1078.8416,568.0749 1099.07,568.0749 1099.5814,567.86316 1099.7932,567.35175 1099.7932,548.63385 1099.9894,548.43756 1135.6437,548.43756 1135.8398,548.63385 1135.8398,567.672 1135.6437,567.8683 1116.926,567.8683 1116.4146,568.0801 1116.2028,568.5915 1116.2596,587.2706 1116.6444,587.65546 1116.926,587.7123 1156.7528,587.65546 1157.1377,587.2706 1157.1945,586.9891 1157.1945,530.82733 1156.9827,530.3159 1156.4713,530.1042 1078.8802,530.16095 1078.4955,530.54584 1078.4386,530.82733 1078.4386,548.03467 1078.2423,548.23096 1059.5244,548.23096 1059.2428,548.2877 1058.858,548.6726 1058.8013,567.672 1058.605,567.8683 1018.4578,567.9251 1018.073,568.30994 1018.01624,568.5915 1018.01624,587.3093 1017.8199,587.5056 961.01764,587.5056 960.8213,587.3093 960.8213,568.2712 961.01764,568.0749 979.7355,568.0749 980.2469,567.86316 980.4587,567.35175 980.4587,548.63385 980.6549,548.43756 1017.78125,548.38074 1018.166,547.9959 1018.22284,547.71436 1018.22284,530.5071 1018.4192,530.3108 1038.6476,530.3108 1038.9292,530.254 1039.314,529.86914 1039.3707,510.86978 1039.567,510.6735 1058.2847,510.6735 1058.7961,510.46173 1059.0078,509.95032 1059.0078,489.72195 1059.2041,489.52567 1077.9221,489.52567 1078.2036,489.46887 1078.5885,489.08405 1078.6453,450.4472 1078.8416,450.25095 1097.5593,450.25095 1097.8408,450.19412 1098.2257,449.8093 1098.2825,371.89804 1098.4786,371.70175 1115.6863,371.70175 1115.9678,371.64493 1116.3527,371.2601 1116.4094,332.94366 1116.1976,332.43228 1115.6863,332.2205 1098.4786,332.2205 1098.2825,332.0242 1098.2825,314.8169 1098.0707,314.30548 1097.5593,314.0937 1018.4192,314.0937 1018.22284,313.89743 1018.22284,234.75702 1018.01105,234.24562 1017.49963,234.03383 1000.29224,234.03383 1000.09595,233.83755 1000.09595,216.31003 1000.29224,216.11374 1017.49963,216.11374 1017.78125,216.05692 1018.166,215.67209 1018.22284,177.03539 1018.4192,176.8391 1038.6476,176.8391 1038.9292,176.78229 1039.314,176.39745 1039.3707,98.80638 1039.159,98.29498 1038.6476,98.0832 1018.4192,98.0832 1018.22284,97.88691 1018.22284,59.531784 1018.01105,59.02039 1017.49963,58.8086 1000.2923,58.8086 1000.09595,58.612312 1000.09595,38.383865 999.8842,37.872467 999.3728,37.660683 980.655,37.660683 980.4587,37.464397 980.40186,18.465025 980.0171,18.08019 979.7355,18.02337 961.01764,18.02337 960.8213,17.827084 960.8213,0.61987025 960.76447,0.33834174 960.3797,-0.046491638 882.78864,-0.10331171 Z " />
</g></svg>