<?xml version="1.0" encoding="UTF-8"?>
<!DOCTYPE svg PUBLIC "-//W3C//DTD SVG 1.1//EN" "http://www.w3.org/Graphics/SVG/1.1/DTD/svg11.dtd">
<svg width="248.514mm" height="147.344mm" viewBox="0 0 248.514 147.344" shape-rendering="geometricPrecision" text-rendering="geometricPrecision" image-rendering="optimizeQuality" fill-rule="evenodd" clip-rule="evenodd" xmlns="http://www.w3.org/2000/svg" xmlns:xlink="http://www.w3.org/1999/xlink" xml:space="preserve">
<g id="Layer_x0020_1">
<path fill="#000000" d="M6.2705 86.0264l-5.2705 36.8794 9.6308 11.0808 12.5342 -11.0808 5.2705 -36.8794 -9.6308 -11.0843 -12.5342 11.0843zm114.674 -62.8015l12.7176 -11.1125 -9.6308 -11.1125 -39.2428 0 -12.7176 11.1125 9.6309 11.1125 39.2427 0zm1.1783 1.136l-5.1823 36.9499 9.4086 11.0913 12.6648 -10.9996 5.1858 -36.9464 -9.4085 -11.102 -12.6684 11.0068zm102.14 -1.136l12.7177 -11.1125 -9.4472 -11.1125 -44.6934 0 -12.5377 11.1125 9.4474 11.1125 44.5132 0zm-58.6847 100.895l-12.7176 11.1125 9.6309 11.1125 44.51 0 12.7178 -11.1125 -9.6308 -11.1125 -44.5103 0zm72.5277 -110.765l-12.4882 11.0066 -5.3622 36.9499 9.5885 11.0913 12.4849 -10.9996 5.1859 -36.9464 -9.4089 -11.1018zm-170.759 110.765l-12.5341 11.1125 9.4474 11.1125 39.4264 0 12.534 -11.1125 -9.4471 -11.1125 -39.4266 0zm149.444 -38.0718l-5.0023 36.9358 9.4193 11.0067 12.499 -11.0808 5.1859 -36.9782 -9.419 -10.9855 -12.6823 11.1055 -0.0006 -0.0035zm-103.318 0l-5.1821 36.9358 9.5989 11.0067 12.499 -11.0808 5.1859 -36.9782 -9.6026 -10.989 -12.5024 11.1054 0.0033 0.0001zm67.9097 -1.2629l34.3395 0 12.5379 -11.1125 -9.4473 -11.1125 -34.3393 0 -12.5376 11.1125 9.4468 11.1125zm-109.851 1.2488l-9.5885 -11.0914 -12.4848 10.9996 -5.3622 36.9641 9.592 11.0807 12.4849 -11.0031 5.3622 -36.9535 -0.0036 0.0036zm3.4678 -24.7333l5.0024 -36.9394 -9.4191 -11.0067 -12.6789 11.0807 -5.0094 36.9782 9.4192 10.989 12.6824 -11.102 0.0034 0.0002zm-60.191 -36.8617l-5.087 36.8794 9.4474 11.0842 12.7176 -11.0843 5.0871 -36.8794 -9.4474 -11.0808 -12.7177 11.0809z"/>
</g>
</svg>
