<?xml version="1.0" encoding="UTF-8"?>
<!DOCTYPE svg PUBLIC "-//W3C//DTD SVG 1.0//EN" "http://www.w3.org/TR/2001/REC-SVG-20010904/DTD/svg10.dtd">
<svg shape-rendering="geometricPrecision" text-rendering="geometricPrecision" image-rendering="optimizeQuality" fill-rule="evenodd" xml:space="preserve" 
 xmlns="http://www.w3.org/2000/svg" xmlns:xlink="http://www.w3.org/1999/xlink"  viewBox="0 0 1000.2057132795453 1152.338953025639" width="100.02057132795453mm" height="115.23389530256391mm" >
<g><path fill="#000000" d="M231.38788,-0.10286904 L231.10756,-0.04629243 230.87868,0.108008854 230.72438,0.336892 230.6678,0.61721426 230.6678,74.59871 230.72438,74.87903 230.87868,75.10791 231.10756,75.262215 231.38788,75.318794 768.6121,75.318794 768.89246,75.262215 769.1214,75.10791 769.2757,74.87903 769.3322,74.59871 769.3322,0.61721426 769.2757,0.336892 769.1214,0.108008854 768.89246,-0.04629243 768.6121,-0.10286904 Z M154.46588,76.81912 L154.18555,76.875694 153.95667,77.03 153.80237,77.25888 153.74579,77.5392 153.74579,151.52075 153.80237,151.80107 153.95667,152.02995 154.18555,152.18427 154.46588,152.24083 228.44742,152.24083 228.72775,152.18427 228.95662,152.02995 229.11093,151.80107 229.16751,151.52075 229.16751,77.5392 229.11093,77.25888 228.95662,77.03 228.72775,76.875694 228.44742,76.81912 Z M769.84656,76.81912 L769.5662,76.875694 769.33734,77.03 769.18304,77.25888 769.12646,77.5392 769.12646,151.52075 769.18304,151.80107 769.33734,152.02995 769.5662,152.18427 769.84656,152.24083 845.5388,152.24083 845.81915,152.18427 846.04803,152.02995 846.20233,151.80107 846.2589,151.52075 846.2589,77.5392 846.20233,77.25888 846.04803,77.03 845.81915,76.875694 845.5388,76.81912 Z M77.5439,153.74109 L77.26358,153.79767 77.0347,153.95197 76.880394,154.18085 76.823814,154.46118 76.823814,228.44273 76.880394,228.72305 77.0347,228.95192 77.26358,229.10623 77.5439,229.16281 153.23613,229.16281 153.51646,229.10623 153.74535,228.95192 153.89964,228.72305 153.9562,228.44273 153.9562,154.46118 153.89964,154.18085 153.74535,153.95197 153.51646,153.79767 153.23613,153.74109 Z M846.7686,153.74109 L846.4882,153.79767 846.2594,153.95197 846.1051,154.18085 846.0485,154.46118 846.0485,228.44273 846.1051,228.72305 846.2594,228.95192 846.4882,229.10623 846.7686,229.16281 922.46075,229.16281 922.7411,229.10623 922.97,228.95192 923.12427,228.72305 923.18085,228.44273 923.18085,154.46118 923.12427,154.18085 922.97,153.95197 922.7411,153.79767 922.46075,153.74109 Z M154.45653,384.50717 L154.17621,384.56375 153.94733,384.71805 153.79301,384.94693 153.73645,385.22726 153.73645,536.12604 153.79301,536.4063 153.94733,536.63525 154.17621,536.78955 154.45653,536.84607 230.46771,536.84607 230.6631,537.0415 230.6631,613.05273 230.71968,613.33307 230.874,613.56195 231.10286,613.71625 231.38318,613.77277 307.3944,613.77277 307.5898,613.9682 307.5851,688.2686 307.6417,688.54895 307.796,688.77783 308.02487,688.9321 308.3052,688.9887 460.91476,688.9887 461.1951,688.9321 461.424,688.77783 461.5783,688.54895 461.63486,688.2686 461.63486,462.15387 461.5783,461.87354 461.424,461.64465 461.1951,461.49036 460.91476,461.4338 383.1975,461.4338 383.0021,461.2384 383.0021,385.22726 382.94553,384.94693 382.79123,384.71805 382.56235,384.56375 382.282,384.50717 Z M616.00256,384.50717 L615.7222,384.56375 615.49335,384.71805 615.33905,384.94693 615.2825,385.22726 615.2825,461.2384 615.0871,461.4338 539.0758,461.4338 538.7955,461.49036 538.5666,461.64465 538.4123,461.87354 538.3557,462.15387 538.3557,688.2686 538.4123,688.54895 538.5666,688.77783 538.7955,688.9321 539.0758,688.9887 689.9747,688.9887 690.255,688.9321 690.4839,688.77783 690.63824,688.54895 690.69476,688.2686 690.69476,613.9682 690.8902,613.77277 766.9014,613.77277 767.1817,613.71625 767.41064,613.56195 767.56494,613.33307 767.62146,613.05273 767.62146,537.0415 767.8169,536.84607 842.1173,536.84607 842.39764,536.78955 842.6265,536.63525 842.7808,536.4063 842.8374,536.12604 842.8374,385.22726 842.7808,384.94693 842.6265,384.71805 842.39764,384.56375 842.1173,384.50717 Z M0.61721426,230.66313 L0.336892,230.71971 0.108008854,230.87401 -0.04629243,231.10287 -0.10286904,231.38321 -0.10286904,689.9794 -0.04629243,690.2597 0.108008854,690.4886 0.336892,690.6429 0.61721426,690.69946 74.598755,690.69946 74.879074,690.6429 75.107956,690.4886 75.26226,690.2597 75.31883,689.9794 75.31883,231.38321 75.26226,231.10287 75.107956,230.87401 74.879074,230.71971 74.598755,230.66313 Z M923.69055,230.66313 L923.41016,230.71971 923.18134,230.87401 923.02704,231.10287 922.97046,231.38321 922.97046,689.9794 923.02704,690.2597 923.18134,690.4886 923.41016,690.6429 923.69055,690.69946 999.38275,690.69946 999.66315,690.6429 999.89197,690.4886 1000.04626,690.2597 1000.10284,689.9794 1000.10284,231.38321 1000.04626,231.10287 999.89197,230.87401 999.66315,230.71971 999.38275,230.66313 Z M77.5439,692.20447 L77.26358,692.26105 77.0347,692.41534 76.880394,692.6442 76.823814,692.92456 76.823814,843.82336 76.880394,844.10376 77.0347,844.3326 77.26358,844.4869 77.5439,844.54346 153.23613,844.54346 153.51646,844.4869 153.74535,844.3326 153.89964,844.10376 153.9562,843.82336 153.9562,692.92456 153.89964,692.6442 153.74535,692.41534 153.51646,692.26105 153.23613,692.20447 Z M846.7686,692.20447 L846.4882,692.26105 846.2594,692.41534 846.1051,692.6442 846.0485,692.92456 846.0485,843.82336 846.1051,844.10376 846.2594,844.3326 846.4882,844.4869 846.7686,844.54346 922.46075,844.54346 922.7411,844.4869 922.97,844.3326 923.12427,844.10376 923.18085,843.82336 923.18085,692.92456 923.12427,692.6442 922.97,692.41534 922.7411,692.26105 922.46075,692.20447 Z M154.46588,846.0485 L154.18555,846.1051 153.95667,846.2594 153.80237,846.4882 153.74579,846.7686 153.68037,920.75006 153.73694,921.0304 153.89124,921.2593 154.12012,921.4136 154.40045,921.4701 229.2251,921.4701 229.50266,921.41437 229.73738,921.25604 229.89279,921.0195 229.94513,920.7412 229.04405,846.75977 228.98503,846.482 228.83029,846.25604 228.60243,846.10406 228.324,846.0485 Z M385.23187,846.0485 L384.95154,846.1051 384.7227,846.2594 384.56836,846.4882 384.51178,846.7686 384.51178,920.75006 384.56836,921.0304 384.7227,921.2593 384.95154,921.4136 385.23187,921.4701 613.0574,921.4701 613.3377,921.4136 613.5666,921.2593 613.7209,921.0304 613.77747,920.75006 613.77747,846.7686 613.7209,846.4882 613.5666,846.2594 613.3377,846.1051 613.0574,846.0485 Z M769.84656,846.0485 L769.5662,846.1051 769.33734,846.2594 769.18304,846.4882 769.12646,846.7686 769.12646,920.75006 769.18304,921.0304 769.33734,921.2593 769.5662,921.4136 769.84656,921.4701 845.5388,921.4701 845.81915,921.4136 846.04803,921.2593 846.20233,921.0304 846.2589,920.75006 846.2589,846.7686 846.20233,846.4882 846.04803,846.2594 845.81915,846.1051 845.5388,846.0485 Z M231.38788,922.97046 L231.10756,923.02704 230.87868,923.18134 230.72438,923.41016 230.6678,923.69055 230.6678,997.67206 230.72438,997.95245 230.87868,998.1813 231.10756,998.3356 231.38788,998.39215 305.3694,998.39215 305.64972,998.3356 305.87857,998.1813 306.03287,997.95245 306.08948,997.67206 306.08948,923.69055 306.03287,923.41016 305.87857,923.18134 305.64972,923.02704 305.3694,922.97046 Z M692.9246,922.97046 L692.6443,923.02704 692.41534,923.18134 692.26105,923.41016 692.2045,923.69055 692.2045,997.67206 692.26105,997.95245 692.41534,998.1813 692.6443,998.3356 692.9246,998.39215 768.61676,998.39215 768.8971,998.3356 769.126,998.1813 769.2803,997.95245 769.33685,997.67206 769.33685,923.69055 769.2803,923.41016 769.126,923.18134 768.8971,923.02704 768.61676,922.97046 Z M308.30988,999.8924 L308.02957,999.949 307.8007,1000.1033 307.6464,1000.3321 307.5898,1000.6125 307.5898,1074.594 307.6464,1074.8744 307.8007,1075.1033 308.02957,1075.2576 308.30988,1075.3141 382.29144,1075.3141 382.57178,1075.2576 382.80063,1075.1033 382.95493,1074.8744 383.01154,1074.594 383.01154,1000.6125 382.95493,1000.3321 382.80063,1000.1033 382.57178,999.949 382.29144,999.8924 Z M616.00256,999.8924 L615.7222,999.949 615.49335,1000.1033 615.33905,1000.3321 615.2825,1000.6125 615.2825,1074.594 615.33905,1074.8744 615.49335,1075.1033 615.7222,1075.2576 616.00256,1075.3141 691.69476,1075.3141 691.9751,1075.2576 692.204,1075.1033 692.35834,1074.8744 692.41486,1074.594 692.41486,1000.6125 692.35834,1000.3321 692.204,1000.1033 691.9751,999.949 691.69476,999.8924 Z M385.23187,1076.8145 L384.95154,1076.871 384.7227,1077.0253 384.56836,1077.2542 384.51178,1077.5345 384.51178,1151.516 384.56836,1151.7964 384.7227,1152.0253 384.95154,1152.1796 385.23187,1152.2361 614.7681,1152.2361 615.04846,1152.1796 615.27734,1152.0253 615.43164,1151.7964 615.4882,1151.516 615.4882,1077.5345 615.43164,1077.2542 615.27734,1077.0253 615.04846,1076.871 614.7681,1076.8145 Z " />
</g></svg>