<?xml version="1.0" encoding="UTF-8"?>
<!DOCTYPE svg PUBLIC "-//W3C//DTD SVG 1.0//EN" "http://www.w3.org/TR/2001/REC-SVG-20010904/DTD/svg10.dtd">
<svg shape-rendering="geometricPrecision" text-rendering="geometricPrecision" image-rendering="optimizeQuality" fill-rule="evenodd" xml:space="preserve" 
 xmlns="http://www.w3.org/2000/svg" xmlns:xlink="http://www.w3.org/1999/xlink"  viewBox="0 0 1000.1786042675376 1000.4487458691001" width="100.01786042675376mm" height="100.04487458691001mm" >
<g><path fill="#000000" d="M437.37283,-0.089309834 L436.93054,0.09401344 436.74765,0.5364685 436.80676,61.146076 437.18872,61.72157 561.275,61.770634 561.8509,61.389225 561.9594,0.5364698 561.57367,-0.04166324 437.37283,-0.089309834 Z M374.90823,61.69887 L374.4662,61.881977 374.28308,62.32404 374.3322,186.4222 374.90823,186.80403 436.48978,186.7549 436.8716,186.17886 436.82245,62.080696 436.24643,61.69887 Z M562.46063,61.69887 L562.01855,61.881977 561.83545,62.32404 561.8846,186.4222 562.46063,186.80403 624.0417,186.7549 624.4235,186.17886 624.3744,62.080696 623.79834,61.69887 Z M624.977,186.73988 L624.5349,186.92299 624.3518,187.36505 624.3518,311.12143 624.73364,311.69745 936.76666,311.74658 936.93634,311.91626 936.93634,373.72357 937.11945,374.16562 937.5615,374.34875 999.42596,374.34875 1000.002,373.96692 1000.0511,249.68593 999.66925,249.1099 687.0797,249.06076 686.9101,248.89113 686.9101,187.36505 686.727,186.92299 686.2849,186.73988 Z M312.1733,186.73988 L311.73126,186.92299 311.54816,187.36505 311.54816,249.02707 311.3785,249.19672 0.29251507,249.24583 -0.089309834,249.82188 -0.04018097,374.02664 0.535859,374.40848 61.14569,374.3494 61.587337,374.1661 61.77025,373.7242 61.77025,312.19254 61.939888,312.0229 373.97263,311.97375 374.35446,311.3977 374.3053,187.12172 373.72928,186.73988 Z M62.32363,374.28464 L61.881573,374.46774 61.698463,374.90982 61.698463,436.2403 61.881573,436.68234 62.32363,436.86545 123.66181,436.86545 124.103874,436.68234 124.28698,436.2403 124.28698,374.90982 124.103874,374.46774 123.66181,374.28464 Z M875.0445,374.28464 L874.60236,374.46774 874.4193,374.90982 874.4193,436.2403 874.60236,436.68234 875.0445,436.86545 936.383,436.86545 936.8251,436.68234 937.0081,436.2403 937.0081,374.90982 936.8251,374.46774 936.383,374.28464 Z M124.84077,436.8013 L124.398705,436.9844 124.2156,437.42648 124.2156,498.76498 124.398705,499.20703 124.84077,499.39014 186.17886,499.39014 186.62091,499.20703 186.80403,498.76498 186.80403,437.42648 186.62091,436.9844 186.17886,436.8013 Z M812.5282,436.8013 L812.0861,436.9844 811.903,437.42648 811.903,498.76498 812.0861,499.20703 812.5282,499.39014 873.8667,499.39014 874.3088,499.20703 874.4919,498.76498 874.4919,437.42648 874.3088,436.9844 873.8667,436.8013 Z M375.02698,374.4403 L374.58493,374.62344 374.40182,375.0655 374.45096,561.2987 375.02698,561.68054 436.23862,561.63135 436.62045,561.05536 436.57132,374.82214 435.9953,374.4403 Z M562.61487,374.5502 L562.1728,374.73334 561.9897,375.17538 562.0388,561.40485 562.61487,561.7867 623.8173,561.7375 624.19916,561.1615 624.15,374.93204 623.574,374.5502 Z M187.36507,499.3184 L186.92302,499.50153 186.7399,499.94357 186.78903,624.0402 187.36507,624.422 248.724,624.37286 249.10583,623.7969 249.0567,499.70023 248.48067,499.3184 Z M750.2263,499.3184 L749.7842,499.50153 749.60114,499.94357 749.65027,624.0402 750.2263,624.422 811.586,624.37286 811.96783,623.7969 811.9187,499.70023 811.34265,499.3184 Z M124.84834,624.3502 L124.40628,624.5334 124.223175,624.9754 124.2723,749.0743 124.84834,749.4561 186.4222,749.407 186.80403,748.83093 186.7549,624.73206 186.17886,624.3502 Z M812.5282,624.3502 L812.0861,624.5334 811.903,624.9754 811.95215,749.0743 812.5282,749.4561 874.10236,749.407 874.4842,748.83093 874.43506,624.73206 873.859,624.3502 Z M437.42648,749.60114 L436.9844,749.7842 436.8013,750.2263 436.8013,811.3428 437.18314,811.9188 561.2805,811.9679 561.85657,811.58606 561.9057,750.2263 561.52386,749.65027 437.42648,749.60114 Z M312.39307,811.903 L311.95102,812.0861 311.7679,812.5282 311.7679,873.859 312.14975,874.43506 436.24792,874.4842 436.82394,874.10236 436.87308,812.5282 436.49124,811.95215 312.39307,811.903 Z M562.45905,811.903 L562.017,812.0861 561.83386,812.5282 561.83386,873.859 562.2157,874.43506 686.3139,874.4842 686.88995,874.10236 686.9391,812.5282 686.55725,811.95215 562.45905,811.903 Z M62.32363,749.3844 L61.881573,749.56744 61.698463,750.0096 61.747593,874.10846 62.32363,874.4903 123.90516,874.44116 124.28698,873.8651 124.237854,749.76624 123.66181,749.3844 Z M875.27655,749.4363 L874.8345,749.6194 874.65137,750.06146 874.7005,874.16034 875.27655,874.5422 936.8584,874.4931 937.24023,873.917 937.1911,749.8181 936.61505,749.4363 Z M187.35938,874.4193 L186.91733,874.60236 186.7342,875.0445 186.7342,936.383 187.11604,936.95905 311.2145,937.0081 311.79056,936.6263 311.8397,875.0445 311.45786,874.4684 187.35938,874.4193 Z M687.4925,874.4193 L687.0504,874.60236 686.8673,875.0445 686.8673,936.383 687.24915,936.95905 811.3481,937.0081 811.92413,936.6263 811.97327,875.0445 811.59143,874.4684 687.4925,874.4193 Z M937.5615,874.4246 L937.11945,874.60767 936.93634,875.0498 936.93634,936.76666 936.76666,936.93634 812.5335,936.93634 812.09143,937.11945 811.9083,937.5615 811.9083,999.4825 812.09143,999.92456 812.5335,1000.1076 999.4641,1000.1076 999.90625,999.92456 1000.0893,999.4825 1000.0402,874.80646 999.4641,874.4246 Z M0.53580326,874.36566 L0.09401071,874.5486 -0.089309834,874.99084 -0.089309834,999.73425 0.09379787,1000.17633 0.535859,1000.35944 186.17278,1000.35944 186.61484,1000.17633 186.79794,999.73425 186.79794,937.5615 186.61484,937.11945 186.17278,936.93634 61.939934,936.93634 61.77025,936.76666 61.77025,875.04944 61.58746,874.6074 61.14568,874.424 0.53580326,874.36566 Z " />
</g></svg>