<?xml version="1.0" encoding="utf-8"?>
<!-- Generator: Adobe Illustrator 16.0.0, SVG Export Plug-In . SVG Version: 6.00 Build 0)  -->
<!DOCTYPE svg PUBLIC "-//W3C//DTD SVG 1.1//EN" "http://www.w3.org/Graphics/SVG/1.1/DTD/svg11.dtd">
<svg version="1.1" id="Layer_1" xmlns="http://www.w3.org/2000/svg" xmlns:xlink="http://www.w3.org/1999/xlink" x="0px" y="0px"
	 width="432px" height="576px" viewBox="0 0 432 576" enable-background="new 0 0 432 576" xml:space="preserve">
<g>
	<path fill-rule="evenodd" clip-rule="evenodd" d="M167.28,24c15.999,0,32.002,0,48,0c0,7.759,0,15.521,0,23.28
		c-15.998,0-32.001,0-48,0C167.28,39.521,167.28,31.759,167.28,24z"/>
	<path fill-rule="evenodd" clip-rule="evenodd" d="M143.28,47.28c8,0,16.001,0,24,0c0,71.993,0,144.007,0,216c-7.999,0-16,0-24,0
		c0-23.998,0-48.002,0-72c-15.998,0-32.001,0-48,0c0,39.996,0,80.004,0,120c-7.999,0-16,0-24,0c0-7.999,0-16,0-24
		c-7.999,0-16,0-24,0c0,23.998,0,48.002,0,72c-7.759,0-15.521,0-23.28,0c0-31.997,0-64.003,0-96c15.758,0,31.521,0,47.28,0
		c0-31.997,0-64.003,0-96c23.998,0,48.002,0,72,0C143.28,127.284,143.28,87.276,143.28,47.28z"/>
	<path fill-rule="evenodd" clip-rule="evenodd" d="M215.28,47.28c8,0,16.001,0,24,0c0,39.996,0,80.004,0,120c23.998,0,48.002,0,72,0
		c0,8,0,16.001,0,24c24.238,0,48.482,0,72.72,0c0,71.993,0,144.007,0,216c-8.239,0-16.481,0-24.72,0c0-63.993,0-128.006,0-192
		c-15.998,0-32.001,0-48,0c0,23.998,0,48.002,0,72c-7.999,0-16,0-24,0c0-31.997,0-64.003,0-96c-15.998,0-32.001,0-48,0
		c0,23.998,0,48.002,0,72c-7.999,0-16,0-24,0C215.28,191.287,215.28,119.273,215.28,47.28z"/>
	<path fill-rule="evenodd" clip-rule="evenodd" d="M47.28,359.28c8,0,16.001,0,24,0c0,15.999,0,32.002,0,48c-7.999,0-16,0-24,0
		C47.28,391.282,47.28,375.278,47.28,359.28z"/>
	<path fill-rule="evenodd" clip-rule="evenodd" d="M71.28,407.28c8,0,16.001,0,24,0c0,15.999,0,32.002,0,48c-7.999,0-16,0-24,0
		C71.28,439.282,71.28,423.278,71.28,407.28z"/>
	<path fill-rule="evenodd" clip-rule="evenodd" d="M335.28,407.28c8,0,16.001,0,24,0c0,23.998,0,48.002,0,72c-7.999,0-16,0-24,0
		C335.28,455.282,335.28,431.278,335.28,407.28z"/>
	<path fill-rule="evenodd" clip-rule="evenodd" d="M95.28,455.28c8,0,16.001,0,24,0c0,15.999,0,32.002,0,48
		c63.994,0,128.007,0,192,0c0,8.239,0,16.481,0,24.72c-71.993,0-144.007,0-216,0C95.28,503.762,95.28,479.518,95.28,455.28z"/>
	<path fill-rule="evenodd" clip-rule="evenodd" d="M311.28,479.28c8,0,16.001,0,24,0c0,8,0,16.001,0,24c-7.999,0-16,0-24,0
		C311.28,495.281,311.28,487.279,311.28,479.28z"/>
</g>
</svg>
