<?xml version="1.0" encoding="UTF-8"?>
<!DOCTYPE svg PUBLIC "-//W3C//DTD SVG 1.0//EN" "http://www.w3.org/TR/2001/REC-SVG-20010904/DTD/svg10.dtd">
<svg shape-rendering="geometricPrecision" text-rendering="geometricPrecision" image-rendering="optimizeQuality" fill-rule="evenodd" xml:space="preserve" 
 xmlns="http://www.w3.org/2000/svg" xmlns:xlink="http://www.w3.org/1999/xlink"  viewBox="0 0 1195.0124558731914 1000.2141616791487" width="119.50124558731913mm" height="100.02141616791486mm" >
<g><path fill="#000000" d="M598.6484,344.18033 L609.2014,344.46783 619.0336,345.32617 628.14185,346.74658 636.612,348.74176 644.4038,351.3068 651.5414,354.45493 657.9498,358.14435 663.70544,362.4165 668.78265,367.2575 673.20087,372.69543 676.90546,378.6468 679.95184,385.19632 682.3216,392.31622 684.0181,400.03232 685.03033,408.26938 685.3688,417.10287 685.0271,425.96066 684.01294,434.2015 682.3186,441.89352 679.9351,449.04193 676.8993,455.5639 673.1748,461.54294 668.77344,466.95178 663.69543,471.79108 657.93945,476.0614 651.5061,479.76282 644.39417,482.89545 636.6032,485.45908 628.1125,487.45676 618.94275,488.88297 609.1186,489.73508 598.6322,490.0179 502.36142,490.01767 502.15878,489.81503 502.15878,344.38293 502.36142,344.18033 Z M460.67914,297.39392 L457.97357,297.6225 455.36472,298.37445 453.19574,299.57007 451.3246,301.22964 449.81644,303.28546 448.74585,305.65753 448.10754,308.34473 447.89612,311.30066 447.89612,686.749 448.1071,689.476 448.74524,691.989 449.89514,694.3858 451.4302,696.3882 453.33276,698.0269 455.51468,699.1879 457.985,699.8791 460.67944,700.1066 488.28824,700.104 490.96576,699.8781 493.5392,699.18555 496.02133,697.9455 498.04358,696.38654 499.82306,694.3915 501.16815,691.9867 501.91257,689.4693 502.15878,686.74445 502.15878,537.5836 502.36142,537.381 604.20166,537.381 604.4095,537.5013 688.8339,684.52057 690.9215,688.07886 693.0624,691.12286 695.3458,693.788 697.8278,696.09094 700.54456,697.8594 703.6972,699.10895 707.3141,699.8575 711.3071,700.1052 736.6882,700.10315 738.97217,699.86707 740.918,699.2645 743.0215,698.1034 744.8219,696.5771 746.33325,694.7527 747.3494,692.9224 748.0184,690.82196 748.2468,688.4096 747.835,685.53925 746.4938,682.08276 658.14655,528.9069 658.2489,528.64404 667.37085,525.76514 676.3553,522.2202 684.85144,518.1093 692.74756,513.4847 700.0526,508.3595 706.91815,502.61697 713.19275,496.37366 718.88574,489.64352 724.0541,482.29108 728.49475,474.51 732.22626,466.30576 735.30536,457.5543 737.7127,448.2605 739.4188,438.54172 740.4374,428.4114 740.7812,417.64682 740.2057,403.48495 739.48126,396.6803 738.46783,390.10727 737.1652,383.75262 735.572,377.61462 733.68976,371.6953 731.5166,365.99268 729.054,360.5075 726.3012,355.24008 723.2578,350.1898 719.9244,345.3571 716.301,340.74255 712.38763,336.34616 708.1835,332.16714 703.6886,328.20575 698.93665,324.47406 693.96356,320.9842 688.7673,317.73462 683.34796,314.72574 677.7071,311.95764 671.8568,309.4353 659.3869,305.08075 646.1069,301.7171 631.93677,299.3148 616.94824,297.87766 600.9769,297.39426 460.67914,297.39392 Z M372.46347,50.106426 L447.0923,50.106678 447.2949,50.30931 447.2949,99.69069 447.0923,99.893326 372.4607,99.89311 363.46594,100.11943 354.5702,100.79415 345.80557,101.90612 337.17987,103.44473 328.70462,105.39914 320.39355,107.75727 312.25507,110.50942 304.29935,113.64431 296.53946,117.15073 288.98746,121.01676 281.6517,125.23279 274.5448,129.78719 267.6761,134.66963 261.05844,139.8679 254.70226,145.37177 248.61893,151.16928 242.81767,157.25177 237.31151,163.60606 232.11066,170.22166 227.22694,177.0867 222.66977,184.1921 218.45085,191.52614 214.58148,199.07747 211.0725,206.83511 207.93503,214.7875 205.17976,222.92505 202.81776,231.23721 200.86028,239.7096 199.31816,248.33447 198.20265,257.10086 197.52446,265.99435 197.29507,275.02304 197.29483,410.20587 108.13312,499.472 107.91794,500.07117 108.14115,500.53604 197.29483,589.7965 197.2946,724.9408 197.52084,733.9355 198.19579,742.8314 199.30759,751.5962 200.84622,760.2216 202.8008,768.69684 205.15924,777.0088 207.91093,785.14655 211.04597,793.1022 214.55235,800.8621 218.4184,808.41406 222.63492,815.7505 227.18889,822.8568 232.07114,829.7255 237.26958,836.343 242.77335,842.6994 248.5708,848.7825 254.65341,854.58386 261.00754,860.0901 267.62326,865.2909 274.48923,870.17523 281.59354,874.7318 288.9276,878.95074 296.47903,882.8201 304.23666,886.32916 312.19006,889.46674 320.32654,892.2219 328.6387,894.58386 337.11108,896.5412 345.73618,898.08344 354.50247,899.19885 363.39584,899.87695 372.4245,900.1065 447.09222,900.1067 447.2949,900.3094 447.2949,949.6907 447.09222,949.89325 372.4273,949.89307 360.83353,949.5989 349.41153,948.72833 338.1535,947.2963 327.0767,945.3163 316.19574,942.8031 305.52188,939.7703 295.0713,936.23236 284.85693,932.20337 274.89474,927.6975 265.19693,922.72876 255.77774,917.31116 246.65251,911.45905 237.83446,905.1864 229.338,898.50745 221.17746,891.4362 213.36601,883.98645 205.91982,876.1741 198.85112,868.0113 192.17485,859.5128 185.90439,850.6922 180.05542,841.56586 174.64021,832.1444 169.67484,822.446 165.17126,812.48047 161.14554,802.26514 157.61067,791.8135 154.58122,781.13904 152.07104,770.255 150.09474,759.1779 148.66599,747.9217 147.79906,736.4974 147.50795,724.938 147.45207,610.3328 59.204052,522.008 57.08585,519.6632 55.229786,517.1323 52.380405,511.705 50.6851,505.9815 50.10955,500.02985 50.674133,494.0785 52.37888,488.30283 55.228004,482.87415 57.10966,480.31287 59.25242,477.9443 147.45135,389.6662 147.50842,275.02582 147.80267,263.43213 148.67284,252.00996 150.1053,240.75186 152.0851,229.67525 154.59818,218.79414 157.63083,208.12038 161.16896,197.66957 165.19778,187.45549 169.70345,177.49326 174.67215,167.7954 180.08961,158.37636 185.94186,149.25096 192.21432,140.433 198.89307,131.93651 205.96414,123.77584 213.41414,115.964355 221.22629,108.51837 229.38889,101.44967 237.88727,94.773346 246.70793,88.502815 255.83415,82.65388 265.25574,77.23873 274.95416,72.27322 284.91965,67.769684 295.13614,63.74358 305.58688,60.20913 316.26166,57.179665 327.14548,54.669556 338.22293,52.693184 349.47925,51.264427 360.90363,50.39748 372.46347,50.106426 Z M747.43024,-0.10667877 L742.2525,0.1575378 737.35095,0.9050428 732.54706,2.1354513 727.8728,3.8448308 723.55725,5.9217353 719.3644,8.466691 715.5636,11.30598 712.00116,14.535182 708.7642,18.087744 705.8767,21.938683 703.3633,26.063927 701.2497,30.437021 699.561,35.03375 698.3223,39.827835 697.5592,44.795418 697.2959,49.91033 697.29407,100.01949 697.55096,105.13152 698.3201,110.1761 699.55615,114.97135 701.21375,119.5012 703.318,123.87859 705.82196,128.00735 708.7468,131.91779 711.98083,135.46948 715.48505,138.65225 719.33997,141.5367 723.53314,144.08069 727.91815,146.18576 732.52637,147.86562 737.26196,149.08058 742.24365,149.84265 747.37634,150.10573 822.376,150.1069 828.8239,150.27101 835.1678,150.75516 841.4212,151.55151 847.54156,152.64543 859.5171,155.72484 871.0195,159.93729 881.9165,165.1876 892.21735,171.44585 901.85364,178.65518 910.7063,186.7023 918.76953,195.5748 925.96136,205.193 932.2192,215.49425 937.4791,226.41582 941.68024,237.89452 944.75824,249.86803 945.86066,256.05014 946.65344,262.30203 947.1339,268.64822 947.2953,275.062 947.35187,431.0876 1016.0403,499.85675 1016.0403,500.14325 947.35187,568.9124 947.29486,724.9741 947.13025,731.4219 946.6464,737.7657 945.8502,744.0192 944.7515,750.15985 941.6771,762.1156 937.4751,773.5938 932.20135,784.5365 925.9557,794.81555 918.76306,804.433 910.69916,813.3048 901.8268,821.36804 892.2089,828.55994 881.9074,834.8174 870.9861,840.0778 859.4818,844.28516 847.53375,847.35626 841.35187,848.4589 835.10004,849.25165 828.7538,849.7326 822.33984,849.89355 747.44653,849.89246 742.32806,850.1499 737.35065,850.9051 732.5471,852.1354 727.9416,853.81573 723.5572,855.922 719.35974,858.4703 715.49994,861.3593 712.00116,864.5356 708.76416,868.0883 705.87683,871.9393 703.36316,876.065 701.2211,880.5054 699.5609,885.0353 698.3223,889.8299 697.5592,894.79803 697.2959,899.9133 697.29407,950.0164 697.55096,955.12915 698.3052,960.1011 699.55615,964.96967 701.2138,969.50006 703.35236,973.9408 705.82184,978.0065 708.747,981.9174 711.9809,985.4692 715.54614,988.70184 719.34045,991.53674 723.47034,994.0464 727.9184,996.1858 732.45605,997.8435 737.2626,999.08075 742.3557,999.85126 747.37634,1000.1057 822.34265,1000.1069 836.4836,999.7505 850.45807,998.68964 864.22736,996.9414 877.7774,994.52356 891.09076,991.45233 904.1485,987.7461 916.9327,983.4223 929.4294,978.4968 941.6189,972.98755 953.4827,966.91315 965.00684,960.2885 976.17053,953.13367 986.95996,945.46277 997.355,937.2957 1007.33966,928.6487 1016.8957,919.53986 1026.0083,909.98456 1034.6571,900.0018 1042.8267,889.6084 1050.4985,878.82263 1057.6566,867.65985 1064.2834,856.13824 1070.361,844.27515 1075.8729,832.0877 1080.8004,819.59454 1085.1279,806.8105 1088.8373,793.7532 1091.9113,780.44293 1094.333,766.8936 1096.0844,753.1231 1097.1486,739.1513 1097.5079,724.9769 1097.5082,631.2153 1171.0627,557.5576 1176.6387,551.3901 1181.478,544.81354 1185.6089,537.8227 1188.9283,530.67303 1191.5596,523.15393 1193.4194,515.5301 1194.5288,507.86053 1194.9073,500.06015 1194.535,492.19 1193.417,484.44604 1191.5753,476.88858 1188.9468,469.36417 1185.5933,462.1417 1181.535,455.2704 1176.6963,448.68018 1171.1112,442.49326 1097.5819,368.96252 1097.5083,275.05923 1097.1522,260.91824 1096.091,246.94366 1094.3428,233.17426 1091.9252,219.62419 1088.8539,206.31058 1085.1477,193.2533 1080.8239,180.4689 1075.898,167.97224 1070.3892,155.78253 1064.3147,143.91885 1057.6902,132.39474 1050.535,121.231094 1042.8641,110.44151 1034.6971,100.04647 1026.0503,90.0618 1016.9414,80.505714 1007.38605,71.39324 997.40326,62.744247 987.0102,54.57472 976.22394,46.902912 965.06134,39.744728 953.5396,33.118164 941.6767,27.040466 929.4892,21.528934 916.996,16.601192 904.21246,12.273733 891.1544,8.564164 877.84424,5.4903183 864.2954,3.0689132 850.52454,1.3173605 836.5531,0.2531176 822.3788,-0.10642488 747.43024,-0.10667877 Z M372.45206,-0.10667877 L358.32,0.2495119 344.34583,1.3104806 330.5767,3.0583475 317.02655,5.4762545 303.71313,8.547219 290.65607,12.253209 277.87164,16.577087 265.3752,21.502405 253.18541,27.011341 241.32156,33.08571 229.79773,39.709908 218.63408,46.864838 207.84462,54.535233 197.44926,62.702293 187.46469,71.348915 177.90868,80.45759 168.79587,90.01297 160.14679,99.9956 151.97716,110.38871 144.30519,121.17467 137.14699,132.33739 130.52032,143.85901 124.44253,155.72209 118.93086,167.90956 114.00296,180.40297 109.6755,193.1872 105.96589,206.24464 102.89202,219.5554 100.470406,233.10486 98.71897,246.87595 97.6547,260.84814 97.29512,275.02304 97.29487,368.78458 23.740257,442.44238 18.15437,448.62167 13.308972,455.20798 9.1720915,462.21338 5.8557525,469.36472 3.2270186,476.8882 1.3850597,484.44635 0.26730567,492.18948 -0.10510724,499.98923 0.2665158,507.78848 1.3826396,515.53046 3.2426374,523.1543 5.8736405,530.6726 9.227611,537.8885 13.283612,544.7518 18.116308,551.3315 23.691895,557.5067 97.22108,631.03723 97.29465,724.9408 97.6511,739.0812 98.71209,753.05536 100.45984,766.8243 102.8778,780.3741 105.948784,793.68726 109.65482,806.7444 113.9787,819.52856 118.90401,832.025 124.41292,844.2147 130.48723,856.0784 137.11151,867.60254 144.26645,878.76624 151.93687,889.5556 160.10388,899.9509 168.75041,909.9356 177.85909,919.4918 187.41458,928.6044 197.39708,937.2537 207.79019,945.4233 218.57639,953.0955 229.73906,960.2537 241.26047,966.8806 253.12372,972.9584 265.31122,978.47034 277.80444,983.3982 290.58868,987.7257 303.64624,991.43536 316.9568,994.5094 330.50632,996.931 344.27747,998.6827 358.24963,999.7468 372.4245,1000.10645 447.3539,1000.1075 452.48242,999.8503 457.53882,999.08075 462.34598,997.8435 466.884,996.1858 471.3323,994.0464 475.4619,991.53674 479.31796,988.65173 482.8218,985.46906 486.05603,981.9173 488.9812,978.0065 491.45102,973.9408 493.55557,969.57855 495.2468,964.96967 496.48294,960.174 497.24448,955.20416 497.50742,950.0866 497.5092,899.9835 497.2515,894.87317 496.48068,889.8299 495.24213,885.0353 493.58188,880.5054 491.4402,876.065 488.92624,871.93933 486.0385,868.0883 482.80148,864.5356 479.3027,861.35925 475.4383,858.46704 471.24475,855.92194 466.86044,853.81573 462.25494,852.1354 457.45084,850.9051 452.47293,850.14984 447.42407,849.8942 372.4273,849.89307 365.97977,849.729 359.6359,849.24475 353.38242,848.44836 347.26175,847.35455 335.2859,844.27515 323.7838,840.06274 312.88684,834.81244 302.5859,828.55414 292.9494,821.3447 284.09674,813.29767 276.03348,804.4252 268.84155,794.807 262.5842,784.50574 257.32388,773.58417 253.12314,762.10547 250.04517,750.13196 248.94264,743.9499 248.14998,737.6979 247.66882,731.35175 247.50807,724.938 247.45218,568.91473 178.76266,500.1433 178.76266,499.8567 247.44557,431.1023 247.50854,275.02582 247.67242,268.57816 248.15688,262.2343 248.95319,255.98073 250.05151,249.84128 253.12663,237.88435 257.32828,226.40617 262.6031,215.46248 268.8483,205.18446 276.0409,195.56697 284.10516,186.69513 292.97754,178.63193 302.59576,171.44006 312.8972,165.18268 323.8185,159.92218 335.29733,155.7217 347.27023,152.64372 353.45215,151.54094 359.70395,150.74829 366.04987,150.2674 372.46347,150.10643 447.3539,150.1075 452.48227,149.8503 457.53946,149.08058 462.3456,147.8439 466.95172,146.1573 471.33194,144.04683 475.46237,141.5367 479.2619,138.69814 482.872,135.41927 486.10138,131.86304 488.94073,128.06711 491.48532,123.878586 493.58954,119.50121 495.2689,114.900314 496.49783,110.10318 497.25214,105.131454 497.50742,100.08966 497.5092,49.980503 497.24387,44.79538 496.48068,39.827835 495.24207,35.03375 493.55334,30.437 491.44006,26.063927 488.9667,21.998476 486.03845,18.087759 482.80154,14.535182 479.23904,11.305988 475.37823,8.426416 471.24475,5.921726 466.92926,3.8448308 462.32495,2.1571574 457.52347,0.919957 452.54852,0.15753059 447.42407,-0.10572219 372.45206,-0.10667877 Z " />
</g></svg>