<?xml version="1.0" encoding="UTF-8"?>
<!DOCTYPE svg PUBLIC "-//W3C//DTD SVG 1.0//EN" "http://www.w3.org/TR/2001/REC-SVG-20010904/DTD/svg10.dtd">
<svg shape-rendering="geometricPrecision" text-rendering="geometricPrecision" image-rendering="optimizeQuality" fill-rule="evenodd" xml:space="preserve" 
 xmlns="http://www.w3.org/2000/svg" xmlns:xlink="http://www.w3.org/1999/xlink"  viewBox="0 0 1442.7578229755163 1000.2575788348913" width="144.27578229755164mm" height="100.02575788348913mm" >
<g><path fill="#000000" d="M954.90295,515.33856 L957.0804,515.47125 958.52203,515.8432 959.3002,516.3834 959.73737,517.21375 960.035,519.9173 960.5842,521.4423 961.3656,522.34045 962.67883,522.8469 963.4499,523.5767 965.31824,526.3389 967.4086,530.2838 969.56635,535.005 971.5956,540.0498 973.29553,544.95654 974.44293,549.17584 974.87177,552.3485 974.56104,554.59344 974.18134,555.4574 973.0549,556.6447 972.2383,557.0437 971.2607,557.2861 968.909,557.4949 967.72186,557.88995 966.61334,558.59924 965.4914,559.7664 964.5778,561.1499 963.723,562.86426 960.7853,571.3741 959.5347,574.4585 958.4479,576.49426 957.9416,577.0701 957.6053,577.12646 956.2889,576.6329 940.33655,568.7043 935.652,566.77203 931.54926,565.4366 926.04877,564.52325 922.459,563.432 918.42725,561.83417 912.7768,559.08765 909.0595,557.7011 907.0122,557.1388 902.94086,556.3559 898.8365,555.97656 894.90875,556.0007 891.17865,556.4313 889.42377,556.8127 887.7399,557.3212 884.9819,558.60425 884.0158,558.73175 883.3214,558.48206 881.99615,557.4917 880.66974,555.8639 880.06854,554.855 879.127,552.4931 879.04425,551.0461 879.1981,550.2284 879.93475,548.524 881.2669,546.57404 883.3626,544.1304 889.9086,537.53357 894.9855,532.7307 899.4698,528.75964 903.4734,525.55084 907.04565,523.07513 910.3999,521.1878 912.0541,520.43835 915.22974,519.35345 920.04736,518.5326 943.14624,516.2301 952.01385,515.43134 954.90295,515.33856 Z M849.4679,561.5614 L850.0993,561.7051 850.9861,562.435 851.6606,563.8199 851.9182,564.7863 852.2596,567.2529 852.3715,570.4698 852.1308,573.95483 851.78613,575.1513 851.18225,576.1145 850.4,576.7157 849.3528,577.10126 847.9533,577.3121 844.90967,577.2893 842.76685,576.6898 841.234,575.5813 840.3174,573.9893 840.09094,572.17163 840.2198,571.1293 841.00366,568.88086 842.4801,566.55707 844.66815,564.2239 847.4376,562.1491 848.22754,561.78406 849.4679,561.5614 Z M817.32574,606.00226 L817.5868,606.2126 816.32367,640.52625 815.69965,645.8684 815.04736,647.9188 814.57983,648.6558 813.53735,649.439 811.9736,649.78827 809.9016,649.84937 807.103,649.5848 804.039,648.8462 801.1164,647.7485 797.45,645.71326 795.5577,644.9648 790.8637,643.6803 785.09314,642.643 778.9539,642.017 770.48663,641.64417 766.7242,641.95496 765.0523,642.57324 764.2463,643.1665 763.2333,644.4786 762.4005,646.2836 760.94165,650.26953 760.1419,651.93396 758.1616,655.22363 755.8574,658.2077 752.3208,661.56573 751.1174,662.98956 750.01666,664.6422 749.0259,666.50385 747.4126,670.7643 745.3272,680.4729 743.7849,685.57434 741.91675,690.3727 740.91907,692.48315 739.8203,694.4273 737.88995,697.3204 735.75494,699.93677 733.5543,702.0783 731.26434,703.75946 728.9995,704.9143 727.83386,705.3201 725.4786,705.76416 723.0966,705.71436 720.09766,705.0028 718.891,704.3812 718.4725,703.9765 717.9863,702.7882 718.0516,701.1378 718.28644,700.0453 719.1875,697.2128 724.5455,683.8471 726.13947,678.8708 727.23737,674.3913 727.52893,672.5869 727.82166,668.78033 728.6749,665.6991 729.4808,664.3546 731.42377,662.3752 733.6387,659.2396 736.31244,654.9586 742.03656,645.1408 743.48016,643.03253 746.1602,639.6931 748.2198,637.89954 750.30774,637.2901 751.68445,636.3134 752.92236,634.7618 754.2689,632.0145 755.21857,630.9406 756.5841,629.7777 760.3554,627.3524 762.61755,626.18396 765.08655,625.07336 772.77124,622.09784 777.421,620.0524 781.16736,618.13513 784.2778,616.01666 785.70856,615.28265 790.08417,613.51184 795.7167,611.6433 802.0434,609.87756 817.32574,606.00226 Z M0.77288806,-0.12879466 L0.13534997,0.13522984 -0.12867454,0.77276796 -0.060045812,517.7607 0.4277568,518.2489 0.7742711,518.31726 22.891794,516.88617 31.908144,516.099 39.54076,515.05164 44.974937,513.8836 46.767838,513.2346 48.2305,512.1037 51.31308,510.92554 53.584408,510.34302 59.218426,509.27673 65.773476,508.468 75.111435,507.7956 78.39139,507.8334 81.181244,508.1899 83.54888,508.88464 85.89066,510.01517 88.33572,511.5865 91.13329,513.6542 94.5188,516.4803 97.3165,519.27936 99.19864,521.69543 99.70772,522.68097 100.17057,524.6684 100.85277,526.0659 101.92749,527.7002 105.05475,531.4685 107.03666,533.54193 111.56458,537.80896 116.52634,541.95496 121.51715,545.62164 126.126785,548.4531 128.19963,549.46484 130.13142,550.16986 135.04683,551.42224 139.54512,552.20386 141.61703,552.4013 145.50946,552.40283 147.40984,552.1917 150.87794,551.36884 154.17722,549.98926 157.33524,548.08685 164.88542,542.193 166.70631,541.08746 168.3613,540.3427 170.02377,539.8925 171.61565,539.76056 173.23349,539.90137 178.66669,541.02844 184.20975,541.6647 190.80638,542.137 202.29106,542.40015 209.24358,542.04895 211.92177,541.6092 213.92885,541.0288 215.71693,540.20294 217.25356,539.1362 218.66728,537.7789 221.0095,534.9601 221.58794,533.8855 221.81914,532.83295 221.656,531.6474 220.98654,530.2007 220.03925,528.75775 217.1705,525.0803 215.71179,523.7183 214.27704,522.76984 212.27971,521.92914 210.08775,521.4131 207.41275,521.094 193.59119,520.7592 186.0942,520.3184 178.5416,519.6499 163.70496,517.77075 159.75551,517.7613 157.91553,518.17957 156.94543,518.61426 155.40862,519.71423 153.9022,521.2668 150.82483,524.9618 149.40201,526.33655 147.89272,527.4876 146.37997,528.36273 144.73297,529.0397 142.96242,529.5088 141.04315,529.7821 138.95064,529.8705 135.81357,529.69586 133.0635,529.1049 130.56787,527.9933 128.20541,526.25385 125.849884,523.7731 123.38438,520.4411 120.677765,516.12634 116.07664,507.77493 114.88007,505.131 113.99362,502.6405 113.41427,500.2237 113.119606,497.7604 113.08938,495.1027 113.30243,492.16553 114.411514,484.65936 115.20672,481.47525 115.74882,480.15326 116.41478,479.01736 117.27636,477.96686 118.38401,476.9844 121.3747,475.22556 125.750175,473.4697 131.73624,471.5191 143.82068,467.9264 149.78278,466.56674 152.00337,466.4016 153.86021,466.56735 155.67424,467.07336 157.58643,467.9349 161.78522,470.2871 163.62636,471.12976 165.37778,471.65976 167.29575,471.88367 169.31895,471.75937 171.52878,471.34604 180.53018,468.77185 187.63701,467.5159 196.31416,466.65973 201.0431,466.40283 210.87288,466.27194 222.04611,466.60516 226.06213,466.9175 229.12453,467.34833 231.43631,467.9247 233.15395,468.67517 233.8451,469.13586 234.40703,469.6512 236.55014,472.51016 237.3522,473.24652 239.0242,474.35486 240.84117,475.01926 243.14484,475.22614 245.59262,475.8994 247.9141,477.1873 249.01529,478.05676 250.9436,480.09146 251.80142,481.28064 253.24135,483.93198 253.808,485.37454 254.59952,488.47125 255.15717,495.83572 255.54575,497.47748 256.12875,498.88724 256.93497,500.10815 257.99442,501.17435 259.4238,502.17053 262.36646,503.72644 263.6321,504.66153 264.77463,505.77188 265.78854,507.0496 267.40735,510.0761 269.51694,517.3937 270.308,519.058 271.33313,520.66943 272.47333,522.039 273.69717,523.1926 275.25507,524.341 284.68948,529.37 291.31097,533.22705 294.2189,535.1041 299.35764,538.85956 303.6905,542.71063 307.3681,546.7881 309.00998,548.9544 311.9958,553.6253 314.71146,558.86017 317.30743,564.55005 319.42065,569.7885 321.14236,574.9998 322.57465,580.6293 323.8178,587.1204 324.97244,594.9297 326.1348,604.498 329.24893,633.38654 330.9728,647.86194 332.62354,659.9684 334.25018,669.9788 335.90622,678.1892 337.64142,684.8756 339.50272,690.30334 343.83875,699.57526 346.39072,706.5478 347.25488,710.26886 347.5354,714.2649 347.98615,717.0936 348.6838,719.8447 349.50317,721.99274 354.02298,731.4488 357.47525,739.4277 360.03708,746.959 361.0438,750.884 361.9008,755.0924 363.2638,764.8974 364.3181,777.45087 366.9841,826.75854 368.0365,836.9905 369.431,845.73944 371.1892,853.0887 372.2108,856.26086 373.34402,859.13947 374.60736,861.7515 375.952,863.99915 377.40945,865.9536 378.89423,867.53973 380.56116,868.9321 383.4299,870.7564 384.4122,871.61945 385.282,872.64215 386.57056,874.91907 387.28287,877.553 387.37146,884.6265 387.12668,884.8713 0.42190897,884.9421 -0.057847712,885.4218 -0.12868308,885.7728 -0.12879466,999.22723 0.13522984,999.86475 0.77276796,1000.1288 1441.7273,1000.1288 1442.3649,999.86475 1442.6289,999.22723 1442.6289,885.7722 1442.3656,885.13495 1441.7286,884.8706 886.7135,884.3794 760.4017,884.04443 675.9176,883.6228 646.9887,883.2396 652.97485,881.5807 655.9422,880.47064 658.6271,879.22046 661.1507,877.7455 663.2982,876.1746 665.3129,874.33746 667.15515,872.24225 668.868,869.8106 670.36847,867.16986 671.70245,864.30084 672.967,861.0003 674.1321,857.34406 676.2418,848.86676 677.8965,840.87604 678.70374,837.8052 680.62775,831.9909 682.7374,827.20355 683.7952,825.37115 685.8009,822.7344 686.8914,820.8963 689.05225,816.1534 691.0184,810.4643 693.87103,798.72687 695.3013,793.867 696.6511,790.38666 697.27094,789.2757 698.30176,788.1539 699.10406,786.3837 699.9362,782.18677 700.2143,777.1241 700.46454,775.4131 701.42737,771.6695 702.95435,767.60284 704.97784,763.34784 707.45996,758.98456 710.2835,754.73004 713.3712,750.70844 716.72217,746.96075 717.89856,745.941 719.26965,745.07166 720.8813,744.32794 722.7499,743.7103 727.1269,742.8957 729.63513,742.69464 735.6122,742.56305 738.5494,742.31274 740.90454,741.87103 743.09906,741.14636 745.16486,740.094 747.283,738.60364 749.32434,736.82184 755.7801,730.31934 763.49384,723.1429 770.7438,717.3232 774.23975,714.8858 777.6734,712.7444 786.85724,707.6186 788.9308,706.2312 791.21216,704.2778 793.2109,703.16046 795.96106,701.9193 802.8569,699.39703 806.71716,698.2172 810.63196,697.1734 816.1977,696.07513 820.4677,695.95026 825.0645,696.31726 829.4813,697.1343 836.4894,699.13654 838.3878,699.31976 840.2275,699.0217 841.83417,698.2161 843.50726,696.8854 845.3843,695.01196 849.21686,690.6596 851.848,686.8649 852.93695,684.95734 854.52704,681.37445 854.9855,679.7048 855.3226,676.1785 855.8594,674.03296 856.6529,672.34607 858.16766,670.64514 859.0086,668.39386 859.3845,666.68176 859.9329,662.43335 860.30396,650.9549 860.63184,648.77356 861.2209,647.1994 862.0765,646.1504 863.36584,645.3687 865.1831,644.7693 869.1144,643.8546 870.5461,643.3534 872.8614,642.1385 873.8835,641.31946 874.5789,640.50903 875.00085,639.64996 875.3323,638.08606 875.84326,637.3223 876.69586,636.59625 877.89233,635.9167 879.4587,635.2845 881.42487,634.69775 886.2752,633.74567 890.8271,633.1766 894.63477,632.949 897.8628,633.06805 899.2516,633.26294 901.627,633.9313 903.50024,634.9792 904.9297,636.41974 905.97406,638.2732 908.4925,645.0434 912.4958,654.5342 913.1964,656.6798 914.32794,661.35736 914.99994,666.065 915.1253,668.19446 915.03406,672.58167 915.44696,676.92914 915.905,678.78 916.5758,680.58563 917.4483,682.259 918.52997,683.8055 919.9079,685.3074 921.42914,686.5997 923.0989,687.7344 925.1536,688.8579 929.7381,690.693 932.4517,691.49835 938.64575,692.8689 945.5045,693.95044 948.6373,694.2965 954.4149,694.56757 957.12726,694.4837 962.345,693.8484 967.4692,692.5512 972.7197,690.54877 978.3076,687.80524 990.7747,680.6973 997.2061,677.43835 1003.0635,674.82513 1009.6171,672.5254 1012.25525,671.38544 1018.70807,668.0657 1025.996,663.77155 1033.278,658.97253 1038.8749,654.8803 1043.8704,650.7586 1048.5385,646.26935 1050.841,643.77734 1055.5562,638.0867 1063.432,627.1514 1069.6453,617.7442 1076.9508,606.2589 1081.9813,597.7641 1085.949,589.9013 1088.8817,582.5229 1089.9711,578.96423 1090.813,575.4701 1091.4119,572.0199 1091.7717,568.5911 1091.8956,565.1671 1091.787,561.73004 1091.4498,558.26025 1090.8875,554.736 1090.1046,551.1448 1087.0731,539.96674 1086.3254,536.5877 1085.3463,530.3303 1085.0782,524.6054 1085.2158,521.8825 1086.0416,516.5879 1086.7332,513.96344 1088.6824,508.63547 1091.4052,503.02103 1095.6652,495.0477 1098.9624,488.15628 1100.5957,485.02997 1102.3146,482.4583 1103.1588,481.45108 1104.5083,480.31372 1106.1635,479.8839 1107.6013,479.13458 1111.1099,476.39865 1115.2048,472.36798 1119.538,467.4763 1123.768,462.1375 1127.5406,456.77332 1129.145,454.2139 1131.5581,449.61667 1133.5616,443.78214 1134.9985,440.82977 1135.9152,439.63077 1136.9675,438.6392 1138.2991,437.7445 1139.9493,436.9576 1141.914,436.28845 1147.0988,435.16895 1158.605,433.77585 1177.3843,431.97818 1184.479,430.98233 1190.5815,429.82996 1195.67,428.5286 1199.7865,427.05414 1201.4017,426.27438 1203.6813,424.7053 1204.4341,423.86533 1204.9092,422.99698 1205.3403,421.084 1206.0453,420.0092 1207.1342,418.8976 1210.3572,416.51462 1214.6946,414.04736 1222.6287,410.50095 1228.3376,408.49057 1234.0117,406.93777 1245.7761,404.87518 1252.8104,403.04834 1259.5015,400.78146 1262.4517,399.56436 1268.819,396.37674 1272.1085,394.97678 1275.599,393.9761 1279.639,393.37234 1284.7443,393.10196 1291.3829,393.12067 1311.2568,393.8453 1326.5272,394.717 1342.2186,395.9683 1356.492,397.4322 1377.8319,400.4529 1390.3708,401.93954 1403.4844,403.223 1415.6038,404.13388 1441.6735,405.70193 1442.3451,405.45874 1442.629,404.80197 1442.629,0.77276796 1442.365,0.13522984 1441.7274,-0.12879466 Z " />
</g></svg>