<?xml version="1.0" encoding="UTF-8"?>
<!DOCTYPE svg PUBLIC "-//W3C//DTD SVG 1.0//EN" "http://www.w3.org/TR/2001/REC-SVG-20010904/DTD/svg10.dtd">
<svg shape-rendering="geometricPrecision" text-rendering="geometricPrecision" image-rendering="optimizeQuality" fill-rule="evenodd" xml:space="preserve" 
 xmlns="http://www.w3.org/2000/svg" xmlns:xlink="http://www.w3.org/1999/xlink"  viewBox="0 0 2130.010213896632 1000.380270048976" width="213.0010213896632mm" height="100.0380270048976mm" >
<g><path fill="#000000" d="M822.70905,141.89075 L824.49243,141.92537 826.5765,142.25093 828.82794,142.83089 835.6878,145.02151 839.7865,145.70271 840.9762,146.11115 842.397,146.85909 844.01025,147.93547 848.35223,151.46042 859.80695,161.88628 861.6747,163.42459 863.1011,164.3203 866.1202,168.27432 869.48065,171.35854 875.71747,175.8793 882.55475,182.04933 901.3759,196.34746 906.34894,199.83868 918.2085,207.63356 922.1756,209.86569 942.6391,220.35043 947.4053,223.04083 950.534,225.00201 950.7365,225.36707 950.9118,239.05836 951.41034,243.74768 952.3345,248.7718 953.83795,255.09068 956.49,264.53442 957.66583,268.11612 960.00574,273.4158 965.51215,288.25443 970.02466,302.127 975.3967,317.59912 977.776,326.24503 978.723,328.9004 981.1126,334.20874 984.06274,339.53802 987.5425,344.89154 991.3987,349.9991 995.1902,354.29288 997.13153,356.20547 1000.873,359.25073 1005.718,362.2662 1008.3308,364.4211 1010.25854,366.57205 1010.76013,367.45807 1011.3315,370.26587 1014.52856,381.00827 1015.1957,382.83286 1017.6308,387.34848 1020.58966,391.67618 1021.9757,394.16614 1023.08466,396.58255 1025.297,403.24603 1028.1489,409.77063 1029.004,412.7266 1029.7671,416.53122 1030.419,421.1239 1031.4866,433.30267 1032.8225,462.27884 1033.4286,472.65094 1034.1647,481.44052 1035.0771,488.9666 1036.2136,495.561 1037.6222,501.545 1039.3552,507.2498 1044.1907,520.39844 1045.9388,524.66956 1048.5779,529.90674 1051.3279,534.65533 1052.598,536.5258 1054.7902,539.10315 1055.194,539.837 1055.9535,542.5723 1059.0991,549.4526 1060.8463,554.0534 1062.589,559.6067 1066.606,574.06824 1069.1129,581.3534 1070.4094,586.54584 1071.7242,592.9117 1072.8723,599.64514 1073.3003,603.9067 1073.7634,610.83795 1075.0062,641.7959 1075.4905,648.975 1075.8257,651.09863 1076.3474,652.84406 1078.6887,657.0408 1080.2341,661.118 1081.6017,667.6922 1084.4447,678.0653 1085.4122,684.4618 1085.8552,685.86145 1087.283,689.03845 1088.3445,691.8807 1090.6451,699.0348 1092.5543,706.07916 1093.1216,708.73175 1093.474,711.77936 1093.8684,713.35895 1094.5239,715.04846 1096.1378,718.1151 1096.4773,719.29834 1096.7067,720.73474 1096.9626,725.04376 1097.0259,731.83307 1097.025,739.9755 1096.657,742.87897 1096.3064,743.4661 1095.945,743.69775 1095.5098,743.76404 1094.1492,743.5275 1085.2771,739.998 1081.7902,738.1455 1079.3293,737.21906 1072.1641,734.9712 1062.344,732.21716 948.8345,732.28375 903.4972,732.7644 894.7903,733.14386 884.85,734.5702 873.8559,736.46655 861.424,738.8968 831.6067,745.36584 822.77856,747.4529 816.2776,749.3369 803.8207,753.33844 799.0154,754.3865 761.54504,760.1556 754.5814,760.5634 739.10956,761.015 643.5334,762.64087 627.3109,763.0785 619.49274,763.46704 616.9303,763.84485 612.09735,765.03546 607.5731,766.8298 603.2663,769.2686 598.66974,772.3388 597.6358,772.80414 595.28534,773.50256 592.25305,775.38776 592.1748,775.2416 595.1706,769.052 597.0475,763.91785 603.264,743.4042 604.64764,739.8392 606.1914,736.7806 610.6527,730.0633 611.6429,728.29205 613.2867,723.8769 614.65924,720.8444 616.4918,717.55664 620.1263,711.8227 621.3631,709.5035 622.3723,707.2094 624.002,701.9528 625.8202,697.72565 627.1726,695.1635 628.1533,693.922 628.78674,693.56506 629.37933,693.45337 632.9435,693.56116 634.393,693.1586 635.4686,692.5161 638.10406,689.98193 638.99316,688.697 639.5411,687.51843 639.9454,685.2748 639.85535,683.907 638.6305,679.1693 638.12634,673.4927 638.1651,666.9379 638.4659,664.05304 639.02344,661.4527 639.9196,658.9486 641.1316,656.56995 642.79803,654.0168 644.9855,651.1696 649.8073,645.4431 651.71594,642.8945 653.4524,640.2141 654.9039,637.55945 656.1347,634.8659 658.3643,628.41034 660.8168,618.5589 662.00824,612.4989 668.1961,570.7054 672.2973,544.90674 673.5501,538.36975 675.27686,530.97363 677.06555,524.36786 679.591,517.2433 681.571,509.79416 682.54834,506.94772 683.80585,504.2698 685.47687,501.56372 687.7432,498.57565 690.6376,495.24393 704.32416,480.8808 706.0893,478.69635 707.20123,476.33978 710.11127,472.46463 712.1459,469.14197 716.9887,460.0306 721.4535,450.40558 723.0866,446.33456 724.1357,443.05215 725.4383,437.40213 726.3741,432.38223 726.9257,427.8384 727.0833,423.66254 726.84656,419.63504 726.21045,415.57306 725.1822,411.3343 723.7373,406.66022 721.18665,399.4153 718.6541,393.45288 717.33167,389.2177 716.7388,386.22324 716.3432,382.41718 716.1408,378.02286 716.29114,368.2037 717.1695,358.44366 718.61786,349.0002 719.03394,343.3266 719.1502,337.2484 718.9756,331.26074 718.5317,325.71478 717.83057,320.92453 716.84076,317.11746 716.2424,315.80188 715.13794,314.20178 714.97955,312.82687 715.45074,310.32858 718.23865,300.83356 720.0394,296.07907 723.1284,286.35135 727.0674,276.03485 728.6558,271.35202 730.82947,263.84384 737.2176,239.30017 738.80896,233.86446 741.42896,227.14198 742.9995,217.75977 745.6987,206.10744 746.5525,201.6015 747.64825,192.97615 748.1114,190.57425 748.75397,188.33795 749.6022,186.258 750.6954,184.25 752.07385,182.2292 753.82025,180.06364 763.31793,169.8907 764.7032,168.65704 766.36224,167.54439 768.14233,166.63945 771.4847,165.49959 773.21893,164.68169 774.91583,163.61632 777.84375,161.05481 778.5962,160.57616 781.1474,159.59831 788.3473,155.59659 793.05676,153.87476 794.97723,152.93893 797.0954,151.67885 801.45013,148.58853 803.41235,147.62497 805.68115,147.20718 811.57745,147.18257 813.8695,146.79427 815.2423,146.07607 818.2149,143.47868 819.5505,142.67474 821.0965,142.12503 822.70905,141.89075 Z M1.1408732,-0.19014554 L0.6227191,-0.08556801 0.1996461,0.1996461 -0.08556801,0.6227191 -0.19014554,1.1408732 -0.19014554,99.733086 -0.08882577,100.24244 0.19970082,100.67426 0.6313594,100.96318 1.1408356,101.0641 26.493038,101.66751 33.722496,101.98835 39.46108,102.49343 44.379192,103.31055 48.7968,104.5094 53.42286,106.2613 58.547596,108.59603 73.197296,115.78197 78.81718,118.24143 82.570244,119.36878 88.04546,119.775604 90.32912,120.290054 92.562836,121.25722 95.29929,122.87141 103.043785,127.71067 104.572975,128.94113 115.99675,139.9502 144.18085,168.6673 146.25757,170.973 150.32776,176.347 154.13522,182.45883 155.8521,185.65279 157.39919,188.86755 160.47049,196.15047 163.2919,201.59839 165.17052,206.35326 166.76118,211.18375 167.22731,212.99564 167.61816,215.72984 168.1401,217.68994 170.20108,223.53601 173.35593,231.14795 177.33745,239.84833 179.84816,244.73453 182.62169,249.05753 186.07906,253.39253 194.93777,263.19778 197.9951,266.79276 199.98703,269.37256 200.70955,270.66394 201.53934,273.69727 204.62222,282.04517 205.50244,284.83276 206.07796,287.10648 206.45438,289.98764 206.95552,291.9282 207.65251,293.8784 209.60974,298.18228 210.16197,300.446 210.18097,303.08105 209.28584,312.78647 208.88994,320.38788 208.42555,338.28204 208.45456,354.93387 208.67299,360.94394 209.08862,364.7126 209.74701,366.96973 210.80165,369.40408 212.21696,371.83334 213.9786,374.24725 219.71504,381.01062 225.19666,386.77948 230.3654,391.5017 232.8123,393.4494 239.6642,398.34384 243.1083,401.4403 245.42587,404.3079 246.10835,405.57236 246.51765,406.7944 247.63786,413.61353 249.74936,431.0169 250.80695,437.34503 252.09117,442.96194 253.56181,447.77606 256.76764,457.22055 258.2829,460.9239 261.4762,466.78683 263.93613,474.11688 265.05066,476.86557 267.24847,481.52942 267.97684,483.4764 268.51907,485.39713 269.10483,489.37885 269.25427,494.62485 269.1521,497.84583 268.8618,501.29187 267.7941,508.4216 266.18118,515.3062 262.5249,526.3287 260.4099,534.16724 259.2191,539.3399 258.52344,543.6407 258.24896,547.84076 258.66534,560.5015 258.8729,561.1619 263.95776,569.1496 268.4961,576.09546 274.58127,584.9608 278.38913,591.45514 285.50708,601.00977 289.35938,606.5326 291.97684,610.85455 293.27472,613.8448 295.17764,621.2894 296.53864,625.1959 297.5016,627.2585 300.062,631.69275 301.90475,635.6496 303.50717,637.7589 303.7799,638.68353 304.18564,642.606 304.3866,650.23883 304.48685,676.13196 304.71902,683.89856 304.95163,686.3464 305.31873,688.27625 307.30054,693.1812 307.62857,694.5171 307.84036,696.07825 308.01596,700.59534 307.6993,719.84827 307.49158,719.90796 303.767,714.5676 301.0806,711.4334 294.3768,704.42267 287.633,698.118 284.88962,695.8682 282.95795,694.5858 278.21606,692.6499 268.80756,689.6083 263.40115,687.4524 254.08366,682.461 240.46538,675.7062 226.4787,669.0134 217.70726,665.1024 203.75626,659.52106 197.76175,657.62964 194.45233,656.0897 191.02394,653.9293 188.48877,652.9311 184.82423,651.9615 178.65022,650.69836 177.73381,650.2579 177.01381,649.6762 175.98856,647.8014 174.4433,646.0246 172.14648,644.4301 169.70146,643.4998 167.03165,643.1382 163.84894,641.92865 159.53465,639.3703 157.15567,638.4875 155.98518,637.8169 149.48695,633.06665 147.69211,632.0109 143.17108,629.80164 138.55598,626.88983 136.2412,625.67804 125.35205,621.1463 118.64016,618.164 103.72216,610.87964 99.42626,608.97974 97.44201,608.3449 95.37593,608.0296 94.35086,607.7096 93.3082,607.1935 91.49471,605.9419 88.5946,604.88983 86.50891,604.4239 81.126595,603.6222 70.35102,602.5877 67.79073,602.14703 65.8138,601.5826 62.485664,599.78723 59.166912,598.73975 48.178505,596.4075 40.84945,595.06476 31.439032,594.217 17.390026,593.64044 1.1388861,593.2766 0.62441015,593.3802 0.20365292,593.6617 -0.08171277,594.07983 -0.19009086,594.61035 -0.18960488,998.85913 -0.08502735,999.37726 0.6232597,1000.0856 1.1414139,1000.1901 2128.4893,1000.1901 2129.0073,1000.0856 2129.7156,999.37726 2129.82,998.85913 2129.82,768.0902 2129.6804,767.47174 2128.98,766.8292 2128.487,766.7361 2126.6313,767.0365 2117.0264,769.1994 2108.6848,770.26154 2105.3337,770.9179 2102.0825,771.7317 2099.2761,772.6292 2093.3574,774.8099 2040.4022,774.8099 2002.1339,775.04767 1989.9012,775.30383 1984.7211,775.61444 1952.1727,783.12036 1948.0917,783.66125 1943.6162,783.97876 1933.4167,784.1756 1929.5881,784.4627 1926.5325,785.06665 1921.4011,786.8913 1917.126,787.44464 1909.7302,787.7056 1887.5487,787.7671 1879.4921,787.5871 1873.6425,787.2814 1867.2426,786.47864 1862.2893,786.25995 1848.4065,786.2505 1833.2472,786.7584 1826.6044,787.1807 1821.3035,787.70544 1806.479,789.5445 1800.2404,790.43506 1784.8844,793.3973 1773.7664,795.23627 1770.2185,795.67737 1764.8145,796.16547 1738.1472,797.9662 1724.833,799.4758 1715.9768,799.8252 1688.3578,800.18616 1652.2806,800.06824 1590.4515,799.05725 1582.7007,799.09155 1576.9219,799.31085 1572.6648,799.747 1569.6234,800.4109 1567.342,801.33984 1564.6833,803.07697 1563.7771,803.4658 1560.7467,804.07904 1555.6903,804.48914 1532.3455,805.49524 1501.9554,807.1041 1484.5824,807.7464 1466.4436,808.2632 1466.0552,807.94995 1464.9918,801.5707 1464.6444,797.7402 1464.3396,789.2719 1464.5703,781.31506 1464.8806,778.1978 1465.3444,775.78143 1466.7887,770.94165 1468.3693,766.40674 1470.0847,762.1883 1471.9393,758.2766 1473.9329,754.67303 1476.0222,751.43616 1478.2954,748.42645 1484.0652,741.9048 1485.1533,740.32043 1485.8738,738.88904 1486.258,737.5411 1486.3171,736.2023 1486.0394,734.8277 1485.0825,732.2354 1485.0961,730.5512 1485.5559,728.2672 1486.4941,725.3162 1489.8123,717.2859 1501.9001,691.92847 1505.9757,682.98444 1510.6136,671.84515 1517.2877,655.10803 1518.5377,651.08356 1520.0034,644.9703 1524.693,623.8438 1526.3219,617.4199 1528.4231,611.4424 1531.6344,600.74506 1535.6926,589.0274 1540.5963,572.19806 1544.7048,560.2215 1548.2673,547.8422 1550.8495,540.44775 1552.0637,536.3382 1554.4215,526.5305 1556.3262,516.32764 1557.3256,507.87177 1557.5238,502.67075 1557.3717,498.56992 1556.7782,494.54297 1554.4459,484.364 1553.7958,479.20193 1553.523,472.04373 1553.4908,461.08765 1553.7848,444.37085 1554.4835,425.5694 1555.4384,407.96997 1556.5028,394.8549 1556.8964,392.13303 1558.0431,387.28793 1559.8568,382.8739 1560.7402,379.7522 1562.9686,369.23175 1565.7079,357.7924 1568.2318,348.3168 1569.1584,345.31522 1570.3114,342.7241 1571.0281,340.67508 1572.8514,334.50348 1574.473,328.11304 1576.1134,319.29333 1583.0615,291.23062 1584.6001,285.44333 1585.36,283.2398 1586.5586,280.65573 1587.0789,278.97696 1588.4869,271.08704 1588.8552,269.74918 1590.3667,266.36554 1595.4636,250.43767 1598.5201,242.098 1599.1406,239.75885 1601.0189,229.9859 1602.3864,225.96527 1604.6655,221.27298 1611.7958,208.98775 1612.906,207.41348 1614.5343,205.53061 1618.9418,201.14531 1623.5417,197.20074 1625.5101,195.76802 1628.2344,194.22122 1630.3901,192.33838 1632.9286,189.00784 1636.174,185.6846 1639.1434,181.57693 1640.3976,180.23909 1641.7988,179.04552 1645.4954,176.8397 1649.3367,174.24135 1652.4299,172.84792 1667.3296,167.43996 1677.2517,163.09518 1681.1255,161.61755 1684.2153,160.70218 1687.296,160.24028 1688.6343,159.84058 1694.7688,157.19995 1697.9961,156.39578 1699.4316,155.78375 1707.0382,151.48941 1711.7694,149.36024 1717.2375,147.38945 1728.1887,144.1383 1730.8501,143.06316 1732.6583,142.1445 1735.388,141.17717 1745.801,138.51884 1754.6357,135.1059 1758.4971,134.10678 1760.3615,133.308 1765.2625,130.71658 1771.7861,126.98315 1806.2721,127.666504 1816.4829,128.32504 1825.0428,129.4554 1828.8656,130.24374 1832.457,131.204 1835.8743,132.35237 1839.1792,133.7058 1842.4347,135.2824 1849.0487,139.18077 1852.5378,141.54665 1860.1267,147.16267 1865.0267,151.61725 1873.0979,159.60478 1882.7866,169.55319 1896.2437,183.73354 1899.7357,186.90868 1902.7407,189.11218 1905.4479,190.46068 1907.942,190.96663 1909.1124,190.907 1911.1461,190.29227 1912.4178,189.55356 1917.313,185.37137 1920.9834,183.0569 1923.0061,181.25783 1925.7725,177.60255 1937.7953,163.58823 1943.617,157.54503 1948.661,152.83519 1951.0063,150.4291 1953.0569,148.0933 1955.6827,144.60928 1957.6774,142.45195 1962.3944,138.18121 1971.4503,130.84464 1974.5149,128.54929 1978.8048,125.82942 1980.6782,124.31865 1985.0735,120.221245 1989.164,115.875336 1992.2991,111.71868 1994.3916,110.22375 2008.5594,105.0541 2042.0988,92.14974 2047.0131,90.51984 2050.604,89.830086 2052.2754,89.32464 2060.725,85.61176 2065.7588,84.21321 2072.163,83.25853 2081.0535,82.50846 2106.4783,80.77394 2124.7434,79.29029 2128.6436,78.8324 2129.483,78.39512 2129.8196,77.510414 2129.8196,1.1408732 2129.715,0.6227191 2129.0068,-0.08556801 2128.4885,-0.19014554 Z " />
</g></svg>