<?xml version="1.0" encoding="UTF-8" standalone="no"?>
<!-- Created with Inkscape (http://www.inkscape.org/) -->

<svg
   width="210mm"
   height="297mm"
   viewBox="0 0 210 297"
   version="1.1"
   id="svg2965"
   inkscape:version="1.2.1 (9c6d41e410, 2022-07-14)"
   sodipodi:docname="typed-103.svg"
   xmlns:inkscape="http://www.inkscape.org/namespaces/inkscape"
   xmlns:sodipodi="http://sodipodi.sourceforge.net/DTD/sodipodi-0.dtd"
   xmlns="http://www.w3.org/2000/svg"
   xmlns:svg="http://www.w3.org/2000/svg">
  <sodipodi:namedview
     id="namedview2967"
     pagecolor="#ffffff"
     bordercolor="#666666"
     borderopacity="1.0"
     inkscape:showpageshadow="2"
     inkscape:pageopacity="0.0"
     inkscape:pagecheckerboard="0"
     inkscape:deskcolor="#d1d1d1"
     inkscape:document-units="mm"
     showgrid="false"
     inkscape:zoom="0.69753788"
     inkscape:cx="396.39424"
     inkscape:cy="360.5539"
     inkscape:window-width="1920"
     inkscape:window-height="1027"
     inkscape:window-x="-8"
     inkscape:window-y="-8"
     inkscape:window-maximized="1"
     inkscape:current-layer="layer1" />
  <defs
     id="defs2962" />
  <g
     inkscape:label="Layer 1"
     inkscape:groupmode="layer"
     id="layer1">
    <g
       aria-label="103"
       id="text3334"
       style="font-size:139.7px;font-family:LCDMono2;-inkscape-font-specification:LCDMono2;letter-spacing:7.9375px;word-spacing:0px;fill:none;stroke:#000000;stroke-width:0.264583px">
      <g
         id="path3336">
        <path
           style="color:#000000;-inkscape-font-specification:'ELYs LCD';fill:#000000;stroke:none;-inkscape-stroke:none"
           d="m 28.068356,114.35714 -8.2423,7.1247 -6.146799,-7.1247 4.470399,-32.270703 8.2423,-7.264399 6.1468,7.264399 z m 6.8453,-48.755302 -8.2423,7.2644 -6.1468,-7.2644 4.4704,-32.2707 8.2423,-7.124699 6.1468,7.124699 z"
           id="path3345" />
        <path
           style="color:#000000;-inkscape-font-specification:'ELYs LCD';fill:#000000;stroke:none;-inkscape-stroke:none"
           d="m 33.25,26.019531 -8.378906,7.244141 -4.486328,32.378906 6.273437,7.412109 8.378906,-7.386718 0.0078,-0.04883 4.478515,-32.330079 z m -0.02734,0.375 6.021485,6.978516 -4.453125,32.160156 -8.105469,7.146484 -6.021485,-7.11914 4.455079,-32.16211 z m -6.816406,48.238281 -8.380859,7.386719 -4.486328,32.378909 6.273437,7.26953 8.380859,-7.24414 0.0059,-0.0488 4.478515,-32.328125 z m -0.0293,0.376954 6.023438,7.117187 -4.457032,32.164067 -8.103515,7.0039 -6.021485,-6.97851 4.455078,-32.164066 z"
           id="path3347" />
      </g>
      <g
         id="path3338">
        <path
           style="color:#000000;-inkscape-font-specification:'ELYs LCD';fill:#000000;stroke:none;-inkscape-stroke:none"
           d="m 67.8574,65.601838 -8.2423,7.2644 -6.1468,-7.2644 4.4704,-32.2707 8.2423,-7.124699 6.1468,7.124699 z m -6.8453,48.755302 -8.2423,7.1247 -6.146799,-7.1247 4.4704,-32.270703 8.242299,-7.264399 6.1468,7.264399 z m 40.513,8.2423 -8.2423,7.1247 H 59.8945 l -6.2865,-7.1247 8.2423,-7.2644 h 33.528 z m 9.3599,-8.2423 -8.2423,7.1247 -6.1468,-7.1247 4.4704,-32.270703 8.2423,-7.264399 6.1468,7.264399 z m 6.8453,-48.755302 -8.2423,7.2644 -6.1468,-7.2644 4.4704,-32.2707 8.2423,-7.124699 6.1468,7.124699 z m -2.5146,-40.512999 -8.2423,7.264399 H 73.5851 l -6.2865,-7.264399 8.2423,-7.1247 h 33.528 z"
           id="path3351" />
        <path
           style="color:#000000;-inkscape-font-specification:'ELYs LCD';fill:#000000;stroke:none;-inkscape-stroke:none"
           d="m 75.492187,17.832031 -8.380859,7.244141 6.414063,7.410156 h 33.498049 l 8.3789,-7.384766 -0.0859,-0.09961 -6.1875,-7.169922 z m 0.09766,0.263672 h 33.417966 l 6.02149,6.982422 -8.10547,7.142578 H 73.646484 l -6.160156,-7.119141 z m -9.394532,7.923828 -8.380859,7.244141 -4.484375,32.378906 6.271484,7.412109 8.38086,-7.386718 0.0059,-0.04883 4.478516,-32.330079 z m 49.873048,0 -8.38086,7.244141 -4.48633,32.378906 6.27344,7.412109 8.38086,-7.386718 0.006,-0.04883 4.47851,-32.330079 z m -49.902344,0.375 6.023437,6.978516 -4.455078,32.160156 -8.105469,7.144531 -6.021484,-7.117187 4.455078,-32.16211 z m 49.873044,0 6.02149,6.978516 -4.45313,32.160156 -8.10547,7.144531 -6.02148,-7.117187 4.45508,-32.16211 z m -56.689451,48.238281 -8.380859,7.386719 -4.484375,32.378909 6.271484,7.26953 8.38086,-7.24414 0.0059,-0.0488 4.478516,-32.328125 z m 49.873051,0 -8.38086,7.386719 -4.484378,32.378909 6.271488,7.26953 8.38086,-7.24414 0.006,-0.0488 4.47851,-32.328125 z m -49.900394,0.378907 6.021484,7.115234 -4.457031,32.164067 -8.103516,7.0039 -6.021484,-6.97851 4.455078,-32.164066 z m 49.873044,0 6.02149,7.115234 -4.45703,32.164067 -8.10352,7.0039 -6.021484,-6.97851 4.455074,-32.164066 z m -47.394529,40.191411 -8.378906,7.38476 6.412109,7.26758 h 33.498047 l 8.378909,-7.24219 -0.084,-0.0996 -6.187497,-7.31054 z m 0.09961,0.26367 h 33.416015 l 6.023434,7.11914 -8.105465,7.00586 H 59.955078 l -6.160156,-6.98047 z"
           id="path3353" />
      </g>
      <g
         id="path3340">
        <path
           style="color:#000000;-inkscape-font-specification:'ELYs LCD';fill:#000000;stroke:none;-inkscape-stroke:none"
           d="m 196.91474,65.601838 -8.2423,7.2644 -6.1468,-7.2644 4.6101,-32.2707 8.1026,-7.124699 6.2865,7.124699 z m -2.5146,-40.512999 -8.2423,7.264399 h -37.5793 l -6.1468,-7.264399 8.2423,-7.1247 h 37.5793 z m -6.8453,48.755299 -8.2423,7.264399 h -29.4767 l -6.1468,-7.264399 8.1026,-7.1247 h 29.6164 z m 2.5146,40.513002 -8.2423,7.1247 -6.1468,-7.1247 4.6101,-32.270703 8.1026,-7.264399 6.2865,7.264399 z m -9.3599,8.2423 -8.2423,7.1247 h -37.4396 l -6.2865,-7.1247 8.2423,-7.2644 h 37.5793 z"
           id="path3357" />
        <path
           style="color:#000000;-inkscape-font-specification:'ELYs LCD';fill:#000000;stroke:none;-inkscape-stroke:none"
           d="m 150.625,17.832031 -8.37891,7.242188 6.27149,7.412109 h 37.68945 l 8.37891,-7.384766 -0.0859,-0.09961 -6.18555,-7.169922 z m 0.0977,0.263672 h 37.4707 l 6.02148,6.980469 -8.10742,7.144531 h -37.4668 l -6.02343,-7.117187 z m 44.52734,7.923828 -8.23828,7.244141 -4.625,32.378906 6.27148,7.412109 8.38086,-7.386718 0.006,-0.04687 4.61914,-32.332032 z m -0.0234,0.373047 6.15821,6.980469 -4.59375,32.162109 -8.10352,7.144531 -6.02344,-7.117187 4.59571,-32.164063 z m -43.48437,40.195313 -8.23828,7.242187 6.27148,7.410156 h 29.58789 l 8.37695,-7.382812 -0.0859,-0.09961 -6.18555,-7.169921 z m 0.0996,0.263671 h 29.50586 l 6.02148,6.978516 -8.10742,7.146484 h -29.36524 l -6.02343,-7.11914 z m 36.5625,7.78125 -8.23828,7.386719 -4.625,32.378909 6.27148,7.26953 8.38086,-7.24219 0.008,-0.0508 4.61719,-32.330078 z m -0.0234,0.376954 6.16016,7.117187 -4.59375,32.162107 -8.10547,7.00391 -6.02149,-6.97656 4.59375,-32.164066 z m -51.44727,40.193364 -8.3789,7.38476 6.41406,7.26758 h 37.54687 l 8.37891,-7.24219 -0.084,-0.0996 -6.18555,-7.31054 z m 0.0996,0.26367 h 37.46875 l 6.02344,7.11914 -8.10742,7.00586 h -37.33008 l -6.16016,-6.98047 z"
           id="path3359" />
      </g>
    </g>
  </g>
</svg>
