<?xml version="1.0" encoding="UTF-8"?>
<!DOCTYPE svg PUBLIC "-//W3C//DTD SVG 1.0//EN" "http://www.w3.org/TR/2001/REC-SVG-20010904/DTD/svg10.dtd">
<svg shape-rendering="geometricPrecision" text-rendering="geometricPrecision" image-rendering="optimizeQuality" fill-rule="evenodd" xml:space="preserve" 
 xmlns="http://www.w3.org/2000/svg" xmlns:xlink="http://www.w3.org/1999/xlink"  viewBox="0 0 1186.3819090276957 1000.2118650823832" width="118.63819090276957mm" height="100.02118650823832mm" >
<g><path fill="#000000" d="M500.63535,-0.10590805 L500.34674,-0.047660027 500.11108,0.11119971 499.95224,0.34684464 499.894,0.6354483 499.894,58.203564 499.69284,58.40473 372.97586,58.40473 372.68723,58.462982 372.4516,58.621845 372.29276,58.857487 372.2345,59.146088 372.2345,121.70493 372.29276,121.993546 372.4516,122.22919 372.68723,122.38805 372.97586,122.44629 807.8751,122.44629 808.16376,122.38805 808.3994,122.22919 808.5582,121.993546 808.61646,121.70493 808.61646,59.146088 808.5582,58.857487 808.3994,58.621845 808.16376,58.462982 807.8751,58.40473 686.4772,58.40473 686.27606,58.203564 686.27606,0.6354483 686.2178,0.34684464 686.05896,0.11119971 685.8233,-0.047660027 685.53467,-0.10590805 Z M309.14606,122.23451 L308.85745,122.292755 308.62183,122.451614 308.46295,122.687256 308.4047,122.97587 308.4047,185.5347 308.46295,185.8233 308.62183,186.05896 308.85745,186.21782 309.14606,186.27606 371.70496,186.27606 371.99356,186.21782 372.2292,186.05896 372.38806,185.8233 372.44632,185.5347 372.44632,122.97587 372.38806,122.687256 372.2292,122.451614 371.99356,122.292755 371.70496,122.23451 Z M809.146,122.23451 L808.8574,122.292755 808.62177,122.451614 808.4629,122.687256 808.40466,122.97587 808.40466,185.5347 808.4629,185.8233 808.62177,186.05896 808.8574,186.21782 809.146,186.27606 871.70496,186.27606 871.9936,186.21782 872.2292,186.05896 872.38806,185.8233 872.4463,185.5347 872.4463,122.97587 872.38806,122.687256 872.2292,122.451614 871.9936,122.292755 871.70496,122.23451 Z M250.63545,186.0643 L250.34685,186.12253 250.11122,186.2814 249.95235,186.51704 249.8941,186.80565 249.8941,307.87512 249.95235,308.16376 250.11122,308.39938 250.34685,308.55823 250.63545,308.6165 307.87515,308.6165 308.16376,308.55823 308.3994,308.39938 308.55826,308.16376 308.61652,307.87512 308.61652,186.80565 308.55826,186.51704 308.3994,186.2814 308.16376,186.12253 307.87515,186.0643 Z M872.9758,186.0643 L872.6872,186.12253 872.4516,186.2814 872.2927,186.51704 872.2345,186.80565 872.2345,307.87512 872.2927,308.16376 872.4516,308.39938 872.6872,308.55823 872.9758,308.6165 935.5347,308.6165 935.82336,308.55823 936.05896,308.39938 936.21783,308.16376 936.27606,307.87512 936.27606,186.80565 936.21783,186.51704 936.05896,186.2814 935.82336,186.12253 935.5347,186.0643 Z M191.18228,750.10583 L191.38344,750.307 191.38344,813.52264 191.18228,813.7238 64.136856,813.7238 63.935688,813.52264 63.935688,750.307 64.136856,750.10583 Z M377.35248,750.10583 L377.55362,750.307 377.55362,813.52264 377.35248,813.7238 250.30708,813.7238 250.10591,813.52264 250.10591,750.307 250.30708,750.10583 Z M563.52264,750.10583 L563.7238,750.307 563.7238,813.52264 563.52264,813.7238 441.79642,813.7238 441.59525,813.52264 441.59525,750.307 441.79642,750.10583 Z M749.6929,750.10583 L749.89404,750.307 749.89404,813.52264 749.6929,813.7238 627.96655,813.7238 627.7654,813.52264 627.7654,750.307 627.96655,750.10583 Z M941.18207,750.10583 L941.38336,750.30707 941.38336,813.5226 941.18207,813.7238 814.1368,813.7238 813.9356,813.52264 813.9356,750.307 814.1368,750.10583 Z M1122.0331,750.10583 L1122.2344,750.30707 1122.2344,813.5226 1122.0331,813.7238 1005.6263,813.7238 1005.42505,813.5226 1005.42505,750.30707 1005.6263,750.10583 Z M500.63535,249.89403 L500.34674,249.95227 500.11108,250.11115 499.95224,250.34677 499.894,250.63538 499.894,307.87512 499.95224,308.16376 500.11108,308.39938 500.34674,308.55823 500.63535,308.6165 558.2035,308.6165 558.40466,308.81766 558.40466,372.03326 558.2035,372.2344 500.30698,372.2344 500.1058,372.03326 500.1058,309.14603 500.04758,308.85742 499.88873,308.6218 499.65308,308.46292 499.36447,308.40466 436.8056,308.40466 436.51697,308.46292 436.2813,308.6218 436.12247,308.85742 436.06424,309.14603 436.06424,435.5347 436.12247,435.8233 436.2813,436.05896 436.51697,436.21783 436.8056,436.27606 499.69284,436.27606 499.894,436.4772 499.894,499.3645 499.95224,499.65314 500.11108,499.8888 500.34674,500.04764 500.63535,500.10587 558.2035,500.10587 558.40466,500.30704 558.40466,558.2035 558.2035,558.40466 250.30708,558.40466 250.10591,558.2035 250.10591,309.1461 250.04765,308.85748 249.8888,308.62186 249.65317,308.46298 249.36456,308.40472 186.80566,308.40472 186.51706,308.46298 186.2814,308.62186 186.12254,308.85748 186.0643,309.1461 186.0643,622.0333 185.86314,622.2345 59.146084,622.2345 58.85748,622.2927 58.621838,622.4516 58.462975,622.68726 58.404728,622.9758 58.404728,685.8631 58.203556,686.0643 0.6354483,686.0643 0.34684464,686.1225 0.11119971,686.2814 -0.047660027,686.517 -0.10590805,686.8056 -0.10590805,871.70496 -0.047660027,871.9936 0.11119971,872.2292 0.34684464,872.38806 0.6354483,872.4463 58.203506,872.4463 58.404728,872.6476 58.404728,935.5347 58.462975,935.82336 58.621838,936.05896 58.85748,936.21783 59.146084,936.27606 185.8631,936.27606 186.0643,936.47723 186.0643,999.36456 186.12254,999.65326 186.2814,999.88885 186.51706,1000.0477 186.80566,1000.10596 999.36456,1000.10596 999.65326,1000.0477 999.88885,999.88885 1000.0477,999.65326 1000.10596,999.36456 1000.10596,936.47736 1000.3072,936.27606 1121.7048,936.27606 1121.9935,936.21783 1122.2291,936.05896 1122.388,935.82336 1122.4462,935.5347 1122.4462,872.6476 1122.6475,872.4463 1185.5347,872.4463 1185.8234,872.38806 1186.059,872.2292 1186.2178,871.9936 1186.276,871.70496 1186.276,686.8056 1186.2178,686.517 1186.059,686.2814 1185.8234,686.1225 1185.5347,686.0643 1122.6475,686.0643 1122.4462,685.86304 1122.4462,622.9758 1122.388,622.68726 1122.2291,622.4516 1121.9935,622.2927 1121.7048,622.2345 1000.30707,622.2345 1000.10596,622.03326 1000.10596,309.1461 1000.0477,308.85748 999.88885,308.62186 999.65326,308.46298 999.36456,308.40472 936.8056,308.40472 936.51697,308.46298 936.2813,308.62186 936.1225,308.85748 936.0643,309.1461 936.0643,558.2035 935.8631,558.40466 622.6474,558.40466 622.4463,558.2035 622.4463,500.30704 622.6474,500.10587 685.53467,500.10587 685.8233,500.04764 686.05896,499.8888 686.2178,499.65314 686.27606,499.3645 686.27606,436.4772 686.4772,436.27606 749.3645,436.27606 749.6531,436.21783 749.88873,436.05896 750.0476,435.8233 750.10583,435.5347 750.10583,309.14603 750.0476,308.85742 749.88873,308.6218 749.6531,308.46292 749.3645,308.40466 686.80554,308.40466 686.51697,308.46292 686.2813,308.6218 686.12244,308.85742 686.0642,309.14603 686.0642,372.03326 685.86304,372.2344 622.6474,372.2344 622.4463,372.03326 622.4463,308.81766 622.6474,308.6165 685.53467,308.6165 685.8233,308.55823 686.05896,308.39938 686.2178,308.16376 686.27606,307.87512 686.27606,250.63538 686.2178,250.34677 686.05896,250.11115 685.8233,249.95227 685.53467,249.89403 Z " />
</g></svg>