<?xml version="1.0" encoding="UTF-8" standalone="no"?>
<!-- Created with Inkscape (http://www.inkscape.org/) -->

<svg
   xmlns:dc="http://purl.org/dc/elements/1.1/"
   xmlns:cc="http://creativecommons.org/ns#"
   xmlns:rdf="http://www.w3.org/1999/02/22-rdf-syntax-ns#"
   xmlns:svg="http://www.w3.org/2000/svg"
   xmlns="http://www.w3.org/2000/svg"
   xmlns:sodipodi="http://sodipodi.sourceforge.net/DTD/sodipodi-0.dtd"
   xmlns:inkscape="http://www.inkscape.org/namespaces/inkscape"
   width="650"
   height="550"
   id="svg2"
   version="1.1"
   inkscape:version="0.48.1 "
   sodipodi:docname="alienfetus-org.svg">
  <defs
     id="defs4" />
  <sodipodi:namedview
     id="base"
     pagecolor="#ffffff"
     bordercolor="#666666"
     borderopacity="1.0"
     inkscape:pageopacity="0.0"
     inkscape:pageshadow="2"
     inkscape:zoom="1"
     inkscape:cx="399.55698"
     inkscape:cy="210.3679"
     inkscape:document-units="px"
     inkscape:current-layer="layer1"
     showgrid="false"
     inkscape:window-width="1280"
     inkscape:window-height="977"
     inkscape:window-x="-4"
     inkscape:window-y="-4"
     inkscape:window-maximized="1"
     units="px"
     showborder="true"
     inkscape:snap-center="true"
     inkscape:showpageshadow="true"
     width="744px" />
  <metadata
     id="metadata7">
    <rdf:RDF>
      <cc:Work
         rdf:about="">
        <dc:format>image/svg+xml</dc:format>
        <dc:type
           rdf:resource="http://purl.org/dc/dcmitype/StillImage" />
        <dc:title></dc:title>
      </cc:Work>
    </rdf:RDF>
  </metadata>
  <g
     inkscape:label="Layer 1"
     inkscape:groupmode="layer"
     id="layer1"
     transform="translate(0,-502.35997)">
    <g
       id="1"
       transform="translate(0,62.36)" />
    <g
       id="1-1"
       transform="translate(0,62.36)" />
    <path
       style="fill:#000000"
       d="m 353.24566,1024.912 c -5.445,0.1134 -11.385,-0.017 -13.2,-0.2892 -1.815,-0.2726 -5.73,-0.8047 -8.7,-1.1825 -2.97,-0.3779 -7.02,-0.9783 -9,-1.3342 -1.98,-0.356 -5.49,-1.0494 -7.8,-1.541 -2.31,-0.4915 -5.82,-1.1442 -7.8,-1.4503 -1.98,-0.3062 -5.42154,-0.8015 -7.64778,-1.1007 -2.2263,-0.2991 -4.31484,-0.709 -4.6413,-0.9107 -0.32646,-0.2018 -2.01498,-0.6042 -3.75222,-0.8943 -1.7373,-0.29 -5.5887,-0.9685 -8.5587,-1.5078 -2.97,-0.5392 -8.1,-1.3479 -11.4,-1.7969 -3.3,-0.449 -12.345,-2.0658 -20.1,-3.5929 -7.755,-1.527 -14.775,-3.0125 -15.6,-3.301 -0.825,-0.2886 -3.66,-1.344 -6.3,-2.3454 -2.64,-1.0014 -7.365,-2.8018 -10.5,-4.00084 -3.135,-1.1991 -9.21,-3.66828 -13.5,-5.48712 -4.29,-1.81878 -10.56942,-4.62846 -13.95426,-6.24372 -3.38484,-1.61526 -6.28818,-2.93682 -6.45192,-2.93682 -0.16374,0 -5.08932,-2.3805 -10.94574,-5.29002 -5.85648,-2.90952 -13.61808,-6.87048 -17.24808,-8.80212 -3.63,-1.93164 -9.975,-5.63466 -14.1,-8.22888 -4.125,-2.59422 -9.63918,-6.39576 -12.25368,-8.44788 -2.6145,-2.05212 -5.0445,-4.00338 -5.4,-4.3362 -0.3555,-0.33282 -2.6574,-2.35782 -5.11536,-4.5 -2.45796,-2.14218 -6.20724,-5.6499 -8.33172,-7.7949 -2.12442,-2.145 -6.9495,-7.545 -10.7223,-12 -3.772803,-4.455 -8.384883,-10.395 -10.249023,-13.2 -1.86408,-2.805 -3.83622,-5.91 -4.38252,-6.9 -0.54624,-0.99 -1.7832,-3.15 -2.74872,-4.8 -0.96558,-1.65 -2.12508,-3.945 -2.5767,-5.1 -0.45162,-1.155 -1.04364,-2.39502 -1.31562,-2.75556 -0.27204,-0.36054 -1.5546,-3.46554 -2.85018,-6.9 -1.29558,-3.43446 -4.11804,-10.06914 -6.2721,-14.74374 -2.15406,-4.6746 -5.4162,-11.65476 -7.24926,-15.51144 -1.83306,-3.85668 -3.33282,-7.13202 -3.33282,-7.27848 0,-0.14646 -0.96912,-2.3463 -2.15358,-4.8885 -1.18445,-2.54226 -2.50805,-5.43228 -2.94131,-6.42228 -0.43326,-0.99 -1.46112,-3.285 -2.2842,-5.1 -0.82302,-1.815 -2.17284,-4.92 -2.99952,-6.9 -0.82668,-1.98 -2.34876,-6.10836 -3.38238,-9.17418 -1.03356,-3.06582 -2.13156,-6.84582 -2.4399,-8.4 -0.3084,-1.55418 -0.71208,-3.50082 -0.89712,-4.32582 -0.18504,-0.825 -0.71868,-3.66 -1.18584,-6.3 -0.4671,-2.64 -1.02048,-6.285 -1.2297,-8.1 -0.20916,-1.815 -0.37968,-8.025 -0.3789,-13.8 0,-5.775 0.27894,-12.255 0.61812,-14.4 0.33924,-2.145 0.8985,-5.52 1.24278,-7.5 0.34428,-1.98 0.73716,-4.14 0.87306,-4.8 0.1359,-0.66 0.6822,-3.09 1.21398,-5.4 0.53178,-2.31 1.67226,-6.225 2.5344,-8.7 0.86214,-2.475 2.47488,-6.70674 3.5838,-9.40386 1.10892,-2.69712 2.87568,-6.47712 3.9261,-8.4 1.05048,-1.92288 2.40042,-4.30614 2.99988,-5.29614 0.59951,-0.99 1.27949,-2.205 1.51109,-2.7 0.2316,-0.495 1.67478,-2.79 3.20712,-5.1 1.53228,-2.31 4.18488,-6.83142 5.89464,-10.04766 1.70976,-3.21624 4.27182,-7.67124 5.6934,-9.9 1.42164,-2.22876 2.94294,-4.99734 3.3807,-6.15234 0.4377,-1.155 1.61382,-3.585 2.61348,-5.4 0.99972,-1.81499 2.40294,-4.10999 3.11826,-5.09999 0.71538,-0.99 1.76418,-2.99747 2.3307,-4.46104 0.56652,-1.46358 2.11806,-4.21209 3.44784,-6.10781 1.32978,-1.89573 2.78988,-3.58956 3.24474,-3.7641 0.4548,-0.17453 2.859,-3.04778 5.34264,-6.385 2.48364,-3.33722 4.515723,-6.32118 4.515723,-6.63103 0,-0.30985 1.67106,-3.01987 3.71352,-6.02228 2.21376,-3.25429 6.87912,-8.64329 11.55192,-13.34382 4.31112,-4.33671 9.05256,-8.82574 10.53648,-9.97564 1.48392,-1.14989 2.96808,-2.41184 3.29808,-2.80431 0.33,-0.39247 1.44042,-1.20665 2.46762,-1.80928 1.02714,-0.60262 3.50982,-2.24319 5.51706,-3.64569 2.00718,-1.4025 3.78534,-2.55 3.95148,-2.55 0.16608,0 0.95958,-0.60943 1.76334,-1.3543 0.8037,-0.74486 2.50512,-1.71623 3.7809,-2.15859 1.27578,-0.44235 3.73296,-1.72292 5.46036,-2.8457 1.7274,-1.12277 3.29238,-2.04141 3.47772,-2.04141 0.18534,0 2.28198,-0.90525 4.65924,-2.01166 2.37726,-1.10641 6.54696,-2.74764 9.26604,-3.64719 2.71902,-0.89954 5.08434,-1.86306 5.25624,-2.14115 0.17184,-0.27808 2.53716,-1.22298 5.25624,-2.09977 2.71908,-0.8768 5.88876,-2.01903 7.04376,-2.53831 1.155,-0.51928 2.81664,-1.30814 3.69258,-1.75303 0.87588,-0.44488 1.99032,-0.80889 2.4765,-0.80889 0.48618,0 1.2072,-0.38944 1.60224,-0.86544 0.39504,-0.47599 3.19626,-1.69099 6.22494,-2.7 3.02868,-1.009 5.95026,-1.83456 6.49236,-1.83456 0.54216,0 2.84652,-0.79183 5.12082,-1.75964 2.2743,-0.96781 7.77006,-2.97259 12.21282,-4.45509 4.44276,-1.48249 11.18274,-3.48932 14.97774,-4.45961 3.795,-0.97028 8.79,-2.18957 11.1,-2.70953 2.31,-0.51996 6.765,-1.37869 9.9,-1.90829 3.135,-0.5296 7.185,-1.22012 9,-1.53448 1.815,-0.31436 8.025,-0.99521 13.8,-1.51299 6.70416,-0.6011 16.8987,-0.93776 28.2,-0.93127 9.735,0.005 20.4,0.29329 23.7,0.63934 3.3,0.34605 8.835,1.01434 12.3,1.4851 3.465,0.47076 12.375,1.17788 19.8,1.57139 8.45712,0.44821 21.5685,0.58765 35.1,0.3733 11.88,-0.1882 29.025,-0.526 38.1,-0.75069 14.10456,-0.3492 17.45814,-0.2577 23.1,0.63032 3.63,0.57135 9.165,1.69961 12.3,2.50725 3.135,0.80763 7.64214,2.11592 10.01592,2.9073 2.37378,0.79139 6.69378,2.45452 9.6,3.69585 2.90622,1.24133 7.81722,3.55602 10.91328,5.14377 3.096,1.58775 8.496,4.65751 12,6.82169 3.50394,2.16418 9.8808,6.19348 14.1708,8.95399 4.29,2.76051 8.61,5.58434 9.6,6.27516 0.99,0.69083 3.96,2.68093 6.6,4.42244 2.64,1.74152 6.59412,5.04027 8.78694,7.33054 2.19282,2.29029 5.18106,5.64915 6.6405,7.46415 1.45938,1.815 5.3139,7.755 8.56554,13.2 3.25164,5.445 6.5409,10.66322 7.30956,11.59604 0.7686,0.93282 1.39746,2.19939 1.39746,2.81459 0,0.6152 0.23598,1.26442 0.52446,1.4427 0.28848,0.17828 1.74348,2.82672 3.23328,5.88541 1.48986,3.05869 3.38952,7.04626 4.22142,8.86126 0.83196,1.815 1.9773,4.785 2.5452,6.6 0.5679,1.815 1.3938,3.975 1.83528,4.8 0.44154,0.825 1.45524,3.12 2.25278,5.09999 0.79752,1.98 1.63686,4.545 1.86528,5.7 0.22842,1.155 1.74594,6.15 3.37224,11.1 1.6263,4.95 3.21048,9.81 3.52038,10.8 0.3099,0.99 1.36668,5.445 2.34846,9.9 0.98178,4.455 2.19924,10.665 2.7054,13.8 0.50616,3.135 1.2072,7.995 1.55784,10.8 0.35058,2.805 0.76386,6.45 0.91836,8.1 0.1545,1.65 0.28074,10.29 0.28056,19.2 -2.4e-4,8.91 -0.13584,17.685 -0.30144,19.5 -0.16554,1.815 -0.70068,5.865 -1.1892,9 -0.48852,3.135 -1.40166,7.725 -2.0292,10.2 -0.62754,2.475 -1.68432,6.255 -2.34846,8.4 -0.66414,2.145 -2.08038,6.33 -3.14724,9.3 -1.0668,2.97 -2.3271,6.48 -2.80062,7.8 -0.47352,1.32 -2.75472,6.855 -5.06934,12.3 -2.31464,5.445 -7.03142,15.63144 -10.48178,22.63656 -3.4503,7.00512 -8.32482,16.45512 -10.83228,21 -2.5074,4.54488 -7.13652,12.58344 -10.28694,17.86344 -3.15042,5.28 -8.75778,14.11998 -12.46092,19.64436 -3.70308,5.52438 -7.30614,10.78938 -8.0067,11.7 -0.70062,0.91062 -3.65958,4.76064 -6.57558,8.55564 -2.91594,3.795 -8.10288,9.7539 -11.52648,13.24206 -3.42366,3.4881 -8.51976,8.23452 -11.32476,10.54758 -2.805,2.31312 -7.31958,5.8485 -10.03242,7.8564 -2.71284,2.00796 -7.97784,5.53548 -11.7,7.83894 -3.72216,2.3034 -7.84758,4.79412 -9.16758,5.53488 -1.32,0.7407 -5.26722,2.92926 -8.77158,4.86348 -3.5043,1.93416 -6.53322,3.51666 -6.73092,3.51666 -0.19764,0 -2.59548,1.09782 -5.32848,2.43966 -2.73294,1.34178 -9.47136,4.31658 -14.97414,6.61064 -5.50284,2.294 -11.57784,4.6918 -13.5,5.3283 -1.92222,0.6365 -6.59988,2.2075 -10.39488,3.491 -3.795,1.2835 -9.195,3.0187 -12,3.8559 -2.805,0.8373 -6.855,1.9937 -9,2.5699 -2.145,0.5763 -5.115,1.3982 -6.6,1.8263 -1.485,0.4282 -4.185,1.0966 -6,1.4854 -1.815,0.3888 -4.65,1.0713 -6.3,1.5167 -1.65,0.4453 -5.025,1.2075 -7.5,1.6937 -2.475,0.4861 -6.66,1.2007 -9.3,1.5877 -2.64,0.3871 -9.255,0.7967 -14.7,0.9102 z m -0.3,-10.6015 c 0.99,0.045 6.10632,-0.1928 11.36958,-0.5286 6.25944,-0.3993 11.75928,-1.1338 15.9,-2.1234 3.48174,-0.8321 11.05542,-2.707 16.83042,-4.1665 5.775,-1.4595 16.17,-4.5289 23.1,-6.8209 6.93,-2.29204 13.95,-4.69402 15.6,-5.33764 1.65,-0.64368 5.43,-2.17398 8.4,-3.40062 2.97,-1.22664 11.34,-5.16126 18.6,-8.74356 7.26,-3.5823 16.71,-8.63028 21,-11.21772 4.29,-2.58744 10.77,-6.83526 14.4,-9.43962 3.63,-2.6043 8.76,-6.5556 11.4,-8.78064 2.64,-2.2251 6.70404,-5.8926 9.0312,-8.1501 2.3271,-2.25756 5.88192,-6.1296 7.89948,-8.6046 2.01762,-2.475 6.45858,-8.33184 9.8688,-13.0152 3.41028,-4.68336 8.22552,-11.66646 10.70052,-15.51798 2.475,-3.85152 5.04678,-7.98468 5.71506,-9.1848 0.66828,-1.20012 1.64016,-2.85702 2.15982,-3.68202 0.51966,-0.825 2.44314,-4.065 4.27446,-7.2 1.83132,-3.135 3.85278,-6.645 4.49214,-7.8 0.63936,-1.155 2.05884,-3.71388 3.15444,-5.68638 1.09554,-1.9725 4.5051,-8.53008 7.5768,-14.57232 3.0717,-6.0423 5.66196,-11.44842 5.7561,-12.01362 0.0941,-0.5652 0.462,-1.29768 0.8175,-1.62768 0.3555,-0.33 2.96316,-6.135 5.7948,-12.9 2.83158,-6.765 5.8329,-14.19 6.66948,-16.5 0.83658,-2.31 2.30592,-6.63 3.26516,-9.6 0.95928,-2.97 2.1786,-7.02 2.70972,-9 0.53112,-1.98 1.2381,-5.355 1.5711,-7.5 0.333,-2.145 0.97884,-6.465 1.4352,-9.6 0.59442,-4.08342 0.77676,-10.4646 0.6429,-22.5 -0.10272,-9.24 -0.29772,-17.745 -0.43326,-18.9 -0.13548,-1.155 -0.42972,-3.72 -0.65376,-5.7 -0.22404,-1.98 -0.6645,-5.355 -0.97884,-7.5 -0.31434,-2.145 -0.70734,-4.98 -0.87342,-6.3 -0.16608,-1.32 -0.39324,-2.805 -0.50484,-3.3 -0.1116,-0.495 -0.37458,-1.575 -0.58434,-2.4 -0.20982,-0.825 -1.07244,-4.44186 -1.91694,-8.03748 -0.84452,-3.59562 -2.03234,-8.05062 -2.6396,-9.9 -0.60726,-1.84938 -1.83354,-5.79252 -2.72508,-8.76252 -0.89148,-2.97 -2.10414,-6.48 -2.69472,-7.8 -0.59052,-1.32 -1.68378,-4.29 -2.4294,-6.6 -0.74562,-2.31 -1.96866,-5.68499 -2.71794,-7.49999 -0.74922,-1.815 -2.04114,-5.325 -2.87088,-7.8 -0.82974,-2.475 -2.37912,-6.255 -3.44304,-8.4 -1.06392,-2.145 -3.51714,-6.24084 -5.45154,-9.10188 -1.9344,-2.86102 -3.51708,-5.37984 -3.51708,-5.59737 0,-0.21752 -2.3175,-4.22167 -5.14998,-8.89812 -2.83254,-4.67644 -6.38214,-10.08213 -7.88802,-12.01262 -1.50594,-1.9305 -3.84594,-4.30237 -5.20002,-5.27081 -1.35408,-0.96846 -2.86698,-2.09418 -3.36198,-2.50163 -0.495,-0.40743 -1.97622,-1.41057 -3.29154,-2.22918 -1.31532,-0.81861 -2.93532,-1.82157 -3.6,-2.2288 -0.66468,-0.40722 -1.68096,-0.91121 -2.25846,-1.11998 -0.5775,-0.20876 -1.05,-0.57556 -1.05,-0.8151 0,-0.23955 -1.00812,-0.95056 -2.24022,-1.58002 -1.23216,-0.62947 -4.80966,-2.87792 -7.95,-4.99655 -3.1404,-2.11863 -5.84478,-4.02289 -6.00978,-4.23167 -0.165,-0.20879 -1.37622,-1.04036 -2.69154,-1.84793 -1.31532,-0.80759 -2.93532,-1.79525 -3.6,-2.1948 -0.66468,-0.39956 -1.61346,-0.91986 -2.10846,-1.15623 -0.495,-0.23638 -1.035,-0.62271 -1.2,-0.85851 -0.165,-0.23581 -4.485,-2.45784 -9.6,-4.93786 -5.115,-2.48001 -11.055,-5.1901 -13.2,-6.0224 -2.145,-0.83231 -6.195,-2.20003 -9,-3.03938 -2.805,-0.83935 -6.99,-1.91078 -9.3,-2.38095 -2.31,-0.47018 -7.98,-1.32188 -12.6,-1.89268 -7.68654,-0.94968 -9.75048,-0.96766 -24.3,-0.21167 -9.36732,0.48672 -27.97932,0.81357 -45.3,0.79552 -28.2921,-0.0295 -29.85222,-0.0906 -41.4,-1.62074 -6.6,-0.87455 -17.56938,-1.87822 -24.37638,-2.23036 -6.807,-0.35215 -16.662,-0.47313 -21.9,-0.26886 -8.18322,0.31914 -10.33266,0.62005 -15.27174,2.138 -3.23538,0.99434 -7.03854,2.65681 -8.7,3.80304 -1.62354,1.12005 -4.43688,2.77321 -6.25188,3.67368 -2.09934,1.04154 -5.70132,3.9627 -9.9,8.02883 -3.85668,3.73489 -7.7769,6.95367 -9.4314,7.74384 -1.6053,0.76665 -3.90078,2.6295 -5.30082,4.30165 -1.41822,1.69389 -3.7887,3.6103 -5.5686,4.50192 -1.70454,0.85388 -5.29902,3.62411 -7.98768,6.15606 -2.68866,2.53196 -6.14958,5.61606 -7.69098,6.85356 -1.5414,1.2375 -3.24,2.25 -3.77466,2.25 -0.53472,0 -5.92668,4.9275 -11.98224,10.95 -9.45522,9.40364 -11.51892,11.79732 -14.61336,16.95 -1.9818,3.3 -4.19886,6.76425 -4.92678,7.69833 -1.08702,1.3949 -1.30974,2.4133 -1.2465,5.7 0.0426,2.20092 0.5034,4.97818 1.02462,6.17169 0.78474,1.79702 1.545,2.39946 4.42302,3.5048 1.91148,0.73413 4.51008,1.76614 5.7747,2.29336 1.26468,0.52722 3.82968,2.50259 5.7,4.38972 1.87038,1.88712 4.78326,5.15123 6.4731,7.25351 1.68984,2.10234 3.78234,5.2233 4.65,6.93552 1.25334,2.47332 1.5732,3.94968 1.55622,7.18314 -0.012,2.23848 -0.37944,5.56662 -0.81708,7.39584 -0.43758,1.82928 -1.33602,4.52928 -1.99644,6 -0.66048,1.47078 -2.1828,4.1187 -3.38298,5.88438 -1.20018,1.76568 -2.18214,3.86712 -2.18214,4.66992 0,0.80286 0.65826,2.75868 1.46274,4.34634 0.80454,1.58766 2.14806,3.33564 2.9856,3.88446 1.50882,0.98856 1.53348,0.97674 2.68902,-1.28832 0.64146,-1.2573 2.7813,-3.96234 4.75518,-6.01116 2.40084,-2.49198 4.75056,-4.24296 7.09818,-5.28948 3.24318,-1.4457 3.95064,-1.53822 9.33054,-1.22004 4.17024,0.24666 6.50988,0.69558 8.24922,1.58292 2.00466,1.0227 2.83572,2.0496 4.76628,5.88924 1.65006,3.28188 2.45838,5.7948 2.7465,8.53824 0.22452,2.13816 0.1167,7.20306 -0.23958,11.25528 -0.5361,6.09744 -0.95478,8.0112 -2.4282,11.1 -0.9792,2.05278 -2.11626,4.19184 -2.52672,4.75356 -0.41046,0.56166 -0.54222,1.22532 -0.29274,1.4748 0.24954,0.24948 2.09076,-0.4464 4.09176,-1.54644 3.29412,-1.81092 3.94902,-1.9635 6.92682,-1.61352 1.80882,0.21258 4.143,0.82644 5.18706,1.36416 1.04406,0.53766 2.72292,1.60428 3.73074,2.37024 1.00788,0.7659 2.99952,3.43236 4.4259,5.92536 2.49354,4.35816 2.5779,4.66998 2.19048,8.09436 -0.291,2.5722 -1.31208,5.3793 -3.67584,10.10514 -1.80012,3.59892 -3.27294,7.25022 -3.27294,8.11398 0,1.28562 0.55404,1.85124 3.05478,3.11844 2.69532,1.36584 3.25956,1.99956 4.7946,5.38494 1.30194,2.87136 1.83756,5.1645 2.12844,9.11214 0.21378,2.9013 0.7632,6.01764 1.22088,6.92514 0.7482,1.48368 1.14852,1.65 3.97068,1.65 1.7262,0 4.08174,-0.27486 5.23458,-0.6108 1.15278,-0.33594 5.60604,-1.14 9.89604,-1.78674 4.29,-0.64674 8.67636,-1.24938 9.74748,-1.3392 l 1.94748,-0.16326 0.2295,-9.6 c 0.1698,-7.10304 0,-10.4583 -0.64242,-12.9 -0.47958,-1.815 -0.96486,-3.705 -1.07838,-4.2 -0.11346,-0.495 -0.62862,-1.89282 -1.1448,-3.10632 -0.54102,-1.27182 -1.51458,-2.38542 -2.29866,-2.62914 -0.74814,-0.23256 -2.81622,-1.38402 -4.59582,-2.55882 -1.77954,-1.1748 -4.37874,-3.29556 -5.77596,-4.71282 -1.39716,-1.41726 -3.20748,-3.99798 -4.02282,-5.73486 -0.81534,-1.73694 -1.67088,-3.92868 -1.90116,-4.8705 -0.23028,-0.94188 -0.82818,-2.33754 -1.3287,-3.1014 -0.50052,-0.76392 -2.07372,-1.9359 -3.49602,-2.60448 -1.4223,-0.66852 -2.73708,-1.60938 -2.92182,-2.0907 -0.18468,-0.48138 -0.19086,-1.42968 -0.0138,-2.10744 0.1896,-0.72498 1.15668,-1.50762 2.34924,-1.90116 1.11486,-0.36798 4.7514,-0.65304 8.08122,-0.63354 3.32988,0.0198 6.30426,0.1899 6.60978,0.37872 0.30552,0.18882 0.55206,0.12486 0.54798,-0.14214 -0.006,-0.26694 -1.08414,-1.6446 -2.4,-3.06144 -1.3221,-1.42356 -2.3925,-3.18186 -2.3925,-3.93 0,-0.74466 0.324,-1.67796 0.72,-2.07396 0.396,-0.396 2.2233,-0.72 4.06068,-0.72 2.6244,0 3.85308,0.34374 5.73,1.6029 1.31412,0.88158 3.82854,2.90658 5.58768,4.5 1.75908,1.59342 3.37908,2.89728 3.6,2.89746 0.22086,2.4e-4 0.30696,-1.36602 0.19128,-3.03606 -0.16068,-2.31942 0.0516,-3.32574 0.89844,-4.26168 0.88602,-0.97902 1.62078,-1.16748 3.65652,-0.93804 1.46298,0.16488 3.42228,0.95424 4.60176,1.85388 1.73856,1.32606 2.20476,2.22936 3.03534,5.88114 0.74346,3.26862 0.89748,5.96118 0.6354,11.10744 -0.19026,3.73614 -0.11646,6.79296 0.16392,6.79296 0.28038,0 1.1439,-0.675 1.91898,-1.5 0.77502,-0.825 1.81332,-1.5 2.3073,-1.5 0.49404,0 1.39194,0.44688 1.99542,0.993 0.82662,0.74808 1.09728,1.8654 1.09728,4.52982 0,2.14866 -0.39534,4.29042 -1.00728,5.457 -0.55398,1.05612 -1.02372,3.34518 -1.04382,5.0868 -0.036,3.11058 0.03,3.23172 3.72726,6.84966 2.65746,2.60046 4.3446,4.93236 5.73978,7.93338 1.08684,2.33772 2.4141,5.87034 2.94942,7.85034 0.53538,1.98 1.3161,4.8825 1.73496,6.45 0.41892,1.5675 1.04022,2.84814 1.38066,2.84592 0.34044,0 1.25298,-0.9351 2.02782,-2.073 0.7749,-1.1379 2.08956,-3.75414 2.92152,-5.81388 1.28148,-3.17268 1.51452,-4.71546 1.52472,-10.09524 0.01,-4.93962 -0.22614,-6.81264 -1.06044,-8.43198 -0.58986,-1.14498 -1.70616,-2.91558 -2.48064,-3.93462 -0.77448,-1.0191 -1.6608,-3.1791 -1.96962,-4.8 -0.30876,-1.62096 -0.6978,-3.3522 -0.86454,-3.8472 -0.16674,-0.495 -0.46164,-3.6 -0.65532,-6.9 -0.19374,-3.3 -0.65364,-6.945 -1.02198,-8.1 -0.36834,-1.155 -1.5771,-3.47796 -2.68614,-5.1621 -1.10898,-1.68414 -2.01636,-3.59982 -2.01636,-4.257 0,-0.65718 0.51324,-1.65936 1.14048,-2.22702 0.96402,-0.87246 1.51266,-0.93198 3.54546,-0.3846 1.32276,0.35622 4.04952,1.85826 6.05952,3.33792 2.27052,1.67148 3.65454,2.37018 3.65454,1.84494 0,-0.46494 -0.57252,-2.34144 -1.2723,-4.17 -0.78468,-2.05044 -1.12608,-3.90702 -0.89082,-4.84422 0.23088,-0.91998 0.9411,-1.66008 1.79976,-1.8756 0.90888,-0.22812 2.4966,0.19038 4.42038,1.16526 1.65114,0.8367 4.33086,2.83614 5.955,4.4433 1.62414,1.6071 3.41082,3.88692 3.97044,5.06628 0.55962,1.1793 1.01754,2.55996 1.01754,3.0681 0,0.50814 0.27,1.0908 0.6,1.29474 0.33168,0.20502 0.61182,-0.24864 0.62646,-1.0146 0.0144,-0.76194 0.35388,-2.6004 0.75402,-4.0854 0.40014,-1.485 0.94416,-3.0375 1.20894,-3.45 0.26478,-0.4125 1.12206,-0.75 1.90512,-0.75 0.8793,0 1.88772,0.65166 2.63712,1.704 0.66732,0.9372 1.78038,3.2196 2.47344,5.07198 0.89466,2.39124 1.22286,4.51902 1.1316,7.33746 -0.0707,2.18322 -0.50556,5.23338 -0.96642,6.77802 -0.46086,1.5447 -1.76718,5.64354 -2.90286,9.10854 -1.68738,5.14812 -2.14746,7.6713 -2.51616,13.8 -0.24822,4.125 -0.31626,11.32578 -0.15126,16.0017 0.165,4.67586 0.44754,8.6484 0.62784,8.8278 0.1803,0.1794 2.6103,0.76638 5.4,1.30434 2.7897,0.53796 6.2055,1.38918 7.59066,1.89162 1.68186,0.61008 3.92052,0.8343 6.73896,0.67506 2.32128,-0.13116 4.48452,-0.5025 4.8072,-0.82518 0.38226,-0.38226 0.17628,-2.25732 -0.59106,-5.38104 -0.64776,-2.63682 -1.58094,-6.2793 -2.07372,-8.0943 -0.49278,-1.815 -1.58964,-6.27 -2.4375,-9.9 -0.84792,-3.63 -1.96278,-8.76 -2.47758,-11.4 -0.51474,-2.64 -1.0491,-5.475 -1.18746,-6.3 -0.13836,-0.825 -0.23526,-6.765 -0.21528,-13.2 0.0198,-6.435 0.30066,-14.535 0.62394,-18 0.32322,-3.465 0.85812,-10.62 1.18866,-15.9 0.33054,-5.28 0.8406,-11.07426 1.13346,-12.87606 0.29286,-1.80186 0.5787,-8.55186 0.63516,-15 0.08,-9.13104 0.35862,-12.85188 1.26006,-16.82394 0.63654,-2.805 1.53486,-6.315 1.99626,-7.8 0.46146,-1.485 1.68798,-4.36758 2.72568,-6.40576 1.03776,-2.03818 3.04038,-5.27818 4.45038,-7.2 1.41,-1.92182 2.76678,-3.82861 3.01512,-4.23731 0.24834,-0.40869 -0.0683,-1.91813 -0.70356,-3.35429 -0.63528,-1.43617 -1.66182,-3.25623 -2.28114,-4.04457 -0.61938,-0.78835 -2.47608,-2.73277 -4.12608,-4.32095 -1.65,-1.58818 -3.945,-3.76689 -5.1,-4.84158 -1.155,-1.0747 -3.23622,-2.85445 -4.62492,-3.95502 -2.50902,-1.98842 -2.53794,-1.99486 -4.59072,-1.02077 -1.13616,0.53914 -2.83914,0.98026 -3.78444,0.98026 -0.94524,0 -2.63856,-0.49336 -3.76296,-1.09636 -1.12434,-0.60299 -2.53764,-2.01628 -3.14064,-3.14063 -0.603,-1.12436 -1.09632,-2.86271 -1.09632,-3.86301 0,-1.00029 0.49332,-2.73864 1.09632,-3.863 0.603,-1.12435 2.0163,-2.53764 3.14064,-3.14063 1.1244,-0.603 2.86272,-1.09637 3.86304,-1.09637 1.00026,0 2.73864,0.49337 3.86298,1.09637 1.12434,0.60299 2.53764,2.01628 3.14064,3.14063 0.603,1.12436 1.09638,2.75896 1.09638,3.63244 0,1.42776 0.53022,1.81192 5.25,3.80355 2.8875,1.21845 6.06,2.57477 7.05,3.01402 0.99,0.43926 2.745,1.22051 3.9,1.7361 1.155,0.51559 3.20094,1.56255 4.54656,2.32658 1.34562,0.76404 3.84378,2.39291 5.55138,3.61973 1.70766,1.22682 3.51462,2.23058 4.01544,2.23058 0.50082,0 3.26766,-1.17835 6.14862,-2.61855 2.8809,-1.44021 7.938,-3.57739 11.238,-4.7493 3.3,-1.1719 8.295,-2.5557 11.1,-3.0751 2.805,-0.51941 10.42464,-1.35483 16.93254,-1.85652 6.50796,-0.50168 12.17796,-0.84203 12.6,-0.75633 0.58584,0.11893 0.75222,-1.26422 0.70302,-5.8442 -0.0354,-3.3 -0.38262,-7.485 -0.7716,-9.3 -0.38892,-1.815 -0.97788,-4.3125 -1.30872,-5.55 -0.50874,-1.9029 -0.85392,-2.25 -2.23776,-2.25 -0.89994,0 -2.55612,-0.49336 -3.68052,-1.09636 -1.12434,-0.60299 -2.53764,-2.01628 -3.14064,-3.14063 -0.603,-1.12436 -1.09632,-2.86271 -1.09632,-3.86301 0,-1.00029 0.49332,-2.73864 1.09632,-3.863 0.603,-1.12435 2.0163,-2.53764 3.14064,-3.14063 1.1244,-0.603 2.86272,-1.09637 3.86304,-1.09637 1.00026,0 2.73864,0.49337 3.86298,1.09637 1.12434,0.60299 2.53764,2.01628 3.14064,3.14063 0.603,1.12436 1.09638,2.81769 1.09638,3.76297 0,0.94527 -0.43764,2.64093 -0.97254,3.76812 -0.96936,2.04277 -0.96414,2.06356 1.60224,6.39067 1.41618,2.38769 3.4554,6.00929 4.53174,8.04801 1.07634,2.03873 2.7009,5.90379 3.61014,8.58905 1.0317,3.04677 2.09568,5.11906 2.83008,5.51212 0.64728,0.34641 4.1742,1.38915 7.83762,2.3172 3.66336,0.92804 8.51052,2.37758 10.77144,3.2212 2.26092,0.84361 7.03248,2.99522 10.60344,4.78134 3.57096,1.78612 8.60616,4.86298 11.18928,6.83745 2.58306,1.97448 6.40878,5.158 8.50152,7.07449 2.09268,1.9165 5.4936,5.6616 7.55754,8.32246 2.06394,2.66086 4.73508,6.38917 5.93586,8.28515 1.20072,1.89594 3.39744,5.83344 4.8816,8.74986 1.48416,2.91648 3.4017,7.17024 4.26126,9.45282 0.85956,2.28252 2.06616,5.63508 2.68128,7.45008 0.61518,1.815 1.68996,5.595 2.38836,8.4 0.6984,2.805 1.39068,5.64 1.53834,6.3 0.14766,0.66 0.6741,3.68076 1.16982,6.71274 0.49572,3.03204 1.14654,9.10704 1.44618,13.5 0.2997,4.39302 0.4602,12.17226 0.35664,17.28726 -0.1035,5.115 -0.35754,10.92 -0.56454,12.9 -0.20694,1.98 -0.78906,6.03 -1.2936,9 -0.50454,2.97 -1.6062,7.965 -2.44812,11.1 -0.84192,3.135 -1.90986,6.58668 -2.37318,7.67034 -0.46332,1.08372 -0.8424,2.25792 -0.8424,2.60934 0,0.35142 -0.42504,1.6248 -0.94446,2.82966 -0.51948,1.20486 -1.30638,3.00066 -1.7487,3.99066 -0.44232,0.99 -1.6044,3.4308 -2.5824,5.424 -0.978,1.9932 -2.8236,5.2332 -4.1013,7.2 -1.27776,1.9668 -2.45814,3.89304 -2.62314,4.28046 -0.165,0.38748 -2.00868,2.8707 -4.09704,5.51838 -2.08836,2.64768 -5.74062,6.66018 -8.11614,8.91672 -2.37558,2.25654 -6.4719,5.73498 -9.10302,7.72986 -2.63112,1.99494 -6.6738,4.71834 -8.9838,6.05208 -2.31,1.33374 -6.765,3.4404 -9.9,4.68144 -3.135,1.24104 -6.51,2.82438 -7.5,3.51846 -0.99,0.69414 -2.4702,2.05422 -3.28926,3.02244 -0.81906,0.96822 -2.2542,2.96658 -3.18912,4.44078 -0.93492,1.47426 -3.60024,6.6258 -5.92284,11.44794 -2.3226,4.82208 -5.36124,11.06244 -6.75246,13.86744 -1.39122,2.805 -3.42528,6.72 -4.52004,8.7 -1.09482,1.98 -3.48402,5.895 -5.3094,8.7 -1.82532,2.805 -4.53612,6.72 -6.02394,8.7 -1.48782,1.98 -4.6149,5.52108 -6.94908,7.86906 -2.33412,2.34792 -6.26886,5.74884 -8.74386,7.55748 -2.475,1.80864 -6.66,4.50978 -9.3,6.00252 -2.64,1.49274 -6.825,3.65184 -9.3,4.79808 -2.475,1.14618 -6.93,2.92272 -9.9,3.94776 -2.97,1.02504 -7.77492,2.57262 -10.6776,3.43914 -2.90268,0.86646 -10.46268,2.8842 -16.8,4.4838 -6.33732,1.59966 -14.0874,3.57774 -17.2224,4.39572 -3.135,0.81804 -9.075,2.15562 -13.2,2.97252 -4.125,0.81684 -9.93,1.90926 -12.9,2.4276 -2.97,0.51834 -7.155,1.21644 -9.3,1.55136 -2.145,0.33486 -7.275,1.03722 -11.4,1.56078 -4.125,0.5235 -10.2,1.32498 -13.5,1.78104 -3.3,0.45606 -10.32,1.15578 -15.6,1.5549 -5.28,0.39918 -12.3,0.7308 -15.6,0.73692 -3.3,0.006 -8.97,-0.44232 -12.6,-0.9966 -3.63,-0.55428 -10.65,-1.8039 -15.6,-2.77698 -6.7101,-1.31898 -12.12954,-1.9284 -21.3,-2.3952 -6.765,-0.34434 -13.38,-0.88602 -14.7,-1.20366 -1.32,-0.3177 -4.56,-0.5895 -7.2,-0.60396 -2.64,-0.0144 -6.42,-0.273 -8.4,-0.57444 -1.98,-0.30138 -5.895,-0.97128 -8.7,-1.48866 -2.805,-0.51738 -9.15,-1.3566 -14.1,-1.86498 -4.95,-0.50832 -11.52174,-1.5948 -14.60382,-2.41428 -3.08202,-0.81948 -7.2531,-2.18418 -9.26904,-3.03264 -2.01588,-0.84846 -5.0292,-2.43594 -6.69618,-3.5277 -1.66704,-1.0917 -3.98796,-2.88828 -5.1576,-3.99228 -1.16964,-1.104 -2.92464,-3.0873 -3.9,-4.4073 -0.97536,-1.32 -2.12604,-3.02808 -2.55702,-3.79572 -0.43098,-0.76764 -1.36188,-3.19764 -2.06862,-5.4 -1.13574,-3.53904 -1.28868,-5.43324 -1.3164,-16.30428 -0.0174,-6.765 0.15324,-13.515 0.37878,-15 0.2256,-1.485 0.82542,-4.995 1.33302,-7.8 0.5076,-2.805 1.21584,-6.18 1.57386,-7.5 0.35796,-1.32 1.755,-5.64 3.10452,-9.6 2.35896,-6.92226 2.45526,-7.5009 2.4978,-15 0.042,-7.37826 -0.0474,-7.98846 -1.64808,-11.28594 -0.93078,-1.91724 -2.81262,-4.57698 -4.18182,-5.91048 -1.36914,-1.33356 -4.5144,-3.97062 -6.9894,-5.86026 -2.475,-1.88964 -7.13292,-5.25156 -10.3509,-7.47102 -3.21798,-2.2194 -6.6888,-4.32744 -7.71288,-4.68444 -1.42608,-0.4971 -3.21954,-0.41064 -7.66038,0.36942 -4.17996,0.73422 -6.23934,0.85086 -7.37814,0.4179 -0.86892,-0.33036 -2.2566,-1.4949 -3.08376,-2.58792 -0.82716,-1.09296 -1.57278,-2.66226 -1.65684,-3.48726 -0.0841,-0.825 0.0588,-3.12 0.3174,-5.1 0.25872,-1.98 0.86778,-4.545 1.35342,-5.7 0.4857,-1.155 0.8604,-3.47142 0.83274,-5.14758 -0.0276,-1.67616 -0.7371,-4.91616 -1.57662,-7.2 -0.83952,-2.28384 -1.9452,-6.04242 -2.45706,-8.35242 -0.55668,-2.51196 -0.92742,-7.06068 -0.9225,-11.31762 0.006,-3.91464 0.33486,-8.50464 0.73404,-10.2 0.39918,-1.6953 1.36332,-4.35492 2.14248,-5.91024 0.77922,-1.55532 2.23044,-3.75456 3.22494,-4.88724 0.99444,-1.13262 3.08748,-2.6685 4.65108,-3.41304 1.56366,-0.74448 4.46298,-1.70826 6.44298,-2.14164 1.98,-0.43344 4.42698,-0.79752 5.43774,-0.80916 1.26276,-0.0144 2.38914,-0.606 3.6,-1.8906 0.96924,-1.02828 3.11766,-2.88096 4.77432,-4.11702 1.6566,-1.23612 4.61808,-3.15384 6.58098,-4.26168 3.21882,-1.81656 4.04382,-2.01606 8.40816,-2.03298 4.26972,-0.0168 5.06322,0.15774 6.74328,1.48122 1.0473,0.825 2.52324,2.715 3.27984,4.2 0.98802,1.9392 1.35408,3.62988 1.29906,6 -0.042,1.815 -0.66804,5.055 -1.39092,7.2 -0.72288,2.145 -3.18594,7.31172 -5.47344,11.48154 -2.28744,4.16988 -4.15902,8.09832 -4.15902,8.72994 0,0.63156 0.69534,2.2149 1.54524,3.5184 0.8499,1.30356 3.1785,3.5412 5.1747,4.9725 1.9962,1.43124 6.33438,3.95436 9.64038,5.60682 3.30606,1.65246 7.11996,3.40524 8.47536,3.89502 1.35534,0.48978 5.1132,1.6866 8.35074,2.65962 3.2376,0.97302 7.07232,1.93164 8.52174,2.1303 2.14506,0.29406 3.21066,0.0604 5.72856,-1.25622 1.70136,-0.88962 5.31378,-2.51262 8.02758,-3.60672 2.71386,-1.09404 6.85542,-2.42616 9.2034,-2.96022 2.34804,-0.534 6.1059,-0.96702 8.35074,-0.96216 2.24484,0.006 5.6106,0.4863 7.47948,1.06992 1.86888,0.58356 4.17804,1.72704 5.13144,2.54112 0.9534,0.81408 2.28768,2.44176 2.96508,3.61704 0.67734,1.17528 1.5693,3.54456 1.98204,5.26512 0.44796,1.86726 0.61098,4.75458 0.4044,7.1631 -0.19032,2.21922 -0.5016,5.1051 -0.69174,6.41316 -0.19014,1.30806 -0.45846,2.49102 -0.59634,2.6289 -0.13782,0.13782 0.0192,0.7551 0.34938,1.37172 0.50304,0.9399 1.29984,1.11702 4.92894,1.09566 2.38086,-0.0138 5.78814,-0.36606 7.57176,-0.78246 2.40822,-0.5622 3.66822,-1.26654 4.89534,-2.73642 1.30482,-1.563 1.74006,-2.85204 2.06904,-6.12822 0.33042,-3.29016 0.22044,-4.4484 -0.5313,-5.59572 -0.5214,-0.79572 -1.8651,-2.34336 -2.98608,-3.43926 -1.12098,-1.09584 -2.75544,-3.37146 -3.63216,-5.05686 -0.87672,-1.68546 -1.75104,-4.39032 -1.94298,-6.01086 -0.25044,-2.11488 0.0114,-4.11258 0.92742,-7.07868 0.70194,-2.27274 2.0973,-5.56722 3.10074,-7.32108 l 1.82442,-3.1887 -3.35076,1.48182 c -1.84296,0.81504 -4.19466,1.48188 -5.226,1.48188 -1.0314,0 -3.56382,-0.94428 -5.62764,-2.09844 -3.46476,-1.93764 -3.96462,-2.49102 -6.52158,-7.22004 -1.5231,-2.81694 -3.19356,-6.37152 -3.7122,-7.89918 -0.67644,-1.99236 -0.82494,-3.72534 -0.52536,-6.12996 0.22968,-1.8438 0.69102,-3.89238 1.02516,-4.55238 0.33414,-0.66 1.49466,-2.55 2.57892,-4.2 1.78236,-2.71242 2.00724,-3.56298 2.34546,-8.8728 l 0.3741,-5.8728 -1.55094,1.01616 c -0.85302,0.55896 -2.20914,2.31516 -3.01368,3.90276 -0.80448,1.5876 -2.4552,3.87906 -3.66822,5.09208 -1.21302,1.21302 -3.96984,3.00546 -6.1263,3.98328 -3.4776,1.5768 -4.3254,1.73196 -7.5003,1.3728 -1.96872,-0.22272 -4.59744,-0.9243 -5.8416,-1.55898 -1.2441,-0.63474 -2.47902,-1.49724 -2.74422,-1.9167 -0.2652,-0.4194 -1.926,-1.83882 -3.69066,-3.1542 -2.6277,-1.95864 -3.68604,-3.33852 -5.84628,-7.62216 -1.45074,-2.87676 -3.0405,-6.38676 -3.53274,-7.8 -0.4923,-1.41318 -0.89898,-4.23558 -0.90378,-6.27192 -0.007,-2.86596 0.44616,-4.7811 2.00472,-8.47656 1.10742,-2.62572 2.7645,-5.75874 3.68244,-6.96222 1.48584,-1.94802 1.63266,-2.54028 1.33782,-5.39688 -0.18216,-1.76478 -0.86952,-4.25568 -1.52748,-5.5353 -0.65796,-1.27962 -1.96356,-3.01986 -2.90124,-3.86724 -0.93774,-0.84744 -2.42412,-1.98582 -3.303,-2.52984 -0.87894,-0.54396 -4.22304,-2.06544 -7.43136,-3.38112 -3.20832,-1.31562 -6.40422,-2.92122 -7.10196,-3.56808 -0.69774,-0.6468 -2.51712,-1.83498 -4.04298,-2.64042 -2.09862,-1.10768 -4.16034,-1.56606 -8.46522,-1.88207 -3.73872,-0.27443 -6.69768,-0.17368 -8.62572,0.29372 -1.61412,0.3913 -4.85304,1.61979 -7.19772,2.72997 -2.34462,1.11018 -4.50462,2.02422 -4.8,2.03118 -0.29532,0.007 -3.23568,1.35696 -6.534,3 -3.29832,1.64304 -6.42738,2.98734 -6.9534,2.98734 -0.52602,0 -1.95132,0.7425 -3.1674,1.65 -1.21602,0.9075 -3.1866,2.3925 -4.3791,3.3 -1.19244,0.9075 -2.53524,1.65 -2.98386,1.65 -0.44868,0 -1.8291,0.88662 -3.0675,1.97022 -1.23846,1.0836 -3.2973,2.74254 -4.57524,3.68658 -1.27794,0.94404 -3.57294,2.37588 -5.1,3.18192 -1.52706,0.80604 -3.3165,1.9422 -3.9765,2.52474 -0.66,0.5826 -2.955003,1.88142 -5.100003,2.8863 -2.145,1.00494 -4.98,2.15832 -6.3,2.56308 -1.32,0.40476 -3.92034,1.64748 -5.77848,2.76156 -1.8582,1.11408 -3.6132,2.02974 -3.9,2.03478 -0.28686,0.006 -1.87152,0.95856 -3.52152,2.11896 -1.65,1.16034 -3.95646,2.74422 -5.12538,3.51966 -1.16898,0.77544 -2.92398,2.36292 -3.9,3.5277 -0.97608,1.16478 -2.44962,3.11514 -3.27462,4.3341 -0.825,1.21896 -2.33538,3.20046 -3.35634,4.40334 -1.02096,1.20288 -2.17182,3.11454 -2.5575,4.24812 -0.38562,1.13358 -1.05702,2.48358 -1.49202,3 -0.43494,0.51642 -1.20023,2.15394 -1.70069,3.63894 -0.50046,1.485 -1.21662,3.65154 -1.5915,4.81446 -0.37488,1.16298 -0.97626,3.59298 -1.33638,5.4 -0.36018,1.80708 -0.77736,4.09554 -0.92712,5.08554 -0.14976,0.99 -0.40128,2.39334 -0.5589,3.11856 -0.15768,0.72516 -0.48756,3.29016 -0.73308,5.7 -0.24558,2.40978 -0.43782,8.29644 -0.4272,13.08144 0.0108,4.785 0.3486,11.32656 0.75114,14.53674 0.40254,3.21018 0.8904,6.85518 1.08408,8.1 0.19368,1.24482 0.97368,4.82826 1.73334,7.96326 0.75966,3.135 1.65114,6.375 1.98114,7.2 0.32994,0.825 1.07135,2.715 1.64759,4.2 0.57624,1.485 1.5846,3.915 2.24076,5.4 0.65616,1.485 1.8342,4.10022 2.61786,5.81154 0.78366,1.71138 1.42482,3.24816 1.42482,3.41514 0,0.16692 1.05456,2.54676 2.34348,5.28846 1.28892,2.74164 4.1544,8.89986 6.36774,13.68486 2.21334,4.785 5.33928,11.45052 6.94644,14.8122 1.60722,3.36174 3.30546,7.14174 3.77388,8.4 0.46848,1.25832 1.79376,4.7178 2.9451,7.6878 1.1514,2.97 2.6517,6.615 3.33402,8.1 0.68238,1.485 2.0844,4.185 3.11568,6 1.03122,1.815 2.7198,4.65 3.75234,6.3 1.03254,1.65 2.96574,4.485 4.295943,6.3 1.3302,1.815 2.5566,3.435 2.72538,3.6 0.16872,0.165 1.1082,1.38 2.0877,2.7 0.97944,1.32 2.58738,3.345 3.57318,4.5 0.98574,1.155 5.44782,5.74524 9.91572,10.2006 4.46784,4.4553 9.0684,8.92146 10.2234,9.92484 1.155,1.00332 3.855,3.192 6,4.86366 2.145,1.67172 6.06,4.51572 8.7,6.32004 2.64,1.80432 8.985,5.58942 14.1,8.41134 5.115,2.82192 12.01098,6.51426 15.32436,8.20518 3.31344,1.69086 6.22128,3.07434 6.46194,3.07434 0.24066,0 1.44468,0.624 2.67558,1.3866 1.23096,0.7626 4.53312,2.36382 7.33812,3.55818 2.805,1.19442 8.00652,3.54048 11.55894,5.21346 3.55242,1.67298 6.62898,3.04176 6.83682,3.04176 0.20784,0 4.18632,1.60602 8.84106,3.56898 4.65474,1.96296 12.10818,4.95108 16.56318,6.64032 4.455,1.68918 9.045,3.2886 10.2,3.55422 1.155,0.26562 2.86008,0.7875 3.78906,1.15974 0.92898,0.37218 2.39478,0.67674 3.2574,0.67674 0.86256,0 2.39748,0.25452 3.41094,0.56556 1.0134,0.31104 4.9476,1.12034 8.7426,1.79854 3.795,0.6781 11.22,2.0213 16.5,2.9848 5.28,0.9635 12.435,2.207 15.9,2.7632 3.465,0.5562 9,1.3916 12.3,1.8565 3.3,0.4649 8.41194,1.1151 11.35992,1.4448 2.94798,0.3298 6.32298,0.846 7.5,1.1471 1.17702,0.3012 4.57008,0.8578 7.54008,1.2371 2.97,0.3792 8.1,0.9021 11.4,1.162 3.3,0.2599 6.81,0.5093 7.8,0.5543 z m 76.8,-218.6994 c 1.98,-0.14568 4.95,-0.68334 6.6,-1.19478 1.65,-0.51138 3.6075,-1.5951 4.35,-2.40822 0.82038,-0.89838 1.35,-2.24418 1.35,-3.43026 0,-1.07352 -0.34782,-2.42754 -0.77298,-3.00894 -0.52464,-0.71754 -2.1147,-1.22994 -4.95,-1.5951 -2.29734,-0.29586 -6.87702,-0.53502 -10.17702,-0.53142 -3.3,0.006 -7.18038,0.23448 -8.62308,0.51318 -1.44264,0.27864 -2.85606,0.87438 -3.14082,1.32384 -0.28476,0.44946 -0.52188,1.674 -0.52692,2.72118 -0.006,1.17168 0.5745,2.59764 1.50852,3.70764 0.8712,1.03536 2.72418,2.1927 4.35,2.71686 1.55778,0.5022 3.6423,1.0341 4.6323,1.18206 0.99,0.1479 3.42,0.1497 5.4,0.006 z m 27.05682,-38.63796 c 4.2918,0.0168 7.01892,-0.29388 9.35796,-1.06554 1.8156,-0.59898 4.48998,-1.79364 5.94312,-2.65476 1.45314,-0.86118 3.76056,-2.5986 5.12754,-3.861 1.36698,-1.26234 3.98694,-4.39866 5.82216,-6.96948 1.83522,-2.57088 4.70514,-7.20516 6.37764,-10.2984 1.67244,-3.0933 4.50804,-9.08988 6.30132,-13.32576 l 3.26046,-7.7016 -3.62622,-0.18 c -2.02188,-0.10038 -6.2574,0.35664 -9.57318,1.0329 -3.27078,0.66708 -7.99572,1.92006 -10.49982,2.78436 -2.5041,0.8643 -6.21678,2.47698 -8.25036,3.58374 -2.03358,1.10676 -4.68888,2.56206 -5.90064,3.23394 -1.2117,0.67194 -3.84306,2.73996 -5.84748,4.59564 -2.00436,1.85574 -4.49868,4.69254 -5.54292,6.30414 -1.0443,1.61154 -2.3571,4.23192 -2.91744,5.823 -0.61404,1.74354 -1.06602,5.04318 -1.13772,8.30508 -0.0741,3.37158 0.17106,6.04872 0.65034,7.10058 0.42312,0.92868 1.58586,2.04426 2.58384,2.47908 1.0911,0.47538 4.22946,0.79992 7.8714,0.81408 z m -37.72794,-1.8408 c 0.80418,0.039 1.61118,-0.4632 2.04384,-1.27164 0.39318,-0.7347 0.95352,-2.2872 1.24506,-3.45 0.2916,-1.16274 0.7083,-2.9241 0.92598,-3.9141 0.21774,-0.99 0.39228,-3.96 0.38796,-6.6 -0.006,-3.20634 -0.43872,-6.1944 -1.30554,-9 -0.7137,-2.31 -2.3166,-5.955 -3.5619,-8.1 -1.24536,-2.145 -3.88956,-5.55024 -5.87598,-7.56726 -1.98642,-2.01696 -4.74318,-4.24446 -6.12612,-4.95 -1.38288,-0.70548 -2.9703,-1.28274 -3.52758,-1.28274 -0.92814,0 -0.98052,0.91938 -0.62406,10.95 0.21402,6.0225 0.50346,11.625 0.6432,12.45 0.13974,0.825 0.43896,3.12 0.66492,5.1 0.22596,1.98 0.7875,4.95 1.24788,6.6 0.46032,1.65 1.35318,3.84624 1.98414,4.88052 0.6309,1.03428 2.04762,2.5614 3.1482,3.39366 1.10064,0.8322 3.21612,1.7796 4.70112,2.10522 1.485,0.32568 3.29796,0.621 4.02888,0.65634 z"
       id="path3238"
       inkscape:connector-curvature="0" />
  </g>
</svg>
