<?xml version="1.0" encoding="UTF-8" standalone="no"?>
<!-- Created with Inkscape (http://www.inkscape.org/) -->

<svg
   xmlns:dc="http://purl.org/dc/elements/1.1/"
   xmlns:cc="http://creativecommons.org/ns#"
   xmlns:rdf="http://www.w3.org/1999/02/22-rdf-syntax-ns#"
   xmlns:svg="http://www.w3.org/2000/svg"
   xmlns="http://www.w3.org/2000/svg"
   xmlns:sodipodi="http://sodipodi.sourceforge.net/DTD/sodipodi-0.dtd"
   xmlns:inkscape="http://www.inkscape.org/namespaces/inkscape"
   id="svg2985"
   version="1.1"
   inkscape:version="0.48.4 r9939"
   width="1300"
   height="900"
   sodipodi:docname="!0wn-mod3-cord-6.png">
  <metadata
     id="metadata2991">
    <rdf:RDF>
      <cc:Work
         rdf:about="">
        <dc:format>image/svg+xml</dc:format>
        <dc:type
           rdf:resource="http://purl.org/dc/dcmitype/StillImage" />
        <dc:title></dc:title>
      </cc:Work>
    </rdf:RDF>
  </metadata>
  <defs
     id="defs2989" />
  <sodipodi:namedview
     pagecolor="#ffffff"
     bordercolor="#666666"
     borderopacity="1"
     objecttolerance="10"
     gridtolerance="10"
     guidetolerance="10"
     inkscape:pageopacity="0"
     inkscape:pageshadow="2"
     inkscape:window-width="1280"
     inkscape:window-height="977"
     id="namedview2987"
     showgrid="false"
     inkscape:zoom="0.80333333"
     inkscape:cx="650"
     inkscape:cy="450"
     inkscape:window-x="-4"
     inkscape:window-y="-4"
     inkscape:window-maximized="1"
     inkscape:current-layer="svg2985" />
  <path
     style="fill:#000000"
     d="m 615.43154,851.66756 c -13.7371,-1.21779 -31.4781,-3.86959 -46.5,-6.95048 -9.35,-1.91763 -43.55,-7.97566 -76.00001,-13.4623 -64.86886,-10.96801 -64.0854,-10.82088 -80.5,-15.11743 -41.18776,-10.78097 -142.2387,-59.47233 -186,-89.62404 -16.64789,-11.47047 -28.05592,-21.15758 -45.53353,-38.6647 -18.15134,-18.18201 -27.60838,-29.39531 -39.69123,-47.0623 -14.27319,-20.86959 -20.76812,-33.23522 -30.46391,-58 -3.01467,-7.7 -9.10565,-21.875 -13.535498,-31.5 -10.88986,-23.66103 -31.3505,-69.87561 -34.7544,-78.5 -5.26174,-13.33156 -8.98488,-26.06333 -11.69718,-40 -2.51948,-12.94594 -2.72745,-15.9199 -2.76227,-39.5 -0.0423,-28.67659 1.04564,-38.20387 6.92032,-60.60019 6.3642,-24.26257 15.4751,-44.80053 29.17016,-65.75592 3.54272,-5.42086 9.79803,-16.55836 13.90068,-24.75 4.102658,-8.19164 7.838218,-14.89389 8.301238,-14.89389 0.46303,0 1.66314,-1.82125 2.66691,-4.04722 1.00378,-2.22597 2.36357,-4.36347 3.02177,-4.75 0.6582,-0.38653 2.16442,-2.61528 3.34716,-4.95278 1.18273,-2.3375 2.56096,-4.25 3.06272,-4.25 0.50175,0 1.20653,-0.92708 1.56616,-2.06017 0.35963,-1.13309 2.52745,-3.96963 4.81738,-6.30342 5.18657,-5.28589 8.66352,-10.10628 8.66352,-12.01097 0,-1.51946 2.26543,-4.52551 7.74323,-10.27467 1.78377,-1.87214 4.13872,-5.15922 5.23323,-7.30462 1.0945,-2.1454 2.89755,-4.18877 4.00677,-4.54083 1.10922,-0.35205 2.01677,-1.0164 2.01677,-1.47632 0,-0.7657 4.10319,-5.84894 8.15128,-10.09821 0.9082,-0.95334 1.92252,-2.58794 2.25403,-3.63244 0.33151,-1.0445 1.95611,-3.00142 3.61022,-4.34872 2.87128,-2.33871 7.15247,-6.20005 20.48447,-18.47558 6.02303,-5.54575 13.70072,-12.9675 16.5,-15.94997 1.49269,-1.59036 3.25017,-2.96704 18.5,-14.491493 4.4,-3.32512 10.025,-7.99375 12.5,-10.37473 2.55129,-2.45438 9.37176,-6.84797 15.75,-10.1458 6.1875,-3.19921 11.25,-6.20547 11.25,-6.68058 0,-0.47511 1.575,-1.6149 3.5,-2.53287 1.925,-0.91797 3.5,-2.02557 3.5,-2.46134 0,-1.15423 27.70269,-14.4667 33,-15.85809 2.475,-0.65008 6.525,-2.01502 9,-3.03321 2.475,-1.01818 6.075,-2.12569 8,-2.46113 3.42852,-0.59743 4.36642,-0.86061 12.5,-3.50759 2.2,-0.71596 6.7,-1.87288 10,-2.57094 3.3,-0.69805 8.025,-1.71444 10.5,-2.25864 2.475,-0.5442 8.1,-1.51253 12.5,-2.15185 4.4,-0.63932 10.25,-1.5525 13,-2.0293 2.75,-0.47679 37.96164,-0.84725 78.24808,-0.82324 40.28645,0.024 77.41143,-0.2585 82.50003,-0.6278 5.0885,-0.36931 42.1019,-0.79743 82.2519,-0.95138 57.2736,-0.21962 76.77,-0.62559 90.5,-1.88447 9.625,-0.8825 39.55,-2.11927 66.5,-2.74839 50.4651,-1.17804 54.8172,-1.03146 78.0286,2.62802 41.6365,6.56433 89.4204,30.58169 131.9714,66.33202 11.8705,9.973303 40.46666,38.570543 48.43136,48.433173 11.5,14.24029 21.1838,29.90816 31.265,50.58478 14.5041,29.74804 21.4633,48.23034 28.8392,76.59077 8.1098,31.18236 11.8089,58.24004 12.6458,92.5 0.8516,34.86594 -1.7262,64.07693 -7.7287,87.57887 -12.388,48.50343 -60.051,141.78159 -108.28686,211.92113 -23.4711,34.12928 -42.6311,57.26853 -59.7664,72.179 -61.7741,53.75342 -157.0972,95.21119 -264.1159,114.86885 -13.9729,2.5666 -40.0205,3.96483 -52.7835,2.8334 z m 30.5,-19.40171 c 19.747,-1.91322 60.1001,-10.77326 91.3713,-20.06173 78.2233,-23.23468 146.9075,-59.14248 187.6731,-98.11473 46.8253,-44.76523 126.33486,-177.43765 151.46076,-252.7325 8.0131,-24.01292 11.4213,-45.66161 12.6058,-80.07058 1.7239,-50.08069 -7.3926,-103.0724 -25.6403,-149.03952 -6.5152,-16.41197 -22.418,-48.0028 -29.6808,-58.96048 -10.8269,-16.3349 -18.2582,-25.17521 -36.18846,-43.05002 -23.169,-23.09725 -44.1176,-39.406093 -70.4306,-54.831423 -38.0377,-22.29857 -78.5512,-33.49765 -114.642,-31.69027 -6.3408,0.31754 -29.0788,0.81164 -50.5288,1.09801 -24.8831,0.33219 -44.4296,1.09238 -54,2.10013 -22.2066,2.33831 -43.6507,3.02083 -65,2.0688 -10.45,-0.466 -26.65,-0.56859 -36,-0.22798 -9.35,0.34061 -29.6,0.71232 -45,0.82602 l -28,0.20673 -4.5,2.73796 c -2.475,1.50587 -5.2755,2.74337 -6.2233,2.75 -2.1998,0.0154 -10.7767,4.15491 -10.7767,5.20127 0,0.43488 -4.05,2.82473 -9.00001,5.31077 -4.95,2.48604 -9,4.95641 -9,5.48971 0,1.20497 -7.30948,5.01029 -9.62405,5.01029 -2.28732,0 -18.99905,8.6231 -21.4375,11.06155 -1.06615,1.06615 -2.85638,1.93845 -3.97829,1.93845 -1.12191,0 -3.71997,0.85714 -5.77347,1.90476 -2.0535,1.04761 -5.8986,2.22941 -8.54466,2.62621 -2.84869,0.42719 -9.83281,3.32124 -17.12274,7.095253 -6.77143,3.50558 -13.00266,6.37378 -13.84717,6.37378 -0.8445,0 -5.69605,2.025 -10.78121,4.5 -5.08516,2.475 -9.84691,4.5 -10.58166,4.5 -1.10652,0 -16.89358,7.82822 -33.15012,16.43793 -5.75338,3.04707 -17.89936,15.96535 -19.11021,20.32532 -0.57077,2.05521 -1.04028,7.23435 -1.04334,11.5092 l -0.006,7.77245 7.5409,8.0635 c 8.70835,9.31186 17.2097,20.42136 20.57832,26.8916 1.99312,3.82824 2.33477,5.91815 2.28871,14 -0.0705,12.36273 -2.83073,21.65353 -9.97254,33.56668 -3.0197,5.03781 -5.43497,10.27332 -5.43497,11.78212 0,5.72813 6.47252,16.6512 9.86675,16.6512 1.03343,0 2.74914,-1.7511 4.13945,-4.22483 3.67554,-6.53973 14.77852,-17.03212 21.53228,-20.34814 5.50483,-2.7028 6.71748,-2.91069 15.82956,-2.71367 17.21793,0.37227 22.41358,3.00195 28.09916,14.22191 4.95025,9.76884 5.87634,15.31041 5.19147,31.06473 -0.71794,16.51509 -2.13629,23.02688 -7.21,33.10192 -1.96737,3.90668 -3.31511,7.36498 -2.99498,7.68511 0.32014,0.32013 3.69722,-0.92496 7.50464,-2.76687 5.25964,-2.54445 8.07794,-3.30667 11.73213,-3.17298 12.71411,0.46513 21.85539,7.21636 29.19562,21.56223 3.04886,5.95873 3.3218,7.16478 2.74059,12.10993 -0.35502,3.02066 -2.48945,9.65204 -4.74318,14.73639 -7.74814,17.47957 -8.99251,20.82541 -8.41823,22.63481 0.31664,0.99764 2.85191,3.05276 5.63393,4.56693 2.78202,1.51416 5.93029,4.16816 6.99616,5.89778 2.82584,4.58557 5.55219,14.12893 6.32632,22.14475 0.84433,8.74266 2.0618,11.92134 5.42946,14.1757 2.37936,1.59279 5.55573,1.7758 31.21888,1.79875 l 28.57,0.0256 -0.7603,-4 c -0.4182,-2.2 -0.2842,-8.49285 0.2976,-13.9841 1.3144,-12.40412 0.7336,-20.65584 -2.1989,-31.2411 l -2.2786,-8.2252 -6.8254,-4.05493 c -8.5804,-5.09748 -18.3784,-14.10218 -21.0564,-19.35135 -1.1279,-2.21086 -3.2534,-7.4181 -4.7234,-11.57164 -2.3431,-6.62031 -3.1614,-7.82666 -6.63369,-9.77928 -2.94826,-1.65793 -4.90151,-2.07809 -7.63992,-1.64344 -3.06202,0.48602 -4.11016,0.15279 -6.25,-1.98705 -3.24378,-3.24378 -3.28706,-7.03676 -0.11645,-10.20736 2.77009,-2.7701 6.23057,-3.1516 9.10432,-1.00372 1.25749,0.93987 3.19432,1.25784 5.49944,0.90284 3.3797,-0.52047 20.1772,1.05389 24.4417,2.29081 1.4337,0.41584 0.8806,-0.58437 -1.953,-3.53219 -2.1741,-2.26181 -4.782,-4.11234 -5.7954,-4.11234 -1.0134,0 -2.9471,-1.10455 -4.2971,-2.45455 -3.3402,-3.34023 -3.264,-7.76351 0.1804,-10.47287 3.258,-2.56277 6.3653,-2.63738 9.4802,-0.22766 1.3117,1.01471 3.8686,2.13271 5.6821,2.48444 4.1216,0.79942 9.7662,4.66822 18.4528,12.64746 l 6.75,6.20036 0,-4.18086 c 0,-2.66667 -0.7244,-5.10172 -2,-6.72345 -4.1144,-5.23057 -1.2192,-12.27287 5.0454,-12.27287 2.8183,0 4.2605,1.03311 8.5923,6.1548 0.6258,0.73986 2.7478,2.58951 4.7156,4.11033 5.1508,3.98085 5.961,8.07579 5.4396,27.49182 l -0.4366,16.25695 2.3218,-2.18126 c 1.2771,-1.1997 2.3219,-2.79828 2.3219,-3.55241 0,-2.30119 4.7519,-6.28023 7.5,-6.28023 3.3341,0 7.5,4.16589 7.5,7.5 0,1.425 -1.0574,3.64828 -2.3497,4.94062 -1.4326,1.4326 -2.586,4.07381 -2.9552,6.76706 -0.333,2.42954 -1.5256,6.56403 -2.6503,9.18774 -3.7214,8.68173 -2.8714,11.82696 5.6258,20.81698 7.0631,7.47271 10.9609,15.98736 15.4021,33.64591 l 3.6112,14.35832 4.1556,-6.57988 c 6.0361,-9.55756 9.3679,-20.2486 9.389,-30.12792 0.019,-8.8298 -1.5252,-14.17718 -6.1988,-21.46614 -3.7562,-5.85831 -4.7041,-10.34949 -5.982,-28.34281 -0.8887,-12.51241 -1.4334,-15.52744 -3.5652,-19.73434 -1.7712,-3.4953 -3.1168,-4.96554 -4.5448,-4.96554 -3.0873,0 -6.9377,-4.41481 -6.9377,-7.95455 0,-3.6642 3.0752,-7.04545 6.4077,-7.04545 3.4112,0 12.0001,4.55454 19.5047,10.34302 3.5269,2.72033 6.1465,4.25285 5.8214,3.4056 -0.3251,-0.84724 -1.1445,-3.38728 -1.8208,-5.64453 -0.6763,-2.25725 -1.6288,-4.10409 -2.1167,-4.10409 -2.1113,0 -5.7963,-5.05711 -5.7963,-7.95455 0,-6.83668 7.94,-9.44737 12.8488,-4.22469 1.4582,1.55141 5.2086,4.45157 8.3343,6.44478 6.9462,4.4295 13.044,11.92545 15.4268,18.96398 l 1.7842,5.27048 1.1196,-5.5 c 0.887,-4.35749 0.8461,-5.90975 -0.197,-7.47251 -2.003,-3.00059 -1.5826,-6.35253 1.1378,-9.07294 3.1663,-3.16626 6.9637,-3.12723 10.1957,0.10479 1.9823,1.98224 2.454,3.27758 2.0919,5.74469 -0.2572,1.7522 0.1276,4.09373 0.8553,5.2043 2.5992,3.96681 4.629,14.51188 3.9254,20.39228 -1.0371,8.66773 -4.312,20.66793 -8.4872,31.09939 -3.6206,9.04597 -3.8561,10.33637 -4.9278,27 -1.2594,19.58221 -1.4047,30.55481 -0.4927,37.20879 l 0.6152,4.48794 6.6348,1.20536 c 3.6492,0.66294 10.2349,2.34673 14.6349,3.74175 6.7758,2.14826 9.1148,2.43922 15.2852,1.90139 9.5499,-0.83241 10.3311,-1.163 9.1674,-3.87929 -1.6884,-3.94082 -7.81,-28.88467 -11.5753,-47.16594 -3.3891,-16.45479 -3.7277,-19.58813 -3.9442,-36.5 -0.2759,-21.55707 0.1914,-27.99307 5.6252,-77.46385 2.233,-20.33012 4.4642,-45.30512 4.9583,-55.5 0.9601,-19.81099 2.6922,-29.07485 7.6725,-41.03615 3.5122,-8.43539 10.1796,-19.43315 15.3256,-25.27931 l 4.0828,-4.63839 -2.594,-5.48336 c -3.5482,-7.50014 -9.6031,-13.943 -22.7317,-24.18796 -10.7847,-8.41592 -11.2251,-8.64885 -14.2709,-7.54745 -4.5597,1.6488 -8.0561,1.40403 -12.5273,-0.87699 -4.4363,-2.26323 -7.9736,-8.02442 -7.9736,-12.98654 0,-7.60944 7.3906,-15 15,-15 7.621,0 15,7.39142 15,15.02523 0,2.90336 0.5031,3.33338 7.75,6.62453 21.655,9.83452 30.5525,14.78717 42.9207,23.89111 2.049,1.50819 2.582,1.37572 9.5,-2.36116 11.346,-6.12864 36.5728,-14.21883 48.8293,-15.65944 17.3495,-2.03923 24.5423,-2.48762 40.151,-2.50294 l 17.6511,-0.0173 -1.8972,-8.68177 c -2.0977,-9.59926 -4.9586,-17.85509 -8.1672,-23.56823 -1.8649,-3.3208 -2.5473,-3.75 -5.9617,-3.75 -8.3616,0 -15.776,-7.049673 -15.776,-15.000003 0,-4.96212 3.5373,-10.72331 7.9736,-12.98654 4.9985,-2.55004 9.0543,-2.55004 14.0528,0 6.7811,3.45947 9.3145,11.07134 6.5138,19.57109 -0.5436,1.64967 0.9452,3.99133 7.1364,11.224583 8.7627,10.23747 17.2535,23.15355 20.5654,31.28404 1.2114,2.97376 2.2681,5.53499 2.3484,5.69163 0.08,0.15664 5.0442,1.59719 11.0311,3.20122 62.5591,16.76119 105.31406,63.81754 121.76386,134.01398 5.2986,22.61069 6.0956,31.1618 6.1055,65.5 0.01,34.51289 -0.789,43.07886 -6.155,66 -9.0055,38.46767 -31.4126,77.59605 -57.70186,100.76185 -14.279,12.58246 -35.5626,24.76055 -52.8705,30.25148 -15.936,5.05572 -17.6003,7.30218 -47.7751,64.48667 -11.7584,22.28328 -18.2079,32.47635 -29.1796,46.11648 -15.5155,19.28898 -29.3306,29.99292 -53.9134,41.77223 -22.7947,10.92255 -42.0225,17.14101 -73.0281,23.6181 -9.552,1.99542 -21.6423,4.69327 -26.8673,5.99523 -27.6717,6.8952 -76.8331,13.72817 -129.9039,18.0554 -26.9167,2.19471 -57.14021,1.59736 -71.7755,-1.4186 -10.52394,-2.16872 -74.42424,-10.51856 -93.82061,-12.25952 -29.32182,-2.63185 -32.36812,-3.00875 -63.5,-7.85647 -7.425,-1.15619 -17.03421,-2.5542 -21.3538,-3.10669 -11.48128,-1.46851 -29.66477,-6.40215 -38.29944,-10.39161 -18.39407,-8.49859 -30.90924,-21.22012 -36.30525,-36.9039 -7.62055,-22.14952 -2.90463,-71.52551 9.89685,-103.62065 4.80107,-12.03698 6.5469,-21.00431 6.42467,-33 -0.11183,-10.97402 -2.29986,-18.01034 -7.86834,-25.30316 -3.42557,-4.48633 -14.18002,-13.17118 -34.97084,-28.24099 -10.87893,-7.88537 -11.02952,-7.95537 -17,-7.90209 -4.17633,0.0373 -7.31511,0.72734 -10.23401,2.25 -8.32785,4.34424 -17.08241,1.92473 -19.91996,-5.50531 -2.18935,-5.73272 -1.31315,-16.56429 2.10688,-26.04542 1.38778,-3.84725 2.52324,-8.11954 2.52324,-9.49397 0,-1.37443 -1.39762,-7.16999 -3.10581,-12.87902 -4.17889,-13.96639 -5.81902,-23.60242 -5.85175,-34.38004 -0.0513,-16.88576 3.12676,-28.73917 10.05543,-37.5046 7.06665,-8.93998 15.4821,-12.89701 28.63238,-13.46323 7.04799,-0.30347 7.36309,-0.43082 12.5,-5.05203 11.40171,-10.25707 22.52416,-16.46617 30.84818,-17.22097 8.29846,-0.75248 12.47797,0.34527 17.05365,4.47912 12.47466,11.27011 10.41238,26.5037 -7.61206,56.2287 -3.71242,6.12233 -5.5119,10.15607 -5.49523,12.31817 0.0949,12.30244 31.20394,31.4612 67.80022,41.75527 l 10.32501,2.9043 8.67499,-4.35072 c 14.96755,-7.5066 26.86176,-10.87031 40.18331,-11.36395 13.5377,-0.50164 20.64667,1.09993 27.25498,6.14025 5.6507,4.30994 8.38275,8.61209 9.80591,15.44137 1.42852,6.855 0.66303,22.35659 -1.48845,30.14182 -0.8289,2.99942 -1.32204,5.63856 -1.09585,5.86474 0.35522,0.35522 11.16797,-2.1142 26.43132,-6.03641 5.66037,-1.45454 10.75613,-5.94162 12.0539,-10.6141 0.5603,-2.01725 1.02123,-6.40125 1.02429,-9.74221 0.005,-5.95445 -0.10561,-6.20146 -5.62083,-12.5 -14.13904,-16.14719 -15.32559,-28.21831 -4.83376,-49.17552 1.85859,-3.7125 3.05996,-6.74792 2.66971,-6.74537 -0.39025,0.003 -3.40954,1.11687 -6.70954,2.47627 -3.3,1.35939 -6.9127,2.48231 -8.02821,2.49536 -1.11552,0.0131 -5.2542,-1.52227 -9.19706,-3.41184 -5.22852,-2.5057 -8.03119,-4.60332 -10.3549,-7.75 -4.56093,-6.17623 -11.81755,-21.78605 -12.52014,-26.93227 -0.95002,-6.9585 1.02131,-14.84319 5.495,-21.97829 2.21169,-3.52744 4.46622,-8.66135 5.01005,-11.40869 1.1755,-5.93843 1.93261,-18.49517 1.11516,-18.49517 -1.80148,0 -5.28884,3.72661 -8.1231,8.68037 -4.60499,8.04869 -9.96465,12.97553 -18.55154,17.05343 -6.93189,3.29194 -7.95469,3.50518 -14.27211,2.97555 -8.99715,-0.75429 -12.05944,-2.19008 -21.57315,-10.11488 -12.90914,-10.75314 -21.48422,-27.14612 -22.28095,-42.59447 -0.39649,-7.68794 -0.14318,-9.26429 2.65144,-16.5 1.69939,-4.4 4.73726,-10.475 6.75082,-13.5 3.00916,-4.52072 3.64569,-6.35783 3.57499,-10.31791 -0.11041,-6.18406 -1.75573,-11.20647 -5.24663,-16.01557 -3.94528,-5.43507 -9.27375,-9.04822 -21.12165,-14.32227 l -10.32802,-4.59748 -13.27885,0.12996 -13.27885,0.12996 -7.94895,3.99666 c -4.37193,2.19816 -8.69262,3.99665 -9.60154,3.99665 -1.8897,0 -15.39181,7.08311 -15.39181,8.07443 0,0.35946 -1.87474,1.95227 -4.16609,3.53957 -2.29136,1.5873 -7.35688,6.04541 -11.25674,9.90691 -5.05113,5.00147 -9.53358,8.26675 -15.5839,11.35225 -4.6713,2.38224 -8.82011,4.90132 -9.21957,5.59796 -0.39947,0.69663 -2.08697,1.83021 -3.75,2.51906 -1.66304,0.68886 -3.0237,1.64047 -3.0237,2.11471 0,0.47424 -4.99851,3.35641 -11.10781,6.40482 -6.10929,3.0484 -12.97179,6.82026 -15.25,8.3819 -5.88432,4.03352 -13.33021,7.57747 -19.14219,9.11094 -2.75,0.72557 -8.92851,3.27183 -13.73002,5.65834 -4.80151,2.38651 -9.35264,4.33911 -10.11363,4.33911 -0.76099,0 -2.45749,1.0507 -3.76999,2.33488 -1.3125,1.28419 -4.68501,3.57096 -7.49447,5.08171 -5.2543,2.82543 -6.84322,4.20614 -12.754738,11.08341 -1.89106,2.2 -5.96212,6.74497 -9.0468,10.09993 -6.46879,7.03559 -9.31281,13.28267 -13.52704,29.71304 -4.38621,17.10091 -6.42276,35.29059 -6.34678,56.68703 0.0762,21.4589 1.65591,33.48369 6.88744,52.42754 3.97729,14.40211 8.47733,25.33313 30.905588,75.07246 12.8659,28.53282 21.70216,49.0366 25.56728,59.32665 7.85184,20.90384 23.97055,48.35961 40.61023,69.17335 9.3219,11.6603 30.73937,33.50675 42.81293,43.67046 13.45389,11.32568 35.55685,26.16398 57.17882,38.38564 41.949,23.71137 114.24287,56.99446 147.32118,67.82463 6.61757,2.16665 142.26931,26.02529 147.58701,25.95781 1.6021,-0.0203 8.988,1.09402 16.413,2.47634 14.578,2.71401 30.7677,4.57904 43.5,5.01113 4.4,0.14933 8.45,0.35045 9,0.44695 0.55,0.0965 5.5,-0.26055 11,-0.79342 z m 135.358,-392.90712 c 2.0782,-1.06017 5.4352,-3.76147 7.4602,-6.00288 2.8836,-3.19184 3.6818,-4.90038 3.6818,-7.88129 0,-4.21719 -1.0565,-5.8995 -5.5,-8.75822 -2.5789,-1.65911 -5.2578,-1.97681 -19.0841,-2.26325 -21.9685,-0.45514 -28.4159,1.5581 -28.4159,8.87306 0,3.32007 3.4724,10.96016 4.9814,10.96016 0.5174,0 1.8396,0.96483 2.9382,2.14406 2.834,3.04194 10.1052,4.71023 20.8702,4.78845 7.2959,0.053 10.1008,-0.34624 13.0682,-1.86009 z m 58.4065,-72.08297 c 16.9624,-5.26788 29.6889,-17.75882 44.1996,-43.38145 5.4377,-9.60177 15.7515,-31.05289 17.0363,-35.43295 0.6546,-2.23159 0.5076,-2.30351 -3.6592,-1.79125 -2.3877,0.29353 -7.2662,0.8111 -10.8412,1.15016 -29.8563,2.83159 -64.4191,20.1911 -76.586,38.46604 -3.142,4.7193 -7.0286,15.36743 -7.8632,21.54284 -0.6519,4.82402 0.7835,16.76208 2.3131,19.23703 2.1534,3.48423 24.4317,3.61612 35.4006,0.20958 z m -80.4025,-10.48945 c 3.2494,-9.33177 4.0276,-25.05833 1.7252,-34.86487 -3.8843,-16.5447 -17.0088,-34.73409 -29.0349,-40.23981 -3.1242,-1.43031 -5.9236,-2.35734 -6.2209,-2.06006 -1.2543,1.25427 -1.5003,22.38393 -0.4416,37.9245 1.7579,25.80354 4.1577,34.62443 11.2726,41.4352 4.4855,4.29384 7.2424,5.26038 14.2999,5.01356 l 5.9623,-0.20852 2.4374,-7 z"
     id="path2995"
     inkscape:connector-curvature="0" />
</svg>
