<?xml version="1.0" encoding="UTF-8" standalone="no"?>
<!-- Created with Inkscape (http://www.inkscape.org/) -->

<svg
   xmlns:dc="http://purl.org/dc/elements/1.1/"
   xmlns:cc="http://creativecommons.org/ns#"
   xmlns:rdf="http://www.w3.org/1999/02/22-rdf-syntax-ns#"
   xmlns:svg="http://www.w3.org/2000/svg"
   xmlns="http://www.w3.org/2000/svg"
   xmlns:sodipodi="http://sodipodi.sourceforge.net/DTD/sodipodi-0.dtd"
   xmlns:inkscape="http://www.inkscape.org/namespaces/inkscape"
   id="svg3003"
   version="1.1"
   inkscape:version="0.48.4 r9939"
   width="1300"
   height="900"
   sodipodi:docname="!0wn-mod3-cord-7.png">
  <metadata
     id="metadata3009">
    <rdf:RDF>
      <cc:Work
         rdf:about="">
        <dc:format>image/svg+xml</dc:format>
        <dc:type
           rdf:resource="http://purl.org/dc/dcmitype/StillImage" />
        <dc:title></dc:title>
      </cc:Work>
    </rdf:RDF>
  </metadata>
  <defs
     id="defs3007" />
  <sodipodi:namedview
     pagecolor="#ffffff"
     bordercolor="#666666"
     borderopacity="1"
     objecttolerance="10"
     gridtolerance="10"
     guidetolerance="10"
     inkscape:pageopacity="0"
     inkscape:pageshadow="2"
     inkscape:window-width="1280"
     inkscape:window-height="977"
     id="namedview3005"
     showgrid="false"
     inkscape:zoom="0.80333333"
     inkscape:cx="650"
     inkscape:cy="450"
     inkscape:window-x="-4"
     inkscape:window-y="-4"
     inkscape:window-maximized="1"
     inkscape:current-layer="svg3003" />
  <path
     style="fill:#000000"
     d="m 639.08299,842.95387 c -13.73707,-1.21779 -31.47813,-3.86959 -46.5,-6.95048 -9.35,-1.91763 -43.55,-7.97566 -76,-13.4623 -64.86886,-10.96801 -64.0854,-10.82088 -80.5,-15.11743 -41.18776,-10.78097 -142.2387,-59.47233 -186,-89.62404 -16.64789,-11.47047 -28.05592,-21.15758 -45.53353,-38.6647 -18.15134,-18.18201 -27.60838,-29.39531 -39.69123,-47.0623 -14.27319,-20.86959 -20.76812,-33.23522 -30.46391,-58 -3.01467,-7.7 -9.10565,-21.875 -13.5355,-31.5 -10.88986,-23.66103 -31.350504,-69.87561 -34.754404,-78.5 -5.26174,-13.33156 -8.98489,-26.06333 -11.69718,-40 -2.51948,-12.94594 -2.72745,-15.9199 -2.76227,-39.5 -0.0423,-28.67659 1.04564,-38.20387 6.92031,-60.60019 6.36421,-24.26257 15.47511,-44.80053 29.170174,-65.75592 3.54272,-5.42086 9.79803,-16.55836 13.90068,-24.75 4.10266,-8.19164 7.83822,-14.89389 8.30124,-14.89389 0.46303,0 1.66314,-1.82125 2.66691,-4.04722 1.00378,-2.22597 2.36357,-4.36347 3.02177,-4.75 0.6582,-0.38653 2.16442,-2.61528 3.34716,-4.95278 1.18273,-2.3375 2.56096,-4.25 3.06272,-4.25 0.50175,0 1.20653,-0.92708 1.56616,-2.06017 0.35963,-1.13309 2.52745,-3.96963 4.81738,-6.30342 5.18657,-5.28589 8.66352,-10.10628 8.66352,-12.01097 0,-1.51946 2.26543,-4.52551 7.74323,-10.27467 1.78377,-1.87214 4.13872,-5.15922 5.23323,-7.30462 1.0945,-2.1454 2.89755,-4.18877 4.00677,-4.54083 1.10922,-0.35205 2.01677,-1.0164 2.01677,-1.47632 0,-0.7657 4.10319,-5.84894 8.15128,-10.09821 0.9082,-0.95334 1.92252,-2.58794 2.25403,-3.63244 0.33151,-1.0445 1.95611,-3.00142 3.61022,-4.34872 2.87128,-2.33871 7.15247,-6.20005 20.48447,-18.47559 6.02303,-5.54575 13.70072,-12.9675 16.5,-15.94997 1.49269,-1.59036 3.25017,-2.96704 18.5,-14.491486 4.4,-3.32512 10.025,-7.993755 12.5,-10.374735 2.55129,-2.454377 9.37176,-6.847969 15.75,-10.145795 6.1875,-3.199208 11.25,-6.205468 11.25,-6.680579 0,-0.475111 1.575,-1.614903 3.5,-2.532872 1.925,-0.917968 3.5,-2.025573 3.5,-2.461343 0,-1.154228 27.70269,-14.466701 33,-15.858087 2.475,-0.65008 6.525,-2.015024 9,-3.033209 2.475,-1.018185 6.075,-2.125695 8,-2.461133 3.42852,-0.59743 4.36642,-0.860612 12.5,-3.507586 2.2,-0.715963 6.7,-1.872884 10,-2.570937 3.3,-0.698053 8.025,-1.714442 10.5,-2.258643 2.475,-0.544201 8.1,-1.512536 12.5,-2.151854 4.4,-0.639319 10.25,-1.552501 13,-2.029295 2.75,-0.476793 37.96164,-0.847251 78.24808,-0.823241 40.28645,0.02401 77.41145,-0.258502 82.5,-0.627805 5.08856,-0.369304 42.10192,-0.797424 82.25192,-0.951379 57.27357,-0.219616 76.77003,-0.625587 90.5,-1.884466 9.625,-0.882502 39.55,-2.119276 66.5,-2.748388 50.46511,-1.178041 54.81716,-1.031463 78.02863,2.628014 41.6365,6.564336 89.42042,30.581696 131.97138,66.332023 11.8705,9.9733 40.4667,38.570536 48.4314,48.433176 11.5,14.24029 21.1838,29.90816 31.265,50.58478 14.5041,29.74804 21.4633,48.23034 28.8392,76.59077 8.1098,31.18236 11.8089,58.24004 12.6458,92.5 0.8516,34.86594 -1.7262,64.07693 -7.7287,87.57887 -12.388,48.50343 -60.051,141.78159 -108.2869,211.92113 -23.47111,34.12928 -42.6311,57.26853 -59.7664,72.179 -61.77407,53.75342 -157.09719,95.21119 -264.11588,114.86885 -13.97292,2.5666 -40.02054,3.96483 -52.78353,2.8334 z m 30.5,-19.40171 c 19.74704,-1.91322 60.10014,-10.77326 91.37127,-20.06173 78.22331,-23.23468 146.9075,-59.14248 187.67318,-98.11473 46.82525,-44.76523 126.33486,-177.43765 151.46076,-252.7325 8.0131,-24.01292 11.4213,-45.66161 12.6058,-80.07058 1.7239,-50.08069 -7.3926,-103.0724 -25.6403,-149.03952 -6.5152,-16.41197 -22.418,-48.0028 -29.6808,-58.96048 -10.8269,-16.3349 -18.2582,-25.17521 -36.1885,-43.05003 -23.16901,-23.097246 -44.11759,-39.406087 -70.43062,-54.831416 -38.03764,-22.298567 -78.55119,-33.497652 -114.642,-31.69027 -6.34083,0.317541 -29.07879,0.811644 -50.52879,1.098008 -24.88314,0.332196 -44.42956,1.092383 -54,2.100133 -22.20658,2.338312 -43.65071,3.020828 -65,2.068796 -10.45,-0.465998 -26.65,-0.57391 -36,-0.239803 -9.35,0.334106 -27.575,0.74645 -40.5,0.916319 -22.49476,0.295642 -23.85862,0.426293 -31.88374,3.054309 -4.61105,1.510001 -11.13605,4.234831 -14.5,6.055178 -7.03691,3.807916 -10.50624,5.610942 -16.11626,8.375671 -2.2,1.084204 -6.925,3.574719 -10.5,5.534477 -3.575,1.959758 -7.36125,3.573417 -8.41389,3.585909 -2.47003,0.02931 -19.11591,8.552512 -21.64766,11.084263 -1.06615,1.066148 -2.85638,1.93845 -3.97829,1.93845 -1.12191,0 -3.71997,0.857141 -5.77347,1.904757 -2.0535,1.047613 -5.8986,2.229413 -8.54466,2.626213 -2.84869,0.42719 -9.83281,3.32124 -17.12274,7.09525 -6.77143,3.50558 -13.00266,6.37378 -13.84717,6.37378 -0.8445,0 -5.69605,2.024996 -10.78121,4.499996 -5.08516,2.475 -9.84691,4.5 -10.58166,4.5 -1.10652,0 -16.89358,7.82822 -33.15012,16.43793 -5.75338,3.04707 -17.89936,15.96536 -19.11021,20.32533 -0.57077,2.05521 -1.04028,7.23435 -1.04334,11.5092 l -0.006,7.77245 7.5409,8.0635 c 8.70835,9.31186 17.2097,20.42136 20.57832,26.8916 1.99312,3.82824 2.33477,5.91815 2.28871,14 -0.0705,12.36273 -2.83073,21.65353 -9.97254,33.56668 -3.0197,5.03781 -5.43497,10.27332 -5.43497,11.78212 0,5.72813 6.47252,16.6512 9.86675,16.6512 1.03343,0 2.74914,-1.7511 4.13945,-4.22483 3.67554,-6.53973 14.77852,-17.03212 21.53228,-20.34814 5.50483,-2.7028 6.71748,-2.91069 15.82956,-2.71367 17.21793,0.37227 22.41358,3.00195 28.09916,14.22191 4.95025,9.76884 5.87634,15.31041 5.19147,31.06473 -0.71794,16.51509 -2.13629,23.02688 -7.21,33.10192 -1.96737,3.90668 -3.31511,7.36498 -2.99498,7.68511 0.32014,0.32013 3.69722,-0.92496 7.50464,-2.76687 5.25964,-2.54445 8.07794,-3.30667 11.73213,-3.17298 12.71411,0.46513 21.85539,7.21636 29.19562,21.56223 3.04886,5.95873 3.3218,7.16478 2.74059,12.10993 -0.35502,3.02066 -2.48945,9.65204 -4.74318,14.73639 -7.74814,17.47957 -8.99251,20.82541 -8.41823,22.63481 0.31664,0.99764 2.85191,3.05276 5.63393,4.56693 2.78202,1.51416 5.93029,4.16816 6.99616,5.89778 2.82584,4.58557 5.55219,14.12893 6.32632,22.14475 0.84433,8.74266 2.0618,11.92134 5.42946,14.1757 2.37936,1.59279 5.55573,1.7758 31.21888,1.79875 l 28.57001,0.0256 -0.7603,-4 c -0.41817,-2.2 -0.28424,-8.49285 0.29761,-13.9841 1.31433,-12.40412 0.73354,-20.65584 -2.19889,-31.2411 l -2.27862,-8.2252 -6.82545,-4.05493 c -8.58034,-5.09748 -18.37841,-14.10218 -21.05633,-19.35135 -1.1279,-2.21086 -3.25346,-7.4181 -4.72346,-11.57164 -2.34304,-6.62031 -3.16135,-7.82666 -6.63366,-9.77928 -2.94826,-1.65793 -4.90151,-2.07809 -7.63992,-1.64344 -3.06202,0.48602 -4.11016,0.15279 -6.25,-1.98705 -3.24378,-3.24378 -3.28706,-7.03676 -0.11645,-10.20736 2.77009,-2.7701 6.23057,-3.1516 9.10432,-1.00372 1.25749,0.93987 3.19432,1.25784 5.49945,0.90284 3.37965,-0.52047 20.17718,1.05389 24.44168,2.29081 1.43366,0.41584 0.88065,-0.58437 -1.95295,-3.53219 -2.17412,-2.26181 -4.78207,-4.11234 -5.79545,-4.11234 -1.01338,0 -2.94705,-1.10455 -4.29705,-2.45455 -3.34023,-3.34023 -3.26408,-7.76351 0.18031,-10.47287 3.25803,-2.56277 6.36532,-2.63738 9.48028,-0.22766 1.31167,1.01471 3.86861,2.13271 5.68207,2.48444 4.12161,0.79942 9.76623,4.66822 18.45279,12.64746 l 6.75,6.20036 0,-4.18086 c 0,-2.66667 -0.72435,-5.10172 -2,-6.72345 -4.11437,-5.23057 -1.21924,-12.27287 5.04545,-12.27287 2.81823,0 4.26048,1.03311 8.59229,6.1548 0.62576,0.73986 2.74775,2.58951 4.71553,4.11033 5.15082,3.98085 5.96105,8.07579 5.43962,27.49182 l -0.43659,16.25695 2.32185,-2.18126 c 1.27702,-1.1997 2.32185,-2.79828 2.32185,-3.55241 0,-2.30119 4.75187,-6.28023 7.5,-6.28023 3.33411,0 7.5,4.16589 7.5,7.5 0,1.425 -1.05737,3.64828 -2.34971,4.94062 -1.4326,1.4326 -2.58602,4.07381 -2.95517,6.76706 -0.333,2.42954 -1.52564,6.56403 -2.65029,9.18774 -3.72143,8.68173 -2.87143,11.82696 5.62579,20.81698 7.06309,7.47271 10.96084,15.98736 15.40208,33.64591 l 3.61121,14.35832 4.15557,-6.57988 c 6.03614,-9.55756 9.36789,-20.2486 9.38906,-30.12792 0.0189,-8.8298 -1.52525,-14.17718 -6.1988,-21.46614 -3.75625,-5.85831 -4.70417,-10.34949 -5.98207,-28.34281 -0.88865,-12.51241 -1.43334,-15.52744 -3.56513,-19.73434 -1.77121,-3.4953 -3.11688,-4.96554 -4.54484,-4.96554 -3.08725,0 -6.9377,-4.41481 -6.9377,-7.95455 0,-3.6642 3.07519,-7.04545 6.40771,-7.04545 3.41122,0 12.00011,4.55454 19.50474,10.34302 3.52685,2.72033 6.14645,4.25285 5.82133,3.4056 -0.32512,-0.84724 -1.14445,-3.38728 -1.82074,-5.64453 -0.67629,-2.25725 -1.62884,-4.10409 -2.11678,-4.10409 -2.11128,0 -5.79626,-5.05711 -5.79626,-7.95455 0,-6.83668 7.94003,-9.44737 12.84879,-4.22469 1.45817,1.55141 5.20861,4.45157 8.33431,6.44478 6.94622,4.4295 13.04402,11.92545 15.4268,18.96398 l 1.78423,5.27048 1.11959,-5.5 c 0.88703,-4.35749 0.84609,-5.90975 -0.19706,-7.47251 -2.00292,-3.00059 -1.58253,-6.35253 1.13789,-9.07294 3.16625,-3.16626 6.96368,-3.12723 10.1957,0.10479 1.98224,1.98224 2.45391,3.27758 2.09182,5.74469 -0.25717,1.7522 0.12767,4.09373 0.85535,5.2043 2.59915,3.96681 4.62902,14.51188 3.9254,20.39228 -1.03714,8.66773 -4.31205,20.66793 -8.48718,31.09939 -3.6206,9.04597 -3.85611,10.33637 -4.92782,27 -1.25942,19.58221 -1.40471,30.55481 -0.49268,37.20879 l 0.61514,4.48794 6.63486,1.20536 c 3.64917,0.66294 10.23486,2.34673 14.63486,3.74175 6.77579,2.14826 9.11482,2.43922 15.28519,1.90139 9.54988,-0.83241 10.33112,-1.163 9.16737,-3.87929 -1.68839,-3.94082 -7.81,-28.88467 -11.57526,-47.16594 -3.38908,-16.45479 -3.72767,-19.58813 -3.94416,-36.5 -0.27596,-21.55707 0.1914,-27.99307 5.62513,-77.46385 2.233,-20.33012 4.46426,-45.30512 4.95835,-55.5 0.96013,-19.81099 2.69217,-29.07485 7.67244,-41.03615 3.5122,-8.43539 10.1796,-19.43315 15.3256,-25.27931 l 4.08287,-4.63839 -2.59405,-5.48336 c -3.54814,-7.50014 -9.60308,-13.943 -22.73163,-24.18796 -10.7847,-8.41592 -11.22513,-8.64885 -14.27099,-7.54745 -4.55968,1.6488 -8.05607,1.40403 -12.52724,-0.87699 -4.4363,-2.26323 -7.97362,-8.02443 -7.97362,-12.98655 0,-7.60944 7.39056,-15 15,-15 7.62099,0 15,7.39142 15,15.02523 0,2.90336 0.50308,3.33338 7.75,6.62453 21.65499,9.83453 30.5525,14.78718 42.92075,23.89112 2.04896,1.50819 2.58193,1.37572 9.5,-2.36116 11.34593,-6.12864 36.57275,-14.21883 48.82925,-15.65944 17.34946,-2.03923 24.54231,-2.48762 40.15105,-2.50294 l 17.65105,-0.0173 -1.89721,-8.68178 c -2.09771,-9.59926 -4.95862,-17.85509 -8.16715,-23.568226 -1.86498,-3.3208 -2.54732,-3.75 -5.96172,-3.75 -8.36164,0 -15.77602,-7.04967 -15.77602,-15 0,-4.962121 3.53732,-10.723309 7.97362,-12.986542 4.99848,-2.550035 9.05428,-2.550035 14.05276,0 6.78112,3.459468 9.31455,11.071339 6.51378,19.571092 -0.54359,1.64967 0.94521,3.99133 7.13648,11.22458 8.7627,10.237466 17.25342,23.153546 20.56537,31.284036 1.21136,2.97377 2.26812,5.535 2.34837,5.69164 0.0802,0.15664 5.04423,1.59719 11.03108,3.20122 62.55914,16.76119 105.31415,63.81754 121.76395,134.01398 5.2986,22.61069 6.0956,31.1618 6.1055,65.5 0.01,34.51289 -0.789,43.07886 -6.155,66 -9.0055,38.46767 -31.4126,77.59605 -57.7019,100.76185 -14.27901,12.58246 -35.56264,24.76055 -52.87048,30.25148 -15.93603,5.05572 -17.60032,7.30218 -47.77517,64.48667 -11.75834,22.28328 -18.20787,32.47635 -29.17959,46.11648 -15.51548,19.28898 -29.33052,29.99292 -53.91332,41.77223 -22.79478,10.92255 -42.02254,17.14101 -73.02817,23.6181 -9.55201,1.99542 -21.64228,4.69327 -26.86728,5.99523 -27.67169,6.8952 -76.83313,13.72817 -129.90392,18.0554 -26.91669,2.19471 -57.14018,1.59736 -71.77547,-1.4186 -10.52394,-2.16872 -74.42424,-10.51856 -93.82061,-12.25952 -29.32182,-2.63185 -32.36812,-3.00875 -63.5,-7.85647 -7.425,-1.15619 -17.03421,-2.5542 -21.3538,-3.10669 -11.48128,-1.46851 -29.66477,-6.40215 -38.29944,-10.39161 -18.39407,-8.49859 -30.90924,-21.22012 -36.30525,-36.9039 -7.62055,-22.14952 -2.90463,-71.52551 9.89685,-103.62065 4.80107,-12.03698 6.5469,-21.00431 6.42467,-33 -0.11183,-10.97402 -2.29986,-18.01034 -7.86834,-25.30316 -3.42557,-4.48633 -14.18002,-13.17118 -34.97084,-28.24099 -10.87893,-7.88537 -11.02952,-7.95537 -17,-7.90209 -4.17633,0.0373 -7.31511,0.72734 -10.23401,2.25 -8.32785,4.34424 -17.08241,1.92473 -19.91996,-5.50531 -2.18935,-5.73272 -1.31315,-16.56429 2.10688,-26.04542 1.38778,-3.84725 2.52324,-8.11954 2.52324,-9.49397 0,-1.37443 -1.39762,-7.16999 -3.10581,-12.87902 -4.17889,-13.96639 -5.81902,-23.60242 -5.85175,-34.38004 -0.0513,-16.88576 3.12676,-28.73917 10.05543,-37.5046 7.06665,-8.93998 15.4821,-12.89701 28.63238,-13.46323 7.04799,-0.30347 7.36309,-0.43082 12.5,-5.05203 11.40171,-10.25707 22.52416,-16.46617 30.84818,-17.22097 8.29846,-0.75248 12.47797,0.34527 17.05365,4.47912 12.47466,11.27011 10.41238,26.5037 -7.61206,56.2287 -3.71242,6.12233 -5.5119,10.15607 -5.49523,12.31817 0.0949,12.30244 31.20394,31.4612 67.80022,41.75527 l 10.32501,2.9043 8.67499,-4.35072 c 14.96755,-7.5066 26.86176,-10.87031 40.18331,-11.36395 13.5377,-0.50164 20.64667,1.09993 27.25498,6.14025 5.6507,4.30994 8.38275,8.61209 9.80591,15.44137 1.42852,6.855 0.66303,22.35659 -1.48845,30.14182 -0.8289,2.99942 -1.32204,5.63856 -1.09585,5.86474 0.35522,0.35522 11.16797,-2.1142 26.43132,-6.03641 5.66037,-1.45454 10.75613,-5.94162 12.0539,-10.6141 0.5603,-2.01725 1.02123,-6.40125 1.02429,-9.74221 0.005,-5.95445 -0.10561,-6.20146 -5.62083,-12.5 -14.13904,-16.14719 -15.32559,-28.21831 -4.83376,-49.17552 1.85859,-3.7125 3.05996,-6.74792 2.66971,-6.74537 -0.39025,0.003 -3.40954,1.11687 -6.70954,2.47627 -3.3,1.35939 -6.9127,2.48231 -8.02821,2.49536 -1.11552,0.0131 -5.2542,-1.52227 -9.19706,-3.41184 -5.22852,-2.5057 -8.03119,-4.60332 -10.3549,-7.75 -4.56093,-6.17623 -11.81755,-21.78605 -12.52014,-26.93227 -0.95002,-6.9585 1.02131,-14.84319 5.495,-21.97829 2.21169,-3.52744 4.46622,-8.66135 5.01005,-11.40869 1.1755,-5.93843 1.93261,-18.49517 1.11516,-18.49517 -1.80148,0 -5.28884,3.72661 -8.1231,8.68037 -4.60499,8.04869 -9.96465,12.97553 -18.55154,17.05343 -6.93189,3.29194 -7.95469,3.50518 -14.27211,2.97555 -8.99715,-0.75429 -12.05944,-2.19008 -21.57315,-10.11488 -12.90914,-10.75314 -21.48422,-27.14612 -22.28095,-42.59447 -0.39649,-7.68794 -0.14318,-9.26429 2.65144,-16.5 1.69939,-4.4 4.73726,-10.475 6.75082,-13.5 3.00916,-4.52072 3.64569,-6.35783 3.57499,-10.31791 -0.11041,-6.18406 -1.75573,-11.20647 -5.24663,-16.01557 -3.94528,-5.43507 -9.27375,-9.04822 -21.12165,-14.32227 l -10.32802,-4.59748 -13.27885,0.12996 -13.27885,0.12996 -7.94895,3.99666 c -4.37193,2.19816 -8.69262,3.99665 -9.60154,3.99665 -1.8897,0 -15.39181,7.08311 -15.39181,8.07443 0,0.35946 -1.87474,1.95227 -4.16609,3.53957 -2.29136,1.5873 -7.35688,6.04541 -11.25674,9.90691 -5.05113,5.00147 -9.53358,8.26675 -15.5839,11.35225 -4.6713,2.38224 -8.82011,4.90132 -9.21957,5.59796 -0.39947,0.69663 -2.08697,1.83021 -3.75,2.51906 -1.66304,0.68886 -3.0237,1.64047 -3.0237,2.11471 0,0.47424 -4.99851,3.35641 -11.10781,6.40482 -6.10929,3.0484 -12.97179,6.82026 -15.25,8.3819 -5.88432,4.03352 -13.33021,7.57747 -19.14219,9.11094 -2.75,0.72557 -8.92851,3.27183 -13.73002,5.65834 -4.80151,2.38651 -9.35264,4.33911 -10.11363,4.33911 -0.76099,0 -2.45749,1.0507 -3.76999,2.33488 -1.3125,1.28419 -4.68501,3.57096 -7.49447,5.08171 -5.2543,2.82543 -6.84322,4.20614 -12.75474,11.08341 -1.89106,2.2 -5.96212,6.74497 -9.0468,10.09993 -6.46879,7.03559 -9.31281,13.28267 -13.527044,29.71304 -4.38621,17.10091 -6.42276,35.29059 -6.34678,56.68703 0.0762,21.4589 1.65591,33.48369 6.88744,52.42754 3.977294,14.40211 8.477334,25.33313 30.905594,75.07246 12.8659,28.53282 21.70216,49.0366 25.56728,59.32665 7.85184,20.90384 23.97055,48.35961 40.61023,69.17335 9.3219,11.6603 30.73937,33.50675 42.81293,43.67046 13.45389,11.32568 35.55685,26.16398 57.17882,38.38564 41.949,23.71137 114.24287,56.99446 147.32118,67.82463 6.61757,2.16665 142.26934,26.02529 147.58696,25.95781 1.60217,-0.0203 8.98804,1.09402 16.41304,2.47634 14.57801,2.71401 30.76775,4.57904 43.5,5.01113 4.4,0.14933 8.45,0.35045 9,0.44695 0.55,0.0965 5.5,-0.26055 11,-0.79342 z M 804.94104,430.64504 c 2.07811,-1.06017 5.43518,-3.76147 7.46016,-6.00288 2.88364,-3.19184 3.68179,-4.90038 3.68179,-7.88129 0,-4.21719 -1.05646,-5.8995 -5.5,-8.75822 -2.57888,-1.65911 -5.25775,-1.97681 -19.08407,-2.26325 -21.96852,-0.45514 -28.41593,1.5581 -28.41593,8.87306 0,3.32007 3.47241,10.96016 4.98137,10.96016 0.5174,0 1.83959,0.96483 2.93822,2.14406 2.83399,3.04194 10.10519,4.71023 20.87025,4.78845 7.2959,0.053 10.10081,-0.34624 13.06821,-1.86009 z m 58.4065,-72.08297 c 16.96239,-5.26788 29.68889,-17.75882 44.19955,-43.38145 5.4377,-9.60177 15.75146,-31.05289 17.03627,-35.43295 0.6546,-2.23159 0.50768,-2.30351 -3.6592,-1.79125 -2.38764,0.29353 -7.26617,0.8111 -10.84117,1.15016 -29.85626,2.83159 -64.41911,20.1911 -76.58604,38.46604 -3.14197,4.7193 -7.02853,15.36743 -7.86312,21.54284 -0.65196,4.82402 0.78351,16.76208 2.31311,19.23703 2.15338,3.48423 24.43165,3.61612 35.4006,0.20958 z M 782.945,348.07262 c 3.24938,-9.33177 4.02757,-25.05833 1.72521,-34.86487 -3.88433,-16.5447 -17.00882,-34.73409 -29.0349,-40.23981 -3.12422,-1.43031 -5.92363,-2.35734 -6.22091,-2.06006 -1.25428,1.25427 -1.5003,22.38393 -0.44158,37.9245 1.7579,25.80354 4.15764,34.62443 11.27254,41.4352 4.48558,4.29384 7.2424,5.26038 14.29991,5.01356 l 5.96228,-0.20852 2.43745,-7 z"
     id="path3013"
     inkscape:connector-curvature="0" />
</svg>
