  0
SECTION
  2
HEADER
  9
$ACADVER
  1
AC1014
  9
$HANDSEED
  5
FFFF
  9
$MEASUREMENT
 70
     1
  0
ENDSEC
  0
SECTION
  2
TABLES
  0
TABLE
  2
VPORT
  5
8
330
0
100
AcDbSymbolTable
 70
     4
  0
VPORT
  5
2E
330
8
100
AcDbSymbolTableRecord
100
AcDbViewportTableRecord
  2
*ACTIVE
 70
     0
 10
0.0
 20
0.0
 11
1.0
 21
1.0
 12
210.0
 22
148.5
 13
0.0
 23
0.0
 14
10.0
 24
10.0
 15
10.0
 25
10.0
 16
0.0
 26
0.0
 36
1.0
 17
0.0
 27
0.0
 37
0.0
 40
341.0
 41
1.24
 42
50.0
 43
0.0
 44
0.0
 50
0.0
 51
0.0
 71
     0
 72
   100
 73
     1
 74
     3
 75
     0
 76
     0
 77
     0
 78
     0
  0
ENDTAB
  0
TABLE
  2
LTYPE
  5
5
330
0
100
AcDbSymbolTable
 70
     1
  0
LTYPE
  5
14
330
5
100
AcDbSymbolTableRecord
100
AcDbLinetypeTableRecord
  2
BYBLOCK
 70
     0
  3

 72
    65
 73
     0
 40
0.0
  0
LTYPE
  5
15
330
5
100
AcDbSymbolTableRecord
100
AcDbLinetypeTableRecord
  2
BYLAYER
 70
     0
  3

 72
    65
 73
     0
 40
0.0
  0
LTYPE
  5
16
330
5
100
AcDbSymbolTableRecord
100
AcDbLinetypeTableRecord
  2
CONTINUOUS
 70
     0
  3
Solid line
 72
    65
 73
     0
 40
0.0
  0
ENDTAB
  0
TABLE
  2
LAYER
  5
2
100
AcDbSymbolTable
 70
1
  0
LAYER
  5
50
100
AcDbSymbolTableRecord
100
AcDbLayerTableRecord
  2
0
 70
0
  6
CONTINUOUS
  0
ENDTAB
  0
TABLE
  2
STYLE
  5
3
330
0
100
AcDbSymbolTable
 70
     1
  0
STYLE
  5
11
330
3
100
AcDbSymbolTableRecord
100
AcDbTextStyleTableRecord
  2
STANDARD
 70
     0
 40
0.0
 41
1.0
 50
0.0
 71
     0
 42
2.5
  3
txt
  4

  0
ENDTAB
  0
TABLE
  2
VIEW
  5
6
330
0
100
AcDbSymbolTable
 70
     0
  0
ENDTAB
  0
TABLE
  2
UCS
  5
7
330
0
100
AcDbSymbolTable
 70
     0
  0
ENDTAB
  0
TABLE
  2
APPID
  5
9
330
0
100
AcDbSymbolTable
 70
     2
  0
APPID
  5
12
330
9
100
AcDbSymbolTableRecord
100
AcDbRegAppTableRecord
  2
ACAD
 70
     0
  0
ENDTAB
  0
TABLE
  2
DIMSTYLE
  5
A
330
0
100
AcDbSymbolTable
 70
     1
  0
DIMSTYLE
105
27
330
A
100
AcDbSymbolTableRecord
100
AcDbDimStyleTableRecord
  2
ISO-25
 70
     0
  3

  4

  5

  6

  7

 40
1.0
 41
2.5
 42
0.625
 43
3.75
 44
1.25
 45
0.0
 46
0.0
 47
0.0
 48
0.0
140
2.5
141
2.5
142
0.0
143
0.03937007874016
144
1.0
145
0.0
146
1.0
147
0.625
 71
     0
 72
     0
 73
     0
 74
     0
 75
     0
 76
     0
 77
     1
 78
     8
170
     0
171
     3
172
     1
173
     0
174
     0
175
     0
176
     0
177
     0
178
     0
270
     2
271
     2
272
     2
273
     2
274
     3
340
11
275
     0
280
     0
281
     0
282
     0
283
     0
284
     8
285
     0
286
     0
287
     3
288
     0
  0
ENDTAB
  0
TABLE
  2
BLOCK_RECORD
  5
1
330
0
100
AcDbSymbolTable
 70
     1
  0
BLOCK_RECORD
  5
1F
330
1
100
AcDbSymbolTableRecord
100
AcDbBlockTableRecord
  2
*MODEL_SPACE
  0
BLOCK_RECORD
  5
1B
330
1
100
AcDbSymbolTableRecord
100
AcDbBlockTableRecord
  2
*PAPER_SPACE
  0
ENDTAB
  0
ENDSEC
  0
SECTION
  2
BLOCKS
  0
BLOCK
  5
20
330
1F
100
AcDbEntity
  8
0
100
AcDbBlockBegin
  2
*MODEL_SPACE
 70
     0
 10
0.0
 20
0.0
 30
0.0
  3
*MODEL_SPACE
  1

  0
ENDBLK
  5
21
330
1F
100
AcDbEntity
  8
0
100
AcDbBlockEnd
  0
BLOCK
  5
1C
330
1B
100
AcDbEntity
 67
     1
  8
0
100
AcDbBlockBegin
  2
*PAPER_SPACE
  1

  0
ENDBLK
  5
1D
330
1B
100
AcDbEntity
 67
     1
  8
0
100
AcDbBlockEnd
  0
ENDSEC
  0
SECTION
  2
ENTITIES
  0
SPLINE
  5
100
100
AcDbEntity
  8
0
 62
7
100
AcDbSpline
 70
8
 71
3
 72
8
 73
4
 74
0
 40
0
 40
0
 40
0
 40
0
 40
1
 40
1
 40
1
 40
1
 10
511.266392
 20
45.636904
 30
0.0
 10
500.276736
 20
46.611136
 30
0.0
 10
486.083888
 20
48.732576
 30
0.0
 10
474.066392
 20
51.197288
 30
0.0
  0
SPLINE
  5
101
100
AcDbEntity
  8
0
 62
7
100
AcDbSpline
 70
8
 71
3
 72
8
 73
4
 74
0
 40
0
 40
0
 40
0
 40
0
 40
1
 40
1
 40
1
 40
1
 10
474.066392
 20
51.197288
 30
0.0
 10
466.586392
 20
52.731392
 30
0.0
 10
439.226392
 20
57.577816
 30
0.0
 10
413.266392
 20
61.967128
 30
0.0
  0
SPLINE
  5
102
100
AcDbEntity
  8
0
 62
7
100
AcDbSpline
 70
8
 71
3
 72
8
 73
4
 74
0
 40
0
 40
0
 40
0
 40
0
 40
1
 40
1
 40
1
 40
1
 10
413.266392
 20
61.967128
 30
0.0
 10
361.371304
 20
70.741536
 30
0.0
 10
361.998072
 20
70.623832
 30
0.0
 10
348.866392
 20
74.061072
 30
0.0
  0
SPLINE
  5
103
100
AcDbEntity
  8
0
 62
7
100
AcDbSpline
 70
8
 71
3
 72
8
 73
4
 74
0
 40
0
 40
0
 40
0
 40
0
 40
1
 40
1
 40
1
 40
1
 10
348.866392
 20
74.061072
 30
0.0
 10
315.916184
 20
82.685848
 30
0.0
 10
235.075432
 20
121.638936
 30
0.0
 10
200.066392
 20
145.760304
 30
0.0
  0
SPLINE
  5
104
100
AcDbEntity
  8
0
 62
7
100
AcDbSpline
 70
8
 71
3
 72
8
 73
4
 74
0
 40
0
 40
0
 40
0
 40
0
 40
1
 40
1
 40
1
 40
1
 10
200.066392
 20
145.760304
 30
0.0
 10
186.748080
 20
154.936680
 30
0.0
 10
177.621656
 20
162.686368
 30
0.0
 10
163.639568
 20
176.692064
 30
0.0
  0
SPLINE
  5
105
100
AcDbEntity
  8
0
 62
7
100
AcDbSpline
 70
8
 71
3
 72
8
 73
4
 74
0
 40
0
 40
0
 40
0
 40
0
 40
1
 40
1
 40
1
 40
1
 10
163.639568
 20
176.692064
 30
0.0
 10
149.118496
 20
191.237672
 30
0.0
 10
141.552864
 20
200.208312
 30
0.0
 10
131.886584
 20
214.341904
 30
0.0
  0
SPLINE
  5
106
100
AcDbEntity
  8
0
 62
7
100
AcDbSpline
 70
8
 71
3
 72
8
 73
4
 74
0
 40
0
 40
0
 40
0
 40
0
 40
1
 40
1
 40
1
 40
1
 10
131.886584
 20
214.341904
 30
0.0
 10
120.468032
 20
231.037576
 30
0.0
 10
115.272088
 20
240.930080
 30
0.0
 10
107.515456
 20
260.741904
 30
0.0
  0
SPLINE
  5
107
100
AcDbEntity
  8
0
 62
7
100
AcDbSpline
 70
8
 71
3
 72
8
 73
4
 74
0
 40
0
 40
0
 40
0
 40
0
 40
1
 40
1
 40
1
 40
1
 10
107.515456
 20
260.741904
 30
0.0
 10
105.103720
 20
266.901904
 30
0.0
 10
100.230936
 20
278.241904
 30
0.0
 10
96.687056
 20
285.941904
 30
0.0
  0
SPLINE
  5
108
100
AcDbEntity
  8
0
 62
7
100
AcDbSpline
 70
8
 71
3
 72
8
 73
4
 74
0
 40
0
 40
0
 40
0
 40
0
 40
1
 40
1
 40
1
 40
1
 10
96.687056
 20
285.941904
 30
0.0
 10
87.975168
 20
304.870728
 30
0.0
 10
71.606653
 20
341.842392
 30
0.0
 10
68.883533
 20
348.741904
 30
0.0
  0
SPLINE
  5
109
100
AcDbEntity
  8
0
 62
7
100
AcDbSpline
 70
8
 71
3
 72
8
 73
4
 74
0
 40
0
 40
0
 40
0
 40
0
 40
1
 40
1
 40
1
 40
1
 10
68.883533
 20
348.741904
 30
0.0
 10
64.674141
 20
359.407152
 30
0.0
 10
61.695621
 20
369.592568
 30
0.0
 10
59.525789
 20
380.741904
 30
0.0
  0
SPLINE
  5
10a
100
AcDbEntity
  8
0
 62
7
100
AcDbSpline
 70
8
 71
3
 72
8
 73
4
 74
0
 40
0
 40
0
 40
0
 40
0
 40
1
 40
1
 40
1
 40
1
 10
59.525789
 20
380.741904
 30
0.0
 10
57.510205
 20
391.098656
 30
0.0
 10
57.343829
 20
393.477824
 30
0.0
 10
57.315973
 20
412.341904
 30
0.0
  0
SPLINE
  5
10b
100
AcDbEntity
  8
0
 62
7
100
AcDbSpline
 70
8
 71
3
 72
8
 73
4
 74
0
 40
0
 40
0
 40
0
 40
0
 40
1
 40
1
 40
1
 40
1
 10
57.315973
 20
412.341904
 30
0.0
 10
57.282133
 20
435.283176
 30
0.0
 10
58.152485
 20
442.905000
 30
0.0
 10
62.852221
 20
460.822056
 30
0.0
  0
SPLINE
  5
10c
100
AcDbEntity
  8
0
 62
7
100
AcDbSpline
 70
8
 71
3
 72
8
 73
4
 74
0
 40
0
 40
0
 40
0
 40
0
 40
1
 40
1
 40
1
 40
1
 10
62.852221
 20
460.822056
 30
0.0
 10
67.943589
 20
480.232112
 30
0.0
 10
75.232309
 20
496.662480
 30
0.0
 10
86.188360
 20
513.426792
 30
0.0
  0
SPLINE
  5
10d
100
AcDbEntity
  8
0
 62
7
100
AcDbSpline
 70
8
 71
3
 72
8
 73
4
 74
0
 40
0
 40
0
 40
0
 40
0
 40
1
 40
1
 40
1
 40
1
 10
86.188360
 20
513.426792
 30
0.0
 10
89.022536
 20
517.763480
 30
0.0
 10
94.026784
 20
526.673480
 30
0.0
 10
97.308904
 20
533.226792
 30
0.0
  0
SPLINE
  5
10e
100
AcDbEntity
  8
0
 62
7
100
AcDbSpline
 70
8
 71
3
 72
8
 73
4
 74
0
 40
0
 40
0
 40
0
 40
0
 40
1
 40
1
 40
1
 40
1
 10
97.308904
 20
533.226792
 30
0.0
 10
100.591032
 20
539.780104
 30
0.0
 10
103.579480
 20
545.141904
 30
0.0
 10
103.949896
 20
545.141904
 30
0.0
  0
SPLINE
  5
10f
100
AcDbEntity
  8
0
 62
7
100
AcDbSpline
 70
8
 71
3
 72
8
 73
4
 74
0
 40
0
 40
0
 40
0
 40
0
 40
1
 40
1
 40
1
 40
1
 10
103.949896
 20
545.141904
 30
0.0
 10
104.320320
 20
545.141904
 30
0.0
 10
105.280408
 20
546.598904
 30
0.0
 10
106.083424
 20
548.379680
 30
0.0
  0
SPLINE
  5
110
100
AcDbEntity
  8
0
 62
7
100
AcDbSpline
 70
8
 71
3
 72
8
 73
4
 74
0
 40
0
 40
0
 40
0
 40
0
 40
1
 40
1
 40
1
 40
1
 10
106.083424
 20
548.379680
 30
0.0
 10
106.886448
 20
550.160456
 30
0.0
 10
107.974280
 20
551.870456
 30
0.0
 10
108.500840
 20
552.179680
 30
0.0
  0
SPLINE
  5
111
100
AcDbEntity
  8
0
 62
7
100
AcDbSpline
 70
8
 71
3
 72
8
 73
4
 74
0
 40
0
 40
0
 40
0
 40
0
 40
1
 40
1
 40
1
 40
1
 10
108.500840
 20
552.179680
 30
0.0
 10
109.027400
 20
552.488904
 30
0.0
 10
110.232376
 20
554.271904
 30
0.0
 10
111.178568
 20
556.141904
 30
0.0
  0
SPLINE
  5
112
100
AcDbEntity
  8
0
 62
7
100
AcDbSpline
 70
8
 71
3
 72
8
 73
4
 74
0
 40
0
 40
0
 40
0
 40
0
 40
1
 40
1
 40
1
 40
1
 10
111.178568
 20
556.141904
 30
0.0
 10
112.124752
 20
558.011904
 30
0.0
 10
113.227336
 20
559.541904
 30
0.0
 10
113.628744
 20
559.541904
 30
0.0
  0
SPLINE
  5
113
100
AcDbEntity
  8
0
 62
7
100
AcDbSpline
 70
8
 71
3
 72
8
 73
4
 74
0
 40
0
 40
0
 40
0
 40
0
 40
1
 40
1
 40
1
 40
1
 10
113.628744
 20
559.541904
 30
0.0
 10
114.030144
 20
559.541904
 30
0.0
 10
114.593968
 20
560.283568
 30
0.0
 10
114.881672
 20
561.190040
 30
0.0
  0
SPLINE
  5
114
100
AcDbEntity
  8
0
 62
7
100
AcDbSpline
 70
8
 71
3
 72
8
 73
4
 74
0
 40
0
 40
0
 40
0
 40
0
 40
1
 40
1
 40
1
 40
1
 10
114.881672
 20
561.190040
 30
0.0
 10
115.169376
 20
562.096512
 30
0.0
 10
116.903632
 20
564.365744
 30
0.0
 10
118.735576
 20
566.232776
 30
0.0
  0
SPLINE
  5
115
100
AcDbEntity
  8
0
 62
7
100
AcDbSpline
 70
8
 71
3
 72
8
 73
4
 74
0
 40
0
 40
0
 40
0
 40
0
 40
1
 40
1
 40
1
 40
1
 10
118.735576
 20
566.232776
 30
0.0
 10
122.884832
 20
570.461488
 30
0.0
 10
125.666392
 20
574.317800
 30
0.0
 10
125.666392
 20
575.841552
 30
0.0
  0
SPLINE
  5
116
100
AcDbEntity
  8
0
 62
7
100
AcDbSpline
 70
8
 71
3
 72
8
 73
4
 74
0
 40
0
 40
0
 40
0
 40
0
 40
1
 40
1
 40
1
 40
1
 10
125.666392
 20
575.841552
 30
0.0
 10
125.666392
 20
577.057120
 30
0.0
 10
127.478736
 20
579.461960
 30
0.0
 10
131.860976
 20
584.061288
 30
0.0
  0
SPLINE
  5
117
100
AcDbEntity
  8
0
 62
7
100
AcDbSpline
 70
8
 71
3
 72
8
 73
4
 74
0
 40
0
 40
0
 40
0
 40
0
 40
1
 40
1
 40
1
 40
1
 10
131.860976
 20
584.061288
 30
0.0
 10
133.287992
 20
585.559000
 30
0.0
 10
135.171952
 20
588.188664
 30
0.0
 10
136.047560
 20
589.904984
 30
0.0
  0
SPLINE
  5
118
100
AcDbEntity
  8
0
 62
7
100
AcDbSpline
 70
8
 71
3
 72
8
 73
4
 74
0
 40
0
 40
0
 40
0
 40
0
 40
1
 40
1
 40
1
 40
1
 10
136.047560
 20
589.904984
 30
0.0
 10
136.923160
 20
591.621304
 30
0.0
 10
138.365600
 20
593.256000
 30
0.0
 10
139.252976
 20
593.537648
 30
0.0
  0
SPLINE
  5
119
100
AcDbEntity
  8
0
 62
7
100
AcDbSpline
 70
8
 71
3
 72
8
 73
4
 74
0
 40
0
 40
0
 40
0
 40
0
 40
1
 40
1
 40
1
 40
1
 10
139.252976
 20
593.537648
 30
0.0
 10
140.140352
 20
593.819288
 30
0.0
 10
140.866392
 20
594.350768
 30
0.0
 10
140.866392
 20
594.718704
 30
0.0
  0
SPLINE
  5
11a
100
AcDbEntity
  8
0
 62
7
100
AcDbSpline
 70
8
 71
3
 72
8
 73
4
 74
0
 40
0
 40
0
 40
0
 40
0
 40
1
 40
1
 40
1
 40
1
 10
140.866392
 20
594.718704
 30
0.0
 10
140.866392
 20
595.331264
 30
0.0
 10
144.148944
 20
599.397856
 30
0.0
 10
147.387416
 20
602.797272
 30
0.0
  0
SPLINE
  5
11b
100
AcDbEntity
  8
0
 62
7
100
AcDbSpline
 70
8
 71
3
 72
8
 73
4
 74
0
 40
0
 40
0
 40
0
 40
0
 40
1
 40
1
 40
1
 40
1
 10
147.387416
 20
602.797272
 30
0.0
 10
148.113976
 20
603.559944
 30
0.0
 10
148.925432
 20
604.867624
 30
0.0
 10
149.190640
 20
605.703224
 30
0.0
  0
SPLINE
  5
11c
100
AcDbEntity
  8
0
 62
7
100
AcDbSpline
 70
8
 71
3
 72
8
 73
4
 74
0
 40
0
 40
0
 40
0
 40
0
 40
1
 40
1
 40
1
 40
1
 10
149.190640
 20
605.703224
 30
0.0
 10
149.455848
 20
606.538824
 30
0.0
 10
150.755528
 20
608.104360
 30
0.0
 10
152.078816
 20
609.182200
 30
0.0
  0
SPLINE
  5
11d
100
AcDbEntity
  8
0
 62
7
100
AcDbSpline
 70
8
 71
3
 72
8
 73
4
 74
0
 40
0
 40
0
 40
0
 40
0
 40
1
 40
1
 40
1
 40
1
 10
152.078816
 20
609.182200
 30
0.0
 10
154.375840
 20
611.053168
 30
0.0
 10
157.800792
 20
614.142240
 30
0.0
 10
168.466392
 20
623.962672
 30
0.0
  0
SPLINE
  5
11e
100
AcDbEntity
  8
0
 62
7
100
AcDbSpline
 70
8
 71
3
 72
8
 73
4
 74
0
 40
0
 40
0
 40
0
 40
0
 40
1
 40
1
 40
1
 40
1
 10
168.466392
 20
623.962672
 30
0.0
 10
173.284816
 20
628.399272
 30
0.0
 10
179.426968
 20
634.336672
 30
0.0
 10
181.666392
 20
636.722648
 30
0.0
  0
SPLINE
  5
11f
100
AcDbEntity
  8
0
 62
7
100
AcDbSpline
 70
8
 71
3
 72
8
 73
4
 74
0
 40
0
 40
0
 40
0
 40
0
 40
1
 40
1
 40
1
 40
1
 10
181.666392
 20
636.722648
 30
0.0
 10
182.860544
 20
637.994936
 30
0.0
 10
184.266528
 20
639.096280
 30
0.0
 10
196.466392
 20
648.315837
 30
0.0
  0
SPLINE
  5
120
100
AcDbEntity
  8
0
 62
7
100
AcDbSpline
 70
8
 71
3
 72
8
 73
4
 74
0
 40
0
 40
0
 40
0
 40
0
 40
1
 40
1
 40
1
 40
1
 10
196.466392
 20
648.315837
 30
0.0
 10
199.986392
 20
650.975933
 30
0.0
 10
204.486392
 20
654.710841
 30
0.0
 10
206.466392
 20
656.615625
 30
0.0
  0
SPLINE
  5
121
100
AcDbEntity
  8
0
 62
7
100
AcDbSpline
 70
8
 71
3
 72
8
 73
4
 74
0
 40
0
 40
0
 40
0
 40
0
 40
1
 40
1
 40
1
 40
1
 10
206.466392
 20
656.615625
 30
0.0
 10
208.507424
 20
658.579126
 30
0.0
 10
213.963800
 20
662.094000
 30
0.0
 10
219.066392
 20
664.732261
 30
0.0
  0
SPLINE
  5
122
100
AcDbEntity
  8
0
 62
7
100
AcDbSpline
 70
8
 71
3
 72
8
 73
4
 74
0
 40
0
 40
0
 40
0
 40
0
 40
1
 40
1
 40
1
 40
1
 10
219.066392
 20
664.732261
 30
0.0
 10
224.016392
 20
667.291627
 30
0.0
 10
228.066392
 20
669.696635
 30
0.0
 10
228.066392
 20
670.076724
 30
0.0
  0
SPLINE
  5
123
100
AcDbEntity
  8
0
 62
7
100
AcDbSpline
 70
8
 71
3
 72
8
 73
4
 74
0
 40
0
 40
0
 40
0
 40
0
 40
1
 40
1
 40
1
 40
1
 10
228.066392
 20
670.076724
 30
0.0
 10
228.066392
 20
670.456813
 30
0.0
 10
229.326392
 20
671.368646
 30
0.0
 10
230.866392
 20
672.103022
 30
0.0
  0
SPLINE
  5
124
100
AcDbEntity
  8
0
 62
7
100
AcDbSpline
 70
8
 71
3
 72
8
 73
4
 74
0
 40
0
 40
0
 40
0
 40
0
 40
1
 40
1
 40
1
 40
1
 10
230.866392
 20
672.103022
 30
0.0
 10
232.406392
 20
672.837396
 30
0.0
 10
233.666392
 20
673.723480
 30
0.0
 10
233.666392
 20
674.072096
 30
0.0
  0
SPLINE
  5
125
100
AcDbEntity
  8
0
 62
7
100
AcDbSpline
 70
8
 71
3
 72
8
 73
4
 74
0
 40
0
 40
0
 40
0
 40
0
 40
1
 40
1
 40
1
 40
1
 10
233.666392
 20
674.072096
 30
0.0
 10
233.666392
 20
674.995478
 30
0.0
 10
255.828544
 20
685.645457
 30
0.0
 10
260.066392
 20
686.758566
 30
0.0
  0
SPLINE
  5
126
100
AcDbEntity
  8
0
 62
7
100
AcDbSpline
 70
8
 71
3
 72
8
 73
4
 74
0
 40
0
 40
0
 40
0
 40
0
 40
1
 40
1
 40
1
 40
1
 10
260.066392
 20
686.758566
 30
0.0
 10
262.046392
 20
687.278630
 30
0.0
 10
265.286392
 20
688.370585
 30
0.0
 10
267.266392
 20
689.185133
 30
0.0
  0
SPLINE
  5
127
100
AcDbEntity
  8
0
 62
7
100
AcDbSpline
 70
8
 71
3
 72
8
 73
4
 74
0
 40
0
 40
0
 40
0
 40
0
 40
1
 40
1
 40
1
 40
1
 10
267.266392
 20
689.185133
 30
0.0
 10
269.246392
 20
689.999681
 30
0.0
 10
272.126392
 20
690.885689
 30
0.0
 10
273.666392
 20
691.154039
 30
0.0
  0
SPLINE
  5
128
100
AcDbEntity
  8
0
 62
7
100
AcDbSpline
 70
8
 71
3
 72
8
 73
4
 74
0
 40
0
 40
0
 40
0
 40
0
 40
1
 40
1
 40
1
 40
1
 10
273.666392
 20
691.154039
 30
0.0
 10
276.409208
 20
691.631983
 30
0.0
 10
277.159528
 20
691.842529
 30
0.0
 10
283.666392
 20
693.960108
 30
0.0
  0
SPLINE
  5
129
100
AcDbEntity
  8
0
 62
7
100
AcDbSpline
 70
8
 71
3
 72
8
 73
4
 74
0
 40
0
 40
0
 40
0
 40
0
 40
1
 40
1
 40
1
 40
1
 10
283.666392
 20
693.960108
 30
0.0
 10
285.426392
 20
694.532878
 30
0.0
 10
289.026392
 20
695.458415
 30
0.0
 10
291.666392
 20
696.016858
 30
0.0
  0
SPLINE
  5
12a
100
AcDbEntity
  8
0
 62
7
100
AcDbSpline
 70
8
 71
3
 72
8
 73
4
 74
0
 40
0
 40
0
 40
0
 40
0
 40
1
 40
1
 40
1
 40
1
 10
291.666392
 20
696.016858
 30
0.0
 10
294.306392
 20
696.575300
 30
0.0
 10
298.086392
 20
697.388411
 30
0.0
 10
300.066392
 20
697.823772
 30
0.0
  0
SPLINE
  5
12b
100
AcDbEntity
  8
0
 62
7
100
AcDbSpline
 70
8
 71
3
 72
8
 73
4
 74
0
 40
0
 40
0
 40
0
 40
0
 40
1
 40
1
 40
1
 40
1
 10
300.066392
 20
697.823772
 30
0.0
 10
302.046392
 20
698.259133
 30
0.0
 10
306.546392
 20
699.033801
 30
0.0
 10
310.066392
 20
699.545255
 30
0.0
  0
SPLINE
  5
12c
100
AcDbEntity
  8
0
 62
7
100
AcDbSpline
 70
8
 71
3
 72
8
 73
4
 74
0
 40
0
 40
0
 40
0
 40
0
 40
1
 40
1
 40
1
 40
1
 10
310.066392
 20
699.545255
 30
0.0
 10
313.586392
 20
700.056710
 30
0.0
 10
318.266392
 20
700.787256
 30
0.0
 10
320.466392
 20
701.168691
 30
0.0
  0
SPLINE
  5
12d
100
AcDbEntity
  8
0
 62
7
100
AcDbSpline
 70
8
 71
3
 72
8
 73
4
 74
0
 40
0
 40
0
 40
0
 40
0
 40
1
 40
1
 40
1
 40
1
 10
320.466392
 20
701.168691
 30
0.0
 10
322.666392
 20
701.550126
 30
0.0
 10
350.835704
 20
701.846492
 30
0.0
 10
383.064856
 20
701.827284
 30
0.0
  0
SPLINE
  5
12e
100
AcDbEntity
  8
0
 62
7
100
AcDbSpline
 70
8
 71
3
 72
8
 73
4
 74
0
 40
0
 40
0
 40
0
 40
0
 40
1
 40
1
 40
1
 40
1
 10
383.064856
 20
701.827284
 30
0.0
 10
415.294016
 20
701.808076
 30
0.0
 10
444.994016
 20
702.034086
 30
0.0
 10
449.064856
 20
702.329528
 30
0.0
  0
SPLINE
  5
12f
100
AcDbEntity
  8
0
 62
7
100
AcDbSpline
 70
8
 71
3
 72
8
 73
4
 74
0
 40
0
 40
0
 40
0
 40
0
 40
1
 40
1
 40
1
 40
1
 10
449.064856
 20
702.329528
 30
0.0
 10
453.135704
 20
702.624971
 30
0.0
 10
482.746392
 20
702.967467
 30
0.0
 10
514.866392
 20
703.090631
 30
0.0
  0
SPLINE
  5
130
100
AcDbEntity
  8
0
 62
7
100
AcDbSpline
 70
8
 71
3
 72
8
 73
4
 74
0
 40
0
 40
0
 40
0
 40
0
 40
1
 40
1
 40
1
 40
1
 10
514.866392
 20
703.090631
 30
0.0
 10
560.685248
 20
703.266324
 30
0.0
 10
576.282416
 20
703.591101
 30
0.0
 10
587.266392
 20
704.598204
 30
0.0
  0
SPLINE
  5
131
100
AcDbEntity
  8
0
 62
7
100
AcDbSpline
 70
8
 71
3
 72
8
 73
4
 74
0
 40
0
 40
0
 40
0
 40
0
 40
1
 40
1
 40
1
 40
1
 10
587.266392
 20
704.598204
 30
0.0
 10
594.966392
 20
705.304206
 30
0.0
 10
618.906392
 20
706.293625
 30
0.0
 10
640.466392
 20
706.796914
 30
0.0
  0
SPLINE
  5
132
100
AcDbEntity
  8
0
 62
7
100
AcDbSpline
 70
8
 71
3
 72
8
 73
4
 74
0
 40
0
 40
0
 40
0
 40
0
 40
1
 40
1
 40
1
 40
1
 10
640.466392
 20
706.796914
 30
0.0
 10
680.838480
 20
707.739347
 30
0.0
 10
684.320120
 20
707.622085
 30
0.0
 10
702.889296
 20
704.694503
 30
0.0
  0
SPLINE
  5
133
100
AcDbEntity
  8
0
 62
7
100
AcDbSpline
 70
8
 71
3
 72
8
 73
4
 74
0
 40
0
 40
0
 40
0
 40
0
 40
1
 40
1
 40
1
 40
1
 10
702.889296
 20
704.694503
 30
0.0
 10
736.198496
 20
699.443034
 30
0.0
 10
774.425632
 20
680.229146
 30
0.0
 10
808.466400
 20
651.628885
 30
0.0
  0
SPLINE
  5
134
100
AcDbEntity
  8
0
 62
7
100
AcDbSpline
 70
8
 71
3
 72
8
 73
4
 74
0
 40
0
 40
0
 40
0
 40
0
 40
1
 40
1
 40
1
 40
1
 10
808.466400
 20
651.628885
 30
0.0
 10
817.962800
 20
643.650245
 30
0.0
 10
840.839760
 20
620.772456
 30
0.0
 10
847.211520
 20
612.882344
 30
0.0
  0
SPLINE
  5
135
100
AcDbEntity
  8
0
 62
7
100
AcDbSpline
 70
8
 71
3
 72
8
 73
4
 74
0
 40
0
 40
0
 40
0
 40
0
 40
1
 40
1
 40
1
 40
1
 10
847.211520
 20
612.882344
 30
0.0
 10
856.411520
 20
601.490112
 30
0.0
 10
864.158560
 20
588.955816
 30
0.0
 10
872.223520
 20
572.414520
 30
0.0
  0
SPLINE
  5
136
100
AcDbEntity
  8
0
 62
7
100
AcDbSpline
 70
8
 71
3
 72
8
 73
4
 74
0
 40
0
 40
0
 40
0
 40
0
 40
1
 40
1
 40
1
 40
1
 10
872.223520
 20
572.414520
 30
0.0
 10
883.826800
 20
548.616088
 30
0.0
 10
889.394160
 20
533.830248
 30
0.0
 10
895.294880
 20
511.141904
 30
0.0
  0
SPLINE
  5
137
100
AcDbEntity
  8
0
 62
7
100
AcDbSpline
 70
8
 71
3
 72
8
 73
4
 74
0
 40
0
 40
0
 40
0
 40
0
 40
1
 40
1
 40
1
 40
1
 10
895.294880
 20
511.141904
 30
0.0
 10
901.782720
 20
486.196016
 30
0.0
 10
904.742000
 20
464.549872
 30
0.0
 10
905.411520
 20
437.141904
 30
0.0
  0
SPLINE
  5
138
100
AcDbEntity
  8
0
 62
7
100
AcDbSpline
 70
8
 71
3
 72
8
 73
4
 74
0
 40
0
 40
0
 40
0
 40
0
 40
1
 40
1
 40
1
 40
1
 10
905.411520
 20
437.141904
 30
0.0
 10
906.092800
 20
409.249152
 30
0.0
 10
904.030560
 20
385.880360
 30
0.0
 10
899.228560
 20
367.078808
 30
0.0
  0
SPLINE
  5
139
100
AcDbEntity
  8
0
 62
7
100
AcDbSpline
 70
8
 71
3
 72
8
 73
4
 74
0
 40
0
 40
0
 40
0
 40
0
 40
1
 40
1
 40
1
 40
1
 10
899.228560
 20
367.078808
 30
0.0
 10
889.318160
 20
328.276064
 30
0.0
 10
851.187760
 20
253.653536
 30
0.0
 10
812.599040
 20
197.541904
 30
0.0
  0
SPLINE
  5
13a
100
AcDbEntity
  8
0
 62
7
100
AcDbSpline
 70
8
 71
3
 72
8
 73
4
 74
0
 40
0
 40
0
 40
0
 40
0
 40
1
 40
1
 40
1
 40
1
 10
812.599040
 20
197.541904
 30
0.0
 10
793.822152
 20
170.238480
 30
0.0
 10
778.494160
 20
151.727080
 30
0.0
 10
764.785920
 20
139.798704
 30
0.0
  0
SPLINE
  5
13b
100
AcDbEntity
  8
0
 62
7
100
AcDbSpline
 70
8
 71
3
 72
8
 73
4
 74
0
 40
0
 40
0
 40
0
 40
0
 40
1
 40
1
 40
1
 40
1
 10
764.785920
 20
139.798704
 30
0.0
 10
715.366664
 20
96.795968
 30
0.0
 10
639.108168
 20
63.629752
 30
0.0
 10
553.493216
 20
47.903624
 30
0.0
  0
SPLINE
  5
13c
100
AcDbEntity
  8
0
 62
7
100
AcDbSpline
 70
8
 71
3
 72
8
 73
4
 74
0
 40
0
 40
0
 40
0
 40
0
 40
1
 40
1
 40
1
 40
1
 10
553.493216
 20
47.903624
 30
0.0
 10
542.314880
 20
45.850344
 30
0.0
 10
521.476784
 20
44.731760
 30
0.0
 10
511.266392
 20
45.636904
 30
0.0
  0
SPLINE
  5
13d
100
AcDbEntity
  8
0
 62
7
100
AcDbSpline
 70
8
 71
3
 72
8
 73
4
 74
0
 40
0
 40
0
 40
0
 40
0
 40
1
 40
1
 40
1
 40
1
 10
535.666392
 20
61.158272
 30
0.0
 10
551.464024
 20
62.688848
 30
0.0
 10
583.746504
 20
69.776880
 30
0.0
 10
608.763408
 20
77.207656
 30
0.0
  0
SPLINE
  5
13e
100
AcDbEntity
  8
0
 62
7
100
AcDbSpline
 70
8
 71
3
 72
8
 73
4
 74
0
 40
0
 40
0
 40
0
 40
0
 40
1
 40
1
 40
1
 40
1
 10
608.763408
 20
77.207656
 30
0.0
 10
671.342056
 20
95.795400
 30
0.0
 10
726.289408
 20
124.521640
 30
0.0
 10
758.901952
 20
155.699440
 30
0.0
  0
SPLINE
  5
13f
100
AcDbEntity
  8
0
 62
7
100
AcDbSpline
 70
8
 71
3
 72
8
 73
4
 74
0
 40
0
 40
0
 40
0
 40
0
 40
1
 40
1
 40
1
 40
1
 10
758.901952
 20
155.699440
 30
0.0
 10
796.362152
 20
191.511624
 30
0.0
 10
859.969840
 20
297.649560
 30
0.0
 10
880.070560
 20
357.885440
 30
0.0
  0
SPLINE
  5
140
100
AcDbEntity
  8
0
 62
7
100
AcDbSpline
 70
8
 71
3
 72
8
 73
4
 74
0
 40
0
 40
0
 40
0
 40
0
 40
1
 40
1
 40
1
 40
1
 10
880.070560
 20
357.885440
 30
0.0
 10
886.481040
 20
377.095776
 30
0.0
 10
889.207600
 20
394.414728
 30
0.0
 10
890.155200
 20
421.941904
 30
0.0
  0
SPLINE
  5
141
100
AcDbEntity
  8
0
 62
7
100
AcDbSpline
 70
8
 71
3
 72
8
 73
4
 74
0
 40
0
 40
0
 40
0
 40
0
 40
1
 40
1
 40
1
 40
1
 10
890.155200
 20
421.941904
 30
0.0
 10
891.534320
 20
462.006456
 30
0.0
 10
884.241120
 20
504.399824
 30
0.0
 10
869.642960
 20
541.173520
 30
0.0
  0
SPLINE
  5
142
100
AcDbEntity
  8
0
 62
7
100
AcDbSpline
 70
8
 71
3
 72
8
 73
4
 74
0
 40
0
 40
0
 40
0
 40
0
 40
1
 40
1
 40
1
 40
1
 10
869.642960
 20
541.173520
 30
0.0
 10
864.430800
 20
554.303096
 30
0.0
 10
851.708560
 20
579.575760
 30
0.0
 10
845.898320
 20
588.341904
 30
0.0
  0
SPLINE
  5
143
100
AcDbEntity
  8
0
 62
7
100
AcDbSpline
 70
8
 71
3
 72
8
 73
4
 74
0
 40
0
 40
0
 40
0
 40
0
 40
1
 40
1
 40
1
 40
1
 10
845.898320
 20
588.341904
 30
0.0
 10
837.236800
 20
601.409824
 30
0.0
 10
831.291760
 20
608.482072
 30
0.0
 10
816.947520
 20
622.781928
 30
0.0
  0
SPLINE
  5
144
100
AcDbEntity
  8
0
 62
7
100
AcDbSpline
 70
8
 71
3
 72
8
 73
4
 74
0
 40
0
 40
0
 40
0
 40
0
 40
1
 40
1
 40
1
 40
1
 10
816.947520
 20
622.781928
 30
0.0
 10
798.412312
 20
641.259725
 30
0.0
 10
781.653448
 20
654.306798
 30
0.0
 10
760.603024
 20
666.647061
 30
0.0
  0
SPLINE
  5
145
100
AcDbEntity
  8
0
 62
7
100
AcDbSpline
 70
8
 71
3
 72
8
 73
4
 74
0
 40
0
 40
0
 40
0
 40
0
 40
1
 40
1
 40
1
 40
1
 10
760.603024
 20
666.647061
 30
0.0
 10
730.172912
 20
684.485914
 30
0.0
 10
697.762072
 20
693.445182
 30
0.0
 10
668.889424
 20
691.999277
 30
0.0
  0
SPLINE
  5
146
100
AcDbEntity
  8
0
 62
7
100
AcDbSpline
 70
8
 71
3
 72
8
 73
4
 74
0
 40
0
 40
0
 40
0
 40
0
 40
1
 40
1
 40
1
 40
1
 10
668.889424
 20
691.999277
 30
0.0
 10
663.816760
 20
691.745244
 30
0.0
 10
645.626392
 20
691.349962
 30
0.0
 10
628.466392
 20
691.120870
 30
0.0
  0
SPLINE
  5
147
100
AcDbEntity
  8
0
 62
7
100
AcDbSpline
 70
8
 71
3
 72
8
 73
4
 74
0
 40
0
 40
0
 40
0
 40
0
 40
1
 40
1
 40
1
 40
1
 10
628.466392
 20
691.120870
 30
0.0
 10
608.559880
 20
690.855114
 30
0.0
 10
592.922744
 20
690.246964
 30
0.0
 10
585.266392
 20
689.440764
 30
0.0
  0
SPLINE
  5
148
100
AcDbEntity
  8
0
 62
7
100
AcDbSpline
 70
8
 71
3
 72
8
 73
4
 74
0
 40
0
 40
0
 40
0
 40
0
 40
1
 40
1
 40
1
 40
1
 10
585.266392
 20
689.440764
 30
0.0
 10
567.501128
 20
687.570114
 30
0.0
 10
550.345824
 20
687.024102
 30
0.0
 10
533.266392
 20
687.785727
 30
0.0
  0
SPLINE
  5
149
100
AcDbEntity
  8
0
 62
7
100
AcDbSpline
 70
8
 71
3
 72
8
 73
4
 74
0
 40
0
 40
0
 40
0
 40
0
 40
1
 40
1
 40
1
 40
1
 10
533.266392
 20
687.785727
 30
0.0
 10
524.906392
 20
688.158526
 30
0.0
 10
511.946392
 20
688.244855
 30
0.0
 10
504.466392
 20
687.977570
 30
0.0
  0
SPLINE
  5
14a
100
AcDbEntity
  8
0
 62
7
100
AcDbSpline
 70
8
 71
3
 72
8
 73
4
 74
0
 40
0
 40
0
 40
0
 40
0
 40
1
 40
1
 40
1
 40
1
 10
504.466392
 20
687.977570
 30
0.0
 10
496.986392
 20
687.710285
 30
0.0
 10
482.406392
 20
687.380410
 30
0.0
 10
472.066392
 20
687.244514
 30
0.0
  0
SPLINE
  5
14b
100
AcDbEntity
  8
0
 62
7
100
AcDbSpline
 70
8
 71
3
 72
8
 73
4
 74
0
 40
0
 40
0
 40
0
 40
0
 40
1
 40
1
 40
1
 40
1
 10
472.066392
 20
687.244514
 30
0.0
 10
454.070584
 20
687.008001
 30
0.0
 10
452.979496
 20
686.903480
 30
0.0
 10
446.559400
 20
684.801067
 30
0.0
  0
SPLINE
  5
14c
100
AcDbEntity
  8
0
 62
7
100
AcDbSpline
 70
8
 71
3
 72
8
 73
4
 74
0
 40
0
 40
0
 40
0
 40
0
 40
1
 40
1
 40
1
 40
1
 10
446.559400
 20
684.801067
 30
0.0
 10
442.870560
 20
683.593066
 30
0.0
 10
437.650560
 20
681.413202
 30
0.0
 10
434.959400
 20
679.956925
 30
0.0
  0
SPLINE
  5
14d
100
AcDbEntity
  8
0
 62
7
100
AcDbSpline
 70
8
 71
3
 72
8
 73
4
 74
0
 40
0
 40
0
 40
0
 40
0
 40
1
 40
1
 40
1
 40
1
 10
434.959400
 20
679.956925
 30
0.0
 10
429.329872
 20
676.910592
 30
0.0
 10
426.554408
 20
675.468171
 30
0.0
 10
422.066392
 20
673.256388
 30
0.0
  0
SPLINE
  5
14e
100
AcDbEntity
  8
0
 62
7
100
AcDbSpline
 70
8
 71
3
 72
8
 73
4
 74
0
 40
0
 40
0
 40
0
 40
0
 40
1
 40
1
 40
1
 40
1
 10
422.066392
 20
673.256388
 30
0.0
 10
420.306392
 20
672.389025
 30
0.0
 10
416.526392
 20
670.396613
 30
0.0
 10
413.666392
 20
668.828806
 30
0.0
  0
SPLINE
  5
14f
100
AcDbEntity
  8
0
 62
7
100
AcDbSpline
 70
8
 71
3
 72
8
 73
4
 74
0
 40
0
 40
0
 40
0
 40
0
 40
1
 40
1
 40
1
 40
1
 10
413.666392
 20
668.828806
 30
0.0
 10
410.806392
 20
667.261000
 30
0.0
 10
407.777392
 20
665.970073
 30
0.0
 10
406.935280
 20
665.960079
 30
0.0
  0
SPLINE
  5
150
100
AcDbEntity
  8
0
 62
7
100
AcDbSpline
 70
8
 71
3
 72
8
 73
4
 74
0
 40
0
 40
0
 40
0
 40
0
 40
1
 40
1
 40
1
 40
1
 10
406.935280
 20
665.960079
 30
0.0
 10
404.959256
 20
665.936631
 30
0.0
 10
391.642552
 20
659.118070
 30
0.0
 10
389.617152
 20
657.092669
 30
0.0
  0
SPLINE
  5
151
100
AcDbEntity
  8
0
 62
7
100
AcDbSpline
 70
8
 71
3
 72
8
 73
4
 74
0
 40
0
 40
0
 40
0
 40
0
 40
1
 40
1
 40
1
 40
1
 10
389.617152
 20
657.092669
 30
0.0
 10
388.764232
 20
656.239750
 30
0.0
 10
387.332048
 20
655.541909
 30
0.0
 10
386.434520
 20
655.541909
 30
0.0
  0
SPLINE
  5
152
100
AcDbEntity
  8
0
 62
7
100
AcDbSpline
 70
8
 71
3
 72
8
 73
4
 74
0
 40
0
 40
0
 40
0
 40
0
 40
1
 40
1
 40
1
 40
1
 10
386.434520
 20
655.541909
 30
0.0
 10
385.536992
 20
655.541909
 30
0.0
 10
383.458544
 20
654.856196
 30
0.0
 10
381.815744
 20
654.018103
 30
0.0
  0
SPLINE
  5
153
100
AcDbEntity
  8
0
 62
7
100
AcDbSpline
 70
8
 71
3
 72
8
 73
4
 74
0
 40
0
 40
0
 40
0
 40
0
 40
1
 40
1
 40
1
 40
1
 10
381.815744
 20
654.018103
 30
0.0
 10
380.172944
 20
653.180013
 30
0.0
 10
377.096864
 20
652.234573
 30
0.0
 10
374.980016
 20
651.917133
 30
0.0
  0
SPLINE
  5
154
100
AcDbEntity
  8
0
 62
7
100
AcDbSpline
 70
8
 71
3
 72
8
 73
4
 74
0
 40
0
 40
0
 40
0
 40
0
 40
1
 40
1
 40
1
 40
1
 10
374.980016
 20
651.917133
 30
0.0
 10
372.701064
 20
651.575381
 30
0.0
 10
367.113768
 20
649.260141
 30
0.0
 10
361.281824
 20
646.240933
 30
0.0
  0
SPLINE
  5
155
100
AcDbEntity
  8
0
 62
7
100
AcDbSpline
 70
8
 71
3
 72
8
 73
4
 74
0
 40
0
 40
0
 40
0
 40
0
 40
1
 40
1
 40
1
 40
1
 10
361.281824
 20
646.240933
 30
0.0
 10
355.864680
 20
643.436469
 30
0.0
 10
350.879696
 20
641.141909
 30
0.0
 10
350.204088
 20
641.141909
 30
0.0
  0
SPLINE
  5
156
100
AcDbEntity
  8
0
 62
7
100
AcDbSpline
 70
8
 71
3
 72
8
 73
4
 74
0
 40
0
 40
0
 40
0
 40
0
 40
1
 40
1
 40
1
 40
1
 10
350.204088
 20
641.141909
 30
0.0
 10
349.528488
 20
641.141909
 30
0.0
 10
345.647248
 20
639.521912
 30
0.0
 10
341.579120
 20
637.541912
 30
0.0
  0
SPLINE
  5
157
100
AcDbEntity
  8
0
 62
7
100
AcDbSpline
 70
8
 71
3
 72
8
 73
4
 74
0
 40
0
 40
0
 40
0
 40
0
 40
1
 40
1
 40
1
 40
1
 10
341.579120
 20
637.541912
 30
0.0
 10
337.510992
 20
635.561912
 30
0.0
 10
333.701592
 20
633.941912
 30
0.0
 10
333.113792
 20
633.941912
 30
0.0
  0
SPLINE
  5
158
100
AcDbEntity
  8
0
 62
7
100
AcDbSpline
 70
8
 71
3
 72
8
 73
4
 74
0
 40
0
 40
0
 40
0
 40
0
 40
1
 40
1
 40
1
 40
1
 10
333.113792
 20
633.941912
 30
0.0
 10
332.228576
 20
633.941912
 30
0.0
 10
319.598928
 20
627.679336
 30
0.0
 10
306.593696
 20
620.791568
 30
0.0
  0
SPLINE
  5
159
100
AcDbEntity
  8
0
 62
7
100
AcDbSpline
 70
8
 71
3
 72
8
 73
4
 74
0
 40
0
 40
0
 40
0
 40
0
 40
1
 40
1
 40
1
 40
1
 10
306.593696
 20
620.791568
 30
0.0
 10
301.990992
 20
618.353912
 30
0.0
 10
292.274208
 20
608.019280
 30
0.0
 10
291.305528
 20
604.531304
 30
0.0
  0
SPLINE
  5
15a
100
AcDbEntity
  8
0
 62
7
100
AcDbSpline
 70
8
 71
3
 72
8
 73
4
 74
0
 40
0
 40
0
 40
0
 40
0
 40
1
 40
1
 40
1
 40
1
 10
291.305528
 20
604.531304
 30
0.0
 10
290.848912
 20
602.887136
 30
0.0
 10
290.473304
 20
598.743824
 30
0.0
 10
290.470856
 20
595.323944
 30
0.0
  0
LWPOLYLINE
  5
15b
100
AcDbEntity
  8
0
 62
7
100
AcDbPolyline
 90
2
 70
0
 10
511.266392
 20
45.636904
 30
0.0
 10
511.266392
 20
45.636904
 30
0.0
  0
SPLINE
  5
15c
100
AcDbEntity
  8
0
 62
7
100
AcDbSpline
 70
8
 71
3
 72
8
 73
4
 74
0
 40
0
 40
0
 40
0
 40
0
 40
1
 40
1
 40
1
 40
1
 10
296.498776
 20
582.655184
 30
0.0
 10
303.465456
 20
575.205696
 30
0.0
 10
310.266536
 20
566.318096
 30
0.0
 10
312.961432
 20
561.141904
 30
0.0
  0
SPLINE
  5
15d
100
AcDbEntity
  8
0
 62
7
100
AcDbSpline
 70
8
 71
3
 72
8
 73
4
 74
0
 40
0
 40
0
 40
0
 40
0
 40
1
 40
1
 40
1
 40
1
 10
312.961432
 20
561.141904
 30
0.0
 10
314.555928
 20
558.079312
 30
0.0
 10
314.829248
 20
556.407384
 30
0.0
 10
314.792400
 20
549.941904
 30
0.0
  0
SPLINE
  5
15e
100
AcDbEntity
  8
0
 62
7
100
AcDbSpline
 70
8
 71
3
 72
8
 73
4
 74
0
 40
0
 40
0
 40
0
 40
0
 40
1
 40
1
 40
1
 40
1
 10
314.792400
 20
549.941904
 30
0.0
 10
314.736000
 20
540.051720
 30
0.0
 10
312.527816
 20
532.619080
 30
0.0
 10
306.814368
 20
523.088560
 30
0.0
  0
SPLINE
  5
15f
100
AcDbEntity
  8
0
 62
7
100
AcDbSpline
 70
8
 71
3
 72
8
 73
4
 74
0
 40
0
 40
0
 40
0
 40
0
 40
1
 40
1
 40
1
 40
1
 10
306.814368
 20
523.088560
 30
0.0
 10
304.398608
 20
519.058312
 30
0.0
 10
302.466392
 20
514.869904
 30
0.0
 10
302.466392
 20
513.662864
 30
0.0
  0
SPLINE
  5
160
100
AcDbEntity
  8
0
 62
7
100
AcDbSpline
 70
8
 71
3
 72
8
 73
4
 74
0
 40
0
 40
0
 40
0
 40
0
 40
1
 40
1
 40
1
 40
1
 10
302.466392
 20
513.662864
 30
0.0
 10
302.466392
 20
509.080360
 30
0.0
 10
307.644408
 20
500.341904
 30
0.0
 10
310.359792
 20
500.341904
 30
0.0
  0
SPLINE
  5
161
100
AcDbEntity
  8
0
 62
7
100
AcDbSpline
 70
8
 71
3
 72
8
 73
4
 74
0
 40
0
 40
0
 40
0
 40
0
 40
1
 40
1
 40
1
 40
1
 10
310.359792
 20
500.341904
 30
0.0
 10
311.186536
 20
500.341904
 30
0.0
 10
312.559104
 20
501.742784
 30
0.0
 10
313.671352
 20
503.721768
 30
0.0
  0
SPLINE
  5
162
100
AcDbEntity
  8
0
 62
7
100
AcDbSpline
 70
8
 71
3
 72
8
 73
4
 74
0
 40
0
 40
0
 40
0
 40
0
 40
1
 40
1
 40
1
 40
1
 10
313.671352
 20
503.721768
 30
0.0
 10
316.611784
 20
508.953552
 30
0.0
 10
325.494168
 20
517.347464
 30
0.0
 10
330.897176
 20
520.000280
 30
0.0
  0
SPLINE
  5
163
100
AcDbEntity
  8
0
 62
7
100
AcDbSpline
 70
8
 71
3
 72
8
 73
4
 74
0
 40
0
 40
0
 40
0
 40
0
 40
1
 40
1
 40
1
 40
1
 10
330.897176
 20
520.000280
 30
0.0
 10
335.301040
 20
522.162520
 30
0.0
 10
336.271160
 20
522.328832
 30
0.0
 10
343.560824
 20
522.171216
 30
0.0
  0
SPLINE
  5
164
100
AcDbEntity
  8
0
 62
7
100
AcDbSpline
 70
8
 71
3
 72
8
 73
4
 74
0
 40
0
 40
0
 40
0
 40
0
 40
1
 40
1
 40
1
 40
1
 10
343.560824
 20
522.171216
 30
0.0
 10
357.335168
 20
521.873400
 30
0.0
 10
361.491688
 20
519.769656
 30
0.0
 10
366.040152
 20
510.793688
 30
0.0
  0
SPLINE
  5
165
100
AcDbEntity
  8
0
 62
7
100
AcDbSpline
 70
8
 71
3
 72
8
 73
4
 74
0
 40
0
 40
0
 40
0
 40
0
 40
1
 40
1
 40
1
 40
1
 10
366.040152
 20
510.793688
 30
0.0
 10
370.000352
 20
502.978616
 30
0.0
 10
370.741224
 20
498.545360
 30
0.0
 10
370.193328
 20
485.941904
 30
0.0
  0
SPLINE
  5
166
100
AcDbEntity
  8
0
 62
7
100
AcDbSpline
 70
8
 71
3
 72
8
 73
4
 74
0
 40
0
 40
0
 40
0
 40
0
 40
1
 40
1
 40
1
 40
1
 10
370.193328
 20
485.941904
 30
0.0
 10
369.618976
 20
472.729832
 30
0.0
 10
368.484296
 20
467.520400
 30
0.0
 10
364.425328
 20
459.460368
 30
0.0
  0
SPLINE
  5
167
100
AcDbEntity
  8
0
 62
7
100
AcDbSpline
 70
8
 71
3
 72
8
 73
4
 74
0
 40
0
 40
0
 40
0
 40
0
 40
1
 40
1
 40
1
 40
1
 10
364.425328
 20
459.460368
 30
0.0
 10
362.851432
 20
456.335024
 30
0.0
 10
361.773240
 20
453.568384
 30
0.0
 10
362.029344
 20
453.312280
 30
0.0
  0
SPLINE
  5
168
100
AcDbEntity
  8
0
 62
7
100
AcDbSpline
 70
8
 71
3
 72
8
 73
4
 74
0
 40
0
 40
0
 40
0
 40
0
 40
1
 40
1
 40
1
 40
1
 10
362.029344
 20
453.312280
 30
0.0
 10
362.285456
 20
453.056176
 30
0.0
 10
364.987120
 20
454.052248
 30
0.0
 10
368.033056
 20
455.525776
 30
0.0
  0
SPLINE
  5
169
100
AcDbEntity
  8
0
 62
7
100
AcDbSpline
 70
8
 71
3
 72
8
 73
4
 74
0
 40
0
 40
0
 40
0
 40
0
 40
1
 40
1
 40
1
 40
1
 10
368.033056
 20
455.525776
 30
0.0
 10
372.240768
 20
457.561336
 30
0.0
 10
374.495408
 20
458.171112
 30
0.0
 10
377.418760
 20
458.064160
 30
0.0
  0
SPLINE
  5
16a
100
AcDbEntity
  8
0
 62
7
100
AcDbSpline
 70
8
 71
3
 72
8
 73
4
 74
0
 40
0
 40
0
 40
0
 40
0
 40
1
 40
1
 40
1
 40
1
 10
377.418760
 20
458.064160
 30
0.0
 10
387.590048
 20
457.692056
 30
0.0
 10
394.903072
 20
452.291072
 30
0.0
 10
400.775256
 20
440.814376
 30
0.0
  0
SPLINE
  5
16b
100
AcDbEntity
  8
0
 62
7
100
AcDbSpline
 70
8
 71
3
 72
8
 73
4
 74
0
 40
0
 40
0
 40
0
 40
0
 40
1
 40
1
 40
1
 40
1
 10
400.775256
 20
440.814376
 30
0.0
 10
403.214344
 20
436.047392
 30
0.0
 10
403.432696
 20
435.082552
 30
0.0
 10
402.967728
 20
431.126432
 30
0.0
  0
SPLINE
  5
16c
100
AcDbEntity
  8
0
 62
7
100
AcDbSpline
 70
8
 71
3
 72
8
 73
4
 74
0
 40
0
 40
0
 40
0
 40
0
 40
1
 40
1
 40
1
 40
1
 10
402.967728
 20
431.126432
 30
0.0
 10
402.683712
 20
428.709904
 30
0.0
 10
400.976168
 20
423.404800
 30
0.0
 10
399.173184
 20
419.337320
 30
0.0
  0
SPLINE
  5
16d
100
AcDbEntity
  8
0
 62
7
100
AcDbSpline
 70
8
 71
3
 72
8
 73
4
 74
0
 40
0
 40
0
 40
0
 40
0
 40
1
 40
1
 40
1
 40
1
 10
399.173184
 20
419.337320
 30
0.0
 10
392.974672
 20
405.353664
 30
0.0
 10
391.979176
 20
402.676992
 30
0.0
 10
392.438600
 20
401.229472
 30
0.0
  0
SPLINE
  5
16e
100
AcDbEntity
  8
0
 62
7
100
AcDbSpline
 70
8
 71
3
 72
8
 73
4
 74
0
 40
0
 40
0
 40
0
 40
0
 40
1
 40
1
 40
1
 40
1
 10
392.438600
 20
401.229472
 30
0.0
 10
392.691912
 20
400.431360
 30
0.0
 10
394.720128
 20
398.787264
 30
0.0
 10
396.945744
 20
397.575928
 30
0.0
  0
SPLINE
  5
16f
100
AcDbEntity
  8
0
 62
7
100
AcDbSpline
 70
8
 71
3
 72
8
 73
4
 74
0
 40
0
 40
0
 40
0
 40
0
 40
1
 40
1
 40
1
 40
1
 10
396.945744
 20
397.575928
 30
0.0
 10
399.171360
 20
396.364600
 30
0.0
 10
401.689976
 20
394.241400
 30
0.0
 10
402.542672
 20
392.857704
 30
0.0
  0
SPLINE
  5
170
100
AcDbEntity
  8
0
 62
7
100
AcDbSpline
 70
8
 71
3
 72
8
 73
4
 74
0
 40
0
 40
0
 40
0
 40
0
 40
1
 40
1
 40
1
 40
1
 10
402.542672
 20
392.857704
 30
0.0
 10
404.803344
 20
389.189248
 30
0.0
 10
406.984424
 20
381.554560
 30
0.0
 10
407.603728
 20
375.141904
 30
0.0
  0
SPLINE
  5
171
100
AcDbEntity
  8
0
 62
7
100
AcDbSpline
 70
8
 71
3
 72
8
 73
4
 74
0
 40
0
 40
0
 40
0
 40
0
 40
1
 40
1
 40
1
 40
1
 10
407.603728
 20
375.141904
 30
0.0
 10
408.279192
 20
368.147776
 30
0.0
 10
409.253168
 20
365.604832
 30
0.0
 10
411.947296
 20
363.801344
 30
0.0
  0
SPLINE
  5
172
100
AcDbEntity
  8
0
 62
7
100
AcDbSpline
 70
8
 71
3
 72
8
 73
4
 74
0
 40
0
 40
0
 40
0
 40
0
 40
1
 40
1
 40
1
 40
1
 10
411.947296
 20
363.801344
 30
0.0
 10
413.850784
 20
362.527112
 30
0.0
 10
416.391880
 20
362.380704
 30
0.0
 10
436.922400
 20
362.362344
 30
0.0
  0
LWPOLYLINE
  5
173
100
AcDbEntity
  8
0
 62
7
100
AcDbPolyline
 90
3
 70
0
 10
290.470856
 20
595.323944
 30
0.0
 10
290.466056
 20
589.105984
 30
0.0
 10
296.498776
 20
582.655184
 30
0.0
  0
SPLINE
  5
174
100
AcDbEntity
  8
0
 62
7
100
AcDbSpline
 70
8
 71
3
 72
8
 73
4
 74
0
 40
0
 40
0
 40
0
 40
0
 40
1
 40
1
 40
1
 40
1
 10
459.170168
 20
365.541864
 30
0.0
 10
458.835632
 20
367.301864
 30
0.0
 10
458.942776
 20
372.336144
 30
0.0
 10
459.408256
 20
376.729144
 30
0.0
  0
SPLINE
  5
175
100
AcDbEntity
  8
0
 62
7
100
AcDbSpline
 70
8
 71
3
 72
8
 73
4
 74
0
 40
0
 40
0
 40
0
 40
0
 40
1
 40
1
 40
1
 40
1
 10
459.408256
 20
376.729144
 30
0.0
 10
460.459720
 20
386.652440
 30
0.0
 10
459.995088
 20
393.253816
 30
0.0
 10
457.649144
 20
401.722024
 30
0.0
  0
LWPOLYLINE
  5
176
100
AcDbEntity
  8
0
 62
7
100
AcDbPolyline
 90
3
 70
0
 10
436.922400
 20
362.362344
 30
0.0
 10
459.778408
 20
362.341864
 30
0.0
 10
459.170168
 20
365.541864
 30
0.0
  0
SPLINE
  5
177
100
AcDbEntity
  8
0
 62
7
100
AcDbSpline
 70
8
 71
3
 72
8
 73
4
 74
0
 40
0
 40
0
 40
0
 40
0
 40
1
 40
1
 40
1
 40
1
 10
450.365888
 20
411.546128
 30
0.0
 10
443.501616
 20
415.624112
 30
0.0
 10
435.663160
 20
422.827872
 30
0.0
 10
433.520824
 20
427.027208
 30
0.0
  0
SPLINE
  5
178
100
AcDbEntity
  8
0
 62
7
100
AcDbSpline
 70
8
 71
3
 72
8
 73
4
 74
0
 40
0
 40
0
 40
0
 40
0
 40
1
 40
1
 40
1
 40
1
 10
433.520824
 20
427.027208
 30
0.0
 10
432.618504
 20
428.795896
 30
0.0
 10
430.918056
 20
432.961688
 30
0.0
 10
429.742056
 20
436.284520
 30
0.0
  0
SPLINE
  5
179
100
AcDbEntity
  8
0
 62
7
100
AcDbSpline
 70
8
 71
3
 72
8
 73
4
 74
0
 40
0
 40
0
 40
0
 40
0
 40
1
 40
1
 40
1
 40
1
 10
429.742056
 20
436.284520
 30
0.0
 10
427.867624
 20
441.580768
 30
0.0
 10
427.212976
 20
442.545848
 30
0.0
 10
424.435128
 20
444.107944
 30
0.0
  0
SPLINE
  5
17a
100
AcDbEntity
  8
0
 62
7
100
AcDbSpline
 70
8
 71
3
 72
8
 73
4
 74
0
 40
0
 40
0
 40
0
 40
0
 40
1
 40
1
 40
1
 40
1
 10
424.435128
 20
444.107944
 30
0.0
 10
422.076520
 20
445.434288
 30
0.0
 10
420.513920
 20
445.770416
 30
0.0
 10
418.323192
 20
445.422696
 30
0.0
  0
SPLINE
  5
17b
100
AcDbEntity
  8
0
 62
7
100
AcDbSpline
 70
8
 71
3
 72
8
 73
4
 74
0
 40
0
 40
0
 40
0
 40
0
 40
1
 40
1
 40
1
 40
1
 10
418.323192
 20
445.422696
 30
0.0
 10
415.873576
 20
445.033880
 30
0.0
 10
415.035064
 20
445.300464
 30
0.0
 10
413.323192
 20
447.012336
 30
0.0
  0
SPLINE
  5
17c
100
AcDbEntity
  8
0
 62
7
100
AcDbSpline
 70
8
 71
3
 72
8
 73
4
 74
0
 40
0
 40
0
 40
0
 40
0
 40
1
 40
1
 40
1
 40
1
 10
413.323192
 20
447.012336
 30
0.0
 10
410.728168
 20
449.607360
 30
0.0
 10
410.693544
 20
452.641744
 30
0.0
 10
413.230032
 20
455.178224
 30
0.0
  0
SPLINE
  5
17d
100
AcDbEntity
  8
0
 62
7
100
AcDbSpline
 70
8
 71
3
 72
8
 73
4
 74
0
 40
0
 40
0
 40
0
 40
0
 40
1
 40
1
 40
1
 40
1
 10
413.230032
 20
455.178224
 30
0.0
 10
415.446104
 20
457.394304
 30
0.0
 10
418.214488
 20
457.699504
 30
0.0
 10
420.513488
 20
455.981200
 30
0.0
  0
SPLINE
  5
17e
100
AcDbEntity
  8
0
 62
7
100
AcDbSpline
 70
8
 71
3
 72
8
 73
4
 74
0
 40
0
 40
0
 40
0
 40
0
 40
1
 40
1
 40
1
 40
1
 10
420.513488
 20
455.981200
 30
0.0
 10
421.519480
 20
455.229304
 30
0.0
 10
423.068944
 20
454.974928
 30
0.0
 10
424.913048
 20
455.258928
 30
0.0
  0
SPLINE
  5
17f
100
AcDbEntity
  8
0
 62
7
100
AcDbSpline
 70
8
 71
3
 72
8
 73
4
 74
0
 40
0
 40
0
 40
0
 40
0
 40
1
 40
1
 40
1
 40
1
 10
424.913048
 20
455.258928
 30
0.0
 10
427.616768
 20
455.675304
 30
0.0
 10
441.054792
 20
454.415816
 30
0.0
 10
444.466392
 20
453.426280
 30
0.0
  0
SPLINE
  5
180
100
AcDbEntity
  8
0
 62
7
100
AcDbSpline
 70
8
 71
3
 72
8
 73
4
 74
0
 40
0
 40
0
 40
0
 40
0
 40
1
 40
1
 40
1
 40
1
 10
444.466392
 20
453.426280
 30
0.0
 10
445.613320
 20
453.093608
 30
0.0
 10
445.170912
 20
453.893776
 30
0.0
 10
442.904032
 20
456.252032
 30
0.0
  0
SPLINE
  5
181
100
AcDbEntity
  8
0
 62
7
100
AcDbSpline
 70
8
 71
3
 72
8
 73
4
 74
0
 40
0
 40
0
 40
0
 40
0
 40
1
 40
1
 40
1
 40
1
 10
442.904032
 20
456.252032
 30
0.0
 10
441.164736
 20
458.061480
 30
0.0
 10
439.078376
 20
459.541904
 30
0.0
 10
438.267672
 20
459.541904
 30
0.0
  0
SPLINE
  5
182
100
AcDbEntity
  8
0
 62
7
100
AcDbSpline
 70
8
 71
3
 72
8
 73
4
 74
0
 40
0
 40
0
 40
0
 40
0
 40
1
 40
1
 40
1
 40
1
 10
438.267672
 20
459.541904
 30
0.0
 10
437.456968
 20
459.541904
 30
0.0
 10
435.910032
 20
460.425544
 30
0.0
 10
434.830032
 20
461.505544
 30
0.0
  0
SPLINE
  5
183
100
AcDbEntity
  8
0
 62
7
100
AcDbSpline
 70
8
 71
3
 72
8
 73
4
 74
0
 40
0
 40
0
 40
0
 40
0
 40
1
 40
1
 40
1
 40
1
 10
434.830032
 20
461.505544
 30
0.0
 10
432.157848
 20
464.177728
 30
0.0
 10
432.218768
 20
467.716352
 30
0.0
 10
434.974280
 20
469.883840
 30
0.0
  0
SPLINE
  5
184
100
AcDbEntity
  8
0
 62
7
100
AcDbSpline
 70
8
 71
3
 72
8
 73
4
 74
0
 40
0
 40
0
 40
0
 40
0
 40
1
 40
1
 40
1
 40
1
 10
434.974280
 20
469.883840
 30
0.0
 10
437.580704
 20
471.934056
 30
0.0
 10
440.066536
 20
471.993744
 30
0.0
 10
442.558504
 20
470.065968
 30
0.0
  0
SPLINE
  5
185
100
AcDbEntity
  8
0
 62
7
100
AcDbSpline
 70
8
 71
3
 72
8
 73
4
 74
0
 40
0
 40
0
 40
0
 40
0
 40
1
 40
1
 40
1
 40
1
 10
442.558504
 20
470.065968
 30
0.0
 10
443.607840
 20
469.254200
 30
0.0
 10
445.653392
 20
468.359800
 30
0.0
 10
447.104160
 20
468.078416
 30
0.0
  0
SPLINE
  5
186
100
AcDbEntity
  8
0
 62
7
100
AcDbSpline
 70
8
 71
3
 72
8
 73
4
 74
0
 40
0
 40
0
 40
0
 40
0
 40
1
 40
1
 40
1
 40
1
 10
447.104160
 20
468.078416
 30
0.0
 10
450.401448
 20
467.438880
 30
0.0
 10
454.917144
 20
464.343840
 30
0.0
 10
461.866392
 20
457.960448
 30
0.0
  0
LWPOLYLINE
  5
187
100
AcDbEntity
  8
0
 62
7
100
AcDbPolyline
 90
3
 70
0
 10
457.649144
 20
401.722024
 30
0.0
 10
455.826248
 20
408.302184
 30
0.0
 10
450.365888
 20
411.546128
 30
0.0
  0
SPLINE
  5
188
100
AcDbEntity
  8
0
 62
7
100
AcDbSpline
 70
8
 71
3
 72
8
 73
4
 74
0
 40
0
 40
0
 40
0
 40
0
 40
1
 40
1
 40
1
 40
1
 10
467.266392
 20
456.344848
 30
0.0
 10
467.266392
 20
458.478184
 30
0.0
 10
466.686912
 20
460.426224
 30
0.0
 10
465.666392
 20
461.723608
 30
0.0
  0
SPLINE
  5
189
100
AcDbEntity
  8
0
 62
7
100
AcDbSpline
 70
8
 71
3
 72
8
 73
4
 74
0
 40
0
 40
0
 40
0
 40
0
 40
1
 40
1
 40
1
 40
1
 10
465.666392
 20
461.723608
 30
0.0
 10
462.374896
 20
465.908064
 30
0.0
 10
464.691000
 20
471.541904
 30
0.0
 10
469.702752
 20
471.541904
 30
0.0
  0
SPLINE
  5
18a
100
AcDbEntity
  8
0
 62
7
100
AcDbSpline
 70
8
 71
3
 72
8
 73
4
 74
0
 40
0
 40
0
 40
0
 40
0
 40
1
 40
1
 40
1
 40
1
 10
469.702752
 20
471.541904
 30
0.0
 10
471.957336
 20
471.541904
 30
0.0
 10
473.111136
 20
470.715416
 30
0.0
 10
476.576584
 20
466.618064
 30
0.0
  0
SPLINE
  5
18b
100
AcDbEntity
  8
0
 62
7
100
AcDbSpline
 70
8
 71
3
 72
8
 73
4
 74
0
 40
0
 40
0
 40
0
 40
0
 40
1
 40
1
 40
1
 40
1
 10
476.576584
 20
466.618064
 30
0.0
 10
477.077192
 20
466.026176
 30
0.0
 10
478.774784
 20
464.546456
 30
0.0
 10
480.349008
 20
463.329800
 30
0.0
  0
SPLINE
  5
18c
100
AcDbEntity
  8
0
 62
7
100
AcDbSpline
 70
8
 71
3
 72
8
 73
4
 74
0
 40
0
 40
0
 40
0
 40
0
 40
1
 40
1
 40
1
 40
1
 10
480.349008
 20
463.329800
 30
0.0
 10
484.469664
 20
460.145120
 30
0.0
 10
485.117848
 20
456.869168
 30
0.0
 10
484.700704
 20
441.336344
 30
0.0
  0
LWPOLYLINE
  5
18d
100
AcDbEntity
  8
0
 62
7
100
AcDbPolyline
 90
3
 70
0
 10
461.866392
 20
457.960448
 30
0.0
 10
467.266392
 20
453.000160
 30
0.0
 10
467.266392
 20
456.344848
 30
0.0
  0
SPLINE
  5
18e
100
AcDbEntity
  8
0
 62
7
100
AcDbSpline
 70
8
 71
3
 72
8
 73
4
 74
0
 40
0
 40
0
 40
0
 40
0
 40
1
 40
1
 40
1
 40
1
 10
486.208912
 20
430.075792
 30
0.0
 10
487.230528
 20
431.035552
 30
0.0
 10
488.066392
 20
432.314416
 30
0.0
 10
488.066392
 20
432.917720
 30
0.0
  0
SPLINE
  5
18f
100
AcDbEntity
  8
0
 62
7
100
AcDbSpline
 70
8
 71
3
 72
8
 73
4
 74
0
 40
0
 40
0
 40
0
 40
0
 40
1
 40
1
 40
1
 40
1
 10
488.066392
 20
432.917720
 30
0.0
 10
488.066392
 20
434.758672
 30
0.0
 10
491.867888
 20
437.941904
 30
0.0
 10
494.066392
 20
437.941904
 30
0.0
  0
SPLINE
  5
190
100
AcDbEntity
  8
0
 62
7
100
AcDbSpline
 70
8
 71
3
 72
8
 73
4
 74
0
 40
0
 40
0
 40
0
 40
0
 40
1
 40
1
 40
1
 40
1
 10
494.066392
 20
437.941904
 30
0.0
 10
496.733680
 20
437.941904
 30
0.0
 10
500.066392
 20
434.609192
 30
0.0
 10
500.066392
 20
431.941904
 30
0.0
  0
SPLINE
  5
191
100
AcDbEntity
  8
0
 62
7
100
AcDbSpline
 70
8
 71
3
 72
8
 73
4
 74
0
 40
0
 40
0
 40
0
 40
0
 40
1
 40
1
 40
1
 40
1
 10
500.066392
 20
431.941904
 30
0.0
 10
500.066392
 20
430.801904
 30
0.0
 10
499.220496
 20
429.023280
 30
0.0
 10
498.186624
 20
427.989408
 30
0.0
  0
SPLINE
  5
192
100
AcDbEntity
  8
0
 62
7
100
AcDbSpline
 70
8
 71
3
 72
8
 73
4
 74
0
 40
0
 40
0
 40
0
 40
0
 40
1
 40
1
 40
1
 40
1
 10
498.186624
 20
427.989408
 30
0.0
 10
497.040544
 20
426.843328
 30
0.0
 10
496.117808
 20
424.730360
 30
0.0
 10
495.822488
 20
422.575760
 30
0.0
  0
SPLINE
  5
193
100
AcDbEntity
  8
0
 62
7
100
AcDbSpline
 70
8
 71
3
 72
8
 73
4
 74
0
 40
0
 40
0
 40
0
 40
0
 40
1
 40
1
 40
1
 40
1
 10
495.822488
 20
422.575760
 30
0.0
 10
495.556088
 20
420.632128
 30
0.0
 10
494.601976
 20
417.324536
 30
0.0
 10
493.702256
 20
415.225568
 30
0.0
  0
SPLINE
  5
194
100
AcDbEntity
  8
0
 62
7
100
AcDbSpline
 70
8
 71
3
 72
8
 73
4
 74
0
 40
0
 40
0
 40
0
 40
0
 40
1
 40
1
 40
1
 40
1
 10
493.702256
 20
415.225568
 30
0.0
 10
490.725112
 20
408.280184
 30
0.0
 10
491.405112
 20
405.764000
 30
0.0
 10
498.202888
 20
398.571984
 30
0.0
  0
SPLINE
  5
195
100
AcDbEntity
  8
0
 62
7
100
AcDbSpline
 70
8
 71
3
 72
8
 73
4
 74
0
 40
0
 40
0
 40
0
 40
0
 40
1
 40
1
 40
1
 40
1
 10
498.202888
 20
398.571984
 30
0.0
 10
503.853360
 20
392.593816
 30
0.0
 10
506.971560
 20
385.782096
 30
0.0
 10
510.524552
 20
371.655256
 30
0.0
  0
LWPOLYLINE
  5
196
100
AcDbEntity
  8
0
 62
7
100
AcDbPolyline
 90
3
 70
0
 10
484.700704
 20
441.336344
 30
0.0
 10
484.351432
 20
428.330784
 30
0.0
 10
486.208912
 20
430.075792
 30
0.0
  0
SPLINE
  5
197
100
AcDbEntity
  8
0
 62
7
100
AcDbSpline
 70
8
 71
3
 72
8
 73
4
 74
0
 40
0
 40
0
 40
0
 40
0
 40
1
 40
1
 40
1
 40
1
 10
516.737976
 20
365.432504
 30
0.0
 10
521.566888
 20
373.078552
 30
0.0
 10
524.232288
 20
381.631384
 30
0.0
 10
524.249224
 20
389.534840
 30
0.0
  0
SPLINE
  5
198
100
AcDbEntity
  8
0
 62
7
100
AcDbSpline
 70
8
 71
3
 72
8
 73
4
 74
0
 40
0
 40
0
 40
0
 40
0
 40
1
 40
1
 40
1
 40
1
 10
524.249224
 20
389.534840
 30
0.0
 10
524.264344
 20
396.598680
 30
0.0
 10
523.029024
 20
400.876584
 30
0.0
 10
519.290184
 20
406.707752
 30
0.0
  0
SPLINE
  5
199
100
AcDbEntity
  8
0
 62
7
100
AcDbSpline
 70
8
 71
3
 72
8
 73
4
 74
0
 40
0
 40
0
 40
0
 40
0
 40
1
 40
1
 40
1
 40
1
 10
519.290184
 20
406.707752
 30
0.0
 10
516.285184
 20
411.394400
 30
0.0
 10
515.526848
 20
414.987344
 30
0.0
 10
514.504528
 20
429.382000
 30
0.0
  0
SPLINE
  5
19a
100
AcDbEntity
  8
0
 62
7
100
AcDbSpline
 70
8
 71
3
 72
8
 73
4
 74
0
 40
0
 40
0
 40
0
 40
0
 40
1
 40
1
 40
1
 40
1
 10
514.504528
 20
429.382000
 30
0.0
 10
513.793608
 20
439.391928
 30
0.0
 10
513.357856
 20
441.803952
 30
0.0
 10
511.652424
 20
445.169472
 30
0.0
  0
SPLINE
  5
19b
100
AcDbEntity
  8
0
 62
7
100
AcDbSpline
 70
8
 71
3
 72
8
 73
4
 74
0
 40
0
 40
0
 40
0
 40
0
 40
1
 40
1
 40
1
 40
1
 10
511.652424
 20
445.169472
 30
0.0
 10
510.235456
 20
447.965712
 30
0.0
 10
509.158920
 20
449.141904
 30
0.0
 10
508.016552
 20
449.141904
 30
0.0
  0
SPLINE
  5
19c
100
AcDbEntity
  8
0
 62
7
100
AcDbSpline
 70
8
 71
3
 72
8
 73
4
 74
0
 40
0
 40
0
 40
0
 40
0
 40
1
 40
1
 40
1
 40
1
 10
508.016552
 20
449.141904
 30
0.0
 10
505.546752
 20
449.141904
 30
0.0
 10
502.466392
 20
452.673752
 30
0.0
 10
502.466392
 20
455.505544
 30
0.0
  0
SPLINE
  5
19d
100
AcDbEntity
  8
0
 62
7
100
AcDbSpline
 70
8
 71
3
 72
8
 73
4
 74
0
 40
0
 40
0
 40
0
 40
0
 40
1
 40
1
 40
1
 40
1
 10
502.466392
 20
455.505544
 30
0.0
 10
502.466392
 20
458.436904
 30
0.0
 10
504.926544
 20
461.141904
 30
0.0
 10
507.592560
 20
461.141904
 30
0.0
  0
SPLINE
  5
19e
100
AcDbEntity
  8
0
 62
7
100
AcDbSpline
 70
8
 71
3
 72
8
 73
4
 74
0
 40
0
 40
0
 40
0
 40
0
 40
1
 40
1
 40
1
 40
1
 10
507.592560
 20
461.141904
 30
0.0
 10
510.321536
 20
461.141904
 30
0.0
 10
517.192648
 20
457.498272
 30
0.0
 10
523.196352
 20
452.867488
 30
0.0
  0
SPLINE
  5
19f
100
AcDbEntity
  8
0
 62
7
100
AcDbSpline
 70
8
 71
3
 72
8
 73
4
 74
0
 40
0
 40
0
 40
0
 40
0
 40
1
 40
1
 40
1
 40
1
 10
523.196352
 20
452.867488
 30
0.0
 10
526.017832
 20
450.691224
 30
0.0
 10
528.113512
 20
449.465208
 30
0.0
 10
527.853416
 20
450.143008
 30
0.0
  0
SPLINE
  5
1a0
100
AcDbEntity
  8
0
 62
7
100
AcDbSpline
 70
8
 71
3
 72
8
 73
4
 74
0
 40
0
 40
0
 40
0
 40
0
 40
1
 40
1
 40
1
 40
1
 10
527.853416
 20
450.143008
 30
0.0
 10
527.593320
 20
450.820800
 30
0.0
 10
526.937856
 20
452.852832
 30
0.0
 10
526.396824
 20
454.658632
 30
0.0
  0
SPLINE
  5
1a1
100
AcDbEntity
  8
0
 62
7
100
AcDbSpline
 70
8
 71
3
 72
8
 73
4
 74
0
 40
0
 40
0
 40
0
 40
0
 40
1
 40
1
 40
1
 40
1
 10
526.396824
 20
454.658632
 30
0.0
 10
525.855792
 20
456.464432
 30
0.0
 10
525.093752
 20
457.941904
 30
0.0
 10
524.703400
 20
457.941904
 30
0.0
  0
SPLINE
  5
1a2
100
AcDbEntity
  8
0
 62
7
100
AcDbSpline
 70
8
 71
3
 72
8
 73
4
 74
0
 40
0
 40
0
 40
0
 40
0
 40
1
 40
1
 40
1
 40
1
 10
524.703400
 20
457.941904
 30
0.0
 10
523.014376
 20
457.941904
 30
0.0
 10
520.066392
 20
461.987592
 30
0.0
 10
520.066392
 20
464.305544
 30
0.0
  0
SPLINE
  5
1a3
100
AcDbEntity
  8
0
 62
7
100
AcDbSpline
 70
8
 71
3
 72
8
 73
4
 74
0
 40
0
 40
0
 40
0
 40
0
 40
1
 40
1
 40
1
 40
1
 10
520.066392
 20
464.305544
 30
0.0
 10
520.066392
 20
469.774888
 30
0.0
 10
526.418416
 20
471.863440
 30
0.0
 10
530.345424
 20
467.685296
 30
0.0
  0
SPLINE
  5
1a4
100
AcDbEntity
  8
0
 62
7
100
AcDbSpline
 70
8
 71
3
 72
8
 73
4
 74
0
 40
0
 40
0
 40
0
 40
0
 40
1
 40
1
 40
1
 40
1
 10
530.345424
 20
467.685296
 30
0.0
 10
531.511960
 20
466.444168
 30
0.0
 10
534.512312
 20
464.124040
 30
0.0
 10
537.012872
 20
462.529472
 30
0.0
  0
SPLINE
  5
1a5
100
AcDbEntity
  8
0
 62
7
100
AcDbSpline
 70
8
 71
3
 72
8
 73
4
 74
0
 40
0
 40
0
 40
0
 40
0
 40
1
 40
1
 40
1
 40
1
 10
537.012872
 20
462.529472
 30
0.0
 10
542.569848
 20
458.985872
 30
0.0
 10
547.448088
 20
452.989112
 30
0.0
 10
549.354312
 20
447.358288
 30
0.0
  0
LWPOLYLINE
  5
1a6
100
AcDbEntity
  8
0
 62
7
100
AcDbPolyline
 90
3
 70
0
 10
510.524552
 20
371.655256
 30
0.0
 10
513.413520
 20
360.168600
 30
0.0
 10
516.737976
 20
365.432504
 30
0.0
  0
SPLINE
  5
1a7
100
AcDbEntity
  8
0
 62
7
100
AcDbSpline
 70
8
 71
3
 72
8
 73
4
 74
0
 40
0
 40
0
 40
0
 40
0
 40
1
 40
1
 40
1
 40
1
 10
551.677368
 20
447.541904
 30
0.0
 10
552.386992
 20
451.027896
 30
0.0
 10
552.354240
 20
452.269704
 30
0.0
 10
551.519720
 20
453.519912
 30
0.0
  0
SPLINE
  5
1a8
100
AcDbEntity
  8
0
 62
7
100
AcDbSpline
 70
8
 71
3
 72
8
 73
4
 74
0
 40
0
 40
0
 40
0
 40
0
 40
1
 40
1
 40
1
 40
1
 10
551.519720
 20
453.519912
 30
0.0
 10
549.917384
 20
455.920384
 30
0.0
 10
550.253696
 20
458.601936
 30
0.0
 10
552.430032
 20
460.778264
 30
0.0
  0
SPLINE
  5
1a9
100
AcDbEntity
  8
0
 62
7
100
AcDbSpline
 70
8
 71
3
 72
8
 73
4
 74
0
 40
0
 40
0
 40
0
 40
0
 40
1
 40
1
 40
1
 40
1
 10
552.430032
 20
460.778264
 30
0.0
 10
554.963032
 20
463.311272
 30
0.0
 10
558.000976
 20
463.280048
 30
0.0
 10
560.586592
 20
460.694432
 30
0.0
  0
SPLINE
  5
1aa
100
AcDbEntity
  8
0
 62
7
100
AcDbSpline
 70
8
 71
3
 72
8
 73
4
 74
0
 40
0
 40
0
 40
0
 40
0
 40
1
 40
1
 40
1
 40
1
 10
560.586592
 20
460.694432
 30
0.0
 10
562.172384
 20
459.108640
 30
0.0
 10
562.549720
 20
458.072368
 30
0.0
 10
562.260048
 20
456.098680
 30
0.0
  0
SPLINE
  5
1ab
100
AcDbEntity
  8
0
 62
7
100
AcDbSpline
 70
8
 71
3
 72
8
 73
4
 74
0
 40
0
 40
0
 40
0
 40
0
 40
1
 40
1
 40
1
 40
1
 10
562.260048
 20
456.098680
 30
0.0
 10
562.054312
 20
454.696920
 30
0.0
 10
562.362184
 20
452.823696
 30
0.0
 10
562.944328
 20
451.935240
 30
0.0
  0
SPLINE
  5
1ac
100
AcDbEntity
  8
0
 62
7
100
AcDbSpline
 70
8
 71
3
 72
8
 73
4
 74
0
 40
0
 40
0
 40
0
 40
0
 40
1
 40
1
 40
1
 40
1
 10
562.944328
 20
451.935240
 30
0.0
 10
565.023648
 20
448.761792
 30
0.0
 10
566.647544
 20
440.325736
 30
0.0
 10
566.084648
 20
435.621416
 30
0.0
  0
SPLINE
  5
1ad
100
AcDbEntity
  8
0
 62
7
100
AcDbSpline
 70
8
 71
3
 72
8
 73
4
 74
0
 40
0
 40
0
 40
0
 40
0
 40
1
 40
1
 40
1
 40
1
 10
566.084648
 20
435.621416
 30
0.0
 10
565.254936
 20
428.687232
 30
0.0
 10
562.635008
 20
419.087072
 30
0.0
 10
559.294904
 20
410.741904
 30
0.0
  0
SPLINE
  5
1ae
100
AcDbEntity
  8
0
 62
7
100
AcDbSpline
 70
8
 71
3
 72
8
 73
4
 74
0
 40
0
 40
0
 40
0
 40
0
 40
1
 40
1
 40
1
 40
1
 10
559.294904
 20
410.741904
 30
0.0
 10
556.398424
 20
403.505128
 30
0.0
 10
556.210016
 20
402.472808
 30
0.0
 10
555.352648
 20
389.141904
 30
0.0
  0
SPLINE
  5
1af
100
AcDbEntity
  8
0
 62
7
100
AcDbSpline
 70
8
 71
3
 72
8
 73
4
 74
0
 40
0
 40
0
 40
0
 40
0
 40
1
 40
1
 40
1
 40
1
 10
555.352648
 20
389.141904
 30
0.0
 10
554.345112
 20
373.476136
 30
0.0
 10
554.228880
 20
364.698056
 30
0.0
 10
554.958504
 20
359.374872
 30
0.0
  0
LWPOLYLINE
  5
1b0
100
AcDbEntity
  8
0
 62
7
100
AcDbPolyline
 90
3
 70
0
 10
549.354312
 20
447.358288
 30
0.0
 10
550.781696
 20
443.141904
 30
0.0
 10
551.677368
 20
447.541904
 30
0.0
  0
SPLINE
  5
1b1
100
AcDbEntity
  8
0
 62
7
100
AcDbSpline
 70
8
 71
3
 72
8
 73
4
 74
0
 40
0
 40
0
 40
0
 40
0
 40
1
 40
1
 40
1
 40
1
 10
560.758504
 20
354.820232
 30
0.0
 10
563.677840
 20
354.289880
 30
0.0
 10
568.946392
 20
352.942848
 30
0.0
 10
572.466392
 20
351.826832
 30
0.0
  0
SPLINE
  5
1b2
100
AcDbEntity
  8
0
 62
7
100
AcDbSpline
 70
8
 71
3
 72
8
 73
4
 74
0
 40
0
 40
0
 40
0
 40
0
 40
1
 40
1
 40
1
 40
1
 10
572.466392
 20
351.826832
 30
0.0
 10
577.887024
 20
350.108224
 30
0.0
 10
579.758248
 20
349.875456
 30
0.0
 10
584.694544
 20
350.305720
 30
0.0
  0
SPLINE
  5
1b3
100
AcDbEntity
  8
0
 62
7
100
AcDbSpline
 70
8
 71
3
 72
8
 73
4
 74
0
 40
0
 40
0
 40
0
 40
0
 40
1
 40
1
 40
1
 40
1
 10
584.694544
 20
350.305720
 30
0.0
 10
592.334448
 20
350.971648
 30
0.0
 10
592.959440
 20
351.236120
 30
0.0
 10
592.028440
 20
353.409152
 30
0.0
  0
SPLINE
  5
1b4
100
AcDbEntity
  8
0
 62
7
100
AcDbSpline
 70
8
 71
3
 72
8
 73
4
 74
0
 40
0
 40
0
 40
0
 40
0
 40
1
 40
1
 40
1
 40
1
 10
592.028440
 20
353.409152
 30
0.0
 10
590.677728
 20
356.561808
 30
0.0
 10
585.780440
 20
376.516888
 30
0.0
 10
582.768232
 20
391.141904
 30
0.0
  0
SPLINE
  5
1b5
100
AcDbEntity
  8
0
 62
7
100
AcDbSpline
 70
8
 71
3
 72
8
 73
4
 74
0
 40
0
 40
0
 40
0
 40
0
 40
1
 40
1
 40
1
 40
1
 10
582.768232
 20
391.141904
 30
0.0
 10
580.056968
 20
404.305736
 30
0.0
 10
579.786096
 20
406.812408
 30
0.0
 10
579.612904
 20
420.341904
 30
0.0
  0
SPLINE
  5
1b6
100
AcDbEntity
  8
0
 62
7
100
AcDbSpline
 70
8
 71
3
 72
8
 73
4
 74
0
 40
0
 40
0
 40
0
 40
0
 40
1
 40
1
 40
1
 40
1
 10
579.612904
 20
420.341904
 30
0.0
 10
579.392136
 20
437.587560
 30
0.0
 10
579.766024
 20
442.736360
 30
0.0
 10
584.113008
 20
482.312984
 30
0.0
  0
SPLINE
  5
1b7
100
AcDbEntity
  8
0
 62
7
100
AcDbSpline
 70
8
 71
3
 72
8
 73
4
 74
0
 40
0
 40
0
 40
0
 40
0
 40
1
 40
1
 40
1
 40
1
 10
584.113008
 20
482.312984
 30
0.0
 10
585.899408
 20
498.577080
 30
0.0
 10
587.684416
 20
518.557080
 30
0.0
 10
588.079688
 20
526.712984
 30
0.0
  0
SPLINE
  5
1b8
100
AcDbEntity
  8
0
 62
7
100
AcDbSpline
 70
8
 71
3
 72
8
 73
4
 74
0
 40
0
 40
0
 40
0
 40
0
 40
1
 40
1
 40
1
 40
1
 10
588.079688
 20
526.712984
 30
0.0
 10
588.847792
 20
542.561776
 30
0.0
 10
590.233424
 20
549.972864
 30
0.0
 10
594.217640
 20
559.541904
 30
0.0
  0
SPLINE
  5
1b9
100
AcDbEntity
  8
0
 62
7
100
AcDbSpline
 70
8
 71
3
 72
8
 73
4
 74
0
 40
0
 40
0
 40
0
 40
0
 40
1
 40
1
 40
1
 40
1
 10
594.217640
 20
559.541904
 30
0.0
 10
597.027400
 20
566.290216
 30
0.0
 10
602.361320
 20
575.088424
 30
0.0
 10
606.478120
 20
579.765352
 30
0.0
  0
LWPOLYLINE
  5
1ba
100
AcDbEntity
  8
0
 62
7
100
AcDbPolyline
 90
3
 70
0
 10
554.958504
 20
359.374872
 30
0.0
 10
555.450616
 20
355.784520
 30
0.0
 10
560.758504
 20
354.820232
 30
0.0
  0
SPLINE
  5
1bb
100
AcDbEntity
  8
0
 62
7
100
AcDbSpline
 70
8
 71
3
 72
8
 73
4
 74
0
 40
0
 40
0
 40
0
 40
0
 40
1
 40
1
 40
1
 40
1
 10
607.669176
 20
587.862752
 30
0.0
 10
604.830664
 20
593.862864
 30
0.0
 10
599.986712
 20
599.017152
 30
0.0
 10
589.483872
 20
607.213120
 30
0.0
  0
SPLINE
  5
1bc
100
AcDbEntity
  8
0
 62
7
100
AcDbSpline
 70
8
 71
3
 72
8
 73
4
 74
0
 40
0
 40
0
 40
0
 40
0
 40
1
 40
1
 40
1
 40
1
 10
589.483872
 20
607.213120
 30
0.0
 10
580.856112
 20
613.945856
 30
0.0
 10
580.503768
 20
614.132200
 30
0.0
 10
578.067080
 20
613.251080
 30
0.0
  0
SPLINE
  5
1bd
100
AcDbEntity
  8
0
 62
7
100
AcDbSpline
 70
8
 71
3
 72
8
 73
4
 74
0
 40
0
 40
0
 40
0
 40
0
 40
1
 40
1
 40
1
 40
1
 10
578.067080
 20
613.251080
 30
0.0
 10
574.419336
 20
611.932040
 30
0.0
 10
571.622224
 20
612.127856
 30
0.0
 10
568.045288
 20
613.952672
 30
0.0
  0
SPLINE
  5
1be
100
AcDbEntity
  8
0
 62
7
100
AcDbSpline
 70
8
 71
3
 72
8
 73
4
 74
0
 40
0
 40
0
 40
0
 40
0
 40
1
 40
1
 40
1
 40
1
 10
568.045288
 20
613.952672
 30
0.0
 10
564.496248
 20
615.763256
 30
0.0
 10
561.666392
 20
620.372216
 30
0.0
 10
561.666392
 20
624.341912
 30
0.0
  0
SPLINE
  5
1bf
100
AcDbEntity
  8
0
 62
7
100
AcDbSpline
 70
8
 71
3
 72
8
 73
4
 74
0
 40
0
 40
0
 40
0
 40
0
 40
1
 40
1
 40
1
 40
1
 10
561.666392
 20
624.341912
 30
0.0
 10
561.666392
 20
630.429464
 30
0.0
 10
567.578840
 20
636.341912
 30
0.0
 10
573.666392
 20
636.341912
 30
0.0
  0
SPLINE
  5
1c0
100
AcDbEntity
  8
0
 62
7
100
AcDbSpline
 70
8
 71
3
 72
8
 73
4
 74
0
 40
0
 40
0
 40
0
 40
0
 40
1
 40
1
 40
1
 40
1
 10
573.666392
 20
636.341912
 30
0.0
 10
579.763184
 20
636.341912
 30
0.0
 10
585.666392
 20
630.428776
 30
0.0
 10
585.666392
 20
624.321728
 30
0.0
  0
SPLINE
  5
1c1
100
AcDbEntity
  8
0
 62
7
100
AcDbSpline
 70
8
 71
3
 72
8
 73
4
 74
0
 40
0
 40
0
 40
0
 40
0
 40
1
 40
1
 40
1
 40
1
 10
585.666392
 20
624.321728
 30
0.0
 10
585.666392
 20
621.999040
 30
0.0
 10
586.068856
 20
621.655024
 30
0.0
 10
591.866392
 20
619.022104
 30
0.0
  0
SPLINE
  5
1c2
100
AcDbEntity
  8
0
 62
7
100
AcDbSpline
 70
8
 71
3
 72
8
 73
4
 74
0
 40
0
 40
0
 40
0
 40
0
 40
1
 40
1
 40
1
 40
1
 10
591.866392
 20
619.022104
 30
0.0
 10
609.190384
 20
611.154480
 30
0.0
 10
616.308392
 20
607.192360
 30
0.0
 10
626.202992
 20
599.909208
 30
0.0
  0
SPLINE
  5
1c3
100
AcDbEntity
  8
0
 62
7
100
AcDbSpline
 70
8
 71
3
 72
8
 73
4
 74
0
 40
0
 40
0
 40
0
 40
0
 40
1
 40
1
 40
1
 40
1
 10
626.202992
 20
599.909208
 30
0.0
 10
627.842160
 20
598.702656
 30
0.0
 10
628.268536
 20
598.808632
 30
0.0
 10
633.802992
 20
601.798136
 30
0.0
  0
SPLINE
  5
1c4
100
AcDbEntity
  8
0
 62
7
100
AcDbSpline
 70
8
 71
3
 72
8
 73
4
 74
0
 40
0
 40
0
 40
0
 40
0
 40
1
 40
1
 40
1
 40
1
 10
633.802992
 20
601.798136
 30
0.0
 10
642.879736
 20
606.701048
 30
0.0
 10
663.061192
 20
613.173200
 30
0.0
 10
672.866392
 20
614.325688
 30
0.0
  0
SPLINE
  5
1c5
100
AcDbEntity
  8
0
 62
7
100
AcDbSpline
 70
8
 71
3
 72
8
 73
4
 74
0
 40
0
 40
0
 40
0
 40
0
 40
1
 40
1
 40
1
 40
1
 10
672.866392
 20
614.325688
 30
0.0
 10
686.745960
 20
615.957072
 30
0.0
 10
692.500240
 20
616.315784
 30
0.0
 10
704.987232
 20
616.328040
 30
0.0
  0
LWPOLYLINE
  5
1c6
100
AcDbEntity
  8
0
 62
7
100
AcDbPolyline
 90
3
 70
0
 10
606.478120
 20
579.765352
 30
0.0
 10
609.744416
 20
583.476064
 30
0.0
 10
607.669176
 20
587.862752
 30
0.0
  0
SPLINE
  5
1c7
100
AcDbEntity
  8
0
 62
7
100
AcDbSpline
 70
8
 71
3
 72
8
 73
4
 74
0
 40
0
 40
0
 40
0
 40
0
 40
1
 40
1
 40
1
 40
1
 10
717.590304
 20
623.287304
 30
0.0
 10
715.912136
 20
630.966712
 30
0.0
 10
713.623408
 20
637.571376
 30
0.0
 10
711.056584
 20
642.141885
 30
0.0
  0
SPLINE
  5
1c8
100
AcDbEntity
  8
0
 62
7
100
AcDbSpline
 70
8
 71
3
 72
8
 73
4
 74
0
 40
0
 40
0
 40
0
 40
0
 40
1
 40
1
 40
1
 40
1
 10
711.056584
 20
642.141885
 30
0.0
 10
709.564600
 20
644.798525
 30
0.0
 10
709.018728
 20
645.141885
 30
0.0
 10
706.287208
 20
645.141885
 30
0.0
  0
SPLINE
  5
1c9
100
AcDbEntity
  8
0
 62
7
100
AcDbSpline
 70
8
 71
3
 72
8
 73
4
 74
0
 40
0
 40
0
 40
0
 40
0
 40
1
 40
1
 40
1
 40
1
 10
706.287208
 20
645.141885
 30
0.0
 10
699.597896
 20
645.141885
 30
0.0
 10
693.666392
 20
650.781621
 30
0.0
 10
693.666392
 20
657.141885
 30
0.0
  0
SPLINE
  5
1ca
100
AcDbEntity
  8
0
 62
7
100
AcDbSpline
 70
8
 71
3
 72
8
 73
4
 74
0
 40
0
 40
0
 40
0
 40
0
 40
1
 40
1
 40
1
 40
1
 10
693.666392
 20
657.141885
 30
0.0
 10
693.666392
 20
661.111582
 30
0.0
 10
696.496248
 20
665.720532
 30
0.0
 10
700.045288
 20
667.531118
 30
0.0
  0
SPLINE
  5
1cb
100
AcDbEntity
  8
0
 62
7
100
AcDbSpline
 70
8
 71
3
 72
8
 73
4
 74
0
 40
0
 40
0
 40
0
 40
0
 40
1
 40
1
 40
1
 40
1
 10
700.045288
 20
667.531118
 30
0.0
 10
704.044072
 20
669.571146
 30
0.0
 10
707.288712
 20
669.571146
 30
0.0
 10
711.287496
 20
667.531118
 30
0.0
  0
SPLINE
  5
1cc
100
AcDbEntity
  8
0
 62
7
100
AcDbSpline
 70
8
 71
3
 72
8
 73
4
 74
0
 40
0
 40
0
 40
0
 40
0
 40
1
 40
1
 40
1
 40
1
 10
711.287496
 20
667.531118
 30
0.0
 10
716.712392
 20
664.763544
 30
0.0
 10
718.739136
 20
658.674047
 30
0.0
 10
716.498520
 20
651.874245
 30
0.0
  0
SPLINE
  5
1cd
100
AcDbEntity
  8
0
 62
7
100
AcDbSpline
 70
8
 71
3
 72
8
 73
4
 74
0
 40
0
 40
0
 40
0
 40
0
 40
1
 40
1
 40
1
 40
1
 10
716.498520
 20
651.874245
 30
0.0
 10
716.063648
 20
650.554509
 30
0.0
 10
717.254688
 20
648.681181
 30
0.0
 10
722.207704
 20
642.894581
 30
0.0
  0
SPLINE
  5
1ce
100
AcDbEntity
  8
0
 62
7
100
AcDbSpline
 70
8
 71
3
 72
8
 73
4
 74
0
 40
0
 40
0
 40
0
 40
0
 40
1
 40
1
 40
1
 40
1
 10
722.207704
 20
642.894581
 30
0.0
 10
729.217864
 20
634.704608
 30
0.0
 10
736.010440
 20
624.371744
 30
0.0
 10
738.660000
 20
617.867352
 30
0.0
  0
SPLINE
  5
1cf
100
AcDbEntity
  8
0
 62
7
100
AcDbSpline
 70
8
 71
3
 72
8
 73
4
 74
0
 40
0
 40
0
 40
0
 40
0
 40
1
 40
1
 40
1
 40
1
 10
738.660000
 20
617.867352
 30
0.0
 10
739.629088
 20
615.488336
 30
0.0
 10
740.474496
 20
613.439352
 30
0.0
 10
740.538696
 20
613.314040
 30
0.0
  0
SPLINE
  5
1d0
100
AcDbEntity
  8
0
 62
7
100
AcDbSpline
 70
8
 71
3
 72
8
 73
4
 74
0
 40
0
 40
0
 40
0
 40
0
 40
1
 40
1
 40
1
 40
1
 10
740.538696
 20
613.314040
 30
0.0
 10
740.602856
 20
613.188728
 30
0.0
 10
744.574080
 20
612.036288
 30
0.0
 10
749.363560
 20
610.753064
 30
0.0
  0
SPLINE
  5
1d1
100
AcDbEntity
  8
0
 62
7
100
AcDbSpline
 70
8
 71
3
 72
8
 73
4
 74
0
 40
0
 40
0
 40
0
 40
0
 40
1
 40
1
 40
1
 40
1
 10
749.363560
 20
610.753064
 30
0.0
 10
799.410872
 20
597.344112
 30
0.0
 10
833.614880
 20
559.699032
 30
0.0
 10
846.774720
 20
503.541880
 30
0.0
  0
SPLINE
  5
1d2
100
AcDbEntity
  8
0
 62
7
100
AcDbSpline
 70
8
 71
3
 72
8
 73
4
 74
0
 40
0
 40
0
 40
0
 40
0
 40
1
 40
1
 40
1
 40
1
 10
846.774720
 20
503.541880
 30
0.0
 10
851.013600
 20
485.453328
 30
0.0
 10
851.651200
 20
478.612440
 30
0.0
 10
851.659120
 20
451.141880
 30
0.0
  0
SPLINE
  5
1d3
100
AcDbEntity
  8
0
 62
7
100
AcDbSpline
 70
8
 71
3
 72
8
 73
4
 74
0
 40
0
 40
0
 40
0
 40
0
 40
1
 40
1
 40
1
 40
1
 10
851.659120
 20
451.141880
 30
0.0
 10
851.667120
 20
423.531568
 30
0.0
 10
851.027920
 20
416.678792
 30
0.0
 10
846.735120
 20
398.341880
 30
0.0
  0
SPLINE
  5
1d4
100
AcDbEntity
  8
0
 62
7
100
AcDbSpline
 70
8
 71
3
 72
8
 73
4
 74
0
 40
0
 40
0
 40
0
 40
0
 40
1
 40
1
 40
1
 40
1
 10
846.735120
 20
398.341880
 30
0.0
 10
839.530720
 20
367.567744
 30
0.0
 10
821.605040
 20
336.265040
 30
0.0
 10
800.573600
 20
317.732400
 30
0.0
  0
SPLINE
  5
1d5
100
AcDbEntity
  8
0
 62
7
100
AcDbSpline
 70
8
 71
3
 72
8
 73
4
 74
0
 40
0
 40
0
 40
0
 40
0
 40
1
 40
1
 40
1
 40
1
 10
800.573600
 20
317.732400
 30
0.0
 10
789.150392
 20
307.666432
 30
0.0
 10
772.123488
 20
297.923960
 30
0.0
 10
758.277216
 20
293.531216
 30
0.0
  0
SPLINE
  5
1d6
100
AcDbEntity
  8
0
 62
7
100
AcDbSpline
 70
8
 71
3
 72
8
 73
4
 74
0
 40
0
 40
0
 40
0
 40
0
 40
1
 40
1
 40
1
 40
1
 10
758.277216
 20
293.531216
 30
0.0
 10
745.528392
 20
289.486640
 30
0.0
 10
744.196960
 20
287.689472
 30
0.0
 10
720.057080
 20
241.941880
 30
0.0
  0
SPLINE
  5
1d7
100
AcDbEntity
  8
0
 62
7
100
AcDbSpline
 70
8
 71
3
 72
8
 73
4
 74
0
 40
0
 40
0
 40
0
 40
0
 40
1
 40
1
 40
1
 40
1
 10
720.057080
 20
241.941880
 30
0.0
 10
710.650408
 20
224.115256
 30
0.0
 10
705.490784
 20
215.960800
 30
0.0
 10
696.713408
 20
205.048696
 30
0.0
  0
SPLINE
  5
1d8
100
AcDbEntity
  8
0
 62
7
100
AcDbSpline
 70
8
 71
3
 72
8
 73
4
 74
0
 40
0
 40
0
 40
0
 40
0
 40
1
 40
1
 40
1
 40
1
 10
696.713408
 20
205.048696
 30
0.0
 10
684.301024
 20
189.617512
 30
0.0
 10
673.248992
 20
181.054360
 30
0.0
 10
653.582752
 20
171.630912
 30
0.0
  0
SPLINE
  5
1d9
100
AcDbEntity
  8
0
 62
7
100
AcDbSpline
 70
8
 71
3
 72
8
 73
4
 74
0
 40
0
 40
0
 40
0
 40
0
 40
1
 40
1
 40
1
 40
1
 10
653.582752
 20
171.630912
 30
0.0
 10
635.346928
 20
162.892872
 30
0.0
 10
619.964720
 20
157.918104
 30
0.0
 10
595.160216
 20
152.736432
 30
0.0
  0
SPLINE
  5
1da
100
AcDbEntity
  8
0
 62
7
100
AcDbSpline
 70
8
 71
3
 72
8
 73
4
 74
0
 40
0
 40
0
 40
0
 40
0
 40
1
 40
1
 40
1
 40
1
 10
595.160216
 20
152.736432
 30
0.0
 10
587.518608
 20
151.140096
 30
0.0
 10
577.846392
 20
148.981816
 30
0.0
 10
573.666392
 20
147.940248
 30
0.0
  0
SPLINE
  5
1db
100
AcDbEntity
  8
0
 62
7
100
AcDbSpline
 70
8
 71
3
 72
8
 73
4
 74
0
 40
0
 40
0
 40
0
 40
0
 40
1
 40
1
 40
1
 40
1
 10
573.666392
 20
147.940248
 30
0.0
 10
551.529040
 20
142.424088
 30
0.0
 10
512.199888
 20
136.957712
 30
0.0
 10
469.743256
 20
133.495928
 30
0.0
  0
SPLINE
  5
1dc
100
AcDbEntity
  8
0
 62
7
100
AcDbSpline
 70
8
 71
3
 72
8
 73
4
 74
0
 40
0
 40
0
 40
0
 40
0
 40
1
 40
1
 40
1
 40
1
 10
469.743256
 20
133.495928
 30
0.0
 10
448.209904
 20
131.740160
 30
0.0
 10
424.031112
 20
132.218040
 30
0.0
 10
412.322880
 20
134.630808
 30
0.0
  0
SPLINE
  5
1dd
100
AcDbEntity
  8
0
 62
7
100
AcDbSpline
 70
8
 71
3
 72
8
 73
4
 74
0
 40
0
 40
0
 40
0
 40
0
 40
1
 40
1
 40
1
 40
1
 10
412.322880
 20
134.630808
 30
0.0
 10
403.903728
 20
136.365784
 30
0.0
 10
352.783488
 20
143.045656
 30
0.0
 10
337.266392
 20
144.438424
 30
0.0
  0
SPLINE
  5
1de
100
AcDbEntity
  8
0
 62
7
100
AcDbSpline
 70
8
 71
3
 72
8
 73
4
 74
0
 40
0
 40
0
 40
0
 40
0
 40
1
 40
1
 40
1
 40
1
 10
337.266392
 20
144.438424
 30
0.0
 10
313.808936
 20
146.543904
 30
0.0
 10
311.371896
 20
146.845424
 30
0.0
 10
286.466392
 20
150.723600
 30
0.0
  0
SPLINE
  5
1df
100
AcDbEntity
  8
0
 62
7
100
AcDbSpline
 70
8
 71
3
 72
8
 73
4
 74
0
 40
0
 40
0
 40
0
 40
0
 40
1
 40
1
 40
1
 40
1
 10
286.466392
 20
150.723600
 30
0.0
 10
280.526392
 20
151.648552
 30
0.0
 10
272.839024
 20
152.766960
 30
0.0
 10
269.383352
 20
153.208952
 30
0.0
  0
SPLINE
  5
1e0
100
AcDbEntity
  8
0
 62
7
100
AcDbSpline
 70
8
 71
3
 72
8
 73
4
 74
0
 40
0
 40
0
 40
0
 40
0
 40
1
 40
1
 40
1
 40
1
 10
269.383352
 20
153.208952
 30
0.0
 10
260.198328
 20
154.383760
 30
0.0
 10
245.651536
 20
158.330672
 30
0.0
 10
238.743800
 20
161.522240
 30
0.0
  0
SPLINE
  5
1e1
100
AcDbEntity
  8
0
 62
7
100
AcDbSpline
 70
8
 71
3
 72
8
 73
4
 74
0
 40
0
 40
0
 40
0
 40
0
 40
1
 40
1
 40
1
 40
1
 10
238.743800
 20
161.522240
 30
0.0
 10
224.028544
 20
168.321112
 30
0.0
 10
214.016408
 20
178.498336
 30
0.0
 10
209.699600
 20
191.045360
 30
0.0
  0
SPLINE
  5
1e2
100
AcDbEntity
  8
0
 62
7
100
AcDbSpline
 70
8
 71
3
 72
8
 73
4
 74
0
 40
0
 40
0
 40
0
 40
0
 40
1
 40
1
 40
1
 40
1
 10
209.699600
 20
191.045360
 30
0.0
 10
203.603160
 20
208.764976
 30
0.0
 10
207.375896
 20
248.265768
 30
0.0
 10
217.617080
 20
273.941880
 30
0.0
  0
SPLINE
  5
1e3
100
AcDbEntity
  8
0
 62
7
100
AcDbSpline
 70
8
 71
3
 72
8
 73
4
 74
0
 40
0
 40
0
 40
0
 40
0
 40
1
 40
1
 40
1
 40
1
 10
217.617080
 20
273.941880
 30
0.0
 10
221.457936
 20
283.571464
 30
0.0
 10
222.854600
 20
290.745328
 30
0.0
 10
222.756816
 20
300.341880
 30
0.0
  0
SPLINE
  5
1e4
100
AcDbEntity
  8
0
 62
7
100
AcDbSpline
 70
8
 71
3
 72
8
 73
4
 74
0
 40
0
 40
0
 40
0
 40
0
 40
1
 40
1
 40
1
 40
1
 10
222.756816
 20
300.341880
 30
0.0
 10
222.667352
 20
309.121096
 30
0.0
 10
220.916928
 20
314.750152
 30
0.0
 10
216.462144
 20
320.584408
 30
0.0
  0
SPLINE
  5
1e5
100
AcDbEntity
  8
0
 62
7
100
AcDbSpline
 70
8
 71
3
 72
8
 73
4
 74
0
 40
0
 40
0
 40
0
 40
0
 40
1
 40
1
 40
1
 40
1
 10
216.462144
 20
320.584408
 30
0.0
 10
213.721688
 20
324.173472
 30
0.0
 10
205.118128
 20
331.121352
 30
0.0
 10
188.485472
 20
343.177200
 30
0.0
  0
SPLINE
  5
1e6
100
AcDbEntity
  8
0
 62
7
100
AcDbSpline
 70
8
 71
3
 72
8
 73
4
 74
0
 40
0
 40
0
 40
0
 40
0
 40
1
 40
1
 40
1
 40
1
 10
188.485472
 20
343.177200
 30
0.0
 10
179.782328
 20
349.485496
 30
0.0
 10
179.661856
 20
349.541496
 30
0.0
 10
174.885472
 20
349.498872
 30
0.0
  0
SPLINE
  5
1e7
100
AcDbEntity
  8
0
 62
7
100
AcDbSpline
 70
8
 71
3
 72
8
 73
4
 74
0
 40
0
 40
0
 40
0
 40
0
 40
1
 40
1
 40
1
 40
1
 10
174.885472
 20
349.498872
 30
0.0
 10
171.544408
 20
349.469032
 30
0.0
 10
169.033384
 20
348.917000
 30
0.0
 10
166.698264
 20
347.698872
 30
0.0
  0
SPLINE
  5
1e8
100
AcDbEntity
  8
0
 62
7
100
AcDbSpline
 70
8
 71
3
 72
8
 73
4
 74
0
 40
0
 40
0
 40
0
 40
0
 40
1
 40
1
 40
1
 40
1
 10
166.698264
 20
347.698872
 30
0.0
 10
160.035984
 20
344.223480
 30
0.0
 10
153.032336
 20
346.159088
 30
0.0
 10
150.762296
 20
352.103120
 30
0.0
  0
SPLINE
  5
1e9
100
AcDbEntity
  8
0
 62
7
100
AcDbSpline
 70
8
 71
3
 72
8
 73
4
 74
0
 40
0
 40
0
 40
0
 40
0
 40
1
 40
1
 40
1
 40
1
 10
150.762296
 20
352.103120
 30
0.0
 10
149.010816
 20
356.689296
 30
0.0
 10
149.711776
 20
365.354552
 30
0.0
 10
152.447800
 20
372.939456
 30
0.0
  0
SPLINE
  5
1ea
100
AcDbEntity
  8
0
 62
7
100
AcDbSpline
 70
8
 71
3
 72
8
 73
4
 74
0
 40
0
 40
0
 40
0
 40
0
 40
1
 40
1
 40
1
 40
1
 10
152.447800
 20
372.939456
 30
0.0
 10
153.558024
 20
376.017256
 30
0.0
 10
154.466392
 20
379.435088
 30
0.0
 10
154.466392
 20
380.534632
 30
0.0
  0
SPLINE
  5
1eb
100
AcDbEntity
  8
0
 62
7
100
AcDbSpline
 70
8
 71
3
 72
8
 73
4
 74
0
 40
0
 40
0
 40
0
 40
0
 40
1
 40
1
 40
1
 40
1
 10
154.466392
 20
380.534632
 30
0.0
 10
154.466392
 20
381.634176
 30
0.0
 10
153.348296
 20
386.270624
 30
0.0
 10
151.981744
 20
390.837848
 30
0.0
  0
SPLINE
  5
1ec
100
AcDbEntity
  8
0
 62
7
100
AcDbSpline
 70
8
 71
3
 72
8
 73
4
 74
0
 40
0
 40
0
 40
0
 40
0
 40
1
 40
1
 40
1
 40
1
 10
151.981744
 20
390.837848
 30
0.0
 10
148.638632
 20
402.010960
 30
0.0
 10
147.326528
 20
409.719784
 30
0.0
 10
147.300344
 20
418.341880
 30
0.0
  0
SPLINE
  5
1ed
100
AcDbEntity
  8
0
 62
7
100
AcDbSpline
 70
8
 71
3
 72
8
 73
4
 74
0
 40
0
 40
0
 40
0
 40
0
 40
1
 40
1
 40
1
 40
1
 10
147.300344
 20
418.341880
 30
0.0
 10
147.259304
 20
431.850488
 30
0.0
 10
149.801752
 20
441.333216
 30
0.0
 10
155.344688
 20
448.345560
 30
0.0
  0
SPLINE
  5
1ee
100
AcDbEntity
  8
0
 62
7
100
AcDbSpline
 70
8
 71
3
 72
8
 73
4
 74
0
 40
0
 40
0
 40
0
 40
0
 40
1
 40
1
 40
1
 40
1
 10
155.344688
 20
448.345560
 30
0.0
 10
160.998008
 20
455.497544
 30
0.0
 10
167.730368
 20
458.663168
 30
0.0
 10
178.250592
 20
459.116144
 30
0.0
  0
SPLINE
  5
1ef
100
AcDbEntity
  8
0
 62
7
100
AcDbSpline
 70
8
 71
3
 72
8
 73
4
 74
0
 40
0
 40
0
 40
0
 40
0
 40
1
 40
1
 40
1
 40
1
 10
178.250592
 20
459.116144
 30
0.0
 10
183.888984
 20
459.358920
 30
0.0
 10
184.141064
 20
459.460800
 30
0.0
 10
188.250592
 20
463.157768
 30
0.0
  0
SPLINE
  5
1f0
100
AcDbEntity
  8
0
 62
7
100
AcDbSpline
 70
8
 71
3
 72
8
 73
4
 74
0
 40
0
 40
0
 40
0
 40
0
 40
1
 40
1
 40
1
 40
1
 10
188.250592
 20
463.157768
 30
0.0
 10
197.371960
 20
471.363424
 30
0.0
 10
206.269920
 20
476.330704
 30
0.0
 10
212.929136
 20
476.934544
 30
0.0
  0
SPLINE
  5
1f1
100
AcDbEntity
  8
0
 62
7
100
AcDbSpline
 70
8
 71
3
 72
8
 73
4
 74
0
 40
0
 40
0
 40
0
 40
0
 40
1
 40
1
 40
1
 40
1
 10
212.929136
 20
476.934544
 30
0.0
 10
219.567904
 20
477.536528
 30
0.0
 10
222.911512
 20
476.658328
 30
0.0
 10
226.572056
 20
473.351248
 30
0.0
  0
SPLINE
  5
1f2
100
AcDbEntity
  8
0
 62
7
100
AcDbSpline
 70
8
 71
3
 72
8
 73
4
 74
0
 40
0
 40
0
 40
0
 40
0
 40
1
 40
1
 40
1
 40
1
 10
226.572056
 20
473.351248
 30
0.0
 10
236.551784
 20
464.335160
 30
0.0
 10
234.901960
 20
452.148288
 30
0.0
 10
220.482408
 20
428.368288
 30
0.0
  0
SPLINE
  5
1f3
100
AcDbEntity
  8
0
 62
7
100
AcDbSpline
 70
8
 71
3
 72
8
 73
4
 74
0
 40
0
 40
0
 40
0
 40
0
 40
1
 40
1
 40
1
 40
1
 10
220.482408
 20
428.368288
 30
0.0
 10
217.512472
 20
423.470424
 30
0.0
 10
216.072888
 20
420.243432
 30
0.0
 10
216.086224
 20
418.513752
 30
0.0
  0
SPLINE
  5
1f4
100
AcDbEntity
  8
0
 62
7
100
AcDbSpline
 70
8
 71
3
 72
8
 73
4
 74
0
 40
0
 40
0
 40
0
 40
0
 40
1
 40
1
 40
1
 40
1
 10
216.086224
 20
418.513752
 30
0.0
 10
216.162144
 20
408.671800
 30
0.0
 10
241.049376
 20
393.344792
 30
0.0
 10
270.326400
 20
385.109536
 30
0.0
  0
LWPOLYLINE
  5
1f5
100
AcDbEntity
  8
0
 62
7
100
AcDbPolyline
 90
3
 70
0
 10
704.987232
 20
616.328040
 30
0.0
 10
719.108072
 20
616.341880
 30
0.0
 10
717.590304
 20
623.287304
 30
0.0
  0
SPLINE
  5
1f6
100
AcDbEntity
  8
0
 62
7
100
AcDbSpline
 70
8
 71
3
 72
8
 73
4
 74
0
 40
0
 40
0
 40
0
 40
0
 40
1
 40
1
 40
1
 40
1
 10
285.526400
 20
386.266672
 30
0.0
 10
297.500440
 20
392.271952
 30
0.0
 10
307.015808
 20
394.962920
 30
0.0
 10
317.673048
 20
395.357832
 30
0.0
  0
SPLINE
  5
1f7
100
AcDbEntity
  8
0
 62
7
100
AcDbSpline
 70
8
 71
3
 72
8
 73
4
 74
0
 40
0
 40
0
 40
0
 40
0
 40
1
 40
1
 40
1
 40
1
 10
317.673048
 20
395.357832
 30
0.0
 10
328.503208
 20
395.759144
 30
0.0
 10
334.190384
 20
394.477888
 30
0.0
 10
339.477032
 20
390.445632
 30
0.0
  0
SPLINE
  5
1f8
100
AcDbEntity
  8
0
 62
7
100
AcDbSpline
 70
8
 71
3
 72
8
 73
4
 74
0
 40
0
 40
0
 40
0
 40
0
 40
1
 40
1
 40
1
 40
1
 10
339.477032
 20
390.445632
 30
0.0
 10
343.997592
 20
386.997680
 30
0.0
 10
346.183232
 20
383.555960
 30
0.0
 10
347.321760
 20
378.092536
 30
0.0
  0
SPLINE
  5
1f9
100
AcDbEntity
  8
0
 62
7
100
AcDbSpline
 70
8
 71
3
 72
8
 73
4
 74
0
 40
0
 40
0
 40
0
 40
0
 40
1
 40
1
 40
1
 40
1
 10
347.321760
 20
378.092536
 30
0.0
 10
348.464576
 20
372.608536
 30
0.0
 10
347.852184
 20
360.207264
 30
0.0
 10
346.131000
 20
353.979080
 30
0.0
  0
SPLINE
  5
1fa
100
AcDbEntity
  8
0
 62
7
100
AcDbSpline
 70
8
 71
3
 72
8
 73
4
 74
0
 40
0
 40
0
 40
0
 40
0
 40
1
 40
1
 40
1
 40
1
 10
346.131000
 20
353.979080
 30
0.0
 10
345.467880
 20
351.579544
 30
0.0
 10
345.073368
 20
349.468232
 30
0.0
 10
345.254320
 20
349.287288
 30
0.0
  0
SPLINE
  5
1fb
100
AcDbEntity
  8
0
 62
7
100
AcDbSpline
 70
8
 71
3
 72
8
 73
4
 74
0
 40
0
 40
0
 40
0
 40
0
 40
1
 40
1
 40
1
 40
1
 10
345.254320
 20
349.287288
 30
0.0
 10
345.538496
 20
349.003112
 30
0.0
 10
354.188696
 20
350.978648
 30
0.0
 10
366.399376
 20
354.116416
 30
0.0
  0
SPLINE
  5
1fc
100
AcDbEntity
  8
0
 62
7
100
AcDbSpline
 70
8
 71
3
 72
8
 73
4
 74
0
 40
0
 40
0
 40
0
 40
0
 40
1
 40
1
 40
1
 40
1
 10
366.399376
 20
354.116416
 30
0.0
 10
370.927672
 20
355.280048
 30
0.0
 10
375.004280
 20
358.869712
 30
0.0
 10
376.042496
 20
362.607696
 30
0.0
  0
SPLINE
  5
1fd
100
AcDbEntity
  8
0
 62
7
100
AcDbSpline
 70
8
 71
3
 72
8
 73
4
 74
0
 40
0
 40
0
 40
0
 40
0
 40
1
 40
1
 40
1
 40
1
 10
376.042496
 20
362.607696
 30
0.0
 10
376.490736
 20
364.221496
 30
0.0
 10
376.859480
 20
367.728696
 30
0.0
 10
376.861928
 20
370.401464
 30
0.0
  0
SPLINE
  5
1fe
100
AcDbEntity
  8
0
 62
7
100
AcDbSpline
 70
8
 71
3
 72
8
 73
4
 74
0
 40
0
 40
0
 40
0
 40
0
 40
1
 40
1
 40
1
 40
1
 10
376.861928
 20
370.401464
 30
0.0
 10
376.865928
 20
375.165024
 30
0.0
 10
376.777440
 20
375.362632
 30
0.0
 10
372.365264
 20
380.401464
 30
0.0
  0
SPLINE
  5
1ff
100
AcDbEntity
  8
0
 62
7
100
AcDbSpline
 70
8
 71
3
 72
8
 73
4
 74
0
 40
0
 40
0
 40
0
 40
0
 40
1
 40
1
 40
1
 40
1
 10
372.365264
 20
380.401464
 30
0.0
 10
361.054032
 20
393.319216
 30
0.0
 10
360.104792
 20
402.976112
 30
0.0
 10
368.498256
 20
419.741880
 30
0.0
  0
SPLINE
  5
200
100
AcDbEntity
  8
0
 62
7
100
AcDbSpline
 70
8
 71
3
 72
8
 73
4
 74
0
 40
0
 40
0
 40
0
 40
0
 40
1
 40
1
 40
1
 40
1
 10
368.498256
 20
419.741880
 30
0.0
 10
369.985128
 20
422.711880
 30
0.0
 10
370.946224
 20
425.140216
 30
0.0
 10
370.634024
 20
425.138176
 30
0.0
  0
SPLINE
  5
201
100
AcDbEntity
  8
0
 62
7
100
AcDbSpline
 70
8
 71
3
 72
8
 73
4
 74
0
 40
0
 40
0
 40
0
 40
0
 40
1
 40
1
 40
1
 40
1
 10
370.634024
 20
425.138176
 30
0.0
 10
370.321824
 20
425.135776
 30
0.0
 10
367.906392
 20
424.244680
 30
0.0
 10
365.266392
 20
423.157160
 30
0.0
  0
SPLINE
  5
202
100
AcDbEntity
  8
0
 62
7
100
AcDbSpline
 70
8
 71
3
 72
8
 73
4
 74
0
 40
0
 40
0
 40
0
 40
0
 40
1
 40
1
 40
1
 40
1
 10
365.266392
 20
423.157160
 30
0.0
 10
362.626392
 20
422.069648
 30
0.0
 10
359.736232
 20
421.171312
 30
0.0
 10
358.843824
 20
421.160872
 30
0.0
  0
SPLINE
  5
203
100
AcDbEntity
  8
0
 62
7
100
AcDbSpline
 70
8
 71
3
 72
8
 73
4
 74
0
 40
0
 40
0
 40
0
 40
0
 40
1
 40
1
 40
1
 40
1
 10
358.843824
 20
421.160872
 30
0.0
 10
357.951408
 20
421.150392
 30
0.0
 10
354.640464
 20
422.378688
 30
0.0
 10
351.486176
 20
423.890344
 30
0.0
  0
SPLINE
  5
204
100
AcDbEntity
  8
0
 62
7
100
AcDbSpline
 70
8
 71
3
 72
8
 73
4
 74
0
 40
0
 40
0
 40
0
 40
0
 40
1
 40
1
 40
1
 40
1
 10
351.486176
 20
423.890344
 30
0.0
 10
347.303360
 20
425.894904
 30
0.0
 10
345.061224
 20
427.573000
 30
0.0
 10
343.202256
 20
430.090344
 30
0.0
  0
SPLINE
  5
205
100
AcDbEntity
  8
0
 62
7
100
AcDbSpline
 70
8
 71
3
 72
8
 73
4
 74
0
 40
0
 40
0
 40
0
 40
0
 40
1
 40
1
 40
1
 40
1
 10
343.202256
 20
430.090344
 30
0.0
 10
339.553512
 20
435.031328
 30
0.0
 10
333.748216
 20
447.519184
 30
0.0
 10
333.186144
 20
451.636160
 30
0.0
  0
SPLINE
  5
206
100
AcDbEntity
  8
0
 62
7
100
AcDbSpline
 70
8
 71
3
 72
8
 73
4
 74
0
 40
0
 40
0
 40
0
 40
0
 40
1
 40
1
 40
1
 40
1
 10
333.186144
 20
451.636160
 30
0.0
 10
332.426128
 20
457.202960
 30
0.0
 10
334.003192
 20
463.510712
 30
0.0
 10
337.582144
 20
469.218792
 30
0.0
  0
SPLINE
  5
207
100
AcDbEntity
  8
0
 62
7
100
AcDbSpline
 70
8
 71
3
 72
8
 73
4
 74
0
 40
0
 40
0
 40
0
 40
0
 40
1
 40
1
 40
1
 40
1
 10
337.582144
 20
469.218792
 30
0.0
 10
339.351496
 20
472.040744
 30
0.0
 10
341.155120
 20
476.147872
 30
0.0
 10
341.590184
 20
478.345744
 30
0.0
  0
SPLINE
  5
208
100
AcDbEntity
  8
0
 62
7
100
AcDbSpline
 70
8
 71
3
 72
8
 73
4
 74
0
 40
0
 40
0
 40
0
 40
0
 40
1
 40
1
 40
1
 40
1
 10
341.590184
 20
478.345744
 30
0.0
 10
342.530584
 20
483.096488
 30
0.0
 10
343.136272
 20
493.141880
 30
0.0
 10
342.482312
 20
493.141880
 30
0.0
  0
SPLINE
  5
209
100
AcDbEntity
  8
0
 62
7
100
AcDbSpline
 70
8
 71
3
 72
8
 73
4
 74
0
 40
0
 40
0
 40
0
 40
0
 40
1
 40
1
 40
1
 40
1
 10
342.482312
 20
493.141880
 30
0.0
 10
341.041128
 20
493.141880
 30
0.0
 10
338.251240
 20
490.160592
 30
0.0
 10
335.983832
 20
486.197584
 30
0.0
  0
SPLINE
  5
20a
100
AcDbEntity
  8
0
 62
7
100
AcDbSpline
 70
8
 71
3
 72
8
 73
4
 74
0
 40
0
 40
0
 40
0
 40
0
 40
1
 40
1
 40
1
 40
1
 10
335.983832
 20
486.197584
 30
0.0
 10
332.299840
 20
479.758632
 30
0.0
 10
328.012112
 20
475.817160
 30
0.0
 10
321.142600
 20
472.554840
 30
0.0
  0
SPLINE
  5
20b
100
AcDbEntity
  8
0
 62
7
100
AcDbSpline
 70
8
 71
3
 72
8
 73
4
 74
0
 40
0
 40
0
 40
0
 40
0
 40
1
 40
1
 40
1
 40
1
 10
321.142600
 20
472.554840
 30
0.0
 10
315.597088
 20
469.921288
 30
0.0
 10
314.778848
 20
469.750696
 30
0.0
 10
309.724912
 20
470.174400
 30
0.0
  0
SPLINE
  5
20c
100
AcDbEntity
  8
0
 62
7
100
AcDbSpline
 70
8
 71
3
 72
8
 73
4
 74
0
 40
0
 40
0
 40
0
 40
0
 40
1
 40
1
 40
1
 40
1
 10
309.724912
 20
470.174400
 30
0.0
 10
302.527192
 20
470.777832
 30
0.0
 10
300.077360
 20
471.926464
 30
0.0
 10
292.466392
 20
478.266304
 30
0.0
  0
SPLINE
  5
20d
100
AcDbEntity
  8
0
 62
7
100
AcDbSpline
 70
8
 71
3
 72
8
 73
4
 74
0
 40
0
 40
0
 40
0
 40
0
 40
1
 40
1
 40
1
 40
1
 10
292.466392
 20
478.266304
 30
0.0
 10
282.139080
 20
486.868816
 30
0.0
 10
275.279016
 20
499.983200
 30
0.0
 10
274.641632
 20
512.341880
 30
0.0
  0
SPLINE
  5
20e
100
AcDbEntity
  8
0
 62
7
100
AcDbSpline
 70
8
 71
3
 72
8
 73
4
 74
0
 40
0
 40
0
 40
0
 40
0
 40
1
 40
1
 40
1
 40
1
 10
274.641632
 20
512.341880
 30
0.0
 10
274.324440
 20
518.492232
 30
0.0
 10
274.527088
 20
519.753312
 30
0.0
 10
276.762784
 20
525.541880
 30
0.0
  0
SPLINE
  5
20f
100
AcDbEntity
  8
0
 62
7
100
AcDbSpline
 70
8
 71
3
 72
8
 73
4
 74
0
 40
0
 40
0
 40
0
 40
0
 40
1
 40
1
 40
1
 40
1
 10
276.762784
 20
525.541880
 30
0.0
 10
278.122296
 20
529.061880
 30
0.0
 10
280.552592
 20
533.921880
 30
0.0
 10
282.163440
 20
536.341880
 30
0.0
  0
SPLINE
  5
210
100
AcDbEntity
  8
0
 62
7
100
AcDbSpline
 70
8
 71
3
 72
8
 73
4
 74
0
 40
0
 40
0
 40
0
 40
0
 40
1
 40
1
 40
1
 40
1
 10
282.163440
 20
536.341880
 30
0.0
 10
284.570768
 20
539.958456
 30
0.0
 10
285.079992
 20
541.428144
 30
0.0
 10
285.023432
 20
544.596208
 30
0.0
  0
SPLINE
  5
211
100
AcDbEntity
  8
0
 62
7
100
AcDbSpline
 70
8
 71
3
 72
8
 73
4
 74
0
 40
0
 40
0
 40
0
 40
0
 40
1
 40
1
 40
1
 40
1
 10
285.023432
 20
544.596208
 30
0.0
 10
284.935104
 20
549.543456
 30
0.0
 10
283.618848
 20
553.561384
 30
0.0
 10
280.826128
 20
557.408664
 30
0.0
  0
SPLINE
  5
212
100
AcDbEntity
  8
0
 62
7
100
AcDbSpline
 70
8
 71
3
 72
8
 73
4
 74
0
 40
0
 40
0
 40
0
 40
0
 40
1
 40
1
 40
1
 40
1
 10
280.826128
 20
557.408664
 30
0.0
 10
277.669904
 20
561.756720
 30
0.0
 10
273.407128
 20
564.647240
 30
0.0
 10
263.928808
 20
568.866480
 30
0.0
  0
LWPOLYLINE
  5
213
100
AcDbEntity
  8
0
 62
7
100
AcDbPolyline
 90
3
 70
0
 10
270.326400
 20
385.109536
 30
0.0
 10
278.586408
 20
382.786096
 30
0.0
 10
285.526400
 20
386.266672
 30
0.0
  0
SPLINE
  5
214
100
AcDbEntity
  8
0
 62
7
100
AcDbSpline
 70
8
 71
3
 72
8
 73
4
 74
0
 40
0
 40
0
 40
0
 40
0
 40
1
 40
1
 40
1
 40
1
 10
228.061072
 20
569.139200
 30
0.0
 10
224.563528
 20
567.380672
 30
0.0
 10
221.106976
 20
565.941880
 30
0.0
 10
220.379840
 20
565.941880
 30
0.0
  0
SPLINE
  5
215
100
AcDbEntity
  8
0
 62
7
100
AcDbSpline
 70
8
 71
3
 72
8
 73
4
 74
0
 40
0
 40
0
 40
0
 40
0
 40
1
 40
1
 40
1
 40
1
 10
220.379840
 20
565.941880
 30
0.0
 10
218.868080
 20
565.941880
 30
0.0
 10
208.066392
 20
560.275392
 30
0.0
 10
208.066392
 20
559.482336
 30
0.0
  0
SPLINE
  5
216
100
AcDbEntity
  8
0
 62
7
100
AcDbSpline
 70
8
 71
3
 72
8
 73
4
 74
0
 40
0
 40
0
 40
0
 40
0
 40
1
 40
1
 40
1
 40
1
 10
208.066392
 20
559.482336
 30
0.0
 10
208.066392
 20
559.194768
 30
0.0
 10
206.566600
 20
557.920520
 30
0.0
 10
204.733520
 20
556.650680
 30
0.0
  0
SPLINE
  5
217
100
AcDbEntity
  8
0
 62
7
100
AcDbSpline
 70
8
 71
3
 72
8
 73
4
 74
0
 40
0
 40
0
 40
0
 40
0
 40
1
 40
1
 40
1
 40
1
 10
204.733520
 20
556.650680
 30
0.0
 10
202.900432
 20
555.380840
 30
0.0
 10
198.848016
 20
551.814352
 30
0.0
 10
195.728128
 20
548.725152
 30
0.0
  0
SPLINE
  5
218
100
AcDbEntity
  8
0
 62
7
100
AcDbSpline
 70
8
 71
3
 72
8
 73
4
 74
0
 40
0
 40
0
 40
0
 40
0
 40
1
 40
1
 40
1
 40
1
 10
195.728128
 20
548.725152
 30
0.0
 10
191.687224
 20
544.723976
 30
0.0
 10
188.101264
 20
542.111752
 30
0.0
 10
183.261008
 20
539.643352
 30
0.0
  0
SPLINE
  5
219
100
AcDbEntity
  8
0
 62
7
100
AcDbSpline
 70
8
 71
3
 72
8
 73
4
 74
0
 40
0
 40
0
 40
0
 40
0
 40
1
 40
1
 40
1
 40
1
 10
183.261008
 20
539.643352
 30
0.0
 10
179.523968
 20
537.737560
 30
0.0
 10
176.204920
 20
535.722296
 30
0.0
 10
175.885352
 20
535.164984
 30
0.0
  0
SPLINE
  5
21a
100
AcDbEntity
  8
0
 62
7
100
AcDbSpline
 70
8
 71
3
 72
8
 73
4
 74
0
 40
0
 40
0
 40
0
 40
0
 40
1
 40
1
 40
1
 40
1
 10
175.885352
 20
535.164984
 30
0.0
 10
175.565776
 20
534.607680
 30
0.0
 10
174.215776
 20
533.700816
 30
0.0
 10
172.885352
 20
533.149736
 30
0.0
  0
SPLINE
  5
21b
100
AcDbEntity
  8
0
 62
7
100
AcDbSpline
 70
8
 71
3
 72
8
 73
4
 74
0
 40
0
 40
0
 40
0
 40
0
 40
1
 40
1
 40
1
 40
1
 10
172.885352
 20
533.149736
 30
0.0
 10
171.554920
 20
532.598648
 30
0.0
 10
170.466392
 20
531.837360
 30
0.0
 10
170.466392
 20
531.457968
 30
0.0
  0
SPLINE
  5
21c
100
AcDbEntity
  8
0
 62
7
100
AcDbSpline
 70
8
 71
3
 72
8
 73
4
 74
0
 40
0
 40
0
 40
0
 40
0
 40
1
 40
1
 40
1
 40
1
 10
170.466392
 20
531.457968
 30
0.0
 10
170.466392
 20
531.078576
 30
0.0
 10
166.467584
 20
528.772840
 30
0.0
 10
161.580144
 20
526.334112
 30
0.0
  0
SPLINE
  5
21d
100
AcDbEntity
  8
0
 62
7
100
AcDbSpline
 70
8
 71
3
 72
8
 73
4
 74
0
 40
0
 40
0
 40
0
 40
0
 40
1
 40
1
 40
1
 40
1
 10
161.580144
 20
526.334112
 30
0.0
 10
156.692712
 20
523.895392
 30
0.0
 10
151.202712
 20
520.877904
 30
0.0
 10
149.380144
 20
519.628592
 30
0.0
  0
SPLINE
  5
21e
100
AcDbEntity
  8
0
 62
7
100
AcDbSpline
 70
8
 71
3
 72
8
 73
4
 74
0
 40
0
 40
0
 40
0
 40
0
 40
1
 40
1
 40
1
 40
1
 10
149.380144
 20
519.628592
 30
0.0
 10
144.672688
 20
516.401776
 30
0.0
 10
138.715976
 20
513.566616
 30
0.0
 10
134.066392
 20
512.339840
 30
0.0
  0
SPLINE
  5
21f
100
AcDbEntity
  8
0
 62
7
100
AcDbSpline
 70
8
 71
3
 72
8
 73
4
 74
0
 40
0
 40
0
 40
0
 40
0
 40
1
 40
1
 40
1
 40
1
 10
134.066392
 20
512.339840
 30
0.0
 10
131.866392
 20
511.759384
 30
0.0
 10
126.923584
 20
509.722376
 30
0.0
 10
123.082376
 20
507.813168
 30
0.0
  0
SPLINE
  5
220
100
AcDbEntity
  8
0
 62
7
100
AcDbSpline
 70
8
 71
3
 72
8
 73
4
 74
0
 40
0
 40
0
 40
0
 40
0
 40
1
 40
1
 40
1
 40
1
 10
123.082376
 20
507.813168
 30
0.0
 10
119.241168
 20
505.903960
 30
0.0
 10
115.600264
 20
504.341880
 30
0.0
 10
114.991472
 20
504.341880
 30
0.0
  0
SPLINE
  5
221
100
AcDbEntity
  8
0
 62
7
100
AcDbSpline
 70
8
 71
3
 72
8
 73
4
 74
0
 40
0
 40
0
 40
0
 40
0
 40
1
 40
1
 40
1
 40
1
 10
114.991472
 20
504.341880
 30
0.0
 10
114.382680
 20
504.341880
 30
0.0
 10
113.025480
 20
503.501320
 30
0.0
 10
111.975480
 20
502.473976
 30
0.0
  0
SPLINE
  5
222
100
AcDbEntity
  8
0
 62
7
100
AcDbSpline
 70
8
 71
3
 72
8
 73
4
 74
0
 40
0
 40
0
 40
0
 40
0
 40
1
 40
1
 40
1
 40
1
 10
111.975480
 20
502.473976
 30
0.0
 10
110.925480
 20
501.446624
 30
0.0
 10
108.227472
 20
499.617208
 30
0.0
 10
105.979904
 20
498.408608
 30
0.0
  0
SPLINE
  5
223
100
AcDbEntity
  8
0
 62
7
100
AcDbSpline
 70
8
 71
3
 72
8
 73
4
 74
0
 40
0
 40
0
 40
0
 40
0
 40
1
 40
1
 40
1
 40
1
 10
105.979904
 20
498.408608
 30
0.0
 10
101.776464
 20
496.148264
 30
0.0
 10
100.505328
 20
495.043696
 30
0.0
 10
95.776112
 20
489.541880
 30
0.0
  0
SPLINE
  5
224
100
AcDbEntity
  8
0
 62
7
100
AcDbSpline
 70
8
 71
3
 72
8
 73
4
 74
0
 40
0
 40
0
 40
0
 40
0
 40
1
 40
1
 40
1
 40
1
 10
95.776112
 20
489.541880
 30
0.0
 10
94.263264
 20
487.781880
 30
0.0
 10
91.006416
 20
484.145904
 30
0.0
 10
88.538672
 20
481.461936
 30
0.0
  0
SPLINE
  5
225
100
AcDbEntity
  8
0
 62
7
100
AcDbSpline
 70
8
 71
3
 72
8
 73
4
 74
0
 40
0
 40
0
 40
0
 40
0
 40
1
 40
1
 40
1
 40
1
 10
88.538672
 20
481.461936
 30
0.0
 10
83.363640
 20
475.833464
 30
0.0
 10
81.088424
 20
470.835800
 30
0.0
 10
77.717037
 20
457.691504
 30
0.0
  0
SPLINE
  5
226
100
AcDbEntity
  8
0
 62
7
100
AcDbSpline
 70
8
 71
3
 72
8
 73
4
 74
0
 40
0
 40
0
 40
0
 40
0
 40
1
 40
1
 40
1
 40
1
 10
77.717037
 20
457.691504
 30
0.0
 10
74.208069
 20
444.010776
 30
0.0
 10
72.578829
 20
429.459032
 30
0.0
 10
72.639613
 20
412.341880
 30
0.0
  0
SPLINE
  5
227
100
AcDbEntity
  8
0
 62
7
100
AcDbSpline
 70
8
 71
3
 72
8
 73
4
 74
0
 40
0
 40
0
 40
0
 40
0
 40
1
 40
1
 40
1
 40
1
 10
72.639613
 20
412.341880
 30
0.0
 10
72.700573
 20
395.174760
 30
0.0
 10
73.964341
 20
385.554928
 30
0.0
 10
78.149565
 20
370.399848
 30
0.0
  0
SPLINE
  5
228
100
AcDbEntity
  8
0
 62
7
100
AcDbSpline
 70
8
 71
3
 72
8
 73
4
 74
0
 40
0
 40
0
 40
0
 40
0
 40
1
 40
1
 40
1
 40
1
 10
78.149565
 20
370.399848
 30
0.0
 10
81.331400
 20
358.878160
 30
0.0
 10
84.931432
 20
350.133344
 30
0.0
 10
102.874040
 20
310.341880
 30
0.0
  0
SPLINE
  5
229
100
AcDbEntity
  8
0
 62
7
100
AcDbSpline
 70
8
 71
3
 72
8
 73
4
 74
0
 40
0
 40
0
 40
0
 40
0
 40
1
 40
1
 40
1
 40
1
 10
102.874040
 20
310.341880
 30
0.0
 10
113.166760
 20
287.515624
 30
0.0
 10
120.235768
 20
271.112600
 30
0.0
 10
123.327864
 20
262.880560
 30
0.0
  0
SPLINE
  5
22a
100
AcDbEntity
  8
0
 62
7
100
AcDbSpline
 70
8
 71
3
 72
8
 73
4
 74
0
 40
0
 40
0
 40
0
 40
0
 40
1
 40
1
 40
1
 40
1
 10
123.327864
 20
262.880560
 30
0.0
 10
129.609336
 20
246.157488
 30
0.0
 10
142.504304
 20
224.192872
 30
0.0
 10
155.816048
 20
207.541880
 30
0.0
  0
SPLINE
  5
22b
100
AcDbEntity
  8
0
 62
7
100
AcDbSpline
 70
8
 71
3
 72
8
 73
4
 74
0
 40
0
 40
0
 40
0
 40
0
 40
1
 40
1
 40
1
 40
1
 10
155.816048
 20
207.541880
 30
0.0
 10
163.273568
 20
198.213640
 30
0.0
 10
180.407544
 20
180.736480
 30
0.0
 10
190.066392
 20
172.605512
 30
0.0
  0
SPLINE
  5
22c
100
AcDbEntity
  8
0
 62
7
100
AcDbSpline
 70
8
 71
3
 72
8
 73
4
 74
0
 40
0
 40
0
 40
0
 40
0
 40
1
 40
1
 40
1
 40
1
 10
190.066392
 20
172.605512
 30
0.0
 10
200.829504
 20
163.544968
 30
0.0
 10
218.511872
 20
151.674328
 30
0.0
 10
235.809448
 20
141.897000
 30
0.0
  0
SPLINE
  5
22d
100
AcDbEntity
  8
0
 62
7
100
AcDbSpline
 70
8
 71
3
 72
8
 73
4
 74
0
 40
0
 40
0
 40
0
 40
0
 40
1
 40
1
 40
1
 40
1
 10
235.809448
 20
141.897000
 30
0.0
 10
269.368648
 20
122.927904
 30
0.0
 10
327.203744
 20
96.301432
 30
0.0
 10
353.666392
 20
87.637296
 30
0.0
  0
SPLINE
  5
22e
100
AcDbEntity
  8
0
 62
7
100
AcDbSpline
 70
8
 71
3
 72
8
 73
4
 74
0
 40
0
 40
0
 40
0
 40
0
 40
1
 40
1
 40
1
 40
1
 10
353.666392
 20
87.637296
 30
0.0
 10
358.960448
 20
85.903976
 30
0.0
 10
467.481864
 20
66.817064
 30
0.0
 10
471.735960
 20
66.871048
 30
0.0
  0
SPLINE
  5
22f
100
AcDbEntity
  8
0
 62
7
100
AcDbSpline
 70
8
 71
3
 72
8
 73
4
 74
0
 40
0
 40
0
 40
0
 40
0
 40
1
 40
1
 40
1
 40
1
 10
471.735960
 20
66.871048
 30
0.0
 10
473.017696
 20
66.887288
 30
0.0
 10
478.926392
 20
65.995832
 30
0.0
 10
484.866392
 20
64.889976
 30
0.0
  0
SPLINE
  5
230
100
AcDbEntity
  8
0
 62
7
100
AcDbSpline
 70
8
 71
3
 72
8
 73
4
 74
0
 40
0
 40
0
 40
0
 40
0
 40
1
 40
1
 40
1
 40
1
 10
484.866392
 20
64.889976
 30
0.0
 10
496.528800
 20
62.718768
 30
0.0
 10
509.480592
 20
61.226744
 30
0.0
 10
519.666392
 20
60.881072
 30
0.0
  0
SPLINE
  5
231
100
AcDbEntity
  8
0
 62
7
100
AcDbSpline
 70
8
 71
3
 72
8
 73
4
 74
0
 40
0
 40
0
 40
0
 40
0
 40
1
 40
1
 40
1
 40
1
 10
519.666392
 20
60.881072
 30
0.0
 10
523.186392
 20
60.761608
 30
0.0
 10
526.426392
 20
60.600712
 30
0.0
 10
526.866392
 20
60.523512
 30
0.0
  0
SPLINE
  5
232
100
AcDbEntity
  8
0
 62
7
100
AcDbSpline
 70
8
 71
3
 72
8
 73
4
 74
0
 40
0
 40
0
 40
0
 40
0
 40
1
 40
1
 40
1
 40
1
 10
526.866392
 20
60.523512
 30
0.0
 10
527.306392
 20
60.446312
 30
0.0
 10
531.266392
 20
60.731952
 30
0.0
 10
535.666392
 20
61.158248
 30
0.0
  0
LWPOLYLINE
  5
233
100
AcDbEntity
  8
0
 62
7
100
AcDbPolyline
 90
5
 70
0
 10
263.928808
 20
568.866480
 30
0.0
 10
255.666392
 20
572.544464
 30
0.0
 10
245.043312
 20
572.440496
 30
0.0
 10
234.420232
 20
572.336528
 30
0.0
 10
228.061072
 20
569.139200
 30
0.0
  0
SPLINE
  5
234
100
AcDbEntity
  8
0
 62
7
100
AcDbSpline
 70
8
 71
3
 72
8
 73
4
 74
0
 40
0
 40
0
 40
0
 40
0
 40
1
 40
1
 40
1
 40
1
 10
643.952832
 20
375.483968
 30
0.0
 10
645.615320
 20
376.332104
 30
0.0
 10
648.300976
 20
378.493144
 30
0.0
 10
649.920960
 20
380.286272
 30
0.0
  0
SPLINE
  5
235
100
AcDbEntity
  8
0
 62
7
100
AcDbSpline
 70
8
 71
3
 72
8
 73
4
 74
0
 40
0
 40
0
 40
0
 40
0
 40
1
 40
1
 40
1
 40
1
 10
649.920960
 20
380.286272
 30
0.0
 10
652.227872
 20
382.839744
 30
0.0
 10
652.866392
 20
384.206576
 30
0.0
 10
652.866392
 20
386.591304
 30
0.0
  0
SPLINE
  5
236
100
AcDbEntity
  8
0
 62
7
100
AcDbSpline
 70
8
 71
3
 72
8
 73
4
 74
0
 40
0
 40
0
 40
0
 40
0
 40
1
 40
1
 40
1
 40
1
 10
652.866392
 20
386.591304
 30
0.0
 10
652.866392
 20
389.965056
 30
0.0
 10
652.021224
 20
391.310904
 30
0.0
 10
648.466392
 20
393.597880
 30
0.0
  0
SPLINE
  5
237
100
AcDbEntity
  8
0
 62
7
100
AcDbSpline
 70
8
 71
3
 72
8
 73
4
 74
0
 40
0
 40
0
 40
0
 40
0
 40
1
 40
1
 40
1
 40
1
 10
648.466392
 20
393.597880
 30
0.0
 10
646.403288
 20
394.925168
 30
0.0
 10
644.260192
 20
395.179328
 30
0.0
 10
633.199136
 20
395.408480
 30
0.0
  0
SPLINE
  5
238
100
AcDbEntity
  8
0
 62
7
100
AcDbSpline
 70
8
 71
3
 72
8
 73
4
 74
0
 40
0
 40
0
 40
0
 40
0
 40
1
 40
1
 40
1
 40
1
 10
633.199136
 20
395.408480
 30
0.0
 10
615.624320
 20
395.772592
 30
0.0
 10
610.466392
 20
394.162000
 30
0.0
 10
610.466392
 20
388.310032
 30
0.0
  0
SPLINE
  5
239
100
AcDbEntity
  8
0
 62
7
100
AcDbSpline
 70
8
 71
3
 72
8
 73
4
 74
0
 40
0
 40
0
 40
0
 40
0
 40
1
 40
1
 40
1
 40
1
 10
610.466392
 20
388.310032
 30
0.0
 10
610.466392
 20
385.653976
 30
0.0
 10
613.244320
 20
379.541904
 30
0.0
 10
614.451488
 20
379.541904
 30
0.0
  0
SPLINE
  5
23a
100
AcDbEntity
  8
0
 62
7
100
AcDbSpline
 70
8
 71
3
 72
8
 73
4
 74
0
 40
0
 40
0
 40
0
 40
0
 40
1
 40
1
 40
1
 40
1
 10
614.451488
 20
379.541904
 30
0.0
 10
614.865408
 20
379.541904
 30
0.0
 10
615.923160
 20
378.770040
 30
0.0
 10
616.802064
 20
377.826656
 30
0.0
  0
SPLINE
  5
23b
100
AcDbEntity
  8
0
 62
7
100
AcDbSpline
 70
8
 71
3
 72
8
 73
4
 74
0
 40
0
 40
0
 40
0
 40
0
 40
1
 40
1
 40
1
 40
1
 10
616.802064
 20
377.826656
 30
0.0
 10
619.069256
 20
375.393104
 30
0.0
 10
624.886216
 20
374.058472
 30
0.0
 10
633.498264
 20
373.995896
 30
0.0
  0
SPLINE
  5
23c
100
AcDbEntity
  8
0
 62
7
100
AcDbSpline
 70
8
 71
3
 72
8
 73
4
 74
0
 40
0
 40
0
 40
0
 40
0
 40
1
 40
1
 40
1
 40
1
 10
633.498264
 20
373.995896
 30
0.0
 10
639.334984
 20
373.953496
 30
0.0
 10
641.578912
 20
374.272888
 30
0.0
 10
643.952832
 20
375.483968
 30
0.0
  0
LWPOLYLINE
  5
23d
100
AcDbEntity
  8
0
 62
7
100
AcDbPolyline
 90
2
 70
0
 10
535.666392
 20
61.158248
 30
0.0
 10
535.666392
 20
61.158272
 30
0.0
  0
SPLINE
  5
23e
100
AcDbEntity
  8
0
 62
7
100
AcDbSpline
 70
8
 71
3
 72
8
 73
4
 74
0
 40
0
 40
0
 40
0
 40
0
 40
1
 40
1
 40
1
 40
1
 10
690.678032
 20
433.150344
 30
0.0
 10
704.247944
 20
437.364648
 30
0.0
 10
714.429144
 20
447.357400
 30
0.0
 10
726.037672
 20
467.855504
 30
0.0
  0
SPLINE
  5
23f
100
AcDbEntity
  8
0
 62
7
100
AcDbSpline
 70
8
 71
3
 72
8
 73
4
 74
0
 40
0
 40
0
 40
0
 40
0
 40
1
 40
1
 40
1
 40
1
 10
726.037672
 20
467.855504
 30
0.0
 10
730.387832
 20
475.536920
 30
0.0
 10
738.638840
 20
492.697816
 30
0.0
 10
739.666688
 20
496.201864
 30
0.0
  0
SPLINE
  5
240
100
AcDbEntity
  8
0
 62
7
100
AcDbSpline
 70
8
 71
3
 72
8
 73
4
 74
0
 40
0
 40
0
 40
0
 40
0
 40
1
 40
1
 40
1
 40
1
 10
739.666688
 20
496.201864
 30
0.0
 10
740.190368
 20
497.987136
 30
0.0
 10
740.072832
 20
498.044672
 30
0.0
 10
736.739328
 20
497.634864
 30
0.0
  0
SPLINE
  5
241
100
AcDbEntity
  8
0
 62
7
100
AcDbSpline
 70
8
 71
3
 72
8
 73
4
 74
0
 40
0
 40
0
 40
0
 40
0
 40
1
 40
1
 40
1
 40
1
 10
736.739328
 20
497.634864
 30
0.0
 10
734.829216
 20
497.400040
 30
0.0
 10
730.926392
 20
496.985984
 30
0.0
 10
728.066392
 20
496.714736
 30
0.0
  0
SPLINE
  5
242
100
AcDbEntity
  8
0
 62
7
100
AcDbSpline
 70
8
 71
3
 72
8
 73
4
 74
0
 40
0
 40
0
 40
0
 40
0
 40
1
 40
1
 40
1
 40
1
 10
728.066392
 20
496.714736
 30
0.0
 10
704.181384
 20
494.449464
 30
0.0
 10
676.531104
 20
480.561856
 30
0.0
 10
666.797560
 20
465.941904
 30
0.0
  0
SPLINE
  5
243
100
AcDbEntity
  8
0
 62
7
100
AcDbSpline
 70
8
 71
3
 72
8
 73
4
 74
0
 40
0
 40
0
 40
0
 40
0
 40
1
 40
1
 40
1
 40
1
 10
666.797560
 20
465.941904
 30
0.0
 10
664.283984
 20
462.166464
 30
0.0
 10
661.174736
 20
453.647960
 30
0.0
 10
660.507064
 20
448.707632
 30
0.0
  0
SPLINE
  5
244
100
AcDbEntity
  8
0
 62
7
100
AcDbSpline
 70
8
 71
3
 72
8
 73
4
 74
0
 40
0
 40
0
 40
0
 40
0
 40
1
 40
1
 40
1
 40
1
 10
660.507064
 20
448.707632
 30
0.0
 10
659.985496
 20
444.848416
 30
0.0
 10
661.133872
 20
435.297968
 30
0.0
 10
662.357552
 20
433.318008
 30
0.0
  0
SPLINE
  5
245
100
AcDbEntity
  8
0
 62
7
100
AcDbSpline
 70
8
 71
3
 72
8
 73
4
 74
0
 40
0
 40
0
 40
0
 40
0
 40
1
 40
1
 40
1
 40
1
 10
662.357552
 20
433.318008
 30
0.0
 10
664.080256
 20
430.530624
 30
0.0
 10
681.902872
 20
430.425112
 30
0.0
 10
690.678032
 20
433.150344
 30
0.0
  0
LWPOLYLINE
  5
246
100
AcDbEntity
  8
0
 62
7
100
AcDbPolyline
 90
2
 70
0
 10
643.952832
 20
375.483968
 30
0.0
 10
643.952832
 20
375.483968
 30
0.0
  0
SPLINE
  5
247
100
AcDbEntity
  8
0
 62
7
100
AcDbSpline
 70
8
 71
3
 72
8
 73
4
 74
0
 40
0
 40
0
 40
0
 40
0
 40
1
 40
1
 40
1
 40
1
 10
626.356000
 20
441.541904
 30
0.0
 10
628.955504
 20
449.007320
 30
0.0
 10
629.578056
 20
461.588568
 30
0.0
 10
627.736168
 20
469.433800
 30
0.0
  0
SPLINE
  5
248
100
AcDbEntity
  8
0
 62
7
100
AcDbSpline
 70
8
 71
3
 72
8
 73
4
 74
0
 40
0
 40
0
 40
0
 40
0
 40
1
 40
1
 40
1
 40
1
 10
627.736168
 20
469.433800
 30
0.0
 10
624.628704
 20
482.669560
 30
0.0
 10
614.129112
 20
497.221072
 30
0.0
 10
604.508248
 20
501.625648
 30
0.0
  0
SPLINE
  5
249
100
AcDbEntity
  8
0
 62
7
100
AcDbSpline
 70
8
 71
3
 72
8
 73
4
 74
0
 40
0
 40
0
 40
0
 40
0
 40
1
 40
1
 40
1
 40
1
 10
604.508248
 20
501.625648
 30
0.0
 10
602.008872
 20
502.769896
 30
0.0
 10
599.769344
 20
503.511520
 30
0.0
 10
599.531520
 20
503.273696
 30
0.0
  0
SPLINE
  5
24a
100
AcDbEntity
  8
0
 62
7
100
AcDbSpline
 70
8
 71
3
 72
8
 73
4
 74
0
 40
0
 40
0
 40
0
 40
0
 40
1
 40
1
 40
1
 40
1
 10
599.531520
 20
503.273696
 30
0.0
 10
598.528096
 20
502.270280
 30
0.0
 10
598.331280
 20
485.366552
 30
0.0
 10
599.178256
 20
472.934096
 30
0.0
  0
SPLINE
  5
24b
100
AcDbEntity
  8
0
 62
7
100
AcDbSpline
 70
8
 71
3
 72
8
 73
4
 74
0
 40
0
 40
0
 40
0
 40
0
 40
1
 40
1
 40
1
 40
1
 10
599.178256
 20
472.934096
 30
0.0
 10
600.584576
 20
452.291264
 30
0.0
 10
602.504368
 20
445.234552
 30
0.0
 10
608.196288
 20
439.785936
 30
0.0
  0
SPLINE
  5
24c
100
AcDbEntity
  8
0
 62
7
100
AcDbSpline
 70
8
 71
3
 72
8
 73
4
 74
0
 40
0
 40
0
 40
0
 40
0
 40
1
 40
1
 40
1
 40
1
 10
608.196288
 20
439.785936
 30
0.0
 10
611.784752
 20
436.350864
 30
0.0
 10
613.990208
 20
435.577632
 30
0.0
 10
619.636216
 20
435.775088
 30
0.0
  0
LWPOLYLINE
  5
24d
100
AcDbEntity
  8
0
 62
7
100
AcDbPolyline
 90
2
 70
0
 10
690.678032
 20
433.150344
 30
0.0
 10
690.678032
 20
433.150344
 30
0.0
  0
LWPOLYLINE
  5
24e
100
AcDbEntity
  8
0
 62
7
100
AcDbPolyline
 90
4
 70
0
 10
619.636216
 20
435.775088
 30
0.0
 10
624.406040
 20
435.941904
 30
0.0
 10
626.356000
 20
441.541904
 30
0.0
 10
626.356000
 20
441.541904
 30
0.0
  0
ENDSEC
  0
SECTION
  2
OBJECTS
  0
DICTIONARY
  5
C
330
0
100
AcDbDictionary
  3
ACAD_GROUP
350
D
  3
ACAD_MLINESTYLE
350
17
  0
DICTIONARY
  5
D
330
C
100
AcDbDictionary
  0
DICTIONARY
  5
1A
330
C
100
AcDbDictionary
  0
DICTIONARY
  5
17
330
C
100
AcDbDictionary
  3
STANDARD
350
18
  0
DICTIONARY
  5
19
330
C
100
AcDbDictionary
  0
ENDSEC
  0
EOF
