<?xml version="1.0" encoding="UTF-8" standalone="no"?>
<!-- Created with Inkscape (http://www.inkscape.org/) -->

<svg
   xmlns:dc="http://purl.org/dc/elements/1.1/"
   xmlns:cc="http://creativecommons.org/ns#"
   xmlns:rdf="http://www.w3.org/1999/02/22-rdf-syntax-ns#"
   xmlns:svg="http://www.w3.org/2000/svg"
   xmlns="http://www.w3.org/2000/svg"
   xmlns:sodipodi="http://sodipodi.sourceforge.net/DTD/sodipodi-0.dtd"
   xmlns:inkscape="http://www.inkscape.org/namespaces/inkscape"
   width="2500"
   height="1400"
   id="svg2"
   version="1.1"
   inkscape:version="0.48.4 r9939"
   sodipodi:docname="New document 1">
  <defs
     id="defs4" />
  <sodipodi:namedview
     id="base"
     pagecolor="#ffffff"
     bordercolor="#666666"
     borderopacity="1.0"
     inkscape:pageopacity="0.0"
     inkscape:pageshadow="2"
     inkscape:zoom="0.35"
     inkscape:cx="1192.7683"
     inkscape:cy="520"
     inkscape:document-units="px"
     inkscape:current-layer="layer1"
     showgrid="false"
     inkscape:window-width="1280"
     inkscape:window-height="977"
     inkscape:window-x="-4"
     inkscape:window-y="-4"
     inkscape:window-maximized="1" />
  <metadata
     id="metadata7">
    <rdf:RDF>
      <cc:Work
         rdf:about="">
        <dc:format>image/svg+xml</dc:format>
        <dc:type
           rdf:resource="http://purl.org/dc/dcmitype/StillImage" />
        <dc:title></dc:title>
      </cc:Work>
    </rdf:RDF>
  </metadata>
  <g
     inkscape:label="Layer 1"
     inkscape:groupmode="layer"
     id="layer1"
     transform="translate(0,347.63785)">
    <path
       style="fill:#000000"
       d="m 107.85714,612.82036 0,-219.54181 18.75,0.41988 c 10.3125,0.23093 21.675,0.91663 25.25,1.52377 6.05547,1.02841 8.56981,1.53134 19.77868,3.95627 2.35328,0.50911 5.05328,1.60585 6,2.43721 1.0673,0.93724 4.76096,1.73957 9.72132,2.11165 12.1686,0.91278 18.24732,2.0962 20.29746,3.95156 1.02301,0.92581 2.8925,1.68329 4.15441,1.68329 1.26192,0 4.82649,1.30852 7.92126,2.90781 10.74437,5.5524 22.66393,11.0341 29.3926,13.51742 3.72115,1.37334 8.22115,3.56757 10,4.87605 1.77885,1.30849 4.74193,2.97429 6.58462,3.70178 1.84269,0.72749 5.14777,2.82441 7.34461,4.65983 2.19685,1.83541 4.52223,3.33711 5.16752,3.33711 0.64529,0 2.82884,1.125 4.85233,2.5 2.0235,1.375 4.99227,2.5 6.59728,2.5 3.26347,0 7.7587,3.07231 8.66272,5.92064 0.35939,1.13234 1.86008,2.07853 3.80911,2.40166 7.87312,1.30527 11.70017,2.52002 14.24444,4.52135 1.503,1.18226 4.58649,2.61302 6.85219,3.17947 2.2657,0.56644 6.59445,2.09715 9.61945,3.40158 3.025,1.30442 7.525,3.1298 10,4.05641 6.18296,2.3148 43.56547,20.52393 47.5231,23.14864 1.76622,1.17136 6.75857,3.15932 11.09411,4.41768 4.33553,1.25837 9.62024,3.14711 11.74379,4.19721 4.34339,2.14781 20.50556,18.13789 24.51646,24.25536 l 2.6225,4 0.2774,-14.23618 c 0.2467,-12.65947 0.053,-14.67632 -1.75,-18.21017 -1.885,-3.69499 -2.0274,-5.82852 -2.0274,-30.39137 0,-21.95102 -0.247,-26.62243 -1.4612,-27.63014 -0.8037,-0.66701 -1.7679,-2.17871 -2.1426,-3.35932 -0.3747,-1.18062 -1.7086,-3.72748 -2.9642,-5.6597 -1.2556,-1.93221 -2.7967,-5.53812 -3.4247,-8.01312 -0.6281,-2.475 -1.5628,-6.12766 -2.0773,-8.11703 -0.8396,-3.24632 -6.052,-11.17387 -13.69842,-20.8338 -1.50235,-1.89796 -3.50326,-4.98336 -4.44646,-6.85644 -0.94321,-1.87309 -3.09608,-5.27022 -4.78416,-7.54918 -1.68809,-2.27895 -5.62387,-8.15649 -8.7462,-13.0612 l -5.67695,-8.91766 -0.38388,-9.08234 c -0.31114,-7.36155 0.11244,-11.07175 2.23563,-19.58235 1.44073,-5.775 3.27142,-12.075 4.06822,-14 3.15986,-7.63402 5.50226,-19.92985 5.50226,-28.88269 0,-8.75314 -0.6536,-11.51286 -4.52769,-19.11731 -0.70049,-1.375 -1.81486,-4.52087 -2.47636,-6.99083 -0.66151,-2.46996 -2.07106,-5.71028 -3.13234,-7.20071 -1.06128,-1.49044 -2.56205,-4.64456 -3.33505,-7.00917 -0.77299,-2.36461 -2.33592,-6.96507 -3.47317,-10.22324 -2.34682,-6.72348 -3.86386,-14.46928 -5.10708,-26.07605 -0.90112,-8.41289 -1.74354,-14.54473 -2.49667,-18.17293 -0.71765,-3.45722 -5.19086,-8.08629 -12.33401,-12.76376 -6.47806,-4.24196 -14.43985,-12.07399 -22.80126,-22.42963 -2.81709,-3.48898 -4.55951,-6.8885 -5.33437,-10.40756 -1.30297,-5.91742 -0.76292,-48.987429 0.77768,-62.022399 0.8509,-7.1994 0.74225,-8.15022 -1.41912,-12.41947 -1.28731,-2.54277 -2.34056,-5.93448 -2.34056,-7.53714 0,-1.60267 -1.35,-6.2854 -3,-10.40608 -1.65,-4.12068 -3,-8.18237 -3,-9.02598 0,-0.84362 -4.66387,-6.54711 -10.36416,-12.67445 -8.69424,-9.34558 -11.09511,-12.67128 -14.90072,-20.6406 -6.22333,-13.0322796 -10.73512,-24.65522 -10.73512,-27.655 0,-2.50563 -4.47648,-14.83704 -6.16584,-16.98511 -0.49316,-0.62706 -1.94643,-3.81883 -3.2295,-7.09282 -3.54807,-9.0536 -9.85017,-19.15516 -15.77316,-25.28264 -24.31445,-25.15389 -42.01063,-42.768681 -44.4354,-44.231041 -1.59286,-0.96064 -5.3711,-3.32128 -8.3961,-5.24587 -4.43827,-2.82375 -6.48787,-3.50005 -10.61739,-3.50338 -4.41906,-0.004 -7.46608,-1.17614 -22.32883,-8.59261 -20.1197,-10.03969 -21.81699,-10.40597 -51.30378,-11.07179 l -18.75,-0.42337 0,-54.45819 0,-54.45818 1149.99996,0 1150,0 0,42.40349 0,42.40348 -5.25,0.61759 c -2.8875,0.33967 -11.775,1.06199 -19.75,1.60516 -7.975,0.54317 -20.35,1.38754 -27.5,1.87639 -15.1348,1.03477 -20.17,2.07399 -26.9195,5.55599 -2.7057,1.39584 -5.907,2.5379 -7.1139,2.5379 -2.0878,0 -10.2334,2.91635 -27.9666,10.0128 -8.5297,3.41341 -24.8361,9.4784 -30.3153,11.2755 -1.8235,0.59805 -3.7872,2.01534 -4.3638,3.14954 -1.637,3.22013 -11.9902,13.54187 -15.3209,15.27442 -1.65,0.85829 -4.575,2.86956 -6.5,4.46948 -1.925,1.59993 -6.3224,5.16321 -9.7721,7.918421 -3.4496,2.7552 -7.3584,6.73038 -8.6862,8.83372 -1.3277,2.10334 -5.2553,6.33616 -8.7279,9.40626 -3.4726,3.07011 -8.7888,8.59274 -11.8138,12.27251 -3.025,3.67977 -6.6532,7.92258 -8.0626,9.42845 -1.4094,1.50588 -3.3457,3.93317 -4.3029,5.39397 -0.9572,1.4608 -2.8915,3.18054 -4.2986,3.82163 -1.407,0.6411 -4.0382,2.64561 -5.8471,4.45447 -6.1517,6.15168 -11.6838,4.11234 -23.4888,-8.65877 -13.1572,-14.23399 -31.0019,-32.25269 -34.941,-35.28182 -23.5677,-18.122881 -32.6233,-20.834791 -71.6411,-21.454641 l -24.0821,-0.38258 -6.902,4.03332 c -3.7961,2.21833 -7.6839,4.03332 -8.6394,4.03332 -0.9556,0 -4.2424,1.10783 -7.304,2.46184 -3.0617,1.354021 -7.237,2.746701 -9.2786,3.094861 -4.6213,0.78812 -10.3229,2.57737 -11.9221,3.74138 -0.6657,0.48451 -4.2657,1.70149 -8,2.7044 -9.7468,2.61765 -16.7273,5.42811 -22.1925,8.93516 -2.6248,1.6843 -5.5383,3.06236 -6.4746,3.06236 -0.9362,0 -3.4664,0.9 -5.6226,2 -2.1562,1.1 -4.6938,2 -5.6392,2 -2.5042,0 -8.001,1.89047 -15.0333,5.17023 -3.3949,1.58333 -8.1199,3.51874 -10.5,4.30092 -9.831,3.23073 -14.9288,5.30782 -16.5798,6.75538 -0.9612,0.84276 -3.1668,2.25065 -4.9012,3.12864 -1.7344,0.87799 -4.1338,3.18259 -5.332,5.12133 -1.1982,1.93874 -2.937,4.08715 -3.8639,4.77425 -0.9269,0.68709 -2.499,2.52275 -3.4935,4.07926 -0.9944,1.55651 -3.0562,3.35651 -4.5818,4 -3.564,1.50336 -14.3792,11.5063 -16.5132,15.27313 -0.9027,1.59327 -2.7192,4.69686 -4.0368,6.89686 -5.9552,9.9437804 -7.5809,13.8409304 -8.5118,20.4046704 -0.5442,3.83746 -1.6365,8.4662796 -2.4273,10.2862596 -1.5287,3.5184 -3.4803,9.34105 -6.5877,19.65441 -1.0515,3.48994 -2.3195,6.86494 -2.8177,7.5 -0.4983,0.63506 -1.1783,3.57408 -1.5112,6.53114 -0.3329,2.95707 -1.2306,6.33207 -1.9947,7.5 -0.7642,1.16794 -2.192,5.72352 -3.1729,10.12352 -0.9809,4.4 -3.2951,13.75009 -5.1427,20.77797 -1.8476,7.02788 -3.3593,13.632909 -3.3593,14.677829 0,2.74104 -4.7283,20.00932 -5.8552,21.38368 -1.1541,1.40764 -7.3058,25.86502 -9.7242,38.66052 -0.3638,1.925 -1.378,4.85 -2.2537,6.5 -0.8758,1.65 -1.9363,6.15 -2.3568,10 -1.5295,14.00515 -3.1865,50.50839 -3.2455,71.5 -0.055,19.50985 0.1609,22.36804 2.3309,30.87762 2.0421,8.00778 2.3073,10.86197 1.8159,19.53913 -0.5602,9.89274 -5.0312,30.91382 -8.2063,38.58325 -0.797,1.925 -2.322,6.875 -3.3889,11 -1.0669,4.125 -2.9205,9.975 -4.1191,13 -1.1986,3.025 -3.4473,10.225 -4.9971,16 -1.5498,5.775 -3.798,12.975 -4.996,16 -1.1979,3.025 -2.9671,8.43303 -3.9316,12.01784 -0.9644,3.58481 -2.2158,7.40981 -2.7808,8.5 -0.9614,1.85489 -3.9634,14.41546 -7.883,32.98216 -0.9289,4.4 -2.2554,9.35 -2.9478,11 -0.6924,1.65 -2.0252,5.025 -2.9617,7.5 -0.9365,2.475 -2.8357,7.2 -4.2204,10.5 -1.3847,3.3 -3.6326,8.7 -4.9953,12 -1.3626,3.3 -6.547,14.325 -11.5207,24.5 -9.6607,19.76318 -12.2896,27.14703 -10.7137,30.09158 2.138,3.99485 1.046,6.84601 -5.0295,13.13236 -7.215,7.46544 -12.6865,18.1802 -16.6633,32.63167 -1.504,5.46569 -1.4142,23.09896 0.1603,31.46674 l 0.7192,3.82236 20.1322,-0.57356 c 11.0726,-0.31546 27.1071,-1.01663 35.6321,-1.55815 8.525,-0.54153 23.1291,-1.25539 32.4536,-1.58636 14.2678,-0.50644 17.3192,-0.88937 19.2616,-2.41724 5.0587,-3.97921 10.4802,-4.33558 51.6979,-3.39826 55.479,1.26163 118.7338,1.01943 125.5869,-0.48086 3.025,-0.66224 13.6,-1.6146 23.5,-2.11636 9.9,-0.50175 20.8125,-1.38515 24.25,-1.9631 3.4375,-0.57795 8.8375,-1.47191 12,-1.98658 3.1625,-0.51467 8,-1.45963 10.75,-2.09991 2.75,-0.64028 8.375,-1.56249 12.5,-2.04935 4.125,-0.48686 11.325,-1.38035 16,-1.98553 12.6913,-1.64288 47.6209,-2.24643 52.9437,-0.91481 2.72,0.68048 14.0487,1.07582 29.2062,1.01922 22.29,-0.0832 25.1913,-0.28705 29.0563,-2.0412 3.4297,-1.55655 6.5616,-1.95316 15.5622,-1.9707 7.5979,-0.0148 13.6239,-0.622 18.5,-1.86409 6.8644,-1.74859 9.8816,-2.44123 22.7316,-5.21839 3.025,-0.65376 6.8047,-1.5826 8.3992,-2.06407 1.5946,-0.48148 28.6968,-0.87541 60.2272,-0.87541 l 57.3279,0 6.2729,-2.34626 c 3.45,-1.29045 9.456,-2.63622 13.3466,-2.99061 3.8907,-0.35439 8.3907,-1.06003 10,-1.56808 1.6094,-0.50804 4.3887,-1.17602 6.1762,-1.48439 l 3.25,-0.56066 0,125.975 0,125.975 -1150,0 -1149.99996,0 0,-219.54182 z M 752.6464,587.36218 c 0.7393,0 2.7767,-1.0736 4.5275,-2.38578 5.9716,-4.47558 12.159,-6.94681 19.6832,-7.8615 4.125,-0.50146 39.225,-1.29602 78,-1.76569 38.775,-0.46966 72.75,-1.28684 75.5,-1.81594 2.75,-0.5291 11.975,-1.95609 20.5,-3.17109 20.1178,-2.86722 23.4931,-3.49632 29.5,-5.49826 15.6048,-5.2006 13.1291,-4.55886 42.5,-11.01671 21.9406,-4.82413 37.6813,-7.73221 51.3224,-9.48176 4.7026,-0.60315 42.3919,-1.00327 94.5021,-1.00327 l 86.6797,0 10.3427,2.95625 c 5.6885,1.62593 10.94,3.4519 11.6699,4.0577 0.73,0.60581 3.7248,2.01346 6.6552,3.12811 9.773,3.71744 8.8288,4.87076 8.8214,-10.77543 -0.01,-12.15592 -0.2517,-14.23674 -1.9934,-16.86663 -1.0928,-1.65 -1.9898,-4.43251 -1.9934,-6.18335 -0.01,-3.50771 -5.2829,-21.27181 -7.5644,-25.47094 -0.7932,-1.45986 -1.4422,-3.98874 -1.4422,-5.61973 0,-1.63099 -0.9208,-5.83656 -2.0461,-9.34571 -1.1254,-3.50915 -2.3234,-8.40527 -2.6624,-10.88027 -0.3389,-2.475 -1.7806,-6.26575 -3.2038,-8.42388 -2.5426,-3.85547 -2.6012,-4.35234 -3.362,-28.5 -0.4258,-13.51687 -1.2502,-27.72612 -1.832,-31.57612 -1.4289,-9.456 -3.9395,-20.55748 -5.2014,-23 -0.5683,-1.1 -2.2737,-6.725 -3.7898,-12.5 -3.0702,-11.69472 -5.0059,-17.32223 -7.9296,-23.05315 -1.0851,-2.12695 -1.9729,-4.49036 -1.9729,-5.25202 0,-0.76167 -0.9496,-2.2421 -2.1103,-3.28984 -2.1041,-1.89936 -8.4647,-13.65913 -9.9549,-18.40499 -0.4317,-1.375 -1.7589,-4.975 -2.9493,-8 -6.6071,-16.78974 -8.4646,-29.5543 -9.8954,-68 -1.0314,-27.71454 -2.5545,-40.31708 -5.5593,-46 -1.3087,-2.475 -2.9401,-6.72959 -3.6254,-9.45465 -0.6852,-2.72505 -2.975,-7.22505 -5.0883,-10 -2.1133,-2.77494 -4.3209,-6.84535 -4.9059,-9.04535 -0.5849,-2.2 -1.7042,-5.92823 -2.4873,-8.28495 -0.7832,-2.35672 -1.4239,-4.92601 -1.4239,-5.70953 0,-1.8447 -4.5459,-6.13559 -9,-8.49507 -9.7836,-5.18274 -24.3336,-25.92861 -27.5014,-39.21256 -0.9572,-4.013839 -2.7578,-9.997889 -4.0014,-13.297889 -2.5224,-6.69325 -4.92,-13.74819 -6.9669,-20.5 -0.7504,-2.475 -2.3353,-6.975 -3.5222,-10 -1.1869,-3.025 -2.5181,-6.65129 -2.9583,-8.05842 -0.4401,-1.40713 -1.6058,-4.10713 -2.5903,-6 -0.9845,-1.89287 -3.2802,-9.29158 -5.1016,-16.44158 -2.6136,-10.25994 -3.3164,-15.0524 -3.3347,-22.7374596 l -0.023,-9.73745 -3.75,-2.34872 c -2.0625,-1.29179 -7.575,-4.2528704 -12.25,-6.5801804 -13.9525,-6.94581 -18.2928,-9.27883 -22.5,-12.09429 -2.2,-1.47223 -6.475,-4.31938 -9.5,-6.32701 -3.025,-2.00763 -7.75,-5.45547 -10.5,-7.66186 -2.75,-2.2064 -7.475,-5.7647 -10.5,-7.90733 -3.025,-2.14263 -6.85,-5.33957 -8.5,-7.1043 -1.65,-1.76474 -5.3163,-4.70184 -8.1473,-6.52691 -2.8311,-1.82506 -5.9656,-4.70344 -6.9656,-6.39639 -1.0001,-1.69296 -2.1819,-3.0781 -2.6262,-3.0781 -0.4443,0 -4.5098,-3.4875 -9.0344,-7.75 -9.9794,-9.40139 -13.921,-12.25 -16.9501,-12.25 -1.2676,0 -4.7669,-0.9 -7.7764,-2 -7.9529,-2.90688 -12.196,-2.6502 -15.8021,0.95594 -2.6545,2.65452 -3.5546,2.94024 -8.8269,2.80196 -5.3213,-0.13957 -6.312,0.18399 -10.5824,3.45612 -2.5912,1.98556 -6.1411,3.92413 -7.8885,4.30793 -1.7474,0.3838 -5.2279,1.99837 -7.7344,3.58793 -2.5065,1.58957 -5.0657,2.89012 -5.6871,2.89012 -0.6215,0 -2.2031,1.14239 -3.5148,2.53863 -1.3118,1.39625 -4.2659,3.01227 -6.5649,3.59115 -2.4227,0.61005 -5.4347,2.38048 -7.1648,4.21137 -1.6416,1.73737 -5.2732,5.59214 -8.0701,8.56616 -6.543,6.95723 -8.4492,10.97589 -9.2935,19.59269 -0.3773,3.85 -1.1447,8.8 -1.7054,11 -2.2808,8.94813 -4.1653,18.1325504 -4.1653,20.2992904 0,1.26501 -0.7282,3.70825 -1.6182,5.42942003 -0.8901,1.72115997 -2.4179,6.31130997 -3.3953,10.20033957 -5.6802,22.60241 -9.0213,34.69938 -10.9292,39.57095 -4.0935,10.45207 -5.1923,13.51836 -6.5082,18.16109 -0.7266,2.5636 -1.6018,5.1152 -1.9448,5.67021 -0.343,0.55502 -1.6703,4.62262 -2.9495,9.03911 -2.0482,7.07153 -2.15,8.20576 -0.8531,9.50265 3.5848,3.58483 4.942,28.587459 2.2867,42.126939 -2.2695,11.57256 -2.556,30.76374 -0.5659,37.91636 0.9309,3.346 2.0608,6.53945 2.5107,7.09655 0.45,0.5571 2.4266,5.82037 4.3925,11.69617 4.7164,14.09675 4.7979,21.55022 0.4296,39.29092 -1.7895,7.26783 -13.0456,29.9448 -16.9001,34.04774 -1.0753,1.14464 -1.9552,2.62967 -1.9552,3.30007 0,0.6704 -3.7125,4.9541 -8.25,9.51933 -14.9266,15.01786 -17.4492,18.67533 -19.7484,28.63286 -0.6985,3.025 -1.8179,6.625 -2.4876,8 -1.5281,3.13737 -5.3921,18.55552 -6.6412,26.5 -0.5189,3.3 -1.3975,8.7 -1.9525,12 -1.2426,7.38823 -3.3834,21.69991 -5.9085,39.5 -2.951,20.80246 -3.6568,24.81359 -6.0706,34.5 -2.8669,11.50431 -5.8556,17.47268 -12.6365,25.23449 -8.6198,9.8668 -10.35,13.88102 -10.3986,24.12563 -0.023,4.76016 0.4394,9.91826 1.0265,11.46246 1.7874,4.70131 1.2562,7.64254 -1.9616,10.86035 -2.4383,2.43823 -3.6864,2.95236 -6.3988,2.6357 -3.1772,-0.37092 -3.5127,-0.10565 -5.8746,4.64399 -1.3778,2.77056 -2.8145,6.61238 -3.1928,8.53738 -0.3783,1.925 -2.3559,5.975 -4.3947,9 -3.7795,5.60761 -5.7628,9.5274 -7.0912,14.01492 -0.4094,1.38321 -2.4764,4.84557 -4.5932,7.69415 -2.7714,3.72944 -4.6201,7.92409 -6.6042,14.98508 -4.1164,14.64953 -6.716,22.36684 -8.9889,26.68589 l -2.042,3.88004 2.3273,-1.63004 c 1.2799,-0.89652 2.9321,-1.63004 3.6714,-1.63004 z"
       id="path2996"
       inkscape:connector-curvature="0" />
  </g>
</svg>
