<?xml version="1.0" encoding="UTF-8" standalone="no"?>
<!-- Created with Inkscape (http://www.inkscape.org/) -->

<svg
   xmlns:dc="http://purl.org/dc/elements/1.1/"
   xmlns:cc="http://creativecommons.org/ns#"
   xmlns:rdf="http://www.w3.org/1999/02/22-rdf-syntax-ns#"
   xmlns:svg="http://www.w3.org/2000/svg"
   xmlns="http://www.w3.org/2000/svg"
   xmlns:sodipodi="http://sodipodi.sourceforge.net/DTD/sodipodi-0.dtd"
   xmlns:inkscape="http://www.inkscape.org/namespaces/inkscape"
   width="1062"
   height="1062"
   id="svg2993"
   version="1.1"
   inkscape:version="0.48.2 r9819"
   sodipodi:docname="tornado-3-left.eps"
   inkscape:export-filename="J:\-= Stuff =-\-= Images =-\-= Glow Number =-\!tornado\tornado-3-left.png"
   inkscape:export-xdpi="90"
   inkscape:export-ydpi="90">
  <defs
     id="defs2995" />
  <sodipodi:namedview
     id="base"
     pagecolor="#ffffff"
     bordercolor="#666666"
     borderopacity="1.0"
     inkscape:pageopacity="0.0"
     inkscape:pageshadow="2"
     inkscape:zoom="0.35"
     inkscape:cx="375"
     inkscape:cy="520"
     inkscape:document-units="px"
     inkscape:current-layer="layer1"
     showgrid="false"
     units="in"
     inkscape:window-width="1280"
     inkscape:window-height="977"
     inkscape:window-x="-4"
     inkscape:window-y="-4"
     inkscape:window-maximized="1" />
  <metadata
     id="metadata2998">
    <rdf:RDF>
      <cc:Work
         rdf:about="">
        <dc:format>image/svg+xml</dc:format>
        <dc:type
           rdf:resource="http://purl.org/dc/dcmitype/StillImage" />
        <dc:title></dc:title>
      </cc:Work>
    </rdf:RDF>
  </metadata>
  <g
     inkscape:label="Layer 1"
     inkscape:groupmode="layer"
     id="layer1"
     transform="translate(0,9.64025)">
    <path
       style="fill:#000000"
       d="m 446.82774,751.25174 c -2.1295,-1.24257 -5.65565,-6.92493 -6.93638,-11.17792 -0.54416,-1.80701 -1.35562,-6.7221 -1.80325,-10.92242 -0.63805,-5.98724 -1.40222,-8.40833 -3.53756,-11.2079 l -2.7237,-3.57095 -4.16342,2.56644 C 421.47574,720.75322 421,721.7383 421,730.73639 c 0,7.95418 -0.0489,8.11068 -3.53366,11.30887 -2.02862,1.8618 -4.60526,3.24308 -6.04966,3.24308 -3.74832,0 -8.41668,-2.75479 -8.41668,-4.96666 0,-1.05342 -0.45,-2.19342 -1,-2.53334 -1.51997,-0.9394 -1.19393,-11.69889 0.5,-16.5 0.87655,-2.48441 1.5,-7.74034 1.5,-12.6456 0,-9.81289 -1.71303,-13.42005 -9.34184,-19.67128 -3.00479,-2.4622 -4.98721,-5.06078 -5.70508,-7.47826 -1.05828,-3.56386 -0.88091,-19.21129 0.60735,-53.57887 0.44636,-10.30772 0.24673,-13.65068 -1.00147,-16.77024 -0.85743,-2.14292 -1.57327,-5.12462 -1.59076,-6.62599 -0.0175,-1.50137 -0.6925,-3.60327 -1.5,-4.67089 -0.80751,-1.06762 -1.4682,-3.39428 -1.4682,-5.17036 0,-2.81354 -0.84964,-3.86551 -6.60038,-8.1722 -4.45881,-3.33917 -8.30596,-5.32467 -11.857,-6.11936 C 360.59976,579.27913 352,574.1275 352,572.27268 c 0,-1.27482 -8.69468,-6.87681 -11.78487,-7.59301 -1.49332,-0.34609 -3.84013,-1.35375 -5.21513,-2.23923 -2.55649,-1.64633 -7.42695,-2.34942 -28.5,-4.11419 -6.6,-0.55271 -14.475,-1.4115 -17.5,-1.90841 -3.025,-0.49691 -8.49615,-0.66752 -12.15812,-0.37915 -6.17897,0.48659 -6.84465,0.33779 -9.25,-2.06756 -3.33472,-3.33472 -3.44018,-7.9254 -0.25523,-11.11035 3.03826,-3.03826 13.28365,-4.1554 23.16335,-2.5257 3.85,0.63508 11.95,1.5317 18,1.99251 21.54718,1.64115 28.2691,2.70627 33.90474,5.37236 3.00927,1.42361 6.10181,2.58839 6.87231,2.58839 1.74917,0 7.55087,4.17804 13.56762,9.77058 2.77871,2.58281 6.18737,4.6588 8.62492,5.25287 2.21672,0.54026 5.33363,1.67278 6.92644,2.51672 2.82017,1.49424 2.96974,1.44832 5.70936,-1.75287 2.54642,-2.97542 2.81718,-4.01935 2.85397,-11.00337 0.0243,-4.61604 -0.53793,-9.03544 -1.39943,-11 -0.79204,-1.80616 -2.70454,-7.44545 -4.25,-12.53176 -2.47462,-8.14428 -3.08262,-9.2481 -5.09511,-9.25 -1.25685,-0.001 -3.34025,0.68913 -4.62977,1.53406 -2.1709,1.42243 -13.02744,1.95724 -28.58505,1.40813 -1.925,-0.0679 -5.9003,0.20267 -8.83401,0.60136 -4.49024,0.61022 -6.07209,0.3591 -10,-1.5875 -6.5537,-3.24791 -9.9865,-5.93173 -12.22983,-9.56151 -2.62231,-4.24299 -2.44535,-7.97843 0.51839,-10.94216 3.47555,-3.47556 7.74072,-3.24197 11.80455,0.64649 1.7825,1.70557 4.4573,3.73122 5.94401,4.50143 2.48767,1.28878 2.89456,1.20895 5.10515,-1.00164 2.34846,-2.34845 2.68413,-2.38986 15.04689,-1.85595 L 363,506.57931 l 0,-2.62157 c 0,-1.88312 -1.69011,-4.28051 -6,-8.51088 -3.3,-3.23911 -6,-6.48006 -6,-7.2021 0,-0.72205 -3.4577,-4.94513 -7.68378,-9.38462 -4.22608,-4.43949 -10.10652,-10.62083 -13.06765,-13.73631 -2.96112,-3.11548 -7.88034,-7.16548 -10.93159,-9 -3.05126,-1.83452 -7.00608,-4.56276 -8.78849,-6.06276 -1.78242,-1.50001 -6.11799,-4.09698 -9.63462,-5.77106 -8.53146,-4.06136 -12.31847,-6.60129 -18.12268,-12.15482 -2.67474,-2.55922 -6.06475,-4.95471 -7.53335,-5.3233 -2.58596,-0.64904 -8.69584,-6.48395 -14.61812,-13.96026 -1.58415,-1.99984 -3.03895,-3.4774 -3.2329,-3.28346 -0.19394,0.19394 0.11588,1.89782 0.68848,3.78639 2.45063,8.08268 4.27366,22.57718 4.8291,38.39515 l 0.5956,16.96137 6,1.79828 c 6.74132,2.02046 9.5,4.61514 9.5,8.93522 0,3.61625 -3.96097,7.84376 -7.34921,7.84376 -5.3313,0 -15.41779,-4.02148 -19.77297,-7.88347 L 247.5,475.52279 246.92287,456.65557 c -0.59299,-19.38568 -2.49857,-33.96496 -5.54765,-42.44417 l -1.7343,-4.82292 -6.07046,6.39195 c -3.57101,3.76014 -7.2769,6.68494 -9.00055,7.10354 -3.80719,0.92458 -7.11693,4.75986 -9.07047,10.51073 -1.64114,4.83122 -3.90844,7.40976 -9.15041,10.40649 l -3.15097,1.80136 -0.71914,11.00846 c -0.63159,9.66818 -1.00336,11.29268 -3.05358,13.3429 -3.126,3.126 -7.77559,3.07509 -10.9708,-0.12012 -1.35,-1.35 -2.45454,-3.3711 -2.45454,-4.49134 0,-1.12024 -1.62471,-4.16532 -3.61051,-6.76683 -3.8301,-5.01768 -7.7332,-13.02255 -8.8672,-18.18588 -0.3767,-1.71492 -1.5468,-3.57935 -2.6003,-4.14316 -2.2022,-1.17858 -5.922,-7.95987 -5.922,-10.79597 0,-1.05456 -0.652,-2.45849 -1.4488,-3.11983 -0.7969,-0.66134 -1.9318,-2.66574 -2.5221,-4.45421 -0.5902,-1.78848 -1.9444,-4.96067 -3.0092,-7.0493 -1.0649,-2.08863 -2.246,-5.87683 -2.6247,-8.41823 -0.3788,-2.54139 -1.2751,-5.52071 -1.9918,-6.62071 -0.7168,-1.1 -1.25,-4.31997 -1.1849,-7.15548 0.096,-4.19362 -0.3656,-5.73066 -2.4757,-8.23838 -1.4268,-1.6956 -3.328,-5.67563 -4.2251,-8.84452 -0.897,-3.16889 -1.8748,-6.59334 -2.1729,-7.60988 -0.2981,-1.01655 -2.6351,-4.18978 -5.1934,-7.05162 -2.5582,-2.86185 -5.9507,-7.88013 -7.5388,-11.15174 -1.5881,-3.27161 -3.7958,-7.73464 -4.9062,-9.91784 -1.1103,-2.18321 -2.8407,-7.13321 -3.8454,-11 -1.7235,-6.63334 -1.8277,-14.44572 -1.8438,-138.28053 l -0.017,-131.250014 415.03201,0 415.032,0 -0.31247,115.250014 c -0.24565,90.60725 -0.58745,116.06695 -1.59854,119.07077 -1.49724,4.44809 -7.24105,11.15628 -11.38911,13.30132 -1.58753,0.82095 -7.02135,1.94785 -12.07515,2.50423 -5.0538,0.55639 -10.08873,1.64175 -11.18873,2.41192 -1.1,0.77017 -3.8,2.76566 -6,4.43442 -2.2,1.66877 -5.28182,3.82009 -6.84849,4.78073 -5.62204,3.44726 -7.22252,5.0984 -9.58321,9.8865 -1.3179,2.67305 -3.33491,6.03518 -4.48224,7.47139 -1.14733,1.43621 -3.32595,4.72101 -4.84138,7.29956 -1.51542,2.57855 -4.10008,5.45347 -5.74368,6.38871 -1.64359,0.93524 -2.9912,2.11488 -2.99468,2.62141 -0.006,0.90442 -2.38398,6.16799 -9.974,22.07903 -2.09893,4.4 -4.58528,10.025 -5.52522,12.5 -0.93994,2.475 -2.33856,5.97777 -3.10804,7.78393 -0.76948,1.80616 -1.39906,4.95913 -1.39906,7.0066 0,2.04747 -0.48178,5.2947 -1.07062,7.21607 -0.58884,1.92137 -1.06968,8.8934 -1.06853,15.4934 0.002,12.65718 -1.6659,21.94486 -5.83715,32.50001 -3.59261,9.09093 -4.00786,10.96288 -5.46877,24.65333 -0.78036,7.31294 -2.10322,14.50627 -2.97926,16.20034 -0.86662,1.67586 -1.57818,4.75686 -1.58125,6.84667 -0.01,6.47558 -1.82545,10.83149 -7.4809,17.94439 -7.66221,9.63682 -9.03557,11.51695 -10.48595,14.35527 -0.70262,1.375 -2.09061,3.4 -3.08442,4.5 -0.99381,1.1 -3.16318,4.7381 -4.82084,8.08467 -5.63894,11.38424 -13.8823,16.2665 -25.28642,14.97627 -6.7265,-0.76101 -7.83062,0.30622 -7.09242,6.85548 0.48808,4.33028 -0.19077,7.40659 -3.64454,16.5157 -2.54206,6.70451 -6.72862,11.12943 -14.80116,15.64385 -3.41541,1.91001 -6.51014,3.95864 -6.87718,4.55251 -0.36703,0.59388 -2.29931,1.82796 -4.29396,2.74241 -3.56532,1.63453 -6.15195,3.16259 -13.15173,7.7694 -1.93881,1.276 -5.69918,2.9743 -8.35638,3.774 -3.60489,1.08491 -6.65306,3.22049 -12.00811,8.41299 -9.17676,8.89821 -15.14578,10.81279 -25.11041,8.05422 -5.60419,-1.55144 -12.93615,-9.07593 -14.50244,-14.88325 -1.38767,-5.14511 -0.7819,-12.59216 1.35801,-16.69449 1.99153,-3.81789 18.21694,-19.15765 23.87878,-22.57538 2.52532,-1.5244 6.54318,-3.36546 8.92857,-4.09126 2.3854,-0.72579 6.08738,-2.51606 8.22663,-3.97837 2.13925,-1.46231 4.38925,-2.68863 5,-2.72514 0.61075,-0.0365 3.13545,-1.5354 5.61045,-3.33085 4.21572,-3.05824 4.53942,-3.62622 5.12393,-8.99083 0.34316,-3.14951 1.40639,-7.61312 2.36273,-9.91915 0.95635,-2.30603 2.32049,-5.76778 3.03144,-7.69278 0.71095,-1.925 1.81833,-4.91065 2.46086,-6.63477 0.64252,-1.72412 4.1726,-6.30468 7.84463,-10.17903 7.73682,-8.16309 11.73045,-9.77739 21.63353,-8.74466 5.82337,0.60728 6.10631,0.52897 7.78904,-2.15568 2.71736,-4.33532 6.95582,-10.69236 10.34685,-15.51871 1.70116,-2.42121 3.40153,-6.33154 3.77861,-8.68964 0.37707,-2.3581 1.28923,-5.47772 2.02701,-6.93248 1.99751,-3.93868 2.94894,-18.13681 1.56205,-23.31038 -0.6391,-2.38406 -3.11856,-7.23244 -5.50992,-10.77419 -3.48438,-5.16061 -5.2022,-6.75118 -8.64933,-8.00863 -3.23353,-1.17954 -4.74996,-2.48458 -6.10807,-5.25664 l -1.80665,-3.68755 -5.19335,0.60645 c -3.34372,0.39045 -5.64982,1.24893 -6.475,2.41039 -2.37776,3.34676 -14.29512,12.85668 -16.94471,13.52169 -5.4487,1.36753 -15.8256,8.2682 -18.79974,12.50187 -3.73638,5.31871 -10.71321,12.30583 -16.82714,16.85196 -2.58887,1.925 -6.5232,4.85 -8.74296,6.5 -2.21976,1.65 -5.0187,4.63614 -6.21987,6.63588 -7.51448,12.51028 -11.06336,17.22801 -18.32776,24.36412 -4.47911,4.4 -9.38793,10.25 -10.9085,13 -1.52057,2.75 -4.44079,6.8 -6.48938,9 -5.52651,5.93496 -6.24174,7.89272 -7.57707,20.74032 l -1.22024,11.74031 -7.00531,12.25969 c -6.30293,11.03049 -8.51212,15.77393 -11.07934,23.78899 -1.61456,5.04077 -7.28386,13.92544 -11.06634,17.34269 -3.42386,3.09325 -9.12699,5.60621 -12.76,5.62242 -0.6875,0.003 -1.25,0.44993 -1.25,0.99304 0,0.5431 -1.6911,2.055 -3.75801,3.35978 -3.17377,2.00351 -4.10957,3.46391 -6.01945,9.3939 -1.84284,5.72182 -3.17546,7.87653 -7.19916,11.64022 -2.71573,2.54025 -5.31322,4.61864 -5.7722,4.61864 -0.45898,0 -2.45959,1.4625 -4.44581,3.25 -1.98621,1.7875 -4.77997,4.05851 -6.20833,5.04668 -1.85364,1.28239 -2.59704,2.68639 -2.59704,4.90484 0,4.12517 -6.49137,10.40266 -12.38789,11.97974 -2.92337,0.78188 -4.76428,2.01877 -5.8687,3.9431 -0.92551,1.6126 -2.80606,3.06701 -4.4263,3.42327 -1.54941,0.34068 -3.28106,0.75489 -3.8481,0.92047 -0.56705,0.16558 -1.82941,2.8339 -2.80525,5.92962 -1.96662,6.23886 -4.87808,8.896 -9.36161,8.54388 -1.54118,-0.12104 -4.4752,0.51759 -6.52003,1.41916 -2.04484,0.90158 -4.96984,1.65346 -6.5,1.67084 -3.38356,0.0384 -7.10117,3.247 -9.78212,8.44269 -1.1,2.1318 -3.23127,5.42622 -4.73615,7.32093 -2.90284,3.6548 -4.74908,8.89299 -4.75827,13.50023 -0.007,3.48581 -4.04707,7.70455 -7.37834,7.70455 -4.91201,0 -5.03913,-0.12805 -13.4017,-13.5 -0.68792,-1.1 -2.09518,-3.8 -3.12726,-6 -2.51364,-5.35818 -4.7903,-6.56068 -11.02346,-5.82246 l -5.07482,0.60104 0,12.40617 c 0,11.83864 -0.11228,12.51844 -2.45455,14.8607 -2.56074,2.56075 -6.71932,3.16754 -9.71771,1.41795 z"
       id="path3012"
       inkscape:connector-curvature="0" />
  </g>
</svg>
