  0
SECTION
  2
HEADER
  9
$ACADVER
  1
AC1014
  9
$HANDSEED
  5
FFFF
  9
$MEASUREMENT
 70
     1
  0
ENDSEC
  0
SECTION
  2
TABLES
  0
TABLE
  2
VPORT
  5
8
330
0
100
AcDbSymbolTable
 70
     4
  0
VPORT
  5
2E
330
8
100
AcDbSymbolTableRecord
100
AcDbViewportTableRecord
  2
*ACTIVE
 70
     0
 10
0.0
 20
0.0
 11
1.0
 21
1.0
 12
210.0
 22
148.5
 13
0.0
 23
0.0
 14
10.0
 24
10.0
 15
10.0
 25
10.0
 16
0.0
 26
0.0
 36
1.0
 17
0.0
 27
0.0
 37
0.0
 40
341.0
 41
1.24
 42
50.0
 43
0.0
 44
0.0
 50
0.0
 51
0.0
 71
     0
 72
   100
 73
     1
 74
     3
 75
     0
 76
     0
 77
     0
 78
     0
  0
ENDTAB
  0
TABLE
  2
LTYPE
  5
5
330
0
100
AcDbSymbolTable
 70
     1
  0
LTYPE
  5
14
330
5
100
AcDbSymbolTableRecord
100
AcDbLinetypeTableRecord
  2
BYBLOCK
 70
     0
  3

 72
    65
 73
     0
 40
0.0
  0
LTYPE
  5
15
330
5
100
AcDbSymbolTableRecord
100
AcDbLinetypeTableRecord
  2
BYLAYER
 70
     0
  3

 72
    65
 73
     0
 40
0.0
  0
LTYPE
  5
16
330
5
100
AcDbSymbolTableRecord
100
AcDbLinetypeTableRecord
  2
CONTINUOUS
 70
     0
  3
Solid line
 72
    65
 73
     0
 40
0.0
  0
ENDTAB
  0
TABLE
  2
LAYER
  5
2
100
AcDbSymbolTable
 70
2
  0
LAYER
  5
50
100
AcDbSymbolTableRecord
100
AcDbLayerTableRecord
  2
0
 70
0
  6
CONTINUOUS
  0
LAYER
  5
51
100
AcDbSymbolTableRecord
100
AcDbLayerTableRecord
  2
Layer_1
 70
0
  6
CONTINUOUS
  0
ENDTAB
  0
TABLE
  2
STYLE
  5
3
330
0
100
AcDbSymbolTable
 70
     1
  0
STYLE
  5
11
330
3
100
AcDbSymbolTableRecord
100
AcDbTextStyleTableRecord
  2
STANDARD
 70
     0
 40
0.0
 41
1.0
 50
0.0
 71
     0
 42
2.5
  3
txt
  4

  0
ENDTAB
  0
TABLE
  2
VIEW
  5
6
330
0
100
AcDbSymbolTable
 70
     0
  0
ENDTAB
  0
TABLE
  2
UCS
  5
7
330
0
100
AcDbSymbolTable
 70
     0
  0
ENDTAB
  0
TABLE
  2
APPID
  5
9
330
0
100
AcDbSymbolTable
 70
     2
  0
APPID
  5
12
330
9
100
AcDbSymbolTableRecord
100
AcDbRegAppTableRecord
  2
ACAD
 70
     0
  0
ENDTAB
  0
TABLE
  2
DIMSTYLE
  5
A
330
0
100
AcDbSymbolTable
 70
     1
  0
DIMSTYLE
105
27
330
A
100
AcDbSymbolTableRecord
100
AcDbDimStyleTableRecord
  2
ISO-25
 70
     0
  3

  4

  5

  6

  7

 40
1.0
 41
2.5
 42
0.625
 43
3.75
 44
1.25
 45
0.0
 46
0.0
 47
0.0
 48
0.0
140
2.5
141
2.5
142
0.0
143
0.03937007874016
144
1.0
145
0.0
146
1.0
147
0.625
 71
     0
 72
     0
 73
     0
 74
     0
 75
     0
 76
     0
 77
     1
 78
     8
170
     0
171
     3
172
     1
173
     0
174
     0
175
     0
176
     0
177
     0
178
     0
270
     2
271
     2
272
     2
273
     2
274
     3
340
11
275
     0
280
     0
281
     0
282
     0
283
     0
284
     8
285
     0
286
     0
287
     3
288
     0
  0
ENDTAB
  0
TABLE
  2
BLOCK_RECORD
  5
1
330
0
100
AcDbSymbolTable
 70
     1
  0
BLOCK_RECORD
  5
1F
330
1
100
AcDbSymbolTableRecord
100
AcDbBlockTableRecord
  2
*MODEL_SPACE
  0
BLOCK_RECORD
  5
1B
330
1
100
AcDbSymbolTableRecord
100
AcDbBlockTableRecord
  2
*PAPER_SPACE
  0
ENDTAB
  0
ENDSEC
  0
SECTION
  2
BLOCKS
  0
BLOCK
  5
20
330
1F
100
AcDbEntity
  8
0
100
AcDbBlockBegin
  2
*MODEL_SPACE
 70
     0
 10
0.0
 20
0.0
 30
0.0
  3
*MODEL_SPACE
  1

  0
ENDBLK
  5
21
330
1F
100
AcDbEntity
  8
0
100
AcDbBlockEnd
  0
BLOCK
  5
1C
330
1B
100
AcDbEntity
 67
     1
  8
0
100
AcDbBlockBegin
  2
*PAPER_SPACE
  1

  0
ENDBLK
  5
1D
330
1B
100
AcDbEntity
 67
     1
  8
0
100
AcDbBlockEnd
  0
ENDSEC
  0
SECTION
  2
ENTITIES
  0
SPLINE
  5
100
100
AcDbEntity
  8
Layer_1
 62
7
100
AcDbSpline
 70
8
 71
3
 72
8
 73
4
 74
0
 40
0
 40
0
 40
0
 40
0
 40
1
 40
1
 40
1
 40
1
 10
226.377192
 20
517.904484
 30
0.0
 10
225.190736
 20
519.090940
 30
0.0
 10
225.122856
 20
523.282372
 30
0.0
 10
226.213528
 20
528.010604
 30
0.0
  0
SPLINE
  5
101
100
AcDbEntity
  8
Layer_1
 62
7
100
AcDbSpline
 70
8
 71
3
 72
8
 73
4
 74
0
 40
0
 40
0
 40
0
 40
0
 40
1
 40
1
 40
1
 40
1
 10
226.213528
 20
528.010604
 30
0.0
 10
227.131792
 20
531.991452
 30
0.0
 10
226.178008
 20
534.578868
 30
0.0
 10
223.792192
 20
534.578868
 30
0.0
  0
SPLINE
  5
102
100
AcDbEntity
  8
Layer_1
 62
7
100
AcDbSpline
 70
8
 71
3
 72
8
 73
4
 74
0
 40
0
 40
0
 40
0
 40
0
 40
1
 40
1
 40
1
 40
1
 10
223.792192
 20
534.578868
 30
0.0
 10
222.148376
 20
534.578868
 30
0.0
 10
219.951856
 20
530.793476
 30
0.0
 10
219.057096
 20
526.418604
 30
0.0
  0
SPLINE
  5
103
100
AcDbEntity
  8
Layer_1
 62
7
100
AcDbSpline
 70
8
 71
3
 72
8
 73
4
 74
0
 40
0
 40
0
 40
0
 40
0
 40
1
 40
1
 40
1
 40
1
 10
219.057096
 20
526.418604
 30
0.0
 10
218.344504
 20
522.934388
 30
0.0
 10
216.364936
 20
521.845828
 30
0.0
 10
213.575904
 20
523.404492
 30
0.0
  0
SPLINE
  5
104
100
AcDbEntity
  8
Layer_1
 62
7
100
AcDbSpline
 70
8
 71
3
 72
8
 73
4
 74
0
 40
0
 40
0
 40
0
 40
0
 40
1
 40
1
 40
1
 40
1
 10
213.575904
 20
523.404492
 30
0.0
 10
211.665336
 20
524.472228
 30
0.0
 10
211.327816
 20
525.245188
 30
0.0
 10
210.955928
 20
529.404492
 30
0.0
  0
SPLINE
  5
105
100
AcDbEntity
  8
Layer_1
 62
7
100
AcDbSpline
 70
8
 71
3
 72
8
 73
4
 74
0
 40
0
 40
0
 40
0
 40
0
 40
1
 40
1
 40
1
 40
1
 10
209.923520
 20
530.978868
 30
0.0
 10
207.823904
 20
519.882996
 30
0.0
 10
206.251400
 20
517.778868
 30
0.0
 10
200.058600
 20
517.778868
 30
0.0
  0
SPLINE
  5
106
100
AcDbEntity
  8
Layer_1
 62
7
100
AcDbSpline
 70
8
 71
3
 72
8
 73
4
 74
0
 40
0
 40
0
 40
0
 40
0
 40
1
 40
1
 40
1
 40
1
 10
200.058600
 20
517.778868
 30
0.0
 10
195.280400
 20
517.778868
 30
0.0
 10
195.519032
 20
517.417004
 30
0.0
 10
194.519224
 20
526.178868
 30
0.0
  0
LWPOLYLINE
  5
107
100
AcDbEntity
  8
Layer_1
 62
7
100
AcDbPolyline
 90
3
 70
0
 10
210.955928
 20
529.404492
 30
0.0
 10
210.529040
 20
534.178868
 30
0.0
 10
209.923520
 20
530.978868
 30
0.0
  0
SPLINE
  5
108
100
AcDbEntity
  8
Layer_1
 62
7
100
AcDbSpline
 70
8
 71
3
 72
8
 73
4
 74
0
 40
0
 40
0
 40
0
 40
0
 40
1
 40
1
 40
1
 40
1
 10
192.626600
 20
527.034164
 30
0.0
 10
191.078256
 20
522.492756
 30
0.0
 10
189.301800
 20
520.936340
 30
0.0
 10
187.182808
 20
522.264660
 30
0.0
  0
SPLINE
  5
109
100
AcDbEntity
  8
Layer_1
 62
7
100
AcDbSpline
 70
8
 71
3
 72
8
 73
4
 74
0
 40
0
 40
0
 40
0
 40
0
 40
1
 40
1
 40
1
 40
1
 10
187.182808
 20
522.264660
 30
0.0
 10
186.412808
 20
522.747348
 30
0.0
 10
185.671192
 20
523.889364
 30
0.0
 10
185.534784
 20
524.802476
 30
0.0
  0
SPLINE
  5
10a
100
AcDbEntity
  8
Layer_1
 62
7
100
AcDbSpline
 70
8
 71
3
 72
8
 73
4
 74
0
 40
0
 40
0
 40
0
 40
0
 40
1
 40
1
 40
1
 40
1
 10
185.534784
 20
524.802476
 30
0.0
 10
185.398368
 20
525.715588
 30
0.0
 10
184.768368
 20
526.892900
 30
0.0
 10
184.134784
 20
527.418724
 30
0.0
  0
SPLINE
  5
10b
100
AcDbEntity
  8
Layer_1
 62
7
100
AcDbSpline
 70
8
 71
3
 72
8
 73
4
 74
0
 40
0
 40
0
 40
0
 40
0
 40
1
 40
1
 40
1
 40
1
 10
184.134784
 20
527.418724
 30
0.0
 10
183.501192
 20
527.944556
 30
0.0
 10
182.982808
 20
528.870700
 30
0.0
 10
182.982808
 20
529.476820
 30
0.0
  0
SPLINE
  5
10c
100
AcDbEntity
  8
Layer_1
 62
7
100
AcDbSpline
 70
8
 71
3
 72
8
 73
4
 74
0
 40
0
 40
0
 40
0
 40
0
 40
1
 40
1
 40
1
 40
1
 10
182.982808
 20
529.476820
 30
0.0
 10
182.982808
 20
530.082948
 30
0.0
 10
182.752496
 20
530.578868
 30
0.0
 10
182.471000
 20
530.578868
 30
0.0
  0
SPLINE
  5
10d
100
AcDbEntity
  8
Layer_1
 62
7
100
AcDbSpline
 70
8
 71
3
 72
8
 73
4
 74
0
 40
0
 40
0
 40
0
 40
0
 40
1
 40
1
 40
1
 40
1
 10
182.471000
 20
530.578868
 30
0.0
 10
181.573072
 20
530.578868
 30
0.0
 10
179.834608
 20
527.829676
 30
0.0
 10
179.808248
 20
526.368012
 30
0.0
  0
SPLINE
  5
10e
100
AcDbEntity
  8
Layer_1
 62
7
100
AcDbSpline
 70
8
 71
3
 72
8
 73
4
 74
0
 40
0
 40
0
 40
0
 40
0
 40
1
 40
1
 40
1
 40
1
 10
179.808248
 20
526.368012
 30
0.0
 10
179.794248
 20
525.592044
 30
0.0
 10
179.449088
 20
524.332044
 30
0.0
 10
179.041208
 20
523.568012
 30
0.0
  0
SPLINE
  5
10f
100
AcDbEntity
  8
Layer_1
 62
7
100
AcDbSpline
 70
8
 71
3
 72
8
 73
4
 74
0
 40
0
 40
0
 40
0
 40
0
 40
1
 40
1
 40
1
 40
1
 10
179.041208
 20
523.568012
 30
0.0
 10
178.633328
 20
522.803980
 30
0.0
 10
178.095376
 20
521.524756
 30
0.0
 10
177.845752
 20
520.725292
 30
0.0
  0
SPLINE
  5
110
100
AcDbEntity
  8
Layer_1
 62
7
100
AcDbSpline
 70
8
 71
3
 72
8
 73
4
 74
0
 40
0
 40
0
 40
0
 40
0
 40
1
 40
1
 40
1
 40
1
 10
177.845752
 20
520.725292
 30
0.0
 10
177.521968
 20
519.688268
 30
0.0
 10
176.760144
 20
519.344380
 30
0.0
 10
175.187360
 20
519.525292
 30
0.0
  0
SPLINE
  5
111
100
AcDbEntity
  8
Layer_1
 62
7
100
AcDbSpline
 70
8
 71
3
 72
8
 73
4
 74
0
 40
0
 40
0
 40
0
 40
0
 40
1
 40
1
 40
1
 40
1
 10
175.187360
 20
519.525292
 30
0.0
 10
173.129984
 20
519.761940
 30
0.0
 10
172.966664
 20
520.059252
 30
0.0
 10
172.741000
 20
523.978868
 30
0.0
  0
SPLINE
  5
112
100
AcDbEntity
  8
Layer_1
 62
7
100
AcDbSpline
 70
8
 71
3
 72
8
 73
4
 74
0
 40
0
 40
0
 40
0
 40
0
 40
1
 40
1
 40
1
 40
1
 10
172.741000
 20
523.978868
 30
0.0
 10
172.546352
 20
527.359788
 30
0.0
 10
172.225136
 20
528.178868
 30
0.0
 10
171.093904
 20
528.178868
 30
0.0
  0
SPLINE
  5
113
100
AcDbEntity
  8
Layer_1
 62
7
100
AcDbSpline
 70
8
 71
3
 72
8
 73
4
 74
0
 40
0
 40
0
 40
0
 40
0
 40
1
 40
1
 40
1
 40
1
 10
171.093904
 20
528.178868
 30
0.0
 10
167.740632
 20
528.178868
 30
0.0
 10
166.776440
 20
530.032004
 30
0.0
 10
166.269696
 20
537.450844
 30
0.0
  0
SPLINE
  5
114
100
AcDbEntity
  8
Layer_1
 62
7
100
AcDbSpline
 70
8
 71
3
 72
8
 73
4
 74
0
 40
0
 40
0
 40
0
 40
0
 40
1
 40
1
 40
1
 40
1
 10
166.269696
 20
537.450844
 30
0.0
 10
165.837864
 20
543.772876
 30
0.0
 10
165.609432
 20
544.578868
 30
0.0
 10
164.249472
 20
544.578868
 30
0.0
  0
SPLINE
  5
115
100
AcDbEntity
  8
Layer_1
 62
7
100
AcDbSpline
 70
8
 71
3
 72
8
 73
4
 74
0
 40
0
 40
0
 40
0
 40
0
 40
1
 40
1
 40
1
 40
1
 10
164.249472
 20
544.578868
 30
0.0
 10
163.251120
 20
544.578868
 30
0.0
 10
162.446064
 20
543.741508
 30
0.0
 10
161.942056
 20
542.178868
 30
0.0
  0
SPLINE
  5
116
100
AcDbEntity
  8
Layer_1
 62
7
100
AcDbSpline
 70
8
 71
3
 72
8
 73
4
 74
0
 40
0
 40
0
 40
0
 40
0
 40
1
 40
1
 40
1
 40
1
 10
161.942056
 20
542.178868
 30
0.0
 10
160.820912
 20
538.702844
 30
0.0
 10
159.863496
 20
537.778868
 30
0.0
 10
157.382808
 20
537.778868
 30
0.0
  0
SPLINE
  5
117
100
AcDbEntity
  8
Layer_1
 62
7
100
AcDbSpline
 70
8
 71
3
 72
8
 73
4
 74
0
 40
0
 40
0
 40
0
 40
0
 40
1
 40
1
 40
1
 40
1
 10
157.382808
 20
537.778868
 30
0.0
 10
156.170560
 20
537.778868
 30
0.0
 10
154.807896
 20
538.228868
 30
0.0
 10
154.354672
 20
538.778868
 30
0.0
  0
SPLINE
  5
118
100
AcDbEntity
  8
Layer_1
 62
7
100
AcDbSpline
 70
8
 71
3
 72
8
 73
4
 74
0
 40
0
 40
0
 40
0
 40
0
 40
1
 40
1
 40
1
 40
1
 10
154.354672
 20
538.778868
 30
0.0
 10
153.901440
 20
539.328868
 30
0.0
 10
153.319120
 20
545.178868
 30
0.0
 10
153.060624
 20
551.778868
 30
0.0
  0
SPLINE
  5
119
100
AcDbEntity
  8
Layer_1
 62
7
100
AcDbSpline
 70
8
 71
3
 72
8
 73
4
 74
0
 40
0
 40
0
 40
0
 40
0
 40
1
 40
1
 40
1
 40
1
 10
153.060624
 20
551.778868
 30
0.0
 10
152.194032
 20
573.904652
 30
0.0
 10
152.113072
 20
574.380932
 30
0.0
 10
147.656648
 20
583.568012
 30
0.0
  0
SPLINE
  5
11a
100
AcDbEntity
  8
Layer_1
 62
7
100
AcDbSpline
 70
8
 71
3
 72
8
 73
4
 74
0
 40
0
 40
0
 40
0
 40
0
 40
1
 40
1
 40
1
 40
1
 10
147.656648
 20
583.568012
 30
0.0
 10
147.286032
 20
584.332044
 30
0.0
 10
146.982808
 20
585.808428
 30
0.0
 10
146.982808
 20
586.848860
 30
0.0
  0
SPLINE
  5
11b
100
AcDbEntity
  8
Layer_1
 62
7
100
AcDbSpline
 70
8
 71
3
 72
8
 73
4
 74
0
 40
0
 40
0
 40
0
 40
0
 40
1
 40
1
 40
1
 40
1
 10
146.982808
 20
586.848860
 30
0.0
 10
146.982808
 20
587.889300
 30
0.0
 10
146.144752
 20
590.324180
 30
0.0
 10
145.120472
 20
592.259716
 30
0.0
  0
SPLINE
  5
11c
100
AcDbEntity
  8
Layer_1
 62
7
100
AcDbSpline
 70
8
 71
3
 72
8
 73
4
 74
0
 40
0
 40
0
 40
0
 40
0
 40
1
 40
1
 40
1
 40
1
 10
145.120472
 20
592.259716
 30
0.0
 10
143.286464
 20
595.725324
 30
0.0
 10
142.236520
 20
601.549676
 30
0.0
 10
140.592288
 20
617.378868
 30
0.0
  0
SPLINE
  5
11d
100
AcDbEntity
  8
Layer_1
 62
7
100
AcDbSpline
 70
8
 71
3
 72
8
 73
4
 74
0
 40
0
 40
0
 40
0
 40
0
 40
1
 40
1
 40
1
 40
1
 10
140.592288
 20
617.378868
 30
0.0
 10
139.437840
 20
628.492828
 30
0.0
 10
138.972168
 20
630.597852
 30
0.0
 10
136.523936
 20
635.769132
 30
0.0
  0
SPLINE
  5
11e
100
AcDbEntity
  8
Layer_1
 62
7
100
AcDbSpline
 70
8
 71
3
 72
8
 73
4
 74
0
 40
0
 40
0
 40
0
 40
0
 40
1
 40
1
 40
1
 40
1
 10
136.523936
 20
635.769132
 30
0.0
 10
134.269120
 20
640.531900
 30
0.0
 10
131.602432
 20
642.898436
 30
0.0
 10
124.394912
 20
646.532988
 30
0.0
  0
SPLINE
  5
11f
100
AcDbEntity
  8
Layer_1
 62
7
100
AcDbSpline
 70
8
 71
3
 72
8
 73
4
 74
0
 40
0
 40
0
 40
0
 40
0
 40
1
 40
1
 40
1
 40
1
 10
124.394912
 20
646.532988
 30
0.0
 10
122.930112
 20
647.271644
 30
0.0
 10
122.047352
 20
648.487388
 30
0.0
 10
121.723904
 20
650.211516
 30
0.0
  0
SPLINE
  5
120
100
AcDbEntity
  8
Layer_1
 62
7
100
AcDbSpline
 70
8
 71
3
 72
8
 73
4
 74
0
 40
0
 40
0
 40
0
 40
0
 40
1
 40
1
 40
1
 40
1
 10
121.723904
 20
650.211516
 30
0.0
 10
121.412456
 20
651.871652
 30
0.0
 10
120.555320
 20
653.099068
 30
0.0
 10
119.311792
 20
653.665660
 30
0.0
  0
SPLINE
  5
121
100
AcDbEntity
  8
Layer_1
 62
7
100
AcDbSpline
 70
8
 71
3
 72
8
 73
4
 74
0
 40
0
 40
0
 40
0
 40
0
 40
1
 40
1
 40
1
 40
1
 10
119.311792
 20
653.665660
 30
0.0
 10
117.829200
 20
654.341180
 30
0.0
 10
117.382808
 20
655.167796
 30
0.0
 10
117.382808
 20
657.237724
 30
0.0
  0
SPLINE
  5
122
100
AcDbEntity
  8
Layer_1
 62
7
100
AcDbSpline
 70
8
 71
3
 72
8
 73
4
 74
0
 40
0
 40
0
 40
0
 40
0
 40
1
 40
1
 40
1
 40
1
 10
117.382808
 20
657.237724
 30
0.0
 10
117.382808
 20
660.086524
 30
0.0
 10
115.412112
 20
662.578868
 30
0.0
 10
113.159568
 20
662.578868
 30
0.0
  0
SPLINE
  5
123
100
AcDbEntity
  8
Layer_1
 62
7
100
AcDbSpline
 70
8
 71
3
 72
8
 73
4
 74
0
 40
0
 40
0
 40
0
 40
0
 40
1
 40
1
 40
1
 40
1
 10
113.159568
 20
662.578868
 30
0.0
 10
112.446072
 20
662.578868
 30
0.0
 10
111.517880
 20
663.194332
 30
0.0
 10
111.096912
 20
663.946564
 30
0.0
  0
SPLINE
  5
124
100
AcDbEntity
  8
Layer_1
 62
7
100
AcDbSpline
 70
8
 71
3
 72
8
 73
4
 74
0
 40
0
 40
0
 40
0
 40
0
 40
1
 40
1
 40
1
 40
1
 10
111.096912
 20
663.946564
 30
0.0
 10
110.472104
 20
665.063028
 30
0.0
 10
109.032008
 20
665.332428
 30
0.0
 10
103.257160
 20
665.413148
 30
0.0
  0
SPLINE
  5
125
100
AcDbEntity
  8
Layer_1
 62
7
100
AcDbSpline
 70
8
 71
3
 72
8
 73
4
 74
0
 40
0
 40
0
 40
0
 40
0
 40
1
 40
1
 40
1
 40
1
 10
103.257160
 20
665.413148
 30
0.0
 10
99.017168
 20
665.472428
 30
0.0
 10
94.759960
 20
665.051412
 30
0.0
 10
92.631488
 20
664.362348
 30
0.0
  0
SPLINE
  5
126
100
AcDbEntity
  8
Layer_1
 62
7
100
AcDbSpline
 70
8
 71
3
 72
8
 73
4
 74
0
 40
0
 40
0
 40
0
 40
0
 40
1
 40
1
 40
1
 40
1
 10
92.631488
 20
664.362348
 30
0.0
 10
89.470616
 20
663.339076
 30
0.0
 10
88.841952
 20
663.353388
 30
0.0
 10
86.913464
 20
664.492572
 30
0.0
  0
SPLINE
  5
127
100
AcDbEntity
  8
Layer_1
 62
7
100
AcDbSpline
 70
8
 71
3
 72
8
 73
4
 74
0
 40
0
 40
0
 40
0
 40
0
 40
1
 40
1
 40
1
 40
1
 10
86.913464
 20
664.492572
 30
0.0
 10
84.928776
 20
665.664956
 30
0.0
 10
84.387040
 20
665.665268
 30
0.0
 10
80.464784
 20
664.496572
 30
0.0
  0
SPLINE
  5
128
100
AcDbEntity
  8
Layer_1
 62
7
100
AcDbSpline
 70
8
 71
3
 72
8
 73
4
 74
0
 40
0
 40
0
 40
0
 40
0
 40
1
 40
1
 40
1
 40
1
 10
80.464784
 20
664.496572
 30
0.0
 10
72.760430
 20
662.200340
 30
0.0
 10
72.741878
 20
662.186188
 30
0.0
 10
72.135446
 20
658.142228
 30
0.0
  0
SPLINE
  5
129
100
AcDbEntity
  8
Layer_1
 62
7
100
AcDbSpline
 70
8
 71
3
 72
8
 73
4
 74
0
 40
0
 40
0
 40
0
 40
0
 40
1
 40
1
 40
1
 40
1
 10
72.135446
 20
658.142228
 30
0.0
 10
71.677694
 20
655.089716
 30
0.0
 10
71.904878
 20
653.823436
 30
0.0
 10
73.398926
 20
651.099852
 30
0.0
  0
SPLINE
  5
12a
100
AcDbEntity
  8
Layer_1
 62
7
100
AcDbSpline
 70
8
 71
3
 72
8
 73
4
 74
0
 40
0
 40
0
 40
0
 40
0
 40
1
 40
1
 40
1
 40
1
 10
73.398926
 20
651.099852
 30
0.0
 10
76.168862
 20
646.050364
 30
0.0
 10
77.367662
 20
644.979172
 30
0.0
 10
80.248736
 20
644.979172
 30
0.0
  0
SPLINE
  5
12b
100
AcDbEntity
  8
Layer_1
 62
7
100
AcDbSpline
 70
8
 71
3
 72
8
 73
4
 74
0
 40
0
 40
0
 40
0
 40
0
 40
1
 40
1
 40
1
 40
1
 10
80.248736
 20
644.979172
 30
0.0
 10
82.124736
 20
644.979172
 30
0.0
 10
83.337048
 20
645.577148
 30
0.0
 10
84.526368
 20
647.089124
 30
0.0
  0
SPLINE
  5
12c
100
AcDbEntity
  8
Layer_1
 62
7
100
AcDbSpline
 70
8
 71
3
 72
8
 73
4
 74
0
 40
0
 40
0
 40
0
 40
0
 40
1
 40
1
 40
1
 40
1
 10
84.526368
 20
647.089124
 30
0.0
 10
86.111960
 20
649.104876
 30
0.0
 10
86.391360
 20
649.168476
 30
0.0
 10
90.784432
 20
648.513572
 30
0.0
  0
SPLINE
  5
12d
100
AcDbEntity
  8
Layer_1
 62
7
100
AcDbSpline
 70
8
 71
3
 72
8
 73
4
 74
0
 40
0
 40
0
 40
0
 40
0
 40
1
 40
1
 40
1
 40
1
 10
90.784432
 20
648.513572
 30
0.0
 10
93.313536
 20
648.136548
 30
0.0
 10
97.383544
 20
647.837060
 30
0.0
 10
99.828896
 20
647.848052
 30
0.0
  0
SPLINE
  5
12e
100
AcDbEntity
  8
Layer_1
 62
7
100
AcDbSpline
 70
8
 71
3
 72
8
 73
4
 74
0
 40
0
 40
0
 40
0
 40
0
 40
1
 40
1
 40
1
 40
1
 10
99.828896
 20
647.848052
 30
0.0
 10
103.584144
 20
647.864932
 30
0.0
 10
104.497280
 20
647.573340
 30
0.0
 10
105.705632
 20
645.971388
 30
0.0
  0
SPLINE
  5
12f
100
AcDbEntity
  8
Layer_1
 62
7
100
AcDbSpline
 70
8
 71
3
 72
8
 73
4
 74
0
 40
0
 40
0
 40
0
 40
0
 40
1
 40
1
 40
1
 40
1
 10
105.705632
 20
645.971388
 30
0.0
 10
107.068928
 20
644.164028
 30
0.0
 10
107.070336
 20
644.001876
 30
0.0
 10
105.735552
 20
642.526956
 30
0.0
  0
SPLINE
  5
130
100
AcDbEntity
  8
Layer_1
 62
7
100
AcDbSpline
 70
8
 71
3
 72
8
 73
4
 74
0
 40
0
 40
0
 40
0
 40
0
 40
1
 40
1
 40
1
 40
1
 10
105.735552
 20
642.526956
 30
0.0
 10
104.642128
 20
641.318428
 30
0.0
 10
103.263944
 20
640.978868
 30
0.0
 10
99.453536
 20
640.978868
 30
0.0
  0
SPLINE
  5
131
100
AcDbEntity
  8
Layer_1
 62
7
100
AcDbSpline
 70
8
 71
3
 72
8
 73
4
 74
0
 40
0
 40
0
 40
0
 40
0
 40
1
 40
1
 40
1
 40
1
 10
99.453536
 20
640.978868
 30
0.0
 10
96.768824
 20
640.978868
 30
0.0
 10
93.387968
 20
641.318516
 30
0.0
 10
91.940528
 20
641.733636
 30
0.0
  0
SPLINE
  5
132
100
AcDbEntity
  8
Layer_1
 62
7
100
AcDbSpline
 70
8
 71
3
 72
8
 73
4
 74
0
 40
0
 40
0
 40
0
 40
0
 40
1
 40
1
 40
1
 40
1
 10
91.940528
 20
641.733636
 30
0.0
 10
89.600224
 20
642.404828
 30
0.0
 10
89.233552
 20
642.290452
 30
0.0
 10
88.629152
 20
640.700756
 30
0.0
  0
SPLINE
  5
133
100
AcDbEntity
  8
Layer_1
 62
7
100
AcDbSpline
 70
8
 71
3
 72
8
 73
4
 74
0
 40
0
 40
0
 40
0
 40
0
 40
1
 40
1
 40
1
 40
1
 10
88.629152
 20
640.700756
 30
0.0
 10
87.234744
 20
637.033204
 30
0.0
 10
81.807440
 20
634.939340
 30
0.0
 10
79.840038
 20
637.309908
 30
0.0
  0
SPLINE
  5
134
100
AcDbEntity
  8
Layer_1
 62
7
100
AcDbSpline
 70
8
 71
3
 72
8
 73
4
 74
0
 40
0
 40
0
 40
0
 40
0
 40
1
 40
1
 40
1
 40
1
 10
79.840038
 20
637.309908
 30
0.0
 10
79.260806
 20
638.007836
 30
0.0
 10
78.095550
 20
638.578868
 30
0.0
 10
77.250574
 20
638.578868
 30
0.0
  0
SPLINE
  5
135
100
AcDbEntity
  8
Layer_1
 62
7
100
AcDbSpline
 70
8
 71
3
 72
8
 73
4
 74
0
 40
0
 40
0
 40
0
 40
0
 40
1
 40
1
 40
1
 40
1
 10
77.250574
 20
638.578868
 30
0.0
 10
75.497686
 20
638.578868
 30
0.0
 10
67.782806
 20
645.465556
 30
0.0
 10
67.782806
 20
647.030276
 30
0.0
  0
SPLINE
  5
136
100
AcDbEntity
  8
Layer_1
 62
7
100
AcDbSpline
 70
8
 71
3
 72
8
 73
4
 74
0
 40
0
 40
0
 40
0
 40
0
 40
1
 40
1
 40
1
 40
1
 10
67.782806
 20
647.030276
 30
0.0
 10
67.782806
 20
647.598132
 30
0.0
 10
66.882806
 20
648.770676
 30
0.0
 10
65.782806
 20
649.635940
 30
0.0
  0
SPLINE
  5
137
100
AcDbEntity
  8
Layer_1
 62
7
100
AcDbSpline
 70
8
 71
3
 72
8
 73
4
 74
0
 40
0
 40
0
 40
0
 40
0
 40
1
 40
1
 40
1
 40
1
 10
65.782806
 20
649.635940
 30
0.0
 10
64.682806
 20
650.501204
 30
0.0
 10
63.782806
 20
651.607332
 30
0.0
 10
63.782806
 20
652.094004
 30
0.0
  0
SPLINE
  5
138
100
AcDbEntity
  8
Layer_1
 62
7
100
AcDbSpline
 70
8
 71
3
 72
8
 73
4
 74
0
 40
0
 40
0
 40
0
 40
0
 40
1
 40
1
 40
1
 40
1
 10
63.782806
 20
652.094004
 30
0.0
 10
63.782806
 20
653.172404
 30
0.0
 10
64.143150
 20
653.172628
 30
0.0
 10
57.136046
 20
652.090004
 30
0.0
  0
SPLINE
  5
139
100
AcDbEntity
  8
Layer_1
 62
7
100
AcDbSpline
 70
8
 71
3
 72
8
 73
4
 74
0
 40
0
 40
0
 40
0
 40
0
 40
1
 40
1
 40
1
 40
1
 10
57.136046
 20
652.090004
 30
0.0
 10
53.971766
 20
651.601028
 30
0.0
 10
51.169374
 20
650.861316
 30
0.0
 10
50.908518
 20
650.446204
 30
0.0
  0
SPLINE
  5
13a
100
AcDbEntity
  8
Layer_1
 62
7
100
AcDbSpline
 70
8
 71
3
 72
8
 73
4
 74
0
 40
0
 40
0
 40
0
 40
0
 40
1
 40
1
 40
1
 40
1
 10
50.908518
 20
650.446204
 30
0.0
 10
50.647662
 20
650.031092
 30
0.0
 10
47.137662
 20
649.477884
 30
0.0
 10
43.108518
 20
649.216844
 30
0.0
  0
LWPOLYLINE
  5
13b
100
AcDbEntity
  8
Layer_1
 62
7
100
AcDbPolyline
 90
3
 70
0
 10
194.519224
 20
526.178868
 30
0.0
 10
193.971504
 20
530.978868
 30
0.0
 10
192.626600
 20
527.034164
 30
0.0
  0
SPLINE
  5
13c
100
AcDbEntity
  8
Layer_1
 62
7
100
AcDbSpline
 70
8
 71
3
 72
8
 73
4
 74
0
 40
0
 40
0
 40
0
 40
0
 40
1
 40
1
 40
1
 40
1
 10
478.182824
 20
750.578868
 30
0.0
 10
478.182824
 20
688.674724
 30
0.0
 10
478.134024
 20
686.578868
 30
0.0
 10
476.692024
 20
686.578868
 30
0.0
  0
SPLINE
  5
13d
100
AcDbEntity
  8
Layer_1
 62
7
100
AcDbSpline
 70
8
 71
3
 72
8
 73
4
 74
0
 40
0
 40
0
 40
0
 40
0
 40
1
 40
1
 40
1
 40
1
 10
476.692024
 20
686.578868
 30
0.0
 10
475.872024
 20
686.578868
 30
0.0
 10
473.442024
 20
686.909196
 30
0.0
 10
471.292024
 20
687.312940
 30
0.0
  0
SPLINE
  5
13e
100
AcDbEntity
  8
Layer_1
 62
7
100
AcDbSpline
 70
8
 71
3
 72
8
 73
4
 74
0
 40
0
 40
0
 40
0
 40
0
 40
1
 40
1
 40
1
 40
1
 10
471.292024
 20
687.312940
 30
0.0
 10
469.141944
 20
687.716676
 30
0.0
 10
462.162824
 20
688.277236
 30
0.0
 10
455.782824
 20
688.558628
 30
0.0
  0
SPLINE
  5
13f
100
AcDbEntity
  8
Layer_1
 62
7
100
AcDbSpline
 70
8
 71
3
 72
8
 73
4
 74
0
 40
0
 40
0
 40
0
 40
0
 40
1
 40
1
 40
1
 40
1
 10
455.782824
 20
688.558628
 30
0.0
 10
444.587704
 20
689.052396
 30
0.0
 10
444.057144
 20
689.003436
 30
0.0
 10
440.582824
 20
687.156092
 30
0.0
  0
SPLINE
  5
140
100
AcDbEntity
  8
Layer_1
 62
7
100
AcDbSpline
 70
8
 71
3
 72
8
 73
4
 74
0
 40
0
 40
0
 40
0
 40
0
 40
1
 40
1
 40
1
 40
1
 10
440.582824
 20
687.156092
 30
0.0
 10
438.602824
 20
686.103300
 30
0.0
 10
434.897864
 20
684.997844
 30
0.0
 10
432.349704
 20
684.699516
 30
0.0
  0
SPLINE
  5
141
100
AcDbEntity
  8
Layer_1
 62
7
100
AcDbSpline
 70
8
 71
3
 72
8
 73
4
 74
0
 40
0
 40
0
 40
0
 40
0
 40
1
 40
1
 40
1
 40
1
 10
432.349704
 20
684.699516
 30
0.0
 10
428.056264
 20
684.196876
 30
0.0
 10
421.382824
 20
681.070188
 30
0.0
 10
421.382824
 20
679.561268
 30
0.0
  0
SPLINE
  5
142
100
AcDbEntity
  8
Layer_1
 62
7
100
AcDbSpline
 70
8
 71
3
 72
8
 73
4
 74
0
 40
0
 40
0
 40
0
 40
0
 40
1
 40
1
 40
1
 40
1
 10
421.382824
 20
679.561268
 30
0.0
 10
421.382824
 20
678.002836
 30
0.0
 10
417.239144
 20
676.753988
 30
0.0
 10
409.974664
 20
676.122980
 30
0.0
  0
SPLINE
  5
143
100
AcDbEntity
  8
Layer_1
 62
7
100
AcDbSpline
 70
8
 71
3
 72
8
 73
4
 74
0
 40
0
 40
0
 40
0
 40
0
 40
1
 40
1
 40
1
 40
1
 10
409.974664
 20
676.122980
 30
0.0
 10
399.587304
 20
675.220724
 30
0.0
 10
399.191784
 20
675.061900
 30
0.0
 10
398.078584
 20
671.346508
 30
0.0
  0
SPLINE
  5
144
100
AcDbEntity
  8
Layer_1
 62
7
100
AcDbSpline
 70
8
 71
3
 72
8
 73
4
 74
0
 40
0
 40
0
 40
0
 40
0
 40
1
 40
1
 40
1
 40
1
 10
398.078584
 20
671.346508
 30
0.0
 10
397.169064
 20
668.310756
 30
0.0
 10
391.036584
 20
660.978868
 30
0.0
 10
389.406984
 20
660.978868
 30
0.0
  0
SPLINE
  5
145
100
AcDbEntity
  8
Layer_1
 62
7
100
AcDbSpline
 70
8
 71
3
 72
8
 73
4
 74
0
 40
0
 40
0
 40
0
 40
0
 40
1
 40
1
 40
1
 40
1
 10
389.406984
 20
660.978868
 30
0.0
 10
388.965464
 20
660.978868
 30
0.0
 10
388.066664
 20
659.808868
 30
0.0
 10
387.409624
 20
658.378868
 30
0.0
  0
SPLINE
  5
146
100
AcDbEntity
  8
Layer_1
 62
7
100
AcDbSpline
 70
8
 71
3
 72
8
 73
4
 74
0
 40
0
 40
0
 40
0
 40
0
 40
1
 40
1
 40
1
 40
1
 10
387.409624
 20
658.378868
 30
0.0
 10
386.752584
 20
656.948868
 30
0.0
 10
385.903704
 20
655.238868
 30
0.0
 10
385.523224
 20
654.578868
 30
0.0
  0
SPLINE
  5
147
100
AcDbEntity
  8
Layer_1
 62
7
100
AcDbSpline
 70
8
 71
3
 72
8
 73
4
 74
0
 40
0
 40
0
 40
0
 40
0
 40
1
 40
1
 40
1
 40
1
 10
385.523224
 20
654.578868
 30
0.0
 10
382.517544
 20
649.364716
 30
0.0
 10
382.248184
 20
646.142940
 30
0.0
 10
384.253544
 20
639.390172
 30
0.0
  0
SPLINE
  5
148
100
AcDbEntity
  8
Layer_1
 62
7
100
AcDbSpline
 70
8
 71
3
 72
8
 73
4
 74
0
 40
0
 40
0
 40
0
 40
0
 40
1
 40
1
 40
1
 40
1
 10
384.253544
 20
639.390172
 30
0.0
 10
386.139304
 20
633.040188
 30
0.0
 10
385.134264
 20
628.172348
 30
0.0
 10
380.374424
 20
620.601660
 30
0.0
  0
SPLINE
  5
149
100
AcDbEntity
  8
Layer_1
 62
7
100
AcDbSpline
 70
8
 71
3
 72
8
 73
4
 74
0
 40
0
 40
0
 40
0
 40
0
 40
1
 40
1
 40
1
 40
1
 10
380.374424
 20
620.601660
 30
0.0
 10
373.591704
 20
609.813484
 30
0.0
 10
371.533064
 20
607.327780
 30
0.0
 10
366.415624
 20
603.746788
 30
0.0
  0
SPLINE
  5
14a
100
AcDbEntity
  8
Layer_1
 62
7
100
AcDbSpline
 70
8
 71
3
 72
8
 73
4
 74
0
 40
0
 40
0
 40
0
 40
0
 40
1
 40
1
 40
1
 40
1
 10
366.415624
 20
603.746788
 30
0.0
 10
363.427624
 20
601.655844
 30
0.0
 10
359.722824
 20
599.601692
 30
0.0
 10
358.182824
 20
599.182020
 30
0.0
  0
SPLINE
  5
14b
100
AcDbEntity
  8
Layer_1
 62
7
100
AcDbSpline
 70
8
 71
3
 72
8
 73
4
 74
0
 40
0
 40
0
 40
0
 40
0
 40
1
 40
1
 40
1
 40
1
 10
358.182824
 20
599.182020
 30
0.0
 10
356.642824
 20
598.762340
 30
0.0
 10
353.320504
 20
597.173564
 30
0.0
 10
350.799944
 20
595.651404
 30
0.0
  0
SPLINE
  5
14c
100
AcDbEntity
  8
Layer_1
 62
7
100
AcDbSpline
 70
8
 71
3
 72
8
 73
4
 74
0
 40
0
 40
0
 40
0
 40
0
 40
1
 40
1
 40
1
 40
1
 10
350.799944
 20
595.651404
 30
0.0
 10
345.242984
 20
592.295612
 30
0.0
 10
342.414424
 20
591.763628
 30
0.0
 10
336.167544
 20
592.899420
 30
0.0
  0
SPLINE
  5
14d
100
AcDbEntity
  8
Layer_1
 62
7
100
AcDbSpline
 70
8
 71
3
 72
8
 73
4
 74
0
 40
0
 40
0
 40
0
 40
0
 40
1
 40
1
 40
1
 40
1
 10
336.167544
 20
592.899420
 30
0.0
 10
330.443144
 20
593.940212
 30
0.0
 10
328.398904
 20
595.907628
 30
0.0
 10
328.655064
 20
600.129604
 30
0.0
  0
SPLINE
  5
14e
100
AcDbEntity
  8
Layer_1
 62
7
100
AcDbSpline
 70
8
 71
3
 72
8
 73
4
 74
0
 40
0
 40
0
 40
0
 40
0
 40
1
 40
1
 40
1
 40
1
 10
328.655064
 20
600.129604
 30
0.0
 10
328.750184
 20
601.696700
 30
0.0
 10
328.259064
 20
604.238868
 30
0.0
 10
327.563784
 20
605.778868
 30
0.0
  0
SPLINE
  5
14f
100
AcDbEntity
  8
Layer_1
 62
7
100
AcDbSpline
 70
8
 71
3
 72
8
 73
4
 74
0
 40
0
 40
0
 40
0
 40
0
 40
1
 40
1
 40
1
 40
1
 10
327.563784
 20
605.778868
 30
0.0
 10
326.868504
 20
607.318868
 30
0.0
 10
326.101464
 20
609.217036
 30
0.0
 10
325.859384
 20
609.997012
 30
0.0
  0
SPLINE
  5
150
100
AcDbEntity
  8
Layer_1
 62
7
100
AcDbSpline
 70
8
 71
3
 72
8
 73
4
 74
0
 40
0
 40
0
 40
0
 40
0
 40
1
 40
1
 40
1
 40
1
 10
325.859384
 20
609.997012
 30
0.0
 10
325.246904
 20
611.969820
 30
0.0
 10
323.552184
 20
612.445916
 30
0.0
 10
319.372984
 20
611.819212
 30
0.0
  0
SPLINE
  5
151
100
AcDbEntity
  8
Layer_1
 62
7
100
AcDbSpline
 70
8
 71
3
 72
8
 73
4
 74
0
 40
0
 40
0
 40
0
 40
0
 40
1
 40
1
 40
1
 40
1
 10
319.372984
 20
611.819212
 30
0.0
 10
316.999784
 20
611.463332
 30
0.0
 10
315.782824
 20
610.883892
 30
0.0
 10
315.782824
 20
610.109852
 30
0.0
  0
SPLINE
  5
152
100
AcDbEntity
  8
Layer_1
 62
7
100
AcDbSpline
 70
8
 71
3
 72
8
 73
4
 74
0
 40
0
 40
0
 40
0
 40
0
 40
1
 40
1
 40
1
 40
1
 10
315.782824
 20
610.109852
 30
0.0
 10
315.782824
 20
609.448756
 30
0.0
 10
314.737784
 20
608.729860
 30
0.0
 10
313.382824
 20
608.458868
 30
0.0
  0
SPLINE
  5
153
100
AcDbEntity
  8
Layer_1
 62
7
100
AcDbSpline
 70
8
 71
3
 72
8
 73
4
 74
0
 40
0
 40
0
 40
0
 40
0
 40
1
 40
1
 40
1
 40
1
 10
313.382824
 20
608.458868
 30
0.0
 10
311.114824
 20
608.005268
 30
0.0
 10
310.982824
 20
607.766956
 30
0.0
 10
310.982824
 20
604.126084
 30
0.0
  0
SPLINE
  5
154
100
AcDbEntity
  8
Layer_1
 62
7
100
AcDbSpline
 70
8
 71
3
 72
8
 73
4
 74
0
 40
0
 40
0
 40
0
 40
0
 40
1
 40
1
 40
1
 40
1
 10
310.982824
 20
604.126084
 30
0.0
 10
310.982824
 20
602.007052
 30
0.0
 10
310.622824
 20
600.050804
 30
0.0
 10
310.182824
 20
599.778868
 30
0.0
  0
SPLINE
  5
155
100
AcDbEntity
  8
Layer_1
 62
7
100
AcDbSpline
 70
8
 71
3
 72
8
 73
4
 74
0
 40
0
 40
0
 40
0
 40
0
 40
1
 40
1
 40
1
 40
1
 10
310.182824
 20
599.778868
 30
0.0
 10
309.742824
 20
599.506932
 30
0.0
 10
309.382824
 20
598.470524
 30
0.0
 10
309.382824
 20
597.475740
 30
0.0
  0
SPLINE
  5
156
100
AcDbEntity
  8
Layer_1
 62
7
100
AcDbSpline
 70
8
 71
3
 72
8
 73
4
 74
0
 40
0
 40
0
 40
0
 40
0
 40
1
 40
1
 40
1
 40
1
 10
309.382824
 20
597.475740
 30
0.0
 10
309.382824
 20
596.480956
 30
0.0
 10
308.328264
 20
594.485884
 30
0.0
 10
307.039384
 20
593.042244
 30
0.0
  0
SPLINE
  5
157
100
AcDbEntity
  8
Layer_1
 62
7
100
AcDbSpline
 70
8
 71
3
 72
8
 73
4
 74
0
 40
0
 40
0
 40
0
 40
0
 40
1
 40
1
 40
1
 40
1
 10
307.039384
 20
593.042244
 30
0.0
 10
304.800264
 20
590.534284
 30
0.0
 10
304.568664
 20
590.459444
 30
0.0
 10
301.836584
 20
591.361108
 30
0.0
  0
SPLINE
  5
158
100
AcDbEntity
  8
Layer_1
 62
7
100
AcDbSpline
 70
8
 71
3
 72
8
 73
4
 74
0
 40
0
 40
0
 40
0
 40
0
 40
1
 40
1
 40
1
 40
1
 10
301.836584
 20
591.361108
 30
0.0
 10
300.263944
 20
591.880132
 30
0.0
 10
297.808504
 20
592.073940
 30
0.0
 10
296.380024
 20
591.791804
 30
0.0
  0
SPLINE
  5
159
100
AcDbEntity
  8
Layer_1
 62
7
100
AcDbSpline
 70
8
 71
3
 72
8
 73
4
 74
0
 40
0
 40
0
 40
0
 40
0
 40
1
 40
1
 40
1
 40
1
 10
296.380024
 20
591.791804
 30
0.0
 10
293.234664
 20
591.170556
 30
0.0
 10
289.131064
 20
589.667540
 30
0.0
 10
288.582824
 20
588.935916
 30
0.0
  0
SPLINE
  5
15a
100
AcDbEntity
  8
Layer_1
 62
7
100
AcDbSpline
 70
8
 71
3
 72
8
 73
4
 74
0
 40
0
 40
0
 40
0
 40
0
 40
1
 40
1
 40
1
 40
1
 10
288.582824
 20
588.935916
 30
0.0
 10
288.362824
 20
588.642324
 30
0.0
 10
287.060984
 20
587.827548
 30
0.0
 10
285.689864
 20
587.125300
 30
0.0
  0
SPLINE
  5
15b
100
AcDbEntity
  8
Layer_1
 62
7
100
AcDbSpline
 70
8
 71
3
 72
8
 73
4
 74
0
 40
0
 40
0
 40
0
 40
0
 40
1
 40
1
 40
1
 40
1
 10
285.689864
 20
587.125300
 30
0.0
 10
282.809624
 20
585.650148
 30
0.0
 10
279.840904
 20
583.265588
 30
0.0
 10
276.294744
 20
579.578868
 30
0.0
  0
SPLINE
  5
15c
100
AcDbEntity
  8
Layer_1
 62
7
100
AcDbSpline
 70
8
 71
3
 72
8
 73
4
 74
0
 40
0
 40
0
 40
0
 40
0
 40
1
 40
1
 40
1
 40
1
 10
276.294744
 20
579.578868
 30
0.0
 10
274.354984
 20
577.562164
 30
0.0
 10
273.128024
 20
576.978868
 30
0.0
 10
270.826024
 20
576.978868
 30
0.0
  0
SPLINE
  5
15d
100
AcDbEntity
  8
Layer_1
 62
7
100
AcDbSpline
 70
8
 71
3
 72
8
 73
4
 74
0
 40
0
 40
0
 40
0
 40
0
 40
1
 40
1
 40
1
 40
1
 10
270.826024
 20
576.978868
 30
0.0
 10
267.045008
 20
576.978868
 30
0.0
 10
263.952832
 20
575.574852
 30
0.0
 10
263.316208
 20
573.569028
 30
0.0
  0
SPLINE
  5
15e
100
AcDbEntity
  8
Layer_1
 62
7
100
AcDbSpline
 70
8
 71
3
 72
8
 73
4
 74
0
 40
0
 40
0
 40
0
 40
0
 40
1
 40
1
 40
1
 40
1
 10
263.316208
 20
573.569028
 30
0.0
 10
263.042664
 20
572.707156
 30
0.0
 10
261.642920
 20
570.691796
 30
0.0
 10
260.205672
 20
569.090436
 30
0.0
  0
SPLINE
  5
15f
100
AcDbEntity
  8
Layer_1
 62
7
100
AcDbSpline
 70
8
 71
3
 72
8
 73
4
 74
0
 40
0
 40
0
 40
0
 40
0
 40
1
 40
1
 40
1
 40
1
 10
260.205672
 20
569.090436
 30
0.0
 10
257.799792
 20
566.409844
 30
0.0
 10
257.562984
 20
565.656076
 30
0.0
 10
257.220512
 20
559.588676
 30
0.0
  0
SPLINE
  5
160
100
AcDbEntity
  8
Layer_1
 62
7
100
AcDbSpline
 70
8
 71
3
 72
8
 73
4
 74
0
 40
0
 40
0
 40
0
 40
0
 40
1
 40
1
 40
1
 40
1
 10
257.220512
 20
559.588676
 30
0.0
 10
256.950208
 20
554.799676
 30
0.0
 10
256.462064
 20
552.571428
 30
0.0
 10
255.434496
 20
551.435980
 30
0.0
  0
SPLINE
  5
161
100
AcDbEntity
  8
Layer_1
 62
7
100
AcDbSpline
 70
8
 71
3
 72
8
 73
4
 74
0
 40
0
 40
0
 40
0
 40
0
 40
1
 40
1
 40
1
 40
1
 10
255.434496
 20
551.435980
 30
0.0
 10
254.656768
 20
550.576604
 30
0.0
 10
253.011072
 20
547.962188
 30
0.0
 10
251.777392
 20
545.626172
 30
0.0
  0
SPLINE
  5
162
100
AcDbEntity
  8
Layer_1
 62
7
100
AcDbSpline
 70
8
 71
3
 72
8
 73
4
 74
0
 40
0
 40
0
 40
0
 40
0
 40
1
 40
1
 40
1
 40
1
 10
251.777392
 20
545.626172
 30
0.0
 10
249.741376
 20
541.770916
 30
0.0
 10
249.213496
 20
541.318804
 30
0.0
 10
246.058568
 20
540.728172
 30
0.0
  0
SPLINE
  5
163
100
AcDbEntity
  8
Layer_1
 62
7
100
AcDbSpline
 70
8
 71
3
 72
8
 73
4
 74
0
 40
0
 40
0
 40
0
 40
0
 40
1
 40
1
 40
1
 40
1
 10
246.058568
 20
540.728172
 30
0.0
 10
242.810232
 20
540.120052
 30
0.0
 10
242.442120
 20
539.777788
 30
0.0
 10
240.432688
 20
535.497300
 30
0.0
  0
SPLINE
  5
164
100
AcDbEntity
  8
Layer_1
 62
7
100
AcDbSpline
 70
8
 71
3
 72
8
 73
4
 74
0
 40
0
 40
0
 40
0
 40
0
 40
1
 40
1
 40
1
 40
1
 10
240.432688
 20
535.497300
 30
0.0
 10
239.250120
 20
532.978212
 30
0.0
 10
237.540120
 20
530.245228
 30
0.0
 10
236.632688
 20
529.424012
 30
0.0
  0
SPLINE
  5
165
100
AcDbEntity
  8
Layer_1
 62
7
100
AcDbSpline
 70
8
 71
3
 72
8
 73
4
 74
0
 40
0
 40
0
 40
0
 40
0
 40
1
 40
1
 40
1
 40
1
 10
236.632688
 20
529.424012
 30
0.0
 10
235.725256
 20
528.602796
 30
0.0
 10
234.982808
 20
527.321996
 30
0.0
 10
234.982808
 20
526.577788
 30
0.0
  0
SPLINE
  5
166
100
AcDbEntity
  8
Layer_1
 62
7
100
AcDbSpline
 70
8
 71
3
 72
8
 73
4
 74
0
 40
0
 40
0
 40
0
 40
0
 40
1
 40
1
 40
1
 40
1
 10
234.982808
 20
526.577788
 30
0.0
 10
234.982808
 20
525.377596
 30
0.0
 10
233.699192
 20
522.098724
 30
0.0
 10
231.851392
 20
518.578868
 30
0.0
  0
SPLINE
  5
167
100
AcDbEntity
  8
Layer_1
 62
7
100
AcDbSpline
 70
8
 71
3
 72
8
 73
4
 74
0
 40
0
 40
0
 40
0
 40
0
 40
1
 40
1
 40
1
 40
1
 10
231.851392
 20
518.578868
 30
0.0
 10
231.040440
 20
517.034100
 30
0.0
 10
227.663584
 20
516.618092
 30
0.0
 10
226.377192
 20
517.904484
 30
0.0
  0
LWPOLYLINE
  5
168
100
AcDbEntity
  8
Layer_1
 62
7
100
AcDbPolyline
 90
7
 70
0
 10
43.108518
 20
649.216844
 30
0.0
 10
35.782806
 20
648.742036
 30
0.0
 10
35.782806
 20
731.660452
 30
0.0
 10
35.782806
 20
814.578865
 30
0.0
 10
256.982808
 20
814.578865
 30
0.0
 10
478.182824
 20
814.578865
 30
0.0
 10
478.182824
 20
750.578868
 30
0.0
  0
SPLINE
  5
169
100
AcDbEntity
  8
Layer_1
 62
7
100
AcDbSpline
 70
8
 71
3
 72
8
 73
4
 74
0
 40
0
 40
0
 40
0
 40
0
 40
1
 40
1
 40
1
 40
1
 10
272.602664
 20
592.403868
 30
0.0
 10
273.446504
 20
593.791452
 30
0.0
 10
274.369144
 20
596.475308
 30
0.0
 10
274.652984
 20
598.367988
 30
0.0
  0
SPLINE
  5
16a
100
AcDbEntity
  8
Layer_1
 62
7
100
AcDbSpline
 70
8
 71
3
 72
8
 73
4
 74
0
 40
0
 40
0
 40
0
 40
0
 40
1
 40
1
 40
1
 40
1
 10
274.652984
 20
598.367988
 30
0.0
 10
274.977224
 20
600.530380
 30
0.0
 10
275.829864
 20
602.329020
 30
0.0
 10
276.947224
 20
603.207948
 30
0.0
  0
SPLINE
  5
16b
100
AcDbEntity
  8
Layer_1
 62
7
100
AcDbSpline
 70
8
 71
3
 72
8
 73
4
 74
0
 40
0
 40
0
 40
0
 40
0
 40
1
 40
1
 40
1
 40
1
 10
276.947224
 20
603.207948
 30
0.0
 10
277.925224
 20
603.977244
 30
0.0
 10
279.083944
 20
605.680412
 30
0.0
 10
279.522264
 20
606.992772
 30
0.0
  0
SPLINE
  5
16c
100
AcDbEntity
  8
Layer_1
 62
7
100
AcDbSpline
 70
8
 71
3
 72
8
 73
4
 74
0
 40
0
 40
0
 40
0
 40
0
 40
1
 40
1
 40
1
 40
1
 10
279.522264
 20
606.992772
 30
0.0
 10
280.302984
 20
609.330628
 30
0.0
 10
280.414504
 20
609.373084
 30
0.0
 10
285.038664
 20
609.092748
 30
0.0
  0
SPLINE
  5
16d
100
AcDbEntity
  8
Layer_1
 62
7
100
AcDbSpline
 70
8
 71
3
 72
8
 73
4
 74
0
 40
0
 40
0
 40
0
 40
0
 40
1
 40
1
 40
1
 40
1
 10
285.038664
 20
609.092748
 30
0.0
 10
287.634424
 20
608.935388
 30
0.0
 10
290.473864
 20
608.305388
 30
0.0
 10
291.348504
 20
607.692748
 30
0.0
  0
SPLINE
  5
16e
100
AcDbEntity
  8
Layer_1
 62
7
100
AcDbSpline
 70
8
 71
3
 72
8
 73
4
 74
0
 40
0
 40
0
 40
0
 40
0
 40
1
 40
1
 40
1
 40
1
 10
291.348504
 20
607.692748
 30
0.0
 10
292.223144
 20
607.080116
 30
0.0
 10
293.848744
 20
606.581892
 30
0.0
 10
294.960824
 20
606.585588
 30
0.0
  0
SPLINE
  5
16f
100
AcDbEntity
  8
Layer_1
 62
7
100
AcDbSpline
 70
8
 71
3
 72
8
 73
4
 74
0
 40
0
 40
0
 40
0
 40
0
 40
1
 40
1
 40
1
 40
1
 10
294.960824
 20
606.585588
 30
0.0
 10
296.952504
 20
606.591988
 30
0.0
 10
296.986344
 20
606.698292
 30
0.0
 10
297.219704
 20
613.662916
 30
0.0
  0
LWPOLYLINE
  5
170
100
AcDbEntity
  8
Layer_1
 62
7
100
AcDbPolyline
 90
2
 70
0
 10
226.377192
 20
517.904484
 30
0.0
 10
226.377192
 20
517.904484
 30
0.0
  0
SPLINE
  5
171
100
AcDbEntity
  8
Layer_1
 62
7
100
AcDbSpline
 70
8
 71
3
 72
8
 73
4
 74
0
 40
0
 40
0
 40
0
 40
0
 40
1
 40
1
 40
1
 40
1
 10
292.419704
 20
619.456196
 30
0.0
 10
289.649384
 20
618.753668
 30
0.0
 10
286.949144
 20
617.770884
 30
0.0
 10
286.419064
 20
617.272244
 30
0.0
  0
SPLINE
  5
172
100
AcDbEntity
  8
Layer_1
 62
7
100
AcDbSpline
 70
8
 71
3
 72
8
 73
4
 74
0
 40
0
 40
0
 40
0
 40
0
 40
1
 40
1
 40
1
 40
1
 10
286.419064
 20
617.272244
 30
0.0
 10
285.888984
 20
616.773596
 30
0.0
 10
283.640904
 20
615.713164
 30
0.0
 10
281.423304
 20
614.915724
 30
0.0
  0
SPLINE
  5
173
100
AcDbEntity
  8
Layer_1
 62
7
100
AcDbSpline
 70
8
 71
3
 72
8
 73
4
 74
0
 40
0
 40
0
 40
0
 40
0
 40
1
 40
1
 40
1
 40
1
 10
281.423304
 20
614.915724
 30
0.0
 10
279.126744
 20
614.089916
 30
0.0
 10
277.194104
 20
612.844524
 30
0.0
 10
276.933144
 20
612.022356
 30
0.0
  0
SPLINE
  5
174
100
AcDbEntity
  8
Layer_1
 62
7
100
AcDbSpline
 70
8
 71
3
 72
8
 73
4
 74
0
 40
0
 40
0
 40
0
 40
0
 40
1
 40
1
 40
1
 40
1
 10
276.933144
 20
612.022356
 30
0.0
 10
276.681144
 20
611.228436
 30
0.0
 10
276.016424
 20
610.578868
 30
0.0
 10
275.456024
 20
610.578868
 30
0.0
  0
SPLINE
  5
175
100
AcDbEntity
  8
Layer_1
 62
7
100
AcDbSpline
 70
8
 71
3
 72
8
 73
4
 74
0
 40
0
 40
0
 40
0
 40
0
 40
1
 40
1
 40
1
 40
1
 10
275.456024
 20
610.578868
 30
0.0
 10
274.895624
 20
610.578868
 30
0.0
 10
273.463464
 20
608.789956
 30
0.0
 10
272.273464
 20
606.603516
 30
0.0
  0
SPLINE
  5
176
100
AcDbEntity
  8
Layer_1
 62
7
100
AcDbSpline
 70
8
 71
3
 72
8
 73
4
 74
0
 40
0
 40
0
 40
0
 40
0
 40
1
 40
1
 40
1
 40
1
 10
272.273464
 20
606.603516
 30
0.0
 10
271.083384
 20
604.417068
 30
0.0
 10
269.766208
 20
602.415820
 30
0.0
 10
269.346296
 20
602.156300
 30
0.0
  0
SPLINE
  5
177
100
AcDbEntity
  8
Layer_1
 62
7
100
AcDbSpline
 70
8
 71
3
 72
8
 73
4
 74
0
 40
0
 40
0
 40
0
 40
0
 40
1
 40
1
 40
1
 40
1
 10
269.346296
 20
602.156300
 30
0.0
 10
268.926376
 20
601.896780
 30
0.0
 10
268.582808
 20
600.835532
 30
0.0
 10
268.582808
 20
599.797980
 30
0.0
  0
SPLINE
  5
178
100
AcDbEntity
  8
Layer_1
 62
7
100
AcDbSpline
 70
8
 71
3
 72
8
 73
4
 74
0
 40
0
 40
0
 40
0
 40
0
 40
1
 40
1
 40
1
 40
1
 10
268.582808
 20
599.797980
 30
0.0
 10
268.582808
 20
598.760428
 30
0.0
 10
267.862808
 20
596.231828
 30
0.0
 10
266.982808
 20
594.178868
 30
0.0
  0
SPLINE
  5
179
100
AcDbEntity
  8
Layer_1
 62
7
100
AcDbSpline
 70
8
 71
3
 72
8
 73
4
 74
0
 40
0
 40
0
 40
0
 40
0
 40
1
 40
1
 40
1
 40
1
 10
266.982808
 20
594.178868
 30
0.0
 10
265.028960
 20
589.620732
 30
0.0
 10
265.012664
 20
589.180468
 30
0.0
 10
266.782808
 20
588.777404
 30
0.0
  0
SPLINE
  5
17a
100
AcDbEntity
  8
Layer_1
 62
7
100
AcDbSpline
 70
8
 71
3
 72
8
 73
4
 74
0
 40
0
 40
0
 40
0
 40
0
 40
1
 40
1
 40
1
 40
1
 10
266.782808
 20
588.777404
 30
0.0
 10
268.855344
 20
588.305484
 30
0.0
 10
270.876024
 20
589.564604
 30
0.0
 10
272.602664
 20
592.403868
 30
0.0
  0
LWPOLYLINE
  5
17b
100
AcDbEntity
  8
Layer_1
 62
7
100
AcDbPolyline
 90
3
 70
0
 10
297.219704
 20
613.662916
 30
0.0
 10
297.456584
 20
620.733516
 30
0.0
 10
292.419704
 20
619.456196
 30
0.0
  0
SPLINE
  5
17c
100
AcDbEntity
  8
Layer_1
 62
7
100
AcDbSpline
 70
8
 71
3
 72
8
 73
4
 74
0
 40
0
 40
0
 40
0
 40
0
 40
1
 40
1
 40
1
 40
1
 10
308.582824
 20
632.045532
 30
0.0
 10
308.582824
 20
635.060956
 30
0.0
 10
307.823304
 20
635.663484
 30
0.0
 10
306.047704
 20
634.056620
 30
0.0
  0
SPLINE
  5
17d
100
AcDbEntity
  8
Layer_1
 62
7
100
AcDbSpline
 70
8
 71
3
 72
8
 73
4
 74
0
 40
0
 40
0
 40
0
 40
0
 40
1
 40
1
 40
1
 40
1
 10
306.047704
 20
634.056620
 30
0.0
 10
303.860104
 20
632.076844
 30
0.0
 10
304.147544
 20
629.778868
 30
0.0
 10
306.582824
 20
629.778868
 30
0.0
  0
SPLINE
  5
17e
100
AcDbEntity
  8
Layer_1
 62
7
100
AcDbSpline
 70
8
 71
3
 72
8
 73
4
 74
0
 40
0
 40
0
 40
0
 40
0
 40
1
 40
1
 40
1
 40
1
 10
306.582824
 20
629.778868
 30
0.0
 10
308.245544
 20
629.778868
 30
0.0
 10
308.582824
 20
630.161092
 30
0.0
 10
308.582824
 20
632.045532
 30
0.0
  0
LWPOLYLINE
  5
17f
100
AcDbEntity
  8
Layer_1
 62
7
100
AcDbPolyline
 90
2
 70
0
 10
272.602664
 20
592.403868
 30
0.0
 10
272.602664
 20
592.403868
 30
0.0
  0
SPLINE
  5
180
100
AcDbEntity
  8
Layer_1
 62
7
100
AcDbSpline
 70
8
 71
3
 72
8
 73
4
 74
0
 40
0
 40
0
 40
0
 40
0
 40
1
 40
1
 40
1
 40
1
 10
343.688264
 20
632.978868
 30
0.0
 10
344.382984
 20
635.297564
 30
0.0
 10
345.078824
 20
636.178868
 30
0.0
 10
346.214904
 20
636.178868
 30
0.0
  0
SPLINE
  5
181
100
AcDbEntity
  8
Layer_1
 62
7
100
AcDbSpline
 70
8
 71
3
 72
8
 73
4
 74
0
 40
0
 40
0
 40
0
 40
0
 40
1
 40
1
 40
1
 40
1
 10
346.214904
 20
636.178868
 30
0.0
 10
347.265864
 20
636.178868
 30
0.0
 10
347.782824
 20
636.723476
 30
0.0
 10
347.782824
 20
637.830564
 30
0.0
  0
SPLINE
  5
182
100
AcDbEntity
  8
Layer_1
 62
7
100
AcDbSpline
 70
8
 71
3
 72
8
 73
4
 74
0
 40
0
 40
0
 40
0
 40
0
 40
1
 40
1
 40
1
 40
1
 10
347.782824
 20
637.830564
 30
0.0
 10
347.782824
 20
639.964180
 30
0.0
 10
344.600104
 20
647.378868
 30
0.0
 10
343.684264
 20
647.378868
 30
0.0
  0
SPLINE
  5
183
100
AcDbEntity
  8
Layer_1
 62
7
100
AcDbSpline
 70
8
 71
3
 72
8
 73
4
 74
0
 40
0
 40
0
 40
0
 40
0
 40
1
 40
1
 40
1
 40
1
 10
343.684264
 20
647.378868
 30
0.0
 10
343.298504
 20
647.378868
 30
0.0
 10
342.982824
 20
647.968156
 30
0.0
 10
342.982824
 20
648.688396
 30
0.0
  0
SPLINE
  5
184
100
AcDbEntity
  8
Layer_1
 62
7
100
AcDbSpline
 70
8
 71
3
 72
8
 73
4
 74
0
 40
0
 40
0
 40
0
 40
0
 40
1
 40
1
 40
1
 40
1
 10
342.982824
 20
648.688396
 30
0.0
 10
342.982824
 20
649.828252
 30
0.0
 10
342.283144
 20
649.923820
 30
0.0
 10
337.582824
 20
649.425988
 30
0.0
  0
SPLINE
  5
185
100
AcDbEntity
  8
Layer_1
 62
7
100
AcDbSpline
 70
8
 71
3
 72
8
 73
4
 74
0
 40
0
 40
0
 40
0
 40
0
 40
1
 40
1
 40
1
 40
1
 10
337.582824
 20
649.425988
 30
0.0
 10
334.612824
 20
649.111420
 30
0.0
 10
331.282824
 20
648.779380
 30
0.0
 10
330.182824
 20
648.688108
 30
0.0
  0
SPLINE
  5
186
100
AcDbEntity
  8
Layer_1
 62
7
100
AcDbSpline
 70
8
 71
3
 72
8
 73
4
 74
0
 40
0
 40
0
 40
0
 40
0
 40
1
 40
1
 40
1
 40
1
 10
330.182824
 20
648.688108
 30
0.0
 10
327.334584
 20
648.451796
 30
0.0
 10
325.134424
 20
647.064036
 30
0.0
 10
320.521064
 20
642.594060
 30
0.0
  0
SPLINE
  5
187
100
AcDbEntity
  8
Layer_1
 62
7
100
AcDbSpline
 70
8
 71
3
 72
8
 73
4
 74
0
 40
0
 40
0
 40
0
 40
0
 40
1
 40
1
 40
1
 40
1
 10
320.521064
 20
642.594060
 30
0.0
 10
316.965304
 20
639.148804
 30
0.0
 10
316.583704
 20
638.471980
 30
0.0
 10
317.369304
 20
637.004124
 30
0.0
  0
SPLINE
  5
188
100
AcDbEntity
  8
Layer_1
 62
7
100
AcDbSpline
 70
8
 71
3
 72
8
 73
4
 74
0
 40
0
 40
0
 40
0
 40
0
 40
1
 40
1
 40
1
 40
1
 10
317.369304
 20
637.004124
 30
0.0
 10
317.860904
 20
636.085588
 30
0.0
 10
318.595304
 20
635.539364
 30
0.0
 10
319.001304
 20
635.790300
 30
0.0
  0
SPLINE
  5
189
100
AcDbEntity
  8
Layer_1
 62
7
100
AcDbSpline
 70
8
 71
3
 72
8
 73
4
 74
0
 40
0
 40
0
 40
0
 40
0
 40
1
 40
1
 40
1
 40
1
 10
319.001304
 20
635.790300
 30
0.0
 10
321.076024
 20
637.072540
 30
0.0
 10
325.586264
 20
636.872932
 30
0.0
 10
328.380664
 20
635.375212
 30
0.0
  0
SPLINE
  5
18a
100
AcDbEntity
  8
Layer_1
 62
7
100
AcDbSpline
 70
8
 71
3
 72
8
 73
4
 74
0
 40
0
 40
0
 40
0
 40
0
 40
1
 40
1
 40
1
 40
1
 10
328.380664
 20
635.375212
 30
0.0
 10
330.018824
 20
634.497220
 30
0.0
 10
332.084424
 20
633.768724
 30
0.0
 10
332.970984
 20
633.756332
 30
0.0
  0
SPLINE
  5
18b
100
AcDbEntity
  8
Layer_1
 62
7
100
AcDbSpline
 70
8
 71
3
 72
8
 73
4
 74
0
 40
0
 40
0
 40
0
 40
0
 40
1
 40
1
 40
1
 40
1
 10
332.970984
 20
633.756332
 30
0.0
 10
333.857464
 20
633.743932
 30
0.0
 10
336.202824
 20
632.871236
 30
0.0
 10
338.182824
 20
631.816996
 30
0.0
  0
SPLINE
  5
18c
100
AcDbEntity
  8
Layer_1
 62
7
100
AcDbSpline
 70
8
 71
3
 72
8
 73
4
 74
0
 40
0
 40
0
 40
0
 40
0
 40
1
 40
1
 40
1
 40
1
 10
338.182824
 20
631.816996
 30
0.0
 10
340.162824
 20
630.762748
 30
0.0
 10
341.995784
 20
629.872892
 30
0.0
 10
342.256184
 20
629.839532
 30
0.0
  0
SPLINE
  5
18d
100
AcDbEntity
  8
Layer_1
 62
7
100
AcDbSpline
 70
8
 71
3
 72
8
 73
4
 74
0
 40
0
 40
0
 40
0
 40
0
 40
1
 40
1
 40
1
 40
1
 10
342.256184
 20
629.839532
 30
0.0
 10
342.516504
 20
629.806172
 30
0.0
 10
343.160984
 20
631.218868
 30
0.0
 10
343.688264
 20
632.978868
 30
0.0
  0
LWPOLYLINE
  5
18e
100
AcDbEntity
  8
Layer_1
 62
7
100
AcDbPolyline
 90
2
 70
0
 10
308.582824
 20
632.045532
 30
0.0
 10
308.582824
 20
632.045532
 30
0.0
  0
LWPOLYLINE
  5
18f
100
AcDbEntity
  8
Layer_1
 62
7
100
AcDbPolyline
 90
2
 70
0
 10
343.688264
 20
632.978868
 30
0.0
 10
343.688264
 20
632.978868
 30
0.0
  0
ENDSEC
  0
SECTION
  2
OBJECTS
  0
DICTIONARY
  5
C
330
0
100
AcDbDictionary
  3
ACAD_GROUP
350
D
  3
ACAD_MLINESTYLE
350
17
  0
DICTIONARY
  5
D
330
C
100
AcDbDictionary
  0
DICTIONARY
  5
1A
330
C
100
AcDbDictionary
  0
DICTIONARY
  5
17
330
C
100
AcDbDictionary
  3
STANDARD
350
18
  0
DICTIONARY
  5
19
330
C
100
AcDbDictionary
  0
ENDSEC
  0
EOF
