<?xml version="1.0" encoding="UTF-8" standalone="no"?>
<!-- Created with Inkscape (http://www.inkscape.org/) -->

<svg
   xmlns:dc="http://purl.org/dc/elements/1.1/"
   xmlns:cc="http://creativecommons.org/ns#"
   xmlns:rdf="http://www.w3.org/1999/02/22-rdf-syntax-ns#"
   xmlns:svg="http://www.w3.org/2000/svg"
   xmlns="http://www.w3.org/2000/svg"
   xmlns:sodipodi="http://sodipodi.sourceforge.net/DTD/sodipodi-0.dtd"
   xmlns:inkscape="http://www.inkscape.org/namespaces/inkscape"
   width="744.09448819"
   height="1052.3622047"
   id="svg2"
   version="1.1"
   inkscape:version="0.48.4 r9939"
   sodipodi:docname="tornado4-2.svg">
  <defs
     id="defs4" />
  <sodipodi:namedview
     id="base"
     pagecolor="#ffffff"
     bordercolor="#666666"
     borderopacity="1.0"
     inkscape:pageopacity="0.0"
     inkscape:pageshadow="2"
     inkscape:zoom="0.98994949"
     inkscape:cx="427.78365"
     inkscape:cy="730.53472"
     inkscape:document-units="px"
     inkscape:current-layer="layer1"
     showgrid="false"
     inkscape:window-width="1280"
     inkscape:window-height="977"
     inkscape:window-x="-4"
     inkscape:window-y="-4"
     inkscape:window-maximized="1" />
  <metadata
     id="metadata7">
    <rdf:RDF>
      <cc:Work
         rdf:about="">
        <dc:format>image/svg+xml</dc:format>
        <dc:type
           rdf:resource="http://purl.org/dc/dcmitype/StillImage" />
        <dc:title></dc:title>
      </cc:Work>
    </rdf:RDF>
  </metadata>
  <g
     inkscape:label="Layer 1"
     inkscape:groupmode="layer"
     id="layer1">
    <path
       style="fill:#000000"
       d="m 248.20264,408.91831 c -0.66,-0.66 -1.2,-1.98344 -1.2,-2.94098 0,-0.95754 -0.45,-2.0191 -1,-2.35902 -0.55,-0.33992 -1.01431,-2.27898 -1.0318,-4.30902 -0.0344,-3.99062 -2.20238,-7.78232 -3.86293,-6.75604 -0.56529,0.34937 -1.32891,2.30693 -1.69693,4.35014 -0.80256,4.45577 -2.05035,6.21492 -4.40834,6.21492 -2.76865,0 -3.9512,-2.23972 -4.63456,-8.77773 -0.56354,-5.39168 -0.91338,-6.14298 -3.1181,-6.69633 -2.97803,-0.74743 -2.76838,-0.95681 -3.87864,3.87378 -1.06267,4.62358 -3.51921,6.62564 -6.1187,4.9867 -1.36524,-0.86077 -1.77199,-2.584 -1.85,-7.83772 -0.088,-5.92877 -0.40572,-6.9924 -2.65571,-8.89153 -4.27322,-3.60685 -5.57334,-8.15408 -6.19209,-21.65717 -1.17235,-25.58459 -1.24001,-25.96003 -6.7099,-37.23643 -0.46327,-0.95504 -0.8423,-2.80052 -0.8423,-4.10106 0,-1.30055 -1.04757,-4.34415 -2.32792,-6.76357 -2.29251,-4.33201 -3.60494,-11.61245 -5.66023,-31.39894 -1.44306,-13.89245 -2.02515,-16.52373 -5.08544,-22.98783 -2.81852,-5.95346 -6.15188,-8.91163 -15.16128,-13.45482 -1.831,-0.92332 -2.93445,-2.443 -3.33876,-4.59816 -0.38931,-2.07517 -1.46073,-3.60944 -3.01514,-4.31768 -1.85324,-0.8444 -2.41123,-1.87767 -2.41123,-4.46508 0,-3.561 -2.46337,-6.67643 -5.27905,-6.67643 -0.89187,0 -2.05211,-0.76933 -2.57833,-1.70962 -0.781,-1.39558 -2.58112,-1.73233 -9.79969,-1.83323 -5.29998,-0.0741 -10.6215,0.45217 -13.28208,1.3135 -3.9511,1.27909 -4.73693,1.2612 -7.14754,-0.16278 -2.48085,-1.46548 -3.15802,-1.46587 -8.06084,-0.005 -9.63045,2.87029 -9.65364,2.88798 -10.41167,7.94293 -0.57219,3.81564 -0.28821,5.39849 1.57935,8.80297 3.46241,6.31186 4.96092,7.65085 8.56225,7.65085 2.34501,0 3.8604,-0.74747 5.34705,-2.63744 1.98199,-2.51969 2.33124,-2.59919 7.82258,-1.78056 3.16138,0.47128 8.24889,0.84564 11.30558,0.8319 4.69406,-0.0211 5.83548,0.34339 7.34591,2.34583 1.70412,2.2592 1.70588,2.46189 0.0374,4.30554 -1.41573,1.56437 -3.01337,1.91565 -8.34591,1.83505 -3.62726,-0.0544 -7.72001,-0.42719 -9.09501,-0.82795 -1.94488,-0.56685 -3.2294,-0.10061 -5.7848,2.09968 -3.49243,3.00711 -6.51232,3.4639 -12.17106,1.84099 -3.59229,-1.03025 -12.04415,-8.5178 -12.04415,-10.66998 0,-0.68249 -1.588618,-2.4526 -3.530268,-3.93357 -3.27209,-2.49574 -4.01645,-2.64727 -10.178,-2.07189 -3.65625,0.34142 -6.94692,1.10486 -7.31259,1.69653 -0.36567,0.59167 -4.78557,1.34273 -9.822,1.66903 l -9.15714,0.59326 0,-103.64802 0,-103.648021 288.500008,0 288.49995,0 0,81.124511 0,81.12452 -10.75,-0.64655 c -5.9125,-0.35561 -14.575,-1.29071 -19.25,-2.078 -4.675,-0.7873 -14.8,-1.70443 -22.5,-2.03808 -13.44562,-0.58262 -14.17813,-0.51179 -18.49995,1.78906 -2.475,1.31764 -7.10614,2.70082 -10.29142,3.07373 -5.36674,0.6283 -13.70858,4.53666 -13.70858,6.42281 0,1.94804 -5.17958,3.5091 -14.26022,4.29786 -12.98415,1.12782 -13.4786,1.32635 -14.87005,5.97059 -1.13691,3.79469 -8.80249,12.95955 -10.83949,12.95955 -0.55187,0 -1.67539,1.4625 -2.49672,3.25 -0.82132,1.7875 -1.88242,3.925 -2.35799,4.75 -3.75713,6.51769 -4.09378,10.54491 -1.58709,18.98587 2.35718,7.93748 1.1009,14.02228 -4.84891,23.48564 -8.47844,13.48522 -11.05168,16.59235 -17.44846,21.06859 -3.73509,2.61368 -8.36607,5.18137 -10.29107,5.70596 -1.925,0.5246 -6.07786,2.51057 -9.22859,4.41327 -6.94614,4.19474 -10.48187,4.85972 -18.29049,3.43998 -7.15545,-1.30099 -9.71075,-3.76026 -9.39058,-9.03773 0.11884,-1.95887 -0.49502,-5.13658 -1.36413,-7.06158 -0.86912,-1.925 -1.82785,-4.29771 -2.13053,-5.27268 -0.76556,-2.46601 -2.88399,-3.06113 -8.10796,-2.27775 -2.96648,0.44485 -4.48772,1.16915 -4.48772,2.1367 0,0.82637 -1.30632,1.72499 -3,2.06373 -2.83499,0.567 -3,0.86489 -3,5.41598 0,2.64879 -0.45,5.0941 -1,5.43402 -0.55,0.33992 -1,1.63543 -1,2.87891 0,1.24348 -1.31817,3.73732 -2.92928,5.54187 -2.79888,3.13495 -3.08838,3.2285 -6.50346,2.10142 -1.9658,-0.64878 -5.03513,-0.89104 -6.82072,-0.53837 -3.93176,0.77656 -9.06123,2.65533 -9.74654,3.56986 -0.275,0.36699 -1.90229,1.38546 -3.6162,2.26327 -3.60026,1.84394 -7.31114,4.82464 -11.74385,9.43304 -2.63454,2.73896 -3.84659,3.25 -7.70806,3.25 -3.04966,0 -5.15032,0.58523 -6.28149,1.75 -3.68171,3.79104 -6.6504,9.47603 -6.6504,12.73539 0,1.86812 -0.41972,3.65598 -0.93272,3.97303 -0.513,0.31705 -1.45827,3.15611 -2.10061,6.30902 -0.64233,3.15291 -2.03065,6.67012 -3.08514,7.81603 -1.0545,1.14591 -2.42309,4.74591 -3.04133,8 -0.61823,3.25409 -1.74236,7.34965 -2.49806,9.10124 -1.3816,3.20231 -6.06233,6.31529 -9.49578,6.31529 -1.0155,0 -1.84636,0.60526 -1.84636,1.34501 0,0.73976 -0.87449,2.13642 -1.94332,3.10369 -1.06883,0.96728 -2.25234,3.17452 -2.63004,4.90499 -0.96468,4.41979 -6.14956,11.64631 -8.35599,11.64631 -2.39435,0 -6.81227,-5.84432 -7.23724,-9.57392 -0.19348,-1.69805 -0.92686,-2.92608 -1.74745,-2.92608 -1.74838,0 -4.90891,5.49741 -5.89832,10.2595 -0.9927,4.77791 -3.36033,6.21243 -6.94627,4.20868 -2.2701,-1.26849 -2.82732,-2.3859 -3.24137,-6.5 -0.43157,-4.28826 -0.77371,-4.92161 -2.5,-4.62793 -3.37503,0.57419 -5.38133,3.18538 -5.69777,7.41562 -0.6245,8.34878 -6.9333,7.65551 -7.80223,-0.85739 -0.44284,-4.3385 -0.78928,-4.93223 -3.0305,-5.19372 -2.25075,-0.2626 -2.67111,0.23053 -3.80256,4.46087 -0.69963,2.61586 -1.75351,5.33622 -2.34194,6.04524 -1.34312,1.61836 -4.05284,1.66129 -5.625,0.0891 z m 107.82484,-99.08125 c 1.0548,-1.73448 2.2081,-5.0893 2.56288,-7.45515 0.40534,-2.70299 1.47108,-4.95129 2.86779,-6.04995 1.22251,-0.96162 2.67096,-3.09058 3.21879,-4.73103 0.97591,-2.92232 1.11533,-2.97539 6.89552,-2.62497 3.24471,0.1967 6.79401,0.9842 7.88733,1.75 1.09332,0.76579 3.12523,1.38857 4.51536,1.38395 2.48961,-0.008 2.53193,-0.14088 2.82361,-8.84666 l 0.29613,-8.83825 -6.29613,1.59665 c -3.46286,0.87816 -6.83824,2.10664 -7.50083,2.72994 -0.6626,0.62331 -3.47271,1.94885 -6.24471,2.94565 -2.87062,1.03226 -5.28649,2.589 -5.61267,3.61671 -0.31498,0.9924 -1.14584,1.80436 -1.84637,1.80436 -0.70052,0 -2.49074,2.23614 -3.97826,4.96919 -1.48751,2.73306 -3.13403,5.23462 -3.65892,5.55902 -0.5249,0.3244 -0.95436,1.65096 -0.95436,2.9479 0,1.29694 -0.9,4.45769 -2,7.02389 -2.44231,5.69767 -2.46268,6.248 -0.25,6.75183 2.59067,0.5899 5.11652,-0.984 7.27484,-4.53308 z m 44.97516,-49.55208 c 0,-3.76928 -0.94939,-4.52244 -3.16885,-2.51386 -2.73453,2.47472 -2.37523,5.34719 0.66885,5.34719 2.07843,0 2.5,-0.47778 2.5,-2.83333 z m 43.88185,-1.16667 c 0.86838,-2.89837 1.73819,-4 3.15829,-4 1.31364,0 1.95986,-0.68076 1.95986,-2.06462 0,-2.66702 -3.97835,-11.93538 -5.12314,-11.93538 -0.48227,0 -0.87686,-0.73661 -0.87686,-1.63691 0,-1.42482 -0.87458,-1.54428 -6.75,-0.92199 -3.7125,0.39321 -7.875,0.80826 -9.25,0.92235 -3.56025,0.29539 -6.31051,2.03009 -12.07717,7.61756 -4.44467,4.30657 -4.92169,5.1526 -3.93973,6.98742 0.61449,1.14817 1.5325,1.83095 2.04002,1.51728 2.59338,-1.6028 8.23119,-1.35329 11.72422,0.51886 2.04767,1.09749 4.62971,2.00811 5.73785,2.0236 1.10815,0.0155 4.03981,1.10637 6.51481,2.42417 2.475,1.31781 4.76627,2.43013 5.09171,2.47183 0.32544,0.0417 1.13101,-1.72417 1.79014,-3.92417 z"
       id="path3126"
       inkscape:connector-curvature="0" />
  </g>
</svg>
