<?xml version="1.0" encoding="UTF-8" standalone="no"?>
<!-- Created with Inkscape (http://www.inkscape.org/) -->

<svg
   xmlns:dc="http://purl.org/dc/elements/1.1/"
   xmlns:cc="http://creativecommons.org/ns#"
   xmlns:rdf="http://www.w3.org/1999/02/22-rdf-syntax-ns#"
   xmlns:svg="http://www.w3.org/2000/svg"
   xmlns="http://www.w3.org/2000/svg"
   xmlns:sodipodi="http://sodipodi.sourceforge.net/DTD/sodipodi-0.dtd"
   xmlns:inkscape="http://www.inkscape.org/namespaces/inkscape"
   width="1062"
   height="1062"
   id="svg2"
   version="1.1"
   inkscape:version="0.48.2 r9819"
   sodipodi:docname="tornado-1.svg">
  <defs
     id="defs4" />
  <sodipodi:namedview
     id="base"
     pagecolor="#ffffff"
     bordercolor="#666666"
     borderopacity="1.0"
     inkscape:pageopacity="0.0"
     inkscape:pageshadow="2"
     inkscape:zoom="0.49497475"
     inkscape:cx="976.1414"
     inkscape:cy="488.46318"
     inkscape:document-units="px"
     inkscape:current-layer="layer1"
     showgrid="false"
     units="in"
     inkscape:window-width="1280"
     inkscape:window-height="977"
     inkscape:window-x="-4"
     inkscape:window-y="-4"
     inkscape:window-maximized="1" />
  <metadata
     id="metadata7">
    <rdf:RDF>
      <cc:Work
         rdf:about="">
        <dc:format>image/svg+xml</dc:format>
        <dc:type
           rdf:resource="http://purl.org/dc/dcmitype/StillImage" />
        <dc:title></dc:title>
      </cc:Work>
    </rdf:RDF>
  </metadata>
  <g
     inkscape:label="Layer 1"
     inkscape:groupmode="layer"
     id="layer1"
     transform="translate(0,9.64025)">
    <path
       style="fill:#000000"
       d="m 417.68227,882.93054 c -2.26492,-4.61348 -6.15464,-10.77408 -8.64382,-13.69023 -2.48918,-2.91614 -4.52578,-5.80283 -4.52578,-6.41485 0,-0.61202 -1.33046,-2.92191 -2.95659,-5.1331 -1.62612,-2.21118 -3.48744,-6.23733 -4.13627,-8.947 -2.85447,-11.92096 -5.20226,-17.95353 -8.47561,-21.77769 -1.88734,-2.20494 -3.43153,-4.31427 -3.43153,-4.6874 0,-0.37313 -2.5875,-2.41005 -5.75,-4.5265 l -5.75,-3.84807 -12.86669,-0.54351 -12.86668,-0.5435 -3.39249,-3.92723 c -1.86588,-2.15997 -3.884,-5.75254 -4.48473,-7.98348 -1.38731,-5.15205 -0.24783,-21.74271 1.66681,-24.26853 0.75909,-1.00142 1.39448,-2.1535 1.41198,-2.56017 0.0175,-0.40668 -2.27178,-3.28311 -5.08728,-6.39208 -8.2339,-9.09216 -9.2342,-12.25085 -9.56923,-30.21706 l -0.28621,-15.34855 -5.52645,-9.26136 c -4.5676,-7.6545 -5.89057,-10.97732 -7.62512,-19.15145 -3.47679,-16.38458 -0.81196,-26.76502 9.17645,-35.74546 2.78589,-2.50475 4.94964,-5.32065 4.94964,-6.44144 0,-1.22065 -3.08102,-4.7688 -7.96115,-9.16817 -10.60227,-9.55781 -13.53885,-15.31374 -13.53885,-26.53726 0,-6.59789 0.45492,-8.92146 2.59225,-13.24021 2.89986,-5.85955 3.10012,-5.11689 -3.85211,-14.28566 -1.79292,-2.36455 -3.90149,-6.36304 -4.68571,-8.88554 -0.78423,-2.52249 -2.57979,-6.80012 -3.99015,-9.50583 -1.41035,-2.70571 -2.56428,-5.51798 -2.56428,-6.24948 0,-0.7315 -1.23513,-3.54222 -2.74473,-6.24605 -1.93344,-3.46295 -3.84712,-5.40242 -6.4743,-6.56153 -8.91284,-3.93233 -13.7263,-14.69152 -15.22144,-34.02346 -0.53658,-6.93777 2.28629,-36.94465 4.42147,-47 1.97188,-9.28632 1.53204,-17.41698 -1.43602,-26.54557 -7.67285,-23.59869 -7.46599,-22.55921 -7.45346,-37.45443 0.006,-7.7 0.38684,-15.35 0.84526,-17 0.45842,-1.65 1.37918,-5.7 2.04613,-9 0.66696,-3.3 2.62791,-10.05 4.35767,-15 2.12373,-6.07743 3.03775,-10.3703 2.8147,-13.21981 -0.37167,-4.74823 1.20979,-10.47876 3.98353,-14.43456 2.41817,-3.44872 2.3524,-4.33507 -0.60994,-8.21889 -1.35912,-1.7819 -3.20724,-6.11314 -4.10693,-9.62498 -0.89969,-3.51184 -2.87023,-7.9864 -4.37897,-9.94346 -1.50874,-1.95707 -3.38692,-5.34542 -4.17373,-7.52967 -1.11014,-3.08183 -2.09567,-4.12303 -4.39991,-4.64848 -1.63313,-0.37241 -5.13074,-1.17746 -7.77246,-1.789 -4.39417,-1.01722 -5.07531,-0.91512 -8,1.19921 -1.75828,1.27111 -4.40409,2.91061 -5.87958,3.64334 -4.49027,2.22987 -8.48318,7.27689 -10.33729,13.0663 -0.96879,3.025 -2.53218,6.625 -3.47422,8 -0.94203,1.375 -2.00021,4.075 -2.35151,6 -0.3513,1.925 -1.10744,5.525 -1.68031,8 -0.57286,2.475 -1.5029,7.875 -2.06674,12 -0.56383,4.125 -1.51183,9.72187 -2.10665,12.43749 -1.19795,5.46915 -1.37962,24.11347 -0.27035,27.74463 1.97556,6.4669 5.42179,12.0754 12.10315,19.69707 4.05165,4.62186 7.36663,8.92737 7.36663,9.56781 0,0.64044 1.09872,2.65367 2.44159,4.47383 1.34287,1.82016 4.5912,7.64509 7.2185,12.94428 4.50241,9.08122 4.79155,10.14896 5.03149,18.58059 0.24238,8.51705 -0.11339,12.66159 -2.66575,31.0543 -1.23815,8.92233 -5.39838,22.67306 -8.01747,26.5 -0.94103,1.375 -2.53338,4.75 -3.53855,7.5 -1.00518,2.75 -2.64709,6.19447 -3.6487,7.65437 -1.00161,1.4599 -1.82111,3.58713 -1.82111,4.72717 0,1.14004 -1.125,5.06165 -2.5,8.71469 -1.375,3.65304 -2.5,7.65674 -2.5,8.8971 0,1.24037 -0.70638,4.22429 -1.56974,6.63094 -0.86335,2.40665 -1.9229,7.75073 -2.35455,11.87573 -0.43166,4.125 -1.75028,9.61281 -2.93027,12.19514 -1.17999,2.58232 -2.14544,5.68011 -2.14544,6.88398 0,1.20386 -0.42344,3.81605 -0.94097,5.80486 -0.51754,1.98881 -1.50709,5.8645 -2.19902,8.61265 -2.23826,8.88985 -12.09231,16.50337 -21.36001,16.50337 -12.53475,0 -24.08245,-12.90417 -22.152,-24.75412 0.33563,-2.06024 1.07079,-5.77088 1.6337,-8.24588 0.56291,-2.475 1.45325,-6.89037 1.97854,-9.81193 0.52529,-2.92156 1.64912,-6.7032 2.49741,-8.40364 0.84829,-1.70044 1.5491,-4.93507 1.55736,-7.18807 0.008,-2.253 1.13319,-7.69636 2.49986,-12.09636 1.36667,-4.4 2.48492,-8.98676 2.48499,-10.19279 8e-5,-1.20603 1.06665,-5.25603 2.37017,-9 1.30351,-3.74397 2.89418,-9.00975 3.53481,-11.70173 0.64064,-2.69199 1.98221,-6.06699 2.98128,-7.5 0.99906,-1.43302 2.6389,-4.85548 3.64407,-7.60548 1.00518,-2.75 2.55653,-6.125 3.44746,-7.5 2.78607,-4.29986 4.02235,-7.95668 4.02235,-11.89783 0,-2.09205 0.45282,-5.10837 1.00627,-6.70295 0.55345,-1.59457 1.35173,-6.27422 1.77396,-10.39922 0.75039,-7.331 0.68391,-7.66932 -2.95044,-15.01442 -2.2205,-4.48767 -6.91885,-11.20304 -11.66447,-16.67207 -6.53687,-7.53331 -13.16532,-18.00891 -13.16532,-20.80645 0,-0.33923 -0.93045,-2.65926 -2.06768,-5.15561 -3.29789,-7.23933 -4.3031,-14.74631 -4.26501,-31.85145 0.0374,-16.79658 1.85076,-32.43871 5.33269,-46 0.42364,-1.65 1.32364,-5.7 2,-9 1.79491,-8.75752 3.06181,-12.68642 4.99809,-15.5 0.94626,-1.375 2.52212,-4.975 3.50191,-8 0.97979,-3.025 2.52182,-6.625 3.42675,-8 0.90493,-1.375 2.30411,-3.80805 3.10929,-5.40678 1.86516,-3.70339 15.75517,-16.37503 21.26379,-19.39863 4.1742,-2.29116 7.22914,-5.24516 13.45017,-13.00577 2.77897,-3.46671 3.25,-4.84935 3.25,-9.53991 0,-5.03399 -0.36167,-5.90931 -4.39309,-10.63224 -2.4162,-2.83065 -5.44743,-7.36739 -6.73608,-10.08165 -1.31371,-2.76706 -3.02045,-4.93502 -3.88512,-4.93502 -0.84817,0 -4.79303,-1.55795 -8.76634,-3.46211 -3.97331,-1.90415 -9.13308,-3.97611 -11.46616,-4.60434 -2.33308,-0.62824 -6.0431,-2.06112 -8.2445,-3.18419 -2.20139,-1.12306 -6.59604,-2.64696 -9.76589,-3.38644 -3.16984,-0.73947 -8.35759,-2.65406 -11.52832,-4.25464 -3.17073,-1.60058 -7.77861,-3.4519 -10.23973,-4.11404 -2.46112,-0.66214 -5.7385,-1.85684 -7.28305,-2.65488 -3.35189,-1.73187 -15.26966,-4.81209 -22.03234,-5.6944 -2.66234,-0.34735 -6.82484,-1.50926 -9.25,-2.58202 l -4.40938,-1.95048 -86.873119,-38.25165 -8.740944,-17.09597 -5.522478,-25.170493 3.4407,-17.490751 14.21877,-21.411341 24.970148,-16.524516 58.506923,-1.167739 425,0 425.00001,0 30.05456,6.475102 15.40226,10.575853 8.8801,17.002889 3.837,27.626626 0.8117,29.12025 -8.0717,20.41802 -23.6398,11.36248 c -16.08453,7.73102 -27.60975,4.78753 -29.55182,17.93866 -4.91111,33.2565 2.03414,88.48012 1.8757,88.48012 -0.2211,0 -2.0909,-5.2875 -4.1552,-11.75 -2.0643,-6.4625 -4.4104,-13.1 -5.2136,-14.75 -1.663,-3.41641 -26.03496,-27.69945 -34.01912,-33.89508 -10.76603,-8.35433 -14.21975,-10.40469 -19.40342,-11.51916 -2.91867,-0.6275 -8.45667,-1.84747 -12.30667,-2.71106 -6.28929,-1.41073 -8.94943,-1.4223 -26.20066,-0.11391 -16.78134,1.27274 -19.86839,1.77845 -24.5,4.01347 -9.569,4.61761 -12.33577,5.45851 -18.13111,5.51058 -3.79528,0.0341 -6.83493,0.70598 -9.01603,1.99286 -1.80974,1.06778 -5.73434,2.74876 -8.72132,3.73552 -2.98698,0.98676 -6.78087,2.79427 -8.43087,4.01668 -1.65,1.22241 -4.8,2.79345 -7,3.4912 -2.2,0.69775 -5.25753,2.31625 -6.79451,3.59666 -1.53699,1.28042 -4.68699,3.24213 -7,4.35937 -2.31302,1.11723 -7.35549,4.48836 -11.20549,7.49139 -3.85,3.00304 -8.24828,5.73926 -9.77395,6.08049 -1.52568,0.34123 -4.00068,1.65217 -5.5,2.91319 -2.88013,2.42235 -7.20061,5.00285 -16.22605,9.69136 -3.025,1.57141 -6.50035,4.31722 -7.72299,6.10178 -1.22265,1.78456 -5.08041,6.72525 -8.5728,10.97931 -3.4924,4.25405 -6.97959,8.97905 -7.74931,10.5 -2.97116,5.87094 -10.77231,16.07535 -18.01337,23.56267 -5.13414,5.30874 -7.98515,9.16057 -8.88876,12.0091 -0.73166,2.30647 -1.52711,10.39516 -1.76766,17.97486 l -0.43737,13.78128 3.07827,3.50595 c 1.69304,1.92827 3.69044,4.95169 4.43866,6.71872 0.74823,1.76702 3.44727,5.97453 5.99787,9.35001 2.5506,3.37548 4.63746,6.60351 4.63746,7.1734 0,0.56989 1.65993,3.20814 3.68873,5.86276 8.0632,10.55047 11.07597,18.78757 13.28668,36.3266 0.51994,4.125 1.41317,9.4125 1.98497,11.75 2.25589,9.22215 2.95739,12.98737 3.49329,18.75 0.50787,5.46112 -1.14761,24.68817 -3.3149,38.5 -0.47467,3.025 -0.64943,6.06902 -0.38836,6.76448 0.26108,0.69547 -0.0671,6.51906 -0.7292,12.94132 -1.36198,13.21029 -1.64314,37.60311 -0.5797,50.2942 0.39173,4.675 1.68269,11.58861 2.86878,15.36357 2.00432,6.37912 2.93752,7.65697 13.22108,18.10396 11.22852,11.40697 13.46863,15.07142 13.46863,22.03247 0,11.48081 -11.01919,22.5 -22.5,22.5 -8.55823,0 -17.36672,-6.46493 -32.31223,-23.71533 -5.97256,-6.89365 -9.26401,-11.60855 -10.12237,-14.5 -0.69957,-2.35657 -1.6154,-4.73467 -2.03517,-5.28467 -0.41978,-0.55 -1.91064,-4.6 -3.31303,-9 -4.30707,-13.51348 -6.04567,-49.70487 -3.5789,-74.5 0.57453,-5.775 1.02068,-13.77852 0.99144,-17.7856 -0.0292,-4.00708 0.33393,-8.30374 0.80705,-9.54814 0.47311,-1.24439 1.39959,-8.09087 2.05884,-15.21439 1.2042,-13.01214 1.02772,-15.42432 -2.11816,-28.95187 -0.51161,-2.2 -1.36616,-7.6 -1.89898,-12 -1.36419,-11.26528 -1.49912,-11.66218 -5.99596,-17.6373 -2.21976,-2.94949 -4.94643,-7.23879 -6.05927,-9.53178 -2.63005,-5.41923 -3.41467,-5.97138 -9.68315,-6.81415 l -5.25988,-0.70717 -5.39817,5.8452 c -2.96899,3.21486 -7.08333,8.29685 -9.14298,11.29332 -3.63403,5.28695 -3.75023,5.73068 -3.92822,15 -0.21271,11.07741 -1.87567,25.30902 -3.43153,29.36698 -0.59363,1.5483 -1.07933,4.27913 -1.07933,6.0685 0,1.78937 -0.67791,5.53618 -1.50647,8.32624 -0.82856,2.79007 -2.19812,13.55925 -3.04345,23.93151 -0.84534,10.37226 -1.9214,22.00865 -2.39123,25.85865 -2.95422,24.20775 -3.1435,26.40166 -4.27062,49.5 -0.40979,8.39785 0.10885,15.37379 2.23038,30 0.59833,4.125 1.44903,11.79546 1.89044,17.04547 0.59965,7.13215 1.72391,12.00495 4.44676,19.27348 2.0043,5.3504 3.64425,10.50493 3.64433,11.45452 7e-5,0.94959 1.13919,5.32653 2.53137,9.72653 2.20984,6.9842 2.58823,10.28554 2.98004,26 0.24684,9.9 0.95513,23.02459 1.57398,29.16576 0.86742,8.60787 0.84691,12.00892 -0.0895,14.84633 -1.35355,4.10128 -1.68718,29.63491 -0.53683,41.08455 0.97225,9.67699 -0.6105,14.60458 -6.63388,20.65336 -2.60154,2.6125 -5.39993,4.75 -6.21866,4.75 -2.36389,0 -2.81653,1.57865 -3.61427,12.6053 -0.5932,8.19943 -1.31238,11.52847 -3.42207,15.84052 -3.42854,7.00768 -11.06855,13.89473 -18.40174,16.58814 -3.11771,1.1451 -7.12773,3.39659 -8.91114,5.00329 -3.0291,2.72896 -3.28529,3.47702 -3.89144,11.36286 l -0.64888,8.44157 5.64145,6.79658 c 3.10279,3.73812 5.64144,7.31325 5.64144,7.94473 0,0.63148 4.1625,5.14614 9.25,10.03258 l 5.67857,10.313 -2.32716,6.48764 -8.53127,3.59712 -12.92728,0.89851 -14.06892,-1.98854 -10.07676,-3.99524 -7.49718,-5.8901 -4.18494,-4.76898 c -2.30172,-2.62294 -4.77105,-5.89398 -5.48741,-7.26898 -0.71636,-1.375 -2.47725,-4.075 -3.9131,-6 -1.43584,-1.925 -3.57992,-6.12993 -4.76462,-9.34429 -1.9793,-5.37032 -3.0236,-7.11907 -7.94285,-13.30094 -1.90164,-2.38972 -8.81005,-3.84863 -11.19845,-2.36487 -1.70383,1.05847 -2.07478,11.17232 -0.98277,26.79476 0.61476,8.79483 2.25345,8.9095 1.86488,13.46429 l -0.65892,4.41385 -1.04738,2.01323 -2.6459,2.75254 c -11.13042,11.57902 -23.47928,-6.50587 -24.98188,-8.65108 -0.8562,-1.22237 -1.55672,-3.80118 -1.55672,-5.73067 0,-3.59001 -2.69117,-11.64862 -6.09288,-18.24494 -1.26212,-2.44738 -1.90712,-5.75632 -1.90712,-9.78372 0,-5.9684 -0.0721,-6.1283 -3.74192,-8.30189 -4.99058,-2.95583 -9.99733,-4.84922 -14.25808,-5.39192 -2.97828,-0.37935 -3.66724,-0.0748 -4.62196,2.04297 -0.61707,1.36882 -0.76709,2.85865 -0.33338,3.31072 0.85972,0.89612 4.17912,6.91471 9.82924,17.82196 2.98995,5.77195 3.62548,8.05262 3.62256,13 -0.002,3.83324 -0.67538,7.35422 -1.86394,9.75 l -3.28897,5.53571 -7.75426,4.94444 -10.48798,0.41271 -9.24555,-1.0706 -7.56811,-6.07226 z"
       id="path2996"
       inkscape:connector-curvature="0"
       sodipodi:nodetypes="sssssssscccsssssscsssssssssssssssscssssssssssssssssssssssssssssssssssssssssssscssssssssssssssssssssssssssssssssssssccccccccccccccccsssscsssssssssssssssssssssscssssssssssssssssssssssssssssscsssssssssssscsssssssssssscssscccccccssssssssccsssssssssscscccccs" />
  </g>
</svg>
