  0
SECTION
  2
ENTITIES
  0
POLYLINE
  8
0
66
1
70
1
  0
VERTEX
  8
0
  10
  2.948980
  20
  7.807149
  30
  0.0
  42
  0.000000
  0
VERTEX
  8
0
  10
  2.948980
  20
  7.649899
  30
  0.0
  42
  0.000000
  0
VERTEX
  8
0
  10
  3.579006
  20
  7.649899
  30
  0.0
  42
  0.000000
  0
VERTEX
  8
0
  10
  3.579006
  20
  7.492265
  30
  0.0
  42
  0.000000
  0
VERTEX
  8
0
  10
  2.948980
  20
  7.492265
  30
  0.0
  42
  0.000000
  0
VERTEX
  8
0
  10
  2.948980
  20
  7.335015
  30
  0.0
  42
  0.000000
  0
VERTEX
  8
0
  10
  3.579006
  20
  7.335015
  30
  0.0
  42
  0.000000
  0
VERTEX
  8
0
  10
  3.579006
  20
  7.177381
  30
  0.0
  42
  0.000000
  0
VERTEX
  8
0
  10
  2.948980
  20
  7.177381
  30
  0.0
  42
  0.000000
  0
VERTEX
  8
0
  10
  2.948980
  20
  7.019747
  30
  0.0
  42
  0.000000
  0
VERTEX
  8
0
  10
  3.736508
  20
  7.019747
  30
  0.0
  42
  0.000000
  0
VERTEX
  8
0
  10
  3.736508
  20
  7.807149
  30
  0.0
  42
  0.000000
  0
SEQEND
  8
0
  0
POLYLINE
  8
0
66
1
70
1
  0
VERTEX
  8
0
  10
  2.633970
  20
  7.649773
  30
  0.0
  42
  0.000000
  0
VERTEX
  8
0
  10
  2.633970
  20
  7.807149
  30
  0.0
  42
  0.000000
  0
VERTEX
  8
0
  10
  2.161453
  20
  7.807149
  30
  0.0
  42
  0.000000
  0
VERTEX
  8
0
  10
  2.161453
  20
  7.649773
  30
  0.0
  42
  0.000000
  0
SEQEND
  8
0
  0
POLYLINE
  8
0
66
1
70
1
  0
VERTEX
  8
0
  10
  2.161453
  20
  7.649773
  30
  0.0
  42
  0.000000
  0
VERTEX
  8
0
  10
  2.003945
  20
  7.649773
  30
  0.0
  42
  0.000000
  0
VERTEX
  8
0
  10
  2.003945
  20
  7.177255
  30
  0.0
  42
  0.000000
  0
VERTEX
  8
0
  10
  2.161453
  20
  7.177255
  30
  0.0
  42
  0.000000
  0
SEQEND
  8
0
  0
POLYLINE
  8
0
66
1
70
1
  0
VERTEX
  8
0
  10
  2.791472
  20
  7.649773
  30
  0.0
  42
  0.000000
  0
VERTEX
  8
0
  10
  2.633970
  20
  7.649773
  30
  0.0
  42
  0.000000
  0
VERTEX
  8
0
  10
  2.633970
  20
  7.177255
  30
  0.0
  42
  0.000000
  0
VERTEX
  8
0
  10
  2.791472
  20
  7.177255
  30
  0.0
  42
  0.000000
  0
SEQEND
  8
0
  0
POLYLINE
  8
0
66
1
70
1
  0
VERTEX
  8
0
  10
  2.161453
  20
  7.177255
  30
  0.0
  42
  0.000000
  0
VERTEX
  8
0
  10
  2.161453
  20
  7.019747
  30
  0.0
  42
  0.000000
  0
VERTEX
  8
0
  10
  2.633970
  20
  7.019747
  30
  0.0
  42
  0.000000
  0
VERTEX
  8
0
  10
  2.633970
  20
  7.177255
  30
  0.0
  42
  0.000000
  0
SEQEND
  8
0
  0
POLYLINE
  8
0
66
1
70
1
  0
VERTEX
  8
0
  10
  1.689187
  20
  7.177255
  30
  0.0
  42
  0.000000
  0
VERTEX
  8
0
  10
  1.689187
  20
  7.807149
  30
  0.0
  42
  0.000000
  0
VERTEX
  8
0
  10
  1.374177
  20
  7.807149
  30
  0.0
  42
  0.000000
  0
VERTEX
  8
0
  10
  1.374177
  20
  7.649773
  30
  0.0
  42
  0.000000
  0
VERTEX
  8
0
  10
  1.531685
  20
  7.649773
  30
  0.0
  42
  0.000000
  0
VERTEX
  8
0
  10
  1.531685
  20
  7.177255
  30
  0.0
  42
  0.000000
  0
VERTEX
  8
0
  10
  1.374177
  20
  7.177255
  30
  0.0
  42
  0.000000
  0
VERTEX
  8
0
  10
  1.374177
  20
  7.019747
  30
  0.0
  42
  0.000000
  0
VERTEX
  8
0
  10
  1.846695
  20
  7.019747
  30
  0.0
  42
  0.000000
  0
VERTEX
  8
0
  10
  1.846695
  20
  7.177255
  30
  0.0
  42
  0.000000
  0
SEQEND
  8
0
  0
ENDSEC
  0
EOF
