<?xml version="1.0" encoding="UTF-8" standalone="no"?>
<!-- Created with Inkscape (http://www.inkscape.org/) -->

<svg
   xmlns:dc="http://purl.org/dc/elements/1.1/"
   xmlns:cc="http://creativecommons.org/ns#"
   xmlns:rdf="http://www.w3.org/1999/02/22-rdf-syntax-ns#"
   xmlns:svg="http://www.w3.org/2000/svg"
   xmlns="http://www.w3.org/2000/svg"
   xmlns:sodipodi="http://sodipodi.sourceforge.net/DTD/sodipodi-0.dtd"
   xmlns:inkscape="http://www.inkscape.org/namespaces/inkscape"
   width="720"
   height="720"
   id="svg2"
   version="1.1"
   inkscape:version="0.47 r22583"
   sodipodi:docname="New document 1">
  <defs
     id="defs4">
    <inkscape:perspective
       sodipodi:type="inkscape:persp3d"
       inkscape:vp_x="0 : 526.18109 : 1"
       inkscape:vp_y="0 : 1000 : 0"
       inkscape:vp_z="744.09448 : 526.18109 : 1"
       inkscape:persp3d-origin="372.04724 : 350.78739 : 1"
       id="perspective10" />
  </defs>
  <sodipodi:namedview
     id="base"
     pagecolor="#ffffff"
     bordercolor="#666666"
     borderopacity="1.0"
     inkscape:pageopacity="0.0"
     inkscape:pageshadow="2"
     inkscape:zoom="0.98994949"
     inkscape:cx="475.68601"
     inkscape:cy="422.34653"
     inkscape:document-units="in"
     inkscape:current-layer="layer1"
     showgrid="false"
     units="in"
     inkscape:window-width="1280"
     inkscape:window-height="977"
     inkscape:window-x="-4"
     inkscape:window-y="-4"
     inkscape:window-maximized="1" />
  <metadata
     id="metadata7">
    <rdf:RDF>
      <cc:Work
         rdf:about="">
        <dc:format>image/svg+xml</dc:format>
        <dc:type
           rdf:resource="http://purl.org/dc/dcmitype/StillImage" />
        <dc:title></dc:title>
      </cc:Work>
    </rdf:RDF>
  </metadata>
  <g
     inkscape:label="Layer 1"
     inkscape:groupmode="layer"
     id="layer1"
     transform="translate(0,-332.35975)">
    <path
       style="fill:none;stroke:#000000;stroke-width:1px;stroke-linecap:butt;stroke-linejoin:miter;stroke-opacity:1"
       d="m 297.995,106.8374 c -4.26477,4.26725 -7.2392,9.56558 -11.11168,14.14214 -1.53795,1.81759 -3.589,3.17135 -5.05076,5.05076 -0.9245,1.18865 -1.14505,2.81526 -2.0203,4.04061 -4.20897,5.89256 -1.68359,0.5612 -5.05077,5.05077 -0.45175,0.60233 -0.5398,1.43237 -1.01015,2.0203 -0.89242,1.11553 -2.02031,2.02031 -3.03046,3.03046 -1.68359,1.68359 -3.28101,3.45799 -5.05076,5.05076 -18.74114,16.86703 7.86891,-7.63202 -10.10153,7.07107 -2.2113,1.80925 -3.92546,4.16273 -6.06091,6.06091 -0.9074,0.80658 -2.10868,1.23022 -3.03046,2.02031 -2.1693,1.8594 -3.866,4.23182 -6.06091,6.06092 -1.29337,1.0778 -2.76234,1.93479 -4.04061,3.03045 -4.12479,3.53554 -2.35703,3.1427 -7.07107,7.07107 -0.57841,0.48201 -1.43237,0.53981 -2.02031,1.01015 -1.48737,1.1899 -2.69374,2.69374 -4.04061,4.04061 -7.51967,7.51968 2,-1.71428 -7.07107,6.06092 -2.32339,1.99148 -4.8513,4.8513 -7.07106,7.07107 -0.67344,0.67343 -1.34687,1.34687 -2.02031,2.0203 -0.67343,1.01015 -1.16184,2.17199 -2.0203,3.03046 -0.2381,0.23809 -0.77206,-0.2381 -1.01016,0 -0.23809,0.23809 -0.31263,1.13521 0,1.01015 1.82296,-0.72918 3.18814,-2.40958 5.05077,-3.03046 5.09119,-1.69706 20.12559,-3.278 24.24366,-4.04061 4.41727,-0.81801 8.70073,-2.29191 13.13198,-3.03045 3.66856,-0.61143 7.41526,-0.59944 11.11168,-1.01016 2.36639,-0.26293 4.69834,-0.81242 7.07107,-1.01015 1.67777,-0.13981 3.36717,0 5.05076,0 1.68359,0 3.36717,0 5.05076,0 9.42809,0 18.85618,0 28.28427,0 4.04061,0 8.09782,0.36582 12.12183,0 3.41976,-0.31089 6.71992,-1.42355 10.10153,-2.0203 14.69889,-2.59393 -0.0852,0.0913 13.13198,-1.01016 13.45038,-1.12086 1.80152,-1.01015 8.08122,-1.01015 7.07107,0 14.14214,0 21.21321,0 2.00665,0 4.05426,0 6.06091,0 0.67344,0 1.38143,0.21296 2.02031,0 0.45175,-0.15058 0.5584,-0.85957 1.01015,-1.01015 0.95831,-0.31944 2.0203,0 3.03046,0 2.0203,0 4.04061,0 6.06091,0 0.67344,0 1.38143,0.21296 2.02031,0 0.45175,-0.15059 0.54818,-0.89466 1.01015,-1.01015 0.97999,-0.245 2.02031,0 3.03046,0 2.69374,0 5.38748,0 8.08122,0 2.35702,0 4.71404,0 7.07107,0 0.33671,0 0.77205,0.23809 1.01015,0 0.5324,-0.5324 0.82754,-1.28987 1.01015,-2.02031 0.16333,-0.65333 0.47619,-1.54411 0,-2.0203 -0.75292,-0.75293 -2.10596,-0.48187 -3.03046,-1.01016 -11.01249,-6.29285 4.39464,0.28116 -10.10152,-6.06091 -3.3225,-1.4536 -6.93135,-2.2794 -10.10153,-4.04061 -2.94344,-1.63525 -5.25424,-4.2317 -8.08122,-6.06092 -20.13344,-13.02752 1.42191,2.68219 -17.17259,-10.10152 -9.59542,-6.59686 -5.58677,-4.44262 -13.13198,-10.10153 -0.97125,-0.72843 -2.08245,-1.26189 -3.03046,-2.0203 -0.74369,-0.59495 -1.34687,-1.34687 -2.02031,-2.02031 -0.67343,-0.67343 -1.34687,-1.34687 -2.0203,-2.0203 -0.33672,-0.33672 -0.74601,-0.61394 -1.01015,-1.01016 -2.87215,-4.30821 1.33874,0.3286 -3.03046,-4.04061 -1.01015,-1.01015 -2.1534,-1.90281 -3.03046,-3.03045 -3.68763,-4.74125 -3.89917,-6.92963 -8.08122,-11.11168 -1.52455,-1.52456 -3.42817,-2.62085 -5.05076,-4.04061 -2.15022,-1.88144 -3.866,-4.23182 -6.06092,-6.06092 -0.93266,-0.77721 -2.05921,-1.29187 -3.03046,-2.0203 -0.38095,-0.28572 -0.58423,-0.7972 -1.01015,-1.01016 -0.95238,-0.47619 -2.0203,-0.67343 -3.03046,-1.01015 -1.68358,-1.01015 -3.36717,-2.020303 -9.09137,5.05076 z"
       id="path2820"
       transform="translate(0,332.35975)" />
  </g>
</svg>
