<?xml version="1.0" encoding="UTF-8" standalone="no"?>
<!-- Created with Inkscape (http://www.inkscape.org/) -->

<svg
   xmlns:dc="http://purl.org/dc/elements/1.1/"
   xmlns:cc="http://creativecommons.org/ns#"
   xmlns:rdf="http://www.w3.org/1999/02/22-rdf-syntax-ns#"
   xmlns:svg="http://www.w3.org/2000/svg"
   xmlns="http://www.w3.org/2000/svg"
   xmlns:sodipodi="http://sodipodi.sourceforge.net/DTD/sodipodi-0.dtd"
   xmlns:inkscape="http://www.inkscape.org/namespaces/inkscape"
   width="315"
   height="180"
   id="svg2"
   version="1.1"
   inkscape:version="0.48.4 r9939"
   sodipodi:docname="New document 1">
  <defs
     id="defs4" />
  <sodipodi:namedview
     id="base"
     pagecolor="#ffffff"
     bordercolor="#666666"
     borderopacity="1.0"
     inkscape:pageopacity="0.0"
     inkscape:pageshadow="2"
     inkscape:zoom="1.979899"
     inkscape:cx="223.61676"
     inkscape:cy="132.84355"
     inkscape:document-units="px"
     inkscape:current-layer="layer1"
     showgrid="false"
     units="in"
     inkscape:object-paths="false"
     inkscape:snap-nodes="false"
     inkscape:window-width="1280"
     inkscape:window-height="977"
     inkscape:window-x="-4"
     inkscape:window-y="-4"
     inkscape:window-maximized="1" />
  <metadata
     id="metadata7">
    <rdf:RDF>
      <cc:Work
         rdf:about="">
        <dc:format>image/svg+xml</dc:format>
        <dc:type
           rdf:resource="http://purl.org/dc/dcmitype/StillImage" />
        <dc:title></dc:title>
      </cc:Work>
    </rdf:RDF>
  </metadata>
  <g
     inkscape:label="Layer 1"
     inkscape:groupmode="layer"
     id="layer1"
     transform="translate(0,-872.35)">
    <text
       xml:space="preserve"
       style="font-size:144px;font-style:normal;font-weight:normal;line-height:125%;letter-spacing:0px;word-spacing:0px;fill:#000000;fill-opacity:1;stroke:none;font-family:MouseLEDU;-inkscape-font-specification:MouseLEDU"
       x="13.131983"
       y="1022.0454"
       id="text2985"
       sodipodi:linespacing="125%"><tspan
         sodipodi:role="line"
         id="tspan2987"
         x="13.131983"
         y="1022.0454" /></text>
    <g
       style="font-size:144px;font-style:normal;font-weight:normal;line-height:125%;letter-spacing:0px;word-spacing:0px;fill:#000000;fill-opacity:1;stroke:none;font-family:MouseLEDU;-inkscape-font-specification:MouseLEDU"
       id="text2989">
      <path
         d="m 65.665102,1014.0962 -12.62146,11.1638 -9.700653,-11.1638 5.305481,-37.14958 12.627045,-11.16384 9.700653,11.16384 z m 8.78476,-62.03507 -12.805756,11.15826 -9.516358,-11.15826 5.121186,-37.14954 12.81134,-11.16385 9.516358,11.16385 z"
         style="font-size:183px"
         id="path2994" />
      <path
         d="m 108.84055,952.06113 -12.811343,11.15826 -9.516357,-11.15826 5.12677,-37.14954 12.81134,-11.16385 9.51636,11.16385 z m -8.78476,62.03507 -12.627047,11.1638 -9.695068,-11.1638 5.305481,-37.14958 12.627045,-11.16384 9.700649,11.16384 z m 50.32947,12.4427 -12.62705,11.1639 -39.71292,0 -9.516357,-11.1639 12.627047,-11.1638 39.71292,0 z m 14.26895,-12.4427 -12.62705,11.1638 -9.69507,-11.1638 5.30549,-37.14958 12.62704,-11.16384 9.70065,11.16384 z m 8.78476,-62.03507 -12.80576,11.15826 -9.51636,-11.15826 5.12119,-37.14954 12.81134,-11.16385 9.51636,11.16385 z m -5.48978,-49.59787 -12.81134,11.16385 -39.52304,0 -9.70065,-11.16385 12.81134,-11.15827 39.52862,0 z"
         style="font-size:183px"
         id="path2996" />
      <path
         d="m 268.07199,952.06113 -12.62704,11.15826 -9.70065,-11.15826 5.31106,-37.14954 12.62146,-11.16385 9.51636,11.16385 z m -5.48977,-49.59787 -12.81134,11.16385 -44.83411,0 -9.51636,-11.16385 12.62705,-11.15827 45.0184,0 z m -8.78476,62.04062 -12.62705,11.16384 -34.58615,0 -9.51636,-11.16384 12.62705,-11.16385 34.58615,0 z m 5.48977,49.59232 -12.62704,11.1638 -9.51636,-11.1638 5.12677,-37.14958 12.80576,-11.16384 9.51635,11.16384 z m -14.09024,12.4427 -12.81134,11.1639 -44.8341,0 -9.70066,-11.1639 12.81134,-11.1638 44.83411,0 z"
         style="font-size:183px"
         id="path2998" />
    </g>
  </g>
</svg>
