<?xml version="1.0" encoding="UTF-8"?>
<!DOCTYPE svg PUBLIC "-//W3C//DTD SVG 1.1//EN" "http://www.w3.org/Graphics/SVG/1.1/DTD/svg11.dtd">
<svg width="285.63mm" height="169.393mm" viewBox="0 0 285.63 169.393" shape-rendering="geometricPrecision" text-rendering="geometricPrecision" image-rendering="optimizeQuality" fill-rule="evenodd" clip-rule="evenodd" xmlns="http://www.w3.org/2000/svg" xmlns:xlink="http://www.w3.org/1999/xlink" xml:space="preserve">
<g id="Layer_x0020_1">
<path fill="#000000" d="M32.5877 98.9383l-11.0878 -12.76 -14.4322 12.7599 -6.0677 42.4639 11.0878 12.7635 14.4356 -12.7635 6.0678 -42.4674 -0.0035 0.0036zm252.042 -70.0585l0 -0.9686 -10.7526 -12.6519 -14.4214 12.7388 -6.1278 42.4462 11.0562 12.8058 14.3934 -12.6612 5.8522 -41.7091zm-242.214 -0.8605l-10.8797 -12.76 -14.6438 12.7599 -5.8561 42.4674 10.8797 12.7599 14.6438 -12.76 5.8561 -42.4672zm49.5899 -0.0493l-10.862 -12.7071 -14.6191 12.7599 -5.789 42.5485 10.8656 12.6823 14.6226 -12.7917 5.7785 -42.4921 0.0034 0.0002zm-9.7754 70.986l-11.0631 -12.7777 -14.4004 12.6964 -6.1418 42.5274 11.0631 12.7635 14.4004 -12.7141 6.1384 -42.4992 0.0034 0.0037zm40.5692 43.8608l-45.3952 0 -14.4321 12.7882 10.8797 12.7882 45.3953 0 14.4321 -12.7882 -10.8798 -12.7882zm33.1647 -43.9878l-11.0736 -12.6507 -14.418 12.8199 -5.9513 42.4568 11.0702 12.7106 14.4074 -12.767 5.9656 -42.5733 -0.0003 0.0037zm9.9307 -70.785l-10.8549 -12.7811 -14.6085 12.707 -5.9584 42.478 10.848 12.8058 14.6015 -12.6647 5.969 -42.5415 0.0033 -0.0035zm-23.2199 -27.0439l-45.1871 0 -14.6438 12.7881 11.0879 12.7881 45.1871 0 14.6439 -12.7882 -11.088 -12.788zm119.056 0l-51.4632 0 -14.4321 12.7881 10.8798 12.7881 51.2551 0 14.6439 -12.7882 -10.8796 -12.7882 -0.0039 0.0002zm-10.04 70.9084l-39.5392 0 -14.4321 12.7881 10.8797 12.7882 39.5394 0 14.4322 -12.7882 -10.88 -12.7881zm23.1245 26.9169l-10.8654 -12.6471 -14.626 12.8199 -5.775 42.4285 10.8728 12.7424 14.4252 -12.7671 5.9657 -42.5767 0.0027 0.0001zm-33.1682 43.9914l-51.2515 0 -14.6438 12.7882 11.0879 12.7882 51.2516 0 14.6439 -12.7882 -11.0881 -12.7882z"/>
</g>
</svg>
