<?xml version="1.0" encoding="UTF-8" standalone="no"?>
<!-- Created with Inkscape (http://www.inkscape.org/) -->

<svg
   xmlns:dc="http://purl.org/dc/elements/1.1/"
   xmlns:cc="http://creativecommons.org/ns#"
   xmlns:rdf="http://www.w3.org/1999/02/22-rdf-syntax-ns#"
   xmlns:svg="http://www.w3.org/2000/svg"
   xmlns="http://www.w3.org/2000/svg"
   xmlns:sodipodi="http://sodipodi.sourceforge.net/DTD/sodipodi-0.dtd"
   xmlns:inkscape="http://www.inkscape.org/namespaces/inkscape"
   width="900"
   height="750"
   id="svg2"
   version="1.1"
   inkscape:version="0.48.1 "
   sodipodi:docname="6.eps">
  <defs
     id="defs4" />
  <sodipodi:namedview
     id="base"
     pagecolor="#ffffff"
     bordercolor="#666666"
     borderopacity="1.0"
     inkscape:pageopacity="0.0"
     inkscape:pageshadow="2"
     inkscape:zoom="0.25"
     inkscape:cx="384.85598"
     inkscape:cy="-199.57692"
     inkscape:document-units="px"
     inkscape:current-layer="layer1"
     showgrid="false"
     inkscape:window-width="1280"
     inkscape:window-height="977"
     inkscape:window-x="-4"
     inkscape:window-y="-4"
     inkscape:window-maximized="1"
     units="px"
     showborder="true"
     inkscape:snap-center="true"
     inkscape:showpageshadow="true"
     width="744px" />
  <metadata
     id="metadata7">
    <rdf:RDF>
      <cc:Work
         rdf:about="">
        <dc:format>image/svg+xml</dc:format>
        <dc:type
           rdf:resource="http://purl.org/dc/dcmitype/StillImage" />
        <dc:title></dc:title>
      </cc:Work>
    </rdf:RDF>
  </metadata>
  <g
     inkscape:label="Layer 1"
     inkscape:groupmode="layer"
     id="layer1"
     transform="translate(0,-302.35997)">
    <g
       id="1"
       transform="translate(0,62.36)" />
    <g
       id="1-1"
       transform="translate(0,62.36)" />
    <path
       style="fill:#000000"
       d="m 81.499999,994.36 -23.5,0 0,-23.5 0,-23.5 23.5,0 23.500001,0 0,23.5 0,23.5 -23.500001,0 z m 53.000001,0 -23.5,0 0,-23.5 0,-23.5 23.5,0 23.5,0 0,23.5 0,23.5 -23.5,0 z m 53.5,0 -24,0 0,-23.5 0,-23.5 24,0 24,0 0,23.5 0,23.5 -24,0 z m 53,0 -24,0 0,-23.5 0,-23.5 24,0 24,0 0,23.5 0,23.5 -24,0 z m 53.5,0 -23.5,0 0,-23.5 0,-23.5 23.5,0 23.5,0 0,23.5 0,23.5 -23.5,0 z m 53,0 -23.5,0 0,-23.5 0,-23.5 23.5,0 23.5,0 0,23.5 0,23.5 -23.5,0 z m 53,0 -23.5,0 0,-23.5 0,-23.5 23.5,0 23.5,0 0,23.5 0,23.5 -23.5,0 z m 53.5,0 -24,0 0,-23.5 0,-23.5 24,0 24,0 0,23.5 0,23.5 -24,0 z m 53,0 -24,0 0,-23.5 0,-23.5 24,0 24,0 0,23.5 0,23.5 -24,0 z m 53.5,0 -23.5,0 0,-23.5 0,-23.5 23.5,0 23.5,0 0,23.5 0,23.5 -23.5,0 z m 53,0 -23.5,0 0,-23.5 0,-23.5 23.5,0 23.5,0 0,23.5 0,23.5 -23.5,0 z m 53,0 -23.5,0 0,-23.5 0,-23.5 23.5,0 23.5,0 0,23.5 0,23.5 -23.5,0 z m 53.5,0 -24,0 0,-23.5 0,-23.5 24,0 24,0 0,23.5 0,23.5 -24,0 z m 53,0 -24,0 0,-23.5 0,-23.5 24,0 24,0 0,23.5 0,23.5 -24,0 z m 53.5,0 -23.5,0 0,-23.5 0,-23.5 23.5,0 23.5,0 0,23.5 0,23.5 -23.5,0 z m -745.000001,-53 -23.5,0 0,-24 0,-24 23.5,0 23.500001,0 0,24 0,24 -23.500001,0 z m 745.000001,0 -23.5,0 0,-24 0,-24 23.5,0 23.5,0 0,24 0,24 -23.5,0 z m -745.000001,-53 -23.5,0 0,-24 0,-24 23.5,0 23.500001,0 0,24 0,24 -23.500001,0 z m 745.000001,0 -23.5,0 0,-24 0,-24 23.5,0 23.5,0 0,24 0,24 -23.5,0 z m -745.000001,-54 -23.5,0 0,-23.5 0,-23.5 23.5,0 23.500001,0 0,23.5 0,23.5 -23.500001,0 z m 745.000001,0 -23.5,0 0,-23.5 0,-23.5 23.5,0 23.5,0 0,23.5 0,23.5 -23.5,0 z m -745.000001,-53 -23.5,0 0,-23.5 0,-23.5 23.5,0 23.500001,0 0,23.5 0,23.5 -23.500001,0 z m 745.000001,0 -23.5,0 0,-23.5 0,-23.5 23.5,0 23.5,0 0,23.5 0,23.5 -23.5,0 z m -361,-41 -23.5,0 0,-23.5 0,-23.5 23.5,0 23.5,0 0,23.5 0,23.5 -23.5,0 z m -384.000001,-12 -23.5,0 0,-23.5 0,-23.5 23.5,0 23.500001,0 0,23.5 0,23.5 -23.500001,0 z m 745.000001,0 -23.5,0 0,-23.5 0,-23.5 23.5,0 23.5,0 0,23.5 0,23.5 -23.5,0 z m -307.5,-47 -24,0 0,-23.5 0,-23.5 24,0 24,0 0,23.5 0,23.5 -24,0 z m -437.500001,-6 -23.5,0 0,-23.5 0,-23.5 23.5,0 23.500001,0 0,23.5 0,23.5 -23.500001,0 z m 319.000001,0 -23.5,0 0,-23.5 0,-23.5 23.5,0 23.5,0 0,23.5 0,23.5 -23.5,0 z m 426,0 -23.5,0 0,-23.5 0,-23.5 23.5,0 23.5,0 0,23.5 0,23.5 -23.5,0 z m -745.000001,-53 -23.5,0 0,-23.5 0,-23.5 23.5,0 23.500001,0 0,23.5 0,23.5 -23.500001,0 z m 745.000001,0 -23.5,0 0,-23.5 0,-23.5 23.5,0 23.5,0 0,23.5 0,23.5 -23.5,0 z m -745.000001,-53 -23.5,0 0,-24 0,-24 23.5,0 23.500001,0 0,24 0,24 -23.500001,0 z m 372.500001,0 -24,0 0,-24 0,-24 24,0 24,0 0,24 0,24 -24,0 z m 372.5,0 -23.5,0 0,-24 0,-24 23.5,0 23.5,0 0,24 0,24 -23.5,0 z m -745.000001,-54 -23.5,0 0,-23.5 0,-23.5 23.5,0 23.500001,0 0,23.5 0,23.5 -23.500001,0 z m 473.000001,0 -23.5,0 0,-23.5 0,-23.5 23.5,0 23.5,0 0,23.5 0,23.5 -23.5,0 z m 112,0 -23.5,0 0,-23.5 0,-23.5 23.5,0 23.5,0 0,23.5 0,23.5 -23.5,0 z m 160,0 -23.5,0 0,-23.5 0,-23.5 23.5,0 23.5,0 0,23.5 0,23.5 -23.5,0 z m -745.000001,-53 -23.5,0 0,-23.5 0,-23.5 23.5,0 23.500001,0 0,23.5 0,23.5 -23.500001,0 z m 745.000001,0 -23.5,0 0,-23.5 0,-23.5 23.5,0 23.5,0 0,23.5 0,23.5 -23.5,0 z m -745.000001,-53 -23.5,0 0,-23.5 0,-23.5 23.5,0 23.500001,0 0,23.5 0,23.5 -23.500001,0 z m 53.000001,0 -23.5,0 0,-23.5 0,-23.5 23.5,0 23.5,0 0,23.5 0,23.5 -23.5,0 z m 53.5,0 -24,0 0,-23.5 0,-23.5 24,0 24,0 0,23.5 0,23.5 -24,0 z m 53,0 -24,0 0,-23.5 0,-23.5 24,0 24,0 0,23.5 0,23.5 -24,0 z m 53.5,0 -23.5,0 0,-23.5 0,-23.5 23.5,0 23.5,0 0,23.5 0,23.5 -23.5,0 z m 53,0 -23.5,0 0,-23.5 0,-23.5 23.5,0 23.5,0 0,23.5 0,23.5 -23.5,0 z m 53,0 -23.5,0 0,-23.5 0,-23.5 23.5,0 23.5,0 0,23.5 0,23.5 -23.5,0 z m 53.5,0 -24,0 0,-23.5 0,-23.5 24,0 24,0 0,23.5 0,23.5 -24,0 z m 53,0 -24,0 0,-23.5 0,-23.5 24,0 24,0 0,23.5 0,23.5 -24,0 z m 53.5,0 -23.5,0 0,-23.5 0,-23.5 23.5,0 23.5,0 0,23.5 0,23.5 -23.5,0 z m 53,0 -23.5,0 0,-23.5 0,-23.5 23.5,0 23.5,0 0,23.5 0,23.5 -23.5,0 z m 53,0 -23.5,0 0,-23.5 0,-23.5 23.5,0 23.5,0 0,23.5 0,23.5 -23.5,0 z m 53.5,0 -24,0 0,-23.5 0,-23.5 24,0 24,0 0,23.5 0,23.5 -24,0 z m 53,0 -24,0 0,-23.5 0,-23.5 24,0 24,0 0,23.5 0,23.5 -24,0 z m 53.5,0 -23.5,0 0,-23.5 0,-23.5 23.5,0 23.5,0 0,23.5 0,23.5 -23.5,0 z"
       id="path3353"
       inkscape:connector-curvature="0" />
  </g>
</svg>
