<?xml version="1.0" encoding="utf-8"?>
<!-- Generator: Adobe Illustrator 15.0.0, SVG Export Plug-In . SVG Version: 6.00 Build 0)  -->
<!DOCTYPE svg PUBLIC "-//W3C//DTD SVG 1.1//EN" "http://www.w3.org/Graphics/SVG/1.1/DTD/svg11.dtd">
<svg version="1.1" id="Layer_1" xmlns="http://www.w3.org/2000/svg" xmlns:xlink="http://www.w3.org/1999/xlink" x="0px" y="0px"
	 width="216px" height="214px" viewBox="0 0 216 214" enable-background="new 0 0 216 214" xml:space="preserve">
<g>
	<g>
		<defs>
			<rect id="SVGID_1_" x="-248.124" y="-246.1" width="712.007" height="706.2"/>
		</defs>
		<clipPath id="SVGID_2_">
			<use xlink:href="#SVGID_1_"  overflow="visible"/>
		</clipPath>
		<path clip-path="url(#SVGID_2_)" d="M200.714,214.129c-0.555,0.129-1.599,0-2.334-0.296c-0.734-0.284-1.34-0.967-1.34-1.509
			c0-0.541,1.237-0.979,2.758-0.979c1.663,0,2.592,0.506,2.347,1.264C201.912,213.305,201.268,213.988,200.714,214.129
			L200.714,214.129z M117.069,211.622c-0.619,0.22-1.457,0.052-1.869-0.348c-0.399-0.412-0.734-1.379-0.734-2.166
			c0-0.786,1.005-1.418,2.217-1.418c1.495,0,2.102,0.58,1.869,1.779C118.358,210.449,117.701,211.416,117.069,211.622
			L117.069,211.622z M14.298,208.308c-1.417,0.271-1.856-0.167-1.585-1.595c0.205-1.073,1.096-1.963,1.971-1.963
			c0.878,0,1.587,0.709,1.587,1.586C16.27,207.212,15.379,208.105,14.298,208.308L14.298,208.308z M48.366,207.561
			c-0.351,0-1.114-0.758-1.712-1.711c-0.575-0.928,0.207-1.706,1.712-1.706c1.523,0,2.289,0.778,1.709,1.706
			C49.5,206.803,48.74,207.561,48.366,207.561L48.366,207.561z M206.793,191.378c-0.851,0-1.869-0.525-2.269-1.16
			c-0.387-0.645-0.22-1.663,0.387-2.253c0.605-0.609,1.611-0.776,2.256-0.39c0.645,0.402,1.16,1.418,1.16,2.269
			C208.327,190.682,207.631,191.378,206.793,191.378L206.793,191.378z M116.98,185.443c-0.145-0.005-0.434-0.114-0.637-0.242
			c-0.207-0.133-0.684-1.153-1.059-2.271c-0.637-1.891-0.648-2.098-0.176-3.016c0.32-0.621,0.715-0.949,1.059-0.882
			c0.422,0.082,0.555,0.476,0.582,1.722c0.016,0.887,0.137,2.309,0.262,3.153C117.137,184.754,117.125,185.447,116.98,185.443
			L116.98,185.443z M153.48,185.122c-0.176,0-0.32-0.145-0.32-0.324c0-0.176,0.145-0.324,0.32-0.324c0.18,0,0.324,0.148,0.324,0.324
			C153.805,184.977,153.66,185.122,153.48,185.122L153.48,185.122z M132.781,184.797c-0.16,0-0.598-0.519-0.969-1.152
			c-0.375-0.633-0.68-1.362-0.68-1.625c0-0.258-0.168-0.797-0.375-1.194c-0.207-0.399-0.477-0.942-0.602-1.211
			c-0.125-0.267-0.395-0.504-0.598-0.524c-0.203-0.022-0.516-0.058-0.695-0.082c-0.176-0.022-0.324-0.336-0.324-0.699
			c0-0.362,0.238-0.746,0.523-0.858c0.289-0.11,0.906-0.067,1.367,0.097c0.707,0.246,0.863,0.528,0.965,1.719
			c0.063,0.781,0.328,1.638,0.59,1.895c0.258,0.262,0.418,0.637,0.352,0.84c-0.066,0.2,0.07,0.555,0.309,0.793
			c0.238,0.239,0.43,0.785,0.43,1.219C133.074,184.447,132.945,184.797,132.781,184.797L132.781,184.797z M157.047,184.313
			c-0.18,0.109-0.324-0.027-0.324-0.305s0.145-0.504,0.324-0.504c0.176,0,0.324,0.137,0.324,0.305
			C157.371,183.973,157.223,184.204,157.047,184.313L157.047,184.313z M152.66,183.477c-0.707-0.016-1.465-0.098-1.688-0.188
			c-0.223-0.089-0.406-0.328-0.406-0.527c0-0.266,0.098-0.266,0.363,0.004c0.266,0.267,0.574,0.267,1.148,0.008
			c0.629-0.288,0.887-0.254,1.324,0.184C153.91,183.469,153.863,183.5,152.66,183.477L152.66,183.477z M6.746,183.99
			c-0.541,0-1.274-0.751-1.624-1.65c-0.346-0.919-0.346-1.934-0.013-2.272c0.35-0.345,1.352-0.345,2.257,0
			c0.939,0.361,1.365,1.328,1.002,2.272C8.022,183.239,7.286,183.99,6.746,183.99L6.746,183.99z M147.656,182.533
			c-0.172,0-0.414-0.388-0.531-0.86c-0.16-0.637-0.059-0.976,0.379-1.297c0.328-0.238,0.75-0.425,0.938-0.41
			c0.191,0.012,0.16,0.098-0.063,0.188c-0.223,0.09-0.402,0.664-0.402,1.269C147.977,182.033,147.832,182.533,147.656,182.533
			L147.656,182.533z M151.215,181.236c-0.18,0-0.324-0.146-0.324-0.325c0-0.175,0.145-0.324,0.324-0.324s0.324,0.149,0.324,0.324
			C151.539,181.09,151.395,181.236,151.215,181.236L151.215,181.236z M145.957,180.911c-0.145,0-0.176-0.339-0.07-0.757
			c0.145-0.575-0.008-0.888-0.633-1.298c-0.449-0.293-1.059-0.534-1.355-0.534c-0.375,0-0.484-0.196-0.363-0.649
			c0.113-0.441,0.008-0.648-0.328-0.648c-0.383,0-0.449-0.23-0.293-1.02c0.117-0.582,0.051-1.203-0.16-1.457
			c-0.199-0.242-0.699-0.437-1.105-0.437c-0.585,0-0.703-0.138-0.563-0.673c0.094-0.366-0.012-1.012-0.238-1.434
			c-0.242-0.453-0.305-1.008-0.152-1.355c0.145-0.323,0.273-0.723,0.289-0.887s0.211-0.354,0.434-0.43
			c0.223-0.074,0.402,0.028,0.402,0.23c0,0.203,0.402,0.871,0.891,1.484c0.492,0.617,1.148,1.117,1.457,1.117
			c0.352,0,0.57,0.246,0.57,0.648c0,0.434,0.215,0.648,0.645,0.648c0.359,0,0.648-0.136,0.648-0.301
			c0-0.167-0.496-0.828-1.105-1.473c-0.605-0.645-1.184-1.383-1.285-1.645c-0.098-0.258-0.387-0.468-0.641-0.468
			s-0.543-0.207-0.641-0.461c-0.102-0.274,0.168-0.688,0.652-1.004c0.813-0.535,0.848-0.524,2.234,0.84
			c0.773,0.757,1.336,1.487,1.254,1.625c-0.082,0.136,0.023,0.632,0.238,1.101c0.262,0.578,0.574,0.81,0.961,0.707
			c0.313-0.082,0.629,0.016,0.699,0.223c0.07,0.203-0.027,0.716-0.215,1.134c-0.277,0.612-0.234,0.843,0.211,1.171
			c0.305,0.223,0.555,0.719,0.555,1.105c0,0.449-0.293,0.81-0.813,1.008c-0.578,0.22-0.809,0.552-0.809,1.156
			c0,0.469-0.25,1.273-0.555,1.789C146.465,180.49,146.098,180.911,145.957,180.911L145.957,180.911z M146.355,176.701
			c0.402,0,0.648-0.215,0.645-0.567c-0.004-0.312-0.094-0.897-0.203-1.305c-0.152-0.574-0.352-0.691-0.887-0.527
			c-0.379,0.117-0.746,0.262-0.816,0.324s0.047,0.321,0.254,0.575c0.211,0.253,0.359,0.585,0.332,0.737s-0.031,0.388-0.012,0.52
			C145.691,176.59,146,176.701,146.355,176.701L146.355,176.701z M142.219,173.516c0.176-0.176,0.219-0.492,0.09-0.703
			c-0.16-0.254-0.344-0.273-0.563-0.055c-0.176,0.176-0.215,0.492-0.086,0.703C141.816,173.715,142.004,173.736,142.219,173.516
			L142.219,173.516z M149.777,180.586c-0.078,0-0.227-0.136-0.332-0.301c-0.102-0.164-0.035-0.395,0.145-0.503
			c0.18-0.114,0.328,0.022,0.328,0.3C149.918,180.361,149.855,180.586,149.777,180.586L149.777,180.586z M164.172,177.922
			c-0.625,0.012-1.316-0.051-1.539-0.14c-0.223-0.09-0.406-0.372-0.406-0.622c0-0.253,0.129-0.46,0.285-0.46s0.461,0.21,0.672,0.468
			c0.215,0.254,0.777,0.524,1.254,0.598C165.129,177.872,165.078,177.904,164.172,177.922L164.172,177.922z M135.598,174.801
			c-0.109,0.328-0.188,0.328-0.391,0c-0.141-0.226-0.164-0.5-0.059-0.604c0.105-0.11,0.281-0.106,0.391,0
			C135.645,174.305,135.672,174.576,135.598,174.801L135.598,174.801z M122.547,172.49c-0.266,0-0.484-0.142-0.484-0.313
			s0.219-0.229,0.484-0.129c0.27,0.102,0.488,0.246,0.488,0.313C123.035,172.43,122.816,172.49,122.547,172.49L122.547,172.49z
			 M147.379,167.629c-0.152,0-0.516-0.265-0.813-0.59c-0.293-0.328-0.535-0.836-0.535-1.136c0-0.298,0.184-0.539,0.406-0.539
			c0.223,0.004,0.586,0.394,0.809,0.875c0.223,0.479,0.406,0.987,0.406,1.132C147.652,167.512,147.527,167.629,147.379,167.629
			L147.379,167.629z M122.996,166.793c-0.816,0.141-1.285,0.063-1.555-0.261c-0.262-0.317-0.273-0.532-0.043-0.672
			c0.188-0.117,0.34-0.802,0.34-1.524c0-1.254,0.039-1.301,0.848-1.097c0.574,0.144,1.039,0.039,1.438-0.321
			c0.324-0.293,0.754-0.433,0.957-0.308c0.234,0.147,0.289,0.683,0.148,1.519c-0.195,1.145-0.148,1.281,0.383,1.18
			c0.504-0.098,0.617-0.48,0.703-2.379c0.074-1.637-0.043-2.543-0.426-3.262c-0.473-0.886-0.695-1-1.953-1
			c-0.887,0-1.484,0.164-1.59,0.434c-0.09,0.234-0.313,0.431-0.492,0.431s-0.566-0.364-0.855-0.813
			c-0.43-0.647-0.453-0.906-0.133-1.289c0.219-0.266,0.523-0.406,0.676-0.312c0.152,0.097,0.645-0.067,1.098-0.364
			c0.449-0.293,0.816-0.711,0.816-0.926c0-0.21,0.301-1.003,0.664-1.761c0.379-0.778,0.578-1.649,0.465-2.005
			c-0.129-0.414-0.023-0.698,0.309-0.827c0.293-0.114,0.508-0.575,0.508-1.091c0-0.496,0.219-1.082,0.484-1.301
			c0.418-0.348,0.488-0.226,0.488,0.867c0,0.696-0.137,1.407-0.301,1.578c-0.164,0.168-0.336,0.984-0.387,1.816
			c-0.051,0.884,0.086,1.72,0.332,2.016c0.293,0.352,0.352,0.993,0.195,2.125c-0.219,1.602-0.203,1.641,1.266,3.152
			c0.816,0.841,1.484,1.794,1.484,2.113c0,0.32,0.219,0.582,0.488,0.582c0.316,0,0.484,0.32,0.484,0.935
			c0,0.511-0.184,1.082-0.406,1.265c-0.223,0.184-1.496,0.551-2.832,0.817C125.262,166.375,123.641,166.684,122.996,166.793
			L122.996,166.793z M19.819,166.154c-1.462,0-2.186-0.784-1.588-1.733c0.581-0.964,1.794-1.298,2.661-0.758
			c0.866,0.531,1.588,1.32,1.588,1.729C22.479,165.803,21.28,166.154,19.819,166.154L19.819,166.154z M208.574,166.142
			c-1.011,0.329-1.836-0.659-1.836-2.222c0-1.567,0.825-2.583,1.836-2.254c1.011,0.33,1.836,1.346,1.836,2.254
			C210.41,164.807,209.585,165.812,208.574,166.142L208.574,166.142z M122.844,161.774c-0.375-0.016-0.453-0.094-0.195-0.195
			c0.234-0.093,0.512-0.082,0.621,0.023C123.379,161.711,123.188,161.79,122.844,161.774L122.844,161.774z M110.32,156.668
			c-0.582,0.067-1.492,0.035-2.027-0.07l-0.969-0.188l1.254-0.542c0.688-0.301,1.355-0.547,1.48-0.547s0.566-0.392,0.98-0.868
			l0.754-0.871l-0.668-1.316c-0.371-0.727-0.844-1.871-1.051-2.547c-0.297-0.953-0.293-1.332,0.016-1.703
			c0.301-0.362,0.504-0.391,0.84-0.108c0.242,0.203,0.441,0.776,0.441,1.276c0,0.504,0.145,1.293,0.324,1.763
			c0.18,0.468,0.465,0.765,0.633,0.659c0.172-0.105,0.535,0.242,0.813,0.773c0.273,0.531,0.5,1.047,0.5,1.145
			s-0.285,0.177-0.629,0.177c-0.348,0-0.73,0.168-0.855,0.371c-0.129,0.202,0.098,0.616,0.512,0.925
			c0.414,0.313,0.641,0.723,0.512,0.93c-0.129,0.211-0.566,0.285-1.02,0.172c-0.441-0.112-0.789-0.059-0.789,0.125
			C111.371,156.399,110.898,156.602,110.32,156.668L110.32,156.668z M127.559,154.024c-0.184,0-0.41-0.198-0.504-0.441
			c-0.094-0.242,0.156-1.07,0.559-1.836c0.398-0.77,0.789-1.214,0.863-0.988c0.074,0.223-0.027,0.57-0.223,0.771
			c-0.199,0.198-0.363,0.84-0.363,1.429C127.891,153.543,127.742,154.024,127.559,154.024L127.559,154.024z M7.716,154.318
			c-0.684,0.235-1.562-0.09-1.934-0.709c-0.387-0.618-0.4-1.611-0.039-2.191c0.363-0.59,1.393-1.069,2.284-1.069
			c0.926,0,1.468,0.75,1.273,1.778C9.108,153.106,8.386,154.099,7.716,154.318L7.716,154.318z M129.059,149.404
			c-0.105,0.104-0.184-0.082-0.168-0.427c0.016-0.375,0.09-0.453,0.195-0.194C129.18,149.016,129.168,149.293,129.059,149.404
			L129.059,149.404z M126.813,148.141c-0.457,0.086-0.566-0.059-0.484-0.645c0.059-0.418,0.371-0.804,0.699-0.867
			c0.461-0.086,0.57,0.059,0.484,0.641C127.453,147.693,127.145,148.076,126.813,148.141L126.813,148.141z M109.594,145.602
			c-0.004,0-0.191-0.289-0.41-0.641c-0.223-0.355-0.402-1.168-0.402-1.808c0-0.938,0.109-1.138,0.566-1.035
			c0.313,0.065,0.516,0.332,0.449,0.589c-0.063,0.258-0.133,1.012-0.156,1.68C109.621,145.055,109.598,145.602,109.594,145.602
			L109.594,145.602z M146.742,145.598c-0.301-0.004-0.699-0.112-0.887-0.242c-0.188-0.133-0.375-0.737-0.414-1.352
			c-0.043-0.609-0.242-1.308-0.441-1.551c-0.254-0.309-0.262-0.543-0.027-0.781c0.234-0.234,0.422-0.203,0.605,0.098
			c0.148,0.238,0.348,1.016,0.441,1.727c0.141,1.036,0.32,1.316,0.906,1.402c0.406,0.055,0.652,0.238,0.551,0.402
			C147.375,145.469,147.043,145.602,146.742,145.598L146.742,145.598z M144.738,145.279c-0.18,0-0.324-0.192-0.324-0.423
			c0-0.234-0.438-0.848-0.973-1.359c-0.535-0.511-0.973-1.121-0.973-1.355c0-0.233,0.059-0.426,0.129-0.426
			c0.074,0,0.656,0.465,1.297,1.031c0.707,0.625,1.164,1.329,1.164,1.782C145.059,144.943,144.914,145.279,144.738,145.279
			L144.738,145.279z M131.961,143.986c-0.078,0-0.215-0.117-0.305-0.259c-0.086-0.145-0.023-0.473,0.141-0.73
			c0.23-0.367,0.297-0.313,0.301,0.258C132.102,143.658,132.039,143.986,131.961,143.986L131.961,143.986z M196.251,144.725
			c-0.95,0-1.712-0.758-1.712-1.713c0-0.948,0.762-1.713,1.712-1.713c0.929,0,1.69,0.765,1.69,1.713
			C197.941,143.967,197.18,144.725,196.251,144.725L196.251,144.725z M32.254,142.673c-1.316,0.261-1.868-0.322-1.868-1.931
			c0-1.602,0.551-2.182,1.868-1.934c1.03,0.203,1.868,1.066,1.868,1.934C34.122,141.616,33.284,142.48,32.254,142.673
			L32.254,142.673z M208.574,128.244c-1.011,0.336-1.836-0.68-1.836-2.248c0-1.567,0.825-2.557,1.836-2.227
			c1.011,0.329,1.836,1.341,1.836,2.227C210.41,126.903,209.585,127.899,208.574,128.244L208.574,128.244z M5.931,127.335
			c-0.891,0-1.6-0.954-1.6-2.137c0-1.188,0.709-2.143,1.6-2.143c0.888,0,1.61,0.954,1.61,2.143
			C7.541,126.381,6.818,127.335,5.931,127.335L5.931,127.335z M16.783,121.138c-0.516,0-1.265-0.513-1.663-1.16
			c-0.387-0.632-0.179-1.698,0.477-2.347c0.875-0.873,1.508-0.873,2.374,0c0.656,0.648,0.875,1.715,0.475,2.347
			C18.046,120.625,17.297,121.138,16.783,121.138L16.783,121.138z M62.673,119.51c-0.775,0.658-1.742,0.864-2.128,0.48
			c-0.387-0.39-0.696-1.344-0.696-2.13c0-0.771,0.696-1.418,1.534-1.418c0.853,0,1.805,0.425,2.125,0.944
			C63.832,117.916,63.458,118.866,62.673,119.51L62.673,119.51z M32.017,115.559c-0.932,0-1.499-0.58-1.264-1.275
			c0.23-0.696,0.993-1.457,1.686-1.686c0.696-0.235,1.263,0.332,1.263,1.263C33.702,114.786,32.943,115.559,32.017,115.559
			L32.017,115.559z M190.379,113.254c-0.825,0.521-1.98,0.434-2.578-0.159c-0.599-0.618-1.093-1.753-1.093-2.542
			c0-0.784,1.155-1.419,2.578-1.419c1.401,0,2.557,0.718,2.557,1.604S191.184,112.759,190.379,113.254L190.379,113.254z
			 M66.999,104.68c-0.63,0.205-1.468,0.052-1.868-0.361c-0.413-0.403-0.735-1.405-0.735-2.23c0-0.865,0.798-1.354,1.871-1.149
			c1.03,0.208,1.868,1.033,1.868,1.858C68.135,103.623,67.619,104.472,66.999,104.68L66.999,104.68z M46.909,103.323
			c-0.516,0-1.265-0.516-1.665-1.159c-0.385-0.633-0.177-1.69,0.479-2.346c0.875-0.878,1.508-0.878,2.374,0
			c0.656,0.656,0.875,1.713,0.475,2.346C48.172,102.807,47.422,103.323,46.909,103.323L46.909,103.323z M7.902,99.382
			c-0.853,0-1.869-0.517-2.268-1.162c-0.387-0.63-0.222-1.65,0.385-2.254c0.607-0.606,1.611-0.775,2.257-0.375
			c0.643,0.387,1.159,1.405,1.159,2.257C9.436,98.699,8.74,99.382,7.902,99.382L7.902,99.382z M200.131,95.549
			c-0.528,0-1.275-0.514-1.662-1.16c-0.4-0.645-0.181-1.7,0.464-2.348c0.876-0.873,1.508-0.873,2.385,0
			c0.657,0.648,0.863,1.704,0.477,2.348C201.395,95.035,200.646,95.549,200.131,95.549L200.131,95.549z M88.691,94.631
			c-0.617,0-1.415-0.759-1.779-1.676c-0.347-0.927-0.089-2.23,0.582-2.888c0.901-0.901,1.508-0.901,2.412,0
			c0.67,0.657,0.927,1.961,0.564,2.888C90.124,93.872,89.326,94.631,88.691,94.631L88.691,94.631z M142.186,92.241
			c-0.528,0.322-1.482-0.063-2.127-0.838c-0.657-0.786-0.877-1.74-0.49-2.125c0.387-0.387,1.354-0.711,2.14-0.711
			c0.773,0,1.418,0.696,1.418,1.549C143.126,90.954,142.701,91.92,142.186,92.241L142.186,92.241z M184.521,90.573
			c-1.496,1.496-1.779,1.496-3.029,0c-1.122-1.354-1.122-1.958,0-3.313c1.25-1.496,1.533-1.496,3.029,0
			C186.029,88.759,186.029,89.078,184.521,90.573L184.521,90.573z M69.746,87.778c-2.672,0.066-5.223,0.058-5.668-0.02
			c-0.445-0.082-1.683-0.305-2.754-0.5c-1.066-0.195-3.035-0.723-4.371-1.172c-1.336-0.449-3.43-1.312-4.648-1.926
			c-1.219-0.609-2.825-1.488-3.563-1.953c-0.742-0.461-2-1.367-2.804-2.007c-0.801-0.641-2.114-1.774-2.915-2.52
			c-0.8-0.742-1.707-1.777-2.011-2.297c-0.535-0.91-0.532-0.973,0.109-1.66c0.621-0.668,0.715-0.684,1.442-0.207
			c0.625,0.41,0.898,0.434,1.402,0.121c0.488-0.309,0.73-0.305,1.098,0c0.257,0.215,0.675,0.313,0.921,0.215
			c0.25-0.094,0.598-0.496,0.77-0.895c0.176-0.398,0.465-0.687,0.644-0.64c0.176,0.043,0.321,0.261,0.321,0.484
			c0,0.223,0.148,0.512,0.324,0.645c0.18,0.129,0.406,0.238,0.508,0.242c0.101,0,0.441-0.539,0.762-1.203
			c0.519-1.094,0.613-1.157,0.984-0.649c0.23,0.317,0.836,0.559,1.387,0.559c0.539,0,1.152,0.211,1.367,0.469
			c0.211,0.254,0.605,0.382,0.871,0.277c0.324-0.121,0.426-0.434,0.301-0.934c-0.106-0.41-0.035-1.082,0.156-1.492
			c0.273-0.605,0.629-0.762,1.824-0.816c0.86-0.039,1.738-0.301,2.094-0.625c0.473-0.426,0.703-0.465,0.996-0.176
			c0.273,0.273,0.281,0.48,0.031,0.734c-0.254,0.25-0.215,0.621,0.129,1.313c0.262,0.527,0.645,0.902,0.852,0.836
			c0.203-0.071,0.379-0.426,0.383-0.785c0.007-0.364,0.507-1.223,1.109-1.911c0.605-0.687,1.457-1.437,1.891-1.664
			c0.433-0.222,1.113-0.41,1.507-0.41c0.395,0,0.828,0.11,0.961,0.246c0.133,0.133,0.809,0.25,1.496,0.262
			c1.231,0.02,1.25,0,1.188-1.121c-0.047-0.828,0.082-1.172,0.465-1.25c0.289-0.063,0.765,0.129,1.058,0.422
			c0.492,0.488,0.575,0.473,1.16-0.227c0.348-0.418,0.637-1,0.645-1.293c0.004-0.293,0.227-0.613,0.496-0.718
			c0.266-0.102,0.484-0.411,0.484-0.68c0-0.274,0.207-0.496,0.457-0.496s0.836-0.449,1.297-1c0.5-0.594,0.836-0.805,0.836-0.52
			c0,0.262,0.227,0.563,0.504,0.668c0.278,0.11,0.86-0.039,1.297-0.324c0.438-0.285,0.793-0.793,0.793-1.129
			s0.117-0.613,0.258-0.613c0.144,0,0.433,0.176,0.648,0.387c0.301,0.3,0.496,0.25,0.879-0.243c0.27-0.343,0.711-1.125,0.977-1.734
			c0.269-0.609,0.41-1.352,0.312-1.656c-0.093-0.301-0.082-0.789,0.032-1.082c0.109-0.289,0.343-0.532,0.519-0.532
			c0.176,0,0.223,0.407,0.106,0.942c-0.114,0.519-0.075,1.023,0.089,1.125c0.164,0.101,0.828-0.289,1.477-0.867
			c0.793-0.707,1.18-1.332,1.18-1.907c0-0.691,0.121-0.82,0.652-0.679c0.355,0.093,0.875-0.02,1.152-0.25
			c0.325-0.27,0.438-0.696,0.313-1.184c-0.16-0.64-0.028-0.824,0.801-1.113c0.683-0.238,0.945-0.512,0.843-0.879
			c-0.078-0.293-0.238-0.859-0.355-1.258c-0.137-0.484,0.015-1.047,0.461-1.672c0.367-0.515,0.668-1.078,0.668-1.246
			s0.293-0.566,0.648-0.89c0.356-0.321,0.649-0.782,0.649-1.02c0-0.242,0.144-0.437,0.324-0.437c0.18,0,0.324,0.437,0.324,0.972
			c0,0.625,0.164,0.973,0.465,0.973c0.254,0,0.547-0.274,0.652-0.606c0.106-0.328,0.102-0.839-0.011-1.132
			c-0.137-0.356-0.032-0.532,0.316-0.532c0.41,0,0.519-0.347,0.519-1.621c0-1.269,0.114-1.617,0.524-1.617
			c0.344,0,0.453-0.176,0.32-0.516c-0.125-0.332,0.164-0.855,0.813-1.461c0.785-0.734,0.961-1.117,0.804-1.738
			c-0.164-0.656-0.027-0.89,0.735-1.285c0.515-0.266,1.023-0.816,1.133-1.223c0.109-0.41,0.203-1.043,0.203-1.406
			c0.004-0.367,0.164-0.824,0.355-1.016c0.196-0.191,0.61-0.285,0.926-0.203c0.312,0.086,0.809,0.649,1.102,1.262
			c0.289,0.609,0.675,1.106,0.855,1.106c0.184,0,0.332,0.195,0.332,0.429c0,0.235,0.426,1.219,0.945,2.188
			c0.52,0.965,1.235,2.703,1.582,3.863c0.352,1.156,0.836,2.98,1.079,4.047c0.277,1.215,0.441,3.953,0.441,7.289
			c0,3.379-0.164,6.062-0.445,7.289c-0.246,1.07-0.805,3.035-1.25,4.375c-0.442,1.336-1.184,3.23-1.653,4.211
			c-0.472,0.977-1.367,2.582-1.996,3.562c-0.629,0.981-1.738,2.582-2.469,3.563c-0.726,0.98-2.343,2.742-3.586,3.914
			c-1.246,1.172-3.492,2.922-4.988,3.887c-1.5,0.965-3.234,2.004-3.859,2.312c-0.621,0.309-1.86,0.864-2.75,1.239
			c-0.891,0.371-3.004,1.039-4.695,1.484C75.242,87.493,73.602,87.685,69.746,87.778L69.746,87.778z M76.797,62.774
			c0.137-0.078,0.164-0.278,0.062-0.442c-0.101-0.168-0.394-0.3-0.652-0.3s-0.469,0.132-0.469,0.296c0,0.161,0.184,0.36,0.407,0.442
			C76.367,62.848,76.66,62.853,76.797,62.774L76.797,62.774z M15.676,85.461c-0.853,0-1.871-0.528-2.258-1.174
			c-0.399-0.632-0.232-1.65,0.373-2.254c0.607-0.607,1.627-0.777,2.257-0.374c0.643,0.387,1.162,1.404,1.162,2.254
			S16.523,85.461,15.676,85.461L15.676,85.461z M166.995,84.837c-0.722,0-1.814-0.492-2.413-1.093
			c-0.598-0.596-0.701-1.732-0.227-2.493c0.474-0.766,1.98-0.972,3.361-0.433c1.383,0.512,2.083,1.646,1.547,2.493
			C168.748,84.137,167.743,84.837,166.995,84.837L166.995,84.837z M120.441,79.854c-1.611,0-2.191-0.554-1.934-1.868
			c0.193-1.033,1.07-1.871,1.934-1.871s1.74,0.838,1.934,1.871C122.633,79.3,122.053,79.854,120.441,79.854L120.441,79.854z
			 M201.251,79.86c-0.851,0-1.547-0.696-1.547-1.547c0-0.838,0.387-1.779,0.863-2.063c0.464-0.295,1.482-0.129,2.269,0.35
			c0.787,0.488,1.096,1.419,0.684,2.075C203.12,79.319,202.102,79.86,201.251,79.86L201.251,79.86z M39.973,72.071
			c-0.282,0-0.512-0.231-0.512-0.512c0-0.281,0.172-0.453,0.383-0.383c0.215,0.07,0.445,0.301,0.515,0.512
			C40.43,71.899,40.254,72.071,39.973,72.071L39.973,72.071z M52.094,71.422c-0.18,0-0.324-0.144-0.324-0.32
			c0-0.18,0.144-0.324,0.324-0.324c0.179,0,0.324,0.144,0.324,0.324C52.418,71.278,52.273,71.422,52.094,71.422L52.094,71.422z
			 M185.99,67.396c-1.432,0.283-1.869-0.157-1.599-1.587c0.219-1.083,1.096-1.971,1.972-1.971c0.877,0,1.586,0.722,1.586,1.597
			C187.949,66.3,187.072,67.188,185.99,67.396L185.99,67.396z M142.186,64.377c-0.528,0.322-1.482-0.053-2.127-0.839
			c-0.657-0.785-0.877-1.739-0.49-2.125c0.387-0.388,1.354-0.696,2.14-0.696c0.773,0,1.418,0.684,1.418,1.533
			C143.126,63.099,142.701,64.053,142.186,64.377L142.186,64.377z M168.428,61.761c-1.315,1.096-1.74,1.005-2.295-0.466
			c-0.387-0.979-0.219-2.254,0.348-2.834c0.684-0.67,1.482-0.516,2.295,0.464C169.742,60.097,169.665,60.729,168.428,61.761
			L168.428,61.761z M4.902,60.735c-0.954,0.359-1.908-0.079-2.28-1.033c-0.35-0.914-0.129-2.164,0.488-2.771
			c0.621-0.617,1.637-0.799,2.28-0.399c0.633,0.387,1.162,1.354,1.162,2.142C6.552,59.459,5.803,60.385,4.902,60.735L4.902,60.735z
			 M159.316,56.021c-1.07,0.027-1.945-0.067-1.945-0.207c0-0.145-0.508-0.262-1.125-0.262c-0.828,0-1.223-0.187-1.508-0.723
			c-0.211-0.394-0.57-0.906-0.797-1.132c-0.227-0.227-0.484-0.411-0.574-0.411s-0.207,0.231-0.266,0.516
			c-0.09,0.445-0.219,0.426-0.953-0.152c-0.469-0.367-0.941-1.125-1.051-1.684c-0.137-0.672-0.352-0.961-0.641-0.851
			c-0.238,0.093-0.586,0.07-0.773-0.047s-0.566-0.754-0.84-1.418c-0.375-0.895-0.426-1.481-0.199-2.266
			c0.168-0.582,0.305-1.508,0.305-2.055c0-0.546,0.301-1.621,0.672-2.386c0.484-1,0.574-1.496,0.324-1.746
			c-0.191-0.192-0.352-0.465-0.352-0.61c0-0.14,0.309-0.258,0.68-0.258c0.375,0,1.094-0.246,1.602-0.543
			c0.504-0.3,1-0.875,1.102-1.277s0.621-1.039,1.156-1.422c0.531-0.379,0.969-0.851,0.969-1.047c0-0.195,0.254-0.636,0.566-0.98
			c0.313-0.344,1.215-1.266,2.008-2.051c0.789-0.785,1.602-1.426,1.801-1.426s0.781-0.437,1.293-0.972s1.086-0.973,1.277-0.977
			c0.188-0.004,0.945-0.625,1.684-1.379c0.734-0.754,3.176-3.152,5.422-5.328c2.242-2.18,4.66-4.258,5.367-4.617
			c0.707-0.359,1.367-0.656,1.461-0.656c0.098,0,0.176,0.218,0.176,0.484c0,0.266-0.289,0.664-0.648,0.887
			c-0.355,0.222-0.645,0.582-0.645,0.801c0,0.214-0.547,0.96-1.215,1.652c-0.668,0.695-2.77,2.851-4.672,4.793
			c-1.898,1.941-4.348,4.242-5.438,5.109c-1.09,0.871-1.926,1.637-1.859,1.707c0.07,0.071,1.059-0.07,2.199-0.312
			s2.566-0.692,3.164-1.004c0.602-0.313,1.168-0.856,1.258-1.203c0.098-0.383,0.543-0.715,1.105-0.824
			c0.516-0.106,1.234-0.606,1.598-1.118c0.363-0.511,0.832-0.929,1.035-0.929c0.207,0,3.109-2.793,6.449-6.203
			c5.23-5.34,6.141-6.145,6.574-5.786c0.277,0.231,0.543,0.36,0.59,0.289c0.047-0.07,0.473-0.73,0.945-1.464
			c0.473-0.739,1.305-1.661,1.852-2.051c0.859-0.613,1.016-0.637,1.188-0.196c0.105,0.278,0.352,0.508,0.539,0.508
			c0.191,0,0.613-0.242,0.938-0.535c0.563-0.512,0.594-0.476,0.594,0.754c0,1.231,0.043,1.281,0.91,1.156
			c0.5-0.074,1.559-0.742,2.352-1.484c0.793-0.742,1.809-1.785,2.254-2.32c0.449-0.536,1.371-1.454,2.055-2.043
			c0.684-0.59,1.309-1.008,1.395-0.922c0.082,0.082-0.168,0.781-0.559,1.558c-0.391,0.774-0.895,1.625-1.117,1.895
			c-0.227,0.266-0.512,0.812-0.633,1.211c-0.207,0.683-0.125,0.73,1.238,0.73c0.801,0,1.551-0.148,1.664-0.328
			c0.113-0.183,0.887-0.68,1.719-1.101c0.836-0.422,2.066-1.332,2.738-2.02c0.672-0.687,1.473-1.48,1.781-1.766
			c0.309-0.281,1.191-1.195,1.965-2.023c0.988-1.059,1.664-1.508,2.27-1.512c0.473-0.004,1.188-0.093,1.59-0.199
			c0.52-0.141,0.727-0.055,0.727,0.293c0,0.27-0.207,0.57-0.465,0.668c-0.258,0.098-0.57,0.711-0.691,1.359
			c-0.145,0.778-0.676,1.618-1.555,2.469c-1.227,1.184-1.289,1.32-0.77,1.707c0.313,0.231,0.566,0.653,0.566,0.938
			c0,0.289-0.254,0.66-0.566,0.824c-0.313,0.168-0.973,1.086-1.469,2.039c-0.496,0.949-1.141,2.07-1.438,2.488
			c-0.52,0.739-0.512,0.758,0.254,0.649c0.59-0.082,0.832-0.36,0.953-1.082c0.086-0.536,0.379-1.301,0.645-1.703
			c0.266-0.399,0.594-0.727,0.727-0.727c0.137,0,0.246,0.363,0.246,0.809c0,0.445,0.125,0.808,0.273,0.808s0.434-0.359,0.637-0.797
			c0.227-0.5,0.246-0.871,0.051-0.992c-0.172-0.105-0.313-0.328-0.313-0.496c0-0.168,0.457-0.305,1.012-0.305
			c0.965,0,1.004,0.051,0.809,1.024c-0.113,0.562-0.375,1.226-0.582,1.476s-0.867,0.657-1.465,0.907
			c-0.914,0.382-1.055,0.578-0.895,1.226c0.152,0.606-0.09,1.07-1.125,2.145c-0.723,0.757-1.848,2.019-2.496,2.812
			s-1.078,1.539-0.957,1.664c0.125,0.121,0.422,0.082,0.66-0.09c0.242-0.172,1.117-0.785,1.945-1.363
			c0.828-0.582,1.84-1.055,2.246-1.055c0.402,0,1.078-0.363,1.496-0.808c0.418-0.446,0.961-0.813,1.207-0.813
			s0.984-0.363,1.645-0.812c0.656-0.446,1.238-0.684,1.293-0.524c0.051,0.157-0.367,0.75-0.934,1.317
			c-0.598,0.597-1.227,0.953-1.504,0.847c-0.293-0.113-0.535,0.063-0.637,0.457c-0.094,0.352-0.434,0.723-0.754,0.825
			c-0.324,0.101-0.742,0.629-0.93,1.168c-0.188,0.543-0.492,0.89-0.676,0.777c-0.18-0.113-0.332-0.063-0.332,0.109
			c0,0.176-0.727,1.086-1.617,2.024c-0.891,0.937-1.621,1.844-1.621,2.012c0,0.167,0.219,0.121,0.484-0.098
			c0.395-0.328,0.488-0.317,0.488,0.058c0,0.258-0.426,0.872-0.941,1.368c-0.52,0.496-1.063,0.879-1.207,0.847
			c-0.145-0.031-0.313,0.09-0.375,0.27c-0.059,0.18,0.172,0.476,0.516,0.66c0.457,0.246,0.785,0.211,1.234-0.129
			c0.336-0.254,0.938-0.469,1.34-0.473c0.402-0.007,0.73-0.156,0.73-0.336c0-0.179,0.293-0.324,0.656-0.324s1.16-0.211,1.773-0.465
			c0.617-0.257,1.188-0.355,1.273-0.214c0.086,0.136-0.066,0.566-0.336,0.949c-0.27,0.387-0.766,0.703-1.102,0.703
			s-0.699,0.144-0.809,0.324c-0.109,0.176-0.547,0.324-0.969,0.324s-0.965,0.18-1.203,0.403c-0.242,0.222-1.09,0.734-1.887,1.136
			c-0.797,0.403-1.695,0.731-1.996,0.727c-0.301,0-0.633,0.137-0.734,0.301s-1.164,0.754-2.367,1.312
			c-1.199,0.559-4.586,2.203-7.527,3.649c-2.938,1.449-5.418,2.73-5.508,2.847c-0.086,0.118-1.676,1.004-3.531,1.965
			s-3.711,2.059-4.129,2.434c-0.418,0.379-0.762,0.847-0.762,1.047c0,0.199-0.363,0.453-0.809,0.566
			c-0.445,0.109-0.809,0.305-0.809,0.43s-1.031,0.703-2.293,1.289c-1.262,0.582-3.191,1.191-4.293,1.351
			c-1.098,0.157-2.109,0.293-2.242,0.293c-0.133,0.004-0.242,0.414-0.242,0.907c0,0.816-0.152,0.933-1.711,1.296
			c-0.941,0.219-1.941,0.399-2.223,0.399c-0.285,0-0.898,0.301-1.363,0.668c-0.469,0.367-1.008,0.57-1.199,0.453
			c-0.191-0.117-0.629,0.039-0.973,0.352C161.457,55.797,160.656,55.985,159.316,56.021L159.316,56.021z M158.988,55.176
			c0.445,0,0.629-0.074,0.406-0.164c-0.223-0.09-0.586-0.09-0.809,0C158.363,55.103,158.543,55.176,158.988,55.176L158.988,55.176z
			 M206.176,18.567c0.297-0.059,0.594-0.274,0.664-0.485c0.082-0.242-0.117-0.316-0.539-0.203c-0.367,0.094-0.668,0.313-0.668,0.485
			C205.633,18.532,205.879,18.625,206.176,18.567L206.176,18.567z M189.613,16.353c0.172-0.004,0.523-0.141,0.789-0.305
			c0.262-0.168,0.367-0.41,0.234-0.543s-0.488,0.004-0.789,0.305C189.547,16.11,189.441,16.356,189.613,16.353L189.613,16.353z
			 M211.984,6.875c0.109-0.109,0.121-0.386,0.027-0.621c-0.105-0.258-0.184-0.179-0.195,0.196
			C211.801,6.793,211.879,6.985,211.984,6.875L211.984,6.875z M199.139,53.382c-0.876,0-1.302-0.475-0.94-1.068
			c0.373-0.595,1.392-1.07,2.269-1.07c0.876,0,1.302,0.475,0.94,1.07C201.047,52.907,200.028,53.382,199.139,53.382L199.139,53.382z
			 M135.522,51.53c-0.851,0-1.83-0.475-2.204-1.057c-0.361-0.593-0.361-1.56,0-2.138c0.374-0.593,1.354-1.071,2.204-1.071
			s1.547,0.954,1.547,2.142C137.069,50.577,136.373,51.53,135.522,51.53L135.522,51.53z M4.094,50.198
			c-0.888,0-1.88-0.438-2.217-0.979c-0.321-0.529-0.298-1.753,0.079-2.706c0.359-0.967,1.21-1.574,1.868-1.354
			c0.67,0.218,1.366,1.442,1.547,2.718C5.589,49.386,5.149,50.198,4.094,50.198L4.094,50.198z M92.563,39.68
			c-0.18,0-0.407-0.219-0.508-0.488c-0.106-0.266-0.106-0.703,0-0.969c0.101-0.27,0.3-0.488,0.437-0.488
			c0.141,0.004,0.285,0.437,0.321,0.972C92.852,39.243,92.738,39.68,92.563,39.68L92.563,39.68z M96.473,33.524
			c-0.18,0-0.325-0.289-0.325-0.649c0-0.355,0.145-0.644,0.325-0.644c0.175,0,0.324,0.289,0.324,0.644
			C96.797,33.235,96.648,33.524,96.473,33.524L96.473,33.524z M19.058,31.913c-1.615,0-2.191-0.554-1.936-1.871
			c0.192-1.03,1.057-1.868,1.936-1.868c0.86,0,1.726,0.838,1.934,1.868C21.234,31.359,20.654,31.913,19.058,31.913L19.058,31.913z
			 M117.957,31.768c-1.422,0.271-1.859-0.167-1.589-1.597c0.206-1.083,1.096-1.959,1.972-1.959c0.877,0,1.586,0.709,1.586,1.584
			C119.926,30.672,119.036,31.55,117.957,31.768L117.957,31.768z M213.875,29.313c-0.277,0-0.414-0.145-0.305-0.324
			c0.109-0.176,0.336-0.325,0.504-0.325s0.305,0.149,0.305,0.325C214.379,29.168,214.152,29.313,213.875,29.313L213.875,29.313z
			 M141.652,29.188c-0.825,0-1.754-0.683-2.063-1.508c-0.322-0.825-0.297-1.779,0.051-2.142c0.361-0.347,1.289-0.63,2.076-0.63
			c0.773,0,1.418,0.967,1.418,2.138C143.135,28.221,142.464,29.188,141.652,29.188L141.652,29.188z M55.334,22.995
			c-0.542,0-1.276-0.733-1.623-1.637c-0.364-0.954,0.061-1.921,1.002-2.28c0.891-0.336,1.911-0.35,2.245,0
			c0.35,0.333,0.337,1.367-0.013,2.267C56.599,22.249,55.875,22.995,55.334,22.995L55.334,22.995z M11.065,20.471
			c-0.927,0.346-1.906-0.039-2.23-0.904c-0.321-0.851-0.293-2.022,0.066-2.617c0.372-0.58,1.379-0.799,2.245-0.462
			c0.86,0.333,1.557,1.225,1.557,1.971C12.702,19.22,11.971,20.121,11.065,20.471L11.065,20.471z M214.082,12.426
			c-0.691,0.457-0.738,0.449-0.629-0.098c0.066-0.328,0.457-0.722,0.875-0.875c0.531-0.195,0.715-0.168,0.629,0.098
			C214.887,11.758,214.496,12.153,214.082,12.426L214.082,12.426z M180.305,12.469c-0.199,0-0.082-0.32,0.258-0.707
			c0.336-0.391,0.996-1.121,1.461-1.621s1.082-0.91,1.375-0.91s0.523,0.109,0.508,0.242c-0.012,0.133-0.746,0.863-1.629,1.621
			C181.391,11.853,180.504,12.469,180.305,12.469L180.305,12.469z M215.676,11.172c-0.18,0-0.324-0.144-0.324-0.32
			c0-0.18,0.145-0.324,0.324-0.324S216,10.672,216,10.853C216,11.028,215.855,11.172,215.676,11.172L215.676,11.172z
			 M115.106,11.591c-1.423,0-2.578-0.784-2.578-1.712c0-0.946,1.155-1.712,2.578-1.712c1.401,0,2.557,0.766,2.557,1.712
			C117.663,10.808,116.508,11.591,115.106,11.591L115.106,11.591z M91.282,11.153c-0.684,0.221-1.549-0.103-1.936-0.72
			c-0.372-0.62-0.398-1.6-0.026-2.191C89.684,7.649,90.7,7.17,91.591,7.17c0.941,0,1.482,0.749,1.278,1.779
			C92.674,9.929,91.963,10.921,91.282,11.153L91.282,11.153z M184.984,8.887c-0.461,0.57-0.691,0.664-0.879,0.363
			c-0.145-0.234-0.043-0.617,0.242-0.898c0.27-0.27,0.664-0.434,0.875-0.363C185.484,8.075,185.41,8.364,184.984,8.887
			L184.984,8.887z M150.582,9.445c-0.635,0.205-1.473,0.05-1.885-0.35c-0.399-0.413-0.735-1.418-0.735-2.243
			c0-0.862,0.813-1.354,1.883-1.146c1.018,0.205,1.869,1.03,1.869,1.854C151.714,8.386,151.198,9.237,150.582,9.445L150.582,9.445z
			 M186.543,7.228c-0.242,0.082-0.363-0.043-0.285-0.285c0.078-0.235,0.336-0.489,0.57-0.567c0.242-0.082,0.363,0.039,0.281,0.285
			C187.031,6.896,186.777,7.149,186.543,7.228L186.543,7.228z M134.373,7.45c-0.516,0-1.263-0.53-1.662-1.175
			c-0.4-0.63-0.181-1.688,0.477-2.346c0.863-0.878,1.495-0.878,2.372,0c0.657,0.657,0.863,1.716,0.477,2.346
			C135.637,6.919,134.889,7.45,134.373,7.45L134.373,7.45z M187.758,5.993c-0.215,0-0.188-0.188,0.066-0.497
			c0.227-0.269,0.477-0.425,0.559-0.343s0.051,0.304-0.066,0.492C188.199,5.836,187.949,5.993,187.758,5.993L187.758,5.993z
			 M32.254,5.658c-1.316,0.256-1.868-0.324-1.868-1.935c0-1.61,0.551-2.19,1.868-1.934c1.03,0.195,1.868,1.07,1.868,1.934
			C34.122,4.588,33.284,5.463,32.254,5.658L32.254,5.658z M74.577,4.693c-0.944,0.372-1.911-0.053-2.271-0.994
			c-0.346-0.901-0.346-1.906,0-2.257c0.337-0.332,1.354-0.332,2.271,0.014c0.901,0.35,1.65,1.084,1.65,1.626
			S75.478,4.356,74.577,4.693L74.577,4.693z M0.275,4.451c-0.939,0-1.508-0.567-1.273-1.263c0.23-0.698,0.989-1.457,1.686-1.703
			c0.696-0.232,1.278,0.35,1.278,1.276C1.965,3.689,1.207,4.451,0.275,4.451L0.275,4.451z M176.196,2.163
			c-1.314,1.083-1.728,1.005-2.295-0.462c-0.373-0.993-0.219-2.271,0.349-2.837c0.683-0.683,1.482-0.516,2.294,0.465
			C177.524,0.5,177.434,1.133,176.196,2.163L176.196,2.163z"/>
	</g>
	<path d="M107.793,213.438c-0.758,0.016-1.379-0.03-1.379-0.098c0-0.07,0.34-0.191,0.75-0.269c0.414-0.078,1.035-0.036,1.379,0.101
		C108.984,213.344,108.766,213.422,107.793,213.438L107.793,213.438z M171.402,213.461c-0.242,0-0.379-1.043-0.414-3.078
		c-0.023-1.69,0-3.074,0.059-3.074s0.336,0.457,0.613,1.02c0.281,0.563,0.512,1.493,0.512,2.066c0,0.574-0.09,1.5-0.203,2.056
		C171.859,213.008,171.602,213.461,171.402,213.461L171.402,213.461z M108.707,211.783c-0.191,0.062-0.348-0.153-0.344-0.481
		c0.004-0.324,0.145-0.812,0.321-1.078c0.254-0.395,0.313-0.348,0.316,0.242c0.004,0.403,0.016,0.836,0.031,0.965
		C109.043,211.559,108.898,211.715,108.707,211.783L108.707,211.783z M109.492,209.25c-0.063,0-0.168-0.328-0.234-0.726
		c-0.063-0.403,0.211-1.66,0.613-2.794c0.398-1.137,0.949-2.313,1.227-2.616c0.273-0.306,0.5-0.832,0.504-1.177
		c0-0.344,0.379-1.277,0.837-2.082c0.456-0.801,1.038-1.573,1.292-1.715c0.25-0.145,0.457-0.52,0.457-0.832
		c0-0.315,0.848-1.73,1.887-3.145c1.035-1.41,2.238-2.754,2.672-2.984c0.594-0.312,0.793-0.694,0.813-1.539
		c0.012-0.617,0.266-1.375,0.563-1.688s1.125-1.27,1.844-2.128c0.715-0.864,1.52-1.985,1.785-2.497
		c0.266-0.511,0.48-1.121,0.48-1.352s-0.398-1.332-0.883-2.444c-0.484-1.114-0.996-2.024-1.133-2.024s-0.25,0.271-0.25,0.598
		c0,0.332-0.391,1.313-0.863,2.188c-0.473,0.871-1.055,1.965-1.293,2.426s-0.688,1.066-1,1.344
		c-0.316,0.281-1.227,0.559-2.027,0.621l-1.457,0.109l0.07-1.215c0.051-0.882-0.059-1.214-0.406-1.214
		c-0.262,0-0.477-0.161-0.477-0.356c0-0.199,0.219-0.277,0.488-0.172c0.34,0.129,0.734-0.308,1.336-1.504
		c0.469-0.929,0.978-1.742,1.133-1.8c0.156-0.06,0.281-0.422,0.281-0.806c0-0.566-0.27-0.387-1.469,0.984
		c-0.93,1.067-1.641,1.614-1.941,1.5c-0.313-0.121-0.477,0.024-0.477,0.422c0,0.332-0.3,0.793-0.672,1.024
		c-0.539,0.339-0.594,0.511-0.285,0.89c0.32,0.383,0.266,0.465-0.297,0.465c-0.379,0-0.688,0.148-0.688,0.324
		c0,0.18-0.156,0.324-0.344,0.324s-0.254-0.145-0.145-0.324c0.113-0.176,0.047-0.324-0.141-0.324s-0.344,0.273-0.344,0.609
		s-0.203,0.777-0.453,0.984c-0.246,0.207-0.625,0.332-0.84,0.281c-0.211-0.051-0.555,0.191-0.762,0.539
		c-0.206,0.348-0.667,0.892-1.023,1.203c-0.355,0.317-0.828,0.578-1.051,0.586c-0.222,0.004-0.406,0.219-0.406,0.473
		c0,0.255-0.402,0.673-0.891,0.927c-0.488,0.257-1.253,0.668-1.699,0.918c-0.445,0.246-1.164,0.741-1.597,1.097
		c-0.43,0.352-1.125,1.008-1.539,1.453c-0.418,0.446-1.051,1.121-1.411,1.496c-0.355,0.379-0.566,0.902-0.464,1.168
		c0.113,0.297-0.223,0.777-0.887,1.273c-0.586,0.441-1.516,0.98-2.063,1.199c-0.547,0.224-2.004,1.43-3.238,2.688
		c-1.234,1.253-2.488,2.414-2.789,2.573c-0.297,0.16-0.773,0.203-1.051,0.095c-0.281-0.106-0.512-0.399-0.512-0.646
		c0-0.25,0.165-0.453,0.368-0.453c0.199,0,1.156-0.823,2.121-1.828c0.968-1.008,2.418-2.754,3.226-3.887
		c0.809-1.133,1.571-2.059,1.692-2.059c0.125,0,0.804-1.109,1.508-2.46c0.832-1.599,1.597-2.625,2.179-2.926
		c0.492-0.255,0.895-0.603,0.895-0.774s0.48-0.511,1.066-0.758c0.586-0.242,1.461-0.914,1.942-1.484
		c0.484-0.574,0.878-1.332,0.878-1.683c0-0.353,0.118-0.571,0.266-0.478c0.145,0.09,0.203-0.246,0.129-0.742
		c-0.07-0.5,0.09-1.547,0.359-2.331c0.27-0.785,0.59-1.681,0.711-1.992c0.176-0.454,0.051-0.567-0.621-0.567
		c-0.679,0-0.844,0.152-0.844,0.785c0,0.516-0.355,1.039-1.015,1.512c-0.766,0.543-1.145,0.642-1.539,0.388
		c-0.321-0.203-0.524-0.778-0.524-1.474c0-0.969-0.238-1.332-1.613-2.469c-1.117-0.922-1.922-1.336-2.609-1.336
		c-0.547,0-1.157,0.164-1.36,0.368c-0.199,0.198-0.726,0.272-1.172,0.16c-0.445-0.11-1.242-0.567-1.773-1.013
		c-0.527-0.444-1.188-0.809-1.465-0.809c-0.277,0-0.64-0.242-0.805-0.539c-0.261-0.472-0.421-0.41-1.3,0.485
		c-0.551,0.562-1.289,1.022-1.641,1.022s-0.703-0.109-0.781-0.242c-0.078-0.133-0.024-0.563,0.125-0.953
		c0.148-0.395,0.715-0.941,1.258-1.223s0.988-0.726,0.988-0.992c0-0.262-0.211-0.477-0.465-0.477c-0.258,0-0.559,0.145-0.668,0.325
		c-0.109,0.179-0.547,0.323-0.973,0.323c-0.421,0-0.859,0.145-0.972,0.324C85.734,171.856,85.355,172,85,172
		s-1.293,0.293-2.086,0.653c-0.789,0.362-1.676,1.022-1.969,1.472c-0.504,0.766-0.5,0.84,0.078,1.278
		c0.336,0.254,1.071,0.468,1.629,0.472c0.614,0.008,1.094-0.179,1.203-0.472c0.106-0.271,0.547-0.489,0.989-0.489
		c0.441,0,0.898,0.161,1.019,0.352c0.117,0.195,0.055,0.517-0.144,0.715c-0.196,0.199-0.36,0.712-0.36,1.141
		c0,0.645,0.125,0.75,0.7,0.602c0.382-0.102,1.148,0.051,1.699,0.336c0.551,0.285,1.465,0.953,2.027,1.484
		c0.563,0.532,1.09,1.317,1.172,1.742c0.098,0.52-0.16,1.172-0.785,1.98c-0.516,0.664-1.324,1.642-1.801,2.177
		c-0.48,0.534-1.297,1.237-1.816,1.558c-0.524,0.325-1.188,0.496-1.477,0.383c-0.457-0.18-0.43-0.285,0.199-0.801
		c0.403-0.328,0.731-0.75,0.731-0.938s0.305-0.621,0.672-0.969c0.371-0.344,0.754-1.207,0.847-1.918
		c0.141-1.027,0.036-1.43-0.511-1.976c-0.395-0.396-1.098-0.685-1.668-0.685c-0.653,0-1.039-0.19-1.157-0.565
		c-0.097-0.313-0.367-0.922-0.601-1.356c-0.238-0.43-0.774-0.824-1.192-0.871c-0.421-0.047-1.855-0.147-3.187-0.227
		c-1.656-0.093-2.629-0.003-3.078,0.286c-0.465,0.304-2.07,0.425-5.586,0.421c-2.711-0.003-5.117,0.113-5.344,0.254
		c-0.226,0.141-2.527,0.223-5.109,0.18c-2.582-0.043-5.61-0.164-6.723-0.269c-1.648-0.161-2.023-0.302-2.023-0.771
		c0-0.483,0.394-0.604,2.511-0.766c1.379-0.105,3.129-0.188,3.887-0.179c0.754,0.004,1.375-0.134,1.375-0.306
		s-0.183-0.387-0.406-0.477c-0.223-0.089,0.363-0.175,1.297-0.188c0.937-0.016,1.699-0.172,1.699-0.352
		c0-0.175,0.285-0.324,0.633-0.324c0.347,0,0.75-0.187,0.89-0.418c0.145-0.229,1.5-0.609,3.012-0.84
		c1.516-0.234,3.039-0.418,3.387-0.406c0.347,0.008,0.812-0.133,1.031-0.315c0.219-0.181,1.246-0.396,2.285-0.474
		c1.035-0.082,2.321-0.319,2.856-0.531c0.535-0.215,1.164-0.577,1.398-0.809c0.235-0.229,0.637-0.418,0.887-0.418
		c0.254,0,0.644-0.297,0.871-0.664c0.223-0.367,1.133-1.156,2.023-1.754c0.895-0.601,1.864-1.359,2.157-1.683
		c0.293-0.328,0.922-0.946,1.394-1.371c0.598-0.543,0.754-0.884,0.516-1.118c-0.188-0.188-0.34-0.589-0.34-0.898
		c0-0.305-0.254-1-0.563-1.539c-0.449-0.78-0.722-0.944-1.316-0.797c-0.582,0.146-0.793,0.031-0.93-0.5
		c-0.101-0.379-0.437-0.687-0.754-0.687c-0.312,0-0.714-0.185-0.894-0.407c-0.18-0.222-0.324-1.019-0.32-1.773
		c0.004-1.008,0.156-1.414,0.566-1.547c0.309-0.098,1.488,0.267,2.629,0.802c1.137,0.538,2.535,0.979,3.105,0.979
		c0.602,0,1.157-0.211,1.317-0.5c0.222-0.398,0.859-0.496,3.012-0.469c1.503,0.016,3.14,0.063,3.636,0.098
		c0.496,0.035,1.02,0.25,1.16,0.484c0.211,0.336,0.434,0.344,1.125,0.027c0.473-0.215,0.86-0.487,0.86-0.605
		c0-0.121-0.364-0.559-0.809-0.977c-0.445-0.418-0.808-0.887-0.808-1.038c0-0.153,0.5-0.72,1.113-1.255
		c0.613-0.539,1.281-1.491,1.488-2.116c0.309-0.935,0.293-1.211-0.09-1.524c-0.258-0.211-0.761-0.82-1.121-1.354
		c-0.359-0.535-0.836-1.556-1.058-2.271c-0.223-0.711-0.614-1.625-0.868-2.027c-0.347-0.559-0.648-0.684-1.257-0.53
		c-0.465,0.116-0.801,0.062-0.801-0.134c0-0.188,0.254-0.413,0.566-0.512c0.313-0.098-0.086-0.117-0.883-0.043
		c-1.058,0.094-1.781-0.058-2.671-0.558c-0.672-0.375-1.223-0.821-1.223-0.989c0-0.172,0.605-0.207,1.41-0.09
		c1.07,0.164,1.508,0.09,1.828-0.296c0.324-0.388,0.336-0.692,0.059-1.306c-0.199-0.438-0.281-1.008-0.18-1.27
		c0.098-0.261,0.031-0.957-0.156-1.543c-0.192-0.613-0.375-5.336-0.43-11.109c-0.066-7.262-0.203-10.266-0.5-10.852
		c-0.223-0.445-0.406-1.77-0.41-2.941c0-1.172-0.16-2.926-0.355-3.897c-0.286-1.415-0.258-2.082,0.128-3.375l0.481-1.61l0.012,2.27
		c0.004,1.246,0.078,2.996,0.164,3.886s0.261,2.532,0.394,3.645c0.129,1.113,0.348,2.023,0.481,2.023
		c0.132,0,0.328,0.473,0.429,1.055c0.106,0.578,0.368,2.945,0.586,5.262c0.219,2.316,0.367,4.867,0.332,5.668
		c-0.035,0.805,0.168,2.552,0.457,3.891c0.289,1.336,0.61,2.566,0.711,2.739c0.102,0.168,0.227,0.75,0.274,1.293
		c0.047,0.543,0.164,1.733,0.261,2.644c0.094,0.91,0.387,2.164,0.649,2.793c0.262,0.625,0.402,1.211,0.308,1.305
		c-0.093,0.095,0.567,1.238,1.469,2.539c0.903,1.309,1.641,2.742,1.645,3.195c0.004,0.449,0.133,1.021,0.289,1.266
		c0.156,0.246,0.445,0.348,0.64,0.227c0.2-0.125,0.364-0.543,0.368-0.934c0-0.391,0.14-0.926,0.304-1.188
		c0.168-0.261,0.41-0.367,0.547-0.234c0.133,0.138,0.289,0.496,0.344,0.802c0.059,0.308,0.195,1.272,0.312,2.144
		c0.157,1.211,0.094,1.672-0.273,1.946c-0.262,0.194-0.734,0.746-1.043,1.226c-0.437,0.668-0.488,1.017-0.223,1.517
		c0.192,0.354,0.262,0.866,0.157,1.14c-0.106,0.273,0.039,0.957,0.32,1.52c0.437,0.875,0.445,1.109,0.059,1.66
		c-0.25,0.353-0.766,0.863-1.149,1.133c-0.387,0.27-0.625,0.688-0.531,0.931c0.094,0.242,0.023,0.535-0.16,0.644
		c-0.18,0.113-0.719,0.063-1.2-0.113c-0.48-0.176-1.527-0.508-2.328-0.741c-0.804-0.235-1.804-0.688-2.23-1.009
		c-0.426-0.323-1.035-0.586-1.359-0.586c-0.321,0-0.676,0.148-0.786,0.324c-0.109,0.18-0.554,0.238-0.992,0.129
		c-0.656-0.164-0.789-0.078-0.789,0.508c0,0.57,0.172,0.695,0.891,0.648c0.492-0.031,1.058-0.043,1.265-0.023
		s0.754,0.684,1.223,1.48c0.465,0.793,1.023,1.559,1.242,1.699c0.219,0.141,0.672,0.579,1.004,0.969
		c0.59,0.699,0.586,0.731-0.082,1.582c-0.375,0.477-0.684,1.289-0.684,1.797c0,0.613,0.168,0.93,0.489,0.93
		c0.269,0,0.742-0.297,1.054-0.655c0.309-0.36,0.641-0.981,0.739-1.375c0.097-0.396,0.461-0.774,0.808-0.84
		c0.352-0.071,1-0.274,1.446-0.457c0.445-0.188,1.082-0.302,1.41-0.263c0.332,0.043,0.988-0.276,1.461-0.715
		c0.468-0.437,1.261-0.89,1.761-1.012c0.731-0.171,0.872-0.339,0.704-0.867c-0.145-0.449,0.031-0.894,0.546-1.418
		c0.418-0.418,0.961-1.008,1.207-1.313c0.34-0.418,0.356-0.605,0.063-0.788c-0.234-0.146-0.305-0.567-0.18-1.063
		c0.117-0.469,0.055-0.918-0.144-1.043c-0.192-0.117-0.352-0.562-0.352-0.988c0-0.422-0.144-0.858-0.324-0.973
		c-0.176-0.109-0.32-0.468-0.32-0.8c0-0.333,0.175-0.661,0.39-0.731c0.25-0.086,0.36-0.668,0.301-1.604
		c-0.047-0.81-0.414-2.11-0.812-2.892c-0.399-0.78-0.989-1.819-1.313-2.313c-0.32-0.488-0.789-0.891-1.035-0.891
		c-0.32,0-0.449-0.457-0.449-1.62c0-1.224,0.121-1.617,0.488-1.617c0.266,0,0.484-0.235,0.484-0.517c0-0.285-0.3-0.598-0.672-0.69
		c-0.371-0.099-0.812-0.543-0.98-0.989c-0.23-0.605-0.184-0.949,0.184-1.359c0.273-0.301,0.496-0.809,0.496-1.129
		c0-0.477,0.086-0.508,0.488-0.176c0.266,0.223,0.492,0.641,0.5,0.93c0.004,0.289,0.539,0.863,1.18,1.273
		c0.793,0.508,1.543,0.715,2.336,0.649c0.761-0.063,1.164-0.263,1.164-0.571c0-0.266-0.426-0.563-0.969-0.671
		c-0.535-0.114-1.293-0.403-1.684-0.649c-0.39-0.246-0.886-0.781-1.105-1.187c-0.219-0.411-0.539-0.746-0.715-0.746
		c-0.172,0-0.508-0.254-0.742-0.567c-0.238-0.312-0.438-0.805-0.442-1.098c-0.007-0.293-0.226-0.617-0.488-0.718
		c-0.414-0.157-0.406-0.313,0.074-1.146l0.551-0.961l1.606,1.582c0.882,0.871,2.015,1.75,2.511,1.957
		c0.5,0.207,1.129,0.289,1.403,0.184c0.273-0.102,0.656-0.594,0.847-1.086c0.196-0.496,0.387-1.047,0.43-1.227
		c0.047-0.175,0.188-0.757,0.32-1.293c0.133-0.535,0.527-1.703,0.879-2.593c0.352-0.892,0.754-1.91,0.898-2.267
		c0.141-0.354,0.938-2.004,1.762-3.66c0.829-1.659,1.504-3.305,1.504-3.655c0-0.353,0.211-1.149,0.473-1.767
		c0.316-0.758,0.68-1.121,1.125-1.121c0.441,0,0.742-0.293,0.906-0.891c0.137-0.492,0.23-2.785,0.207-5.101
		c-0.023-2.317-0.117-5.306-0.207-6.642c-0.125-1.867-0.039-2.656,0.363-3.402c0.289-0.535,0.809-1.301,1.156-1.699
		c0.344-0.403,0.879-0.731,1.184-0.731c0.309,0,1.016-0.523,1.578-1.164c0.617-0.699,1.207-1.09,1.492-0.98
		c0.258,0.097,0.469,0.476,0.469,0.839c0,0.368-0.211,0.657-0.484,0.657c-0.266,0-0.504,0.109-0.527,0.242
		c-0.023,0.137-0.078,0.586-0.117,1c-0.042,0.414-0.258,1.293-0.473,1.953c-0.352,1.062-0.301,1.461,0.469,3.617
		c0.473,1.332,1.008,3.367,1.184,4.527c0.176,1.157,0.441,2.907,0.586,3.887c0.145,0.977,0.645,3.231,1.109,5.004
		c0.605,2.313,0.848,4.039,0.848,6.103c0,2.12-0.105,2.84-0.398,2.741c-0.215-0.069-0.488-0.484-0.602-0.918
		c-0.18-0.676-0.242-0.707-0.449-0.219c-0.133,0.313-0.367,0.57-0.527,0.57c-0.156,0-0.379-0.593-0.496-1.316
		c-0.148-0.94-0.309-1.219-0.559-0.969c-0.191,0.192-0.453,1.328-0.586,2.532c-0.129,1.198-0.387,3.253-0.57,4.562
		c-0.211,1.469-0.223,2.59-0.039,2.935c0.164,0.308,0.371,2.218,0.465,4.241l0.164,3.684l1.766,1.766
		c1.398,1.398,1.992,1.773,2.852,1.801c0.598,0.02,1.285,0.23,1.535,0.466c0.277,0.265,0.332,0.539,0.145,0.726
		c-0.191,0.192-0.535,0.141-0.91-0.136c-0.523-0.383-0.754-0.356-1.684,0.19c-0.594,0.352-1.078,0.836-1.078,1.078
		s0.582,0.613,1.293,0.828c1.109,0.332,1.48,0.301,2.617-0.211c1.172-0.527,1.301-0.691,1.117-1.426
		c-0.113-0.457-0.266-1.3-0.336-1.871c-0.07-0.574,0.012-1.129,0.184-1.234c0.168-0.104,0.309-0.473,0.309-0.813
		c0-0.339,0.602-1.496,1.34-2.57s1.465-1.953,1.621-1.953c0.152,0,0.277-0.269,0.277-0.598c0-0.328,0.293-0.863,0.648-1.184
		c0.355-0.323,0.648-0.852,0.648-1.176c0-0.319,0.301-0.746,0.672-0.944c0.375-0.2,0.598-0.56,0.5-0.81
		c-0.094-0.25-0.027-0.543,0.148-0.652c0.18-0.109,0.711-0.805,1.188-1.547c0.797-1.25,0.859-1.621,0.875-4.98
		c0.012-2.488-0.109-3.753-0.387-4.031c-0.223-0.222-0.406-1.07-0.406-1.883s-0.309-2.277-0.684-3.257
		c-0.375-0.978-0.758-2.177-0.848-2.668c-0.09-0.489-0.277-0.892-0.422-0.892s-0.496-0.09-0.785-0.198
		c-0.445-0.173-0.492,0-0.324,1.215c0.109,0.776,0.563,2.921,1.008,4.757c0.637,2.645,0.773,3.903,0.656,5.996
		c-0.086,1.454-0.262,3.157-0.395,3.782c-0.137,0.62-0.473,1.495-0.754,1.94c-0.277,0.445-1.109,1.43-1.848,2.185
		c-0.734,0.754-1.434,1.272-1.551,1.159c-0.113-0.116-0.207-0.676-0.207-1.246s0.285-1.402,0.641-1.852
		c0.352-0.449,0.797-1.16,0.984-1.582c0.191-0.422,0.563-1.133,0.832-1.578c0.375-0.625,0.445-1.434,0.301-3.562
		c-0.102-1.517-0.195-4.095-0.207-5.735c-0.012-1.637-0.145-3.531-0.297-4.203c-0.207-0.922-0.16-1.354,0.191-1.742
		c0.27-0.301,0.469-1.168,0.469-2.055c0-0.914-0.191-1.726-0.473-2.008c-0.258-0.261-0.39-0.688-0.289-0.949
		c0.098-0.262,0.313-0.394,0.473-0.293c0.156,0.098,0.309-0.012,0.332-0.246c0.027-0.233,0.016-0.941-0.02-1.574
		c-0.043-0.742,0.16-1.434,0.566-1.934c0.559-0.691,0.695-0.73,1.184-0.324c0.484,0.402,0.594,0.391,0.863-0.09
		c0.172-0.304,0.43-0.551,0.574-0.551c0.148,0,0.344,0.481,0.441,1.071c0.094,0.59,0.43,1.644,0.742,2.347
		c0.313,0.704,0.59,1.352,0.617,1.441c0.031,0.091,0.23,0.785,0.449,1.548c0.219,0.758,0.328,1.495,0.242,1.633
		c-0.086,0.136-0.027,0.453,0.125,0.699c0.223,0.362,0.371,0.37,0.758,0.051c0.383-0.317,0.535-0.313,0.738,0.015
		c0.141,0.231,0.605,1.074,1.035,1.879c0.426,0.806,1.234,1.859,1.793,2.34c0.563,0.484,1.293,0.884,1.629,0.892
		c0.492,0.011,0.563,0.179,0.391,0.905c-0.113,0.488-0.238,1.255-0.277,1.695c-0.055,0.621-0.297,0.849-1.043,0.981
		c-0.953,0.168-0.969,0.207-0.832,1.785c0.078,0.886,0.133,2.995,0.121,4.687c-0.016,1.696-0.195,4.535-0.402,6.317
		c-0.211,1.78-0.52,3.379-0.688,3.546c-0.168,0.172-0.305,0.57-0.305,0.891c0,0.324,0.203,0.586,0.453,0.586
		c0.246,0,0.902-0.516,1.457-1.144c0.551-0.633,1.004-1.36,1.004-1.622c0-0.261,0.156-0.477,0.348-0.477
		c0.211,0,0.255,0.281,0.109,0.73c-0.133,0.403-0.266,1.168-0.297,1.7c-0.035,0.535-0.23,1.382-0.434,1.886
		c-0.207,0.504-0.293,1.235-0.195,1.625c0.129,0.512-0.098,0.973-0.813,1.66c-0.625,0.598-0.926,1.152-0.816,1.5
		c0.098,0.301-0.039,0.766-0.3,1.027c-0.419,0.419-0.38,0.527,0.335,0.91c0.457,0.242,0.891,0.824,0.992,1.34
		c0.098,0.496,0.352,0.902,0.559,0.902s0.945-0.289,1.645-0.644c0.699-0.36,1.559-0.649,1.906-0.649c0.352,0,0.91-0.25,1.246-0.551
		c0.492-0.449,0.777-0.488,1.527-0.203c0.508,0.192,1.059,0.258,1.223,0.145c0.164-0.109,0.402-0.473,0.523-0.805
		c0.169-0.453,0.406-0.547,0.949-0.379c0.398,0.125,1.363,0.34,2.145,0.481c0.781,0.136,1.555,0.487,1.715,0.78
		c0.164,0.293,0.59,0.531,0.945,0.531c0.352,0,1.07-0.315,1.594-0.707c0.898-0.66,0.988-0.672,1.559-0.156
		c0.441,0.402,1.203,0.552,2.84,0.556c1.23,0,2.566,0,2.965,0c0.434-0.004,0.73,0.187,0.73,0.472c0,0.266-0.145,0.485-0.324,0.485
		s-0.323,0.194-0.323,0.429c0,0.239-0.353,0.621-0.782,0.852c-0.434,0.23-1.926,0.434-3.32,0.453
		c-1.398,0.017-3.34-0.008-4.32-0.055c-0.98-0.051-2.145-0.043-2.59,0.016c-0.445,0.056-1.129,0.281-1.52,0.5
		c-0.391,0.22-1.035,0.395-1.438,0.395c-0.398,0-1.355,0.305-2.125,0.676c-0.77,0.375-1.398,0.793-1.398,0.938
		c0,0.14-0.84,0.663-1.863,1.163c-1.023,0.496-2.227,1.281-2.672,1.742s-1.441,1.332-2.211,1.935
		c-0.773,0.601-1.75,1.644-2.176,2.315c-0.422,0.668-0.859,1.574-0.969,2.013c-0.148,0.586-0.047,0.851,0.391,1.019
		c0.434,0.164,0.883-0.09,1.672-0.953c0.629-0.687,1.27-1.104,1.539-1c0.254,0.094,0.457,0.379,0.457,0.633
		c0,0.25-0.219,0.638-0.484,0.859c-0.266,0.219-0.484,0.731-0.484,1.133c0,0.402-0.23,0.918-0.508,1.152
		c-0.281,0.23-0.719,0.825-0.973,1.316c-0.254,0.496-0.465,1.125-0.465,1.402c0,0.274,0.195,0.5,0.43,0.5s0.727-0.328,1.086-0.726
		c0.363-0.403,0.875-1.168,1.137-1.704c0.262-0.531,0.719-1.457,1.016-2.05c0.301-0.595,0.543-1.728,0.543-2.521
		c0-0.979,0.156-1.5,0.484-1.629c0.27-0.101,0.488-0.394,0.488-0.648c0-0.25,0.219-0.543,0.484-0.645
		c0.27-0.105,0.488-0.402,0.488-0.668c0-0.265,0.395-0.898,0.879-1.414c0.484-0.511,1.273-1.019,1.754-1.125
		c0.48-0.105,0.957-0.398,1.055-0.656s0.488-0.465,0.867-0.465s1.074-0.265,1.547-0.586c0.535-0.359,1.586-0.613,2.766-0.668
		c1.656-0.074,1.879-0.015,1.703,0.449c-0.113,0.293-0.207,0.594-0.207,0.668c0,0.075-0.445,0.137-0.992,0.137
		c-0.832,0-0.961,0.098-0.797,0.621c0.16,0.5,0.07,0.586-0.453,0.449c-0.355-0.093-1.281,0.137-2.059,0.512
		c-0.773,0.375-1.559,0.684-1.742,0.684s-0.578,0.27-0.875,0.598c-0.508,0.563-0.5,0.652,0.138,1.457
		c0.37,0.473,0.519,0.859,0.327,0.859s-0.348-0.145-0.348-0.323c0-0.177-0.293-0.321-0.648-0.321c-0.48,0-0.648,0.215-0.648,0.832
		c0,0.664,0.148,0.821,0.73,0.773c0.398-0.03,0.859-0.043,1.023-0.023s-0.27,0.528-0.965,1.129
		c-1.102,0.949-1.207,1.157-0.824,1.617c0.242,0.293,0.703,0.527,1.027,0.527c0.325,0,0.684-0.152,0.801-0.34
		c0.125-0.203,0.617-0.254,1.199-0.129c0.922,0.203,0.969,0.164,0.785-0.578c-0.156-0.621,0.012-0.987,0.762-1.655
		c0.528-0.474,1.109-0.86,1.289-0.86s0.328,0.149,0.328,0.325c0,0.179,0.117,0.324,0.258,0.324c0.145,0,0.531-0.949,0.863-2.11
		c0.332-1.16,0.762-2.242,0.957-2.398c0.191-0.16,0.715-0.34,1.16-0.401c0.551-0.075,0.844-0.345,0.914-0.84
		c0.055-0.399,0.184-0.728,0.285-0.728s0.75,0.168,1.445,0.375c0.965,0.289,1.352,0.289,1.641,0
		c0.207-0.207,0.723-0.375,1.145-0.375s1.066-0.16,1.434-0.359c0.367-0.195,1.242-0.422,1.945-0.5
		c0.785-0.094,1.988,0.098,3.117,0.488c1.016,0.353,2.242,0.56,2.734,0.465c0.496-0.098,1.113,0.013,1.391,0.242
		c0.414,0.344,0.598,0.32,1.051-0.141c0.52-0.527,0.52-0.585-0.023-0.988c-0.52-0.383-0.523-0.449-0.055-0.629
		c0.285-0.109,1.059-0.199,1.719-0.199c0.656,0,1.516,0.224,1.902,0.496c0.391,0.271,0.637,0.68,0.547,0.906
		c-0.086,0.227-0.594,0.672-1.125,0.984c-0.805,0.477-1.375,0.535-3.313,0.348c-1.285-0.125-2.848-0.246-3.473-0.266
		c-0.719-0.023-1.105-0.188-1.055-0.444c0.055-0.271-0.352-0.403-1.219-0.403c-1.242,0-1.293,0.039-1.09,0.844
		c0.203,0.806,0.164,0.836-0.805,0.621c-0.77-0.168-1.063-0.098-1.211,0.289c-0.109,0.281-0.402,0.512-0.656,0.512
		s-0.598,0.363-0.77,0.809c-0.168,0.446-0.473,0.813-0.676,0.813c-0.254,0-0.297,0.47-0.141,1.539
		c0.125,0.845,0.434,1.767,0.684,2.047c0.254,0.281,0.457,0.755,0.457,1.048c0,0.297-0.348,0.625-0.781,0.733
		c-0.434,0.106-1.051,0.146-1.379,0.082c-0.352-0.065-0.629-0.44-0.684-0.918c-0.051-0.445,0.203-1.383,0.566-2.09
		c0.379-0.738,0.535-1.398,0.371-1.566c-0.168-0.164-0.379-0.137-0.504,0.066c-0.121,0.196-0.43,0.352-0.684,0.352
		c-0.258,0-0.43-0.18-0.387-0.401c0.043-0.228-0.301-0.45-0.77-0.504c-0.734-0.086-0.883,0.05-1.074,0.972
		c-0.121,0.586-0.301,1.696-0.398,2.461c-0.098,0.778,0,1.809,0.223,2.348c0.219,0.527,0.598,0.957,0.844,0.957
		c0.309,0,0.445,0.427,0.445,1.395c0,0.766,0.129,1.532,0.281,1.7c0.156,0.168,0.367,0.854,0.469,1.522
		c0.156,1.047,0.098,1.215-0.445,1.215c-0.348,0-0.629,0.22-0.629,0.5c0,0.297,0.23,0.461,0.57,0.402
		c0.477-0.078,0.551,0.125,0.477,1.293c-0.047,0.762,0.063,1.66,0.242,2c0.215,0.403,0.613,0.59,1.141,0.531
		c0.449-0.046,0.91-0.184,1.027-0.3c0.117-0.117,0.32-0.216,0.45-0.216c0.128,0,0.323,0.345,0.429,0.766
		c0.145,0.583,0.559,0.863,1.734,1.18c0.848,0.231,1.684,0.539,1.852,0.692c0.18,0.164-0.023,0.289-0.484,0.308
		c-0.438,0.016,0.262,0.219,1.555,0.453c1.852,0.336,2.82,0.348,4.59,0.047c1.234-0.207,2.355-0.484,2.484-0.617
		c0.133-0.129,1.164-0.237,2.293-0.237c1.125,0,2.051,0.108,2.051,0.241c0,0.134,0.449,0.5,1,0.813
		c0.547,0.309,1.398,0.566,1.891,0.566s1.113,0.255,1.383,0.566c0.266,0.313,0.566,0.797,0.668,1.082
		c0.098,0.285,0.711,0.77,1.363,1.078c0.926,0.438,1.281,0.477,1.645,0.176c0.367-0.305,0.504-0.277,0.66,0.121
		c0.105,0.281,0.094,0.672-0.031,0.871c-0.121,0.196-0.422,0.282-0.664,0.192c-0.246-0.095-0.531-0.032-0.637,0.136
		c-0.105,0.172,0.105,0.313,0.465,0.313s0.949,0.316,1.313,0.703c0.598,0.646,0.613,0.758,0.148,1.271
		c-0.309,0.339-0.465,0.983-0.402,1.632c0.078,0.793-0.035,1.098-0.434,1.18c-0.324,0.067-0.766-0.281-1.121-0.883
		c-0.32-0.543-0.813-1.063-1.086-1.148c-0.277-0.086-1.301-0.879-2.277-1.758c-1.555-1.397-2.008-1.629-3.605-1.812
		c-1.246-0.146-2.383-0.056-3.563,0.28c-0.957,0.273-3.414,0.652-5.461,0.845c-2.051,0.19-4.281,0.437-4.957,0.543
		c-0.895,0.14-1.387,0.046-1.816-0.34c-0.508-0.457-1.137-0.509-4.441-0.336c-2.117,0.104-4.203,0.183-4.633,0.172
		c-0.43-0.017-1.051,0.214-1.375,0.511c-0.328,0.293-0.594,0.66-0.594,0.809c0,0.152,0.363,0.273,0.809,0.273
		s0.809,0.148,0.809,0.325c0,0.179-0.258,0.323-0.574,0.323c-0.344,0-0.727,0.395-0.945,0.973c-0.199,0.536-0.582,0.973-0.844,0.973
		s-0.551-0.293-0.645-0.647c-0.102-0.388-0.441-0.649-0.848-0.649c-0.371,0-0.676-0.136-0.676-0.304s0.145-0.396,0.32-0.504
		c0.18-0.114,0.324-0.435,0.324-0.716c0-0.28,0.211-0.672,0.465-0.87c0.254-0.2,0.508-0.942,0.566-1.657
		c0.078-0.98-0.012-1.293-0.383-1.293c-0.309,0-0.457,0.262-0.406,0.727c0.039,0.402-0.07,0.731-0.246,0.731s-0.32-0.293-0.32-0.649
		c0-0.354-0.148-0.647-0.332-0.647c-0.18,0-0.422,0.464-0.535,1.03c-0.199,1-0.215,1.009-0.488,0.267
		c-0.156-0.422-0.191-1.396-0.074-2.165c0.113-0.77,0.32-1.398,0.461-1.398c0.137,0,0.313-0.422,0.387-0.94
		c0.074-0.517-0.055-1.2-0.285-1.521c-0.354-0.483-0.426-0.496-0.426-0.07c0,0.277-0.203,0.677-0.453,0.884
		c-0.277,0.229-0.551,1.421-0.703,3.035c-0.137,1.465-0.211,3.097-0.164,3.633c0.043,0.535,0.289,1.203,0.539,1.483
		c0.25,0.281,0.457,0.688,0.457,0.902s0.309,0.813,0.688,1.324c0.488,0.657,0.629,1.18,0.48,1.77
		c-0.164,0.656-0.09,0.836,0.348,0.836c0.434,0,0.469,0.086,0.168,0.392c-0.215,0.211-0.387,0.621-0.387,0.905
		c0,0.285,0.48,0.984,1.066,1.556c0.586,0.569,1.207,1.035,1.375,1.035c0.172,0,0.883,0.511,1.582,1.132
		c0.703,0.625,1.578,1.137,1.945,1.137s1.254,0.36,1.965,0.801c0.715,0.438,1.52,0.801,1.793,0.81
		c0.27,0.003,0.941,0.336,1.492,0.737c0.547,0.398,1.621,1.203,2.387,1.781s1.723,1.051,2.125,1.051
		c0.461,0,1.086,0.449,1.688,1.216c0.527,0.668,1.055,1.53,1.176,1.918c0.129,0.413,0.063,0.797-0.168,0.94
		c-0.23,0.142-0.633-0.101-1-0.608c-0.535-0.735-0.719-0.798-1.398-0.489c-0.645,0.297-0.906,0.243-1.52-0.316
		c-0.409-0.367-1.273-1.117-1.918-1.664c-0.648-0.547-1.324-0.996-1.504-0.996s-0.414-0.219-0.516-0.483
		c-0.102-0.267-0.418-0.485-0.707-0.485c-0.285,0-0.738-0.223-1.008-0.492c-0.266-0.266-0.605-0.414-0.75-0.323
		c-0.141,0.086-0.438-0.056-0.656-0.317c-0.285-0.343-0.555-0.386-0.988-0.156c-0.391,0.211-0.66,0.207-0.793-0.008
		c-0.109-0.179-0.668-0.324-1.234-0.324c-0.57,0-1.617-0.354-2.328-0.789c-1.063-0.645-1.195-0.824-0.73-1.004
		c0.313-0.121,0.566-0.426,0.566-0.676s-0.449-0.73-0.996-1.063s-1.27-0.534-1.605-0.445c-0.449,0.118-0.664-0.063-0.824-0.699
		c-0.117-0.468-0.605-1.058-1.09-1.308c-0.48-0.246-1.066-0.681-1.297-0.957c-0.23-0.282-0.66-0.509-0.949-0.509
		c-0.293,0-1.289-0.773-2.211-1.715c-0.926-0.94-1.965-2.362-2.313-3.155c-0.352-0.798-0.848-1.728-1.109-2.071
		c-0.262-0.343-0.824-0.652-1.246-0.688c-0.426-0.035-1.188,0.148-1.695,0.406c-0.504,0.258-0.973,0.414-1.035,0.353
		c-0.066-0.067,0.328-1.06,0.875-2.207c0.836-1.755,0.953-2.274,0.715-3.228c-0.156-0.629-0.426-1.109-0.605-1.07
		c-0.176,0.035-0.395,0.513-0.484,1.056c-0.09,0.542-0.563,1.41-1.055,1.925c-0.488,0.52-0.891,1.172-0.891,1.457
		c0,0.282-0.199,0.516-0.445,0.516s-0.602-0.19-0.793-0.422c-0.242-0.289-0.254-1.07-0.047-2.508
		c0.164-1.152,0.305-2.203,0.309-2.336c0.004-0.132-0.215-0.242-0.48-0.242c-0.27,0-0.484,0.289-0.484,0.649
		c0,0.354-0.137,0.647-0.305,0.647s-0.402,0.646-0.52,1.431c-0.117,0.788-0.488,1.726-0.828,2.09
		c-0.367,0.394-0.48,0.737-0.285,0.854c0.18,0.113,0.242,0.34,0.137,0.513c-0.102,0.168-0.668,0.504-1.25,0.75
		c-0.586,0.241-1.387,0.897-1.784,1.452c-0.396,0.556-0.919,1.009-1.169,1.009s-0.609,0.289-0.801,0.647
		c-0.191,0.356-0.625,0.646-0.965,0.646c-0.344,0-0.738,0.183-0.879,0.409c-0.145,0.223-0.988,0.77-1.879,1.216
		c-1.406,0.698-1.609,0.922-1.52,1.668c0.066,0.569-0.16,1.112-0.676,1.616c-0.43,0.418-1.09,1.309-1.469,1.977
		c-0.551,0.969-0.594,1.215-0.215,1.215c0.262,0,0.477,0.11,0.473,0.242c0,0.133-0.582,0.754-1.293,1.375
		c-0.707,0.625-1.289,1.305-1.293,1.516c0,0.207-0.477,0.48-1.055,0.603c-0.578,0.125-1.168,0.296-1.313,0.378
		c-0.141,0.086-0.086,0.363,0.129,0.618c0.211,0.257,0.27,0.569,0.133,0.702c-0.141,0.13-0.316,0.052-0.398-0.172
		c-0.078-0.223-0.422-0.405-0.766-0.405c-0.445,0-0.621,0.229-0.621,0.812c0,0.445-0.133,0.809-0.297,0.809
		c-0.168,0-0.531,0.462-0.813,1.023c-0.281,0.559-0.508,1.348-0.508,1.746c0,0.399-0.219,0.809-0.488,0.91
		c-0.285,0.109-0.484,0.598-0.484,1.176c0,0.766-0.188,1.063-0.832,1.309c-0.457,0.173-0.883,0.316-0.949,0.316V209.25z
		 M115.297,199.856c0.074,0,0.363-0.086,0.648-0.195c0.281-0.109,0.512-0.387,0.512-0.621s0.18-0.496,0.402-0.586
		c0.254-0.102,0.203-0.175-0.133-0.191c-0.297-0.012-0.773,0.063-1.055,0.172c-0.281,0.109-0.512,0.474-0.512,0.81
		C115.16,199.583,115.223,199.856,115.297,199.856L115.297,199.856z M117.813,197.551c0.125,0.024,0.305-0.09,0.402-0.25
		c0.102-0.16-0.047-0.379-0.328-0.488c-0.281-0.105-0.719-0.194-0.973-0.194c-0.25,0-0.457,0.136-0.457,0.3s0.254,0.367,0.566,0.45
		C117.336,197.451,117.691,197.533,117.813,197.551L117.813,197.551z M105.906,182.688c0.524,0,0.942-0.227,1.086-0.59
		c0.129-0.324,0.598-1.059,1.043-1.625c0.445-0.569,1.355-1.699,2.023-2.508c0.668-0.808,1.215-1.683,1.215-1.949
		c0-0.262,0.246-0.871,0.551-1.355c0.301-0.484,0.922-1.27,1.375-1.746c0.648-0.675,1.027-0.824,1.758-0.679
		c0.668,0.133,1.02,0.034,1.231-0.349c0.167-0.293,0.577-0.535,0.913-0.535s0.688-0.121,0.777-0.27
		c0.094-0.148,0.828-0.242,1.641-0.207c0.809,0.035,1.473-0.047,1.473-0.183c0-0.134-0.355-0.332-0.789-0.438
		c-0.434-0.109-1.023-0.433-1.309-0.722c-0.289-0.286-1.063-0.668-1.723-0.849c-0.66-0.176-1.93-0.387-2.82-0.465
		c-1.184-0.101-1.488-0.047-1.133,0.195c0.266,0.184,0.73,0.34,1.031,0.34c0.297,0.004,0.953,0.168,1.457,0.367
		c0.848,0.332,0.863,0.379,0.262,0.625c-0.355,0.145-1.191,0.273-1.859,0.286c-0.668,0.015-1.215,0.171-1.215,0.347
		c0,0.18-0.449,0.324-0.996,0.324s-1.215,0.219-1.48,0.489c-0.27,0.265-0.77,0.483-1.109,0.483c-0.344,0-0.625,0.121-0.625,0.267
		c0,0.147,0.363,0.612,0.809,1.03s0.809,1.099,0.809,1.513c0,0.538-0.184,0.754-0.648,0.754c-0.422,0-0.645-0.216-0.645-0.625
		c0-0.345-0.23-0.853-0.512-1.134c-0.277-0.28-1-0.508-1.598-0.508c-0.597,0-1.496-0.155-1.988-0.344
		c-0.496-0.187-2.219-0.375-3.828-0.414c-1.832-0.047-3.172,0.07-3.574,0.317c-0.36,0.214-1.086,0.429-1.621,0.483
		c-0.535,0.052-1.141-0.012-1.348-0.137c-0.207-0.129-0.605-0.144-0.891-0.035c-0.281,0.109-0.515,0.406-0.515,0.66
		c0,0.367,0.351,0.422,1.703,0.262c0.934-0.108,1.848-0.242,2.031-0.297c0.188-0.055,1.133,0.043,2.11,0.215
		c0.972,0.172,2.289,0.297,2.929,0.277c0.637-0.019,1.582,0.184,2.106,0.457c0.519,0.27,1.09,0.496,1.269,0.5
		c0.176,0,0.602,0.582,0.938,1.289c0.609,1.27,0.609,1.305-0.055,3.316c-0.371,1.117-0.769,2.285-0.894,2.598
		C105.094,182.576,105.223,182.688,105.906,182.688L105.906,182.688z M157.316,180.555c0.152-0.094,0.277-0.309,0.277-0.477
		s-0.219-0.305-0.484-0.305c-0.27,0-0.488,0.121-0.488,0.27c0,0.149,0.094,0.364,0.211,0.477
		C156.945,180.633,157.164,180.649,157.316,180.555L157.316,180.555z M151.766,180.098c0.176,0,0.324-0.145,0.324-0.324
		s-0.148-0.323-0.324-0.323c-0.18,0-0.324,0.144-0.324,0.323S151.586,180.098,151.766,180.098L151.766,180.098z M127.004,179.774
		c0.305,0,0.465-0.344,0.465-1c0-0.734,0.176-1.051,0.652-1.176c0.359-0.094,0.738-0.516,0.844-0.94
		c0.109-0.422,0.273-0.771,0.367-0.771s0.359,0.254,0.59,0.566c0.398,0.54,0.426,0.54,0.637,0c0.121-0.313,0.129-0.75,0.02-0.973
		s-0.465-0.84-0.789-1.375c-0.324-0.534-0.797-1.008-1.051-1.047c-0.254-0.043-0.676,0.105-0.945,0.324
		c-0.266,0.219-0.832,1.067-1.262,1.887c-0.617,1.188-0.727,1.738-0.535,2.75c0.129,0.695,0.305,1.375,0.387,1.509
		C126.469,179.665,126.746,179.774,127.004,179.774L127.004,179.774z M118.41,174.915c0.184,0,0.418-0.218,0.52-0.484
		c0.102-0.27,0.383-0.487,0.621-0.487c0.234,0,0.516-0.134,0.617-0.302c0.102-0.164,0.059-0.379-0.102-0.477
		c-0.156-0.097-0.668,0.153-1.137,0.555c-0.469,0.402-0.855,0.836-0.855,0.965C118.074,174.809,118.227,174.915,118.41,174.915
		L118.41,174.915z M134.922,173.133c0.176-0.109,0.32-0.336,0.32-0.504s-0.145-0.304-0.32-0.304c-0.18,0-0.324,0.226-0.324,0.503
		S134.742,173.244,134.922,173.133L134.922,173.133z M74.805,172.947c0.34,0.015,0.531-0.063,0.425-0.168
		c-0.109-0.11-0.386-0.121-0.621-0.028C74.352,172.852,74.426,172.93,74.805,172.947L74.805,172.947z M132.375,172.973
		c0.34,0,0.703-0.211,0.801-0.465s-0.152-0.91-0.559-1.457s-0.824-0.851-0.934-0.676c-0.109,0.176-0.137,0.832-0.066,1.457
		C131.719,172.697,131.902,172.973,132.375,172.973L132.375,172.973z M120.992,172.326c0.176,0,0.324-0.146,0.324-0.325
		c0-0.179-0.148-0.324-0.324-0.324c-0.18,0-0.324,0.146-0.324,0.324C120.668,172.18,120.813,172.326,120.992,172.326
		L120.992,172.326z M94.172,170.77c0.301-0.305,0.301-0.477,0-0.776c-0.305-0.306-0.391-0.22-0.391,0.386
		C93.781,170.986,93.867,171.072,94.172,170.77L94.172,170.77z M146.23,169.086c0.152,0,0.367-0.484,0.48-1.074
		c0.109-0.586,0.48-1.621,0.828-2.297c0.344-0.676,0.715-1.633,0.82-2.129c0.137-0.609,0.031-1.07-0.328-1.429
		c-0.293-0.289-0.676-0.438-0.852-0.332c-0.176,0.108-0.234,0.421-0.129,0.694c0.105,0.27-0.008,0.656-0.25,0.855
		c-0.242,0.2-0.695,1.067-1.012,1.922c-0.539,1.473-0.543,1.59-0.012,2.176c0.309,0.336,0.473,0.84,0.367,1.113
		C146.039,168.861,146.078,169.086,146.23,169.086L146.23,169.086z M109.141,168.086c0.34,0.016,0.531-0.063,0.426-0.168
		c-0.109-0.109-0.387-0.121-0.621-0.027C108.688,167.997,108.762,168.072,109.141,168.086L109.141,168.086z M136.457,168.111
		c0.137-0.005,0.465-0.149,0.73-0.321c0.395-0.254,0.348-0.316-0.242-0.32c-0.402-0.004-0.73,0.142-0.73,0.32
		C136.215,167.969,136.324,168.111,136.457,168.111L136.457,168.111z M86.574,167.454c0.133-0.003,0.496-0.203,0.809-0.438
		c0.32-0.246,0.566-0.858,0.566-1.41c0-0.534,0.219-1.155,0.485-1.379c0.265-0.219,0.414-0.512,0.328-0.648
		c-0.086-0.136-0.668-0.016-1.293,0.266c-1.071,0.488-1.137,0.609-1.137,2.07C86.332,166.766,86.441,167.461,86.574,167.454
		L86.574,167.454z M108.777,164.875c0.77,0,1.555-0.16,1.75-0.355c0.195-0.194,1.461-0.409,2.813-0.477
		c1.359-0.066,2.898-0.347,3.438-0.625c0.914-0.472,0.973-0.621,0.973-2.398c0-1.237-0.156-2.026-0.457-2.276
		c-0.25-0.208-0.871-0.411-1.375-0.446c-0.898-0.062-0.918-0.027-0.867,1.477c0.047,1.419-0.016,1.555-0.809,1.746
		c-0.477,0.113-1.059,0.359-1.301,0.552c-0.238,0.187-0.719,0.386-1.066,0.44c-0.344,0.051-1.023,0.383-1.504,0.734
		c-0.484,0.355-1.242,0.707-1.688,0.789c-0.446,0.079-0.921,0.152-1.055,0.168c-0.133,0.012-0.242,0.168-0.242,0.348
		C107.387,164.727,108.012,164.875,108.777,164.875L108.777,164.875z M80.695,158.309c0.11-0.108,0.121-0.387,0.028-0.621
		c-0.106-0.258-0.18-0.184-0.196,0.195C80.512,158.223,80.59,158.415,80.695,158.309L80.695,158.309z M162.98,157.262
		c0.426-0.578,0.422-0.66-0.051-0.758c-0.289-0.058-0.605-0.031-0.703,0.067c-0.098,0.097-0.074,0.437,0.047,0.757
		C162.488,157.875,162.527,157.872,162.98,157.262L162.98,157.262z M163.102,155.106c0.445,0,0.629-0.073,0.406-0.163
		c-0.223-0.091-0.59-0.091-0.813,0C162.473,155.033,162.656,155.106,163.102,155.106L163.102,155.106z M108.555,140.494
		c0.105-0.11,0.117-0.388,0.023-0.622c-0.101-0.257-0.18-0.184-0.195,0.196C108.371,140.408,108.445,140.598,108.555,140.494
		L108.555,140.494z M111.844,136.52c0.543-0.27,1.07-0.707,1.168-0.969c0.102-0.262,0.375-0.479,0.613-0.479
		c0.234,0,0.445-0.254,0.473-0.567c0.027-0.308,0.195-1.148,0.371-1.859c0.18-0.715,0.469-1.862,0.645-2.551
		c0.176-0.69,0.477-1.414,0.668-1.604c0.195-0.192,0.352-1.403,0.352-2.696c0-1.289-0.141-2.429-0.313-2.535
		c-0.172-0.104-0.609,0.391-0.973,1.103c-0.363,0.715-0.895,2.14-1.184,3.172c-0.285,1.03-0.594,2.276-0.684,2.772
		c-0.09,0.492-0.441,1.047-0.781,1.23c-0.34,0.18-0.531,0.477-0.422,0.652c0.109,0.177,0.047,0.509-0.141,0.734
		c-0.191,0.227-0.441,1.238-0.559,2.25l-0.219,1.84L111.844,136.52z M115.637,122.115c0.094,0,0.16-0.618,0.145-1.375
		c-0.023-1.317-0.039-1.336-0.352-0.478c-0.184,0.496-0.25,1.117-0.148,1.379C115.383,121.904,115.543,122.115,115.637,122.115
		L115.637,122.115z M122.484,121.055c0.105-0.104,0.117-0.387,0.023-0.621c-0.102-0.258-0.18-0.18-0.195,0.195
		C122.297,120.973,122.375,121.165,122.484,121.055L122.484,121.055z M121.996,117.352c0.152-0.148,0.188-0.816,0.078-1.48
		s-0.324-1.207-0.477-1.207c-0.156,0-0.281,0.329-0.277,0.73c0,0.398,0.094,1.066,0.203,1.477
		C121.637,117.286,121.848,117.5,121.996,117.352L121.996,117.352z M83.836,207.016c-0.234,0.234-0.414,0.238-0.551,0.02
		c-0.113-0.184-0.047-0.43,0.149-0.546c0.191-0.121,0.437-0.129,0.55-0.021C84.094,206.583,84.027,206.829,83.836,207.016
		L83.836,207.016z M85.254,205.688c-0.121,0-0.219-0.112-0.219-0.25c0-0.141,0.254-0.484,0.567-0.766
		c0.312-0.281,0.82-0.824,1.132-1.207c0.309-0.379,0.793-0.691,1.075-0.691c0.312,0,0.472,0.22,0.406,0.559
		c-0.059,0.305-0.434,0.719-0.832,0.918c-0.399,0.2-0.992,0.605-1.317,0.899C85.738,205.447,85.371,205.688,85.254,205.688
		L85.254,205.688z M122.574,195c-0.156,0-0.289-0.183-0.289-0.41c0-0.222,0.477-0.594,1.055-0.828
		c0.578-0.229,1.488-0.625,2.023-0.875s1.555-0.551,2.27-0.672c0.711-0.117,1.441-0.324,1.617-0.453
		c0.18-0.129,0.75-0.34,1.273-0.465c0.52-0.125,2.242-0.254,3.824-0.289c2.656-0.055,2.926-0.121,3.488-0.867
		c0.477-0.633,0.699-0.727,1-0.422c0.305,0.301,0.273,0.57-0.148,1.215c-0.301,0.453-0.688,0.824-0.859,0.824
		c-0.176,0-0.316,0.285-0.316,0.633c0,0.474-0.301,0.691-1.164,0.853c-0.641,0.121-1.699,0.058-2.355-0.138
		c-0.652-0.195-1.547-0.262-1.992-0.148c-0.441,0.114-1.109,0.403-1.484,0.641c-0.449,0.289-1.793,0.445-3.988,0.457
		c-2.555,0.017-3.348,0.125-3.484,0.48C122.945,194.79,122.734,195,122.574,195L122.574,195z M147.715,194.883
		c-0.355,0.027-1.145-0.133-1.75-0.354c-0.605-0.224-1.266-0.625-1.465-0.899c-0.199-0.269-0.867-0.801-1.488-1.179
		c-0.621-0.379-0.949-0.688-0.734-0.688c0.219,0,0.313-0.219,0.211-0.483c-0.105-0.282,0.039-0.571,0.352-0.692
		c0.332-0.125,0.844,0.086,1.352,0.563c0.445,0.419,1.57,1.13,2.492,1.578c1.191,0.578,1.68,1.004,1.68,1.461
		C148.363,194.606,148.129,194.856,147.715,194.883L147.715,194.883z M166.961,190.141c-0.164,0-0.297-0.438-0.297-0.973
		c0-0.82,0.125-0.972,0.809-0.972c0.641,0,0.813,0.164,0.813,0.776c0,0.426-0.23,0.863-0.512,0.97
		C167.488,190.051,167.125,190.141,166.961,190.141L166.961,190.141z M194.282,190.938c-0.489,0-1.198-0.313-1.572-0.684
		c-0.387-0.377-0.438-1.096-0.116-1.614c0.31-0.503,1.019-0.916,1.572-0.916c0.555,0,1.006,0.723,1.006,1.599
		C195.172,190.212,194.772,190.938,194.282,190.938L194.282,190.938z M155.895,189.481c-0.133,0.009-0.242-0.098-0.242-0.234
		c0-0.136,0.305-0.438,0.68-0.671c0.371-0.231,0.762-0.34,0.867-0.235c0.102,0.103-0.094,0.399-0.438,0.66
		C156.418,189.258,156.027,189.477,155.895,189.481L155.895,189.481z M99.727,183.012c-0.137,0-0.071-0.172,0.144-0.387
		c0.215-0.215,0.391-0.632,0.391-0.933c0-0.298,0.199-0.712,0.445-0.914c0.344-0.285,0.492-0.263,0.629,0.097
		c0.098,0.258-0.168,0.844-0.594,1.301C100.316,182.637,99.859,183.012,99.727,183.012L99.727,183.012z M44.572,182.141
		c-0.541,0-1.007-0.49-1.007-1.067c0-0.596,0.759-1.073,1.676-1.073c0.915,0,1.366,0.478,1.004,1.073
		C45.886,181.651,45.127,182.141,44.572,182.141L44.572,182.141z M92.676,180.399c-0.324,0.27-0.52,0.277-0.676,0.023
		c-0.121-0.191-0.043-0.566,0.172-0.824c0.219-0.258,0.519-0.473,0.676-0.473c0.156,0,0.285,0.203,0.285,0.45
		C93.133,179.818,92.93,180.188,92.676,180.399L92.676,180.399z M48.768,179.399c-1.25-0.052-1.495-0.31-0.647-0.642
		c0.776-0.313,1.69-0.271,2.049,0.074C50.52,179.192,49.886,179.44,48.768,179.399L48.768,179.399z M51.672,179.125
		c-0.356,0-0.649-0.145-0.649-0.324c0-0.176,0.293-0.324,0.649-0.324c0.355,0,0.648,0.148,0.648,0.324
		C52.32,178.981,52.027,179.125,51.672,179.125L51.672,179.125z M96.715,176.211c-0.367,0-0.664-0.144-0.664-0.324
		c0-0.18,0.207-0.324,0.465-0.324c0.257,0,0.558,0.145,0.668,0.324C97.293,176.068,97.082,176.211,96.715,176.211L96.715,176.211z
		 M185.535,176.193c-0.313-0.013-0.859-0.146-1.215-0.294c-0.359-0.152-0.891-0.563-1.184-0.913c-0.5-0.606-0.898-0.642-6.918-0.571
		c-5.645,0.063-6.523,0-7.555-0.523c-0.641-0.328-1.348-0.594-1.57-0.594s-0.57-0.304-0.766-0.676
		c-0.199-0.371-0.379-1.464-0.402-2.429c-0.035-1.457-0.141-1.755-0.625-1.755c-0.363,0-0.578,0.238-0.578,0.648
		c0,0.356-0.129,0.645-0.285,0.645c-0.152,0-0.379-0.73-0.496-1.629c-0.121-0.895-0.102-1.809,0.039-2.023
		c0.141-0.218,0.254-0.906,0.254-1.527c0-0.793,0.137-1.104,0.445-1.039c0.246,0.051,0.688-0.125,0.984-0.394
		c0.297-0.267,1.078-0.711,1.742-0.989c0.66-0.277,1.203-0.648,1.203-0.824s-0.281-0.319-0.625-0.319
		c-0.375,0-0.828-0.403-1.133-1.021c-0.281-0.562-0.512-1.211-0.512-1.437c0-0.231,0.184-0.535,0.406-0.677
		c0.223-0.141,2.52-0.276,5.102-0.297c2.582-0.02,4.906-0.098,5.164-0.168c0.258-0.065,0.523,0.129,0.59,0.441
		c0.086,0.387-0.074,0.566-0.496,0.566c-0.344,0-0.879,0.281-1.191,0.629c-0.313,0.345-0.469,0.789-0.344,0.984
		c0.121,0.199,0.055,0.56-0.148,0.805c-0.285,0.345-0.25,0.513,0.156,0.742c0.289,0.16,0.703,0.646,0.914,1.07
		c0.215,0.43,0.719,0.942,1.125,1.145c0.402,0.199,1.086,0.699,1.52,1.105c0.719,0.676,1.238,0.766,6.063,1.039
		c2.898,0.168,6.074,0.364,7.055,0.434c0.98,0.07,2.367,0.22,3.078,0.332c0.711,0.109,2.172,0.496,3.238,0.859
		c1.07,0.359,2.164,0.778,2.43,0.93c0.305,0.168-0.328,0.277-1.68,0.281c-1.191,0.008-2.246-0.117-2.344-0.273
		c-0.098-0.155-0.82-0.444-1.609-0.645c-1.152-0.293-1.609-0.27-2.344,0.114c-0.691,0.358-2.188,0.468-6.23,0.464
		c-3.305-0.003-5.453,0.122-5.664,0.333c-0.188,0.187-1.004,0.332-1.816,0.324c-0.809-0.013-2.203-0.149-3.094-0.302
		c-1.414-0.246-1.688-0.203-2.168,0.359c-0.305,0.352-0.469,0.848-0.371,1.105c0.098,0.259-0.055,0.559-0.34,0.668
		s-0.52,0.309-0.52,0.445s0.691,0.422,1.539,0.633c0.844,0.211,2.047,0.513,2.672,0.668c0.621,0.156,2.359,0.391,3.859,0.516
		c2.543,0.215,2.809,0.305,3.969,1.398c0.68,0.642,1.238,1.277,1.242,1.41C186.102,176.102,185.844,176.204,185.535,176.193
		L185.535,176.193z M79.574,167.119c-1.035,0.526-1.34,0.582-1.34,0.233c0-0.25,0.582-1.09,1.293-1.871
		c1.121-1.223,1.27-1.559,1.098-2.469c-0.148-0.793-0.082-1.055,0.27-1.055c0.253,0,0.781,0.34,1.168,0.75
		c0.386,0.414,0.707,0.965,0.707,1.223c0,0.263-0.418,0.935-0.93,1.488C81.332,165.977,80.313,166.744,79.574,167.119
		L79.574,167.119z M162.129,163.579c-0.176,0-0.324-0.145-0.324-0.324c0-0.179,0.148-0.324,0.324-0.324
		c0.18,0,0.324,0.146,0.324,0.324C162.453,163.434,162.309,163.579,162.129,163.579L162.129,163.579z M179.883,162.079
		c-0.504,0.118-0.961,0.059-1.086-0.148c-0.121-0.19-0.09-0.483,0.07-0.641c0.16-0.16,0.758-0.382,1.332-0.5
		c0.82-0.164,1.043-0.097,1.043,0.301c0,0.278-0.109,0.567-0.242,0.641C180.863,161.809,180.363,161.961,179.883,162.079
		L179.883,162.079z M71.566,161.958c-0.281,0-0.457-0.172-0.386-0.382c0.07-0.211,0.3-0.442,0.515-0.517
		c0.211-0.069,0.383,0.105,0.383,0.388C72.078,161.727,71.848,161.958,71.566,161.958L71.566,161.958z M71.16,160.469
		c-0.152,0.094-0.441,0-0.648-0.207c-0.207-0.207-0.375-0.565-0.375-0.797c0-0.234,0.289-0.422,0.644-0.422
		c0.426,0,0.649,0.215,0.649,0.629C71.43,160.016,71.309,160.375,71.16,160.469L71.16,160.469z M153.754,159.176
		c-0.176,0.109-0.621-0.187-0.992-0.66c-0.371-0.469-0.672-1.039-0.672-1.262c0-0.226,0.227-0.496,0.504-0.605
		c0.277-0.105,0.422-0.327,0.32-0.495s0.105-0.396,0.465-0.509c0.359-0.116,0.652-0.344,0.652-0.512
		c0-0.164,0.238-0.301,0.527-0.301c0.395,0,0.438,0.105,0.176,0.422c-0.195,0.231-0.27,0.731-0.171,1.106
		c0.128,0.5-0.056,0.84-0.696,1.258c-0.793,0.519-0.824,0.612-0.336,0.968C153.84,158.813,153.934,159.063,153.754,159.176
		L153.754,159.176z M65.41,158.047c-0.375-0.015-0.453-0.094-0.195-0.199c0.234-0.09,0.512-0.082,0.621,0.027
		C65.945,157.986,65.754,158.059,65.41,158.047L65.41,158.047z M77.316,155.805c-0.507,0-1.015-0.098-1.136-0.219
		c-0.117-0.117-0.215-0.336-0.215-0.484s0.512-0.27,1.133-0.27c0.793,0,1.136,0.145,1.136,0.485
		C78.234,155.637,77.914,155.805,77.316,155.805L77.316,155.805z M82.66,152.563c-0.238,0-0.523-0.09-0.64-0.207
		c-0.114-0.112-0.129-0.332-0.036-0.484c0.098-0.152,0.383-0.277,0.641-0.277s0.469,0.219,0.469,0.484S82.898,152.563,82.66,152.563
		L82.66,152.563z M128.219,144.568c-0.164,0.097-0.484,0.062-0.719-0.082c-0.234-0.146-0.293-0.345-0.129-0.442
		c0.16-0.101,0.48-0.063,0.715,0.078C128.32,144.266,128.379,144.465,128.219,144.568L128.219,144.568z M164.398,144.293
		c-0.445,0.098-1.031,0.047-1.297-0.113s-1.332-0.477-2.363-0.703c-1.031-0.23-1.953-0.539-2.043-0.684
		c-0.094-0.148-0.645-0.27-1.227-0.27c-0.586,0-1.164-0.102-1.285-0.227c-0.125-0.121-0.914-0.273-1.754-0.336
		c-1.047-0.082-1.711-0.328-2.098-0.785c-0.309-0.363-0.48-0.801-0.379-0.965c0.105-0.168-0.402-0.879-1.125-1.578
		c-0.723-0.703-1.402-1.625-1.508-2.051c-0.113-0.453,0.051-1.293,0.398-2.031c0.391-0.832,0.84-1.297,1.324-1.363
		c0.406-0.059,1.23-0.569,1.828-1.137c0.602-0.565,1.203-1.391,1.336-1.836s0.559-1.32,0.949-1.945
		c0.387-0.625,0.809-1.414,0.934-1.754c0.176-0.473,0.32-0.53,0.609-0.242c0.207,0.207,0.617,0.375,0.91,0.375
		c0.297,0,1.141-0.438,1.879-0.969c0.738-0.535,1.461-0.973,1.609-0.973s0.605-0.359,1.016-0.793
		c0.41-0.438,1.379-1.011,2.152-1.273c0.773-0.266,1.961-0.914,2.633-1.44c0.672-0.528,1.52-1.052,1.883-1.157
		c0.359-0.105,0.82-0.633,1.023-1.168c0.277-0.734,0.57-0.972,1.203-0.972c0.523,0,0.84,0.179,0.84,0.476
		c0,0.262-0.438,0.801-0.973,1.196c-0.535,0.394-0.973,0.91-0.973,1.147c0,0.234-0.289,0.676-0.645,0.98
		c-0.359,0.305-0.648,0.829-0.648,1.161c0,0.336-0.273,0.679-0.609,0.765c-0.332,0.09-0.922,0.586-1.305,1.106
		c-0.383,0.519-0.914,0.944-1.176,0.944s-1.023,0.603-1.691,1.336c-0.668,0.738-1.605,2.008-2.086,2.828
		c-0.48,0.816-1.07,1.637-1.316,1.816c-0.242,0.184-0.719,0.809-1.059,1.387s-0.719,1.055-0.844,1.055s-0.324,0.427-0.438,0.949
		c-0.113,0.521-0.418,1.121-0.676,1.336c-0.254,0.211-0.465,0.59-0.465,0.84s0.223,0.543,0.492,0.645
		c0.27,0.105,0.707,0.008,0.973-0.211c0.352-0.292,0.594-0.305,0.91-0.042c0.313,0.257,0.531,0.253,0.809-0.028
		c0.211-0.207,0.383-0.57,0.383-0.801s0.145-0.421,0.324-0.421c0.176,0,0.32-0.411,0.32-0.915c0-0.656,0.32-1.168,1.137-1.816
		c0.621-0.496,1.133-1.108,1.133-1.363c0-0.25,0.355-0.594,0.789-0.758s0.941-0.582,1.125-0.926s0.73-0.726,1.215-0.847
		c0.484-0.122,1.039-0.438,1.23-0.704c0.195-0.266,0.898-0.605,1.563-0.754s1.281-0.152,1.371-0.003
		c0.094,0.144-0.273,1.011-0.809,1.921c-0.539,0.915-0.977,1.762-0.977,1.887c-0.004,0.125-0.359,0.641-0.793,1.149
		c-0.434,0.504-0.887,1.379-1.008,1.94c-0.117,0.566-0.441,1.281-0.719,1.594s-0.434,0.637-0.352,0.72
		c0.082,0.082,0.578,0.16,1.105,0.171c0.523,0.008,1.418-0.074,1.988-0.188c0.566-0.112,1.27-0.465,1.555-0.784
		c0.309-0.337,0.789-0.509,1.16-0.41c0.426,0.108,0.852-0.114,1.301-0.685c0.367-0.469,0.836-0.848,1.047-0.848
		s0.555,0.371,0.762,0.821c0.352,0.761,0.242,0.957-1.57,2.832c-1.07,1.108-2.168,2.343-2.441,2.741
		c-0.27,0.402-0.655,0.73-0.859,0.734c-0.203,0.004-0.949,0.594-1.656,1.317c-0.961,0.972-1.457,1.254-1.945,1.101
		c-0.359-0.109-0.797-0.195-0.977-0.191C165.352,144.111,164.844,144.197,164.398,144.293L164.398,144.293z M165.453,142.434
		c1.504-0.039,1.86-0.148,1.777-0.547c-0.066-0.312-0.395-0.465-0.871-0.414c-0.422,0.051-1.113-0.141-1.539-0.422
		c-0.426-0.277-0.918-0.875-1.086-1.324c-0.171-0.453-0.496-0.754-0.715-0.672c-0.223,0.082-0.348,0.349-0.277,0.594
		c0.071,0.242,0.102,0.871,0.071,1.391c-0.028,0.52,0.128,1.059,0.351,1.2C163.387,142.375,164.418,142.465,165.453,142.434
		L165.453,142.434z M171.602,138.579c0.402-0.059,0.73-0.309,0.73-0.555c0-0.25-0.25-0.609-0.555-0.805
		c-0.41-0.254-0.66-0.25-0.938,0.027c-0.203,0.204-0.281,0.614-0.172,0.902C170.793,138.477,171.156,138.641,171.602,138.579
		L171.602,138.579z M100.242,142.201c-0.191,0-0.254-0.149-0.144-0.325c0.109-0.179,0.265-0.324,0.343-0.324
		c0.079,0,0.141,0.146,0.141,0.324C100.582,142.051,100.43,142.201,100.242,142.201L100.242,142.201z M98.641,141.875
		c-0.18,0-0.325-0.218-0.325-0.488c0-0.266,0.145-0.483,0.325-0.483c0.179,0,0.324,0.218,0.324,0.483
		C98.965,141.658,98.82,141.875,98.641,141.875L98.641,141.875z M87.504,140.904c-0.465,0-0.848-0.13-0.848-0.289
		c0-0.161,0.207-0.368,0.461-0.466c0.254-0.098,0.637,0.031,0.848,0.289C88.285,140.822,88.207,140.904,87.504,140.904
		L87.504,140.904z M84.406,139.606c-0.168,0-0.402-0.152-0.519-0.344c-0.117-0.19-0.133-0.422-0.039-0.519
		c0.093-0.095,0.328-0.075,0.519,0.042c0.188,0.118,0.344,0.348,0.344,0.516S84.574,139.606,84.406,139.606L84.406,139.606z
		 M176.563,135.719c-0.078,0-0.227-0.133-0.328-0.301c-0.102-0.164-0.039-0.395,0.145-0.504c0.18-0.113,0.328,0.023,0.328,0.301
		C176.707,135.494,176.641,135.719,176.563,135.719L176.563,135.719z M177.738,134.029c-0.211,0.069-0.383-0.106-0.383-0.388
		c0-0.28,0.23-0.512,0.512-0.512s0.457,0.172,0.383,0.383C178.18,133.727,177.949,133.958,177.738,134.029L177.738,134.029z
		 M179.152,132.754c-0.367,0.071-0.523-0.043-0.434-0.324c0.082-0.237,0.406-0.483,0.723-0.547c0.371-0.07,0.527,0.047,0.434,0.324
		C179.797,132.447,179.469,132.693,179.152,132.754L179.152,132.754z M147.648,127.059c-0.297,0.672-0.316,0.672-0.477,0.06
		c-0.09-0.353-0.059-0.931,0.074-1.282c0.223-0.605,0.254-0.609,0.477-0.058C147.852,126.098,147.82,126.676,147.648,127.059
		L147.648,127.059z M170.957,126.969c-0.223,0.004-0.406-0.187-0.406-0.426c0-0.234,0.355-0.761,0.785-1.168
		c0.434-0.402,0.945-0.64,1.137-0.52c0.191,0.117,0.348,0.552,0.348,0.966c0,0.507-0.238,0.815-0.73,0.948
		C171.691,126.879,171.18,126.969,170.957,126.969L170.957,126.969z M174.113,123.736c-0.176,0-0.32-0.364-0.32-0.81
		s0.145-0.812,0.32-0.812c0.18,0,0.325,0.366,0.325,0.812S174.293,123.736,174.113,123.736L174.113,123.736z M155.648,122.279
		c-0.355,0.534-0.645,0.866-0.645,0.737s0.531-1.879,1.18-3.887c0.648-2.011,1.348-3.801,1.551-3.976
		c0.204-0.181,0.316-0.595,0.25-0.918c-0.07-0.328,0.098-0.837,0.367-1.134c0.273-0.301,0.844-0.926,1.27-1.391
		c0.426-0.468,0.965-1.304,1.195-1.863c0.23-0.559,0.586-1.012,0.789-1.012c0.199,0,0.543-0.402,0.762-0.894
		c0.215-0.489,0.727-1.036,1.129-1.216c0.406-0.176,1.031-0.867,1.387-1.535s0.84-1.215,1.074-1.215
		c0.293,0,0.359,0.226,0.207,0.726c-0.125,0.403-0.41,0.95-0.641,1.215c-0.227,0.27-0.641,0.996-0.922,1.621
		c-0.277,0.621-0.875,1.715-1.324,2.43c-0.449,0.711-0.922,1.512-1.043,1.781c-0.125,0.266-0.391,0.633-0.59,0.809
		c-0.199,0.181-1.043,1.363-1.875,2.629c-0.828,1.27-1.66,2.652-1.84,3.078c-0.184,0.427-0.504,1.063-0.711,1.422
		c-0.203,0.355-0.5,0.863-0.652,1.134C156.414,121.086,156,121.744,155.648,122.279L155.648,122.279z M151.117,115.473
		c-0.18,0.113-0.324,0.056-0.324-0.121c0-0.18,0.145-0.414,0.324-0.523c0.176-0.113,0.324-0.055,0.324,0.122
		C151.441,115.129,151.293,115.365,151.117,115.473L151.117,115.473z M145.453,115.313c-0.406,0-0.902-0.198-1.105-0.444
		c-0.207-0.247-0.805-0.536-1.336-0.642s-0.965-0.344-0.965-0.526c0-0.181,0.156-0.332,0.344-0.332c0.191,0,0.645,0.16,1.008,0.354
		c0.477,0.258,0.758,0.258,1.016,0c0.195-0.194,0.598-0.354,0.898-0.354c0.297,0,0.707,0.203,0.91,0.444
		c0.203,0.246,0.277,0.684,0.168,0.973C146.277,115.076,145.855,115.313,145.453,115.313L145.453,115.313z M153.078,112.387
		c-0.445,0.238-0.691,0.231-0.855-0.031c-0.125-0.202,0.016-0.504,0.313-0.668c0.293-0.164,0.824-0.609,1.176-0.984
		c0.352-0.378,0.73-0.593,0.848-0.48c0.113,0.117-0.031,0.574-0.32,1.021C153.945,111.688,153.426,112.204,153.078,112.387
		L153.078,112.387z M155.805,109.625c-0.457,0.602-0.477,0.594-0.477-0.242c0-0.558,0.172-0.871,0.484-0.871
		c0.27,0,0.48,0.109,0.477,0.242C156.281,108.887,156.063,109.279,155.805,109.625L155.805,109.625z M90.867,101.708
		c-0.179,0-0.324-0.289-0.324-0.648c0-0.356,0.145-0.649,0.324-0.649c0.176,0,0.324,0.293,0.324,0.649
		C91.191,101.418,91.043,101.708,90.867,101.708L90.867,101.708z M134.598,101.383c-0.18,0-0.324-0.355-0.324-0.789
		s0.145-0.883,0.324-0.992c0.188-0.117,0.324,0.215,0.324,0.793C134.922,100.938,134.773,101.383,134.598,101.383L134.598,101.383z"
		/>
</g>
<path d="M22.001,54.969c-1.611,0-2.191-0.554-1.934-1.869c0.193-1.03,1.057-1.868,1.934-1.868c0.864,0,1.728,0.838,1.934,1.868
	C24.18,54.415,23.6,54.969,22.001,54.969L22.001,54.969z"/>
<path d="M30.335,192.969c-1.611,0-2.191-0.555-1.934-1.869c0.193-1.028,1.057-1.866,1.934-1.866c0.864,0,1.728,0.838,1.934,1.866
	C32.514,192.415,31.934,192.969,30.335,192.969L30.335,192.969z"/>
<path d="M50.001,154.635c-1.611,0-2.191-0.555-1.934-1.869c0.193-1.028,1.057-1.866,1.934-1.866c0.864,0,1.728,0.838,1.934,1.866
	C52.18,154.081,51.6,154.635,50.001,154.635L50.001,154.635z"/>
<path d="M64.416,195.87c-1.611,0-2.191-0.555-1.934-1.869c0.193-1.031,1.057-1.869,1.934-1.869c0.864,0,1.728,0.838,1.934,1.869
	C66.594,195.315,66.014,195.87,64.416,195.87L64.416,195.87z"/>
<path d="M139.65,205.115c-1.464,0-2.186-0.784-1.587-1.733c0.576-0.964,1.794-1.298,2.659-0.758c0.867,0.531,1.589,1.32,1.589,1.729
	C142.312,204.764,141.115,205.115,139.65,205.115L139.65,205.115z"/>
</svg>
