<?xml version="1.0" encoding="UTF-8" standalone="no"?>
<!-- Created with Inkscape (http://www.inkscape.org/) -->

<svg
   xmlns:dc="http://purl.org/dc/elements/1.1/"
   xmlns:cc="http://creativecommons.org/ns#"
   xmlns:rdf="http://www.w3.org/1999/02/22-rdf-syntax-ns#"
   xmlns:svg="http://www.w3.org/2000/svg"
   xmlns="http://www.w3.org/2000/svg"
   xmlns:sodipodi="http://sodipodi.sourceforge.net/DTD/sodipodi-0.dtd"
   xmlns:inkscape="http://www.inkscape.org/namespaces/inkscape"
   width="744"
   height="744"
   id="svg2"
   version="1.1"
   inkscape:version="0.48.1 "
   sodipodi:docname="elyspace-shirt.eps">
  <defs
     id="defs4" />
  <sodipodi:namedview
     id="base"
     pagecolor="#ffffff"
     bordercolor="#666666"
     borderopacity="1.0"
     inkscape:pageopacity="0.0"
     inkscape:pageshadow="2"
     inkscape:zoom="0.70710678"
     inkscape:cx="574.93661"
     inkscape:cy="349.25344"
     inkscape:document-units="px"
     inkscape:current-layer="layer1"
     showgrid="false"
     inkscape:window-width="1280"
     inkscape:window-height="977"
     inkscape:window-x="-4"
     inkscape:window-y="-4"
     inkscape:window-maximized="1"
     units="px"
     showborder="true"
     inkscape:snap-center="true"
     inkscape:showpageshadow="true"
     width="744px" />
  <metadata
     id="metadata7">
    <rdf:RDF>
      <cc:Work
         rdf:about="">
        <dc:format>image/svg+xml</dc:format>
        <dc:type
           rdf:resource="http://purl.org/dc/dcmitype/StillImage" />
        <dc:title></dc:title>
      </cc:Work>
    </rdf:RDF>
  </metadata>
  <g
     inkscape:label="Layer 1"
     inkscape:groupmode="layer"
     id="layer1"
     transform="translate(0,-308.35997)">
    <g
       id="1"
       transform="translate(0,62.36)" />
    <g
       id="1-1"
       transform="translate(0,62.36)" />
    <path
       style="fill:#000000"
       d="m 661.74196,987.47358 c -0.51563,0.12604 -1.5,0.004 -2.1875,-0.27084 -0.6875,-0.275 -1.25,-0.9125 -1.25,-1.41666 0,-0.50417 1.1625,-0.91667 2.58333,-0.91667 1.54971,0 2.42496,0.47513 2.1875,1.1875 -0.2177,0.65313 -0.81771,1.29062 -1.33333,1.41667 z m -257,-8.9162 c -0.58438,0.19453 -1.37188,0.0443 -1.75,-0.3338 -0.37813,-0.37813 -0.6875,-1.2875 -0.6875,-2.02084 0,-0.73333 0.933,-1.33333 2.07332,-1.33333 1.39797,0 1.96801,0.54305 1.75,1.66713 -0.17782,0.91693 -0.80144,1.8263 -1.38582,2.02084 z M 88.963647,968.69653 c -1.3364,0.25736 -1.74367,-0.14991 -1.48631,-1.48631 0.19498,-1.01244 1.02335,-1.84081 1.84082,-1.84081 0.81746,0 1.4863,0.66884 1.4863,1.4863 0,0.81747 -0.82837,1.64584 -1.84081,1.84082 z m 104.840813,-2.82712 c -0.21008,0 -0.66008,-0.45 -1,-1 -0.33992,-0.55 0.11008,-1 1,-1 0.88992,0 1.33992,0.45 1,1 -0.33992,0.55 -0.78992,1 -1,1 z m 488.05902,-50 c -0.79254,0 -1.74333,-0.48921 -2.11287,-1.08713 -0.36954,-0.59793 -0.2103,-1.54872 0.35385,-2.11287 0.56415,-0.56415 1.51494,-0.72339 2.11287,-0.35385 0.59792,0.36954 1.08713,1.32033 1.08713,2.11287 0,0.79254 -0.64844,1.44098 -1.44098,1.44098 z M 405.61573,901.8541 c -0.4462,-0.008 -1.33117,-0.34615 -1.96659,-0.75051 -0.63543,-0.40435 -2.10539,-3.55539 -3.26657,-7.00231 -1.9643,-5.83094 -2.00166,-6.47902 -0.53684,-9.31168 0.99002,-1.91448 2.2025,-2.92378 3.26657,-2.71918 1.303,0.25056 1.71496,1.47253 1.79132,5.31349 0.0545,2.74345 0.41961,7.12501 0.81127,9.7368 0.39167,2.61178 0.34704,4.74181 -0.0992,4.73339 z m 112.68873,-0.98469 c -0.55,0 -1,-0.45 -1,-1 0,-0.55 0.45,-1 1,-1 0.55,0 1,0.45 1,1 0,0.55 -0.45,1 -1,1 z m -63.90122,-1 c -0.49568,0 -1.84568,-1.60072 -3,-3.55716 -1.15433,-1.95644 -2.09878,-4.21254 -2.09878,-5.01357 0,-0.80102 -0.51994,-2.4628 -1.15543,-3.69284 -0.63548,-1.23004 -1.47202,-2.91143 -1.85898,-3.73643 -0.38696,-0.825 -1.21702,-1.55625 -1.84458,-1.625 -0.62755,-0.0688 -1.59101,-0.18125 -2.14101,-0.25 -0.55,-0.0688 -1,-1.03912 -1,-2.15638 0,-1.11727 0.72766,-2.31062 1.61701,-2.6519 0.88936,-0.34127 2.78791,-0.20872 4.21901,0.29457 2.17525,0.765 2.6624,1.63598 2.97027,5.3106 0.20255,2.41754 1.02408,5.05134 1.82563,5.85289 0.80155,0.80155 1.28862,1.96361 1.08237,2.58236 -0.20625,0.61875 0.22366,1.72366 0.95535,2.45536 0.7317,0.7317 1.33036,2.42321 1.33036,3.75893 0,1.33571 -0.40555,2.42857 -0.90122,2.42857 z m 74.90122,-1.5 c -0.55,0.33992 -1,-0.0835 -1,-0.94098 0,-0.85746 0.45,-1.55902 1,-1.55902 0.55,0 1,0.42344 1,0.94098 0,0.51754 -0.45,1.2191 -1,1.55902 z m -13.53571,-2.57895 c -2.18036,-0.0434 -4.52679,-0.30592 -5.21429,-0.58333 -0.6875,-0.27741 -1.25,-1.00689 -1.25,-1.62105 0,-0.81866 0.29961,-0.81706 1.12267,0.006 0.82163,0.82163 1.77004,0.8277 3.53694,0.0226 1.94419,-0.88583 2.74086,-0.77342 4.09162,0.57733 1.56979,1.5698 1.42315,1.67229 -2.28694,1.5984 z M 65.166087,892.86941 c -0.50842,0 -1.19087,-0.69441 -1.51655,-1.54313 -0.32569,-0.84872 -0.33097,-1.80431 -0.0117,-2.12354 0.31922,-0.31922 1.26723,-0.31685 2.10668,0.005 0.87888,0.33726 1.27596,1.23798 0.93614,2.12354 -0.32458,0.8461 -1.00612,1.53813 -1.51453,1.53813 z m 435.157423,0 c -0.53952,0 -1.28088,-1.19502 -1.64746,-2.65559 -0.49098,-1.95622 -0.1823,-3.00966 1.17208,-4 1.01122,-0.73943 2.31508,-1.30888 2.89746,-1.26546 0.58238,0.0434 0.49637,0.30592 -0.19113,0.58333 -0.6875,0.27741 -1.25,2.04189 -1.25,3.92105 0,1.87917 -0.44143,3.41667 -0.98095,3.41667 z m 10.98095,-4 c -0.55,0 -1,-0.45 -1,-1 0,-0.55 0.45,-1 1,-1 0.55,0 1,0.45 1,1 0,0.55 -0.45,1 -1,1 z m -16.23466,-1 c -0.44189,0 -0.53913,-1.0531 -0.21608,-2.34023 0.44587,-1.7765 -0.0228,-2.74005 -1.94577,-4 -1.39322,-0.91287 -3.27644,-1.65977 -4.18494,-1.65977 -1.15948,0 -1.49593,-0.59611 -1.1288,-2 0.35487,-1.35701 0.0307,-2 -1.00837,-2 -1.1837,0 -1.38866,-0.71361 -0.90275,-3.14316 0.36136,-1.80679 0.14986,-3.72004 -0.49744,-4.5 -0.61934,-0.74626 -2.15385,-1.35684 -3.41002,-1.35684 -1.81582,0 -2.17321,-0.42339 -1.74374,-2.06571 0.29711,-1.13614 -0.0298,-3.13078 -0.72649,-4.43254 -0.75026,-1.40187 -0.94195,-3.10781 -0.47018,-4.18429 0.43808,-0.9996 0.83537,-2.22996 0.88287,-2.73413 0.0475,-0.50416 0.64887,-1.10416 1.33637,-1.33333 0.6875,-0.22917 1.25,0.0949 1.25,0.7201 0,0.62521 1.2375,2.6877 2.75,4.5833 1.5125,1.8956 3.5375,3.44655 4.5,3.44657 1.08332,2e-5 1.75,0.76195 1.75,2.00003 0,1.33333 0.66667,2 2,2 1.1,0 2,-0.41796 2,-0.9288 0,-0.51084 -1.53455,-2.5559 -3.41012,-4.54457 -1.87556,-1.98868 -3.66144,-4.27072 -3.96861,-5.0712 -0.30718,-0.80049 -1.19948,-1.45543 -1.9829,-1.45543 -0.78341,0 -1.67038,-0.64104 -1.97104,-1.42453 -0.32018,-0.8344 0.51089,-2.11745 2.00615,-3.09718 2.51406,-1.64728 2.61866,-1.608 6.89629,2.59018 2.38893,2.34456 4.1323,4.60457 3.87416,5.02225 -0.25813,0.41767 0.0723,1.94815 0.73427,3.40105 0.81178,1.78166 1.77696,2.49171 2.96476,2.1811 0.96863,-0.25331 1.93948,0.0542 2.15743,0.68329 0.21796,0.62911 -0.0802,2.20564 -0.66248,3.50339 -0.85045,1.8953 -0.72224,2.60562 0.65166,3.61024 0.94074,0.68788 1.71043,2.22472 1.71043,3.4152 0,1.38868 -0.89608,2.5052 -2.5,3.11501 -1.78883,0.68011 -2.5,1.69593 -2.5,3.57096 0,1.44125 -0.77202,3.92739 -1.71561,5.52475 -0.94358,1.59736 -2.07716,2.90429 -2.51905,2.90429 z m 1.23466,-13 c 1.2433,0 1.99483,-0.66212 1.98635,-1.75 -0.008,-0.9625 -0.2883,-2.77512 -0.62397,-4.02804 -0.47512,-1.77344 -1.08124,-2.13356 -2.73634,-1.62578 -1.16932,0.35875 -2.30267,0.8105 -2.51854,1.00388 -0.21588,0.19339 0.13741,0.99012 0.78509,1.77051 0.64767,0.7804 1.1085,1.80378 1.02408,2.27417 -0.0844,0.47039 -0.10022,1.19276 -0.0351,1.60526 0.0651,0.4125 1.01843,0.75 2.11843,0.75 z m -12.77426,-9.82574 c 0.55,-0.55 0.67341,-1.52841 0.27426,-2.17426 -0.48382,-0.78284 -1.05907,-0.84093 -1.72574,-0.17426 -0.55,0.55 -0.67341,1.52841 -0.27426,2.17426 0.48382,0.78284 1.05907,0.84093 1.72574,0.17426 z m 23.33328,21.82574 c -0.24254,0 -0.69988,-0.41891 -1.01631,-0.9309 -0.31644,-0.512 -0.11799,-1.21356 0.44098,-1.55902 0.55897,-0.34546 1.01631,0.0734 1.01631,0.9309 0,0.85746 -0.19844,1.55902 -0.44098,1.55902 z m 44.44098,-8.22878 c -1.925,0.039 -4.0625,-0.15609 -4.75,-0.4335 -0.6875,-0.27741 -1.25,-1.14189 -1.25,-1.92105 0,-0.77917 0.3949,-1.41667 0.87756,-1.41667 0.48265,0 1.41558,0.64829 2.07317,1.44064 0.6576,0.79235 2.4002,1.62493 3.87245,1.85017 2.13583,0.32676 1.96947,0.42385 -0.82318,0.48041 z m -88.21275,-9.63297 c -0.33872,1.01617 -0.57427,1.01538 -1.2043,-0.004 -0.43077,-0.697 -0.51316,-1.53733 -0.18309,-1.86741 0.33008,-0.33007 0.87202,-0.32826 1.20431,0.004 0.33229,0.33229 0.41468,1.17263 0.18308,1.86742 z m -40.28725,-7.13825 c -0.825,0 -1.5,-0.43588 -1.5,-0.96862 0,-0.53273 0.675,-0.70959 1.5,-0.39301 0.825,0.31659 1.5,0.75246 1.5,0.96862 0,0.21615 -0.675,0.39301 -1.5,0.39301 z m 76.65499,-15 c -0.46476,0 -1.58976,-0.82293 -2.5,-1.82874 -0.91025,-1.00581 -1.65499,-2.58081 -1.65499,-3.5 0,-0.91919 0.5625,-1.66775 1.25,-1.66346 0.6875,0.004 1.8125,1.21901 2.5,2.69937 0.6875,1.48036 1.25,3.05185 1.25,3.49219 0,0.44035 -0.38026,0.80064 -0.84501,0.80064 z m -75.2665,-2.58144 c -2.52716,0.43392 -3.96792,0.19066 -4.79856,-0.8102 -0.80956,-0.97546 -0.8536,-1.63638 -0.13849,-2.07835 0.57671,-0.35642 1.04856,-2.47027 1.04856,-4.69744 0,-3.86851 0.11692,-4.02004 2.61759,-3.39241 1.77001,0.44424 3.20672,0.12382 4.43699,-0.98956 1.00067,-0.90559 2.3295,-1.33126 2.95297,-0.94594 0.73233,0.45261 0.89493,2.11311 0.45935,4.69125 -0.59655,3.53095 -0.46068,3.94993 1.17944,3.63704 1.5559,-0.29682 1.90498,-1.47641 2.17312,-7.34329 0.23076,-5.04881 -0.13513,-7.84582 -1.31771,-10.07299 -1.44822,-2.72747 -2.14377,-3.08334 -6.02643,-3.08334 -2.73522,0 -4.58206,0.50245 -4.9009,1.33334 -0.28141,0.73333 -0.9654,1.33333 -1.51998,1.33333 -0.55458,0 -1.74694,-1.12725 -2.64968,-2.50501 -1.31663,-2.00944 -1.39769,-2.79858 -0.40974,-3.98899 0.67738,-0.81619 1.6179,-1.24523 2.09004,-0.95343 0.47215,0.2918 1.99616,-0.21491 3.38669,-1.12602 1.39054,-0.91111 2.52825,-2.19529 2.52825,-2.85373 0,-0.65844 0.92247,-3.10645 2.04992,-5.44001 1.1601,-2.40112 1.78129,-5.08927 1.43105,-6.19276 -0.40415,-1.27337 -0.0745,-2.15879 0.95008,-2.55196 0.90287,-0.34647 1.56895,-1.77828 1.56895,-3.37263 0,-1.52382 0.675,-3.33077 1.5,-4.01546 1.28997,-1.07058 1.5,-0.69568 1.5,2.67756 0,2.15734 -0.41524,4.34994 -0.92277,4.87244 -0.50752,0.5225 -1.04561,3.04774 -1.19576,5.61165 -0.15988,2.72994 0.26307,5.30759 1.02067,6.22043 0.90573,1.09134 1.08724,3.05969 0.6053,6.56382 -0.67933,4.93929 -0.62807,5.06708 3.9021,9.72798 2.52475,2.59762 4.59046,5.53365 4.59046,6.52453 0,0.99087 0.675,1.80159 1.5,1.80159 0.98582,0 1.5,0.9864 1.5,2.87756 0,1.58265 -0.5625,3.34242 -1.25,3.91059 -0.6875,0.56818 -4.625,1.70293 -8.75,2.52168 -4.125,0.81875 -9.12518,1.76768 -11.11151,2.10873 z m -317.44751,-5.41856 c -0.85746,0 -1.27636,-0.45734 -0.9309,-1.01631 0.34546,-0.55897 1.04702,-0.75742 1.55902,-0.44098 0.51199,0.31643 0.9309,0.77377 0.9309,1.01631 0,0.24254 -0.70156,0.44098 -1.55902,0.44098 z m 581.63402,-2.19167 c -0.59125,0.19709 -1.075,-0.39166 -1.075,-1.30833 0,-0.91667 0.48375,-1.50542 1.075,-1.30833 0.59125,0.19708 1.075,0.78583 1.075,1.30833 0,0.5225 -0.48375,1.11125 -1.075,1.30833 z m -264.65833,-7.88728 c -1.16495,-0.048 -1.4019,-0.28494 -0.60417,-0.60416 0.72187,-0.28887 1.58438,-0.25335 1.91667,0.0789 0.33229,0.33229 -0.25834,0.56864 -1.3125,0.52522 z m -38.66667,-15.7655 c -1.7875,0.2059 -4.6,0.1125 -6.25,-0.20755 l -3,-0.58192 3.87212,-1.68304 c 2.12967,-0.92567 4.18602,-1.68304 4.56967,-1.68304 0.38365,0 1.74695,-1.20693 3.02957,-2.68207 l 2.33203,-2.68207 -2.06883,-4.06793 c -1.13786,-2.23736 -2.59676,-5.77285 -3.24202,-7.85663 -0.91124,-2.94276 -0.90012,-4.11774 0.0498,-5.26233 0.92881,-1.11915 1.55192,-1.20066 2.59033,-0.33886 0.75203,0.62413 1.36732,2.40038 1.36732,3.94724 0,1.54685 0.44916,3.99382 0.99813,5.43772 0.54897,1.44391 1.4298,2.35849 1.95741,2.03241 0.52761,-0.32608 1.65345,0.74949 2.50187,2.39016 0.84843,1.64067 1.54259,3.23039 1.54259,3.5327 0,0.30231 -0.87344,0.54966 -1.94098,0.54966 -1.06754,0 -2.25726,0.51175 -2.64382,1.13721 -0.39077,0.63228 0.3129,1.9034 1.5848,2.86279 1.27706,0.96329 1.97616,2.22956 1.58253,2.86646 -0.40297,0.65202 -1.75008,0.87861 -3.14382,0.5288 -1.36596,-0.34284 -2.4387,-0.17264 -2.4387,0.38693 0,0.54945 -1.4625,1.16746 -3.25,1.37336 z m 53.21862,-8.15555 c -0.56727,0 -1.26693,-0.61382 -1.55482,-1.36404 -0.28789,-0.75022 0.48758,-3.3037 1.72325,-5.6744 1.23568,-2.37069 2.43597,-3.7425 2.66732,-3.04846 0.23135,0.69405 -0.08,1.76253 -0.69187,2.3744 -0.61187,0.61187 -1.1125,2.5975 -1.1125,4.4125 0,1.815 -0.46412,3.3 -1.03138,3.3 z M 67.646097,801.58933 c -0.6371,0.21211 -1.45115,-0.0881 -1.80902,-0.66713 -0.35786,-0.57904 -0.37254,-1.50279 -0.0326,-2.05279 0.33992,-0.55 1.29947,-1 2.13234,-1 0.87615,0 1.37805,0.70256 1.19098,1.66713 -0.17782,0.91693 -0.84458,1.84068 -1.48168,2.05279 z M 442.90863,790.59858 c -0.33229,0.33229 -0.56864,-0.25834 -0.52522,-1.3125 0.048,-1.16495 0.28494,-1.4019 0.60416,-0.60417 0.28887,0.72187 0.25335,1.58438 -0.0789,1.91667 z m -6.93538,-3.90042 c -1.41772,0.27033 -1.75642,-0.17665 -1.5,-1.97957 0.184,-1.29371 1.14511,-2.48395 2.16242,-2.67793 1.41772,-0.27033 1.75642,0.17665 1.5,1.97957 -0.184,1.29371 -1.14511,2.48395 -2.16242,2.67793 z m -53.16131,-7.82875 c -0.0145,0 -0.58463,-0.89389 -1.26693,-1.98643 -0.6823,-1.09254 -1.24055,-3.60053 -1.24055,-5.57333 0,-2.89521 0.33746,-3.51309 1.75,-3.20417 0.9625,0.21049 1.58783,1.03098 1.38962,1.82332 -0.19821,0.79234 -0.41559,3.12811 -0.48307,5.19061 -0.0675,2.0625 -0.13456,3.75 -0.14907,3.75 z m 114.6835,-0.0153 c -0.93004,-0.008 -2.16253,-0.34592 -2.73886,-0.75 -0.57634,-0.40408 -1.15228,-2.27978 -1.27987,-4.16822 -0.12759,-1.88844 -0.73947,-4.04501 -1.35974,-4.79238 -0.78403,-0.9447 -0.80933,-1.67727 -0.083,-2.4036 0.72634,-0.72634 1.29705,-0.63723 1.87257,0.29238 0.45529,0.73542 1.06858,3.13713 1.36286,5.33713 0.42759,3.19654 0.98999,4.06458 2.79989,4.32149 1.24566,0.17683 2.0066,0.73933 1.69098,1.25 -0.31561,0.51068 -1.33479,0.92162 -2.26483,0.9132 z m -6.19098,-0.9847 c -0.55,0 -1,-0.59081 -1,-1.31291 0,-0.7221 -1.35,-2.60629 -3,-4.18709 -1.65,-1.5808 -3,-3.46499 -3,-4.18709 0,-0.7221 0.18163,-1.31291 0.40361,-1.31291 0.22199,0 2.02199,1.4328 4,3.184 2.17677,1.92716 3.59639,4.09821 3.59639,5.5 0,1.2738 -0.45,2.316 -1,2.316 z m -39.44098,-4 c -0.24254,0 -0.66285,-0.35899 -0.93402,-0.79775 -0.27117,-0.43876 -0.0796,-1.45126 0.42567,-2.25 0.71729,-1.13385 0.92206,-0.95896 0.93402,0.79775 0.008,1.2375 -0.18313,2.25 -0.42567,2.25 z m 198.44098,-2 c -0.55,0 -1,-0.45 -1,-1 0,-0.55 0.45,-1 1,-1 0.55,0 1,0.45 1,1 0,0.55 -0.45,1 -1,1 z m -506.25,-6.19037 c -1.22785,0.23646 -1.75,-0.30348 -1.75,-1.80963 0,-1.50615 0.52215,-2.04609 1.75,-1.80963 0.9625,0.18536 1.75,0.99969 1.75,1.80963 0,0.80994 -0.7875,1.62427 -1.75,1.80963 z m 544.325,-46.0013 c -0.59125,0.19709 -1.075,-0.39166 -1.075,-1.30833 0,-0.91667 0.48375,-1.50542 1.075,-1.30833 0.59125,0.19708 1.075,0.78583 1.075,1.30833 0,0.5225 -0.48375,1.11125 -1.075,1.30833 z M 62.804457,717.86941 c -0.83333,0 -1.5,-0.88889 -1.5,-2 0,-1.11111 0.66667,-2 1.5,-2 0.83333,0 1.5,0.88889 1.5,2 0,1.11111 -0.66667,2 -1.5,2 z m 33.5,-19 c -0.48508,0 -1.18431,-0.48921 -1.55385,-1.08713 -0.36954,-0.59793 -0.1711,-1.58793 0.44098,-2.2 0.81716,-0.81716 1.40858,-0.81716 2.22574,0 0.61207,0.61207 0.81052,1.60207 0.44098,2.2 -0.36954,0.59792 -1.06877,1.08713 -1.55385,1.08713 z m 139.646983,-3.12198 c -0.73205,0.60754 -1.62709,0.80853 -1.98899,0.44664 -0.36189,-0.3619 -0.65799,-1.25799 -0.65799,-1.99133 0,-0.73333 0.64844,-1.33333 1.44098,-1.33333 0.79254,0 1.68759,0.39901 1.98899,0.88669 0.30141,0.48768 -0.0509,1.38378 -0.78299,1.99133 z m -92.23031,-12.87802 c -0.87084,0 -1.40521,-0.53438 -1.1875,-1.1875 0.21771,-0.65313 0.9302,-1.36563 1.58333,-1.58333 0.65313,-0.21771 1.1875,0.31666 1.1875,1.1875 0,0.87083 -0.7125,1.58333 -1.58333,1.58333 z m 485.72281,-8.5862 c -0.47329,0.2925 -1.14829,0.24406 -1.5,-0.10765 -0.35171,-0.35172 -0.63948,-1.01448 -0.63948,-1.47282 0,-0.45833 0.675,-0.83333 1.5,-0.83333 0.825,0 1.5,0.42344 1.5,0.94098 0,0.51754 -0.38723,1.18031 -0.86052,1.47282 z m -379.70198,-25.7263 c -0.58438,0.19479 -1.37188,0.0448 -1.75,-0.33333 -0.37813,-0.37813 -0.6875,-1.3205 -0.6875,-2.09416 0,-0.8014 0.753,-1.26164 1.75,-1.06964 0.9625,0.18536 1.75,0.96836 1.75,1.73999 0,0.77164 -0.47813,1.56235 -1.0625,1.75714 z m -60.4375,-4.6875 c -0.48508,0 -1.18431,-0.48921 -1.55385,-1.08713 -0.36954,-0.59793 -0.17109,-1.58793 0.44098,-2.2 0.81716,-0.81716 1.40858,-0.81716 2.22574,0 0.61207,0.61207 0.81052,1.60207 0.44098,2.2 -0.36954,0.59792 -1.06877,1.08713 -1.55385,1.08713 z m -121.440983,-12 c -0.79254,0 -1.74333,-0.48921 -2.11287,-1.08713 -0.36954,-0.59793 -0.2103,-1.54872 0.35385,-2.11287 0.56415,-0.56415 1.51494,-0.72339 2.11287,-0.35385 0.59792,0.36954 1.08713,1.32033 1.08713,2.11287 0,0.79254 -0.64844,1.44098 -1.44098,1.44098 z m 594.440983,-12 c -0.48508,0 -1.18431,-0.48921 -1.55385,-1.08713 -0.36954,-0.59793 -0.17109,-1.58793 0.44098,-2.2 0.81716,-0.81716 1.40858,-0.81716 2.22574,0 0.61207,0.61207 0.81052,1.60207 0.44098,2.2 -0.36954,0.59792 -1.06877,1.08713 -1.55385,1.08713 z m -344,-4 c -0.58452,0 -1.3334,-0.70525 -1.66417,-1.56722 -0.33077,-0.86197 -0.0916,-2.07697 0.53139,-2.7 0.84371,-0.84371 1.42185,-0.84371 2.26556,0 0.62303,0.62303 0.86216,1.83803 0.53139,2.7 -0.33077,0.86197 -1.07965,1.56722 -1.66417,1.56722 z m 163.11331,-5.57003 c -0.48768,0.30141 -1.38378,-0.0509 -1.99133,-0.78299 -0.60754,-0.73205 -0.80853,-1.62709 -0.44664,-1.98899 0.3619,-0.36189 1.25799,-0.65799 1.99133,-0.65799 0.73333,0 1.33333,0.64844 1.33333,1.44098 0,0.79254 -0.39901,1.68759 -0.88669,1.98899 z m 129.76507,-4.87978 c -1.40025,1.40025 -1.67462,1.40025 -2.83673,0 -1.04872,-1.26364 -1.04872,-1.83674 0,-3.10038 1.16211,-1.40025 1.43648,-1.40025 2.83673,0 1.40025,1.40025 1.40025,1.70013 0,3.10038 z m -351.37838,-5.05992 c -8.25,0.20541 -16.125,0.17434 -17.5,-0.069 -1.375,-0.24337 -5.2,-0.93723 -8.5,-1.54191 -3.3,-0.60468 -9.375,-2.23159 -13.5,-3.61534 -4.125,-1.38376 -10.58164,-4.05645 -14.34808,-5.93933 -3.76644,-1.88288 -8.71644,-4.5962 -11,-6.02962 -2.28356,-1.43341 -6.17692,-4.2237 -8.65192,-6.20063 -2.475,-1.97693 -6.525,-5.47685 -9,-7.77761 -2.475,-2.30075 -5.27239,-5.49461 -6.21643,-7.09746 -1.64972,-2.80101 -1.63648,-3.00011 0.34072,-5.12238 1.92389,-2.06506 2.21249,-2.10632 4.45504,-0.63695 1.93036,1.26483 2.77422,1.33613 4.32808,0.36573 1.5064,-0.94076 2.24953,-0.94039 3.38464,0.002 0.79995,0.6639 2.08349,0.9657 2.85232,0.67067 0.76883,-0.29502 1.83837,-1.54029 2.37675,-2.76725 0.53838,-1.22696 1.42888,-2.11834 1.97888,-1.98084 0.55,0.1375 1,0.8125 1,1.5 0,0.6875 0.45,1.58061 1,1.98469 0.55,0.40408 1.25415,0.74158 1.56479,0.75 0.31063,0.008 1.36551,-1.66384 2.34418,-3.71613 1.6057,-3.36717 1.90299,-3.56241 3.04546,-2 0.71632,0.97963 2.57621,1.73144 4.28337,1.73144 1.65952,0 3.55531,0.64825 4.21287,1.44056 0.65756,0.79231 1.87113,1.18132 2.69683,0.86446 0.9987,-0.38323 1.30743,-1.34846 0.92222,-2.88325 -0.31848,-1.26894 -0.10232,-3.34545 0.48035,-4.61447 0.8551,-1.86232 1.94169,-2.34824 5.63423,-2.51956 2.65815,-0.12333 5.36835,-0.9304 6.46889,-1.92637 1.45203,-1.31407 2.16861,-1.43957 3.07044,-0.53774 0.84388,0.84388 0.87047,1.48227 0.0941,2.25867 -0.7764,0.7764 -0.66378,1.92123 0.39844,4.05052 0.81441,1.63252 1.99895,2.79351 2.6323,2.57999 0.63336,-0.21353 1.16633,-1.30305 1.18439,-2.42116 0.0181,-1.11811 1.55957,-3.77179 3.42558,-5.89707 1.86602,-2.12527 4.49018,-4.43348 5.83148,-5.12936 1.3413,-0.69587 3.43729,-1.26522 4.65775,-1.26522 1.22046,0 2.55631,0.3375 2.96856,0.75 0.41224,0.4125 2.48897,0.7778 4.61496,0.81177 3.80381,0.0608 3.86227,0.006 3.66713,-3.46143 -0.14388,-2.55638 0.24863,-3.61609 1.43033,-3.86172 0.89574,-0.18618 2.36617,0.39903 3.26761,1.30047 1.51865,1.51865 1.7821,1.46725 3.58811,-0.70005 1.07202,-1.28647 1.96409,-3.0784 1.98239,-3.98205 0.0183,-0.90366 0.70827,-1.90203 1.53327,-2.21862 0.825,-0.31658 1.5,-1.26472 1.5,-2.10699 0,-0.84226 0.635,-1.53138 1.41111,-1.53138 0.7761,0 2.5761,-1.38453 4,-3.07673 1.54862,-1.84043 2.58889,-2.48615 2.58889,-1.60698 0,0.80835 0.69858,1.7378 1.5524,2.06544 0.85381,0.32764 2.65381,-0.12597 4,-1.00802 1.34618,-0.88205 2.4476,-2.45198 2.4476,-3.48872 0,-1.03674 0.36,-1.88499 0.8,-1.88499 0.44,0 1.33831,0.53831 1.99625,1.19625 0.92834,0.92834 1.53676,0.76037 2.71662,-0.75 0.8362,-1.07044 2.19521,-3.48123 3.02002,-5.35731 0.82481,-1.87608 1.25712,-4.17519 0.9607,-5.10912 -0.29642,-0.93394 -0.25559,-2.43646 0.0907,-3.33894 0.34632,-0.90249 1.06728,-1.64088 1.60213,-1.64088 0.5532,0 0.6974,1.25239 0.33447,2.9048 -0.3509,1.59764 -0.22751,3.1585 0.27421,3.46858 0.50172,0.31008 2.55306,-0.89602 4.55855,-2.68021 2.44916,-2.17891 3.64633,-4.10778 3.64633,-5.87495 0,-2.14098 0.37348,-2.53331 2.00533,-2.10658 1.10293,0.28843 2.70685,-0.0578 3.56428,-0.76941 1.00008,-0.82999 1.34608,-2.14201 0.96515,-3.65975 -0.49521,-1.97308 -0.0853,-2.54319 2.46843,-3.43344 2.11239,-0.73638 2.92162,-1.57644 2.60888,-2.70827 -0.24936,-0.90242 -0.7445,-2.65358 -1.10033,-3.89146 -0.42846,-1.49059 0.0513,-3.2313 1.42065,-5.15437 1.13719,-1.59702 2.06761,-3.32697 2.06761,-3.84432 0,-0.51736 0.9,-1.75513 2,-2.75062 1.1,-0.99549 2,-2.41523 2,-3.15499 0,-0.73975 0.45,-1.34501 1,-1.34501 0.55,0 1,1.35 1,3 0,1.93728 0.50749,3 1.43261,3 0.78794,0 1.69814,-0.83661 2.02268,-1.85912 0.32453,-1.02252 0.30671,-2.59752 -0.0396,-3.5 -0.42276,-1.10202 -0.1016,-1.64123 0.97731,-1.64123 1.26172,0 1.60699,-1.07427 1.60699,-5 0,-3.92573 0.34527,-5 1.60699,-5 1.05984,0 1.39868,-0.54283 0.9952,-1.5943 -0.39205,-1.02166 0.50624,-2.63871 2.50091,-4.50201 2.4276,-2.26772 2.97645,-3.45059 2.49365,-5.37425 -0.50586,-2.0155 -0.0917,-2.73926 2.26499,-3.95794 1.58623,-0.82027 3.1601,-2.52193 3.4975,-3.78145 0.3374,-1.25953 0.6196,-3.21255 0.62711,-4.34005 0.008,-1.1275 0.5016,-2.53795 1.09798,-3.13433 0.59638,-0.59638 1.87975,-0.87632 2.85194,-0.62208 0.97219,0.25423 2.50196,2.00218 3.39949,3.88432 0.89754,1.88215 2.08916,3.42209 2.64806,3.42209 0.5589,0 1.01618,0.59509 1.01618,1.32242 0,0.72733 1.31469,3.76483 2.92153,6.75 1.60685,2.98517 3.80766,8.35258 4.89069,11.92758 1.08304,3.575 2.58085,9.2 3.32847,12.5 0.8484,3.74485 1.35931,12.20166 1.35931,22.5 0,10.42868 -0.50615,18.70775 -1.37556,22.5 -0.75656,3.3 -2.49071,9.375 -3.85368,13.5 -1.36297,4.125 -3.66331,9.975 -5.11187,13 -1.44856,3.025 -4.2189,7.975 -6.15632,11 -1.93742,3.025 -5.3648,7.975 -7.6164,11 -2.2516,3.025 -7.23777,8.46178 -11.08037,12.08174 -3.84261,3.61996 -10.77089,9.01996 -15.39618,12 -4.62529,2.98004 -9.98462,6.19387 -11.90962,7.14184 -1.925,0.94796 -5.74706,2.66644 -8.49348,3.81883 -2.74641,1.15238 -9.27141,3.21556 -14.5,4.58483 -7.54242,1.97522 -12.6056,2.56673 -24.50652,2.86303 z m 21.76631,-77.19431 c 0.42147,-0.23879 0.50742,-0.85306 0.19098,-1.36506 -0.31643,-0.51199 -1.22377,-0.9309 -2.01631,-0.9309 -0.79254,0 -1.44098,0.4125 -1.44098,0.91667 0,0.50416 0.5625,1.11844 1.25,1.36505 0.6875,0.24661 1.59484,0.25302 2.01631,0.0142 z M 91.863477,588.86941 c -0.79254,0 -1.74333,-0.48921 -2.11287,-1.08713 -0.36954,-0.59793 -0.2103,-1.54872 0.35385,-2.11287 0.56415,-0.56415 1.51494,-0.72339 2.11287,-0.35385 0.59792,0.36954 1.08713,1.32033 1.08713,2.11287 0,0.79254 -0.64844,1.44098 -1.44098,1.44098 z m 467.548633,-3 c -0.42587,0 -1.06208,-0.28777 -1.4138,-0.63948 -0.35171,-0.35171 -0.4123,-1.00706 -0.13464,-1.45633 0.27766,-0.44926 1.16284,-0.56434 1.96707,-0.25573 0.80423,0.30861 1.21326,0.96396 0.90896,1.45632 -0.3043,0.49237 -0.90172,0.89522 -1.32759,0.89522 z m -143.10765,-14 c -1.50615,0 -2.04609,-0.52215 -1.80963,-1.75 0.18536,-0.9625 0.99969,-1.75 1.80963,-1.75 0.80994,0 1.62427,0.7875 1.80963,1.75 0.23646,1.22785 -0.30348,1.75 -1.80963,1.75 z m 250.44098,0 c -0.79254,0 -1.44098,-0.64844 -1.44098,-1.44098 0,-0.79254 0.35899,-1.66285 0.79775,-1.93402 0.43876,-0.27117 1.39641,-0.12304 2.12811,0.32918 0.7317,0.45222 1.02116,1.32252 0.64324,1.93402 -0.37792,0.61149 -1.33558,1.1118 -2.12812,1.1118 z m -498.85765,-20 c -0.87083,0 -1.58333,-0.7125 -1.58333,-1.58333 0,-0.87084 0.53437,-1.40521 1.1875,-1.1875 0.65312,0.2177 1.36562,0.9302 1.58333,1.58333 0.21771,0.65312 -0.31666,1.1875 -1.1875,1.1875 z m 37.41667,-2 c -0.55,0 -1,-0.45 -1,-1 0,-0.55 0.45,-1 1,-1 0.55,0 1,0.45 1,1 0,0.55 -0.45,1 -1,1 z m 413.65919,-16.17288 c -1.3364,0.25736 -1.74367,-0.14991 -1.48631,-1.48631 0.19498,-1.01244 1.02335,-1.84081 1.84082,-1.84081 0.81746,0 1.4863,0.66884 1.4863,1.4863 0,0.81747 -0.82837,1.64584 -1.84081,1.84082 z m -137.54588,-9.39715 c -0.48768,0.30141 -1.38378,-0.0509 -1.99133,-0.78299 -0.60754,-0.73205 -0.80853,-1.62709 -0.44664,-1.98899 0.3619,-0.36189 1.25799,-0.65799 1.99133,-0.65799 0.73333,0 1.33333,0.64844 1.33333,1.44098 0,0.79254 -0.39901,1.68759 -0.88669,1.98899 z m 81.41085,-7.45002 c -1.22418,1.01598 -1.6192,0.93596 -2.14511,-0.43454 -0.35454,-0.92392 -0.20579,-2.11867 0.33055,-2.65501 0.63355,-0.63355 1.38501,-0.48133 2.14511,0.43454 0.90806,1.09414 0.83407,1.68846 -0.33055,2.65501 z m -504.062013,-4.6038 c -0.89117,0.34197 -1.78803,-0.0618 -2.13279,-0.96023 -0.32721,-0.85269 -0.12438,-2.0209 0.45073,-2.59601 0.5751,-0.5751 1.53486,-0.7433 2.13278,-0.37376 0.59792,0.36954 1.08713,1.27218 1.08713,2.00588 0,0.7337 -0.69203,1.59955 -1.53785,1.92412 z m 477.546533,-9.92764 c -3.30477,0.0848 -6.00868,-0.20637 -6.00868,-0.64713 0,-0.44076 -1.55917,-0.80138 -3.46482,-0.80138 -2.56018,0 -3.77633,-0.58207 -4.65793,-2.22936 -0.65622,-1.22615 -1.76491,-2.80115 -2.46376,-3.5 -0.69885,-0.69885 -1.49478,-1.27064 -1.76874,-1.27064 -0.27395,0 -0.6436,0.71793 -0.82143,1.5954 -0.27934,1.37838 -0.67957,1.31452 -2.94221,-0.46945 -1.44039,-1.13566 -2.90138,-3.47732 -3.24665,-5.20367 -0.41368,-2.0684 -1.08612,-2.96294 -1.9718,-2.62307 -0.73921,0.28366 -1.81514,0.21988 -2.39095,-0.14173 -0.57581,-0.36161 -1.74453,-2.33299 -2.59716,-4.38083 -1.14882,-2.75925 -1.30739,-4.57007 -0.61239,-6.9934 0.51581,-1.79852 0.93784,-4.65099 0.93784,-6.33882 0,-1.68782 0.9364,-5.0069 2.08089,-7.37571 1.49107,-3.08617 1.77451,-4.61332 1,-5.38783 -0.59449,-0.59449 -1.08089,-1.44089 -1.08089,-1.88089 0,-0.44 0.94307,-0.8 2.09571,-0.8 1.15264,0 3.37395,-0.75508 4.93625,-1.67795 1.5623,-0.92288 3.09531,-2.693 3.40668,-3.93361 0.31138,-1.24061 1.91506,-3.21617 3.56375,-4.39014 1.64868,-1.17397 2.99761,-2.6286 2.99761,-3.23251 0,-0.60391 0.7875,-1.96703 1.75,-3.02916 0.9625,-1.06212 3.74953,-3.91237 6.19341,-6.33388 2.44388,-2.42151 4.94719,-4.40275 5.56291,-4.40275 0.61572,0 2.41288,-1.35 3.99368,-3 1.5808,-1.65 3.35249,-3.00743 3.93709,-3.01652 0.5846,-0.009 2.92262,-1.92158 5.19559,-4.25 2.27297,-2.32841 9.80454,-9.73381 16.73683,-16.45643 6.93228,-6.72263 14.39215,-13.13513 16.57748,-14.25 2.18533,-1.11488 4.21626,-2.02705 4.51317,-2.02705 0.29691,0 0.53984,0.67119 0.53984,1.49153 0,0.82034 -0.9,2.05359 -2,2.74055 -1.1,0.68696 -2,1.79759 -2,2.46807 0,0.67048 -1.6875,2.9706 -3.75,5.11138 -2.0625,2.14078 -8.54856,8.79646 -14.41347,14.7904 -5.86491,5.99394 -13.41995,13.09303 -16.78897,15.77577 -3.36902,2.68273 -5.95068,5.05251 -5.73702,5.26617 0.21365,0.21366 3.26869,-0.21925 6.78896,-0.96202 3.52028,-0.74277 7.91521,-2.1386 9.76653,-3.10185 1.85131,-0.96325 3.59729,-2.63575 3.87996,-3.71667 0.30693,-1.17371 1.67978,-2.19848 3.40836,-2.5442 1.59193,-0.31839 3.81409,-1.87044 4.93813,-3.44901 1.12404,-1.57856 2.56324,-2.87012 3.19823,-2.87012 0.63499,0 9.59161,-8.61567 19.90361,-19.14593 16.14648,-16.48825 18.96458,-18.96708 20.30154,-17.8575 0.85386,0.70864 1.67281,1.11181 1.8199,0.89593 0.14709,-0.21587 1.45994,-2.25565 2.91745,-4.53283 1.45751,-2.27718 4.02815,-5.12164 5.71253,-6.32103 2.65856,-1.89306 3.14203,-1.97348 3.66538,-0.60967 0.33157,0.86407 1.08178,1.57103 1.66713,1.57103 0.58535,0 1.8872,-0.74474 2.89301,-1.65498 1.74256,-1.577 1.82874,-1.46735 1.82874,2.3268 0,3.79566 0.13137,3.96252 2.81026,3.56934 1.54565,-0.22685 4.81461,-2.28642 7.26437,-4.57681 2.44976,-2.29039 5.58219,-5.51435 6.96095,-7.16435 1.37876,-1.65 4.23205,-4.49024 6.34064,-6.31165 2.1086,-1.82141 4.04294,-3.10252 4.29856,-2.8469 0.25561,0.25561 -0.51908,2.42085 -1.72153,4.81165 -1.20245,2.3908 -2.75562,5.0219 -3.45148,5.8469 -0.69587,0.825 -1.57376,2.5125 -1.95088,3.75 -0.64057,2.10201 -0.38914,2.25 3.82271,2.25 2.4796,0 4.79177,-0.45855 5.13815,-1.01901 0.34638,-0.56046 2.73544,-2.08822 5.30902,-3.39503 2.57358,-1.3068 6.3763,-4.11074 8.4505,-6.23098 2.07419,-2.12024 4.54919,-4.57302 5.5,-5.45062 0.9508,-0.8776 3.68179,-3.6901 6.06887,-6.25 3.0467,-3.26728 5.13282,-4.65843 7,-4.66801 1.46292,-0.007 3.67236,-0.285 4.90986,-0.61663 1.606,-0.43039 2.25,-0.17089 2.25,0.90666 0,0.83031 -0.65017,1.75914 -1.44483,2.06408 -0.79465,0.30494 -1.75192,2.1914 -2.12727,4.19215 -0.44968,2.39705 -2.08852,4.99526 -4.80517,7.6181 -3.78851,3.65769 -3.98086,4.08534 -2.37273,5.27508 0.9625,0.71208 1.75,2.01676 1.75,2.89927 0,0.88252 -0.7875,2.02767 -1.75,2.54478 -0.9625,0.51711 -3.00217,3.34544 -4.53261,6.28518 -1.53044,2.93974 -3.52582,6.39964 -4.43418,7.68867 -1.60571,2.27862 -1.58398,2.33414 0.78261,2 1.81687,-0.25653 2.56098,-1.10449 2.93418,-3.34369 0.275,-1.65 1.17075,-4.0125 1.99055,-5.25 0.8198,-1.2375 1.8323,-2.25 2.25,-2.25 0.4177,0 0.75945,1.125 0.75945,2.5 0,1.375 0.37777,2.5 0.83948,2.5 0.46172,0 1.34475,-1.10893 1.9623,-2.46429 0.7041,-1.54533 0.76395,-2.68606 0.16051,-3.05901 -0.52926,-0.3271 -0.96229,-1.01817 -0.96229,-1.53571 0,-0.51754 1.40625,-0.94099 3.125,-0.94099 2.97294,0 3.0943,0.15351 2.49406,3.1547 -0.34701,1.73508 -1.15494,3.78608 -1.79539,4.55777 -0.64045,0.7717 -2.67576,2.03454 -4.5229,2.80633 -2.8212,1.17877 -3.26269,1.78474 -2.75989,3.78807 0.46909,1.86897 -0.28161,3.30088 -3.47059,6.61997 -2.23802,2.32934 -5.70797,6.23514 -7.71098,8.67956 -2.00302,2.44442 -3.3317,4.75455 -2.95262,5.13363 0.37908,0.37908 1.29665,0.25515 2.03904,-0.2754 0.74239,-0.53054 3.44337,-2.42713 6.00217,-4.21463 2.5588,-1.7875 5.67636,-3.25 6.92792,-3.25 1.25155,0 3.33243,-1.125 4.62418,-2.5 1.29175,-1.375 2.96906,-2.5 3.72737,-2.5 0.7583,0 3.04088,-1.12945 5.07238,-2.50989 2.03151,-1.38045 3.82711,-2.10953 3.99022,-1.6202 0.16311,0.48934 -1.13271,2.31899 -2.87961,4.06589 -1.84124,1.84124 -3.78966,2.94076 -4.63581,2.61606 -0.90537,-0.34742 -1.65536,0.18834 -1.97506,1.4109 -0.28349,1.08405 -1.32923,2.2293 -2.32388,2.54499 -0.99465,0.31568 -2.28442,1.93934 -2.86616,3.60812 -0.58174,1.66878 -1.51935,2.74884 -2.08358,2.40012 -0.56423,-0.34871 -1.02587,-0.19621 -1.02587,0.3389 0,0.5351 -2.25,3.34442 -5,6.24292 -2.75,2.89851 -5,5.69235 -5,6.20854 0,0.5162 0.675,0.37834 1.5,-0.30635 1.21484,-1.00823 1.5,-0.97202 1.5,0.19046 0,0.78945 -1.30794,2.68845 -2.90654,4.22 -1.5986,1.53155 -3.27485,2.70699 -3.725,2.61209 -0.45015,-0.0949 -0.96955,0.28073 -1.15423,0.83475 -0.18467,0.55401 0.52942,1.47032 1.58686,2.03625 1.41286,0.75614 2.42325,0.64995 3.81077,-0.40049 1.03848,-0.7862 2.90064,-1.44376 4.13814,-1.46126 1.2375,-0.0175 2.25,-0.4818 2.25,-1.0318 0,-0.55 0.91445,-1 2.03212,-1 1.11766,0 3.58284,-0.64793 5.47816,-1.43985 1.89532,-0.79191 3.6621,-1.09025 3.92618,-0.66297 0.26407,0.42729 -0.20162,1.75022 -1.03487,2.93985 -0.83325,1.18963 -2.36292,2.16297 -3.39928,2.16297 -1.03635,0 -2.16239,0.45 -2.50231,1 -0.33992,0.55 -1.68433,1 -2.98759,1 -1.30325,0 -2.97575,0.5625 -3.71666,1.25 -0.74091,0.6875 -3.36055,2.26375 -5.82143,3.50278 -2.46088,1.23903 -5.23526,2.25153 -6.1653,2.25 -0.93004,-0.002 -1.9474,0.4121 -2.26079,0.91918 -0.31339,0.50708 -3.60245,2.3341 -7.30902,4.06005 -3.70656,1.72595 -14.16421,6.79507 -23.23921,11.26472 -9.075,4.46965 -16.725,8.42448 -17,8.78852 -0.275,0.36404 -5.18296,3.09254 -10.90659,6.06332 -5.72362,2.97079 -11.46112,6.35303 -12.75,7.5161 -1.28887,1.16307 -2.34341,2.617 -2.34341,3.23095 0,0.61395 -1.125,1.39863 -2.5,1.74374 -1.375,0.3451 -2.5,0.94259 -2.5,1.32774 0,0.38516 -3.18356,2.1753 -7.07458,3.97809 -3.89102,1.80279 -9.85352,3.67983 -13.25,4.1712 -3.39648,0.49137 -6.51292,0.90244 -6.92542,0.9135 -0.4125,0.0111 -0.75,1.26779 -0.75,2.79272 0,2.52504 -0.47141,2.88222 -5.27928,4 -2.9036,0.67507 -5.99292,1.22739 -6.86514,1.22739 -0.87223,0 -2.7672,0.92924 -4.21107,2.06498 -1.44386,1.13575 -3.1079,1.76666 -3.69787,1.40204 -0.58997,-0.36462 -1.9404,0.12235 -3.00097,1.08215 -1.32994,1.20357 -3.79283,1.79295 -7.93699,1.89934 z m -1.00868,-2.6064 c 1.375,0 1.9375,-0.22698 1.25,-0.50439 -0.6875,-0.27741 -1.8125,-0.27741 -2.5,0 -0.6875,0.27741 -0.125,0.50439 1.25,0.50439 z M 680.97159,386.69274 c 0.91693,-0.17783 1.84262,-0.85042 2.05711,-1.49464 0.24807,-0.7451 -0.35856,-0.97557 -1.66714,-0.63337 -1.1314,0.29587 -2.0571,0.96846 -2.0571,1.49464 0,0.52618 0.75021,0.8112 1.66713,0.63337 z m -51.13142,-6.83864 c 0.53036,-0.008 1.62626,-0.43395 2.43533,-0.94563 0.80907,-0.51167 1.13586,-1.26549 0.72619,-1.67516 -0.40967,-0.40967 -1.50556,0.0159 -2.43533,0.94563 -0.92976,0.92976 -1.25654,1.68358 -0.72619,1.67516 z m 69.06846,-29.25552 c 0.33229,-0.33229 0.36781,-1.19479 0.0789,-1.91667 -0.31922,-0.79773 -0.55618,-0.56077 -0.60416,0.60417 -0.0434,1.05417 0.19293,1.64479 0.52522,1.3125 z m -38.2222,141.27083 c -0.825,0 -1.22189,-0.45 -0.88197,-1 0.33992,-0.55 1.29303,-1 2.11803,-1 0.825,0 1.22189,0.45 0.88197,1 -0.33992,0.55 -1.29303,1 -2.11803,1 z m -198.82295,-8 c -0.79254,0 -1.7191,-0.45 -2.05902,-1 -0.33992,-0.55 -0.33992,-1.45 0,-2 0.33992,-0.55 1.26648,-1 2.05902,-1 0.79254,0 1.44098,0.9 1.44098,2 0,1.1 -0.64844,2 -1.44098,2 z m -405.930453,-5 c -0.8308,0 -1.76355,-0.40939 -2.0728,-0.90976 -0.30924,-0.50036 -0.28036,-1.64438 0.0642,-2.54226 0.34455,-0.89788 1.13351,-1.46574 1.75325,-1.26192 0.61973,0.20383 1.27059,1.34785 1.44634,2.54227 0.20769,1.41147 -0.20922,2.17167 -1.19098,2.17167 z m 274.299793,-27 c -0.54512,0 -1.25015,-0.675 -1.56673,-1.5 -0.31659,-0.825 -0.31659,-2.175 0,-3 0.31658,-0.825 0.92722,-1.49911 1.35699,-1.49801 0.42976,0.001 0.87576,1.35109 0.99112,3 0.11536,1.6489 -0.23626,2.99801 -0.78138,2.99801 z m 12.07164,-19 c -0.55,0 -1,-0.9 -1,-2 0,-1.1 0.45,-2 1,-2 0.55,0 1,0.9 1,2 0,1.1 -0.45,2 -1,2 z m -239,-9 c -1.50615,0 -2.04609,-0.52215 -1.80963,-1.75 0.18536,-0.9625 0.99969,-1.75 1.80963,-1.75 0.80993,0 1.62427,0.7875 1.80963,1.75 0.23646,1.22785 -0.30348,1.75 -1.80963,1.75 z m 305.65919,-0.17288 c -1.3364,0.25736 -1.74367,-0.14991 -1.48631,-1.48631 0.19498,-1.01244 1.02335,-1.84081 1.84082,-1.84081 0.81746,0 1.4863,0.66884 1.4863,1.4863 0,0.81747 -0.82837,1.64584 -1.84081,1.84082 z m 295.78179,-3.82712 c -0.85746,0 -1.2809,-0.45 -0.94098,-1 0.33992,-0.55 1.04148,-1 1.55902,-1 0.51754,0 0.94098,0.45 0.94098,1 0,0.55 -0.70156,1 -1.55902,1 z m -223.83399,-5 c -0.76616,0 -1.63515,-0.631 -1.9311,-1.40223 -0.29595,-0.77123 -0.26909,-1.67123 0.0597,-2 0.32875,-0.32877 1.19774,-0.59777 1.93108,-0.59777 0.73333,0 1.33333,0.9 1.33333,2 0,1.1 -0.62686,2 -1.39301,2 z m -265.46862,-19 c -0.50841,0 -1.18995,-0.69203 -1.51452,-1.53785 -0.33982,-0.88556 0.0572,-1.78628 0.93614,-2.12354 0.83944,-0.32212 1.78745,-0.3245 2.10668,-0.005 0.31922,0.31923 0.31394,1.27482 -0.0118,2.12354 -0.32563,0.84875 -1.00808,1.54315 -1.5165,1.54315 z M 77.766607,388.24557 c -0.86268,0.33104 -1.77966,-0.04 -2.08862,-0.84513 -0.30291,-0.78939 -0.27147,-1.88715 0.0699,-2.43946 0.34135,-0.55232 1.28123,-0.75073 2.08862,-0.4409 0.80738,0.30982 1.46797,1.14202 1.46797,1.84933 0,0.70732 -0.69203,1.55159 -1.53785,1.87616 z M 705.38865,367.72951 c -2.13475,1.41742 -2.27937,1.395 -1.9452,-0.30156 0.19856,-1.00805 1.41077,-2.22039 2.69381,-2.69409 1.64153,-0.60604 2.21795,-0.51668 1.9452,0.30156 -0.21319,0.63956 -1.4254,1.8519 -2.69381,2.69409 z m -104.27617,0.1399 c -0.6149,0 -0.26075,-0.98562 0.78699,-2.19026 1.04775,-1.20465 3.07871,-3.45465 4.51325,-5 1.43455,-1.54536 3.34705,-2.80974 4.25,-2.80974 0.90296,0 1.60861,0.3375 1.56811,0.75 -0.0405,0.4125 -2.30714,2.6625 -5.03699,5 -2.72986,2.3375 -5.46647,4.25 -6.08136,4.25 z m 109.19198,-4 c -0.55,0 -1,-0.45 -1,-1 0,-0.55 0.45,-1 1,-1 0.55,0 1,0.45 1,1 0,0.55 -0.45,1 -1,1 z m -310.5,-3 c -0.825,0 -1.5,-0.45 -1.5,-1 0,-0.55 0.675,-1 1.5,-1 0.825,0 1.5,0.45 1.5,1 0,0.55 -0.675,1 -1.5,1 z m -74.15836,-1.28008 c -0.6371,0.21211 -1.45115,-0.0881 -1.80902,-0.66713 -0.35786,-0.57903 -0.37254,-1.50279 -0.0326,-2.05279 0.33992,-0.55 1.29947,-1 2.13234,-1 0.87615,0 1.37805,0.70256 1.19098,1.66714 -0.17782,0.91692 -0.84458,1.84067 -1.48168,2.05278 z m 289.90647,-2.778 c -1.42126,1.75519 -2.13424,2.05134 -2.70709,1.12445 -0.44709,-0.7234 -0.13149,-1.90447 0.74244,-2.7784 0.83606,-0.83606 2.05425,-1.34206 2.7071,-1.12445 0.80692,0.26898 0.5692,1.15858 -0.74245,2.7784 z m -107.81061,-2.25442 c -0.58438,0.1948 -1.37188,0.0448 -1.75,-0.33333 -0.37813,-0.37812 -0.6875,-1.3205 -0.6875,-2.09416 0,-0.80139 0.753,-1.26164 1.75,-1.06964 0.9625,0.18536 1.75,0.96836 1.75,1.74 0,0.77163 -0.47812,1.56234 -1.0625,1.75713 z m 112.625,-2.875 c -0.75,0.25 -1.125,-0.125 -0.875,-0.875 0.24063,-0.72187 1.02813,-1.50937 1.75,-1.75 0.75,-0.25 1.125,0.125 0.875,0.875 -0.24063,0.72188 -1.02813,1.50938 -1.75,1.75 z m -161.0625,-3.8125 c -0.48508,0 -1.18431,-0.48921 -1.55385,-1.08713 -0.36954,-0.59792 -0.17109,-1.58792 0.44098,-2.2 0.81716,-0.81716 1.40858,-0.81716 2.22574,0 0.61207,0.61208 0.81052,1.60208 0.44098,2.2 -0.36954,0.59792 -1.06877,1.08713 -1.55385,1.08713 z m 164.81854,0 c -0.6631,0 -0.58723,-0.57378 0.20152,-1.52416 0.69572,-0.83829 1.47088,-1.31823 1.72258,-1.06653 0.2517,0.2517 0.16101,0.93757 -0.20152,1.52416 -0.36254,0.58659 -1.1377,1.06653 -1.72258,1.06653 z m -480.06854,-5.19037 c -1.22785,0.23646 -1.75,-0.30348 -1.75,-1.80963 0,-1.50615 0.52215,-2.04609 1.75,-1.80963 0.9625,0.18536 1.75,0.9997 1.75,1.80963 0,0.80994 -0.7875,1.62427 -1.75,1.80963 z m 129.71215,-2.43347 c -0.88556,0.33982 -1.78628,-0.0573 -2.12354,-0.93614 -0.32213,-0.83945 -0.3245,-1.78746 -0.005,-2.10668 0.31923,-0.31923 1.27482,-0.31394 2.12354,0.0117 0.84872,0.32568 1.54313,1.00813 1.54313,1.51655 0,0.50841 -0.69203,1.18995 -1.53785,1.51452 z M 45.721127,339.86941 c -0.87084,0 -1.40521,-0.53437 -1.1875,-1.1875 0.21771,-0.65312 0.93021,-1.36562 1.58333,-1.58333 0.65312,-0.21771 1.1875,0.31667 1.1875,1.1875 0,0.87083 -0.7125,1.58333 -1.58333,1.58333 z m 541.107493,-7.02005 c -1.22418,1.01598 -1.6192,0.93596 -2.14511,-0.43454 -0.35454,-0.92391 -0.20579,-2.11867 0.33055,-2.65501 0.63355,-0.63355 1.38501,-0.48132 2.14511,0.43454 0.90806,1.09414 0.83407,1.68847 -0.33055,2.65501 z"
       id="path3068"
       inkscape:connector-curvature="0" />
    <path
       style="fill:#000000"
       d="m 377.25,988.2896 c -2.3375,0.039 -4.25,-0.1022 -4.25,-0.3131 0,-0.2109 1.04342,-0.5829 2.31872,-0.8267 1.2753,-0.2438 3.1878,-0.1029 4.25,0.3131 1.3663,0.5351 0.68797,0.777 -2.31872,0.8267 z m 196.375,0.069 c -0.74396,-7e-4 -1.17487,-3.2183 -1.27224,-9.5 -0.081,-5.2244 -10e-4,-9.499 0.17676,-9.499 0.1782,0 1.03196,1.4192 1.89724,3.1536 0.86528,1.7346 1.57324,4.6033 1.57324,6.375 0,1.7718 -0.28125,4.6277 -0.625,6.3464 -0.34375,1.7188 -1.13125,3.1246 -1.75,3.124 z m -193.55,-5.1907 c -0.59125,0.1971 -1.06811,-0.4666 -1.05969,-1.475 0.008,-1.0083 0.45153,-2.5083 0.98469,-3.3333 0.78387,-1.213 0.9723,-1.0694 0.98469,0.75 0.008,1.2375 0.0491,2.5763 0.0903,2.975 0.0413,0.3988 -0.40875,0.8862 -1,1.0833 z m 2.42945,-7.8083 c -0.20094,0 -0.52589,-1.0125 -0.7221,-2.25 -0.19622,-1.2375 0.65221,-5.1172 1.8854,-8.6215 1.23319,-3.5043 2.93744,-7.1397 3.78721,-8.0787 0.84977,-0.939 1.55046,-2.5719 1.55709,-3.6285 0.007,-1.0567 1.16803,-3.9463 2.5809,-6.4213 1.41288,-2.475 3.20746,-4.8599 3.98796,-5.2997 0.7805,-0.4398 1.41909,-1.5976 1.41909,-2.5729 0,-0.9752 2.6178,-5.3404 5.81733,-9.7003 3.19953,-4.3599 6.91203,-8.5071 8.25,-9.216 1.82937,-0.9692 2.45128,-2.1472 2.5077,-4.75 0.0413,-1.9036 0.82281,-4.2486 1.73678,-5.2111 0.91396,-0.9625 3.47415,-3.9223 5.68931,-6.5774 2.21515,-2.655 4.6961,-6.1202 5.51322,-7.7003 0.81711,-1.5801 1.48572,-3.4578 1.48578,-4.1726 7e-5,-0.7148 -1.22506,-4.1122 -2.72252,-7.5497 -1.49746,-3.4375 -3.07251,-6.25 -3.50012,-6.25 -0.42762,0 -0.77748,0.833 -0.77748,1.8511 0,1.018 -1.19417,4.0555 -2.65372,6.75 -1.45955,2.6944 -3.2562,6.0636 -3.99257,7.4872 -0.73637,1.4235 -2.12969,3.2926 -3.09628,4.1535 -0.96659,0.8609 -3.78243,1.7212 -6.25743,1.9117 l -4.5,0.3465 0.2201,-3.75 c 0.16038,-2.7326 -0.17876,-3.75 -1.25,-3.75 -0.80856,0 -1.4701,-0.4981 -1.4701,-1.107 0,-0.6088 0.67465,-0.8481 1.49921,-0.5317 1.05996,0.4068 2.26928,-0.9536 4.12751,-4.643 1.44556,-2.8701 3.02091,-5.3683 3.50079,-5.5516 0.47987,-0.1834 0.87249,-1.3006 0.87249,-2.4829 0,-1.753 -0.83691,-1.1927 -4.5375,3.0376 -2.87774,3.2897 -5.07247,4.9818 -6,4.6258 -0.96141,-0.3689 -1.4625,0.078 -1.4625,1.3053 0,1.0265 -0.93421,2.4498 -2.07601,3.1629 -1.66788,1.0416 -1.8404,1.5804 -0.87756,2.7405 0.98064,1.1816 0.8127,1.4441 -0.92399,1.4441 -1.16734,0 -2.12244,0.45 -2.12244,1 0,0.55 -0.47656,1 -1.05902,1 -0.58246,0 -0.7809,-0.45 -0.44098,-1 0.33992,-0.55 0.14148,-1 -0.44098,-1 -0.58246,0 -1.05902,0.8449 -1.05902,1.8776 0,1.0326 -0.62763,2.3984 -1.39474,3.035 -0.76711,0.6367 -1.93398,1.0293 -2.59306,0.8725 -0.65907,-0.1568 -1.71894,0.5929 -2.35526,1.6661 -0.63632,1.0731 -2.05694,2.7456 -3.15694,3.7167 -1.1,0.9711 -2.5625,1.7805 -3.25,1.7988 -0.6875,0.018 -1.25,0.6753 -1.25,1.4601 0,0.7847 -1.2375,2.0733 -2.75,2.8635 -1.5125,0.7903 -3.875,2.0634 -5.25,2.8291 -1.375,0.7658 -3.59121,2.2896 -4.92491,3.3864 -1.3337,1.0968 -3.47568,3.1192 -4.75997,4.4942 -1.28428,1.375 -3.23863,3.4547 -4.34298,4.6216 -1.10436,1.1669 -1.75348,2.7846 -1.4425,3.595 0.35172,0.9166 -0.6809,2.4057 -2.73211,3.9398 -1.81364,1.3564 -4.68025,3.0227 -6.37023,3.7028 -1.68999,0.6801 -6.18999,4.4093 -10,8.2871 -3.81002,3.8778 -7.6822,7.4547 -8.60486,7.9486 -0.92265,0.4938 -2.38515,0.6264 -3.25,0.2945 C 317.7076,954.4172 317,953.5188 317,952.7526 c 0,-0.7661 0.50805,-1.393 1.129,-1.393 0.62096,0 3.56978,-2.5402 6.55295,-5.645 2.98316,-3.1047 7.46461,-8.5048 9.95877,-12 2.49416,-3.4952 4.84557,-6.355 5.22535,-6.355 0.37979,0 2.47326,-3.4193 4.65216,-7.5984 2.567,-4.9235 4.93327,-8.1008 6.7217,-9.0257 1.51804,-0.785 2.76007,-1.8597 2.76007,-2.3882 0,-0.5285 1.48351,-1.5807 3.29669,-2.3383 1.81318,-0.7576 4.51318,-2.8232 6,-4.5902 1.48682,-1.7669 2.70331,-4.1047 2.70331,-5.1949 0,-1.0903 0.36858,-1.7545 0.81906,-1.4761 0.45048,0.2784 0.63443,-0.7517 0.40878,-2.2892 -0.22564,-1.5374 0.26939,-4.7761 1.10008,-7.1971 0.83068,-2.4211 1.81987,-5.1894 2.1982,-6.1519 0.54834,-1.3951 0.15909,-1.75 -1.91913,-1.75 -2.09466,0 -2.60699,0.4779 -2.60699,2.4319 0,1.5835 -1.09257,3.2099 -3.13165,4.6619 -2.36158,1.6815 -3.52961,1.9758 -4.75,1.1967 -0.98764,-0.6305 -1.61835,-2.4015 -1.61835,-4.544 0,-2.9936 -0.73398,-4.1176 -4.98167,-7.6287 -3.44385,-2.8467 -5.92885,-4.1178 -8.05,-4.1178 -1.68758,0 -3.57538,0.507 -4.19511,1.1268 -0.6221,0.6221 -2.24482,0.8462 -3.62293,0.5003 -1.37288,-0.3446 -3.83329,-1.7516 -5.46757,-3.1268 -1.63429,-1.3752 -3.67161,-2.5003 -4.52739,-2.5003 -0.85577,0 -1.97367,-0.7464 -2.48421,-1.6587 -0.81383,-1.4542 -1.30887,-1.2693 -4.01598,1.5 -1.69825,1.7373 -3.97634,3.1587 -5.06242,3.1587 -1.08608,0 -2.17341,-0.3375 -2.41629,-0.75 -0.24288,-0.4125 -0.0677,-1.7389 0.38939,-2.9476 0.45705,-1.2087 2.20421,-2.9078 3.88259,-3.7757 1.67837,-0.8679 3.05159,-2.2415 3.05159,-3.0524 0,-0.8109 -0.64844,-1.4743 -1.44098,-1.4743 -0.79254,0 -1.7191,0.45 -2.05902,1 -0.33992,0.55 -1.68992,1 -3,1 -1.31008,0 -2.66008,0.45 -3,1 -0.33992,0.55 -1.51617,1 -2.61388,1 -1.09772,0 -3.99188,0.9093 -6.43147,2.0207 -2.43959,1.1113 -5.17775,3.1532 -6.0848,4.5376 -1.5518,2.3683 -1.5376,2.6014 0.24048,3.9475 1.03932,0.7868 3.30403,1.4449 5.03268,1.4624 1.89435,0.019 3.37169,-0.5641 3.71862,-1.4682 0.31658,-0.825 1.68817,-1.5 3.04797,-1.5 1.3598,0 2.77471,0.4892 3.14425,1.0871 0.36954,0.598 0.17109,1.588 -0.44098,2.2 -0.61208,0.6121 -1.11287,2.2004 -1.11287,3.5295 0,1.9816 0.38759,2.3153 2.15322,1.8536 1.18427,-0.3097 3.54677,0.1575 5.25,1.0381 1.70323,0.8807 4.51837,2.9421 6.25588,4.5808 1.7375,1.6387 3.36516,4.0575 3.61702,5.375 0.30762,1.6092 -0.48759,3.6166 -2.42265,6.1157 -1.58433,2.0461 -4.08634,5.0702 -5.56003,6.7202 -1.47368,1.65 -3.99779,3.8145 -5.60912,4.8099 -1.61133,0.9955 -3.66198,1.5245 -4.557,1.1757 -1.40971,-0.5494 -1.32644,-0.8797 0.62268,-2.4702 1.2375,-1.0098 2.25,-2.3088 2.25,-2.8867 0,-0.578 0.93682,-1.9236 2.08182,-2.9903 1.145,-1.0667 2.32224,-3.732 2.6161,-5.9229 0.42617,-3.1773 0.10612,-4.4115 -1.58182,-6.0994 -1.22405,-1.2241 -3.394,-2.1161 -5.14748,-2.1161 -2.01369,0 -3.21353,-0.5875 -3.57392,-1.75 -0.2984,-0.9625 -1.13617,-2.8425 -1.86171,-4.1777 -0.72555,-1.3352 -2.37978,-2.5478 -3.67608,-2.6947 -1.2963,-0.147 -5.72322,-0.4594 -9.8376,-0.6943 -5.10964,-0.2917 -8.12072,-0.013 -9.5,0.8801 -1.43973,0.9321 -6.38856,1.3041 -17.24222,1.2962 -8.37261,-0.01 -15.79761,0.3461 -16.5,0.7827 -0.7024,0.4365 -7.80209,0.6868 -15.77709,0.5561 -7.975,-0.1307 -17.3125,-0.5063 -20.75,-0.8345 -5.09392,-0.4865 -6.25,-0.9251 -6.25,-2.3711 0,-1.4958 1.21611,-1.8663 7.75,-2.3615 4.2625,-0.323 9.6625,-0.5764 12,-0.5632 2.3375,0.013 4.25,-0.4092 4.25,-0.9387 0,-0.5295 -0.5625,-1.1897 -1.25,-1.4671 -0.6875,-0.2774 1.1125,-0.5399 4,-0.5833 2.8875,-0.044 5.25,-0.529 5.25,-1.079 0,-0.55 0.87764,-1 1.95031,-1 1.07267,0 2.31017,-0.5819 2.75,-1.293 0.43983,-0.7112 4.62469,-1.88 9.29969,-2.5972 4.675,-0.7173 9.37926,-1.2814 10.45391,-1.2537 1.07466,0.028 2.50709,-0.4088 3.18319,-0.9699 0.6761,-0.5611 3.84683,-1.221 7.04608,-1.4664 3.19925,-0.2454 7.16682,-0.9837 8.81682,-1.6407 1.65,-0.6571 3.59464,-1.7761 4.32143,-2.4869 0.72678,-0.7107 1.96047,-1.2922 2.74152,-1.2922 0.78106,0 1.98642,-0.924 2.67858,-2.0533 0.69216,-1.1293 3.50847,-3.5673 6.25847,-5.4178 2.75,-1.8505 5.74344,-4.189 6.65209,-5.1967 0.90866,-1.0077 2.84295,-2.9129 4.29843,-4.2338 1.84572,-1.675 2.32915,-2.7187 1.59791,-3.45 C 306.47179,834.4314 306,833.1861 306,832.2406 c 0,-0.9454 -0.78482,-3.0864 -1.74405,-4.7578 -1.3846,-2.4125 -2.22165,-2.9189 -4.06125,-2.4572 -1.78913,0.449 -2.44377,0.098 -2.87258,-1.5422 -0.30546,-1.1681 -1.3478,-2.1238 -2.31631,-2.1238 -0.9685,0 -2.21325,-0.5625 -2.76609,-1.25 -0.55284,-0.6875 -0.99658,-3.1516 -0.98608,-5.4759 0.014,-3.1117 0.47379,-4.3702 1.74373,-4.7733 0.94855,-0.301 4.59969,0.8128 8.11363,2.4751 3.51395,1.6624 7.82914,3.0229 9.58931,3.0233 1.85257,5e-4 3.56588,-0.6524 4.06839,-1.5504 0.68523,-1.2244 2.64418,-1.5291 9.29969,-1.4465 4.63739,0.058 9.6851,0.1931 11.21715,0.3012 1.53204,0.1081 3.14783,0.782 3.59064,1.4977 0.64344,1.0399 1.33909,1.0578 3.46446,0.09 1.46265,-0.6665 2.65936,-1.511 2.65936,-1.8769 0,-0.3658 -1.125,-1.722 -2.5,-3.0138 -1.375,-1.2917 -2.5,-2.7339 -2.5,-3.2049 0,-0.4709 1.54752,-2.2149 3.43894,-3.8756 1.89142,-1.6607 3.96126,-4.6021 4.59964,-6.5364 0.95001,-2.8785 0.89848,-3.7316 -0.28389,-4.7 -0.79451,-0.6507 -2.35188,-2.5331 -3.46082,-4.1831 -1.10894,-1.65 -2.57887,-4.8 -3.26651,-7 -0.68765,-2.2 -1.88884,-5.0176 -2.66933,-6.2614 -1.08272,-1.7254 -2.00438,-2.1145 -3.88855,-1.6416 -1.43465,0.3601 -2.46948,0.1861 -2.46948,-0.4152 0,-0.5693 0.7875,-1.278 1.75,-1.5748 0.9625,-0.2968 -0.26537,-0.3588 -2.7286,-0.1378 -3.26797,0.2932 -5.49806,-0.1711 -8.25,-1.7178 -2.07427,-1.1658 -3.7714,-2.5379 -3.7714,-3.0491 0,-0.5299 1.8679,-0.6493 4.34588,-0.2777 3.31258,0.4968 4.65526,0.279 5.64703,-0.916 0.99833,-1.203 1.04045,-2.14 0.18095,-4.0263 -0.6161,-1.3522 -0.86624,-3.1203 -0.55586,-3.9292 0.31038,-0.8088 0.0962,-2.9517 -0.47593,-4.7618 -0.59797,-1.8919 -1.16203,-16.4716 -1.32666,-34.2913 -0.20713,-22.4196 -0.6347,-31.6919 -1.54474,-33.5 -0.69209,-1.375 -1.26112,-5.4624 -1.26451,-9.0832 -0.003,-3.6208 -0.4985,-9.0348 -1.10025,-12.0311 -0.87653,-4.3646 -0.79822,-6.4359 0.39383,-10.4168 l 1.48792,-4.9689 0.0304,7 c 0.0167,3.85 0.2455,9.25 0.50844,12 0.26294,2.75 0.80956,7.8125 1.2147,11.25 0.40514,3.4375 1.07404,6.25 1.48644,6.25 0.4124,0 1.01092,1.4625 1.33005,3.25 0.31912,1.7875 1.13334,9.1 1.80937,16.25 0.67604,7.15 1.13695,15.025 1.02426,17.5 -0.11268,2.475 0.5234,7.875 1.41352,12 0.89012,4.125 1.87669,7.9297 2.19237,8.4548 0.31569,0.5251 0.69539,2.3251 0.84379,4 0.14839,1.6748 0.51137,5.3443 0.80661,8.1544 0.29524,2.81 1.19747,6.6904 2.00496,8.6229 0.80749,1.9326 1.234,3.748 0.9478,4.0342 -0.2862,0.2862 1.75664,3.8154 4.53965,7.8426 2.78429,4.0291 5.06691,8.4621 5.07533,9.8567 0.008,1.3939 0.40811,3.1546 0.8882,3.9125 0.48009,0.758 1.37319,1.0689 1.98469,0.691 0.61149,-0.3779 1.11869,-1.6731 1.12711,-2.8781 0.008,-1.2051 0.43396,-2.853 0.94563,-3.662 0.51167,-0.8091 1.26781,-1.1336 1.6803,-0.7211 0.41249,0.4125 0.89267,1.5245 1.06707,2.471 0.1744,0.9466 0.60699,3.9255 0.96129,6.6198 0.49045,3.7295 0.29049,5.1615 -0.83784,6 -0.81512,0.6057 -2.26771,2.3086 -3.22797,3.7842 -1.34561,2.0678 -1.50117,3.1403 -0.67845,4.6776 0.58712,1.097 0.80256,2.685 0.47876,3.5288 -0.3238,0.8438 0.11828,2.9515 0.98241,4.6837 1.35079,2.7077 1.37659,3.4271 0.18397,5.1298 -0.76295,1.0893 -2.35865,2.661 -3.546,3.4926 -1.18736,0.8317 -1.92325,2.126 -1.63533,2.8763 0.28793,0.7504 0.066,1.647 -0.49318,1.9926 -0.55918,0.3456 -2.22702,0.1872 -3.70633,-0.352 -1.4793,-0.5392 -4.71464,-1.57 -7.18964,-2.2907 -2.475,-0.7207 -5.57319,-2.1229 -6.88486,-3.116 -1.31171,-0.9931 -3.19765,-1.8056 -4.19102,-1.8056 -0.99337,0 -2.08526,0.4516 -2.42643,1.0037 -0.34116,0.552 -1.71772,0.7282 -3.05902,0.3916 C 320.4114,819.2465 320,819.5117 320,821.3271 c 0,1.7595 0.53417,2.1485 2.75,2.0024 1.5125,-0.1 3.26974,-0.1336 3.90498,-0.075 0.63524,0.058 2.33146,2.1135 3.76939,4.5671 1.43793,2.4537 3.16819,4.8162 3.84502,5.25 0.67684,0.4339 2.06802,1.7794 3.09151,2.9901 1.82042,2.1534 1.81498,2.2597 -0.25,4.8849 -1.16099,1.476 -2.1109,3.9729 -2.1109,5.5487 0,1.8884 0.5147,2.8652 1.50979,2.8652 0.83038,0 2.29288,-0.9101 3.25,-2.0223 0.95711,-1.1123 1.98494,-3.0224 2.28406,-4.2448 0.29911,-1.2223 1.42411,-2.3916 2.5,-2.5984 1.07588,-0.2067 3.08115,-0.8419 4.45615,-1.4115 1.375,-0.5696 3.33708,-0.9286 4.36019,-0.7978 1.0231,0.1308 3.0481,-0.8659 4.5,-2.2149 1.45189,-1.349 3.90288,-2.7507 5.44662,-3.1148 2.25551,-0.5321 2.6807,-1.0595 2.16474,-2.6852 -0.43952,-1.3848 0.0946,-2.7641 1.69319,-4.3725 1.28439,-1.2922 2.95991,-3.1144 3.72336,-4.0493 1.05493,-1.2918 1.10102,-1.8772 0.19201,-2.439 -0.7238,-0.4474 -0.94377,-1.7446 -0.55707,-3.2853 0.36211,-1.4428 0.17057,-2.8356 -0.44201,-3.2142 -0.59457,-0.3674 -1.08103,-1.7399 -1.08103,-3.05 0,-1.3101 -0.45,-2.6601 -1,-3 -0.55,-0.3399 -1,-1.454 -1,-2.4757 0,-1.0217 0.5455,-2.0395 1.21222,-2.2617 0.77079,-0.2569 1.11048,-2.0585 0.93284,-4.9474 -0.15367,-2.4988 -1.28397,-6.5169 -2.51179,-8.9292 -1.22782,-2.4123 -3.04935,-5.6235 -4.04785,-7.136 -0.99849,-1.5125 -2.43869,-2.75 -3.20043,-2.75 -0.99532,0 -1.38499,-1.4068 -1.38499,-5 0,-3.7778 0.36667,-5 1.5,-5 0.825,0 1.5,-0.7171 1.5,-1.5936 0,-0.8765 -0.93452,-1.838 -2.07672,-2.1367 -1.1422,-0.2987 -2.50499,-1.6695 -3.02842,-3.0463 -0.71206,-1.8728 -0.56684,-2.9284 0.57672,-4.192 0.84063,-0.9289 1.52842,-2.496 1.52842,-3.4826 0,-1.481 0.26148,-1.5767 1.5,-0.5488 0.825,0.6847 1.51905,1.9773 1.54233,2.8724 0.0233,0.8952 1.66445,2.6633 3.64705,3.9292 2.44723,1.5625 4.76165,2.2048 7.20767,2 2.35315,-0.197 3.60295,-0.8077 3.60295,-1.7606 0,-0.8169 -1.32033,-1.7315 -3,-2.0781 -1.65,-0.3405 -3.9853,-1.2377 -5.18955,-1.9938 -1.20426,-0.7561 -2.7428,-2.4084 -3.41898,-3.6719 -0.67619,-1.2635 -1.66628,-2.2972 -2.20021,-2.2972 -0.53392,0 -1.56857,-0.7875 -2.29921,-1.75 -0.73065,-0.9625 -1.34275,-2.4894 -1.36025,-3.393 -0.0175,-0.9037 -0.69629,-1.898 -1.50845,-2.2097 -1.2765,-0.4898 -1.24581,-0.9688 0.22643,-3.534 l 1.70308,-2.9675 4.96066,4.8833 c 2.72837,2.6858 6.21839,5.4042 7.75561,6.041 1.53722,0.6367 3.48478,0.8929 4.32792,0.5694 0.84313,-0.3235 2.0209,-1.8373 2.61725,-3.3639 0.59636,-1.5266 1.19424,-3.2256 1.32861,-3.7756 0.13438,-0.55 0.57698,-2.35 0.98356,-4 0.40657,-1.65 1.62606,-5.25 2.70996,-8 1.0839,-2.75 2.33215,-5.9 2.77389,-7 0.44174,-1.1 2.89263,-6.1861 5.44642,-11.3025 C 393.91053,705.4417 396,700.3647 396,699.2759 c 0,-1.0888 0.65204,-3.5402 1.44897,-5.4475 0.97939,-2.344 2.1075,-3.4679 3.48095,-3.4679 1.36371,0 2.28475,-0.9044 2.80058,-2.75 0.42274,-1.5125 0.70821,-8.6 0.63439,-15.75 -0.0738,-7.15 -0.3612,-16.375 -0.63862,-20.5 -0.38744,-5.761 -0.12739,-8.1956 1.12158,-10.5 0.89429,-1.65 2.49781,-4.0125 3.56338,-5.25 1.06557,-1.2375 2.71234,-2.25 3.65949,-2.25 0.94715,0 3.14005,-1.615 4.8731,-3.5888 1.90007,-2.1641 3.72767,-3.3675 4.60359,-3.0314 0.79893,0.3066 1.45259,1.4716 1.45259,2.5888 0,1.139 -0.65894,2.0314 -1.5,2.0314 -0.825,0 -1.55743,0.3375 -1.62762,0.75 -0.0702,0.4125 -0.23555,1.8 -0.36747,3.0834 -0.13191,1.2834 -0.78795,3.9942 -1.45787,6.0241 -1.08332,3.2824 -0.92325,4.5175 1.44719,11.1666 1.46587,4.1117 3.11248,10.4009 3.65913,13.9759 0.54666,3.575 1.35967,8.975 1.80671,12 0.44703,3.025 1.9889,9.9797 3.42636,15.4548 1.87436,7.1393 2.61357,12.466 2.61357,18.8334 0,6.5515 -0.32039,8.7717 -1.22242,8.471 -0.67233,-0.2241 -1.51038,-1.4991 -1.86235,-2.8333 -0.55285,-2.0958 -0.74126,-2.1878 -1.38457,-0.6759 -0.40955,0.9625 -1.14117,1.75 -1.62583,1.75 -0.48466,0 -1.17351,-1.828 -1.53077,-4.0622 -0.46315,-2.8964 -0.95802,-3.7538 -1.72426,-2.9876 -0.59107,0.5911 -1.40464,4.1066 -1.80793,7.8122 -0.4033,3.7057 -1.20072,10.0427 -1.77205,14.0824 -0.64207,4.5398 -0.6867,8.0026 -0.11685,9.0673 0.50705,0.9475 1.15219,6.8396 1.43363,13.0936 l 0.51172,11.3709 5.45013,5.4501 c 4.3108,4.3108 6.1506,5.4735 8.80084,5.5617 1.84289,0.061 3.97428,0.703 4.73642,1.4259 0.86428,0.8197 1.03221,1.6678 0.44626,2.2537 -0.58595,0.586 -1.64317,0.4249 -2.80956,-0.428 -1.61493,-1.1808 -2.32395,-1.0996 -5.19626,0.5951 -1.82938,1.0793 -3.32615,2.5749 -3.32615,3.3235 0,0.7486 1.79615,1.8993 3.99146,2.557 3.42589,1.0264 4.57085,0.9346 8.08059,-0.6481 3.61412,-1.6297 4.015,-2.1415 3.45089,-4.4057 -0.35103,-1.409 -0.8172,-4.0102 -1.03591,-5.7804 -0.21872,-1.7702 0.0322,-3.4843 0.55765,-3.809 0.52543,-0.3248 0.95532,-1.4498 0.95532,-2.5 0,-1.0503 1.86257,-4.6237 4.13905,-7.941 2.27648,-3.3173 4.52648,-6.0314 5,-6.0314 0.47352,0 0.86095,-0.8303 0.86095,-1.845 0,-1.0148 0.9,-2.6595 2,-3.655 1.1,-0.9955 2,-2.6244 2,-3.6198 0,-0.9954 0.9349,-2.3102 2.07756,-2.9217 1.16133,-0.6215 1.84211,-1.7255 1.54367,-2.5032 -0.29363,-0.7652 -0.0853,-1.6685 0.46296,-2.0073 0.54827,-0.3389 2.19344,-2.4908 3.65594,-4.7821 2.46185,-3.8569 2.66282,-4.9966 2.70948,-15.3647 0.0346,-7.6847 -0.34186,-11.5915 -1.19961,-12.45 -0.6875,-0.6882 -1.25,-3.305 -1.25,-5.8153 0,-2.5103 -0.95078,-7.0328 -2.11284,-10.05 -1.16207,-3.0172 -2.33814,-6.7234 -2.6135,-8.2359 -0.27536,-1.5125 -0.86278,-2.75 -1.30537,-2.75 -0.44259,0 -1.53039,-0.2785 -2.41732,-0.6188 -1.38381,-0.531 -1.52612,10e-4 -1.00304,3.75 0.33526,2.4028 1.73125,9.0144 3.1022,14.6924 1.97037,8.1605 2.39471,12.0367 2.02522,18.5 -0.25708,4.497 -0.80502,9.7514 -1.21764,11.6764 -0.41263,1.925 -1.45479,4.625 -2.31593,6 -0.86114,1.375 -3.42822,4.4046 -5.70462,6.7325 -2.2764,2.3278 -4.43102,3.9403 -4.78804,3.5833 C 447.29211,745.3193 447,743.5879 447,741.8287 c 0,-1.7592 0.891,-4.3312 1.98001,-5.7156 1.089,-1.3845 2.45832,-3.5827 3.04293,-4.8849 0.58462,-1.3022 1.73923,-3.4927 2.5658,-4.8677 1.16204,-1.933 1.37339,-4.4277 0.93194,-11 -0.31402,-4.675 -0.60171,-12.6389 -0.63931,-17.6976 -0.0376,-5.0587 -0.45227,-10.8999 -0.92149,-12.9803 -0.64039,-2.8394 -0.4924,-4.1812 0.5935,-5.3811 0.83412,-0.9217 1.44662,-3.6066 1.44662,-6.3412 0,-2.8209 -0.59059,-5.3332 -1.45751,-6.2002 -0.80163,-0.8016 -1.20448,-2.1169 -0.89522,-2.9228 0.30927,-0.8059 0.96515,-1.2163 1.45751,-0.912 0.49237,0.3043 0.95812,-0.036 1.035,-0.7558 0.0769,-0.7199 0.0467,-2.9094 -0.067,-4.8654 -0.13287,-2.2847 0.49135,-4.4186 1.74561,-5.9676 1.72512,-2.1304 2.15167,-2.2458 3.66382,-0.9908 1.49405,1.2399 1.83241,1.2041 2.66431,-0.2824 0.52405,-0.9366 1.32162,-1.7028 1.77233,-1.7028 0.4507,0 1.06092,1.4879 1.35604,3.3065 0.29511,1.8186 1.32581,5.0811 2.29044,7.25 0.96464,2.1689 1.82585,4.1685 1.91382,4.4435 0.088,0.275 0.71129,2.4229 1.38515,4.7731 0.67387,2.3502 1.00977,4.6216 0.74644,5.0477 -0.26333,0.4261 -0.0928,1.3993 0.37903,2.1626 0.68617,1.1103 1.15535,1.141 2.34499,0.1537 1.18301,-0.9818 1.64927,-0.972 2.27966,0.048 0.43586,0.7053 1.87036,3.3146 3.18776,5.7986 1.31741,2.484 3.81336,5.7355 5.54655,7.2257 1.7332,1.4901 3.99123,2.7276 5.01785,2.75 1.52219,0.033 1.74673,0.548 1.217,2.7906 -0.35726,1.5125 -0.74722,3.871 -0.86657,5.2411 -0.16663,1.9127 -0.91346,2.6147 -3.21701,3.0239 -2.93542,0.5213 -2.99056,0.6399 -2.56157,5.5089 0.24114,2.7369 0.40513,9.2511 0.36442,14.4761 -0.0407,5.225 -0.59999,14 -1.24285,19.5 -0.64286,5.5 -1.59435,10.4275 -2.11442,10.95 -0.52007,0.5225 -0.94558,1.76 -0.94558,2.75 0,0.99 0.62838,1.8 1.39641,1.8 0.76802,0 2.79302,-1.5907 4.5,-3.5348 1.70697,-1.9441 3.10359,-4.1941 3.10359,-5 0,-0.8059 0.48032,-1.4652 1.06739,-1.4652 0.65673,0 0.78629,0.8656 0.33676,2.25 -0.40185,1.2375 -0.81408,3.6 -0.91606,5.25 -0.10199,1.65 -0.70427,4.2687 -1.3384,5.8194 -0.63413,1.5507 -0.90493,3.8076 -0.60179,5.0155 0.39817,1.5864 -0.29707,3.0087 -2.5045,5.1235 -1.92778,1.847 -2.85633,3.5557 -2.5156,4.6292 0.29705,0.9359 -0.12159,2.3633 -0.93031,3.1721 -1.29387,1.2938 -1.16998,1.6311 1.0319,2.8096 1.41468,0.7571 2.74533,2.5543 3.06145,4.1349 0.30754,1.5377 1.08276,2.7958 1.72272,2.7958 0.63996,0 2.92885,-0.9 5.08644,-2 2.15759,-1.1 4.8048,-2 5.8827,-2 1.0779,0 2.8053,-0.7652 3.83866,-1.7003 1.52758,-1.3825 2.41078,-1.4996 4.72415,-0.6264 1.56492,0.5907 3.2627,0.7934 3.77284,0.4504 0.51014,-0.343 1.23768,-1.4622 1.61674,-2.4871 0.51498,-1.3924 1.25493,-1.6866 2.92706,-1.1635 1.23082,0.385 4.21011,1.0488 6.62066,1.4751 2.41054,0.4263 4.7954,1.5123 5.29969,2.4134 0.50428,0.9011 1.81274,1.6384 2.90768,1.6384 1.09494,0 3.31353,-0.9779 4.9302,-2.1732 2.76974,-2.0477 3.04709,-2.0757 4.80525,-0.4846 1.36743,1.2375 3.71018,1.6927 8.77011,1.7042 3.79734,0.01 7.91676,0.01 9.15426,0 1.33468,-0.012 2.25,0.5858 2.25,1.469 0,0.8188 -0.45,1.4888 -1,1.4888 -0.55,0 -1,0.5989 -1,1.331 0,0.7321 -1.08712,1.9128 -2.41583,2.6239 -1.3287,0.7111 -5.9412,1.3392 -10.25,1.3957 -4.30879,0.056 -10.30917,-0.019 -13.33417,-0.168 -3.025,-0.1489 -6.625,-0.1263 -8,0.05 -1.375,0.1766 -3.48292,0.8715 -4.68426,1.5441 -1.20134,0.6726 -3.19676,1.223 -4.43427,1.223 -1.23751,0 -4.1921,0.9401 -6.56575,2.0892 -2.37364,1.149 -4.31572,2.4462 -4.31572,2.8826 0,0.4364 -2.5875,2.0538 -5.75,3.5942 -3.1625,1.5405 -6.875,3.9647 -8.25,5.3872 -1.375,1.4225 -4.44895,4.1066 -6.831,5.9647 -2.38205,1.8582 -5.40159,5.0744 -6.71009,7.1472 -1.30851,2.0728 -2.65553,4.8701 -2.9934,6.2163 -0.4543,1.81 -0.13976,2.6296 1.20773,3.1467 1.33195,0.5111 2.71899,-0.2796 5.15688,-2.9398 1.94419,-2.1215 3.92599,-3.4122 4.75238,-3.095 0.77962,0.2991 1.4175,1.1779 1.4175,1.9528 0,0.775 -0.675,1.9692 -1.5,2.6539 -0.825,0.6847 -1.5,2.2597 -1.5,3.5 0,1.2403 -0.70467,2.8399 -1.56594,3.5547 -0.86126,0.7148 -2.21126,2.5475 -3,4.0728 -0.78873,1.5252 -1.43406,3.4705 -1.43406,4.3228 0,0.8523 0.59656,1.5497 1.32569,1.5497 0.72912,0 2.23921,-1.0125 3.35575,-2.25 1.11654,-1.2375 2.69183,-3.6 3.50065,-5.25 0.80882,-1.65 2.22373,-4.499 3.14425,-6.3311 0.92051,-1.832 1.67366,-5.3337 1.67366,-7.7814 0,-3.0333 0.47759,-4.6336 1.5,-5.0259 0.825,-0.3166 1.5,-1.2166 1.5,-2 0,-0.7834 0.675,-1.6834 1.5,-2 0.825,-0.3166 1.5,-1.2429 1.5,-2.0584 0,-0.8156 1.2225,-2.7781 2.71668,-4.3612 1.49417,-1.583 3.93158,-3.1451 5.41646,-3.4713 1.48488,-0.3261 2.94825,-1.2404 3.25194,-2.0318 0.30368,-0.7914 1.50931,-1.4389 2.67916,-1.4389 1.16986,0 3.32149,-0.8106 4.78139,-1.8012 1.64342,-1.1152 4.89452,-1.9016 8.53614,-2.0646 5.10949,-0.2288 5.79882,-0.047 5.25,1.383 C 531.2843,800.7869 531,801.716 531,801.946 c 0,0.23 -1.38032,0.4182 -3.06739,0.4182 -2.56811,0 -2.96835,0.3121 -2.45891,1.9171 0.49023,1.5446 0.219,1.8153 -1.39583,1.393 -1.10237,-0.2883 -3.96293,0.424 -6.35681,1.5829 -2.39388,1.1588 -4.81569,2.107 -5.3818,2.107 -0.56611,0 -1.78092,0.8306 -2.69959,1.8457 -1.5663,1.7307 -1.5403,2.0109 0.41759,4.5 1.14835,1.4599 1.60524,2.6543 1.01532,2.6543 -0.58992,0 -1.07258,-0.45 -1.07258,-1 0,-0.55 -0.9,-1 -2,-1 -1.48151,0 -2,0.6667 -2,2.5716 0,2.0541 0.45272,2.5349 2.25,2.3893 1.2375,-0.1003 2.66247,-0.1325 3.16661,-0.072 0.50414,0.061 -0.83731,1.6268 -2.98099,3.4799 -3.40105,2.9399 -3.72517,3.5769 -2.54417,5 0.74439,0.8969 2.17178,1.6308 3.17198,1.6308 1.00019,0 2.11293,-0.4764 2.47275,-1.0586 0.38484,-0.6227 1.90621,-0.7835 3.69486,-0.3907 2.84525,0.6249 3.00096,0.5097 2.42313,-1.7925 -0.47999,-1.9124 0.0445,-3.0502 2.35551,-5.1093 1.63515,-1.4569 3.4269,-2.6489 3.98166,-2.6489 0.55476,0 1.00866,0.45 1.00866,1 0,0.55 0.36075,1 0.80166,1 0.44091,0 1.63996,-2.9314 2.66456,-6.5142 1.02459,-3.5827 2.35134,-6.9146 2.94834,-7.4041 0.59699,-0.4896 2.21044,-1.0457 3.58544,-1.2359 1.69663,-0.2347 2.60269,-1.0689 2.81955,-2.5958 0.17575,-1.2375 0.57355,-2.25 0.88398,-2.25 0.31044,0 2.31858,0.5255 4.46255,1.1679 2.97235,0.8905 4.17548,0.8905 5.06602,0 0.64234,-0.6424 2.23248,-1.1679 3.53364,-1.1679 1.30116,0 3.29039,-0.4949 4.4205,-1.0997 1.13012,-0.6048 3.8322,-1.3039 6.00462,-1.5535 2.42816,-0.2789 6.13796,0.3029 9.6295,1.5103 3.12987,1.0823 6.91678,1.7268 8.43539,1.4357 1.539,-0.295 3.43766,0.038 4.30018,0.7536 1.2753,1.0584 1.84067,0.9811 3.24426,-0.4435 1.6,-1.6239 1.59533,-1.8027 -0.0796,-3.0458 -1.59815,-1.1861 -1.61529,-1.3836 -0.16821,-1.9389 0.88615,-0.34 3.27424,-0.6182 5.30688,-0.6182 2.03264,0 4.67699,0.6873 5.87633,1.5273 1.19934,0.8401 1.96035,2.1014 1.69114,2.8029 -0.26921,0.7016 -1.83695,2.0716 -3.48386,3.0444 -2.47794,1.4638 -4.24037,1.648 -10.21864,1.0682 -3.97334,-0.3853 -8.79925,-0.7551 -10.72425,-0.8217 -2.21901,-0.077 -3.4085,-0.5786 -3.25,-1.3711 0.16682,-0.8342 -1.08714,-1.25 -3.76905,-1.25 -3.83254,0 -3.98866,0.121 -3.36416,2.6093 0.62465,2.4888 0.51009,2.5774 -2.48178,1.9203 -2.37869,-0.5224 -3.28314,-0.3072 -3.74282,0.8907 -0.33339,0.8688 -1.24416,1.5797 -2.02393,1.5797 -0.77977,0 -1.84549,1.125 -2.36826,2.5 -0.52277,1.375 -1.46273,2.5 -2.08879,2.5 -0.78989,0 -0.9233,1.4538 -0.43589,4.75 0.38633,2.6125 1.33742,5.4604 2.11355,6.3287 0.77612,0.8683 1.41113,2.3222 1.41113,3.2309 0,0.914 -1.08171,1.9237 -2.42091,2.2599 -1.33149,0.3341 -3.24399,0.4514 -4.25,0.2605 -1.08519,-0.206 -1.94387,-1.3604 -2.11132,-2.8386 -0.15522,-1.3703 0.63054,-4.2707 1.74614,-6.4453 1.17353,-2.2876 1.65612,-4.3261 1.14509,-4.8371 -0.51102,-0.5111 -1.16642,-0.4251 -1.55515,0.2038 -0.36954,0.5979 -1.32033,1.0872 -2.11287,1.0872 -0.79254,0 -1.32848,-0.5625 -1.19098,-1.25 0.13834,-0.6917 -0.924,-1.3861 -2.37847,-1.5547 -2.26071,-0.2621 -2.72447,0.1576 -3.31459,3 -0.37736,1.8176 -0.92886,5.236 -1.22554,7.5964 -0.30289,2.4099 -0.002,5.589 0.6859,7.25 0.67394,1.6271 1.84575,2.9583 2.60402,2.9583 0.95782,0 1.37868,1.3126 1.37868,4.3 0,2.365 0.39139,4.7275 0.86976,5.25 0.47837,0.5225 1.12508,2.6375 1.43713,4.7 0.48991,3.238 0.3029,3.75 -1.36976,3.75 -1.07967,0 -1.93713,0.6833 -1.93713,1.5438 0,0.9156 0.71214,1.4243 1.75,1.25 1.47276,-0.2473 1.70705,0.3836 1.4789,3.9825 -0.14911,2.3519 0.18783,5.1338 0.74874,6.1819 0.66374,1.2402 1.89381,1.8124 3.52271,1.6387 1.37657,-0.1467 2.80213,-0.5661 3.16792,-0.9319 0.36578,-0.3658 0.99128,-0.665 1.38999,-0.665 0.39871,0 0.99214,1.0646 1.31874,2.3659 0.45259,1.8033 1.72694,2.6707 5.35841,3.6474 2.62052,0.7048 5.19209,1.6652 5.71459,2.1341 0.5552,0.4982 -0.0682,0.8901 -1.5,0.9428 -1.3475,0.05 0.8125,0.6817 4.8,1.4047 5.72637,1.0381 8.7063,1.069 14.17962,0.1468 3.8113,-0.6422 7.2613,-1.4993 7.66667,-1.9047 0.40537,-0.4054 3.58704,-0.737 7.07038,-0.737 3.48333,0 6.33618,0.3375 6.33965,0.75 0.003,0.4125 1.38995,1.5375 3.08104,2.5 1.6911,0.9625 4.31851,1.75 5.83869,1.75 1.52019,0 3.44032,0.7875 4.26696,1.75 0.82665,0.9625 1.75507,2.4666 2.06316,3.3424 0.30809,0.8759 2.20255,2.3719 4.2099,3.3244 2.8564,1.3555 3.96062,1.4739 5.08,0.5449 1.12875,-0.9367 1.55684,-0.8571 2.03071,0.3777 0.33024,0.8606 0.29005,2.067 -0.0893,2.6809 -0.37937,0.6138 -1.30483,0.88 -2.05659,0.5915 -0.75175,-0.2885 -1.63279,-0.094 -1.95786,0.4318 -0.32508,0.526 0.31798,0.9564 1.42902,0.9564 1.11103,0 2.93402,0.981 4.05107,2.18 1.85385,1.9899 1.89426,2.3311 0.46325,3.9124 -0.94846,1.048 -1.4391,3.039 -1.24205,5.0403 0.24129,2.4506 -0.10458,3.3949 -1.33465,3.6436 -1.00847,0.204 -2.36942,-0.8646 -3.46637,-2.7216 -0.9933,-1.6815 -2.50315,-3.2786 -3.35521,-3.549 -0.85205,-0.2704 -4.01719,-2.7137 -7.03363,-5.4294 -4.79319,-4.3154 -6.1954,-5.0203 -11.12526,-5.5926 -3.84023,-0.4458 -7.35151,-0.1669 -11,0.8736 -2.94755,0.8407 -10.53418,2.012 -16.85918,2.603 -6.325,0.591 -13.20758,1.3433 -15.29461,1.6717 -2.76151,0.4346 -4.29009,0.1488 -5.6145,-1.0498 -1.5615,-1.4131 -3.50745,-1.5607 -13.70539,-1.0395 -6.53703,0.3342 -12.97371,0.5725 -14.30375,0.5297 -1.33004,-0.043 -3.24254,0.6681 -4.25,1.5798 -1.00746,0.9118 -1.83175,2.038 -1.83175,2.5027 0,0.4648 1.125,0.8451 2.5,0.8451 1.375,0 2.5,0.45 2.5,1 0,0.55 -0.80134,1 -1.78076,1 -1.06032,0 -2.23889,1.2137 -2.91314,3 -0.6228,1.65 -1.79398,3 -2.6026,3 -0.80863,0 -1.70559,-0.9 -1.99325,-2 -0.31292,-1.1966 -1.36401,-2 -2.61663,-2 -1.15149,0 -2.09362,-0.4234 -2.09362,-0.941 0,-0.5175 0.45,-1.2191 1,-1.559 0.55,-0.3399 1,-1.3294 1,-2.1988 0,-0.8694 0.64165,-2.0803 1.4259,-2.691 0.78424,-0.6106 1.57174,-2.9102 1.75,-5.1102 0.24574,-3.0329 -0.0385,-4 -1.1759,-4 -0.95947,0 -1.41416,0.8108 -1.26179,2.25 0.13102,1.2375 -0.20648,2.25 -0.75,2.25 -0.54352,0 -0.98821,-0.9 -0.98821,-2 0,-1.1 -0.46125,-2 -1.025,-2 -0.56375,0 -1.31125,1.4313 -1.66112,3.1806 -0.61728,3.0864 -0.66198,3.1107 -1.5093,0.8202 -0.48025,-1.2983 -0.58166,-4.3046 -0.22534,-6.6806 0.35632,-2.3761 0.99568,-4.3202 1.4208,-4.3202 0.42513,0 0.96431,-1.3038 1.19819,-2.8972 0.23387,-1.5935 -0.16506,-3.7045 -0.8865,-4.6912 C 511.21593,872.2768 511,872.2398 511,873.5502 c 0,0.8628 -0.62971,2.0913 -1.39936,2.7301 -0.8496,0.7051 -1.70196,4.3872 -2.16959,9.3724 -0.42362,4.5161 -0.65306,9.5611 -0.50988,11.2111 0.14319,1.65 0.8945,3.7104 1.66958,4.5787 0.77509,0.8684 1.40925,2.1241 1.40925,2.7905 0,0.6665 0.95787,2.5074 2.12859,4.0909 1.49947,2.0281 1.93718,3.6417 1.48095,5.4595 -0.50808,2.0243 -0.27719,2.5804 1.07141,2.5804 1.33704,0 1.45238,0.2667 0.51905,1.2 -0.66,0.66 -1.2,1.9217 -1.2,2.8038 0,0.8821 1.48392,3.0421 3.29761,4.8 1.81368,1.7579 3.72618,3.1965 4.25,3.197 0.52381,4e-4 2.72163,1.5754 4.88404,3.5 2.16241,1.9246 4.86241,3.5015 6,3.5043 1.13759,0 3.86835,1.1138 6.06835,2.4688 2.2,1.355 4.6877,2.4777 5.52822,2.4949 0.84052,0.017 2.91291,1.0437 4.60531,2.2812 1.6924,1.2375 5.00972,3.7125 7.37182,5.5 2.3621,1.7875 5.3144,3.25 6.56066,3.25 1.42721,0 3.35805,1.388 5.21644,3.75 1.62279,2.0625 3.2539,4.7246 3.62471,5.9158 0.39951,1.2835 0.18859,2.466 -0.5177,2.9025 -0.71436,0.4415 -1.953,-0.3082 -3.09157,-1.8712 -1.65245,-2.2684 -2.21332,-2.4649 -4.30961,-1.5098 -1.99932,0.911 -2.79996,0.7448 -4.6991,-0.9752 -1.25905,-1.1403 -3.92359,-3.4545 -5.9212,-5.1427 -1.9976,-1.6882 -4.08696,-3.0694 -4.64301,-3.0694 -0.55604,0 -1.27001,-0.675 -1.5866,-1.5 -0.31658,-0.825 -1.29687,-1.5 -2.17841,-1.5 -0.88155,0 -2.28195,-0.6791 -3.11201,-1.5092 -0.83005,-0.83 -1.87192,-1.285 -2.31526,-1.011 -0.44334,0.274 -1.35432,-0.1624 -2.02439,-0.9698 -0.88527,-1.0667 -1.71974,-1.1996 -3.05262,-0.4863 -1.20918,0.6471 -2.0455,0.64 -2.45401,-0.021 -0.34084,-0.5515 -2.05565,-1.005 -3.81069,-1.0078 -1.75504,0 -4.99098,-1.0969 -7.19098,-2.4312 -3.27948,-1.9891 -3.68477,-2.5479 -2.25,-3.1019 0.9625,-0.3717 1.75,-1.3092 1.75,-2.0835 0,-0.7742 -1.38481,-2.2498 -3.07736,-3.2791 -1.69254,-1.0293 -3.92214,-1.6506 -4.95465,-1.3806 -1.39187,0.364 -2.04861,-0.1916 -2.53981,-2.1487 -0.36439,-1.4518 -1.88007,-3.2693 -3.36818,-4.0388 -1.48812,-0.7696 -3.29049,-2.1039 -4.00528,-2.9651 -0.71478,-0.8613 -2.03547,-1.566 -2.93487,-1.566 -0.89939,0 -3.9695,-2.3799 -6.82248,-5.2886 -2.85297,-2.9087 -6.06732,-7.2963 -7.14299,-9.75 -1.07567,-2.4538 -2.6147,-5.3279 -3.42005,-6.387 -0.80536,-1.0591 -2.53755,-2.0136 -3.84931,-2.1212 -1.31176,-0.1076 -3.66434,0.4545 -5.22795,1.2493 -1.56361,0.7947 -3.00495,1.283 -3.20297,1.0849 -0.19802,-0.198 1.02226,-3.2622 2.71174,-6.8093 2.57634,-5.4091 2.93165,-7.0162 2.20297,-9.9637 -0.47785,-1.9329 -1.31881,-3.4196 -1.86881,-3.3037 -0.55,0.1158 -1.225,1.5828 -1.5,3.2599 -0.275,1.677 -1.7375,4.3543 -3.25,5.9495 -1.5125,1.5951 -2.75,3.6157 -2.75,4.4901 0,0.8744 -0.6199,1.5898 -1.37756,1.5898 -0.75765,0 -1.86146,-0.5831 -2.45292,-1.2957 -0.7395,-0.8911 -0.78402,-3.3116 -0.14255,-7.75 0.51305,-3.5499 0.94186,-6.7918 0.95292,-7.2043 0.0111,-0.4125 -0.65489,-0.75 -1.47989,-0.75 -0.83333,0 -1.5,0.8889 -1.5,2 0,1.1 -0.42243,2 -0.93873,2 -0.5163,0 -1.23703,1.9892 -1.60162,4.4205 -0.3646,2.4313 -1.51259,5.3326 -2.5511,6.4473 -1.1345,1.2177 -1.48659,2.275 -0.88207,2.6486 0.55338,0.342 0.74303,1.0475 0.42145,1.5678 -0.32158,0.5204 -2.06203,1.5634 -3.86765,2.3178 -1.80563,0.7544 -4.2805,2.7726 -5.49972,4.4849 -1.21921,1.7122 -2.84527,3.1131 -3.61347,3.1131 -0.7682,0 -1.87839,0.9 -2.46709,2 -0.5887,1.1 -1.93217,2 -2.98549,2 -1.05332,0 -2.27499,0.5666 -2.71482,1.2591 -0.43983,0.6925 -3.04969,2.38 -5.79969,3.75 -4.3319,2.1581 -4.9587,2.8456 -4.69092,5.1457 0.20602,1.7694 -0.48987,3.4368 -2.08682,5 -1.31775,1.2898 -3.35416,4.0327 -4.52536,6.0952 -1.69985,2.9935 -1.83364,3.75 -0.66317,3.75 0.80645,0 1.46185,0.3375 1.45645,0.75 -0.005,0.4125 -1.80098,2.325 -3.99018,4.25 -2.1892,1.925 -3.98478,4.0268 -3.99018,4.6705 -0.005,0.6438 -1.47232,1.4843 -3.25982,1.8676 -1.7875,0.3834 -3.60935,0.9092 -4.04856,1.1685 -0.43921,0.2593 -0.26258,1.1173 0.3925,1.9066 0.65508,0.7893 0.84033,1.7618 0.41166,2.161 -0.42868,0.3992 -0.9803,0.1633 -1.22584,-0.5242 -0.24553,-0.6875 -1.30893,-1.25 -2.36309,-1.25 -1.37778,0 -1.91667,0.7029 -1.91667,2.5 0,1.375 -0.41704,2.5 -0.92676,2.5 -0.50972,0 -1.63472,1.4191 -2.5,3.1536 -0.86528,1.7345 -1.57324,4.1614 -1.57324,5.393 0,1.2317 -0.675,2.4984 -1.5,2.815 -0.88056,0.3379 -1.5,1.8377 -1.5,3.6318 0,2.3604 -0.58393,3.2781 -2.5651,4.0314 -1.4108,0.5363 -2.72951,0.9752 -2.93045,0.9752 z m 17.91376,-29 c 0.23002,0 1.13002,-0.2731 2,-0.607 0.86999,-0.3338 1.58179,-1.1963 1.58179,-1.9167 0,-0.7203 0.5625,-1.5366 1.25,-1.814 0.77887,-0.3143 0.62125,-0.5342 -0.41821,-0.5833 -0.91752,-0.043 -2.38002,0.1941 -3.25,0.528 -0.86999,0.3338 -1.58179,1.4588 -1.58179,2.5 0,1.0411 0.1882,1.893 0.41821,1.893 z m 7.77277,-7.116 c 0.38004,0.064 0.93996,-0.2868 1.24426,-0.7792 0.3043,-0.4924 -0.15595,-1.1674 -1.02277,-1.5 -0.86683,-0.3326 -2.21424,-0.6048 -2.99426,-0.6048 -0.78001,0 -1.41821,0.417 -1.41821,0.9267 0,0.5096 0.7875,1.1325 1.75,1.384 0.9625,0.2515 2.06094,0.5095 2.44098,0.5733 z m -36.76574,-45.884 c 1.62551,0 2.9149,-0.7007 3.35698,-1.8243 0.39478,-1.0034 1.84278,-3.264 3.21778,-5.0237 1.375,-1.7597 4.1875,-5.2412 6.25,-7.7366 2.0625,-2.4953 3.75,-5.2005 3.75,-6.0114 0,-0.8109 0.7638,-2.696 1.69734,-4.1892 0.93354,-1.4931 2.84604,-3.9173 4.25,-5.3869 2.00282,-2.0966 3.17218,-2.5489 5.42883,-2.0998 2.06191,0.4103 3.13763,0.1052 3.79969,-1.0779 0.50794,-0.9076 1.7746,-1.6502 2.81481,-1.6502 1.04021,0 2.12225,-0.3737 2.40452,-0.8304 0.28227,-0.4567 2.55883,-0.7452 5.05902,-0.6411 2.50018,0.1042 4.54579,-0.1483 4.54579,-0.5611 0,-0.4128 -1.09353,-1.025 -2.43007,-1.3605 -1.33654,-0.3354 -3.15623,-1.3361 -4.04375,-2.2236 -0.88752,-0.8875 -3.28149,-2.0646 -5.31993,-2.6158 -2.03844,-0.5511 -5.95625,-1.1969 -8.70625,-1.4351 -3.64523,-0.3157 -4.59357,-0.1526 -3.5,0.602 0.825,0.5692 2.25821,1.0419 3.1849,1.0503 0.9267,0.01 2.9517,0.5149 4.5,1.1254 2.61568,1.0315 2.67342,1.1682 0.8151,1.9298 -1.1,0.4507 -3.6875,0.8512 -5.75,0.8898 -2.0625,0.039 -3.75,0.5203 -3.75,1.0703 0,0.55 -1.38214,1 -3.07143,1 -1.68928,0 -3.74643,0.675 -4.57143,1.5 -0.825,0.825 -2.36785,1.5 -3.42857,1.5 -1.06071,0 -1.92857,0.3716 -1.92857,0.8257 0,0.4541 1.125,1.8826 2.5,3.1743 1.375,1.2917 2.5,3.3952 2.5,4.6743 0,1.659 -0.57331,2.3257 -2,2.3257 -1.30864,0 -2,-0.6667 -2,-1.9286 0,-1.0607 -0.70714,-2.6357 -1.57143,-3.5 -0.86428,-0.8643 -3.08499,-1.5714 -4.9349,-1.5714 -1.84991,0 -4.61296,-0.475 -6.14011,-1.0557 -1.52715,-0.5806 -6.84394,-1.1571 -11.8151,-1.2812 -5.65092,-0.141 -9.78804,0.2247 -11.03846,0.9759 -1.1,0.6609 -3.35027,1.3334 -5.0006,1.4944 -1.65033,0.1611 -3.52222,-0.03 -4.15976,-0.4235 -0.63754,-0.394 -1.87476,-0.4418 -2.7494,-0.1062 C 332.71561,863.299 332,864.2159 332,865.001 c 0,1.1335 1.08132,1.3008 5.25,0.8124 2.8875,-0.3383 5.71453,-0.7521 6.28229,-0.9195 0.56776,-0.1675 3.49276,0.1303 6.5,0.6617 3.00724,0.5314 7.07748,0.916 9.04497,0.8548 1.96749,-0.061 4.89249,0.5744 6.5,1.4127 1.60751,0.8383 3.37274,1.5321 3.92274,1.5418 0.55,0.01 1.85447,1.8013 2.89883,3.9814 1.87694,3.9181 1.87494,4.0361 -0.17303,10.2385 -1.13952,3.4512 -2.37964,7.0623 -2.75582,8.0248 -0.54614,1.3974 -0.15217,1.75 1.95526,1.75 z m 158.71424,-6.5862 C 530.61277,886.4809 531,885.8181 531,885.3006 c 0,-0.5176 -0.675,-0.941 -1.5,-0.941 -0.825,0 -1.5,0.375 -1.5,0.8333 0,0.4584 0.28777,1.1211 0.63948,1.4728 0.35171,0.3518 1.02671,0.4002 1.5,0.1077 z M 513,885.3599 c 0.55,0 1,-0.45 1,-1 0,-0.55 -0.45,-1 -1,-1 -0.55,0 -1,0.45 -1,1 0,0.55 0.45,1 1,1 z m -76.44098,-1 c 0.94411,0 1.44098,-1.0667 1.44098,-3.0936 0,-2.2582 0.54303,-3.2356 2.01094,-3.6195 1.10601,-0.2892 2.2798,-1.5971 2.60841,-2.9064 0.3286,-1.3093 0.83657,-2.3805 1.12882,-2.3805 0.29224,0 1.11131,0.7875 1.82017,1.75 1.22745,1.6667 1.32112,1.6667 1.96723,0 0.37312,-0.9625 0.40031,-2.3125 0.0604,-3 -0.3399,-0.6875 -1.43696,-2.6 -2.43791,-4.25 -1.00094,-1.65 -2.45849,-3.1046 -3.23898,-3.2325 -0.7805,-0.1279 -2.09409,0.3228 -2.91909,1.0016 -0.825,0.6787 -2.57613,3.2986 -3.89141,5.8219 -1.91365,3.6713 -2.24513,5.3676 -1.65922,8.4908 0.40271,2.1467 0.9429,4.2439 1.20043,4.6606 0.25753,0.4167 1.11668,0.7576 1.90922,0.7576 z m -26.52764,-15 c 0.56727,0 1.29041,-0.675 1.60699,-1.5 0.31659,-0.825 1.1759,-1.5 1.9096,-1.5 0.7337,0 1.59289,-0.4189 1.90932,-0.9309 0.31644,-0.512 0.17668,-1.1773 -0.31056,-1.4784 -0.48724,-0.3012 -2.06958,0.4696 -3.51631,1.7127 -1.44673,1.2432 -2.63042,2.5834 -2.63042,2.9784 0,0.395 0.46412,0.7182 1.03138,0.7182 z M 461,863.8599 c 0.55,-0.3399 1,-1.0415 1,-1.559 0,-0.5176 -0.45,-0.941 -1,-0.941 -0.55,0 -1,0.7016 -1,1.559 0,0.8575 0.45,1.2809 1,0.941 z m -185.58333,-0.579 c 1.05416,0.043 1.64479,-0.1929 1.3125,-0.5252 -0.3323,-0.3323 -1.1948,-0.3678 -1.91667,-0.079 -0.79773,0.3192 -0.56078,0.5562 0.60417,0.6042 z m 177.72412,0.079 c 1.05709,0 2.16915,-0.6441 2.47126,-1.4314 0.3021,-0.7873 -0.47237,-2.8132 -1.72104,-4.5022 -1.24867,-1.6889 -2.54531,-2.6257 -2.88142,-2.0819 -0.33611,0.5438 -0.42653,2.5698 -0.20094,4.5021 0.31017,2.6569 0.8787,3.5134 2.33214,3.5134 z m -35.14079,-2 c 0.55,0 1,-0.45 1,-1 0,-0.55 -0.45,-1 -1,-1 -0.55,0 -1,0.45 -1,1 0,0.55 0.45,1 1,1 z m -82.8,-4.8 c 0.93333,-0.9333 0.93333,-1.4667 0,-2.4 -0.93333,-0.9333 -1.2,-0.6667 -1.2,1.2 0,1.8667 0.26667,2.1333 1.2,1.2 z m 160.72009,-5.2 c 0.47153,0 1.13643,-1.4877 1.47755,-3.3061 0.34113,-1.8183 1.49011,-5.0123 2.55329,-7.0976 1.06319,-2.0854 2.20769,-5.042 2.54335,-6.5703 0.41418,-1.8857 0.0856,-3.3033 -1.02262,-4.4115 -0.89809,-0.8981 -2.0773,-1.3582 -2.62045,-1.0225 -0.54316,0.3357 -0.72406,1.297 -0.40201,2.1362 0.32205,0.8393 -0.0252,2.0312 -0.77173,2.6489 -0.7465,0.6176 -2.15119,3.2857 -3.12153,5.9291 -1.67109,4.5523 -1.67314,4.9068 -0.0388,6.7127 0.94899,1.0486 1.45999,2.5984 1.13555,3.4439 -0.32445,0.8454 -0.2041,1.5372 0.26742,1.5372 z m -114.50342,-3.079 c 1.05416,0.043 1.64479,-0.1929 1.3125,-0.5252 -0.3323,-0.3323 -1.1948,-0.3678 -1.91667,-0.079 -0.79773,0.3192 -0.56078,0.5562 0.60417,0.6042 z m 84.33333,0.064 c 0.4125,-0.01 1.425,-0.4515 2.25,-0.9846 1.21296,-0.7839 1.06944,-0.9723 -0.75,-0.9847 -1.2375,-0.01 -2.25,0.4347 -2.25,0.9847 0,0.55 0.3375,0.9931 0.75,0.9847 z m -154,-2.0164 c 0.4125,-0.018 1.5375,-0.6296 2.5,-1.3603 0.98649,-0.7488 1.75,-2.6449 1.75,-4.3457 0,-1.6596 0.67005,-3.5734 1.48899,-4.2531 0.81894,-0.6797 1.27469,-1.5825 1.01277,-2.0063 -0.26192,-0.4238 -2.05697,-0.054 -3.98899,0.8217 C 311.206,836.6836 311,837.058 311,841.5686 c 0,2.6355 0.3375,4.7774 0.75,4.7599 z m 68.55,-7.9682 c 2.365,0 4.79261,-0.4926 5.39469,-1.0947 0.60208,-0.6021 4.5129,-1.2633 8.6907,-1.4695 4.19091,-0.2068 8.945,-1.0724 10.60531,-1.931 2.82562,-1.4612 3.0093,-1.9134 3.0093,-7.408 0,-3.8204 -0.49031,-6.2588 -1.4124,-7.0241 -0.77682,-0.6447 -2.68932,-1.2623 -4.25,-1.3724 -2.76718,-0.1953 -2.83358,-0.082 -2.67544,4.5527 0.14937,4.3779 -0.0479,4.8031 -2.5,5.3879 -1.46419,0.3492 -3.26855,1.1144 -4.00969,1.7004 -0.74114,0.586 -2.22179,1.1989 -3.29033,1.362 -1.06854,0.163 -3.16215,1.1885 -4.65247,2.2787 -1.49032,1.0902 -3.83467,2.1818 -5.20967,2.4258 -1.375,0.244 -2.8375,0.477 -3.25,0.5179 -0.4125,0.041 -0.75,0.5243 -0.75,1.0743 0,0.55 1.935,1 4.3,1 z m -86.69583,-20.2708 c 0.33229,-0.3323 0.36781,-1.1948 0.0789,-1.9167 -0.31922,-0.7977 -0.55618,-0.5608 -0.60416,0.6042 -0.0434,1.0541 0.19292,1.6448 0.52522,1.3125 z m 254.01736,-3.2292 c 1.31878,-1.7837 1.30259,-2.0366 -0.14968,-2.3384 -0.89562,-0.1861 -1.87376,-0.093 -2.17366,0.2069 -0.2999,0.2999 -0.23254,1.3522 0.14969,2.3384 0.65371,1.6867 0.78273,1.6744 2.17365,-0.2069 z M 548,808.202 c 1.375,0 1.9375,-0.227 1.25,-0.5044 -0.6875,-0.2774 -1.8125,-0.2774 -2.5,0 -0.6875,0.2774 -0.125,0.5044 1.25,0.5044 z M 379.60417,763.0891 c 0.33229,-0.3323 0.36781,-1.1948 0.0789,-1.9167 -0.31922,-0.7977 -0.55618,-0.5608 -0.60416,0.6042 -0.0434,1.0541 0.19292,1.6448 0.52522,1.3125 z m 10.16158,-12.2622 c 1.67152,-0.8339 3.29391,-2.1801 3.60531,-2.9916 0.31139,-0.8115 1.15886,-1.4754 1.88327,-1.4754 0.7244,0 1.38412,-0.7875 1.46603,-1.75 0.0819,-0.9625 0.59842,-3.55 1.1478,-5.75 0.54937,-2.2 1.4438,-5.7425 1.98762,-7.8723 0.54381,-2.1297 1.47373,-4.3572 2.06648,-4.95 0.59276,-0.5927 1.07774,-4.3361 1.07774,-8.3187 0,-3.9825 -0.43275,-7.5084 -0.96166,-7.8353 -0.52891,-0.3269 -1.88105,1.2078 -3.00476,3.4105 -1.12371,2.2026 -2.76652,6.606 -3.65069,9.7853 -0.88418,3.1793 -1.83494,7.0305 -2.11281,8.5582 -0.27787,1.5278 -1.36492,3.2379 -2.41566,3.8002 -1.05074,0.5623 -1.63409,1.4696 -1.29634,2.0161 0.33776,0.5465 0.13903,1.566 -0.44161,2.2657 -0.58064,0.6996 -1.35589,3.8261 -1.72278,6.9477 l -0.66707,5.6757 3.03913,-1.5161 z m 11.70287,-44.467 c 0.29226,0 0.49585,-1.9125 0.45243,-4.25 -0.0755,-4.0664 -0.1228,-4.1298 -1.09433,-1.467 -0.55846,1.5306 -0.76205,3.4431 -0.45243,4.25 0.30962,0.8068 0.80206,1.467 1.09433,1.467 z m 21.13555,-3.2708 c 0.33229,-0.3323 0.36781,-1.1948 0.0789,-1.9167 -0.31922,-0.7977 -0.55618,-0.5608 -0.60416,0.6042 -0.0434,1.0541 0.19293,1.6448 0.52522,1.3125 z m -1.49643,-11.4369 c 0.46196,-0.462 0.56782,-2.5167 0.23525,-4.5661 -0.33257,-2.0494 -0.9958,-3.7262 -1.47383,-3.7262 -0.47804,0 -0.86302,1.0125 -0.85551,2.25 0.008,1.2375 0.29278,3.2922 0.63392,4.5661 0.34114,1.2738 0.99822,1.9381 1.46017,1.4762 z M 303.2962,968.4637 c -0.71818,0.7182 -1.27752,0.7354 -1.69964,0.052 -0.34605,-0.5599 -0.1419,-1.3192 0.45366,-1.6873 0.59556,-0.3681 1.3604,-0.3916 1.69964,-0.052 0.33925,0.3393 0.1351,1.0985 -0.45366,1.6873 z m 4.37506,-4.1038 c -0.36919,0 -0.67126,-0.35 -0.67126,-0.7778 0,-0.4277 0.7875,-1.4884 1.75,-2.3571 0.9625,-0.8686 2.5331,-2.5437 3.49021,-3.7222 0.95712,-1.1786 2.45262,-2.1429 3.32333,-2.1429 0.96066,0 1.4525,0.6782 1.25093,1.7249 -0.1827,0.9487 -1.3376,2.2261 -2.56644,2.8388 -1.22884,0.6126 -3.06029,1.8614 -4.06988,2.7751 -1.0096,0.9136 -2.1377,1.6612 -2.50689,1.6612 z m 115.22175,-33 c -0.49115,0 -0.89301,-0.5651 -0.89301,-1.2559 0,-0.6907 1.4625,-1.8411 3.25,-2.5563 1.7875,-0.7152 4.6,-1.9316 6.25,-2.7031 1.65,-0.7715 4.8,-1.7048 7,-2.0741 2.2,-0.3693 4.45,-1.0007 5,-1.4031 0.55,-0.4024 2.31697,-1.0473 3.9266,-1.433 1.60963,-0.3857 6.92351,-0.7852 11.80862,-0.8879 8.19658,-0.1722 9.02767,-0.3795 10.76941,-2.6866 1.46782,-1.9443 2.15473,-2.2335 3.09003,-1.3014 0.93662,0.9336 0.83286,1.7631 -0.46906,3.75 -0.91944,1.4033 -2.11133,2.5514 -2.64865,2.5514 -0.53732,0 -0.97695,0.8796 -0.97695,1.9547 0,1.4522 -0.92457,2.1281 -3.59646,2.6294 -1.97805,0.3711 -5.24578,0.1805 -7.26162,-0.4234 -2.01583,-0.604 -4.78492,-0.8132 -6.15353,-0.4651 -1.36862,0.3482 -3.4306,1.2399 -4.5822,1.9814 -1.38881,0.8944 -5.53335,1.3685 -12.30918,1.4081 -7.88664,0.046 -10.34026,0.3852 -10.76318,1.4874 -0.3013,0.7851 -0.94966,1.4275 -1.44082,1.4275 z M 500.5,931.0087 c -1.1,0.082 -3.53174,-0.4133 -5.40387,-1.1002 -1.87213,-0.687 -3.90509,-1.9344 -4.51769,-2.7722 -0.61259,-0.8378 -2.68085,-2.4785 -4.59612,-3.6461 -1.91528,-1.1675 -2.93394,-2.1245 -2.2637,-2.1266 0.67023,0 0.96104,-0.6749 0.64624,-1.4953 -0.33072,-0.8618 0.12619,-1.7596 1.08227,-2.1265 1.02483,-0.3933 2.61235,0.2648 4.17081,1.7289 1.38389,1.3001 4.8485,3.4945 7.69912,4.8765 3.67871,1.7835 5.18294,3.0931 5.18294,4.5127 0,1.2837 -0.71626,2.0533 -2,2.1488 z m 59.41821,-14.6488 c -0.50501,0 -0.91821,-1.35 -0.91821,-3 0,-2.5333 0.38889,-3 2.5,-3 1.97019,0 2.5,0.5071 2.5,2.393 0,1.3162 -0.7118,2.6662 -1.58179,3 -0.86998,0.3339 -1.99498,0.607 -2.5,0.607 z m 83.24846,-1 c -0.45834,0 -1.1211,-0.2878 -1.47282,-0.6395 -0.35171,-0.3517 -0.40015,-1.0267 -0.10765,-1.5 0.29251,-0.4733 0.95528,-0.8605 1.47282,-0.8605 0.51754,0 0.94098,0.675 0.94098,1.5 0,0.825 -0.375,1.5 -0.83333,1.5 z M 525.75,914.3281 c -0.4125,0.017 -0.75,-0.31 -0.75,-0.7276 0,-0.4177 0.94382,-1.3489 2.09738,-2.0693 1.15356,-0.7204 2.35821,-1.0491 2.677,-0.7303 0.31879,0.3188 -0.28753,1.2357 -1.34738,2.0375 -1.05985,0.8019 -2.2645,1.4722 -2.677,1.4897 z M 352.34775,894.3599 c -0.41126,0 -0.20775,-0.54 0.45225,-1.2 0.66,-0.66 1.2,-1.9549 1.2,-2.8776 0,-0.9226 0.62245,-2.1941 1.38322,-2.8255 1.06237,-0.8817 1.51194,-0.8125 1.93818,0.2983 0.30522,0.7954 -0.52074,2.6069 -1.83547,4.0255 -1.31474,1.4186 -2.72692,2.5793 -3.13818,2.5793 z m -169.40677,-5 c -0.51754,0 -0.94098,-0.45 -0.94098,-1 0,-0.55 0.70156,-1 1.55902,-1 0.85746,0 1.2809,0.45 0.94098,1 -0.33992,0.55 -1.04148,1 -1.55902,1 z m 147.64805,-3.0739 c -1.00807,0.8366 -1.60376,0.8591 -2.08609,0.079 -0.37132,-0.6008 -0.13128,-1.7476 0.53341,-2.5485 0.6647,-0.8009 1.60344,-1.4562 2.08609,-1.4562 0.48266,0 0.87756,0.6199 0.87756,1.3775 0,0.7577 -0.63494,1.9045 -1.41097,2.5486 z m -135.17236,-4.0051 c -1.16495,-0.048 -1.4019,-0.2849 -0.60417,-0.6041 0.72187,-0.2889 1.58437,-0.2534 1.91667,0.079 0.33229,0.3323 -0.25834,0.5686 -1.3125,0.5252 z M 204,882.3599 c -1.1,0 -2,-0.45 -2,-1 0,-0.55 0.9,-1 2,-1 1.1,0 2,0.45 2,1 0,0.55 -0.9,1 -2,1 z m 139.05902,-9 c -1.13246,0 -2.05902,-0.45 -2.05902,-1 0,-0.55 0.64844,-1 1.44098,-1 0.79254,0 1.7191,0.45 2.05902,1 0.33992,0.55 -0.30852,1 -1.44098,1 z M 617.25,873.2969 c -0.9625,-0.035 -2.65,-0.4422 -3.75,-0.9053 -1.1,-0.463 -2.73945,-1.7335 -3.64321,-2.8233 -1.5487,-1.8675 -2.77742,-1.9686 -21.36101,-1.7591 -17.43153,0.1965 -20.13526,0.01 -23.31823,-1.6133 -1.98024,-1.0096 -4.16445,-1.8356 -4.85381,-1.8356 -0.68935,0 -1.75462,-0.9366 -2.36726,-2.0813 -0.61264,-1.1447 -1.17098,-4.5197 -1.24075,-7.5 -0.10532,-4.498 -0.43178,-5.4187 -1.9213,-5.4187 -1.12776,0 -1.79443,0.743 -1.79443,2 0,1.1 -0.39203,2 -0.87117,2 -0.47914,0 -1.1716,-2.2647 -1.53878,-5.0327 -0.36719,-2.768 -0.31267,-5.5805 0.12116,-6.25 0.43384,-0.6695 0.78879,-2.7923 0.78879,-4.7173 0,-2.4446 0.41465,-3.412 1.37516,-3.2083 0.75634,0.1605 2.12281,-0.3849 3.0366,-1.2118 0.91379,-0.827 3.33247,-2.2018 5.37484,-3.0552 2.04237,-0.8533 3.7134,-1.9955 3.7134,-2.5381 0,-0.5426 -0.86704,-0.9866 -1.92676,-0.9866 -1.16246,0 -2.55082,-1.251 -3.5,-3.1536 -0.86528,-1.7345 -1.57324,-3.733 -1.57324,-4.441 0,-0.7081 0.5625,-1.6455 1.25,-2.0832 0.6875,-0.4376 7.775,-0.8498 15.75,-0.9158 7.975,-0.066 15.14827,-0.2969 15.94061,-0.5132 0.79234,-0.2163 1.61283,0.3943 1.82332,1.3568 0.26058,1.1915 -0.2295,1.75 -1.53562,1.75 -1.05508,0 -2.70716,0.8716 -3.67128,1.937 -0.96413,1.0653 -1.44513,2.435 -1.0689,3.0438 0.37623,0.6087 0.17036,1.7258 -0.45749,2.4823 -0.87855,1.0586 -0.76627,1.5855 0.48737,2.287 0.8959,0.5014 2.16723,1.9914 2.82516,3.3111 0.65794,1.3196 2.21675,2.9082 3.46402,3.53 1.24728,0.6218 3.3604,2.1571 4.69583,3.4116 2.21993,2.0856 3.82378,2.361 18.71251,3.2132 8.95646,0.5126 18.75947,1.1122 21.78447,1.3324 3.025,0.2201 7.3,0.6822 9.5,1.0268 2.2,0.3447 6.7,1.5373 10,2.6502 3.3,1.113 6.675,2.4039 7.5,2.8687 0.93573,0.5272 -1.017,0.8565 -5.19098,0.8755 -3.68004,0.017 -6.93489,-0.3642 -7.233,-0.8466 -0.29812,-0.4824 -2.53163,-1.378 -4.96338,-1.9903 -3.56364,-0.8974 -4.96696,-0.8303 -7.23382,0.3458 -2.13659,1.1085 -6.76103,1.454 -19.24314,1.4378 -10.19559,-0.013 -16.83007,0.3781 -17.48317,1.0312 -0.57888,0.5789 -3.10001,1.0257 -5.60251,0.9929 -2.5025,-0.033 -6.8,-0.4507 -9.55,-0.9287 -4.37653,-0.7607 -5.21196,-0.6225 -6.69986,1.1085 -0.93493,1.0876 -1.45074,2.6268 -1.14625,3.4202 0.30598,0.7974 -0.16375,1.718 -1.05014,2.0582 -0.88206,0.3384 -1.60375,0.9588 -1.60375,1.3784 0,0.4197 2.1375,1.2981 4.75,1.9521 2.6125,0.6539 6.325,1.5837 8.25,2.0662 1.925,0.4825 7.28688,1.1955 11.9153,1.5845 7.85852,0.6605 8.6689,0.9459 12.24836,4.3137 2.10818,1.9836 3.83379,3.944 3.8347,4.3565 9e-4,0.4125 -0.78586,0.7215 -1.74836,0.6866 z M 290.14032,845.2887 C 286.94357,846.9196 286,847.0833 286,846.007 c 0,-0.7667 1.79944,-3.3625 3.99875,-5.7685 3.45797,-3.783 3.91625,-4.8143 3.38871,-7.6264 -0.4584,-2.4435 -0.25283,-3.2518 0.82694,-3.2518 0.79033,0 2.41541,1.0415 3.61129,2.3144 1.19587,1.273 2.17431,2.9727 2.17431,3.7772 0,0.8045 -1.28686,2.8716 -2.85968,4.5936 -1.57283,1.7221 -4.72283,4.0815 -7,5.2432 z M 545,834.3599 c -0.55,0 -1,-0.45 -1,-1 0,-0.55 0.45,-1 1,-1 0.55,0 1,0.45 1,1 0,0.55 -0.45,1 -1,1 z m 54.81129,-4.6346 c -1.55488,0.3712 -2.97301,0.1819 -3.36287,-0.4489 -0.37079,-0.5999 -0.2718,-1.4931 0.21996,-1.9849 0.49177,-0.4917 2.34256,-1.1838 4.11287,-1.5378 2.52878,-0.5058 3.21875,-0.3081 3.21875,0.9222 0,0.8613 -0.3375,1.7553 -0.75,1.9867 -0.4125,0.2314 -1.95992,0.7096 -3.43871,1.0627 z m -334.39462,-0.3654 c -0.87084,0 -1.40521,-0.5344 -1.1875,-1.1875 0.2177,-0.6531 0.9302,-1.3656 1.58333,-1.5833 0.65312,-0.2177 1.1875,0.3166 1.1875,1.1875 0,0.8708 -0.7125,1.5833 -1.58333,1.5833 z m -1.25659,-4.5989 c -0.46195,0.2855 -1.36195,0 -2,-0.641 C 261.52204,823.4819 261,822.3749 261,821.6599 c 0,-0.715 0.9,-1.3 2,-1.3 1.31306,0 2,0.6667 2,1.941 0,1.0675 -0.37796,2.1746 -0.83992,2.4601 z m 254.97984,-3.9876 c -0.53888,0.3331 -1.9158,-0.5844 -3.05985,-2.0388 C 514.93603,817.2802 514,815.524 514,814.832 c 0,-0.6919 0.70352,-1.5281 1.56338,-1.858 0.85986,-0.33 1.30333,-1.0207 0.98548,-1.535 -0.31785,-0.5143 0.32863,-1.2228 1.43662,-1.5745 1.10799,-0.3516 2.01452,-1.0591 2.01452,-1.572 0,-0.5129 0.7301,-0.9326 1.62244,-0.9326 1.21916,0 1.35385,0.3236 0.54186,1.302 -0.59433,0.7162 -0.83194,2.2529 -0.52803,3.4151 0.40444,1.5466 -0.17165,2.5876 -2.14889,3.8831 -2.44129,1.5996 -2.54093,1.8875 -1.03458,2.9889 0.95595,0.699 1.24901,1.4772 0.68712,1.8244 z m -272.72325,-3.4925 c -1.16495,-0.048 -1.4019,-0.2849 -0.60417,-0.6041 0.72187,-0.2889 1.58437,-0.2534 1.91667,0.079 0.33229,0.3323 -0.25834,0.5686 -1.3125,0.5252 z m 36.75,-6.921 c -1.55834,0 -3.13334,-0.3 -3.5,-0.6667 C 279.3,809.3266 279,808.6516 279,808.1932 c 0,-0.4583 1.575,-0.8333 3.5,-0.8333 2.44444,0 3.5,0.4524 3.5,1.5 0,0.9804 -0.98148,1.5 -2.83333,1.5 z m 16.5,-10 c -0.73334,0 -1.6211,-0.2878 -1.97282,-0.6395 -0.35171,-0.3517 -0.40015,-1.0267 -0.10765,-1.5 0.29251,-0.4733 1.18028,-0.8605 1.97282,-0.8605 0.79254,0 1.44098,0.675 1.44098,1.5 0,0.825 -0.6,1.5 -1.33333,1.5 z m 140.64235,-24.691 c -0.49748,0.3075 -1.49357,0.195 -2.21353,-0.25 -0.71996,-0.4449 -0.90199,-1.0606 -0.40451,-1.368 0.49748,-0.3075 1.49357,-0.195 2.21353,0.25 0.71996,0.4449 0.90199,1.0606 0.40451,1.368 z M 552,774.8271 c -1.375,0.3012 -3.175,0.1442 -4,-0.3488 -0.825,-0.493 -4.10804,-1.4725 -7.29564,-2.1767 -3.18761,-0.7042 -6.02667,-1.6542 -6.30902,-2.111 -0.28236,-0.4569 -1.98682,-0.8307 -3.78769,-0.8307 -1.80087,0 -3.58489,-0.3106 -3.96448,-0.6902 -0.3796,-0.3796 -2.8171,-0.8509 -5.41667,-1.0473 -3.22487,-0.2437 -5.28078,-1.0106 -6.47114,-2.414 -0.95955,-1.1313 -1.48511,-2.4768 -1.1679,-2.99 0.3172,-0.5133 -1.24871,-2.7047 -3.47981,-4.8699 -2.23109,-2.1652 -4.32609,-5.0108 -4.65555,-6.3234 -0.35079,-1.3977 0.1582,-3.9983 1.22835,-6.2759 1.20774,-2.5706 2.59696,-3.9987 4.0971,-4.212 1.24837,-0.1774 3.78894,-1.7524 5.64572,-3.5 1.85679,-1.7475 3.71189,-4.3023 4.12244,-5.6773 0.41056,-1.375 1.72611,-4.075 2.92344,-6 1.19733,-1.925 2.49634,-4.3627 2.88669,-5.4172 0.54093,-1.4613 0.98732,-1.6396 1.87694,-0.75 0.64197,0.6419 1.9097,1.1672 2.81718,1.1672 0.90748,0 3.51358,-1.35 5.79134,-3 2.27776,-1.65 4.51684,-3 4.97573,-3 0.45889,0 1.86971,-1.1021 3.13515,-2.4491 1.26545,-1.347 4.25569,-3.1152 6.64499,-3.9293 2.3893,-0.8141 6.04487,-2.8164 8.1235,-4.4495 2.07863,-1.6332 4.69275,-3.2388 5.80915,-3.5682 1.1164,-0.3294 2.53981,-1.95 3.16314,-3.6014 0.85713,-2.2708 1.76371,-3.0025 3.72018,-3.0025 1.60935,0 2.58686,0.5555 2.58686,1.4701 0,0.8085 -1.35,2.4681 -3,3.688 -1.65,1.2199 -3,2.8128 -3,3.5398 0,0.7269 -0.9,2.0923 -2,3.0341 -1.1,0.9419 -2,2.5546 -2,3.5839 0,1.0292 -0.84319,2.0918 -1.87376,2.3613 -1.03057,0.2695 -2.84405,1.8024 -4.02994,3.4064 -1.1859,1.604 -2.81887,2.9164 -3.62884,2.9164 -0.80997,0 -3.15899,1.8603 -5.22006,4.1341 -2.06107,2.2738 -4.9597,6.1989 -6.4414,8.7225 -1.4817,2.5236 -3.30999,5.0507 -4.06287,5.6159 -0.75288,0.5651 -2.22511,2.49 -3.27161,4.2775 -1.0465,1.7875 -2.21996,3.25 -2.60767,3.25 -0.38772,0 -0.99462,1.3189 -1.34867,2.9309 -0.35406,1.612 -1.28981,3.4671 -2.07946,4.1225 -0.78965,0.6553 -1.43572,1.8255 -1.43572,2.6004 0,0.775 0.68073,1.6702 1.51273,1.9895 0.83201,0.3192 2.18201,0.025 3,-0.6539 1.08898,-0.9037 1.84178,-0.9401 2.81106,-0.1356 0.9667,0.8023 1.64108,0.7813 2.5,-0.078 0.64692,-0.6469 1.17621,-1.7612 1.17621,-2.4762 0,-0.715 0.45,-1.3 1,-1.3 0.55,0 1,-1.2691 1,-2.8202 0,-2.0248 0.98704,-3.6071 3.5,-5.6107 1.925,-1.5348 3.5,-3.4268 3.5,-4.2046 0,-0.7777 1.09764,-1.8313 2.4392,-2.3414 1.34156,-0.51 2.90469,-1.7971 3.47362,-2.8602 0.56893,-1.0631 2.256,-2.2394 3.74904,-2.6142 1.49303,-0.3747 3.20445,-1.3512 3.80315,-2.17 0.5987,-0.8187 2.76639,-1.8671 4.81709,-2.3296 2.05071,-0.4625 3.95815,-0.4694 4.23876,-0.015 0.28062,0.4541 -0.84678,3.127 -2.50532,5.9399 -1.65855,2.8129 -3.01609,5.4321 -3.01676,5.8204 -6.7e-4,0.3883 -1.09829,1.9816 -2.43916,3.5407 -1.34086,1.5591 -2.74039,4.2591 -3.11007,6 -0.36967,1.7409 -1.3693,3.9555 -2.22138,4.9214 -0.85208,0.9659 -1.34092,1.9645 -1.08631,2.2191 0.25461,0.2546 1.78935,0.4903 3.41053,0.5237 1.62119,0.033 4.38298,-0.2247 6.13733,-0.5737 1.75435,-0.349 3.91742,-1.4386 4.80682,-2.4214 0.94642,-1.0458 2.42794,-1.5748 3.57217,-1.2756 1.31417,0.3437 2.6306,-0.3475 4.01576,-2.1085 1.13338,-1.4408 2.59053,-2.6162 3.23811,-2.6119 0.64758,0 1.70424,1.1434 2.34814,2.5314 1.08884,2.347 0.74997,2.9585 -4.84495,8.7421 -3.30862,3.4203 -6.6997,7.2312 -7.53573,8.4687 -0.83603,1.2375 -2.03081,2.2575 -2.65505,2.2668 -0.62424,0.01 -2.92667,1.8345 -5.1165,4.0561 -2.96446,3.0075 -4.49712,3.8787 -6,3.4107 -1.11017,-0.3457 -2.46849,-0.614 -3.01849,-0.5963 -0.55,0.018 -2.125,0.2787 -3.5,0.5799 z m 3.25433,-5.7354 c 4.64541,-0.1287 5.74494,-0.4687 5.48668,-1.6964 -0.20121,-0.9565 -1.21329,-1.4354 -2.68433,-1.2702 -1.29873,0.1459 -3.43787,-0.4402 -4.75364,-1.3023 -1.31577,-0.8621 -2.82499,-2.7055 -3.35383,-4.0965 -0.52883,-1.3909 -1.52125,-2.3236 -2.20536,-2.0727 -0.68412,0.251 -1.06779,1.0751 -0.85261,1.8313 0.21518,0.7562 0.3146,2.6904 0.22093,4.298 -0.0937,1.6077 0.39282,3.2711 1.0811,3.6964 0.68827,0.4254 3.86575,0.701 7.06106,0.6124 z m 18.9912,-11.9117 c 1.23996,-0.176 2.25447,-0.9461 2.25447,-1.7111 0,-0.7651 -0.77511,-1.88 -1.72248,-2.4775 -1.25496,-0.7917 -2.0374,-0.7716 -2.88278,0.074 -0.63817,0.6381 -0.87756,1.8971 -0.53199,2.7976 0.38578,1.0054 1.49853,1.5138 2.88278,1.3172 z m -220.30455,11.1799 c -0.58246,0 -0.7809,-0.45 -0.44098,-1 0.33992,-0.55 0.81648,-1 1.05902,-1 0.24254,0 0.44098,0.45 0.44098,1 0,0.55 -0.47656,1 -1.05902,1 z m -4.94098,-1 c -0.55,0 -1,-0.675 -1,-1.5 0,-0.825 0.45,-1.5 1,-1.5 0.55,0 1,0.675 1,1.5 0,0.825 -0.45,1.5 -1,1.5 z m -34.37756,-3 c -1.44234,0 -2.62244,-0.4019 -2.62244,-0.893 0,-0.4912 0.6421,-1.1394 1.42689,-1.4406 0.78478,-0.3011 1.96488,0.1007 2.62244,0.893 0.9891,1.1918 0.7427,1.4406 -1.42689,1.4406 z m -9.56342,-4 c -0.51754,0 -1.2376,-0.4799 -1.60014,-1.0665 -0.36253,-0.5866 -0.41903,-1.3067 -0.12555,-1.6002 0.29349,-0.2934 1.01355,-0.237 1.60014,0.1256 0.58659,0.3625 1.06653,1.0826 1.06653,1.6001 0,0.5176 -0.42344,0.941 -0.94098,0.941 z m 284.5,-12 c -0.24254,0 -0.69988,-0.4189 -1.01631,-0.9309 -0.31644,-0.512 -0.11799,-1.2136 0.44098,-1.559 0.55897,-0.3455 1.01631,0.073 1.01631,0.9309 0,0.8574 -0.19844,1.559 -0.44098,1.559 z m 3.62848,-5.2292 C 592.53437,743.3484 592,742.8141 592,741.9432 c 0,-0.8708 0.7125,-1.5833 1.58333,-1.5833 0.87084,0 1.40521,0.5344 1.1875,1.1875 -0.2177,0.6531 -0.93021,1.3656 -1.58333,1.5833 z m 4.36447,-3.9253 c -1.14002,0.221 -1.62085,-0.1394 -1.33427,-1 0.24642,-0.74 1.25007,-1.501 2.23033,-1.691 1.14002,-0.221 1.62085,0.1394 1.33427,1 -0.24642,0.74 -1.25007,1.501 -2.23033,1.691 z m -97.25404,-17.5872 c -0.92523,2.0736 -0.97627,2.0797 -1.47336,0.1789 -0.28321,-1.083 -0.1829,-2.862 0.22291,-3.9532 0.69264,-1.8624 0.78292,-1.8734 1.47336,-0.1788 0.40453,0.9929 0.30422,2.7718 -0.22291,3.9531 z M 572.25,721.3463 c -0.6875,0.01 -1.25,-0.583 -1.25,-1.3121 0,-0.7291 1.09169,-2.3513 2.42597,-3.6047 1.33429,-1.2536 2.90929,-1.9804 3.5,-1.6153 0.59072,0.365 1.07403,1.7097 1.07403,2.9881 0,1.5651 -0.73495,2.5213 -2.25,2.9273 -1.2375,0.3316 -2.8125,0.6091 -3.5,0.6167 z m 9.75,-9.9864 c -0.55,0 -1,-1.125 -1,-2.5 0,-1.375 0.45,-2.5 1,-2.5 0.55,0 1,1.125 1,2.5 0,1.375 -0.45,2.5 -1,2.5 z m -57.01068,-4.5 c -1.09001,1.65 -1.98353,2.6751 -1.98558,2.278 -0.002,-0.3971 1.63578,-5.7971 3.63964,-12 2.00386,-6.2029 4.15774,-11.728 4.7864,-12.278 0.62866,-0.55 0.97407,-1.8242 0.76758,-2.8316 -0.20649,-1.0073 0.30825,-2.5824 1.14385,-3.5 0.83561,-0.9176 2.59694,-2.8476 3.91407,-4.2889 1.31714,-1.4413 2.97812,-4.0288 3.69107,-5.75 0.71296,-1.7212 1.80685,-3.1295 2.43086,-3.1295 0.62401,0 1.68266,-1.2382 2.35255,-2.7516 0.6699,-1.5134 2.24225,-3.2009 3.49412,-3.75 1.25186,-0.5491 3.17612,-2.6847 4.27612,-4.7457 1.1,-2.061 2.59282,-3.7485 3.31739,-3.75 0.90294,0 1.10168,0.7051 0.63172,2.2473 -0.37712,1.2375 -1.26263,2.925 -1.9678,3.75 -0.70518,0.825 -1.98633,3.075 -2.84701,5 -0.86069,1.925 -2.70244,5.3 -4.0928,7.5 -1.39035,2.2 -2.84058,4.675 -3.22273,5.5 -0.38216,0.825 -1.19806,1.95 -1.81313,2.5 -0.61506,0.55 -3.21882,4.2026 -5.78613,8.1169 -2.56731,3.9144 -5.12839,8.1894 -5.69129,9.5 -0.56289,1.3107 -1.54548,3.2831 -2.18353,4.3831 -0.63804,1.1 -1.54561,2.675 -2.01681,3.5 -0.47119,0.825 -1.74855,2.85 -2.83856,4.5 z M 511,685.8599 c -0.55,0.3399 -1,0.168 -1,-0.382 0,-0.55 0.45,-1.2781 1,-1.618 0.55,-0.3399 1,-0.168 1,0.382 0,0.55 -0.45,1.2781 -1,1.618 z m -17.48454,-0.5 c -1.24882,0 -2.78576,-0.6208 -3.41544,-1.3795 -0.62968,-0.7587 -2.48478,-1.6474 -4.12245,-1.975 C 484.33991,681.6779 483,680.9486 483,680.3849 c 0,-0.5638 0.47958,-1.025 1.06574,-1.025 0.58616,0 1.98447,0.4917 3.10736,1.0926 1.47648,0.7902 2.34407,0.7902 3.13426,0 0.60095,-0.6009 1.84754,-1.0926 2.7702,-1.0926 0.92265,0 2.19041,0.618 2.81725,1.3733 0.62683,0.7552 0.85879,2.1052 0.51545,3 -0.34333,0.8947 -1.64599,1.6267 -2.8948,1.6267 z m 23.54523,-9.0325 c -1.37708,0.737 -2.14257,0.709 -2.6404,-0.097 -0.3856,-0.6239 0.044,-1.5513 0.95464,-2.061 0.91066,-0.5096 2.54408,-1.8801 3.62984,-3.0455 1.08576,-1.1654 2.26482,-1.8283 2.62013,-1.4729 0.35531,0.3553 -0.0899,1.7692 -0.98944,3.142 -0.8995,1.3728 -2.50815,2.9631 -3.57477,3.5339 z m 8.40751,-8.5264 c -1.40809,1.8617 -1.4682,1.831 -1.4682,-0.75 0,-1.7254 0.53826,-2.6911 1.5,-2.6911 0.825,0 1.48569,0.3375 1.4682,0.75 -0.0175,0.4125 -0.6925,1.6235 -1.5,2.6911 z M 325,643.3599 c -0.55,0 -1,-0.9 -1,-2 0,-1.1 0.45,-2 1,-2 0.55,0 1,0.9 1,2 0,1.1 -0.45,2 -1,2 z m 135,-1 c -0.55,0 -1,-1.0984 -1,-2.441 0,-1.3425 0.45,-2.7191 1,-3.059 0.58342,-0.3606 1,0.6563 1,2.441 0,1.6824 -0.45,3.059 -1,3.059 z"
       id="path3111"
       inkscape:connector-curvature="0" />
  </g>
</svg>
