<?xml version="1.0" encoding="UTF-8" standalone="no"?>
<!-- Created with Inkscape (http://www.inkscape.org/) -->

<svg
   xmlns:dc="http://purl.org/dc/elements/1.1/"
   xmlns:cc="http://creativecommons.org/ns#"
   xmlns:rdf="http://www.w3.org/1999/02/22-rdf-syntax-ns#"
   xmlns:svg="http://www.w3.org/2000/svg"
   xmlns="http://www.w3.org/2000/svg"
   xmlns:sodipodi="http://sodipodi.sourceforge.net/DTD/sodipodi-0.dtd"
   xmlns:inkscape="http://www.inkscape.org/namespaces/inkscape"
   width="744"
   height="944"
   id="svg2"
   version="1.1"
   inkscape:version="0.48.1 "
   sodipodi:docname="elyspace-shirt.svg">
  <defs
     id="defs4" />
  <sodipodi:namedview
     id="base"
     pagecolor="#ffffff"
     bordercolor="#666666"
     borderopacity="1.0"
     inkscape:pageopacity="0.0"
     inkscape:pageshadow="2"
     inkscape:zoom="0.70710678"
     inkscape:cx="574.93661"
     inkscape:cy="499.40955"
     inkscape:document-units="px"
     inkscape:current-layer="layer1"
     showgrid="false"
     inkscape:window-width="1280"
     inkscape:window-height="977"
     inkscape:window-x="-4"
     inkscape:window-y="-4"
     inkscape:window-maximized="1"
     units="px"
     showborder="true"
     inkscape:snap-center="true"
     inkscape:showpageshadow="true"
     width="744px" />
  <metadata
     id="metadata7">
    <rdf:RDF>
      <cc:Work
         rdf:about="">
        <dc:format>image/svg+xml</dc:format>
        <dc:type
           rdf:resource="http://purl.org/dc/dcmitype/StillImage" />
        <dc:title></dc:title>
      </cc:Work>
    </rdf:RDF>
  </metadata>
  <g
     inkscape:label="Layer 1"
     inkscape:groupmode="layer"
     id="layer1"
     transform="translate(0,-108.35997)">
    <g
       id="1"
       transform="translate(0,62.36)" />
    <g
       id="1-1"
       transform="translate(0,62.36)" />
    <path
       style="fill:#000000"
       d="m 372.57709,989.00869 -7.53397,7.295 -7.68116,-7.5087 c -4.22463,-4.12971 -7.68115,-7.97497 -7.68115,-8.54498 0,-0.57 -0.675,-1.03637 -1.5,-1.03637 -0.825,0 -1.5,-0.62252 -1.5,-1.38337 0,-0.76085 -0.9,-1.61872 -2,-1.90638 -1.1,-0.28766 -2,-1.24014 -2,-2.11663 0,-0.87649 -0.45475,-1.59362 -1.01056,-1.59362 -0.55581,0 -6.77359,-5.82294 -13.81729,-12.93986 l -12.80672,-12.93985 -8.58941,8.58941 -8.58941,8.58941 -5.09331,-5.3964 c -2.80131,-2.96802 -5.0933,-5.73531 -5.0933,-6.14955 0,-0.41424 -0.5625,-0.77397 -1.25,-0.7994 -0.6875,-0.0254 -2.15,-1.2273 -3.25,-2.67082 -1.1,-1.44351 -8.75,-9.43338 -17,-17.75525 -8.25,-8.32187 -15.59684,-15.86999 -16.32632,-16.7736 -1.16237,-1.43985 -0.3042,-2.62998 6.94256,-9.62808 l 8.26888,-7.98514 -6.44256,-6.3866 c -3.54341,-3.51263 -7.31544,-7.3866 -8.38229,-8.60882 l -1.93973,-2.22223 8.30531,-8.34868 8.30531,-8.34869 -8.11558,-8.1703 c -4.46357,-4.49367 -8.11558,-8.39648 -8.11558,-8.67293 0,-0.27644 3.66891,-4.00779 8.15313,-8.2919 l 8.15312,-7.78927 -8.15312,-8.2081 c -4.48422,-4.51446 -8.15313,-8.51038 -8.15313,-8.87984 0,-0.36945 3.66075,-4.3516 8.13499,-8.84921 l 8.13499,-8.17747 -8.13499,-7.99409 c -4.47424,-4.39676 -8.13499,-8.23505 -8.13499,-8.52955 0,-0.2945 7.2,-7.63777 16,-16.31838 8.8,-8.68061 16,-16.58436 16,-17.56387 0,-0.97952 -0.675,-1.78094 -1.5,-1.78094 -0.825,0 -1.5,-0.47763 -1.5,-1.06139 0,-0.58377 -2.74425,-3.71351 -6.09834,-6.95499 -3.35408,-3.24148 -5.94158,-6.32837 -5.75,-6.85976 0.19159,-0.53139 3.19824,-3.92665 6.68145,-7.54502 3.48322,-3.61836 6.74572,-6.57884 7.25,-6.57884 0.50429,0 0.91689,-0.9 0.91689,-2 0,-1.11111 -0.66667,-2 -1.5,-2 -0.825,0 -1.5,-0.675 -1.5,-1.5 0,-0.825 -0.45,-1.5 -1,-1.5 -0.55,0 -1,-0.675 -1,-1.5 0,-0.825 -0.42682,-1.5 -0.94848,-1.5 -0.52166,0 -2.09666,-1.0641 -3.5,-2.36467 -1.40334,-1.30057 -2.55152,-2.87557 -2.55152,-3.5 0,-0.62443 -0.51793,-1.13533 -1.15095,-1.13533 -0.63302,0 -5.17389,-4.11202 -10.09082,-9.13782 l -8.93987,-9.13782 8.09082,-8.13307 c 4.44995,-4.47318 8.09082,-8.46264 8.09082,-8.86546 0,-0.40282 -3.0111,-3.65592 -6.69134,-7.22911 -3.68024,-3.5732 -7.05524,-6.49672 -7.5,-6.49672 -0.44476,0 -0.82947,-0.5625 -0.8549,-1.25 -0.0254,-0.6875 -1.2121,-2.15 -2.63704,-3.25 -1.42495,-1.1 -5.50599,-4.86347 -9.069,-8.36328 l -6.47819,-6.36327 8.11524,-8.15761 c 4.46337,-4.48669 8.11523,-8.43954 8.11523,-8.7841 0,-0.34457 -5.85,-6.46705 -13,-13.60551 -7.15,-7.13845 -13,-13.48464 -13,-14.10262 0,-0.61799 -0.675,-1.12361 -1.5,-1.12361 -0.825,0 -1.5,-0.675 -1.5,-1.5 0,-0.825 -0.44773,-1.5 -0.99495,-1.5 -0.54723,0 -3.24723,-2.20537 -6,-4.90081 -2.75278,-2.69545 -5.00505,-5.39545 -5.00505,-6 0,-0.60456 -0.43448,-1.09919 -0.96552,-1.09919 -0.53104,0 -2.38966,-1.39214 -4.13027,-3.09363 l -3.16474,-3.09364 6.88027,-7.10117 c 3.78414,-3.90565 7.54454,-7.6444 8.35644,-8.30834 1.19505,-0.97726 1.90013,-0.74971 3.70225,1.19481 1.22434,1.32108 2.69756,2.40197 3.27382,2.40197 0.57626,0 1.04775,0.50282 1.04775,1.11739 0,0.61456 3.57109,4.66456 7.93575,9 4.36466,4.33543 8.41466,7.88261 9,7.88261 0.58534,0 1.06425,0.50238 1.06425,1.1164 0,0.61403 1.85562,2.86403 4.1236,5 2.26797,2.13598 4.26425,3.8836 4.43617,3.8836 0.17192,0 3.9413,3.65318 8.37641,8.11818 4.4351,4.465 8.06382,8.3931 8.06382,8.72911 0,0.33601 -3.66257,4.29263 -8.13905,8.79248 l -8.13904,8.18155 15.02554,15.08934 c 8.26405,8.29914 15.52662,15.08934 16.13905,15.08934 0.61242,0 1.1135,1.35 1.1135,3 0,1.66889 -0.55463,3.05361 -1.25,3.12083 -0.6875,0.0665 -4.11938,3.19557 -7.6264,6.9536 l -6.3764,6.83277 6.1264,6.1264 c 3.36952,3.36952 6.1264,6.5404 6.1264,7.0464 0,0.506 0.675,0.92 1.5,0.92 0.825,0 1.5,0.5109 1.5,1.13533 0,0.62443 1.14818,2.19943 2.55152,3.5 1.40334,1.30057 2.97834,2.36467 3.5,2.36467 0.52166,0 0.94848,0.47531 0.94848,1.05625 0,0.58094 2.26299,3.35522 5.02887,6.16507 l 5.02886,5.10881 -5.02886,4.92435 c -2.76588,2.70839 -5.02887,5.33411 -5.02887,5.83493 0,0.50082 -0.57499,0.91059 -1.27776,0.91059 -0.70277,0 -2.05277,0.90514 -3,2.01143 -0.94723,1.10629 -1.72224,2.68129 -1.72224,3.5 0,0.81871 0.675,1.48857 1.5,1.48857 0.825,0 1.5,0.45 1.5,1 0,0.55 0.675,1 1.5,1 0.825,0 1.5,0.4652 1.5,1.03377 0,0.56858 6.13361,7.17803 13.63024,14.68768 l 13.63024,13.65391 -16.63024,16.36664 c -9.14663,9.00166 -16.63024,16.5672 -16.63024,16.81232 0,0.24513 0.9,1.34568 2,2.44568 1.1,1.1 2.45,2 3,2 0.55,0 1,0.39366 1,0.8748 0,0.48115 2.04143,3.00543 4.5365,5.60952 2.49508,2.60409 4.63258,5.07629 4.75,5.49377 0.11743,0.41748 -6.7615,8.05786 -15.2865,16.97862 -8.525,8.92076 -15.65706,16.65109 -15.84903,17.17852 -0.19197,0.52743 1.04143,2.28777 2.7409,3.91187 1.69946,1.62409 3.54402,2.9529 4.09903,2.9529 0.555,0 1.0091,0.64468 1.0091,1.43261 0,0.78794 0.9,1.71826 2,2.06739 1.1,0.34913 2,1.27945 2,2.06739 0,0.78793 0.642,1.43261 1.42668,1.43261 0.78467,0 1.57217,0.62819 1.75,1.39598 0.18898,0.81595 7.33702,-5.55991 17.20351,-15.34507 l 16.88019,-16.74106 -8.13019,-8.11927 c -4.4716,-4.4656 -8.13331,-8.47281 -8.13713,-8.90492 -0.004,-0.43212 3.66934,-4.42227 8.16257,-8.86701 l 8.16951,-8.08136 8.41072,8.4868 8.41071,8.4868 -8.07329,8.11544 c -4.4403,4.4635 -8.07328,8.44355 -8.07328,8.84456 0,0.40101 3.66316,4.39227 8.14036,8.86947 l 8.14036,8.14036 8.98788,-9.39036 c 4.94333,-5.1647 12.33419,-12.8045 16.42412,-16.97734 l 7.43624,-7.58699 -7.56448,-7.6633 c -4.16046,-4.21482 -7.56448,-8.32772 -7.56448,-9.13978 0,-0.81206 3.40344,-4.77135 7.56319,-8.79843 l 7.56319,-7.32197 -7.56319,-7.61241 c -4.15975,-4.18682 -7.56319,-8.1024 -7.56319,-8.70127 0,-0.59888 -0.24837,-1.08887 -0.55194,-1.08887 -0.30356,0 -4.29465,3.90615 -8.86909,8.68034 l -8.31716,8.68034 -8.21128,-8.18923 c -4.5162,-4.50408 -8.0626,-8.60896 -7.8809,-9.12196 0.1817,-0.513 7.46583,-8.16761 16.18694,-17.01024 14.20823,-14.40621 15.71555,-16.25744 14.5,-17.80838 -0.74611,-0.95198 -1.91907,-2.09073 -2.60657,-2.53056 -0.6875,-0.43983 -1.25,-1.45233 -1.25,-2.25 0,-0.79767 -0.5625,-1.45105 -1.25,-1.45195 -0.6875,-9.1e-4 -2.9375,-1.79511 -5,-3.98713 -2.0625,-2.19201 -3.74498,-4.32877 -3.73884,-4.74835 0.006,-0.41959 3.39314,-4.25755 7.52666,-8.52882 6.51482,-6.73193 7.37411,-8.03011 6.45365,-9.75 -0.58401,-1.09123 -1.46568,-1.98406 -1.95927,-1.98406 -0.49358,0 -1.18307,-0.9 -1.5322,-2 -0.34913,-1.1 -1.20341,-2 -1.89841,-2 -0.695,0 -1.86571,-1.125 -2.60159,-2.5 -0.73588,-1.375 -1.86088,-2.5 -2.5,-2.5 -0.63912,0 -1.76953,-1.13511 -2.51203,-2.52247 -1.26383,-2.36149 -1.09911,-2.78443 2.58102,-6.62731 2.16206,-2.25766 4.96396,-5.17255 6.22646,-6.47753 1.2625,-1.30498 2.67252,-2.37269 3.13337,-2.37269 0.46086,0 1.07896,-0.92176 1.37357,-2.04836 0.36386,-1.39138 -0.38976,-2.99505 -2.34966,-5 -1.58693,-1.6234 -3.27826,-2.95164 -3.75851,-2.95164 -0.48026,0 -1.38577,-1.125 -2.01227,-2.5 -0.62649,-1.375 -1.82372,-2.5 -2.66051,-2.5 -0.83679,0 -1.52191,-0.3375 -1.52248,-0.75 -5.6e-4,-0.4125 -2.26726,-3.1125 -5.03709,-6 -2.76984,-2.8875 -5.46937,-5.25 -5.99897,-5.25 -0.52959,0 -0.9629,-0.405 -0.9629,-0.9 0,-0.495 -1.64886,-2.54886 -3.66413,-4.56413 l -3.66413,-3.66413 8.16413,-8.20676 c 4.49027,-4.51371 8.16413,-8.46583 8.16413,-8.78247 0,-0.31664 -1.59666,-2.21974 -3.54814,-4.22911 -1.95147,-2.00937 -3.86397,-3.66579 -4.25,-3.68093 -0.38602,-0.0151 -1.82686,-1.56457 -3.20186,-3.44317 -1.375,-1.87861 -3.5125,-3.96726 -4.75,-4.64145 -1.2375,-0.6742 -2.25,-1.82477 -2.25,-2.55683 0,-0.73206 -0.5109,-1.33102 -1.13533,-1.33102 -0.62443,0 -2.19943,-1.14818 -3.5,-2.55152 -1.30057,-1.40334 -2.36467,-2.97834 -2.36467,-3.5 0,-0.52166 -0.65917,-0.94848 -1.46482,-0.94848 -0.80565,0 -1.94648,-0.9 -2.53518,-2 -0.5887,-1.1 -1.72953,-2 -2.53518,-2 -0.80565,0 -1.46482,-0.5531 -1.46482,-1.22911 0,-0.67601 3.61836,-4.86637 8.0408,-9.3119 5.82954,-5.85998 7.86265,-8.54702 7.39301,-9.77089 -0.35628,-0.92845 -1.27464,-1.6881 -2.0408,-1.6881 -0.76615,0 -1.39348,-0.3375 -1.39405,-0.75 -5.6e-4,-0.4125 -2.26726,-3.1125 -5.03709,-6 -2.76984,-2.8875 -5.46937,-5.25 -5.99897,-5.25 -0.52959,0 -0.9629,-0.5531 -0.9629,-1.22911 0,-0.67601 3.65568,-4.90389 8.12374,-9.39528 4.61114,-4.63521 7.82853,-8.64383 7.44098,-9.27088 -0.37551,-0.6076 -1.3312,-1.10473 -2.12374,-1.10473 -0.79254,0 -1.44098,-0.49907 -1.44098,-1.10905 0,-0.60998 -1.0125,-2.17721 -2.25,-3.48273 -1.2375,-1.30552 -2.8125,-2.38144 -3.5,-2.39094 -0.6875,-0.01 -1.25,-0.49942 -1.25,-1.08871 0,-0.58928 -0.64286,-1.71428 -1.42857,-2.5 -0.78572,-0.78571 -1.94371,-1.42857 -2.57333,-1.42857 -0.62961,0 -0.99925,-0.65916 -0.82142,-1.46481 0.17782,-0.80565 11.56088,-12.76798 25.29567,-26.58296 13.73479,-13.81498 25.13539,-24.62901 25.33467,-24.03116 0.19929,0.59785 3.76855,4.49321 7.9317,8.65636 l 7.56937,7.56937 8.06909,-7.8234 c 4.438,-4.30287 8.23197,-8.16328 8.43105,-8.57869 0.19908,-0.41541 4.22372,3.1239 8.94366,7.86513 l 8.58169,8.62042 7.2772,-7.61513 c 4.00245,-4.18832 8.00258,-7.61513 8.88916,-7.61513 0.88659,0 12.38679,10.77879 25.55605,23.95287 13.1692,13.17407 23.944,24.50087 23.944,25.17067 0,0.66979 -3.4346,4.51057 -7.6325,8.53505 -6.8018,6.5209 -7.482,7.50098 -6.25,9.00547 0.7604,0.92852 4.195,4.50895 7.6325,7.95652 3.4375,3.44757 6.25,6.64137 6.25,7.09732 0,0.45596 -3.4974,4.30596 -7.7721,8.55556 -4.2747,4.2496 -8.0366,7.72654 -8.3599,7.72654 -0.3232,0 -4.1862,-3.55526 -8.5844,-7.90058 l -7.99672,-7.90057 8.46482,-8.46484 8.4649,-8.46484 -4.521,-4.38458 c -2.4865,-2.41153 -5.7978,-5.59678 -7.35829,-7.07834 -1.56051,-1.48157 -3.2873,-3.1707 -3.8373,-3.75362 -0.55,-0.58293 -4.67878,-4.65824 -9.17506,-9.05625 -4.49629,-4.39801 -8.48577,-7.99638 -8.86553,-7.99638 -0.37975,0 -4.16082,3.65697 -8.40237,8.1266 l -7.71192,8.1266 -8.42256,-8.54234 -8.42256,-8.54235 -8.59742,8.49303 -8.59742,8.49302 -7.6024,-7.67672 c -4.18131,-4.2222 -7.75019,-8.12012 -7.93082,-8.66203 -0.18064,-0.54192 -7.85323,6.4772 -17.05019,15.59805 -9.19696,9.12084 -16.72175,17.03397 -16.72175,17.58474 0,0.55077 0.675,1.0014 1.5,1.0014 0.825,0 1.50047,0.3375 1.50104,0.75 5.6e-4,0.4125 2.26726,3.1125 5.03709,6 2.76984,2.8875 5.42123,5.25 5.89198,5.25 0.47075,0 1.14742,0.75965 1.5037,1.6881 0.46964,1.22387 -1.56347,3.91091 -7.39301,9.77089 -4.42244,4.44553 -8.0408,8.63589 -8.0408,9.3119 0,0.67601 0.5625,1.2415 1.25,1.25664 0.6875,0.0151 2.375,1.57775 3.75,3.47247 1.375,1.89472 2.98646,3.45733 3.58102,3.47247 0.59456,0.0151 1.6831,1.15253 2.41898,2.52753 0.73588,1.375 1.65084,2.5 2.03324,2.5 0.3824,0 3.00636,2.27492 5.83102,5.05537 2.82466,2.78045 5.13574,5.42797 5.13574,5.88337 0,0.4554 0.9,1.06335 2,1.35101 1.1,0.28766 2,1.24014 2,2.11663 0,0.87649 0.62252,1.59362 1.38337,1.59362 0.76085,0 1.63116,0.94756 1.93401,2.10568 0.39763,1.52052 -0.47311,3.15698 -3.13336,5.88881 -2.02621,2.08073 -5.40947,5.57851 -7.51835,7.77285 -3.47044,3.61108 -3.7086,4.19105 -2.50946,6.11119 0.72869,1.16681 1.8156,2.12147 2.41536,2.12147 0.59976,0 1.69255,1.125 2.42843,2.5 0.73588,1.375 1.93692,2.5 2.66898,2.5 0.73206,0 1.33102,0.39438 1.33102,0.8764 0,0.48203 1.8,2.78764 4,5.1236 2.2,2.33596 4,4.64157 4,5.1236 0,0.48202 0.44444,0.8764 0.98765,0.8764 0.54321,0 3.13071,2.30608 5.75,5.12462 2.61929,2.81853 5.28906,5.63103 5.93281,6.25 0.88276,0.84875 -0.65353,2.89465 -6.25,8.32317 -5.45521,5.29151 -7.42046,7.88203 -7.42046,9.78138 0,1.42098 0.69548,2.85048 1.5455,3.17666 0.85003,0.32619 3.43753,2.51368 5.75,4.8611 2.31248,2.34742 4.94278,5.16407 5.84512,6.25923 1.57104,1.90676 1.32719,2.30253 -5.75,9.33249 -4.35205,4.323 -7.38865,8.17386 -7.38583,9.36632 0.003,1.14291 2.50747,4.47014 5.75,7.63809 3.15987,3.08718 6.47471,6.51208 7.36632,7.61089 1.54971,1.90986 1.29649,2.3123 -5.75,9.13842 -4.05411,3.92731 -7.37111,7.8549 -7.37111,8.72797 0,0.87307 3.39464,5.00413 7.54365,9.18014 l 7.54366,7.59274 7.65029,-7.43161 c 4.20765,-4.08738 8.2237,-8.10661 8.92454,-8.93161 1.11864,-1.31681 1.27814,-1.28628 1.30606,0.25 0.0175,0.9625 0.44812,1.75 0.95696,1.75 0.50884,0 4.12272,3.2551 8.03085,7.23356 l 7.10568,7.23356 8.03138,-8.31676 8.03138,-8.31676 2.94647,3.0832 c 1.62056,1.69576 3.14265,3.0832 3.38241,3.0832 0.23976,0 2.71085,2.31108 5.4913,5.13574 2.78045,2.82466 5.05537,5.52466 5.05537,6 0,0.47534 0.40474,0.86426 0.89942,0.86426 0.49468,0 4.36552,3.47735 8.60187,7.72745 l 7.7024,7.72746 15.3098,-15.72746 c 11.7055,-12.02481 15.8983,-15.72745 17.8093,-15.72745 1.5495,0 3.4588,1.14015 5.0238,3 1.3883,1.65 2.9273,3 3.4199,3 0.4925,0 1.4976,1.125 2.2335,2.5 0.7359,1.375 1.8287,2.5 2.4284,2.5 0.5998,0 1.6116,0.8344 2.2485,1.85422 1.0103,1.61779 0.092,2.91501 -7.2049,10.17362 l -8.3628,8.3194 3.4454,3.54722 c 1.895,1.95097 3.4454,3.89785 3.4454,4.32638 0,0.42854 0.4333,0.77916 0.9629,0.77916 0.5296,0 3.2291,2.3625 5.999,5.25 2.7698,2.8875 5.0365,5.5875 5.0371,6 5e-4,0.4125 0.5678,0.75 1.2605,0.75 0.6927,0 1.8215,0.9 2.5084,2 0.687,1.1 1.9202,2 2.7406,2 0.8203,0 1.4915,0.47294 1.4915,1.05098 0,0.57804 1.6043,2.52075 3.5652,4.31712 l 3.5652,3.26614 -8.5016,8.29822 c -7.4879,7.30874 -8.3613,8.52295 -7.3247,10.18288 0.6474,1.03656 1.455,1.88466 1.7949,1.88466 0.3398,0 3.6515,2.98928 7.3594,6.64284 l 6.7416,6.64285 -8.5313,8.53139 -8.5314,8.53139 -12.6009,-12.67424 c -6.9305,-6.97082 -12.9876,-12.67423 -13.4602,-12.67423 -0.4727,0 -1.1417,-1.125 -1.4868,-2.5 -0.3451,-1.375 -1.1318,-2.5 -1.7482,-2.5 -0.6164,0 -1.7079,-0.7875 -2.4256,-1.75 -1.1858,-1.59019 -2.0786,-0.9834 -9.7764,6.64453 l -8.4715,8.39454 -8.5391,-8.46251 -8.53903,-8.46252 7.72733,-7.68202 c 4.2501,-4.22511 8.4762,-7.68202 9.3914,-7.68202 0.9152,0 5.0535,3.43371 9.1961,7.63046 l 7.5321,7.63045 8.0318,-8.2284 c 4.4174,-4.52562 8.0317,-8.604 8.0317,-9.06307 0,-0.45906 -0.9,-1.12031 -2,-1.46944 -1.1,-0.34913 -2,-1.27945 -2,-2.06739 0,-0.78793 -0.675,-1.43261 -1.5,-1.43261 -0.825,0 -1.5,-0.62325 -1.5,-1.38499 0,-0.76174 -1.2375,-2.18065 -2.75,-3.15312 -1.5125,-0.97248 -3.9875,-3.13028 -5.5,-4.79512 -1.5125,-1.66484 -2.75,-3.39594 -2.75,-3.84688 0,-0.45094 -0.675,-0.81989 -1.5,-0.81989 -0.825,0 -1.5,-0.38892 -1.5,-0.86426 0,-0.47534 -2.2321,-3.13189 -4.9603,-5.90344 -2.7282,-2.77155 -5.5407,-5.25616 -6.25,-5.52135 -0.7093,-0.26519 -4.9756,3.14249 -9.4807,7.57263 l -8.19092,8.05481 -8.19117,-8.1692 c -4.50514,-4.49305 -8.4119,-8.16919 -8.68168,-8.16919 -0.26978,0 -3.80364,3.4875 -7.85301,7.75 -4.04937,4.2625 -7.36918,8.1327 -7.37735,8.60045 -0.008,0.46775 2.12264,3.04827 4.73514,5.73449 2.6125,2.68622 5.3125,4.89101 6,4.89955 0.6875,0.009 1.25,0.6867 1.25,1.50704 0,0.82034 0.9,2.05358 2,2.74054 1.1,0.68696 2,1.59078 2,2.00848 0,0.4177 -0.4777,0.75945 -1.06156,0.75945 -0.58385,0 -4.17995,3.2625 -7.99131,7.25 -3.81137,3.9875 -6.93367,7.61191 -6.93845,8.05423 -0.005,0.44233 1.33924,2.24233 2.98669,4 1.64746,1.75768 2.99746,3.53327 3,3.94577 0.003,0.4125 0.67963,0.75 1.50463,0.75 0.825,0 1.5,0.675 1.5,1.5 0,0.825 0.675,1.5 1.5,1.5 0.825,0 1.5,0.46883 1.5,1.04184 0,0.57301 4.52765,5.59807 10.06144,11.1668 l 10.06145,10.12495 8.2094,-8.16679 c 4.5152,-4.49174 8.5233,-8.1668 8.9068,-8.1668 0.3836,0 3.9742,3.35254 7.9791,7.4501 4.005,4.09755 8.1818,8.57674 9.2818,9.95376 1.1,1.37701 2.359,2.52447 2.7978,2.5499 0.4387,0.0254 1.9012,1.23695 3.25,2.69226 1.3487,1.45532 2.4522,3.03032 2.4522,3.5 0,0.46969 0.675,0.85398 1.5,0.85398 0.825,0 1.5,0.64468 1.5,1.43261 0,0.78794 0.9,1.71826 2,2.06739 1.1,0.34913 2,1.0463 2,1.54926 0,0.50297 3.7125,-2.67505 8.25,-7.06228 4.5375,-4.38722 8.6016,-7.97907 9.0314,-7.98188 0.4298,-0.003 1.0404,0.6699 1.357,1.4949 0.3166,0.825 0.9677,1.5 1.4469,1.5 0.4792,0 3.2851,2.41386 6.2354,5.36413 2.9502,2.95027 5.9975,5.59862 6.7717,5.88522 0.9559,0.35387 -1.3984,3.37028 -7.3364,9.39965 l -8.744,8.87857 8.6415,8.33156 8.6415,8.33157 -8.5421,8.54213 -8.5421,8.54213 -10.6054,-10.55409 c -5.833,-5.80476 -10.6054,-11.04162 -10.6054,-11.63748 0,-0.59587 -0.4715,-1.08339 -1.0477,-1.08339 -0.5763,0 -2.1513,-1.19071 -3.5,-2.64602 -1.3488,-1.45532 -2.4523,-3.03032 -2.4523,-3.5 0,-0.46969 -0.5625,-0.87479 -1.25,-0.90022 -0.6875,-0.0254 -2.15,-1.17289 -3.25,-2.5499 -1.1,-1.37702 -5.2768,-5.85621 -9.2818,-9.95376 -4.0049,-4.09756 -7.5955,-7.4501 -7.9791,-7.4501 -0.3835,0 -4.3889,3.67246 -8.901,8.16103 l -8.2036,8.16102 -8.31724,-8.19308 c -4.57449,-4.50619 -9.10475,-8.93238 -10.06725,-9.83599 -0.9625,-0.9036 -1.75,-2.23918 -1.75,-2.96795 0,-0.72876 -0.675,-1.32503 -1.5,-1.32503 -0.825,0 -1.5,-0.45 -1.5,-1 0,-0.55 -0.675,-1 -1.5,-1 -0.825,0 -1.51044,-0.3375 -1.5232,-0.75 -0.0128,-0.4125 -1.50642,-2.39578 -3.31925,-4.40729 l -3.29604,-3.65729 -8.68817,8.39987 c -8.67739,8.38945 -8.69065,8.3974 -10.68076,6.40729 -1.09592,-1.09592 -1.99258,-2.44258 -1.99258,-2.99258 0,-0.55 -0.41007,-1 -0.91128,-1 -0.5012,0 -3.37281,-2.40323 -6.38136,-5.34051 l -5.47009,-5.34052 -7.61863,7.35179 c -4.19025,4.04348 -7.61864,7.79671 -7.61864,8.34051 0,0.5438 -0.44493,0.98873 -0.98873,0.98873 -0.5438,0 -4.36378,3.4875 -8.48884,7.75 -4.12505,4.2625 -7.50513,8.12648 -7.51127,8.58662 -0.006,0.46015 2.46384,3.253 5.48884,6.20634 3.025,2.95335 5.5,5.83937 5.5,6.41338 0,0.57401 0.675,1.04366 1.5,1.04366 0.825,0 1.5,0.675 1.5,1.5 0,0.825 0.39633,1.5 0.88074,1.5 0.4844,0 4.58203,-3.79202 9.10584,-8.42671 l 8.22511,-8.42671 8.47721,8.57319 8.47721,8.57319 8.66695,-8.58448 8.66694,-8.58449 3.25,3.65394 c 1.7875,2.00966 3.25,4.00676 3.25,4.438 0,0.43124 0.675,0.78407 1.5,0.78407 0.825,0 1.5,0.675 1.5,1.5 0,0.825 0.60277,1.5 1.33948,1.5 0.73672,0 1.85207,1.125 2.47857,2.5 0.62649,1.375 1.49678,2.5 1.93397,2.5 0.4372,0 4.37379,-3.6 8.74798,-8 4.37419,-4.4 8.28226,-8 8.6846,-8 0.40233,0 7.95039,7.22267 16.77349,16.05037 8.823,8.8277 16.0419,16.61392 16.0419,17.30271 0,0.68878 -3.5253,4.59389 -7.8339,8.67801 l -7.8339,7.42567 8.2834,8.30206 8.2833,8.30205 16.1941,-16.03043 c 8.9067,-8.81674 16.4835,-16.03044 16.8374,-16.03044 0.3538,0 2.787,2.025 5.4071,4.5 2.6201,2.475 5.191,4.5 5.7131,4.5 0.5222,0 0.9494,0.675 0.9494,1.5 0,0.825 0.675,1.5 1.5,1.5 0.825,0 1.5,0.6375 1.5,1.41667 0,0.77916 0.4304,1.56666 0.9564,1.75 0.5259,0.18333 -10.3,11.71495 -24.0576,25.62581 l -25.0139,25.29248 -7.9746,-8.1151 c -4.386,-4.46331 -8.4053,-7.96993 -8.9317,-7.79248 -0.5265,0.17744 -11.95145,11.2425 -25.38887,24.58901 l -24.43167,24.26636 -7.07229,-7.0164 c -3.88976,-3.85897 -7.52532,-7.01635 -8.07903,-7.01635 -0.5537,0 -1.00673,-0.59392 -1.00673,-1.31982 0,-0.7259 7.50223,-8.9384 16.67163,-18.25 9.16939,-9.3116 20.25563,-20.60114 24.63608,-25.08786 l 7.96446,-8.15768 -8.65056,-8.59232 c -4.7578,-4.72578 -9.04156,-8.59232 -9.51945,-8.59232 -0.47789,0 -1.10425,-0.9 -1.39191,-2 -0.28766,-1.1 -1.24014,-2 -2.11663,-2 -0.87649,0 -1.59362,-0.675 -1.59362,-1.5 0,-0.825 -0.675,-1.5 -1.5,-1.5 -0.825,0 -1.5,-0.465 -1.5,-1.03333 0,-0.56834 -1.53288,-2.56622 -3.4064,-4.43974 l -3.40641,-3.4064 -24.59359,24.05032 c -14.24773,13.93299 -24.5936,24.81343 -24.5936,25.86433 0,0.99771 5.40289,7.24795 12.00643,13.88942 6.60354,6.64147 12.20808,12.0754 12.45454,12.0754 0.24647,0 1.59358,1.14545 2.99358,2.54545 1.4,1.4 2.54545,2.9375 2.54545,3.41667 0,0.47917 0.43558,1.02121 0.96795,1.20455 0.53238,0.18333 0.62919,0.78333 0.21513,1.33333 -0.41405,0.55 -4.14311,4.28276 -8.2868,8.29505 z m -74.69168,-60.1047 c 0.38753,-0.10469 4.31414,-3.72778 8.72581,-8.0513 6.67832,-6.54491 7.85801,-8.16587 7.04646,-9.68228 -0.53611,-1.00173 -1.76272,-2.07418 -2.72581,-2.38323 -0.96308,-0.30905 -2.65106,-1.91323 -3.75106,-3.56485 -1.1,-1.65162 -2.27179,-3.00423 -2.60398,-3.00581 -0.33218,-0.002 -1.79468,-1.10639 -3.25,-2.45513 -1.45531,-1.34874 -2.64602,-2.80641 -2.64602,-3.23928 0,-0.43287 7.4788,-8.27555 16.61956,-17.42819 l 16.61956,-16.64116 -8.11956,-8.11956 c -4.46576,-4.46576 -8.52832,-8.11956 -9.02792,-8.11956 -0.4996,0 -11.63368,11.01475 -24.74241,24.47721 -13.10872,13.46247 -23.98408,24.92734 -24.16746,25.47748 -0.18338,0.55014 0.9382,2.12536 2.4924,3.50047 1.55421,1.37512 3.27583,2.97462 3.82583,3.55444 0.55,0.57983 2.02774,2.05237 3.28387,3.27232 1.25613,1.21994 3.05613,2.93704 4,3.81577 0.94387,0.87873 2.56666,2.79123 3.6062,4.25 1.03954,1.45877 2.46454,2.65231 3.16667,2.65231 0.70213,0 1.42659,0.4341 1.60993,0.96468 0.18333,0.53057 2.35833,3.20373 4.83333,5.94035 2.475,2.73662 4.81707,4.89002 5.2046,4.78532 z M 414.66084,711.21364 c -0.50031,0 -1.39133,-0.9 -1.98003,-2 -0.5887,-1.1 -1.72953,-2 -2.53518,-2 -0.80565,0 -1.46482,-0.675 -1.46482,-1.5 0,-0.825 -0.56819,-1.5 -1.26265,-1.5 -0.69446,0 -2.15696,-1.19929 -3.25,-2.66508 -1.09304,-1.4658 -2.54985,-3.23366 -3.23735,-3.92857 -0.6875,-0.69492 -1.24331,-1.63314 -1.23514,-2.08492 0.008,-0.45179 3.42706,-4.41362 7.59753,-8.80408 l 7.58267,-7.98266 2.88837,3.23266 c 1.58861,1.77796 3.10303,3.23265 3.36538,3.23265 0.26234,0 2.73889,2.35892 5.50344,5.24204 l 5.02644,5.24204 -8.0445,7.75796 c -4.42447,4.26688 -8.45384,7.75796 -8.95416,7.75796 z m 68.42676,-0.74118 c -0.6013,0.36601 -2.1173,-0.10499 -3.3688,-1.04667 -1.2515,-0.94168 -3.077,-2.54465 -4.0567,-3.56215 -0.9797,-1.0175 -2.1638,-2.26504 -2.6313,-2.77231 -0.4675,-0.50728 -2.1107,-2.03728 -3.6515,-3.4 -1.5408,-1.36273 -3.2283,-2.47769 -3.75,-2.47769 -0.5217,0 -0.9485,-0.20175 -0.9485,-0.44834 0,-0.24659 7.5892,-8.20141 16.865,-17.67737 l 16.8649,-17.22903 6.7767,6.67737 c 3.7271,3.67255 7.0547,6.67737 7.3945,6.67737 0.3398,0 1.1469,0.8472 1.7936,1.88267 1.0445,1.6725 -0.5753,3.60341 -14.5095,17.29667 -8.6268,8.4777 -16.1772,15.71346 -16.7784,16.07948 z m -68.65615,-32.25882 c -0.43644,0 -1.3061,-1.125 -1.93259,-2.5 -0.6265,-1.375 -1.53838,-2.5 -2.02642,-2.5 -0.48803,0 -3.1158,-2.36108 -5.83948,-5.24684 -2.72368,-2.88576 -4.94546,-5.69826 -4.93729,-6.25 0.008,-0.55174 3.40267,-4.56959 7.54334,-8.92856 l 7.52849,-7.9254 2.90029,3.1754 c 1.59515,1.74647 3.2996,3.1754 3.78767,3.1754 0.48806,0 1.48947,1.125 2.22535,2.5 0.73588,1.375 1.7335,2.5 2.21695,2.5 0.48344,0 1.95725,1.2375 3.27513,2.75 l 2.39615,2.75 -8.17204,8.25 c -4.49462,4.5375 -8.52912,8.25 -8.96555,8.25 z M 498.6195,661.0468 c -0.5157,0.18323 -1.211,-0.37927 -1.5451,-1.25 -0.3342,-0.87074 -0.9845,-1.58316 -1.4452,-1.58316 -0.4607,0 -3.1126,-2.31108 -5.893,-5.13574 -2.7805,-2.82466 -5.0554,-5.52466 -5.0554,-6 0,-0.47534 -0.675,-0.86426 -1.5,-0.86426 -0.825,0 -1.5,-0.24057 -1.5,-0.53461 0,-0.29403 3.2625,-3.70526 7.25,-7.5805 3.9875,-3.87524 11.5928,-11.34421 16.9007,-16.59771 l 9.6507,-9.55182 8.451,8.432 8.451,8.43199 -16.4135,15.95033 c -9.0275,8.77267 -16.8356,16.10024 -17.3512,16.28348 z m -84.41054,-16.83316 c -0.84048,0 -1.52815,-0.68912 -1.52815,-1.53138 0,-0.84227 -0.75312,-1.82039 -1.67361,-2.17361 -0.92048,-0.35323 -2.49548,-1.4641 -3.5,-2.46862 -1.00451,-1.00451 -1.84545,-2.16389 -1.86874,-2.57639 -0.0233,-0.4125 -1.37329,-1.85389 -3,-3.20309 -1.62671,-1.3492 -2.95765,-2.94044 -2.95765,-3.53608 0,-0.59565 7.14213,-8.48604 15.87141,-17.5342 l 15.87141,-16.4512 5.73727,5.73728 c 3.1555,3.15551 6.1384,5.73729 6.6286,5.73729 0.4902,0 0.8913,0.36515 0.8913,0.81144 0,0.44629 0.8702,1.74552 1.9339,2.88717 1.9327,2.07459 1.9248,2.08458 -14.4719,18.18856 -9.02312,8.86206 -17.09335,16.11283 -17.93384,16.11283 z m 101.34934,-33 c -0.243,0 -4.1862,-3.63048 -8.7627,-8.06774 l -8.3209,-8.06774 25.0739,-24.93053 25.0739,-24.93054 8.3284,8.17883 8.3284,8.17883 -24.6396,24.81944 c -13.5518,13.6507 -24.8384,24.81945 -25.0814,24.81945 z m -84.45851,-17.03396 c -0.59456,0.0187 -1.6831,-1.09104 -2.41898,-2.46604 -0.73588,-1.375 -1.687,-2.5 -2.11361,-2.5 -0.42661,0 -3.05057,-2.31108 -5.83102,-5.13574 -2.78045,-2.82466 -5.05537,-5.52045 -5.05537,-5.99065 0,-0.47019 7.25188,-7.94661 16.11529,-16.61426 8.8634,-8.66764 16.6074,-15.61553 17.2088,-15.43974 0.6015,0.17578 4.3746,3.65429 8.3847,7.73002 4.0102,4.07573 7.2912,7.72994 7.2912,8.12047 0,0.39053 -7.3125,7.80924 -16.25,16.48602 -8.9375,8.67677 -16.73645,15.79124 -17.33101,15.80992 z M 214.89633,544.13469 c -0.39354,-0.0434 -1.27802,-0.30592 -1.96552,-0.58333 -0.6875,-0.27741 -1.25,-0.92064 -1.25,-1.4294 0,-0.50875 -2.97933,-3.84625 -6.62072,-7.41666 -3.6414,-3.57041 -7.0164,-6.49166 -7.5,-6.49166 -0.48361,0 -0.87928,-0.41632 -0.87928,-0.92516 0,-0.50884 -3.24097,-4.10884 -7.20216,-8 -3.96119,-3.89116 -7.56119,-7.07484 -8,-7.07484 -0.43881,0 -0.79784,-0.675 -0.79784,-1.5 0,-0.825 -0.675,-1.5 -1.5,-1.5 -0.825,0 -1.5,-0.675 -1.5,-1.5 0,-0.825 -0.38429,-1.5 -0.85398,-1.5 -0.46968,0 -2.04468,-1.10351 -3.5,-2.45225 -1.45531,-1.34874 -2.64602,-2.92374 -2.64602,-3.5 0,-0.57626 -0.50863,-1.04775 -1.13028,-1.04775 -0.62165,0 -4.10915,-3.07325 -7.75,-6.82945 -3.64085,-3.75619 -7.28156,-7.80619 -8.09048,-9 -0.80892,-1.1938 -1.99827,-2.17055 -2.64301,-2.17055 -0.64474,0 -1.4454,-0.7118 -1.77924,-1.58179 -0.33384,-0.86998 -0.60699,-1.71605 -0.60699,-1.88016 0,-0.1641 3.375,-3.79601 7.5,-8.07089 4.125,-4.27489 7.5,-8.19827 7.5,-8.71863 0,-0.52036 -1.39759,-2.25165 -3.10576,-3.84732 -1.70816,-1.59567 -3.50816,-2.90121 -4,-2.90121 -0.49183,0 -0.89424,-0.60615 -0.89424,-1.34699 0,-0.74084 -0.84028,-2.31584 -1.8673,-3.5 -1.02701,-1.18416 -2.38666,-2.15301 -3.02143,-2.15301 -0.63478,0 -1.66673,-1.125 -2.29322,-2.5 -0.6265,-1.375 -1.66581,-2.5 -2.30958,-2.5 -0.64378,0 -1.77259,-1.125 -2.50847,-2.5 -0.73588,-1.375 -1.70931,-2.5 -2.16317,-2.5 -0.45387,0 -2.91707,-2.06224 -5.47379,-4.58276 l -4.64857,-4.58276 7.39276,-7.641 c 4.06603,-4.20255 7.73027,-7.80281 8.14277,-8.00057 0.4125,-0.19777 0.75,-0.99708 0.75,-1.77624 0,-0.77917 -0.675,-1.41667 -1.5,-1.41667 -0.825,0 -1.5,-0.38892 -1.5,-0.86426 0,-0.47534 -2.27492,-3.17534 -5.05537,-6 -2.78045,-2.82466 -5.43231,-5.13574 -5.89301,-5.13574 -0.4607,0 -1.12881,-0.75877 -1.48468,-1.68616 -0.46409,-1.20939 1.41426,-3.81746 6.64301,-9.22376 4.00953,-4.14568 7.62755,-7.69941 8.04005,-7.89717 0.4125,-0.19777 0.75,-0.77208 0.75,-1.27624 0,-0.50417 -0.675,-0.91667 -1.5,-0.91667 -0.825,0 -1.5,-0.51347 -1.5,-1.14104 0,-0.62758 -2.025,-3.10916 -4.5,-5.51464 -2.475,-2.40547 -4.5,-4.76452 -4.5,-5.24232 0,-0.47781 -0.94741,-1.11649 -2.10536,-1.4193 -1.15794,-0.30281 -1.94544,-1.0054 -1.75,-1.5613 0.19545,-0.55591 3.85786,-4.59422 8.1387,-8.97403 l 7.78334,-7.96328 -3.52856,-3.84205 c -1.94071,-2.11312 -3.53071,-4.17954 -3.53334,-4.59204 -0.003,-0.4125 -0.60374,-0.75 -1.3358,-0.75 -0.73206,0 -1.9331,-1.125 -2.66898,-2.5 -0.73588,-1.375 -1.88877,-2.5 -2.56199,-2.5 -0.67322,0 -1.51002,-0.74526 -1.85955,-1.65614 -0.44723,-1.16547 1.52095,-3.94242 6.64301,-9.37278 4.00319,-4.24415 8.06603,-8.02921 9.02853,-8.41125 0.9625,-0.38203 1.75,-1.33928 1.75,-2.12722 0,-0.78793 0.675,-1.43261 1.5,-1.43261 0.825,0 1.5,-0.675 1.5,-1.5 0,-0.825 0.675,-1.5 1.5,-1.5 0.825,0 1.5,-0.5109 1.5,-1.13533 0,-0.62443 1.14818,-2.19943 2.55152,-3.5 1.40334,-1.30057 2.93019,-2.36467 3.39301,-2.36467 0.46282,0 1.12145,-0.72955 1.46362,-1.62123 0.3863,-1.00668 -0.33128,-2.57462 -1.89302,-4.13636 -1.38332,-1.38333 -2.51513,-2.90377 -2.51513,-3.37877 0,-0.475 -0.675,-0.86364 -1.5,-0.86364 -0.825,0 -1.5,-0.41796 -1.5,-0.9288 0,-0.51084 -1.575,-2.59878 -3.5,-4.63988 -1.925,-2.04109 -3.5,-4.12528 -3.5,-4.63152 0,-0.50624 26.10682,-27.04252 58.01515,-58.96951 l 58.01515,-58.04906 4.28279,4.35938 c 2.35553,2.39767 5.27371,5.02123 6.48485,5.83015 1.21113,0.80892 2.20206,2.04642 2.20206,2.75 0,0.70358 0.675,1.27924 1.5,1.27924 0.825,0 1.5,0.80927 1.5,1.79839 0,1.03034 -13.2393,14.9483 -31,32.58909 -17.05,16.93488 -31,31.20061 -31,31.70161 0,0.501 -0.3889,0.91091 -0.86421,0.91091 -0.47532,0 -12.51282,11.72138 -26.75,26.04752 -14.23719,14.32613 -26.02574,26.44598 -26.19679,26.933 -0.17105,0.48702 1.13319,2.26564 2.89831,3.95249 1.76513,1.68684 3.59258,3.06699 4.061,3.06699 0.46843,0 0.85169,0.675 0.85169,1.5 0,0.825 0.52236,1.5 1.1608,1.5 0.63844,0 2.44927,1.44317 4.02406,3.20705 l 2.86325,3.20706 -8.94391,9.04294 c -4.91915,4.97362 -12.1514,12.37509 -16.07166,16.44771 -4.35584,4.52512 -6.91479,7.95971 -6.58014,8.83178 0.30118,0.78487 0.5476,1.61523 0.5476,1.84525 0,0.23001 0.675,0.41821 1.5,0.41821 0.825,0 1.5,0.62686 1.5,1.39301 0,0.76616 0.675,1.65203 1.5,1.96862 0.825,0.31658 1.5,1.26472 1.5,2.10699 0,0.84226 0.59896,1.53138 1.33102,1.53138 0.73206,0 1.9331,1.125 2.66898,2.5 0.73588,1.375 1.93692,2.5 2.66898,2.5 0.73206,0 1.33102,0.5169 1.33102,1.14867 0,0.63176 -3.40037,4.51611 -7.55638,8.63188 -4.76652,4.72037 -7.35096,8.01853 -7,8.93312 0.30601,0.79745 0.55638,1.6381 0.55638,1.86812 0,0.23001 0.675,0.41821 1.5,0.41821 0.825,0 1.5,0.62686 1.5,1.39301 0,0.76616 0.675,1.65203 1.5,1.96862 0.825,0.31658 1.5,1.26472 1.5,2.10699 0,0.84226 0.59896,1.53138 1.33102,1.53138 0.73206,0 1.9331,1.125 2.66898,2.5 0.73588,1.375 1.93692,2.5 2.66898,2.5 0.73206,0 1.33102,0.60629 1.33102,1.34732 0,0.74102 -3.39464,4.8653 -7.54365,9.16507 -4.59236,4.75923 -7.33095,8.37201 -7,9.23447 0.29901,0.77919 0.54365,1.60491 0.54365,1.83493 0,0.23001 0.675,0.41821 1.5,0.41821 0.825,0 1.5,0.62686 1.5,1.39301 0,0.76616 0.675,1.65203 1.5,1.96862 0.825,0.31658 1.5,1.26472 1.5,2.10699 0,0.84226 0.44046,1.53138 0.9788,1.53138 0.53834,0 3.23834,2.28344 6,5.07432 2.76166,2.79087 5.0212,5.49087 5.0212,6 0,0.50912 0.56675,0.92568 1.25945,0.92568 0.6927,0 1.82152,0.9 2.50848,2 0.68696,1.1 1.84416,2 2.57156,2 0.7274,0 1.92463,1.125 2.66051,2.5 0.73588,1.375 1.93692,2.5 2.66898,2.5 0.73206,0 1.33102,0.61635 1.33102,1.36967 0,0.75331 -3.66861,4.9652 -8.15247,9.35975 l -8.15248,7.99009 1.90248,2.60882 c 1.04636,1.43485 2.19471,2.62296 2.55189,2.64025 0.35718,0.0173 4.06968,3.46279 8.25,7.65669 4.18032,4.1939 7.60058,8.0189 7.60058,8.5 0,0.4811 0.42508,0.87473 0.94463,0.87473 0.51955,0 3.21955,2.31108 6,5.13574 2.78045,2.82466 5.05537,5.52466 5.05537,6 0,0.47534 0.56675,0.86426 1.25945,0.86426 0.6927,0 1.82152,0.9 2.50848,2 0.68696,1.1 1.9202,2 2.74054,2 0.82034,0 1.49153,0.47149 1.49153,1.04775 0,0.57626 1.19071,2.15126 2.64602,3.5 1.45532,1.34874 3.03032,2.45225 3.5,2.45225 0.46969,0 0.85398,0.675 0.85398,1.5 0,0.825 0.45,1.5 1,1.5 0.55,0 1,0.60277 1,1.33948 0,0.73672 1.125,1.85207 2.5,2.47857 1.375,0.62649 2.5,1.59872 2.5,2.16051 0,0.56179 0.57267,1.02144 1.2726,1.02144 0.69992,0 2.12079,1.575 3.15747,3.5 1.03668,1.925 2.37651,3.51414 2.9774,3.53142 0.60089,0.0173 1.93338,1.18517 2.96109,2.59529 l 1.86855,2.56386 -4.86855,5.0651 c -2.67771,2.78581 -6.12158,6.34293 -7.65304,7.90472 -1.53146,1.56179 -3.10646,2.80408 -3.5,2.76066 z m 333.82737,-0.12342 c -0.4558,0.16369 -2.8654,-1.71032 -5.3548,-4.16446 -2.4894,-2.45415 -5.0284,-5.40058 -5.6423,-6.54763 -0.6139,-1.14705 -1.7272,-2.08554 -2.474,-2.08554 -0.7468,0 -1.631,-0.7118 -1.9648,-1.58179 -0.3338,-0.86998 -0.607,-1.81654 -0.607,-2.10347 0,-0.28693 14.9625,-15.36734 33.25,-33.51203 19.0967,-18.94758 32.7179,-33.19871 32,-33.47986 -0.6875,-0.26923 -1.25,-0.91324 -1.25,-1.43111 0,-0.51788 -2.7478,-3.63038 -6.1063,-6.91667 -3.3585,-3.28629 -6.5085,-5.97507 -7,-5.97507 -0.4915,0 -0.8937,-0.43727 -0.8937,-0.97171 0,-0.53444 7.2,-8.26686 16,-17.18315 8.8,-8.9163 16,-16.50579 16,-16.86553 0,-0.35974 -1.8,-2.54627 -4,-4.85895 -2.2,-2.31268 -4,-4.63593 -4,-5.16277 0,-0.52684 -0.5482,-0.95789 -1.2181,-0.95789 -0.67,0 -2.245,-1.19499 -3.5,-2.65554 -1.2551,-1.46055 -2.2819,-3.10087 -2.2819,-3.64516 0,-0.54429 3.375,-4.36462 7.5,-8.48962 4.125,-4.125 7.5,-7.88468 7.5,-8.35484 0,-0.47016 -0.45,-0.85484 -1,-0.85484 -0.55,0 -1.0041,-0.5625 -1.0091,-1.25 -0.01,-0.6875 -1.355,-2.31315 -3,-3.61256 -1.645,-1.29941 -2.9909,-2.98691 -2.9909,-3.75 0,-0.76309 -0.9,-1.38744 -2,-1.38744 -1.1,0 -2,-0.51289 -2,-1.13976 0,-0.62686 -0.7698,-1.70267 -1.7107,-2.39067 -1.5347,-1.12218 -0.9173,-2.0598 5.9991,-9.11025 4.2404,-4.32262 7.7102,-8.38718 7.7107,-9.03234 5e-4,-0.64517 -1.7991,-2.93747 -3.9991,-5.09401 -2.2,-2.15654 -4,-4.44118 -4,-5.07698 0,-0.63579 -0.5026,-1.15599 -1.117,-1.15599 -0.6144,0 -2.8644,-1.80052 -5,-4.00114 -2.1356,-2.20063 -3.883,-4.22613 -3.883,-4.50112 0,-0.27498 -1.8542,-2.29946 -4.1206,-4.49885 -2.2663,-2.19939 -4.4402,-3.99889 -4.831,-3.99889 -0.3907,0 -1.3125,-1.125 -2.0484,-2.5 -0.7359,-1.375 -1.7524,-2.5 -2.2591,-2.5 -0.5066,0 2.7195,-3.58712 7.169,-7.97138 4.4496,-4.38426 8.0901,-8.20412 8.0901,-8.48857 0,-0.28445 -0.7875,-1.45414 -1.75,-2.5993 -0.9625,-1.14515 -3.2341,-3.6253 -5.0481,-5.51143 -1.814,-1.88612 -3.7265,-3.42932 -4.25,-3.42932 -0.5235,0 -0.9524,-0.3375 -0.9529,-0.75 -6e-4,-0.4125 -2.2673,-3.1125 -5.0371,-6 -2.7699,-2.8875 -5.3933,-5.25 -5.83,-5.25 -0.4367,0 -1.396,-1.125 -2.1319,-2.5 -0.7359,-1.375 -1.8244,-2.51239 -2.419,-2.52753 -0.5945,-0.0151 -2.206,-1.57775 -3.581,-3.47247 -1.375,-1.89472 -2.9864,-3.45733 -3.581,-3.47247 -0.5946,-0.0151 -1.6831,-1.15253 -2.419,-2.52753 -0.7359,-1.375 -1.9369,-2.5 -2.669,-2.5 -0.732,0 -1.3315,-0.3375 -1.332,-0.75 -6e-4,-0.4125 -2.2673,-3.1125 -5.0371,-6 -2.7699,-2.8875 -5.4536,-5.25 -5.9638,-5.25 -0.5102,0 -1.4284,-0.9356 -2.0404,-2.07911 -0.612,-1.1435 -1.8528,-2.9435 -2.7574,-4 -0.9046,-1.05649 -2.2198,-1.92089 -2.9225,-1.92089 -0.7028,0 -1.2778,-0.675 -1.2778,-1.5 0,-0.83333 -0.8889,-1.5 -2,-1.5 -1.3631,0 -2,-0.66667 -2,-2.09362 0,-1.25262 -0.8034,-2.30371 -2,-2.61663 -1.1,-0.28766 -2.0005,-0.80803 -2.001,-1.15638 -6e-4,-0.34835 -2.2673,-2.99587 -5.0371,-5.88337 -2.7699,-2.8875 -5.4694,-5.25 -5.999,-5.25 -0.5296,0 -0.9634,-0.3375 -0.9639,-0.75 -6e-4,-0.4125 -2.2673,-3.1125 -5.0371,-6 -2.7699,-2.8875 -5.3933,-5.25 -5.83,-5.25 -0.4367,0 -1.396,-1.125 -2.1319,-2.5 -0.7359,-1.375 -1.9369,-2.5 -2.669,-2.5 -0.732,0 -1.3315,-0.3375 -1.332,-0.75 -6e-4,-0.4125 -2.2673,-3.1125 -5.0371,-6 -2.7699,-2.8875 -5.3569,-5.26239 -5.749,-5.27753 -0.3921,-0.0151 -1.8379,-1.57296 -3.2129,-3.46183 -1.375,-1.88886 -3.1038,-3.67821 -3.8418,-3.97632 -0.7977,-0.32223 -4.5932,2.78888 -9.3597,7.67211 -7.1755,7.3512 -8.1492,8.03446 -9.2684,6.50385 -0.6878,-0.94065 -1.7635,-1.71028 -2.3903,-1.71028 -0.6269,0 -1.1398,-0.38892 -1.1398,-0.86426 0,-0.47534 -2.2749,-3.17534 -5.0554,-6 -2.7804,-2.82466 -5.4804,-5.13574 -6,-5.13574 -0.5195,0 -0.9451,-0.3375 -0.9458,-0.75 -7e-4,-0.4125 -1.0655,-1.9875 -2.3664,-3.5 -1.3008,-1.5125 -2.5946,-2.75 -2.8751,-2.75 -0.2806,0 -2.3657,-1.74762 -4.6337,-3.8836 -2.26797,-2.13598 -4.12359,-4.38598 -4.12359,-5 0,-0.61402 -0.83246,-1.1164 -1.84992,-1.1164 -1.01746,0 -5.4047,3.375 -9.74943,7.5 -4.34473,4.125 -8.24691,7.5 -8.67152,7.5 -0.4246,0 -1.28459,-1.125 -1.91108,-2.5 -0.6265,-1.375 -1.74185,-2.5 -2.47857,-2.5 -0.73671,0 -1.33948,-0.45965 -1.33948,-1.02144 0,-0.56179 -1.07556,-1.5115 -2.39014,-2.11046 -1.31457,-0.59896 -3.00135,-2.27681 -3.7484,-3.72856 -0.74705,-1.45175 -1.80379,-2.95741 -2.34831,-3.34592 -0.57604,-0.411 0.46871,-2.24562 2.49841,-4.38731 1.91864,-2.02451 5.36171,-5.64507 7.65126,-8.04569 2.51965,-2.64188 4.73382,-4.14565 5.6094,-3.80965 0.79563,0.30531 2.0359,1.65624 2.75616,3.00207 0.72027,1.34583 1.65862,2.44696 2.08523,2.44696 0.42661,0 3.0712,2.33204 5.87687,5.18231 l 5.10121,5.18232 8.2042,-8.06793 c 4.5399,-4.46454 8.7905,-7.84911 9.517,-7.578 0.7221,0.26945 3.5342,2.80547 6.249,5.63561 2.7148,2.83013 4.9365,5.48319 4.9371,5.89569 5e-4,0.4125 0.6457,0.75 1.4336,0.75 0.788,0 1.7183,0.9 2.0674,2 0.3491,1.1 1.2795,2 2.0674,2 0.7879,0 1.4326,0.68912 1.4326,1.53139 0,0.84226 0.7676,1.82593 1.7057,2.18593 0.9382,0.36 2.5132,1.34588 3.5,2.19085 0.9869,0.84497 1.7943,2.1113 1.7943,2.81407 0,0.70277 0.4705,1.27776 1.0455,1.27776 0.575,0 2.2034,1.15799 3.6187,2.57331 l 2.5733,2.57331 3.0529,-2.82331 c 1.679,-1.55282 5.259,-4.96081 7.9555,-7.57331 2.6965,-2.6125 5.5443,-4.75 6.3284,-4.75 0.7842,0 1.4257,0.64468 1.4257,1.43261 0,0.78794 0.8584,1.70507 1.9076,2.03807 1.0492,0.333 2.1601,1.26332 2.4686,2.06739 0.3086,0.80406 1.2502,1.46193 2.0924,1.46193 0.8423,0 1.5314,0.59896 1.5314,1.33102 0,0.73206 1.0125,1.88263 2.25,2.55682 1.2375,0.6742 3.375,2.76285 4.75,4.64146 1.375,1.8786 2.9865,3.42803 3.581,3.44317 0.5946,0.0151 1.6831,1.15253 2.419,2.52753 0.7359,1.375 1.9369,2.5 2.669,2.5 0.7321,0 1.331,0.35935 1.331,0.79855 0,0.43921 1.8,2.67182 4,4.96137 2.2,2.28954 4,4.63019 4,5.20144 0,0.57125 0.9,1.03864 2,1.03864 1.1,0 2,0.46739 2,1.03864 0,0.57125 1.8,2.9119 4,5.20144 2.2,2.28955 4,4.52216 4,4.96136 0,0.43921 0.599,0.79856 1.331,0.79856 0.7321,0 1.9331,1.125 2.669,2.5 0.7359,1.375 1.8244,2.51239 2.419,2.52753 0.5946,0.0151 2.206,1.57775 3.581,3.47247 1.375,1.89472 2.9865,3.45733 3.581,3.47247 0.5946,0.0151 1.6831,1.15253 2.419,2.52753 0.7359,1.375 1.8789,2.5 2.5401,2.5 0.6612,0 2.2644,1.55027 3.5627,3.44505 1.2983,1.89477 3.3813,3.91012 4.6289,4.47856 1.2476,0.56843 2.2683,1.49316 2.2683,2.05495 0,0.56179 0.6028,1.02144 1.3395,1.02144 0.7367,0 1.8521,1.125 2.4786,2.5 0.6265,1.375 1.7112,2.51239 2.4105,2.52753 0.6993,0.0151 2.3964,1.57775 3.7714,3.47247 1.375,1.89472 2.9865,3.45733 3.581,3.47247 0.5946,0.0151 1.6831,1.15253 2.419,2.52753 0.7359,1.375 1.9369,2.5 2.669,2.5 0.7321,0 1.331,0.39438 1.331,0.8764 0,0.48203 1.8,2.78764 4,5.1236 2.2,2.33596 4,4.64157 4,5.1236 0,0.48202 0.9,0.8764 2,0.8764 1.1,0 2.0076,0.5625 2.0168,1.25 0.01,0.6875 1.8093,3.01659 4,5.17576 2.1908,2.15916 3.9828,4.40916 3.9823,5 -5e-4,0.59083 -3.3785,4.51725 -7.5066,8.72538 -5.1694,5.26962 -7.3146,8.1488 -6.892,9.25 0.3374,0.87937 1.0153,1.59886 1.5065,1.59886 0.4912,0 0.893,0.675 0.893,1.5 0,0.83333 0.8889,1.5 2,1.5 1.1633,0 2,0.66667 2,1.59362 0,0.87649 0.9,1.82897 2,2.11663 1.1,0.28766 2,0.89734 2,1.35486 0,0.45752 1.0641,1.98003 2.3647,3.38337 1.3006,1.40334 2.6339,2.55152 2.9629,2.55152 0.329,0 2.8644,2.3625 5.6343,5.25 2.7698,2.8875 5.0365,5.5875 5.0371,6 5e-4,0.4125 0.6,0.75 1.332,0.75 0.7321,0 1.9424,1.14234 2.6896,2.53852 1.3122,2.45183 1.0813,2.81897 -6.7604,10.75 l -8.1189,8.21148 5.4293,5.34837 c 2.9862,2.9416 5.4294,5.7541 5.4294,6.25 0,0.49589 0.5668,0.90163 1.2595,0.90163 0.6927,0 1.8423,0.9333 2.5547,2.074 1.1916,1.9081 0.6404,2.70803 -6.8909,10.0003 l -8.1861,7.92631 6.8814,6.83553 c 3.7848,3.75954 7.5206,7.61042 8.3018,8.5575 1.2802,1.55191 0.5999,2.54679 -6.8879,10.0737 l -8.3083,8.35173 6.8879,6.93252 c 3.7883,3.81289 7.4962,7.6674 8.2397,8.56559 1.1938,1.44216 -0.5305,3.47977 -14.75,17.43055 -8.856,8.68862 -16.1018,16.27982 -16.1018,16.86934 0,0.58952 1.0268,2.26684 2.2819,3.72739 1.255,1.46055 2.83,2.65554 3.5,2.65554 0.6699,0 1.2181,0.46782 1.2181,1.0396 0,0.57178 1.8328,2.83605 4.0728,5.03172 2.24,2.19567 3.9275,4.40191 3.75,4.90276 -0.1775,0.50086 -3.81,4.53658 -8.0721,8.96828 -4.2622,4.4317 -8.1472,8.05764 -8.6334,8.05764 -0.4862,0 -1.1194,0.9 -1.407,2 -0.2877,1.1 -1.2402,2 -2.1167,2 -0.8765,0 -1.5936,0.42385 -1.5936,0.9419 0,0.51804 -9.7039,10.53054 -21.5643,22.25 -11.8603,11.71945 -21.9371,21.44203 -22.3928,21.60573 z M 297.82893,192.90597 c -0.35646,0.10578 -2.78562,-2.02549 -5.39812,-4.73614 -2.6125,-2.71066 -4.75,-5.38471 -4.75,-5.94233 0,-0.55762 -0.45,-1.01386 -1,-1.01386 -0.55,0 -1.9,-0.9 -3,-2 -1.1,-1.1 -2,-2.26468 -2,-2.58817 0,-0.32349 7.49218,-7.88656 16.6493,-16.80682 l 16.6493,-16.21865 8.33972,8.39624 8.33972,8.39623 -16.5909,16.16058 c -9.12499,8.88833 -16.88255,16.24714 -17.23902,16.35292 z m 49.95965,-16.75373 c -0.33427,-0.0338 -1.62027,-1.23005 -2.85777,-2.6584 -1.2375,-1.42836 -2.25,-2.97573 -2.25,-3.43861 0,-0.46287 -0.48529,-0.84159 -1.07842,-0.84159 -0.59313,0 -2.84313,-1.78244 -5,-3.96097 -2.15687,-2.17853 -3.91259,-4.31603 -3.90161,-4.75 0.011,-0.43397 3.58399,-4.50153 7.94,-9.03903 4.35602,-4.5375 8.17203,-8.25 8.48003,-8.25 0.308,0 0.56,0.48999 0.56,1.08887 0,0.59887 3.37492,4.48575 7.49983,8.6375 l 7.49983,7.54864 -8.14205,7.8625 c -4.47814,4.32437 -8.41556,7.83486 -8.74984,7.80109 z m 33.85108,0.0589 c -0.29763,0.001 -2.11642,-1.685 -4.04176,-3.7475 -1.92534,-2.0625 -4.97855,-4.85603 -6.78491,-6.20785 -1.80636,-1.35182 -3.74624,-3.32101 -4.31084,-4.37597 -0.87829,-1.6411 0.15625,-3.1071 7.16332,-10.15076 l 8.18987,-8.23263 8.4015,8.5541 8.4015,8.5541 -8.23876,7.80201 c -4.53133,4.2911 -8.48229,7.80313 -8.77992,7.8045 z"
       id="path3159"
       inkscape:connector-curvature="0" />
  </g>
</svg>
