<?xml version="1.0" encoding="UTF-8" standalone="no"?>
<!-- Created with Inkscape (http://www.inkscape.org/) -->

<svg
   xmlns:dc="http://purl.org/dc/elements/1.1/"
   xmlns:cc="http://creativecommons.org/ns#"
   xmlns:rdf="http://www.w3.org/1999/02/22-rdf-syntax-ns#"
   xmlns:svg="http://www.w3.org/2000/svg"
   xmlns="http://www.w3.org/2000/svg"
   xmlns:sodipodi="http://sodipodi.sourceforge.net/DTD/sodipodi-0.dtd"
   xmlns:inkscape="http://www.inkscape.org/namespaces/inkscape"
   width="744.09448819"
   height="1052.3622047"
   id="svg4436"
   version="1.1"
   inkscape:version="0.48.4 r9939"
   sodipodi:docname="pixel-alien-smilie.svg">
  <defs
     id="defs4438" />
  <sodipodi:namedview
     id="base"
     pagecolor="#ffffff"
     bordercolor="#666666"
     borderopacity="1.0"
     inkscape:pageopacity="0.0"
     inkscape:pageshadow="2"
     inkscape:zoom="0.5"
     inkscape:cx="507.20482"
     inkscape:cy="443.14835"
     inkscape:document-units="px"
     inkscape:current-layer="layer1"
     showgrid="false"
     inkscape:window-width="1280"
     inkscape:window-height="977"
     inkscape:window-x="-4"
     inkscape:window-y="-4"
     inkscape:window-maximized="1" />
  <metadata
     id="metadata4441">
    <rdf:RDF>
      <cc:Work
         rdf:about="">
        <dc:format>image/svg+xml</dc:format>
        <dc:type
           rdf:resource="http://purl.org/dc/dcmitype/StillImage" />
        <dc:title></dc:title>
      </cc:Work>
    </rdf:RDF>
  </metadata>
  <g
     inkscape:label="Layer 1"
     inkscape:groupmode="layer"
     id="layer1">
    <g
       id="g4507"
       transform="matrix(18.278394,0,0,18.278394,-9313.4261,-10953.026)">
      <path
         inkscape:connector-curvature="0"
         id="path4467"
         d="m 512.23598,607.52132 0,-3.00223 0.49107,0 0.49108,0 0,3.00223 0,3.00223 -0.49108,0 -0.49107,0 0,-3.00223 z"
         style="fill:#000000;fill-opacity:1" />
      <path
         inkscape:connector-curvature="0"
         id="path4469"
         d="m 513.24045,604.00569 0,-0.49107 0.50223,0 0.50223,0 0,0.49107 0,0.49108 -0.50223,0 -0.50223,0 0,-0.49108 z"
         style="fill:#000000;fill-opacity:1" />
      <path
         inkscape:connector-curvature="0"
         id="path4471"
         d="m 514.24491,603.00123 0,-0.49107 0.49107,0 0.49107,0 0,0.49107 0,0.49107 -0.49107,0 -0.49107,0 0,-0.49107 z"
         style="fill:#000000;fill-opacity:1" />
      <path
         inkscape:connector-curvature="0"
         id="path4473"
         d="m 515.24938,601.99677 0,-0.49108 3.51562,0 3.51563,0 0,0.49108 0,0.49107 -3.51563,0 -3.51562,0 0,-0.49107 z"
         style="fill:#000000;fill-opacity:1" />
      <path
         inkscape:connector-curvature="0"
         id="path4475"
         d="m 522.28063,603.00123 0,-0.49107 0.50223,0 0.50223,0 0,0.49107 0,0.49107 -0.50223,0 -0.50223,0 0,-0.49107 z"
         style="fill:#000000;fill-opacity:1" />
      <path
         inkscape:connector-curvature="0"
         id="path4477"
         d="m 523.28509,604.00569 0,-0.49107 0.50223,0 0.50223,0 0,0.49107 0,0.49108 -0.50223,0 -0.50223,0 0,-0.49108 z"
         style="fill:#000000;fill-opacity:1" />
      <path
         inkscape:connector-curvature="0"
         id="path4479"
         d="m 524.28955,607.52132 0,-3.00223 0.50224,0 0.50223,0 0,3.00223 0,3.00223 -0.50223,0 -0.50224,0 0,-3.00223 z"
         style="fill:#000000;fill-opacity:1" />
      <path
         inkscape:connector-curvature="0"
         id="path4481"
         d="m 523.28509,611.53918 0,-0.99331 0.50223,0 0.50223,0 0,0.99331 0,0.9933 -0.50223,0 -0.50223,0 0,-0.9933 z"
         style="fill:#000000;fill-opacity:1" />
      <path
         inkscape:connector-curvature="0"
         id="path4483"
         d="m 522.28063,613.04587 0,-0.49107 0.50223,0 0.50223,0 0,0.49107 0,0.49107 -0.50223,0 -0.50223,0 0,-0.49107 z"
         style="fill:#000000;fill-opacity:1" />
      <path
         inkscape:connector-curvature="0"
         id="path4485"
         d="m 521.27616,614.05034 0,-0.49107 0.50223,0 0.50224,0 0,0.49107 0,0.49107 -0.50224,0 -0.50223,0 0,-0.49107 z"
         style="fill:#000000;fill-opacity:1" />
      <path
         inkscape:connector-curvature="0"
         id="path4487"
         d="m 520.2717,615.0548 0,-0.49107 0.50223,0 0.50223,0 0,0.49107 0,0.49107 -0.50223,0 -0.50223,0 0,-0.49107 z"
         style="fill:#000000;fill-opacity:1" />
      <path
         inkscape:connector-curvature="0"
         id="path4489"
         d="m 517.2583,616.05927 0,-0.49108 1.5067,0 1.5067,0 0,0.49108 0,0.49107 -1.5067,0 -1.5067,0 0,-0.49107 z"
         style="fill:#000000;fill-opacity:1" />
      <path
         inkscape:connector-curvature="0"
         id="path4491"
         d="m 516.25384,615.0548 0,-0.49107 0.49107,0 0.49107,0 0,0.49107 0,0.49107 -0.49107,0 -0.49107,0 0,-0.49107 z"
         style="fill:#000000;fill-opacity:1" />
      <path
         inkscape:connector-curvature="0"
         id="path4493"
         d="m 515.24938,614.05034 0,-0.49107 0.49107,0 0.49107,0 0,0.49107 0,0.49107 -0.49107,0 -0.49107,0 0,-0.49107 z"
         style="fill:#000000;fill-opacity:1" />
      <path
         inkscape:connector-curvature="0"
         id="path4495"
         d="m 514.24491,613.04587 0,-0.49107 0.49024,0 0.49024,0 0.006,0.49109 0.006,0.49109 -0.49666,-2e-5 -0.49665,-2e-5 0,-0.49107 z"
         style="fill:#000000;fill-opacity:1" />
      <path
         inkscape:connector-curvature="0"
         id="path4497"
         d="m 513.24045,611.53918 0,-0.99331 0.50223,0 0.50223,0 0,0.99331 0,0.9933 -0.50223,0 -0.50223,0 0,-0.9933 z"
         style="fill:#000000;fill-opacity:1" />
      <path
         inkscape:connector-curvature="0"
         id="path4499"
         d="m 516.25384,610.01016 0,-0.49107 -0.50223,0 -0.50223,0 0,-0.50224 0,-0.50223 -0.50224,0 -0.50223,0 0,-0.9933 0,-0.9933 1.49554,0 1.49553,0 0,0.50223 0,0.50223 0.5134,0 0.51339,0 0,1.48437 0,1.48438 -1.00447,0 -1.00446,0 0,-0.49107 z"
         style="fill:#000000;fill-opacity:1" />
      <path
         inkscape:connector-curvature="0"
         id="path4501"
         d="m 519.26723,609.01685 0,-1.48437 0.50224,0 0.50223,0 0,-0.50223 0,-0.50223 1.48437,0 1.48438,0 0,0.9933 0,0.9933 -0.49107,0 -0.49108,0 0,0.50223 0,0.50224 -0.50223,0 -0.50223,0 0,0.49107 0,0.49107 -0.9933,0 -0.99331,0 0,-1.48438 z"
         style="fill:#000000;fill-opacity:1" />
      <path
         inkscape:connector-curvature="0"
         id="path4503"
         d="m 517.2583,613.04587 0,-0.49107 1.49554,0 1.49554,0 0,0.49107 0,0.49107 -1.49554,0 -1.49554,0 0,-0.49107 z"
         style="fill:#000000;fill-opacity:1" />
    </g>
  </g>
</svg>
