0
SECTION
2
ENTITIES
0
POLYLINE
5
3fd
8
0
66
1
10
0
20
0
30
0
0
VERTEX
5
40d
8
0
10
27.953837
20
124.610782
30
0.000000
0
VERTEX
5
41d
8
0
10
15.392801
20
135.720889
30
0.000000
0
VERTEX
5
42d
8
0
10
5.738746
20
124.610782
30
0.000000
0
VERTEX
5
43d
8
0
10
11.019508
20
87.640325
30
0.000000
0
VERTEX
5
44d
8
0
10
23.585672
20
76.535345
30
0.000000
0
VERTEX
5
45d
8
0
10
33.239721
20
87.640325
30
0.000000
0
VERTEX
5
46d
8
0
10
27.953837
20
124.610782
30
0.000000
0
SEQEND
5
47d
8
0
0
POLYLINE
5
48d
8
0
66
1
10
0
20
0
30
0
0
VERTEX
5
49d
8
0
10
36.695290
20
62.877139
30
0.000000
0
VERTEX
5
4ad
8
0
10
23.949686
20
73.982118
30
0.000000
0
VERTEX
5
4bd
8
0
10
14.480204
20
62.877139
30
0.000000
0
VERTEX
5
4cd
8
0
10
19.581520
20
25.906681
30
0.000000
0
VERTEX
5
4dd
8
0
10
32.327125
20
14.796575
30
0.000000
0
VERTEX
5
4ed
8
0
10
41.796606
20
25.906681
30
0.000000
0
VERTEX
5
4fd
8
0
10
36.695290
20
62.877139
30
0.000000
0
SEQEND
5
50d
8
0
0
POLYLINE
5
51d
8
0
66
1
10
0
20
0
30
0
0
VERTEX
5
52d
8
0
10
81.158664
20
62.323429
30
0.000000
0
VERTEX
5
53d
8
0
10
68.166967
20
73.982118
30
0.000000
0
VERTEX
5
54d
8
0
10
58.518039
20
63.133485
30
0.000000
0
VERTEX
5
55d
8
0
10
63.404025
20
25.906681
30
0.000000
0
VERTEX
5
56d
8
0
10
76.308568
20
14.796575
30
0.000000
0
VERTEX
5
57d
8
0
10
85.895971
20
26.229679
30
0.000000
0
VERTEX
5
58d
8
0
10
81.158664
20
62.323429
30
0.000000
0
SEQEND
5
59d
8
0
0
POLYLINE
5
5ad
8
0
66
1
10
0
20
0
30
0
0
VERTEX
5
5bd
8
0
10
72.135229
20
124.298038
30
0.000000
0
VERTEX
5
5cd
8
0
10
59.369117
20
135.720889
30
0.000000
0
VERTEX
5
5dd
8
0
10
49.561251
20
124.610782
30
0.000000
0
VERTEX
5
5ed
8
0
10
55.113746
20
87.399359
30
0.000000
0
VERTEX
5
5fd
8
0
10
67.792699
20
76.535345
30
0.000000
0
VERTEX
5
60d
8
0
10
77.528781
20
88.178653
30
0.000000
0
VERTEX
5
61d
8
0
10
72.135229
20
124.298038
30
0.000000
0
SEQEND
5
62d
8
0
0
POLYLINE
5
63d
8
0
66
1
10
0
20
0
30
0
0
VERTEX
5
64d
8
0
10
121.861546
20
136.946234
30
0.000000
0
VERTEX
5
65d
8
0
10
109.295382
20
148.102484
30
0.000000
0
VERTEX
5
66d
8
0
10
69.776830
20
148.102484
30
0.000000
0
VERTEX
5
67d
8
0
10
60.307348
20
136.946234
30
0.000000
0
VERTEX
5
68d
8
0
10
72.873507
20
125.789984
30
0.000000
0
VERTEX
5
69d
8
0
10
112.392064
20
125.789984
30
0.000000
0
VERTEX
5
6ad
8
0
10
121.861546
20
136.946234
30
0.000000
0
SEQEND
5
6bd
8
0
0
POLYLINE
5
6cd
8
0
66
1
10
0
20
0
30
0
0
VERTEX
5
6dd
8
0
10
136.063207
20
124.610782
30
0.000000
0
VERTEX
5
6ed
8
0
10
123.343238
20
135.720889
30
0.000000
0
VERTEX
5
6fd
8
0
10
113.571261
20
124.292911
30
0.000000
0
VERTEX
5
70d
8
0
10
118.657201
20
88.055609
30
0.000000
0
VERTEX
5
71d
8
0
10
131.438695
20
76.535345
30
0.000000
0
VERTEX
5
72d
8
0
10
141.256810
20
87.542911
30
0.000000
0
VERTEX
5
73d
8
0
10
136.063207
20
124.610782
30
0.000000
0
SEQEND
5
74d
8
0
0
POLYLINE
5
75d
8
0
66
1
10
0
20
0
30
0
0
VERTEX
5
76d
8
0
10
144.702125
20
62.964298
30
0.000000
0
VERTEX
5
77d
8
0
10
131.818090
20
73.982118
30
0.000000
0
VERTEX
5
78d
8
0
10
122.246068
20
62.477235
30
0.000000
0
VERTEX
5
79d
8
0
10
127.332003
20
26.214298
30
0.000000
0
VERTEX
5
7ad
8
0
10
140.282689
20
14.796575
30
0.000000
0
VERTEX
5
7bd
8
0
10
149.905981
20
25.927189
30
0.000000
0
VERTEX
5
7cd
8
0
10
144.702125
20
62.964298
30
0.000000
0
SEQEND
5
7dd
8
0
0
POLYLINE
5
7ed
8
0
66
1
10
0
20
0
30
0
0
VERTEX
5
7fd
8
0
10
139.344457
20
13.571234
30
0.000000
0
VERTEX
5
80d
8
0
10
126.593725
20
24.727484
30
0.000000
0
VERTEX
5
81d
8
0
10
87.259742
20
24.727484
30
0.000000
0
VERTEX
5
82d
8
0
10
77.605687
20
13.571234
30
0.000000
0
VERTEX
5
83d
8
0
10
90.356419
20
2.414984
30
0.000000
0
VERTEX
5
84d
8
0
10
129.690402
20
2.414984
30
0.000000
0
VERTEX
5
85d
8
0
10
139.344457
20
13.571234
30
0.000000
0
SEQEND
5
86d
8
0
0
POLYLINE
5
87d
8
0
66
1
10
0
20
0
30
0
0
VERTEX
5
88d
8
0
10
250.237770
20
62.964298
30
0.000000
0
VERTEX
5
89d
8
0
10
237.697242
20
73.982118
30
0.000000
0
VERTEX
5
8ad
8
0
10
228.063700
20
62.810487
30
0.000000
0
VERTEX
5
8bd
8
0
10
233.590555
20
25.742616
30
0.000000
0
VERTEX
5
8cd
8
0
10
246.049051
20
14.796575
30
0.000000
0
VERTEX
5
8dd
8
0
10
255.436500
20
25.927189
30
0.000000
0
VERTEX
5
8ed
8
0
10
250.237770
20
62.964298
30
0.000000
0
SEQEND
5
8fd
8
0
0
POLYLINE
5
90d
8
0
66
1
10
0
20
0
30
0
0
VERTEX
5
91d
8
0
10
244.874980
20
13.571234
30
0.000000
0
VERTEX
5
92d
8
0
10
232.129371
20
24.727484
30
0.000000
0
VERTEX
5
93d
8
0
10
187.509498
20
24.727484
30
0.000000
0
VERTEX
5
94d
8
0
10
178.040016
20
13.571234
30
0.000000
0
VERTEX
5
95d
8
0
10
190.606180
20
2.414984
30
0.000000
0
VERTEX
5
96d
8
0
10
235.405494
20
2.414984
30
0.000000
0
VERTEX
5
97d
8
0
10
244.874980
20
13.571234
30
0.000000
0
SEQEND
5
98d
8
0
0
POLYLINE
5
99d
8
0
66
1
10
0
20
0
30
0
0
VERTEX
5
9ad
8
0
10
236.133522
20
75.258734
30
0.000000
0
VERTEX
5
9bd
8
0
10
223.567359
20
86.414984
30
0.000000
0
VERTEX
5
9cd
8
0
10
189.150123
20
86.414984
30
0.000000
0
VERTEX
5
9dd
8
0
10
179.680641
20
75.258734
30
0.000000
0
VERTEX
5
9ed
8
0
10
192.246805
20
64.102484
30
0.000000
0
VERTEX
5
9fd
8
0
10
226.664040
20
64.102484
30
0.000000
0
VERTEX
5
a0d
8
0
10
236.133522
20
75.258734
30
0.000000
0
SEQEND
5
a1d
8
0
0
POLYLINE
5
a2d
8
0
66
1
10
0
20
0
30
0
0
VERTEX
5
a3d
8
0
10
241.598857
20
124.610782
30
0.000000
0
VERTEX
5
a4d
8
0
10
229.109599
20
135.720889
30
0.000000
0
VERTEX
5
a5d
8
0
10
219.701637
20
124.774847
30
0.000000
0
VERTEX
5
a6d
8
0
10
224.572242
20
87.722357
30
0.000000
0
VERTEX
5
a7d
8
0
10
237.322978
20
76.535345
30
0.000000
0
VERTEX
5
a8d
8
0
10
246.797587
20
87.542911
30
0.000000
0
VERTEX
5
a9d
8
0
10
241.598857
20
124.610782
30
0.000000
0
SEQEND
5
aad
8
0
0
POLYLINE
5
abd
8
0
66
1
10
0
20
0
30
0
0
VERTEX
5
acd
8
0
10
227.576637
20
136.946234
30
0.000000
0
VERTEX
5
add
8
0
10
214.831032
20
148.102484
30
0.000000
0
VERTEX
5
aed
8
0
10
170.216286
20
148.102484
30
0.000000
0
VERTEX
5
afd
8
0
10
160.562231
20
136.946234
30
0.000000
0
VERTEX
5
b0d
8
0
10
173.307841
20
125.789984
30
0.000000
0
VERTEX
5
b1d
8
0
10
217.922587
20
125.789984
30
0.000000
0
VERTEX
5
b2d
8
0
10
227.576637
20
136.946234
30
0.000000
0
SEQEND
5
b3d
8
0
0
POLYLINE
5
b4d
8
0
66
1
10
0
20
0
30
0
0
VERTEX
5
b5d
8
0
10
250.237770
20
62.964298
30
0.000000
0
VERTEX
5
b6d
8
0
10
237.697242
20
73.982118
30
0.000000
0
VERTEX
5
b7d
8
0
10
228.063700
20
62.810487
30
0.000000
0
VERTEX
5
b8d
8
0
10
233.590555
20
25.742616
30
0.000000
0
VERTEX
5
b9d
8
0
10
246.049051
20
14.796575
30
0.000000
0
VERTEX
5
bad
8
0
10
255.436500
20
25.927189
30
0.000000
0
VERTEX
5
bbd
8
0
10
250.237770
20
62.964298
30
0.000000
0
SEQEND
5
bcd
8
0
0
POLYLINE
5
bdd
8
0
66
1
10
0
20
0
30
0
0
VERTEX
5
bed
8
0
10
244.874980
20
13.571234
30
0.000000
0
VERTEX
5
bfd
8
0
10
232.129371
20
24.727484
30
0.000000
0
VERTEX
5
c0d
8
0
10
187.509498
20
24.727484
30
0.000000
0
VERTEX
5
c1d
8
0
10
178.040016
20
13.571234
30
0.000000
0
VERTEX
5
c2d
8
0
10
190.606180
20
2.414984
30
0.000000
0
VERTEX
5
c3d
8
0
10
235.405494
20
2.414984
30
0.000000
0
VERTEX
5
c4d
8
0
10
244.874980
20
13.571234
30
0.000000
0
SEQEND
5
c5d
8
0
0
POLYLINE
5
c6d
8
0
66
1
10
0
20
0
30
0
0
VERTEX
5
c7d
8
0
10
236.133522
20
75.258734
30
0.000000
0
VERTEX
5
c8d
8
0
10
223.567359
20
86.414984
30
0.000000
0
VERTEX
5
c9d
8
0
10
189.150123
20
86.414984
30
0.000000
0
VERTEX
5
cad
8
0
10
179.680641
20
75.258734
30
0.000000
0
VERTEX
5
cbd
8
0
10
192.246805
20
64.102484
30
0.000000
0
VERTEX
5
ccd
8
0
10
226.664040
20
64.102484
30
0.000000
0
VERTEX
5
cdd
8
0
10
236.133522
20
75.258734
30
0.000000
0
SEQEND
5
ced
8
0
0
POLYLINE
5
cfd
8
0
66
1
10
0
20
0
30
0
0
VERTEX
5
d0d
8
0
10
241.598857
20
124.610782
30
0.000000
0
VERTEX
5
d1d
8
0
10
229.109599
20
135.720889
30
0.000000
0
VERTEX
5
d2d
8
0
10
219.701637
20
124.774847
30
0.000000
0
VERTEX
5
d3d
8
0
10
224.572242
20
87.722357
30
0.000000
0
VERTEX
5
d4d
8
0
10
237.322978
20
76.535345
30
0.000000
0
VERTEX
5
d5d
8
0
10
246.797587
20
87.542911
30
0.000000
0
VERTEX
5
d6d
8
0
10
241.598857
20
124.610782
30
0.000000
0
SEQEND
5
d7d
8
0
0
POLYLINE
5
d8d
8
0
66
1
10
0
20
0
30
0
0
VERTEX
5
d9d
8
0
10
227.576637
20
136.946234
30
0.000000
0
VERTEX
5
dad
8
0
10
214.831032
20
148.102484
30
0.000000
0
VERTEX
5
dbd
8
0
10
170.216286
20
148.102484
30
0.000000
0
VERTEX
5
dcd
8
0
10
160.562231
20
136.946234
30
0.000000
0
VERTEX
5
ddd
8
0
10
173.307841
20
125.789984
30
0.000000
0
VERTEX
5
ded
8
0
10
217.922587
20
125.789984
30
0.000000
0
VERTEX
5
dfd
8
0
10
227.576637
20
136.946234
30
0.000000
0
SEQEND
5
e0d
8
0
0
POLYLINE
5
e1d
8
0
66
1
10
0
20
0
30
0
0
VERTEX
5
e2d
8
0
10
81.158664
20
62.323429
30
0.000000
0
VERTEX
5
e3d
8
0
10
68.166967
20
73.982118
30
0.000000
0
VERTEX
5
e4d
8
0
10
58.518039
20
63.133485
30
0.000000
0
VERTEX
5
e5d
8
0
10
63.404025
20
25.906681
30
0.000000
0
VERTEX
5
e6d
8
0
10
76.308568
20
14.796575
30
0.000000
0
VERTEX
5
e7d
8
0
10
85.895971
20
26.229679
30
0.000000
0
VERTEX
5
e8d
8
0
10
81.158664
20
62.323429
30
0.000000
0
SEQEND
5
e9d
8
0
0
POLYLINE
5
ead
8
0
66
1
10
0
20
0
30
0
0
VERTEX
5
ebd
8
0
10
72.135229
20
124.298038
30
0.000000
0
VERTEX
5
ecd
8
0
10
59.369117
20
135.720889
30
0.000000
0
VERTEX
5
edd
8
0
10
49.561251
20
124.610782
30
0.000000
0
VERTEX
5
eed
8
0
10
55.113746
20
87.399359
30
0.000000
0
VERTEX
5
efd
8
0
10
67.792699
20
76.535345
30
0.000000
0
VERTEX
5
f0d
8
0
10
77.528781
20
88.178653
30
0.000000
0
VERTEX
5
f1d
8
0
10
72.135229
20
124.298038
30
0.000000
0
SEQEND
5
f2d
8
0
0
POLYLINE
5
f3d
8
0
66
1
10
0
20
0
30
0
0
VERTEX
5
f4d
8
0
10
121.861546
20
136.946234
30
0.000000
0
VERTEX
5
f5d
8
0
10
109.295382
20
148.102484
30
0.000000
0
VERTEX
5
f6d
8
0
10
69.776830
20
148.102484
30
0.000000
0
VERTEX
5
f7d
8
0
10
60.307348
20
136.946234
30
0.000000
0
VERTEX
5
f8d
8
0
10
72.873507
20
125.789984
30
0.000000
0
VERTEX
5
f9d
8
0
10
112.392064
20
125.789984
30
0.000000
0
VERTEX
5
fad
8
0
10
121.861546
20
136.946234
30
0.000000
0
SEQEND
5
fbd
8
0
0
POLYLINE
5
fcd
8
0
66
1
10
0
20
0
30
0
0
VERTEX
5
fdd
8
0
10
136.063207
20
124.610782
30
0.000000
0
VERTEX
5
fed
8
0
10
123.343238
20
135.720889
30
0.000000
0
VERTEX
5
ffd
8
0
10
113.571261
20
124.292911
30
0.000000
0
VERTEX
5
100d
8
0
10
118.657201
20
88.055609
30
0.000000
0
VERTEX
5
101d
8
0
10
131.438695
20
76.535345
30
0.000000
0
VERTEX
5
102d
8
0
10
141.256810
20
87.542911
30
0.000000
0
VERTEX
5
103d
8
0
10
136.063207
20
124.610782
30
0.000000
0
SEQEND
5
104d
8
0
0
POLYLINE
5
105d
8
0
66
1
10
0
20
0
30
0
0
VERTEX
5
106d
8
0
10
144.702125
20
62.964298
30
0.000000
0
VERTEX
5
107d
8
0
10
131.818090
20
73.982118
30
0.000000
0
VERTEX
5
108d
8
0
10
122.246068
20
62.477235
30
0.000000
0
VERTEX
5
109d
8
0
10
127.332003
20
26.214298
30
0.000000
0
VERTEX
5
10ad
8
0
10
140.282689
20
14.796575
30
0.000000
0
VERTEX
5
10bd
8
0
10
149.905981
20
25.927189
30
0.000000
0
VERTEX
5
10cd
8
0
10
144.702125
20
62.964298
30
0.000000
0
SEQEND
5
10dd
8
0
0
POLYLINE
5
10ed
8
0
66
1
10
0
20
0
30
0
0
VERTEX
5
10fd
8
0
10
139.344457
20
13.571234
30
0.000000
0
VERTEX
5
110d
8
0
10
126.593725
20
24.727484
30
0.000000
0
VERTEX
5
111d
8
0
10
87.259742
20
24.727484
30
0.000000
0
VERTEX
5
112d
8
0
10
77.605687
20
13.571234
30
0.000000
0
VERTEX
5
113d
8
0
10
90.356419
20
2.414984
30
0.000000
0
VERTEX
5
114d
8
0
10
129.690402
20
2.414984
30
0.000000
0
VERTEX
5
115d
8
0
10
139.344457
20
13.571234
30
0.000000
0
SEQEND
5
116d
8
0
0
POLYLINE
5
117d
8
0
66
1
10
0
20
0
30
0
0
VERTEX
5
118d
8
0
10
27.953837
20
124.610782
30
0.000000
0
VERTEX
5
119d
8
0
10
15.392801
20
135.720889
30
0.000000
0
VERTEX
5
11ad
8
0
10
5.738746
20
124.610782
30
0.000000
0
VERTEX
5
11bd
8
0
10
11.019508
20
87.640325
30
0.000000
0
VERTEX
5
11cd
8
0
10
23.585672
20
76.535345
30
0.000000
0
VERTEX
5
11dd
8
0
10
33.239721
20
87.640325
30
0.000000
0
VERTEX
5
11ed
8
0
10
27.953837
20
124.610782
30
0.000000
0
SEQEND
5
11fd
8
0
0
POLYLINE
5
120d
8
0
66
1
10
0
20
0
30
0
0
VERTEX
5
121d
8
0
10
36.695290
20
62.877139
30
0.000000
0
VERTEX
5
122d
8
0
10
23.949686
20
73.982118
30
0.000000
0
VERTEX
5
123d
8
0
10
14.480204
20
62.877139
30
0.000000
0
VERTEX
5
124d
8
0
10
19.581520
20
25.906681
30
0.000000
0
VERTEX
5
125d
8
0
10
32.327125
20
14.796575
30
0.000000
0
VERTEX
5
126d
8
0
10
41.796606
20
25.906681
30
0.000000
0
VERTEX
5
127d
8
0
10
36.695290
20
62.877139
30
0.000000
0
SEQEND
5
128d
8
0
0
ENDSEC
0
EOF
