999
DXF created by Inkscape
0
SECTION
2
ENTITIES
0
LINE
8
2
62
4
10
41.079891
20
63.966691
30
0
11
28.427779
21
52.775728
31
0
0
LINE
8
2
62
4
10
28.427779
20
52.775728
30
0
11
18.703565
21
63.966691
31
0
0
LINE
8
2
62
4
10
18.703565
20
63.966691
30
0
11
24.021932
21
101.206450
31
0
0
LINE
8
2
62
4
10
24.021932
20
101.206450
30
0
11
36.679643
21
112.397410
31
0
0
LINE
8
2
62
4
10
36.679643
20
112.397410
30
0
11
46.403855
21
101.206450
31
0
0
LINE
8
2
62
4
10
46.403855
20
101.206450
30
0
11
41.079891
21
63.966691
31
0
0
LINE
8
2
62
4
10
41.079891
20
63.966691
30
0
11
41.079891
21
63.966691
31
0
0
LINE
8
2
62
4
10
49.885987
20
126.152385
30
0
11
37.049129
21
114.967021
31
0
0
LINE
8
2
62
4
10
37.049129
20
114.967021
30
0
11
27.509660
21
126.152385
31
0
0
LINE
8
2
62
4
10
27.509660
20
126.152385
30
0
11
32.643284
21
163.392146
31
0
0
LINE
8
2
62
4
10
32.643284
20
163.392146
30
0
11
45.485739
21
174.583107
31
0
0
LINE
8
2
62
4
10
45.485739
20
174.583107
30
0
11
55.025208
21
163.392146
31
0
0
LINE
8
2
62
4
10
55.025208
20
163.392146
30
0
11
49.885987
21
126.152385
31
0
0
LINE
8
2
62
4
10
49.885987
20
126.152385
30
0
11
49.885987
21
126.152385
31
0
0
LINE
8
2
62
4
10
95.194272
20
126.152385
30
0
11
82.351818
21
114.967021
31
0
0
LINE
8
2
62
4
10
82.351818
20
114.967021
30
0
11
72.812348
21
126.152385
31
0
0
LINE
8
2
62
4
10
72.812348
20
126.152385
30
0
11
77.951567
21
163.392146
31
0
0
LINE
8
2
62
4
10
77.951567
20
163.392146
30
0
11
90.794024
21
174.583107
31
0
0
LINE
8
2
62
4
10
90.794024
20
174.583107
30
0
11
100.333491
21
163.392146
31
0
0
LINE
8
2
62
4
10
100.333491
20
163.392146
30
0
11
95.194272
21
126.152385
31
0
0
LINE
8
2
62
4
10
95.194272
20
126.152385
30
0
11
95.194272
21
126.152385
31
0
0
LINE
8
2
62
4
10
86.388177
20
63.966691
30
0
11
73.730465
21
52.775728
31
0
0
LINE
8
2
62
4
10
73.730465
20
52.775728
30
0
11
64.011850
21
63.966691
31
0
0
LINE
8
2
62
4
10
64.011850
20
63.966691
30
0
11
69.330217
21
101.206450
31
0
0
LINE
8
2
62
4
10
69.330217
20
101.206450
30
0
11
81.987929
21
112.397410
31
0
0
LINE
8
2
62
4
10
81.987929
20
112.397410
30
0
11
91.712141
21
101.206450
31
0
0
LINE
8
2
62
4
10
91.712141
20
101.206450
30
0
11
86.388177
21
63.966691
31
0
0
LINE
8
2
62
4
10
86.388177
20
63.966691
30
0
11
86.388177
21
63.966691
31
0
0
LINE
8
2
62
4
10
136.839878
20
51.493722
30
0
11
124.182166
21
40.302759
31
0
0
LINE
8
2
62
4
10
124.182166
20
40.302759
30
0
11
84.372794
21
40.302759
31
0
0
LINE
8
2
62
4
10
84.372794
20
40.302759
30
0
11
74.833328
21
51.493722
31
0
0
LINE
8
2
62
4
10
74.833328
20
51.493722
30
0
11
87.491037
21
62.684683
31
0
0
LINE
8
2
62
4
10
87.491037
20
62.684683
30
0
11
127.300409
21
62.684683
31
0
0
LINE
8
2
62
4
10
127.300409
20
62.684683
30
0
11
136.839878
21
51.493722
31
0
0
LINE
8
2
62
4
10
136.839878
20
51.493722
30
0
11
136.839878
21
51.493722
31
0
0
LINE
8
2
62
4
10
151.143485
20
63.966691
30
0
11
138.485773
21
52.775728
31
0
0
LINE
8
2
62
4
10
138.485773
20
52.775728
30
0
11
128.767157
21
63.966691
31
0
0
LINE
8
2
62
4
10
128.767157
20
63.966691
30
0
11
134.085525
21
101.206450
31
0
0
LINE
8
2
62
4
10
134.085525
20
101.206450
30
0
11
146.743234
21
112.397410
31
0
0
LINE
8
2
62
4
10
146.743234
20
112.397410
30
0
11
156.467449
21
101.206450
31
0
0
LINE
8
2
62
4
10
156.467449
20
101.206450
30
0
11
151.143485
21
63.966691
31
0
0
LINE
8
2
62
4
10
151.143485
20
63.966691
30
0
11
151.143485
21
63.966691
31
0
0
LINE
8
2
62
4
10
159.949577
20
126.152385
30
0
11
147.112722
21
114.967021
31
0
0
LINE
8
2
62
4
10
147.112722
20
114.967021
30
0
11
137.573252
21
126.152385
31
0
0
LINE
8
2
62
4
10
137.573252
20
126.152385
30
0
11
142.706875
21
163.392146
31
0
0
LINE
8
2
62
4
10
142.706875
20
163.392146
30
0
11
155.549329
21
174.583107
31
0
0
LINE
8
2
62
4
10
155.549329
20
174.583107
30
0
11
165.088799
21
163.392146
31
0
0
LINE
8
2
62
4
10
165.088799
20
163.392146
30
0
11
159.949577
21
126.152385
31
0
0
LINE
8
2
62
4
10
159.949577
20
126.152385
30
0
11
159.949577
21
126.152385
31
0
0
LINE
8
2
62
4
10
154.446470
20
175.870712
30
0
11
141.604015
21
164.679751
31
0
0
LINE
8
2
62
4
10
141.604015
20
164.679751
30
0
11
101.984985
21
164.679751
31
0
0
LINE
8
2
62
4
10
101.984985
20
164.679751
30
0
11
92.260773
21
175.870712
31
0
0
LINE
8
2
62
4
10
92.260773
20
175.870712
30
0
11
105.103227
21
187.056076
31
0
0
LINE
8
2
62
4
10
105.103227
20
187.056076
30
0
11
144.727854
21
187.056076
31
0
0
LINE
8
2
62
4
10
144.727854
20
187.056076
30
0
11
154.446470
21
175.870712
31
0
0
LINE
8
2
62
4
10
154.446470
20
175.870712
30
0
11
154.446470
21
175.870712
31
0
0
LINE
8
2
62
4
10
265.646512
20
126.152385
30
0
11
252.988801
21
114.967021
31
0
0
LINE
8
2
62
4
10
252.988801
20
114.967021
30
0
11
243.264588
21
126.152385
31
0
0
LINE
8
2
62
4
10
243.264588
20
126.152385
30
0
11
248.588553
21
163.392146
31
0
0
LINE
8
2
62
4
10
248.588553
20
163.392146
30
0
11
261.240665
21
174.583107
31
0
0
LINE
8
2
62
4
10
261.240665
20
174.583107
30
0
11
270.780135
21
163.392146
31
0
0
LINE
8
2
62
4
10
270.780135
20
163.392146
30
0
11
265.646512
21
126.152385
31
0
0
LINE
8
2
62
4
10
265.646512
20
126.152385
30
0
11
265.646512
21
126.152385
31
0
0
LINE
8
2
62
4
10
260.143402
20
175.870712
30
0
11
247.300948
21
164.679751
31
0
0
LINE
8
2
62
4
10
247.300948
20
164.679751
30
0
11
202.357953
21
164.679751
31
0
0
LINE
8
2
62
4
10
202.357953
20
164.679751
30
0
11
192.818484
21
175.870712
31
0
0
LINE
8
2
62
4
10
192.818484
20
175.870712
30
0
11
205.476196
21
187.056076
31
0
0
LINE
8
2
62
4
10
205.476196
20
187.056076
30
0
11
250.603933
21
187.056076
31
0
0
LINE
8
2
62
4
10
250.603933
20
187.056076
30
0
11
260.143402
21
175.870712
31
0
0
LINE
8
2
62
4
10
260.143402
20
175.870712
30
0
11
260.143402
21
175.870712
31
0
0
LINE
8
2
62
4
10
251.337307
20
113.679419
30
0
11
238.679595
21
102.488455
31
0
0
LINE
8
2
62
4
10
238.679595
20
102.488455
30
0
11
204.009447
21
102.488455
31
0
0
LINE
8
2
62
4
10
204.009447
20
102.488455
30
0
11
194.469978
21
113.679419
31
0
0
LINE
8
2
62
4
10
194.469978
20
113.679419
30
0
11
207.127689
21
124.870379
31
0
0
LINE
8
2
62
4
10
207.127689
20
124.870379
30
0
11
241.797837
21
124.870379
31
0
0
LINE
8
2
62
4
10
241.797837
20
124.870379
30
0
11
251.337307
21
113.679419
31
0
0
LINE
8
2
62
4
10
251.337307
20
113.679419
30
0
11
251.337307
21
113.679419
31
0
0
LINE
8
2
62
4
10
256.840417
20
63.966691
30
0
11
244.182705
21
52.775728
31
0
0
LINE
8
2
62
4
10
244.182705
20
52.775728
30
0
11
234.643236
21
63.966691
31
0
0
LINE
8
2
62
4
10
234.643236
20
63.966691
30
0
11
239.782457
21
101.206450
31
0
0
LINE
8
2
62
4
10
239.782457
20
101.206450
30
0
11
252.619312
21
112.397410
31
0
0
LINE
8
2
62
4
10
252.619312
20
112.397410
30
0
11
262.158782
21
101.206450
31
0
0
LINE
8
2
62
4
10
262.158782
20
101.206450
30
0
11
256.840417
21
63.966691
31
0
0
LINE
8
2
62
4
10
256.840417
20
63.966691
30
0
11
256.840417
21
63.966691
31
0
0
LINE
8
2
62
4
10
242.715957
20
51.493722
30
0
11
229.873502
21
40.302759
31
0
0
LINE
8
2
62
4
10
229.873502
20
40.302759
30
0
11
184.930508
21
40.302759
31
0
0
LINE
8
2
62
4
10
184.930508
20
40.302759
30
0
11
175.206296
21
51.493722
31
0
0
LINE
8
2
62
4
10
175.206296
20
51.493722
30
0
11
188.048750
21
62.684683
31
0
0
LINE
8
2
62
4
10
188.048750
20
62.684683
30
0
11
232.991742
21
62.684683
31
0
0
LINE
8
2
62
4
10
232.991742
20
62.684683
30
0
11
242.715957
21
51.493722
31
0
0
LINE
8
2
62
4
10
242.715957
20
51.493722
30
0
11
242.715957
21
51.493722
31
0
0
ENDSEC
0
EOF

