<?xml version="1.0" encoding="UTF-8" standalone="no"?>
<!-- Created with Inkscape (http://www.inkscape.org/) -->
<svg
   xmlns:dc="http://purl.org/dc/elements/1.1/"
   xmlns:cc="http://creativecommons.org/ns#"
   xmlns:rdf="http://www.w3.org/1999/02/22-rdf-syntax-ns#"
   xmlns:svg="http://www.w3.org/2000/svg"
   xmlns="http://www.w3.org/2000/svg"
   xmlns:sodipodi="http://sodipodi.sourceforge.net/DTD/sodipodi-0.dtd"
   xmlns:inkscape="http://www.inkscape.org/namespaces/inkscape"
   width="792pt"
   height="612pt"
   id="svg2383"
   sodipodi:version="0.32"
   inkscape:version="0.46"
   sodipodi:docname="650.svg"
   inkscape:output_extension="org.inkscape.output.svg.inkscape">
  <defs
     id="defs2385">
    <inkscape:perspective
       sodipodi:type="inkscape:persp3d"
       inkscape:vp_x="0 : 382.5 : 1"
       inkscape:vp_y="0 : 1000 : 0"
       inkscape:vp_z="990 : 382.5 : 1"
       inkscape:persp3d-origin="495 : 255 : 1"
       id="perspective2392" />
  </defs>
  <sodipodi:namedview
     inkscape:document-units="in"
     pagecolor="#ffffff"
     bordercolor="#666666"
     borderopacity="1.0"
     inkscape:pageopacity="0.0"
     inkscape:pageshadow="2"
     inkscape:zoom="0.43415836"
     inkscape:cx="490"
     inkscape:cy="380"
     inkscape:current-layer="layer1"
     id="namedview2387"
     showgrid="false"
     inkscape:window-width="1280"
     inkscape:window-height="977"
     inkscape:window-x="-4"
     inkscape:window-y="-4" />
  <metadata
     id="metadata2389">
    <rdf:RDF>
      <cc:Work
         rdf:about="">
        <dc:format>image/svg+xml</dc:format>
        <dc:type
           rdf:resource="http://purl.org/dc/dcmitype/StillImage" />
      </cc:Work>
    </rdf:RDF>
  </metadata>
  <g
     inkscape:label="Layer 1"
     inkscape:groupmode="layer"
     id="layer1">
    <path
       style="font-size:593px;font-style:normal;font-variant:normal;font-weight:normal;font-stretch:normal;text-align:start;line-height:100%;writing-mode:lr-tb;text-anchor:start;fill:#000000;fill-opacity:1;stroke:none;stroke-width:1px;stroke-linecap:butt;stroke-linejoin:miter;stroke-opacity:1;font-family:MouseLEDU;-inkscape-font-specification:MouseLEDU"
       d="M 145.55867,538.34637 L 100.72835,577.99939 L 66.272476,538.34637 L 85.117081,406.39447 L 129.96724,366.74146 L 164.42311,406.39447 L 145.55867,538.34637 z M 176.76137,318.00336 L 131.27644,357.63654 L 97.475174,318.00336 L 115.66518,186.05145 L 161.16994,146.39844 L 194.97121,186.05145 L 176.76137,318.00336 z M 337.30254,318.00336 L 291.79778,357.63654 L 257.99651,318.00336 L 276.20634,186.05145 L 321.71111,146.39844 L 355.51237,186.05145 L 337.30254,318.00336 z M 306.09984,538.34637 L 261.24968,577.99939 L 226.81364,538.34637 L 245.65825,406.39447 L 290.50841,366.74146 L 324.96428,406.39447 L 306.09984,538.34637 z M 484.86571,582.54193 L 440.01555,622.19495 L 298.95872,622.19495 L 265.15746,582.54193 L 310.00761,542.88892 L 451.06444,542.88892 L 484.86571,582.54193 z M 535.54778,538.34637 L 490.69762,577.99939 L 456.26158,538.34637 L 475.10619,406.39447 L 519.95634,366.74146 L 554.41222,406.39447 L 535.54778,538.34637 z M 566.75047,318.00336 L 521.26555,357.63654 L 487.46428,318.00336 L 505.65428,186.05145 L 551.15904,146.39844 L 584.96031,186.05145 L 566.75047,318.00336 z M 547.25127,141.83606 L 501.74651,181.48907 L 361.36412,181.48907 L 326.90825,141.83606 L 372.41301,102.20288 L 512.81523,102.20288 L 547.25127,141.83606 z M 941.26717,318.00336 L 896.41701,357.63654 L 861.96114,318.00336 L 880.82558,186.05145 L 925.6559,146.39844 L 959.45717,186.05145 L 941.26717,318.00336 z M 921.76796,141.83606 L 876.2632,181.48907 L 717.01637,181.48907 L 683.2151,141.83606 L 728.06526,102.20288 L 887.96669,102.20288 L 921.76796,141.83606 z M 890.56526,362.19891 L 845.7151,401.85193 L 722.86812,401.85193 L 689.06685,362.19891 L 733.91701,322.5459 L 856.76399,322.5459 L 890.56526,362.19891 z M 910.06447,538.34637 L 865.21431,577.99939 L 831.41304,538.34637 L 849.62288,406.39447 L 895.1078,366.74146 L 928.90907,406.39447 L 910.06447,538.34637 z M 860.01717,582.54193 L 814.51241,622.19495 L 655.26558,622.19495 L 620.80971,582.54193 L 666.31447,542.88892 L 825.56129,542.88892 L 860.01717,582.54193 z"
       id="text2394" />
  </g>
</svg>
