999
DXF created by Inkscape
0
SECTION
2
ENTITIES
0
LINE
8
2
62
4
10
56.529427
20
241.986435
30
0
11
45.338467
21
254.638548
31
0
0
LINE
8
2
62
4
10
45.338467
20
254.638548
30
0
11
56.529427
21
264.362761
31
0
0
LINE
8
2
62
4
10
56.529427
20
264.362761
30
0
11
93.769188
21
259.044395
31
0
0
LINE
8
2
62
4
10
93.769188
20
259.044395
30
0
11
104.960149
21
246.386683
31
0
0
LINE
8
2
62
4
10
104.960149
20
246.386683
30
0
11
93.769188
21
236.662471
31
0
0
LINE
8
2
62
4
10
93.769188
20
236.662471
30
0
11
56.529427
21
241.986435
31
0
0
LINE
8
2
62
4
10
56.529427
20
241.986435
30
0
11
56.529427
21
241.986435
31
0
0
LINE
8
2
62
4
10
118.715124
20
233.180342
30
0
11
107.529760
21
246.017198
31
0
0
LINE
8
2
62
4
10
107.529760
20
246.017198
30
0
11
118.715124
21
255.556666
31
0
0
LINE
8
2
62
4
10
118.715124
20
255.556666
30
0
11
155.954885
21
250.423045
31
0
0
LINE
8
2
62
4
10
155.954885
20
250.423045
30
0
11
167.145846
21
237.580591
31
0
0
LINE
8
2
62
4
10
167.145846
20
237.580591
30
0
11
155.954885
21
228.041121
31
0
0
LINE
8
2
62
4
10
155.954885
20
228.041121
30
0
11
118.715124
21
233.180342
31
0
0
LINE
8
2
62
4
10
118.715124
20
233.180342
30
0
11
118.715124
21
233.180342
31
0
0
LINE
8
2
62
4
10
118.715124
20
185.640289
30
0
11
107.529760
21
198.482743
31
0
0
LINE
8
2
62
4
10
107.529760
20
198.482743
30
0
11
118.715124
21
208.022213
31
0
0
LINE
8
2
62
4
10
118.715124
20
208.022213
30
0
11
155.954885
21
202.882991
31
0
0
LINE
8
2
62
4
10
155.954885
20
202.882991
30
0
11
167.145846
21
190.040537
31
0
0
LINE
8
2
62
4
10
167.145846
20
190.040537
30
0
11
155.954885
21
180.501067
31
0
0
LINE
8
2
62
4
10
155.954885
20
180.501067
30
0
11
118.715124
21
185.640289
31
0
0
LINE
8
2
62
4
10
118.715124
20
185.640289
30
0
11
118.715124
21
185.640289
31
0
0
LINE
8
2
62
4
10
56.529427
20
194.446384
30
0
11
45.338467
21
207.104096
31
0
0
LINE
8
2
62
4
10
45.338467
20
207.104096
30
0
11
56.529427
21
216.822709
31
0
0
LINE
8
2
62
4
10
56.529427
20
216.822709
30
0
11
93.769188
21
211.504344
31
0
0
LINE
8
2
62
4
10
93.769188
20
211.504344
30
0
11
104.960149
21
198.846632
31
0
0
LINE
8
2
62
4
10
104.960149
20
198.846632
30
0
11
93.769188
21
189.122420
31
0
0
LINE
8
2
62
4
10
93.769188
20
189.122420
30
0
11
56.529427
21
194.446384
31
0
0
LINE
8
2
62
4
10
56.529427
20
194.446384
30
0
11
56.529427
21
194.446384
31
0
0
LINE
8
2
62
4
10
44.056461
20
143.994683
30
0
11
32.865497
21
156.652395
31
0
0
LINE
8
2
62
4
10
32.865497
20
156.652395
30
0
11
32.865497
21
196.461764
31
0
0
LINE
8
2
62
4
10
32.865497
20
196.461764
30
0
11
44.056461
21
206.001233
31
0
0
LINE
8
2
62
4
10
44.056461
20
206.001233
30
0
11
55.247421
21
193.343522
31
0
0
LINE
8
2
62
4
10
55.247421
20
193.343522
30
0
11
55.247421
21
153.534152
31
0
0
LINE
8
2
62
4
10
55.247421
20
153.534152
30
0
11
44.056461
21
143.994683
31
0
0
LINE
8
2
62
4
10
44.056461
20
143.994683
30
0
11
44.056461
21
143.994683
31
0
0
LINE
8
2
62
4
10
56.529427
20
129.691076
30
0
11
45.338467
21
142.348788
31
0
0
LINE
8
2
62
4
10
45.338467
20
142.348788
30
0
11
56.529427
21
152.067404
31
0
0
LINE
8
2
62
4
10
56.529427
20
152.067404
30
0
11
93.769188
21
146.749036
31
0
0
LINE
8
2
62
4
10
93.769188
20
146.749036
30
0
11
104.960149
21
134.091324
31
0
0
LINE
8
2
62
4
10
104.960149
20
134.091324
30
0
11
93.769188
21
124.367112
31
0
0
LINE
8
2
62
4
10
93.769188
20
124.367112
30
0
11
56.529427
21
129.691076
31
0
0
LINE
8
2
62
4
10
56.529427
20
129.691076
30
0
11
56.529427
21
129.691076
31
0
0
LINE
8
2
62
4
10
118.715124
20
120.884981
30
0
11
107.529760
21
133.721839
31
0
0
LINE
8
2
62
4
10
107.529760
20
133.721839
30
0
11
118.715124
21
143.261309
31
0
0
LINE
8
2
62
4
10
118.715124
20
143.261309
30
0
11
155.954885
21
138.127686
31
0
0
LINE
8
2
62
4
10
155.954885
20
138.127686
30
0
11
167.145846
21
125.285229
31
0
0
LINE
8
2
62
4
10
167.145846
20
125.285229
30
0
11
155.954885
21
115.745760
31
0
0
LINE
8
2
62
4
10
155.954885
20
115.745760
30
0
11
118.715124
21
120.884981
31
0
0
LINE
8
2
62
4
10
118.715124
20
120.884981
30
0
11
118.715124
21
120.884981
31
0
0
LINE
8
2
62
4
10
168.433451
20
126.388091
30
0
11
157.242487
21
139.230546
31
0
0
LINE
8
2
62
4
10
157.242487
20
139.230546
30
0
11
157.242487
21
178.849576
31
0
0
LINE
8
2
62
4
10
157.242487
20
178.849576
30
0
11
168.433451
21
188.573788
31
0
0
LINE
8
2
62
4
10
168.433451
20
188.573788
30
0
11
179.618815
21
175.731334
31
0
0
LINE
8
2
62
4
10
179.618815
20
175.731334
30
0
11
179.618815
21
136.106707
31
0
0
LINE
8
2
62
4
10
179.618815
20
136.106707
30
0
11
168.433451
21
126.388091
31
0
0
LINE
8
2
62
4
10
168.433451
20
126.388091
30
0
11
168.433451
21
126.388091
31
0
0
LINE
8
2
62
4
10
118.715124
20
12.956280
30
0
11
107.529760
21
25.613992
31
0
0
LINE
8
2
62
4
10
107.529760
20
25.613992
30
0
11
118.715124
21
35.338204
31
0
0
LINE
8
2
62
4
10
118.715124
20
35.338204
30
0
11
155.954885
21
30.014240
31
0
0
LINE
8
2
62
4
10
155.954885
20
30.014240
30
0
11
167.145846
21
17.362128
31
0
0
LINE
8
2
62
4
10
167.145846
20
17.362128
30
0
11
155.954885
21
7.822658
31
0
0
LINE
8
2
62
4
10
155.954885
20
7.822658
30
0
11
118.715124
21
12.956280
31
0
0
LINE
8
2
62
4
10
118.715124
20
12.956280
30
0
11
118.715124
21
12.956280
31
0
0
LINE
8
2
62
4
10
168.433451
20
18.459391
30
0
11
157.242487
21
31.301845
31
0
0
LINE
8
2
62
4
10
157.242487
20
31.301845
30
0
11
157.242487
21
76.244839
31
0
0
LINE
8
2
62
4
10
157.242487
20
76.244839
30
0
11
168.433451
21
85.784309
31
0
0
LINE
8
2
62
4
10
168.433451
20
85.784309
30
0
11
179.618815
21
73.126597
31
0
0
LINE
8
2
62
4
10
179.618815
20
73.126597
30
0
11
179.618815
21
27.998860
31
0
0
LINE
8
2
62
4
10
179.618815
20
27.998860
30
0
11
168.433451
21
18.459391
31
0
0
LINE
8
2
62
4
10
168.433451
20
18.459391
30
0
11
168.433451
21
18.459391
31
0
0
LINE
8
2
62
4
10
106.242158
20
27.265486
30
0
11
95.051194
21
39.923198
31
0
0
LINE
8
2
62
4
10
95.051194
20
39.923198
30
0
11
95.051194
21
74.593346
31
0
0
LINE
8
2
62
4
10
95.051194
20
74.593346
30
0
11
106.242158
21
84.132815
31
0
0
LINE
8
2
62
4
10
106.242158
20
84.132815
30
0
11
117.433118
21
71.475103
31
0
0
LINE
8
2
62
4
10
117.433118
20
71.475103
30
0
11
117.433118
21
36.804956
31
0
0
LINE
8
2
62
4
10
117.433118
20
36.804956
30
0
11
106.242158
21
27.265486
31
0
0
LINE
8
2
62
4
10
106.242158
20
27.265486
30
0
11
106.242158
21
27.265486
31
0
0
LINE
8
2
62
4
10
56.529427
20
21.762376
30
0
11
45.338467
21
34.420088
31
0
0
LINE
8
2
62
4
10
45.338467
20
34.420088
30
0
11
56.529427
21
43.959557
31
0
0
LINE
8
2
62
4
10
56.529427
20
43.959557
30
0
11
93.769188
21
38.820336
31
0
0
LINE
8
2
62
4
10
93.769188
20
38.820336
30
0
11
104.960149
21
25.983480
31
0
0
LINE
8
2
62
4
10
104.960149
20
25.983480
30
0
11
93.769188
21
16.444011
31
0
0
LINE
8
2
62
4
10
93.769188
20
16.444011
30
0
11
56.529427
21
21.762376
31
0
0
LINE
8
2
62
4
10
56.529427
20
21.762376
30
0
11
56.529427
21
21.762376
31
0
0
LINE
8
2
62
4
10
44.056461
20
35.886836
30
0
11
32.865497
21
48.729290
31
0
0
LINE
8
2
62
4
10
32.865497
20
48.729290
30
0
11
32.865497
21
93.672285
31
0
0
LINE
8
2
62
4
10
32.865497
20
93.672285
30
0
11
44.056461
21
103.396497
31
0
0
LINE
8
2
62
4
10
44.056461
20
103.396497
30
0
11
55.247421
21
90.554042
31
0
0
LINE
8
2
62
4
10
55.247421
20
90.554042
30
0
11
55.247421
21
45.611051
31
0
0
LINE
8
2
62
4
10
55.247421
20
45.611051
30
0
11
44.056461
21
35.886836
31
0
0
LINE
8
2
62
4
10
44.056461
20
35.886836
30
0
11
44.056461
21
35.886836
31
0
0
ENDSEC
0
EOF

